<?xml version="1.0" encoding="UTF-8"?>
<svg id="Ebene_1" xmlns="http://www.w3.org/2000/svg" version="1.1" viewBox="0 0 200 200">
  <!-- Generator: Adobe Illustrator 30.0.0, SVG Export Plug-In . SVG Version: 2.1.1 Build 123)  -->
  <defs>
    <style>
      .st0 {
        fill: #ffb800;
      }
    </style>
  </defs>
  <path class="st0" d="M89.67,179.34C40.23,179.34,0,139.11,0,89.67S40.23,0,89.67,0s89.67,40.22,89.67,89.67-40.23,89.67-89.67,89.67ZM89.67,14.04C47.97,14.04,14.04,47.96,14.04,89.67s33.92,75.63,75.63,75.63,75.63-33.93,75.63-75.63S131.37,14.04,89.67,14.04Z"/>
  <path class="st0" d="M192.98,200c-1.8,0-3.59-.69-4.96-2.06l-44.42-44.42c-2.74-2.74-2.74-7.19,0-9.93s7.19-2.74,9.93,0l44.42,44.42c2.74,2.74,2.74,7.19,0,9.93-1.37,1.37-3.17,2.06-4.96,2.06Z"/>
  <path class="st0" d="M89.67,96.69c-3.88,0-7.02-3.14-7.02-7.02v-41.32c0-3.88,3.14-7.02,7.02-7.02s7.02,3.14,7.02,7.02v41.32c0,3.88-3.14,7.02-7.02,7.02Z"/>
  <path class="st0" d="M89.77,138.02c-3.88,0-7.07-3.14-7.07-7.02s3.09-7.02,6.97-7.02h.11c3.88,0,7.02,3.14,7.02,7.02s-3.14,7.02-7.02,7.02Z"/>
</svg>