<?xml version="1.0" encoding="UTF-8"?>
<svg id="Ebene_1" xmlns="http://www.w3.org/2000/svg" version="1.1" viewBox="0 0 200 200">
  <!-- Generator: Adobe Illustrator 30.0.0, SVG Export Plug-In . SVG Version: 2.1.1 Build 123)  -->
  <defs>
    <style>
      .st0 {
        fill: #6e9de7;
      }

      .st1 {
        fill: #1c2761;
      }
    </style>
  </defs>
  <path class="st1" d="M134.48,200c-.11,0-.22-.01-.33-.04-.69-.18-1.11-.89-.93-1.58l2.97-11.5c.77-3.01,2.67-5.56,5.33-7.21l22.04-13.67c1.63-1.02,3.03-2.33,4.14-3.87l11.58-16.13c.53-.74.95-1.5,1.25-2.23l11.57-27.46c.23-.54.21-1.12-.05-1.65-.25-.51-.69-.88-1.24-1.04h-.03s-.08-.02-.12-.03c-2.06-.55-4.21.36-5.23,2.22l-5.09,9.26s-.02.03-.03.05l-7.16,13.06c-.61,1.11-1.41,2.14-2.38,3.05l-9.23,8.61c-.7.64-1.44,1.18-2.22,1.64l-6.89,3.97c-2.94,2.81-5.61,5.66-7.47,9.13-.34.63-1.12.87-1.75.53-.63-.34-.87-1.12-.53-1.75,2.56-4.79,6.56-8.5,10.42-12.09,3.17-2.95,6.45-5.99,8.82-9.56.85-1.28,1.72-3.07,1.03-4.33-.44-.81-1.57-1.3-2.75-1.19-1.26.11-2.46.77-3.49,1.44-.04.03-.09.06-.13.09-.02.01-.04.03-.06.04-2.39,1.58-4.62,3.59-6.76,5.53-3.29,2.97-6.7,6.05-10.92,7.85-1.76.75-3.59,1.24-5.37,1.72-1.58.43-3.07.83-4.51,1.39-4.75,1.86-8.78,5.55-11.07,10.11-1.53,3.05-2.31,6.5-3.07,9.84l-3.96,17.36c-.16.7-.86,1.14-1.55.98-.7-.16-1.14-.85-.98-1.55l3.96-17.36c.79-3.49,1.62-7.09,3.28-10.42,2.56-5.13,7.1-9.27,12.44-11.36,1.58-.62,3.2-1.06,4.78-1.48,1.77-.48,3.44-.93,5.03-1.61,3.83-1.63,6.92-4.42,10.2-7.38,2.15-1.94,4.37-3.95,6.83-5.61,1.5-4.58,3.21-9.43,5.42-14.04.62-1.27,1.3-2.61,2.32-3.72,1.23-1.35,2.78-2.15,4.35-2.25,1.28-.07,2.63.34,3.77,1.14,1.63-3.29,3.67-6.51,6.71-7.71.69-.27,2.43-.94,4.02-.04,1.08.6,1.78,1.74,2.07,3.37.09.46.12.9.11,1.32,1.72-2.39,4.73-3.51,7.65-2.76h.05s.08.02.12.03c1.29.35,2.36,1.23,2.95,2.42.58,1.19.62,2.57.11,3.79l-11.56,27.45c-.37.9-.89,1.83-1.54,2.74l-11.58,16.13c-1.32,1.82-2.95,3.35-4.88,4.56l-22.05,13.68c-2.09,1.29-3.57,3.3-4.18,5.65l-2.97,11.5c-.15.58-.68.97-1.25.97ZM160.53,133.59c2.01,0,3.86.99,4.71,2.56.72,1.32,1.1,3.6-1.15,7-.58.88-1.21,1.73-1.88,2.55l6.81-6.35c.77-.72,1.4-1.53,1.87-2.4l7.1-12.95c1.08-3.99,1.87-6.49,2.56-8.1.17-.42.66-1.59.42-2.91-.15-.84-.41-1.37-.79-1.58-.53-.3-1.4.04-1.78.19-2.67,1.05-4.54,4.66-6.08,7.97,0,.01-.01.02-.02.04-.11.26-.23.52-.36.78-1.91,4.16-3.62,8.08-5.09,11.63-.27.66-1.04.98-1.69.7-.66-.27-.98-1.03-.7-1.69,1.48-3.58,3.21-7.53,5.13-11.72,0,0,0,0-.01-.01-.74-.65-1.67-1-2.46-.95-.87.06-1.82.57-2.59,1.41-.78.86-1.35,1.96-1.9,3.1-1.74,3.63-3.17,7.45-4.43,11.16.57-.19,1.17-.33,1.8-.39.18-.02.37-.02.55-.02Z"/>
  <path class="st1" d="M65.52,200c-.58,0-1.1-.39-1.25-.97l-2.97-11.5c-.61-2.36-2.09-4.36-4.18-5.65l-22.04-13.67c-1.93-1.21-3.57-2.74-4.88-4.56l-11.58-16.13c-.65-.92-1.17-1.84-1.55-2.75l-11.56-27.44c-.51-1.22-.48-2.61.11-3.79.58-1.19,1.66-2.08,2.95-2.42.04-.01.08-.02.12-.03h.05c2.91-.76,5.93.36,7.65,2.75,0-.42.03-.86.11-1.33.29-1.63.99-2.76,2.08-3.37,1.58-.89,3.32-.22,3.97.03,3.08,1.21,5.12,4.45,6.75,7.72,1.14-.8,2.48-1.22,3.76-1.14,1.58.1,3.13.9,4.36,2.25,1.01,1.11,1.7,2.44,2.32,3.71,2.21,4.61,3.92,9.46,5.42,14.04,2.46,1.66,4.68,3.67,6.83,5.61,3.28,2.96,6.37,5.76,10.2,7.39,1.59.68,3.26,1.13,5.03,1.61,1.58.43,3.2.87,4.78,1.48,5.34,2.09,9.87,6.23,12.44,11.36,1.67,3.33,2.49,6.93,3.28,10.42l3.96,17.36c.16.7-.28,1.39-.98,1.55-.7.16-1.39-.28-1.55-.98l-3.96-17.36c-.76-3.33-1.55-6.78-3.07-9.84-2.28-4.56-6.31-8.24-11.07-10.11-1.44-.57-2.93-.97-4.51-1.39-1.77-.48-3.61-.98-5.37-1.72-4.23-1.8-7.63-4.87-10.92-7.85-2.15-1.94-4.37-3.95-6.76-5.53-.02-.01-.04-.03-.06-.04-.04-.02-.08-.05-.12-.08-1.03-.67-2.23-1.33-3.49-1.44-1.18-.11-2.31.38-2.75,1.19-.68,1.26.19,3.05,1.04,4.33,2.36,3.57,5.64,6.62,8.82,9.56,3.86,3.59,7.86,7.3,10.42,12.09.34.63.1,1.42-.53,1.75-.63.34-1.42.1-1.75-.53-1.86-3.47-4.52-6.32-7.47-9.13l-6.88-3.96c-.79-.46-1.53-1.01-2.22-1.64l-9.24-8.62c-.98-.92-1.78-1.94-2.38-3.06l-7.16-13.06s-.02-.03-.03-.05l-5.09-9.26c-1.02-1.86-3.18-2.78-5.24-2.22-.04.01-.08.02-.12.03h-.04c-.55.17-.99.54-1.24,1.05-.26.52-.27,1.11-.04,1.65l11.56,27.45c.3.74.73,1.49,1.26,2.24l11.58,16.12c1.11,1.54,2.51,2.85,4.15,3.88l22.03,13.67c2.66,1.64,4.55,4.2,5.32,7.21l2.97,11.49c.18.69-.24,1.4-.93,1.58-.11.03-.22.04-.33.04ZM22.01,123.99l7.1,12.95c.48.88,1.11,1.68,1.88,2.41l6.8,6.34c-.66-.82-1.29-1.66-1.88-2.54-2.25-3.4-1.87-5.68-1.15-7,.93-1.71,3.04-2.73,5.26-2.53.63.06,1.23.2,1.8.39-1.27-3.71-2.69-7.53-4.44-11.16-.55-1.14-1.12-2.24-1.9-3.09-.77-.84-1.72-1.36-2.6-1.41-.81-.03-1.71.3-2.45.95,0,0,0,0-.01.01,1.93,4.22,3.65,8.14,5.13,11.72.27.66-.04,1.42-.7,1.69-.66.27-1.42-.04-1.69-.7-1.48-3.57-3.19-7.48-5.1-11.64-.13-.28-.25-.53-.36-.79,0-.01-.01-.02-.02-.04-1.53-3.28-3.4-6.9-6.06-7.95-.4-.15-1.27-.49-1.79-.2-.38.21-.65.74-.8,1.57-.25,1.34.24,2.51.4,2.89.7,1.63,1.49,4.13,2.57,8.13Z"/>
  <path class="st0" d="M65.52,141.85c-.23,0-.47-.06-.68-.2-.61-.38-.79-1.18-.42-1.79l9.13-14.68c.38-.61,1.18-.79,1.79-.42.61.38.79,1.18.42,1.79l-9.13,14.68c-.25.4-.67.61-1.1.61Z"/>
  <path class="st0" d="M54.32,131.69c-.34,0-.68-.13-.93-.39-.5-.51-.49-1.34.03-1.83l6.4-6.21c.51-.5,1.33-.49,1.83.03.5.51.49,1.34-.03,1.83l-6.4,6.21c-.25.24-.58.37-.9.37Z"/>
  <path class="st0" d="M134.48,141.85c-.44,0-.86-.22-1.11-.62l-9.02-14.68c-.37-.61-.18-1.41.43-1.78.61-.38,1.41-.19,1.78.43l9.02,14.68c.37.61.18,1.41-.43,1.78-.21.13-.45.19-.68.19Z"/>
  <path class="st0" d="M145.97,131.69c-.31,0-.62-.11-.86-.33l-6.96-6.21c-.53-.48-.58-1.3-.11-1.83.48-.54,1.3-.58,1.83-.11l6.96,6.21c.53.48.58,1.3.11,1.83-.26.29-.61.43-.97.43Z"/>
  <path class="st0" d="M137.82,51.46c-.3,0-.61-.11-.85-.32-.54-.47-.6-1.29-.12-1.83,8.34-9.55,17.94-17.91,28.55-24.85.6-.39,1.4-.22,1.79.38.39.6.22,1.4-.37,1.79-10.41,6.81-19.83,15.01-28.01,24.38-.26.29-.62.44-.98.44Z"/>
  <path class="st0" d="M125.32,32.99c-.22,0-.45-.06-.65-.18-.62-.36-.83-1.16-.46-1.77,5.71-9.76,12.64-18.76,20.6-26.78.51-.51,1.33-.51,1.83,0s.51,1.33,0,1.83c-7.81,7.86-14.61,16.69-20.2,26.26-.24.41-.67.64-1.12.64Z"/>
  <g>
    <path class="st0" d="M142.96,73.73c-.46,0-.92-.25-1.15-.69-.33-.63-.09-1.42.54-1.75l47.43-25.03c.64-.33,1.42-.09,1.75.54.33.63.09,1.42-.54,1.75l-47.43,25.03c-.19.1-.4.15-.6.15Z"/>
    <path class="st0" d="M183.6,61.21c-.21,0-.42-.05-.62-.16-.63-.34-.86-1.13-.52-1.76l6.79-12.52c.34-.63,1.13-.86,1.76-.52.63.34.86,1.13.52,1.76l-6.79,12.52c-.24.43-.68.68-1.14.68Z"/>
    <path class="st0" d="M190.39,48.7c-.07,0-.15,0-.22-.02l-14.45-2.5c-.71-.12-1.18-.79-1.06-1.5.12-.7.78-1.18,1.5-1.06l14.45,2.5c.71.12,1.18.79,1.06,1.5-.11.63-.66,1.08-1.28,1.08Z"/>
  </g>
  <g>
    <path class="st0" d="M71.52,46.48c-.41,0-.81-.19-1.06-.55L39.64,2.04c-.41-.59-.27-1.39.32-1.81.59-.41,1.39-.27,1.81.32l30.82,43.88c.41.59.27,1.39-.32,1.81-.23.16-.49.24-.74.24Z"/>
    <path class="st0" d="M53.97,7.75c-.16,0-.31-.03-.47-.09l-13.27-5.15c-.67-.26-1-1.01-.74-1.68.26-.67,1.01-1,1.68-.74l13.27,5.15c.67.26,1,1.01.74,1.68-.2.51-.69.83-1.21.83Z"/>
    <path class="st0" d="M40.05,17.24s-.04,0-.06,0c-.72-.03-1.27-.64-1.24-1.35l.66-14.65c.03-.72.66-1.28,1.35-1.24.72.03,1.27.64,1.24,1.35l-.66,14.65c-.03.7-.6,1.24-1.29,1.24Z"/>
  </g>
  <g>
    <path class="st0" d="M57.41,72.73c-.2,0-.41-.05-.6-.15L9.21,47.89c-.64-.33-.88-1.11-.55-1.75.33-.64,1.11-.88,1.75-.55l47.6,24.69c.64.33.88,1.11.55,1.75-.23.44-.68.7-1.15.7Z"/>
    <path class="st0" d="M9.8,48.04c-.65,0-1.21-.49-1.29-1.15-.08-.71.43-1.35,1.15-1.43l14.15-1.56c.72-.09,1.35.43,1.43,1.15.08.71-.43,1.35-1.15,1.43l-14.15,1.56s-.1,0-.14,0Z"/>
    <path class="st0" d="M15.99,61.33c-.49,0-.96-.28-1.18-.75l-6.18-13.3c-.3-.65-.02-1.42.63-1.72.65-.3,1.42-.02,1.72.63l6.18,13.3c.3.65.02,1.42-.63,1.72-.18.08-.36.12-.55.12Z"/>
  </g>
  <circle class="st0" cx="100" cy="94.35" r="4.18"/>
  <path class="st0" d="M102.96,53.53c-.51-.54-1.2-.83-1.95-.83h-1.95c-.74,0-1.43.3-1.94.83-.51.54-.78,1.24-.74,1.98l1.22,27.85c.04.95.81,1.69,1.76,1.69h1.37c.95,0,1.72-.74,1.76-1.69l1.21-27.85c.03-.74-.23-1.44-.74-1.98Z"/>
  <path class="st1" d="M145.54,110.16H54.26c-.62,0-1.19-.33-1.5-.87-.31-.54-.31-1.2,0-1.73L98.4,28.8c.31-.53.88-.86,1.5-.86.62,0,1.19.33,1.5.86l15.62,26.95c.48.83.2,1.88-.63,2.36-.83.48-1.88.2-2.36-.63l-14.12-24.37-42.64,73.6h85.29l-22.87-39.46c-.48-.83-.2-1.88.63-2.36.83-.48,1.88-.2,2.36.63l24.37,42.06c.31.53.31,1.19,0,1.73-.31.54-.88.87-1.5.87Z"/>
  <path class="st1" d="M148.53,117.21H51.54c-2.74,0-5.2-1.42-6.56-3.79-1.37-2.38-1.37-5.21,0-7.58L93.48,22.14c1.37-2.37,3.82-3.78,6.56-3.78,2.73,0,5.19,1.41,6.56,3.78l48.49,83.69c1.37,2.37,1.38,5.21,0,7.58-1.37,2.38-3.82,3.79-6.56,3.79ZM100.04,21.82c-1.49,0-2.82.77-3.56,2.05h0l-48.49,83.69c-.75,1.29-.75,2.83,0,4.12.74,1.29,2.08,2.06,3.57,2.06h96.99c1.49,0,2.82-.77,3.57-2.06s.74-2.83,0-4.12L103.6,23.87c-.75-1.29-2.08-2.05-3.57-2.05ZM94.98,23h.01-.01Z"/>
  <path class="st0" d="M111.11,72.57c-.22,0-.44-.06-.64-.17-.62-.36-.84-1.15-.48-1.77,10.4-18.2,23.14-35.02,37.85-49.96.5-.51,1.32-.52,1.83-.01.51.5.52,1.32.01,1.83-14.55,14.79-27.15,31.42-37.45,49.43-.24.42-.68.65-1.13.65Z"/>
</svg>