<?xml version="1.0" encoding="UTF-8"?>
<svg id="Ebene_1" xmlns="http://www.w3.org/2000/svg" version="1.1" viewBox="0 0 200 200">
  <!-- Generator: Adobe Illustrator 30.0.0, SVG Export Plug-In . SVG Version: 2.1.1 Build 123)  -->
  <defs>
    <style>
      .st0 {
        fill: #6e9de7;
      }

      .st1 {
        fill: none;
      }

      .st2 {
        fill: #1c2761;
      }
    </style>
  </defs>
  <g>
    <path class="st1" d="M75.36,4.36c7.85-2.01,16.09-3.08,24.57-3.08,24.1,0,46.2,8.62,63.34,22.98"/>
    <rect class="st2" x="73.68" y="3.07" width="3.36" height="2.59" rx=".84" ry=".84" transform="translate(1.27 18.82) rotate(-14.35)"/>
    <rect class="st2" x="81.3" y="1.44" width="3.36" height="2.59" rx=".84" ry=".84" transform="translate(.74 14.16) rotate(-9.79)"/>
    <rect class="st2" x="89.04" y=".42" width="3.36" height="2.59" rx=".84" ry=".84" transform="translate(.23 8.35) rotate(-5.27)"/>
    <rect class="st2" x="96.79" y="0" width="3.36" height="2.59" rx=".84" ry=".84" transform="translate(0 1.43) rotate(-.83)"/>
    <rect class="st2" x="104.62" y=".2" width="3.36" height="2.59" rx=".84" ry=".84" transform="translate(.31 -6.74) rotate(3.64)"/>
    <rect class="st2" x="112.38" y="1" width="3.36" height="2.59" rx=".84" ry=".84" transform="translate(1.48 -16.14) rotate(8.15)"/>
    <rect class="st2" x="120.06" y="2.41" width="3.36" height="2.59" rx=".84" ry=".84" transform="translate(3.79 -26.65) rotate(12.69)"/>
    <rect class="st2" x="127.59" y="4.42" width="3.36" height="2.59" rx=".84" ry=".84" transform="translate(7.51 -38.08) rotate(17.25)"/>
    <rect class="st2" x="134.94" y="7.03" width="3.36" height="2.59" rx=".84" ry=".84" transform="translate(12.87 -50.17) rotate(21.81)"/>
    <rect class="st2" x="142.06" y="10.21" width="3.36" height="2.59" rx=".84" ry=".84" transform="translate(20.06 -62.64) rotate(26.37)"/>
    <rect class="st2" x="148.9" y="13.95" width="3.36" height="2.59" rx=".84" ry=".84" transform="translate(29.21 -75.18) rotate(30.91)"/>
    <rect class="st2" x="155.42" y="18.21" width="3.36" height="2.59" rx=".84" ry=".84" transform="translate(40.41 -87.47) rotate(35.43)"/>
    <rect class="st2" x="161.59" y="22.98" width="3.36" height="2.59" rx=".84" ry=".84" transform="translate(53.7 -99.18) rotate(39.95)"/>
  </g>
  <path class="st2" d="M99.94,200C44.83,200,0,155.17,0,100.06,0,57.31,27.16,19.31,67.58,5.49c.6-.21,1.26.12,1.47.72.21.61-.12,1.26-.72,1.47C28.85,21.18,2.32,58.3,2.32,100.06c0,53.83,43.79,97.62,97.62,97.62,18.91,0,37.24-5.4,53-15.62.54-.35,1.25-.2,1.6.34.35.54.2,1.25-.34,1.6-16.13,10.47-34.9,16-54.26,16Z"/>
  <path class="st2" d="M176.88,163.17c-.26,0-.51-.08-.73-.26-.5-.4-.58-1.13-.17-1.63,13.91-17.24,21.58-38.98,21.58-61.22s-7.89-44.61-22.21-61.99c-.41-.49-.34-1.22.16-1.63.49-.41,1.22-.34,1.63.16,14.66,17.79,22.74,40.33,22.74,63.47s-7.85,45.02-22.09,62.67c-.23.28-.56.43-.9.43Z"/>
  <path class="st0" d="M161.6,178.38c-.34,0-.68-.15-.91-.44-.4-.5-.31-1.23.19-1.63,3.09-2.45,6.08-5.16,8.89-8.04.45-.46,1.18-.47,1.64-.02.46.45.47,1.18.02,1.64-2.88,2.95-5.94,5.73-9.11,8.24-.21.17-.47.25-.72.25Z"/>
  <path class="st2" d="M99.94,149.74c-27.39,0-49.68-22.29-49.68-49.68s22.28-49.67,49.68-49.67,49.68,22.28,49.68,49.67-22.28,49.68-49.68,49.68ZM99.94,52.71c-26.11,0-47.36,21.24-47.36,47.36s21.24,47.36,47.36,47.36,47.36-21.25,47.36-47.36-21.24-47.36-47.36-47.36Z"/>
  <g>
    <path class="st1" d="M33.55,121.95c6.34,19.26,20.82,34.81,39.38,42.58"/>
    <rect class="st2" x="31.87" y="120.66" width="3.36" height="2.59" rx=".84" ry=".84" transform="translate(138.91 51.96) rotate(71.79)"/>
    <rect class="st2" x="33.99" y="126.25" width="3.36" height="2.59" rx=".84" ry=".84" transform="translate(138.91 44.6) rotate(66.84)"/>
    <rect class="st2" x="36.57" y="131.64" width="3.36" height="2.59" rx=".84" ry=".84" transform="translate(137.52 36.6) rotate(61.91)"/>
    <rect class="st2" x="39.61" y="136.79" width="3.36" height="2.59" rx=".84" ry=".84" transform="translate(134.61 28.25) rotate(57)"/>
    <rect class="st2" x="43.08" y="141.66" width="3.36" height="2.59" rx=".84" ry=".84" transform="translate(130.08 19.83) rotate(52.11)"/>
    <rect class="st2" x="46.98" y="146.25" width="3.36" height="2.59" rx=".84" ry=".84" transform="translate(123.81 11.57) rotate(47.18)"/>
    <rect class="st2" x="51.2" y="150.44" width="3.36" height="2.59" rx=".84" ry=".84" transform="translate(115.97 3.95) rotate(42.33)"/>
    <rect class="st2" x="55.76" y="154.25" width="3.36" height="2.59" rx=".84" ry=".84" transform="translate(106.49 -2.85) rotate(37.47)"/>
    <rect class="st2" x="60.64" y="157.67" width="3.36" height="2.59" rx=".84" ry=".84" transform="translate(95.45 -8.53) rotate(32.6)"/>
    <rect class="st2" x="65.81" y="160.67" width="3.36" height="2.59" rx=".84" ry=".84" transform="translate(82.97 -12.82) rotate(27.68)"/>
    <rect class="st2" x="71.25" y="163.24" width="3.36" height="2.59" rx=".84" ry=".84" transform="translate(69.22 -15.4) rotate(22.72)"/>
  </g>
  <path class="st2" d="M31.73,116.47c-.58,0-1.07-.42-1.15-.98-1.13-4.98-1.7-10.17-1.7-15.42,0-39.18,31.87-71.05,71.05-71.05,16.8,0,33.11,5.98,45.94,16.84.49.41.55,1.15.14,1.63-.41.49-1.15.55-1.63.14-12.41-10.51-28.19-16.29-44.44-16.29-37.9,0-68.73,30.83-68.73,68.73,0,5.1.56,10.15,1.66,14.98.02.08.03.17.03.26,0,.64-.52,1.17-1.16,1.17Z"/>
  <path class="st2" d="M99.94,171.1c-7.12,0-14.17-1.05-20.94-3.13-.61-.19-.96-.83-.77-1.45.19-.61.84-.96,1.45-.77,6.55,2.01,13.37,3.02,20.26,3.02,37.9,0,68.73-30.82,68.73-68.71,0-16.34-5.83-32.17-16.41-44.58-.42-.49-.36-1.22.13-1.63.49-.42,1.22-.36,1.63.13,10.94,12.82,16.97,29.19,16.97,46.08,0,39.17-31.87,71.03-71.05,71.03Z"/>
  <path class="st2" d="M99.94,192.07c-50.73,0-92.01-41.28-92.01-92.01S49.21,8.04,99.94,8.04c21.6,0,42.59,7.63,59.11,21.5.49.41.55,1.14.14,1.63-.41.49-1.14.55-1.63.14-16.1-13.51-36.57-20.95-57.62-20.95C50.48,10.36,10.25,50.6,10.25,100.06s40.23,89.69,89.69,89.69,89.69-40.24,89.69-89.69c0-20.88-7.32-41.2-20.62-57.22-.41-.49-.34-1.22.15-1.63.49-.41,1.22-.34,1.63.15,13.64,16.43,21.15,37.28,21.15,58.7,0,50.73-41.27,92.01-92.01,92.01Z"/>
  <path class="st0" d="M40.54,101.22c-.64,0-1.16-.52-1.16-1.16,0-33.39,27.17-60.56,60.56-60.56.64,0,1.16.52,1.16,1.16s-.52,1.16-1.16,1.16c-32.12,0-58.24,26.13-58.24,58.24,0,.64-.52,1.16-1.16,1.16Z"/>
  <path class="st0" d="M99.94,160.61c-.64,0-1.16-.52-1.16-1.16s.52-1.16,1.16-1.16c32.12,0,58.24-26.12,58.24-58.23,0-.64.52-1.16,1.16-1.16s1.16.52,1.16,1.16c0,33.39-27.17,60.55-60.56,60.55Z"/>
  <g>
    <path class="st0" d="M133.64,95.38c-.48-.76-12.03-18.57-33.69-18.57s-33.22,17.81-33.7,18.57c-.24.38-.24.86,0,1.24.95,1.48,9.54,14.26,25.71,17.69l-2.49,7.9c-.11.35-.05.74.17,1.03.22.3.57.47.94.47h18.73c.37,0,.72-.18.94-.47.22-.3.28-.68.17-1.03l-2.49-7.9c16.17-3.42,24.76-16.21,25.71-17.69.24-.38.24-.86,0-1.24ZM105.69,107.19c4.2-2.15,6.87-6.42,6.87-11.2,0-6.96-5.66-12.63-12.61-12.63s-12.63,5.66-12.63,12.63c0,4.78,2.68,9.05,6.87,11.2l-1.21,3.85c-5.81-2.68-9.64-8.58-9.64-15.05,0-9.16,7.45-16.61,16.61-16.61s16.59,7.45,16.59,16.61c0,6.47-3.83,12.38-9.64,15.06l-1.22-3.86ZM68.63,95.99c1.7-2.43,8.39-11.05,19.75-14.93-4.46,3.47-7.34,8.86-7.34,14.94s2.83,11.45,7.39,14.97c-11.35-3.86-18.08-12.54-19.79-14.97ZM92.16,121.4l2.64-8.39h0s0,0,0,0l1.91-6.06c.02-.06,0-.12.02-.18.01-.08.03-.16.02-.24,0-.07-.03-.14-.04-.21-.02-.07-.03-.15-.06-.21-.03-.07-.08-.12-.12-.18-.04-.06-.08-.12-.14-.18-.06-.05-.12-.09-.19-.13-.05-.03-.09-.08-.15-.1-3.88-1.59-6.4-5.33-6.4-9.53,0-5.68,4.62-10.31,10.31-10.31s10.29,4.62,10.29,10.31c0,4.2-2.51,7.94-6.4,9.53-.06.02-.1.07-.15.1-.07.04-.14.08-.19.13-.06.05-.09.11-.14.17-.04.06-.09.11-.12.18-.03.07-.05.14-.06.21-.02.07-.04.14-.04.21,0,.08.01.15.02.23,0,.06,0,.12.02.18l1.9,6.04s0,.02,0,.03c0,0,0,.01.01.02l2.63,8.35h-15.57ZM111.5,110.96c4.54-3.52,7.36-9.03,7.36-14.96s-2.88-11.47-7.34-14.94c11.35,3.89,18.04,12.51,19.74,14.94-1.7,2.42-8.42,11.1-19.76,14.96Z"/>
    <path class="st0" d="M107.04,95.7c0-.21-.02-.43-.03-.64h-.01s0-.02,0-.03h.01s-.01,0-.01,0c0-.12-.02-.24-.07-.36-.25-.59-.93-.87-1.52-.62-1.8.75-3.56-.57-3.56-2.3,0-.46.11-.88.34-1.26.03-.06.04-.12.06-.18.02-.06.06-.1.07-.16,0-.02,0-.03,0-.05.02-.08,0-.17,0-.25,0-.07,0-.13-.01-.2-.02-.07-.05-.14-.08-.21-.03-.07-.05-.14-.09-.2-.04-.06-.09-.1-.14-.15-.06-.06-.11-.12-.18-.17-.01,0-.02-.02-.03-.03-.05-.03-.11-.04-.17-.06-.06-.02-.11-.06-.17-.08-.02,0-.05,0-.07,0-.02,0-.04,0-.06,0-.45-.09-.9-.15-1.37-.15-3.92,0-7.1,3.19-7.1,7.1s3.19,7.1,7.1,7.1,7.1-3.19,7.1-7.1ZM99.94,100.48c-2.64,0-4.78-2.15-4.78-4.78s1.98-4.59,4.47-4.75c-.04.26-.11.52-.11.8,0,2.67,2.17,4.84,4.84,4.84.09,0,.18-.02.27-.03-.41,2.22-2.35,3.92-4.69,3.92Z"/>
  </g>
</svg>