<?xml version="1.0" encoding="UTF-8"?>
<svg id="Ebene_1" xmlns="http://www.w3.org/2000/svg" version="1.1" viewBox="0 0 200 200">
  <!-- Generator: Adobe Illustrator 30.0.0, SVG Export Plug-In . SVG Version: 2.1.1 Build 123)  -->
  <defs>
    <style>
      .st0 {
        fill: #6e9de7;
      }
    </style>
  </defs>
  <path class="st0" d="M172.24,200H27.76c-15.31,0-27.76-12.46-27.76-27.76V27.76C0,12.45,12.45,0,27.76,0h144.48c15.3,0,27.76,12.45,27.76,27.76v144.48c0,15.3-12.46,27.76-27.76,27.76ZM27.76,14.24c-7.46,0-13.52,6.06-13.52,13.52v144.48c0,7.46,6.06,13.51,13.52,13.51h144.48c7.46,0,13.51-6.06,13.51-13.51V27.76c0-7.46-6.06-13.52-13.51-13.52H27.76Z"/>
  <path class="st0" d="M69.04,96.8c-15.31,0-27.76-12.45-27.76-27.76s12.45-27.76,27.76-27.76,27.76,12.45,27.76,27.76-12.45,27.76-27.76,27.76ZM69.04,55.52c-7.46,0-13.52,6.06-13.52,13.52s6.06,13.52,13.52,13.52,13.52-6.06,13.52-13.52-6.06-13.52-13.52-13.52Z"/>
  <path class="st0" d="M38.08,200c-1.82,0-3.64-.7-5.03-2.09-2.78-2.78-2.78-7.29,0-10.07l93.76-93.76c10.82-10.82,28.43-10.82,39.26,0l31.85,31.85c2.78,2.78,2.78,7.29,0,10.07-2.78,2.78-7.29,2.78-10.07,0l-31.85-31.85c-5.26-5.27-13.85-5.27-19.11,0l-93.77,93.77c-1.39,1.39-3.21,2.09-5.03,2.09Z"/>
</svg>