<?xml version="1.0" encoding="UTF-8"?>
<svg id="Ebene_1" xmlns="http://www.w3.org/2000/svg" version="1.1" viewBox="0 0 200 200">
  <!-- Generator: Adobe Illustrator 30.0.0, SVG Export Plug-In . SVG Version: 2.1.1 Build 123)  -->
  <defs>
    <style>
      .st0 {
        fill: #0071bc;
      }
    </style>
  </defs>
  <path class="st0" d="M81.32,162.63c-3.64,0-6.58-2.95-6.58-6.58v-65.39c0-3.64,2.95-6.58,6.58-6.58s6.58,2.95,6.58,6.58v65.39c0,3.64-2.95,6.58-6.58,6.58Z"/>
  <path class="st0" d="M179.64,59.88H20.36c-5.26,0-9.77-3.58-10.96-8.71-1.19-5.13,1.28-10.33,6.01-12.65L88.88,2.53s.01,0,.02-.01c6.97-3.39,15.28-3.36,22.24.08l73.45,35.92c4.73,2.32,7.21,7.52,6.02,12.65s-5.7,8.71-10.97,8.71ZM28.61,46.71h142.76L105.33,14.41c-3.35-1.65-7.32-1.67-10.66-.05L28.61,46.71Z"/>
  <path class="st0" d="M118.68,162.63c-3.64,0-6.58-2.95-6.58-6.58v-65.39c0-3.64,2.95-6.58,6.58-6.58s6.58,2.95,6.58,6.58v65.39c0,3.64-2.95,6.58-6.58,6.58Z"/>
  <path class="st0" d="M156.04,162.63c-3.64,0-6.58-2.95-6.58-6.58v-65.39c0-3.64,2.95-6.58,6.58-6.58s6.58,2.95,6.58,6.58v65.39c0,3.64-2.95,6.58-6.58,6.58Z"/>
  <path class="st0" d="M184.07,200H15.93c-3.64,0-6.58-2.95-6.58-6.58s2.95-6.58,6.58-6.58h168.14c3.64,0,6.58,2.95,6.58,6.58s-2.95,6.58-6.58,6.58Z"/>
  <path class="st0" d="M43.95,162.63c-3.64,0-6.58-2.95-6.58-6.58v-65.39c0-3.64,2.95-6.58,6.58-6.58s6.58,2.95,6.58,6.58v65.39c0,3.64-2.95,6.58-6.58,6.58Z"/>
</svg>