<?xml version="1.0" encoding="UTF-8"?>
<svg id="Ebene_1" xmlns="http://www.w3.org/2000/svg" version="1.1" viewBox="0 0 200 200">
  <!-- Generator: Adobe Illustrator 30.0.0, SVG Export Plug-In . SVG Version: 2.1.1 Build 123)  -->
  <defs>
    <style>
      .st0 {
        fill: #ffb800;
      }
    </style>
  </defs>
  <path class="st0" d="M100.03,200c-2.27,0-4.56-.3-6.81-.9-6.75-1.81-12.39-6.13-15.88-12.18-2.12-3.68-.87-8.38,2.81-10.51,3.67-2.13,8.38-.87,10.51,2.81,1.44,2.49,3.76,4.27,6.54,5.02,2.78.74,5.69.36,8.17-1.08,1.63-.95,2.99-2.31,3.94-3.95,2.13-3.68,6.85-4.92,10.51-2.81,3.68,2.13,4.93,6.84,2.81,10.51-2.29,3.96-5.6,7.27-9.56,9.56-4.03,2.33-8.51,3.52-13.04,3.52Z"/>
  <path class="st0" d="M192.29,70.77c-4.25,0-7.69-3.44-7.69-7.69,0-17.78-5.74-34.92-17.05-50.94-2.45-3.47-1.62-8.27,1.85-10.72,3.47-2.45,8.27-1.62,10.72,1.85,13.18,18.67,19.87,38.8,19.87,59.82,0,4.25-3.45,7.69-7.69,7.69Z"/>
  <path class="st0" d="M173.83,153.84H26.15c-4.24,0-8.28-1.57-11.4-4.42-3.34-3.04-5.29-7.21-5.5-11.72-.21-4.52,1.36-8.84,4.41-12.18.05-.06.11-.12.16-.17,11.88-12.27,23.1-23.86,23.1-62.27C36.92,28.3,65.21,0,99.99,0s63.07,28.29,63.07,63.07c0,38.44,11.23,50.02,23.12,62.27,3.01,3.3,4.58,7.35,4.58,11.57-.01,9.33-7.6,16.92-16.93,16.92ZM24.97,135.94c-.32.37-.37.78-.36,1.05.02.29.11.71.5,1.06.29.26.66.41,1.04.41h147.67c.85,0,1.54-.69,1.54-1.54,0-.38-.14-.75-.4-1.03-12.7-13.09-27.3-28.13-27.3-72.81,0-26.3-21.39-47.69-47.69-47.69s-47.69,21.39-47.69,47.69c0,44.51-14.49,59.6-27.33,72.86Z"/>
  <path class="st0" d="M7.69,70.77c-4.25,0-7.69-3.44-7.69-7.69C0,42.06,6.69,21.93,19.87,3.26c2.45-3.47,7.25-4.3,10.72-1.85,3.47,2.45,4.3,7.25,1.85,10.72C21.12,28.16,15.38,45.3,15.38,63.08c0,4.25-3.45,7.69-7.69,7.69Z"/>
</svg>