<?xml version="1.0" encoding="UTF-8"?>
<svg id="Ebene_1" xmlns="http://www.w3.org/2000/svg" version="1.1" viewBox="0 0 160 160">
  <!-- Generator: Adobe Illustrator 30.0.0, SVG Export Plug-In . SVG Version: 2.1.1 Build 123)  -->
  <defs>
    <style>
      .st0 {
        fill: #6e9de7;
      }

      .st1 {
        fill: #ffb800;
      }

      .st2 {
        fill: #1c2760;
      }
    </style>
  </defs>
  <path class="st2" d="M.92,83.04c-.19,0-.38-.06-.54-.17-.41-.3-.51-.87-.21-1.29.14-.2,3.55-4.91,8.85-9.86,7.17-6.71,14.01-10.42,20.35-11.01,8.33-.79,12.93.84,18.25,2.73,4.19,1.48,8.95,3.16,16.49,3.87,12.65,1.19,20.69-5.68,31.8-15.2,8.37-7.17,19.36-12.44,30.17-14.46,8.92-1.67,21.98-1.92,33.54,6.38.41.3.51.87.21,1.29-.3.41-.87.51-1.29.21-18.41-13.23-45.39-5.76-61.44,7.98-11.02,9.44-19.73,16.9-33.17,15.64-7.77-.73-12.64-2.45-16.93-3.97-5.12-1.81-9.54-3.37-17.46-2.63-14.17,1.33-27.73,19.93-27.87,20.12-.18.25-.46.38-.75.38Z"/>
  <path class="st2" d="M1.66,70.27c-.19,0-.37-.06-.54-.17-.41-.3-.51-.87-.21-1.29.47-.65,11.54-15.9,24.49-16.67,10.28-.61,15,1.64,20.98,4.49,3.1,1.48,6.61,3.15,11.49,4.72,10.49,3.38,17.27-2.17,33.98-18.88,12.52-12.52,25.25-20.12,36.81-21.97,4.27-.68,23.94-.65,30.91,3.78.43.27.56.84.28,1.27-.27.43-.84.56-1.27.28-6.07-3.86-24.97-4.26-29.63-3.52-11.17,1.79-23.55,9.21-35.8,21.45-17.3,17.3-24.38,23.03-35.85,19.33-5-1.61-8.57-3.31-11.72-4.81-5.96-2.84-10.27-4.9-20.08-4.31-12.07.72-22.99,15.75-23.1,15.9-.18.25-.46.39-.75.39Z"/>
  <path class="st2" d="M.92,95.94c-.19,0-.38-.06-.54-.18-.41-.3-.5-.88-.2-1.29.74-1.02,18.34-25.06,32.3-26.69,11.61-1.36,16.73.43,23.2,2.69,4.32,1.51,9.22,3.22,17.15,4.26,10.4,1.36,19.63-4.71,27.77-10.06l1.13-.74c16.66-10.91,29.29-14.14,39.74-10.17,8.73,3.32,17.81,10.78,18.19,11.09.39.32.45.91.12,1.3-.32.39-.91.45-1.3.12-.09-.08-9.24-7.59-17.67-10.79-9.86-3.75-21.96-.57-38.08,9.98l-1.13.74c-8.41,5.53-17.94,11.79-29.02,10.35-8.12-1.06-13.11-2.8-17.52-4.34-6.25-2.19-11.19-3.91-22.38-2.6-13.16,1.54-30.84,25.7-31.02,25.94-.18.25-.46.38-.75.38Z"/>
  <path class="st1" d="M82.36,136.21c-.12,0-.24-.05-.33-.14-4.01-4.12-4.01-10.82,0-14.93,1.57-1.62,3.67-2.51,5.89-2.51s4.32.89,5.89,2.51c2.63,2.7,2.63,7.09,0,9.79-1.04,1.07-2.42,1.65-3.89,1.65s-2.85-.59-3.89-1.65c-1.74-1.79-1.74-4.71,0-6.5.7-.72,1.62-1.11,2.61-1.11s1.91.39,2.61,1.11c1.18,1.21,1.18,3.18,0,4.39-.18.18-.47.19-.65,0-.18-.18-.19-.47,0-.65.83-.86.83-2.25,0-3.1-.52-.53-1.21-.83-1.95-.83s-1.43.3-1.95.83c-1.4,1.44-1.4,3.77,0,5.21.86.89,2.01,1.37,3.23,1.37s2.37-.49,3.23-1.38c2.28-2.34,2.28-6.16,0-8.5-1.4-1.44-3.26-2.23-5.23-2.23s-3.83.79-5.23,2.23c-3.66,3.76-3.66,9.88,0,13.65.18.18.17.47,0,.65-.09.09-.21.13-.32.13Z"/>
  <path class="st1" d="M114.53,121.4c-12.72,0-21.2-7.74-27.41-13.41-1.77-1.62-3.31-3.02-4.69-4.01-8.08-5.77-13.47-16.2-14.71-21.77-.06-.25.1-.5.35-.55.25-.05.5.1.55.35,1.21,5.42,6.46,15.59,14.34,21.22,1.43,1.02,2.98,2.44,4.78,4.08,8.46,7.72,21.24,19.38,43.42,9.09.23-.11.51,0,.61.22.11.23,0,.51-.22.61-6.4,2.97-12.04,4.16-17.03,4.16Z"/>
  <path class="st1" d="M103.62,98.5c-.84,0-1.68-.12-2.49-.38-.95-.3-4.1-1.55-4.91-4.81-.6-2.43.45-4.46.93-5.22.13-.22.42-.28.64-.14s.28.42.14.64c-.42.66-1.33,2.42-.81,4.51.7,2.8,3.46,3.89,4.3,4.15,2.72.88,6.07-.04,7.47-2.05.82-1.17.76-2.4.71-3.6-.06-1.27-.11-2.59.98-3.6.96-.89,2.05-.86,3.11-.83.98.03,1.9.06,2.75-.65.9-.75,1.06-1.76,1.22-2.83.17-1.07.34-2.18,1.29-3,1.52-1.31,4.21-1.13,8.21.53.24.1.35.37.25.6-.1.23-.37.35-.6.25-3.59-1.5-6.04-1.73-7.25-.68-.69.59-.83,1.45-.98,2.44-.18,1.14-.38,2.43-1.55,3.4-1.12.93-2.32.9-3.37.86-.95-.03-1.76-.05-2.45.58-.78.72-.74,1.68-.69,2.88.06,1.28.12,2.74-.87,4.16-1.22,1.75-3.6,2.78-6.02,2.78Z"/>
  <path class="st1" d="M124.42,94.1c-1.21,0-2.72-.3-4.53-.9-.24-.08-.37-.34-.29-.58.08-.24.34-.37.58-.29,3.27,1.09,5.51,1.13,6.47.12.61-.63.55-1.5.49-2.6-.07-1.15-.15-2.44.57-3.73,1.75-3.15,6.71-3.39,9.67-3.54,5.42-.26,10.85,1.04,16.14,3.89.22.12.31.4.19.62-.12.22-.4.31-.62.19-5.14-2.77-10.4-4.04-15.65-3.78-2.77.14-7.41.36-8.91,3.06-.59,1.06-.52,2.16-.46,3.23.07,1.16.14,2.37-.74,3.29-.65.68-1.61,1.02-2.9,1.02Z"/>
  <path class="st1" d="M124.28,109.91c-5.88,0-12.17-.97-12.6-1.03-.25-.04-.42-.28-.38-.53.04-.25.28-.43.53-.38.18.03,17.5,2.69,21.28-.65.45-.39.65-.85.64-1.38-.21-6.89,2.1-11.4,6.34-12.37,4.69-1.07,9.15,1.6,9.34,1.71.22.13.29.42.15.63-.13.22-.42.29-.63.15-.04-.03-4.33-2.59-8.65-1.6-5.36,1.22-5.71,8.41-5.62,11.44.03.82-.29,1.53-.95,2.11-1.66,1.46-5.45,1.91-9.43,1.91Z"/>
  <path class="st1" d="M64.02,114.01c-5.16,0-9.8-4.5-11.61-6.51-2.34-2.59-2.91-5.72-3.41-8.48-.5-2.74-.93-5.11-3-6.17-4.22-2.16-12.27.01-12.35.03-.25.07-.5-.08-.57-.32-.07-.25.08-.5.32-.57.34-.1,8.48-2.29,13.01.03,2.47,1.26,2.96,3.96,3.48,6.82.48,2.64,1.03,5.63,3.19,8.02,1.79,1.99,6.5,6.56,11.53,6.18,2.78-.22,5.25-1.96,7.34-5.16.14-.21.42-.27.64-.13.21.14.27.42.13.64-2.25,3.46-4.96,5.34-8.04,5.58-.23.02-.46.03-.68.03Z"/>
  <circle class="st1" cx="78.48" cy="111" r="3.13"/>
  <circle class="st1" cx="108.44" cy="115.43" r=".78"/>
  <circle class="st1" cx="111.75" cy="113.55" r=".78"/>
  <circle class="st1" cx="106.88" cy="111.78" r=".78"/>
  <circle class="st1" cx="90.26" cy="128.37" r="1.73"/>
  <circle class="st0" cx="61.37" cy="105.42" r="1.27"/>
  <circle class="st0" cx="31.58" cy="84.16" r="2.17"/>
  <circle class="st0" cx="118.6" cy="101.52" r="2.1"/>
  <g>
    <path class="st0" d="M78.03,134.07c-.15,0-.29-.07-.38-.2-5.54-8.21-9.11-25.03-10.38-31.88-1.36-7.29-7.89-19.53-14.27-24.4-.2-.15-.24-.44-.09-.65.15-.2.44-.24.65-.09,6.65,5.07,13.21,17.36,14.62,24.96,1.26,6.79,4.79,23.47,10.24,31.53.14.21.09.5-.12.64-.08.05-.17.08-.26.08Z"/>
    <path class="st0" d="M77.72,102.43c-11.7,0-23.61-7.85-28.03-12.84-6.34-7.15-12.4-10.78-19.64-11.76-.25-.03-.43-.27-.4-.52s.27-.44.52-.4c7.48,1.01,13.72,4.73,20.21,12.06,4.93,5.57,19.45,14.81,32.21,12.01,12.58-2.76,26.15-12.41,29.63-21.09.09-.24.36-.35.6-.26.24.09.35.36.26.6-3.58,8.92-17.46,18.83-30.29,21.64-1.67.37-3.37.53-5.07.53Z"/>
    <path class="st0" d="M124.19,110.57c-10.56,0-21.48-4.24-25.78-7.18-7.01-4.8-12.44-10.28-16.12-16.28-.13-.22-.06-.5.15-.63s.5-.06.63.15c3.61,5.89,8.94,11.28,15.85,16,6.38,4.37,27.62,11.67,39.9,3.01.21-.15.5-.1.64.11.15.21.1.5-.11.64-4.32,3.05-9.7,4.18-15.17,4.18Z"/>
    <path class="st0" d="M121.44,125.52c-4.17,0-11.5-.93-19.51-5.03-5.15-2.64-10.61-7.91-16.39-13.5-5.72-5.53-11.64-11.25-18.04-15.28-14.16-8.92-31.02-2.18-36.57.04-.24.09-.5-.02-.6-.26-.09-.24.02-.51.26-.6,22.85-9.13,33.8-2.23,37.4.04,6.48,4.08,12.43,9.84,18.19,15.4,5.73,5.54,11.14,10.76,16.17,13.34,10.18,5.21,19.16,5.19,21.76,4.75.25-.04.49.13.53.38.04.25-.13.49-.38.53-.62.11-1.58.19-2.83.19Z"/>
  </g>
  <path class="st2" d="M95.26,139.83c-11.58,0-22.7-6.68-32.67-19.76-9.86-12.94-24.5-27.31-36.04-28.83-7.07-.93-15.01-1.02-25.19,4.58-.41.23-.92.11-1.2-.27-.27-.38-.22-.9.13-1.22.05-.05,5.41-4.88,12.84-9.67,10.05-6.46,18.92-9.78,26.37-9.85,13.66-.17,24.55,4.53,31.75,7.62,2.07.89,3.85,1.65,5.18,2.06,4.93,1.52,22.06,5.65,35.63-5.14,14.38-11.43,31.35-7.49,38.07-.25,6.81,7.33,9.65,14.06,9.77,14.34.12.29.08.63-.1.89-.19.26-.49.41-.81.39-.11,0-10.55-.56-15.74,6.74-.75,1.06-1.62,2.37-2.63,3.88-6.54,9.84-17.49,26.31-34.11,32.41-3.79,1.39-7.56,2.08-11.29,2.08ZM20.09,88.93c2.39,0,4.62.21,6.71.48,10.27,1.35,24.2,12.39,37.26,29.54,8.81,11.56,23.22,23.9,41.85,17.06,16.05-5.89,26.79-22.05,33.21-31.7,1.01-1.52,1.89-2.84,2.66-3.93,4.59-6.46,12.52-7.41,15.84-7.52-1.15-2.28-3.96-7.28-8.81-12.51-6.23-6.71-22.06-10.3-35.57.44-14.28,11.35-32.18,7.05-37.32,5.46-1.42-.44-3.25-1.22-5.36-2.13-6.96-2.98-17.44-7.47-30.45-7.47-.19,0-.37,0-.56,0-11.66.11-25.12,8.96-32.48,14.55,4.79-1.72,9.12-2.28,13.03-2.28Z"/>
  <g>
    <path class="st2" d="M69.28,120.78c-2.05,0-4.09-.19-6.1-.6-.37-.08-.62-.44-.54-.82.08-.37.44-.61.82-.54,9.95,2.02,20.23-1.78,27.09-5.32,7.87-4.06,15.73-10.1,21.02-16.16,14.61-16.73,30.96-22.68,31.12-22.74.36-.13.76.06.88.42.13.36-.06.76-.42.88-.16.06-16.18,5.9-30.54,22.35-8.18,9.37-26.22,22.52-43.33,22.52Z"/>
    <path class="st2" d="M94.68,139.61c-.24,0-.47-.12-.6-.35-.19-.33-.08-.75.25-.95,11.28-6.5,24.25-24.81,28.76-32.65,5.58-9.71,16.04-26.38,23.42-28.95.36-.13.75.06.88.43.13.36-.07.76-.43.88-7.22,2.51-18.26,20.65-22.68,28.33-4.57,7.95-17.74,26.53-29.27,33.16-.11.06-.23.09-.34.09Z"/>
  </g>
</svg>