<?xml version="1.0" encoding="UTF-8"?>
<svg id="Ebene_1" xmlns="http://www.w3.org/2000/svg" version="1.1" viewBox="0 0 200 200">
  <!-- Generator: Adobe Illustrator 30.0.0, SVG Export Plug-In . SVG Version: 2.1.1 Build 123)  -->
  <defs>
    <style>
      .st0 {
        fill: #7199d0;
      }

      .st1 {
        fill: #1c2761;
      }
    </style>
  </defs>
  <path class="st1" d="M100,182.04c-8.25,0-15.73-4.45-18.99-11.18H1.73c-.95,0-1.73-.77-1.73-1.73V32.47c0-.95.77-1.73,1.73-1.73h12.05c.95,0,1.73.77,1.73,1.73s-.77,1.73-1.73,1.73H3.45v133.21h78.69c.7,0,1.34.43,1.6,1.08,2.44,6.04,8.97,10.1,16.26,10.1s13.83-4.06,16.26-10.1c.26-.65.9-1.08,1.6-1.08h78.69V34.2h-10.33c-.95,0-1.73-.77-1.73-1.73s.77-1.73,1.73-1.73h12.05c.95,0,1.73.77,1.73,1.73v136.66c0,.95-.77,1.73-1.73,1.73h-79.29c-3.26,6.73-10.73,11.18-18.99,11.18ZM112.33,34.2h-24.67c-.95,0-1.73-.77-1.73-1.73s.77-1.73,1.73-1.73h24.67c.95,0,1.73.77,1.73,1.73s-.77,1.73-1.73,1.73Z"/>
  <path class="st1" d="M100,168.59h0c-.29,0-.58-.07-.84-.22-14.94-8.44-31.01-14.27-47.77-17.3-12.31-2.23-24.92-2.92-37.48-2.06-.51.03-.95-.13-1.3-.46-.35-.33-.55-.78-.55-1.26V20.25c0-.9.69-1.64,1.58-1.72,13.95-1.21,27.99-.5,41.7,2.1,15.63,2.97,30.65,8.34,44.66,15.97,14.01-7.63,29.04-13,44.66-15.97h0c13.71-2.61,27.75-3.32,41.7-2.1.89.08,1.58.82,1.58,1.72v127.03c0,.48-.2.93-.55,1.26-.35.33-.82.5-1.3.46-12.56-.86-25.17-.17-37.48,2.06-16.76,3.04-32.83,8.86-47.77,17.3-.26.15-.55.22-.84.22h0ZM101.73,39.6v124.34c14.55-7.87,30.1-13.34,46.28-16.27,11.99-2.17,24.26-2.92,36.49-2.22V21.84c-13.11-1-26.3-.26-39.19,2.19h0c-15.24,2.89-29.9,8.13-43.58,15.57ZM24.37,145.2c9.28,0,18.53.83,27.62,2.47,16.18,2.93,31.74,8.4,46.28,16.27V39.6c-13.68-7.44-28.33-12.68-43.58-15.57h0c-12.89-2.45-26.07-3.19-39.19-2.19v123.61c2.95-.17,5.91-.25,8.86-.25ZM144.98,22.34h.02-.02Z"/>
  <path class="st0" d="M114.45,52.6c-.58,0-1.13-.33-1.38-.89-.36-.76-.02-1.67.74-2.03,9.38-4.36,19.25-7.71,29.33-9.96,8.42-1.88,17.05-3.02,25.68-3.37.02,0,.04,0,.06,0,.82,0,1.49.64,1.53,1.46.03.84-.62,1.55-1.46,1.59-8.44.34-16.9,1.45-25.13,3.3-9.86,2.21-19.52,5.49-28.71,9.75-.21.1-.43.14-.64.14Z"/>
  <path class="st0" d="M114.45,67c-.58,0-1.13-.33-1.38-.89-.36-.76-.02-1.67.74-2.03,9.38-4.36,19.25-7.71,29.33-9.96,8.41-1.88,17.05-3.02,25.68-3.37.02,0,.04,0,.06,0,.82,0,1.49.64,1.53,1.46.03.84-.62,1.55-1.46,1.59-8.45.35-16.9,1.46-25.13,3.3-9.86,2.21-19.52,5.49-28.71,9.75-.21.1-.43.14-.64.14Z"/>
  <path class="st0" d="M114.45,81.39c-.58,0-1.13-.33-1.39-.89-.35-.76-.02-1.67.74-2.03,9.39-4.36,19.25-7.71,29.33-9.96,8.41-1.88,17.05-3.01,25.68-3.37.02,0,.04,0,.06,0,.82,0,1.49.64,1.53,1.46.03.84-.62,1.55-1.46,1.59-8.44.35-16.9,1.46-25.14,3.3-9.86,2.21-19.52,5.49-28.71,9.75-.21.1-.43.14-.64.14Z"/>
  <path class="st0" d="M114.45,95.78c-.58,0-1.13-.33-1.39-.89-.35-.76-.02-1.67.74-2.03,9.39-4.36,19.25-7.71,29.33-9.96,8.41-1.88,17.05-3.01,25.68-3.37.02,0,.04,0,.06,0,.82,0,1.49.64,1.53,1.46.03.84-.62,1.55-1.46,1.59-8.44.35-16.9,1.46-25.14,3.3-9.86,2.21-19.52,5.49-28.71,9.75-.21.1-.43.14-.64.14Z"/>
  <path class="st0" d="M114.45,110.17c-.58,0-1.13-.33-1.38-.89-.36-.76-.02-1.67.74-2.03,9.37-4.35,19.24-7.71,29.33-9.96,8.4-1.88,17.04-3.01,25.68-3.37.02,0,.04,0,.06,0,.82,0,1.49.64,1.53,1.46.03.84-.62,1.55-1.46,1.59-8.46.35-16.91,1.46-25.13,3.3-9.87,2.21-19.53,5.49-28.71,9.75-.21.1-.43.14-.64.14Z"/>
  <path class="st0" d="M114.45,124.57c-.58,0-1.13-.33-1.38-.89-.36-.76-.02-1.67.74-2.03,9.38-4.36,19.25-7.71,29.33-9.96,8.42-1.88,17.05-3.02,25.68-3.37.02,0,.04,0,.06,0,.82,0,1.49.64,1.53,1.46.03.84-.62,1.55-1.46,1.59-8.44.34-16.9,1.45-25.13,3.3-9.86,2.21-19.52,5.49-28.71,9.75-.21.1-.43.14-.64.14Z"/>
  <path class="st0" d="M114.45,138.96c-.58,0-1.13-.33-1.38-.89-.36-.76-.02-1.67.74-2.03,9.38-4.36,19.25-7.71,29.33-9.96,8.41-1.88,17.05-3.02,25.68-3.37.02,0,.04,0,.06,0,.82,0,1.49.64,1.53,1.46.03.84-.62,1.55-1.46,1.59-8.45.35-16.9,1.46-25.13,3.3-9.86,2.21-19.52,5.49-28.71,9.75-.21.1-.43.14-.64.14Z"/>
  <path class="st0" d="M84.47,52.6c-.22,0-.44-.04-.64-.14-9.19-4.26-18.85-7.55-28.71-9.75-8.24-1.84-16.7-2.95-25.14-3.3-.84-.03-1.5-.74-1.46-1.59.03-.84.66-1.53,1.59-1.46,8.62.35,17.26,1.48,25.68,3.37,10.08,2.25,19.94,5.6,29.33,9.96.77.35,1.1,1.26.74,2.03-.26.56-.81.89-1.38.89Z"/>
  <path class="st0" d="M84.47,67c-.22,0-.44-.05-.64-.14-9.19-4.26-18.85-7.55-28.71-9.75-8.23-1.84-16.69-2.95-25.14-3.3-.84-.03-1.5-.75-1.46-1.59.03-.84.66-1.53,1.59-1.46,8.63.35,17.27,1.49,25.68,3.37,10.08,2.25,19.94,5.6,29.33,9.96.77.35,1.1,1.26.74,2.03-.26.56-.81.89-1.38.89Z"/>
  <path class="st0" d="M84.47,81.39c-.22,0-.43-.04-.64-.14-9.19-4.27-18.85-7.55-28.71-9.75-8.24-1.84-16.69-2.95-25.14-3.3-.84-.03-1.5-.75-1.46-1.59.03-.84.66-1.53,1.59-1.46,8.63.35,17.27,1.48,25.68,3.37,10.07,2.25,19.94,5.6,29.33,9.96.77.35,1.1,1.26.74,2.03-.26.56-.81.89-1.39.89Z"/>
  <path class="st0" d="M84.47,95.78c-.22,0-.43-.04-.64-.14-9.19-4.27-18.85-7.55-28.71-9.75-8.24-1.84-16.69-2.95-25.14-3.3-.84-.03-1.5-.75-1.46-1.59.03-.84.66-1.53,1.59-1.46,8.63.35,17.27,1.48,25.68,3.37,10.07,2.25,19.94,5.6,29.33,9.96.77.35,1.1,1.26.74,2.03-.26.56-.81.89-1.39.89Z"/>
  <path class="st0" d="M84.47,110.17c-.22,0-.44-.05-.64-.14-9.18-4.26-18.84-7.54-28.71-9.75-8.22-1.84-16.68-2.95-25.14-3.3-.84-.03-1.5-.75-1.46-1.59.03-.84.66-1.53,1.59-1.46,8.64.35,17.28,1.48,25.68,3.37,10.08,2.26,19.95,5.61,29.33,9.96.77.35,1.1,1.26.74,2.03-.26.56-.81.89-1.38.89Z"/>
  <path class="st0" d="M84.47,124.57c-.22,0-.44-.04-.64-.14-9.19-4.26-18.85-7.55-28.71-9.75-8.24-1.84-16.7-2.95-25.14-3.3-.84-.03-1.5-.74-1.46-1.59.03-.84.66-1.53,1.59-1.46,8.62.35,17.26,1.48,25.68,3.37,10.08,2.25,19.94,5.6,29.33,9.96.77.35,1.1,1.26.74,2.03-.26.56-.81.89-1.38.89Z"/>
  <path class="st0" d="M84.47,138.96c-.22,0-.44-.05-.64-.14-9.19-4.26-18.85-7.55-28.71-9.75-8.23-1.84-16.69-2.95-25.14-3.3-.84-.03-1.5-.75-1.46-1.59.03-.84.66-1.53,1.59-1.46,8.63.35,17.27,1.49,25.68,3.37,10.08,2.25,19.94,5.6,29.33,9.96.77.35,1.1,1.26.74,2.03-.26.56-.81.89-1.38.89Z"/>
</svg>