<?xml version="1.0" encoding="UTF-8"?>
<svg id="Ebene_1" xmlns="http://www.w3.org/2000/svg" version="1.1" viewBox="0 0 208 181">
  <!-- Generator: Adobe Illustrator 30.0.0, SVG Export Plug-In . SVG Version: 2.1.1 Build 123)  -->
  <defs>
    <style>
      .st0 {
        fill: #6e9de7;
      }

      .st1 {
        fill: #2b2b2b;
      }
    </style>
  </defs>
  <path class="st1" d="M117.43,172.69c-.87,0-1.79-.24-2.52-.97-1.69-1.69-2.4-3.36-3.94-7.05-.61-1.45-1.36-3.22-2.35-5.45-1.93-4.33-3.22-4.99-4.07-5.42-.19-.1-.36-.18-.52-.28-.91-.55-1.62-.96-2.31-1.36-.92-.52-1.78-1.02-2.98-1.78-1.93-1.23-3.41-3.17-4.37-5.76-1.74.55-3.71,1.15-5.94,1.75-9.05,2.43-19.92-2.06-23.75-6.35-2.73-3.05-4.24-6.36-4.71-10.44-4.83.31-13.8.74-15.59-.2-.15-.08-.33-.17-.54-.27-2.53-1.27-10.12-5.06-11.45-12.77-3.25-2.6-7.74-8.73-3.94-15.51-.21-2.3-.79-13.46,7.17-18.39.75-2.62,4.89-14.55,18.27-16.36.63-1.07,2.26-3.45,5.26-5.6,3.53-2.55,9.72-5.24,19.23-3.8,2.32-1.38,14.22-7.76,25.79-1.41.43-.2.87-.38,1.35-.54,8.13-2.78,15.17,1.01,18.1,4.32,3.59-.24,6.88.61,9.69,2.58,7.1,5,9.77,9.17,10.46,10.42,1.48.29,2.83.84,4.05,1.61,5.26,3.33,6.43,10.02,6.69,12.62,6.67,4.92,8.57,10.67,8.98,14.66.35,3.48-.33,6.22-.66,7.31,2.42,5.01,2.59,10.28.51,15.27-2.6,6.2-7.94,10.4-10.74,11.28-.34.1-.69.19-1.07.27-1.28,11.79-11.5,20.88-23.68,20.88-1.74,0-3.46-.18-5.11-.54,2.66,5.87,4.41,10.81,2.65,13.41-.79,1.17-2.65,2.6-5.03,3.22-.07.02-.17.06-.29.1-.58.2-1.6.55-2.66.55h0ZM96.57,143.89c.79,2.06,1.93,3.59,3.42,4.53,1.14.74,1.99,1.21,2.87,1.72.71.41,1.44.83,2.36,1.39.11.07.23.12.36.19,1.45.74,3.04,1.84,5.15,6.54,1.01,2.25,1.75,4.04,2.38,5.5,1.47,3.5,2.07,4.94,3.44,6.3.63.63,2.09.12,2.78-.12.19-.07.35-.12.46-.15,1.91-.5,3.26-1.64,3.7-2.29,1.36-1.99-1.78-8.89-3.67-12.93-6.43-2.26-11.67-7.17-14.2-13.65-.03,0-.07,0-.09.01-1.31.2-2.96.8-5.27,1.64-1.07.38-2.3.84-3.71,1.31h.01ZM107.93,140.43c3.26,7.95,11.11,13.2,19.94,13.2,10.8,0,19.91-7.93,21.31-18.29-2.3.12-4.98-.05-7.76-.23-3.83-.25-7.81-.51-11.26-.06-2.66.35-9.65,2.15-15.27,3.61-2.7.7-5.17,1.33-6.97,1.76ZM68.71,113.81c-3.12,2.69-6.03,6.09-6.38,9.42-.71,6.69.51,11.26,4.07,15.25,2.86,3.21,12.75,7.98,21.41,5.66,2.65-.71,4.91-1.41,6.87-2.06.02,0,.06-.02.08-.02h.01c1.83-.61,3.39-1.18,4.71-1.65,2.42-.87,4.16-1.5,5.69-1.75.19-.03.45-.08.77-.15.02,0,.03-.01.06-.02.1-.03.2-.06.32-.06,1.76-.4,4.81-1.19,8-2,5.97-1.54,12.75-3.29,15.54-3.65,3.67-.49,7.75-.21,11.7.05,3.25.21,6.36.41,8.67.12.06-.01.11-.02.18-.02.55-.08,1.06-.18,1.5-.32,1.99-.63,6.92-4.31,9.3-9.97,1.91-4.56,1.69-9.19-.64-13.77l-.24-.46.19-.49c.18-.46,4.23-11.57-7.77-20.07l-.44-.32-.05-.63c-.15-1.9-.97-8.34-5.66-11.3-3.11-1.97-7.38-2.04-12.7-.19.48,1.21.75,2.51.76,3.83,0,.64-.51,1.17-1.14,1.18h-.01c-.63,0-1.15-.51-1.17-1.14-.03-2.67-1.35-5.2-3.5-6.79l-1.1-.8c-.52-.37-.63-1.11-.25-1.62.37-.52,1.11-.63,1.62-.25l1.1.8c1.03.75,1.9,1.67,2.6,2.72,2.93-1.05,5.62-1.57,8.03-1.58-1.28-1.75-3.94-4.79-8.86-8.25-2.74-1.92-5.7-2.42-8.55-2.15-.12.03-.24.05-.36.03-5.64.68-10.78,4.34-12.74,5.89-5.22,4.13-4.16,15.67-4.15,15.78.06.63-.41,1.2-1.04,1.27-.64.07-1.2-.41-1.27-1.04-.06-.52-1.19-12.91,5.01-17.83,3.96-3.14,8-5.16,11.82-6.02-2.62-2.16-7.85-4.81-14.43-2.56-.53.18-1.03.4-1.49.64-.05.03-.1.06-.16.08-5.89,3.21-6.5,10.94-6.52,11.02l-.05.6-.51.32c-4.57,2.82-5.55,12.34-5.57,12.43-.06.63-.62,1.1-1.27,1.04-.63-.06-1.11-.63-1.04-1.27.05-.43,1.04-10.15,6.17-13.86.24-1.88,1.32-7.72,5.97-11.24-11.04-5.07-22.46,2.12-22.58,2.18l-.37.24-.44-.07c-16.99-2.76-22.55,8.17-22.77,8.63l-.28.58-.63.07c-13.81,1.53-16.87,14.58-16.99,15.14l-.11.5-.44.26c-7.84,4.46-6.43,16.62-6.4,16.74l.05.4-.2.34c-4.3,7.17,3.19,12.85,3.52,13.09l.4.29.07.49c.92,6.82,7.7,10.22,10.26,11.49.24.11.43.21.59.31,1.04.48,8.03.34,14.36-.06-.02-1.33.05-2.76.2-4.28.42-3.89,3.43-7.59,6.71-10.51-.67-1.54-2.17-4.07-5.17-5.45-1.53-.7-3.25-1.01-4.99-.87-.66.06-1.2-.43-1.24-1.07-.05-.63.43-1.2,1.07-1.24,2.14-.16,4.25.21,6.13,1.09,3.29,1.52,5.11,4.14,6.04,6.01,2.66-2.1,5.23-3.64,6.47-4.3.24-2.64-.1-5.32-.98-7.81-.91-2.53-2.4-4.89-4.31-6.79-.45-.45-.45-1.19,0-1.64.45-.45,1.19-.45,1.64,0,2.15,2.15,3.83,4.8,4.85,7.65.91,2.52,1.3,5.23,1.18,7.92,3.51-.44,10.42-.44,12.03-.44.37-.1,1.64-1.3,2.66-2.25.25-.24.51-.49.78-.74.32-1.21.11-2.18-.08-3.13l-.03-.18c-.15-.31-1.32-1.14-2.43-1.7-.58-.28-.8-.98-.52-1.55.28-.58.98-.8,1.55-.52,1.24.62,3.38,1.89,3.68,3.31l.03.17c.09.43.18.92.24,1.46,1.89-1.54,4.1-2.98,6.52-3.63,1.44-1.28,1.33-4.92,1.18-6.13-.08-.63.36-1.22,1-1.3s1.21.36,1.3,1c.06.46.42,3.56-.53,6.05,3.64-.12,6.47.28,8.59.85,1.18-.41,2.75-1.2,4.12-2.73,1.79-1.99,2.31-4.22,2.45-5.37.08-.63.67-1.07,1.3-1.01.63.08,1.09.66,1.01,1.3-.18,1.43-.81,4.17-3.03,6.63-.89,1-1.86,1.73-2.77,2.29,1.52.72,2.22,1.39,2.29,1.45.46.44.48,1.18.02,1.64s-1.18.46-1.64.02c-.02-.02-3.59-3.22-12.99-2.73-.45.02-.91.09-1.35.19-.09.03-.19.06-.29.07-2.92.77-5.6,3.01-7.77,5.01l-.02.02c-.34.32-.68.63-1,.93-1.91,1.8-3.07,2.88-4.25,2.88h-.55c-5.26,0-11.29.23-12.31.62,0,0-.02,0-.03.01-1.01.41-4.34,2.36-7.53,5.08-.08.09-.18.18-.29.25v.02ZM87.58,136.82c-.34,0-.67-.15-.89-.43-.41-.5-.33-1.22.16-1.63,2.15-1.76,4.53-3.04,7.05-3.81,2.47-.75,4.21-.75,5.75-.74,1.56.01,2.91.01,4.85-.76,1.66-.67,2.49-1.4,3.29-2.1,1-.88,2.04-1.8,4.26-2.31.68-.16,2.38-.08,7.66.19h.18c4.25.23,5.85.31,7.67-.54.92-.43,1.75-1.03,2.5-1.79.45-.45,1.19-.46,1.64,0,.45.45.45,1.19,0,1.64-.94.95-2.01,1.71-3.17,2.25-2.34,1.1-4.36,1-8.77.77h-.18c-3.65-.19-6.53-.34-7.04-.25-1.64.37-2.31.96-3.24,1.79-.86.76-1.93,1.71-3.97,2.52-2.36.95-4.07.95-5.72.93-1.45,0-2.94-.01-5.06.63-2.23.68-4.34,1.82-6.26,3.38-.21.18-.48.26-.74.26h.01ZM74.49,135.94c-.08,0-.16,0-.24-.02-.62-.14-1.03-.75-.89-1.37.5-2.34,1.56-5.49,3.85-8.29-4.56-.71-7.29-3.14-7.42-3.27-.48-.43-.51-1.17-.08-1.64s1.17-.51,1.63-.08h0s3.09,2.72,7.96,2.86c2.53-2.15,5.79-3.6,9.71-4.33,1.81-.34,3.17-.36,4.37-.38,1.7-.03,2.93-.05,4.84-.95,1.14-.53,3.26-1.53,3.73-3.29.06-.21.08-.41.08-.6v-.14c0-.2-.03-.42-.07-.68-.08-.59-.17-1.32-.05-2.34.2-1.72.91-3.38,2.09-4.93.38-.51,1.12-.61,1.63-.21.51.38.61,1.12.21,1.63-.93,1.21-1.48,2.49-1.63,3.79-.09.74-.02,1.24.05,1.79,0,.05.01.09.02.14,4,1.12,8.2,1.33,12.22.62,5.76-1.03,11.01-3.89,15.18-8.28,1.86-1.95,4.65-4.89,5.71-9.6.57-2.5.55-5.08,0-7.68-.14-.62.26-1.24.89-1.38.62-.14,1.24.26,1.38.89.63,2.93.63,5.86,0,8.68-1.2,5.34-4.39,8.69-6.29,10.69-4.51,4.75-10.2,7.85-16.46,8.96-4.2.75-8.59.55-12.77-.54-.83,2.67-3.6,3.96-4.93,4.59-2.36,1.11-4.03,1.13-5.79,1.17-1.17.02-2.36.03-3.98.34-1.37.26-5.53,1.04-8.94,4.08-3.07,2.75-4.34,6.34-4.88,8.87-.11.54-.6.92-1.13.92h-.01ZM150.48,125.25c-.44,0-.86-.25-1.05-.67-.27-.58-.02-1.27.57-1.54.71-.33,2-1.1,2.65-2.53.69-1.54.29-3.07-.07-4.41-.14-.53-.34-1.09-.61-1.65-.35-.23-.54-.62-.53-1.02-.17-.29-.36-.6-.55-.91-1.26-1.9-2.87-3.57-4.82-4.99-.37.42-.77.89-1.19,1.45-.81,1.07-1.15,1.67-1.57,2.44-.44.79-.95,1.7-2.07,3.3-1.36,1.95-2.86,3.82-4.46,5.58-.43.48-1.17.51-1.64.08s-.51-1.17-.08-1.64c1.53-1.67,2.96-3.47,4.26-5.34,1.05-1.52,1.53-2.35,1.95-3.11.43-.78.84-1.52,1.75-2.72.67-.89,1.28-1.6,1.83-2.17.01-.02.02-.05.03-.06.1-.15.23-.26.36-.35.49-.5.94-.89,1.33-1.26,1.06-.96,1.65-1.49,2.08-2.81.76-2.31.17-4.51-.02-5.24-.55-2.07-1.64-3.54-2.45-4.41-.44-.46-.42-1.2.06-1.64.46-.44,1.2-.42,1.64.06,1,1.06,2.33,2.86,3,5.41.24.88.95,3.59-.02,6.55-.62,1.9-1.55,2.74-2.73,3.8-.15.12-.29.26-.44.41,2.05,1.54,3.77,3.34,5.11,5.37.02.02.03.06.06.08,1.9-1.71,4.53-2.19,4.66-2.22.63-.12,1.23.31,1.35.94.11.63-.31,1.23-.93,1.35-.03,0-2.56.49-3.9,2.02.34.71.6,1.41.78,2.09.41,1.55.96,3.67-.07,5.95-.95,2.13-2.78,3.22-3.79,3.69-.16.08-.33.11-.49.11h.01ZM53.54,119.91c-.07,0-.14,0-.2-.02-.2-.03-4.95-.93-6.76-5.52-1.71-4.33.72-8,1-8.39.36-.52,1.09-.66,1.62-.28.52.36.66,1.09.28,1.62-.08.12-2.02,2.96-.75,6.22,1.33,3.39,4.98,4.07,5.01,4.08.63.11,1.05.71.94,1.35-.1.57-.59.96-1.14.96h.01ZM42.62,115.21c-.16,0-.32-.03-.46-.1-1.23-.54-4.26-2.21-5.63-5.79-1-2.6-.98-4.99.03-7.12,1.1-2.29,3-3.45,4.04-3.94.58-.27,1.27-.02,1.54.55.27.58.02,1.27-.55,1.54-.76.36-2.15,1.21-2.94,2.85-1.11,2.3-.25,4.55.03,5.28,1.06,2.78,3.43,4.07,4.4,4.5.59.26.85.94.59,1.53-.19.43-.61.69-1.06.69h.02ZM51.78,99.6c-.24,0-.48-.07-.68-.21-.52-.37-.63-1.1-.26-1.62,1.46-2.02,3.22-3.41,5.25-4.12,1.21-.42,2.07-.45,2.76-.48.63-.02,1.02-.03,1.56-.33.88-.48,1.12-1.1,1.57-2.47.1-.31.21-.63.34-.98-5.51-1.6-6.93-8.64-6.99-8.95-.12-.62.29-1.23.92-1.36s1.23.28,1.36.92c.01.07,1.29,6.29,5.72,7.25.2-.35.44-.71.72-1.07,1.11-1.48,4.19-4.92,8.67-4.93,1.11-.03,2.61.21,4.28,1.09-.07-2.02.23-3.81.89-5.35-4.11-1.01-6.28-4.57-6.38-4.74-.33-.55-.15-1.27.41-1.58.55-.33,1.26-.15,1.58.4h0s2.05,3.33,5.67,3.81c.62-.77,1.28-1.33,1.88-1.86.93-.79,1.72-1.48,2.3-2.76.61-1.37.77-2.98.46-4.79-.11-.63.32-1.23.95-1.33.63-.11,1.23.32,1.33.95.4,2.26.18,4.33-.63,6.13-.78,1.74-1.9,2.72-2.9,3.56-.69.59-1.33,1.15-1.89,1.96,0,0-.01.02-.02.02-1.22,1.79-1.62,4.26-1.18,7.36,3.91,3.7,3.56,9.1,3.45,10.17-.07.63-.63,1.11-1.28,1.03-.63-.07-1.1-.63-1.03-1.28.06-.55.48-5.45-2.99-8.46h-.01c-1.91-1.67-3.71-2.07-4.9-2.01-3.54,0-6.12,3.08-6.82,4.02-.98,1.3-1.37,2.49-1.72,3.53-.46,1.4-.95,2.84-2.68,3.77-1.02.54-1.84.58-2.58.6-.62.02-1.21.05-2.08.35-1.56.55-2.95,1.65-4.14,3.29-.23.32-.58.48-.94.48h.02ZM130.96,92.38c-.06,0-.11,0-.18-.01-.63-.09-1.06-.69-.97-1.32.26-1.7.1-3.42-.45-4.98-.38-1.09-1.4-3.95-4.26-5.16-2.69-1.14-5.35-.1-6.39.41-1.2,4.38-7.05,6.43-7.74,6.66-.61.2-1.27-.12-1.46-.74-.2-.61.12-1.27.74-1.47.24-.08,5.7-1.92,6.31-5.42h0c.15-.86.06-2.21-.23-3.62-.24-1.19-.64-2.33-1.19-3.42-.29-.57-.06-1.27.51-1.56.57-.29,1.27-.06,1.56.51.64,1.27,1.11,2.61,1.39,3.99.12.59.27,1.48.33,2.43,1.7-.61,4.33-1.11,7.08.06,3.8,1.61,5.11,5.29,5.55,6.52.69,1.92.88,4.03.57,6.11-.09.58-.58.98-1.14.98l-.02.02ZM46,91.65c-.06,0-.12,0-.18-.01-.63-.1-1.06-.69-.96-1.32,1.48-9.4,4.21-14.59,8.33-15.87.78-.24,1.54-.32,2.27-.4,1.23-.12,2.39-.24,3.71-1.13,1.09-.74,1.44-1.4,1.93-2.34.48-.88,1.01-1.89,2.21-3.03,3.29-3.17,7.6-3.57,9.91-3.8,3.16-.31,6.41.16,9.42,1.33.6.24.89.91.66,1.5-.24.6-.91.89-1.5.66-2.68-1.04-5.57-1.46-8.36-1.19-2.17.2-5.81.55-8.53,3.16-.93.89-1.33,1.65-1.76,2.45-.55,1.04-1.13,2.12-2.68,3.17-1.8,1.22-3.38,1.38-4.77,1.52-.64.07-1.27.12-1.82.31-3.1.96-5.43,5.81-6.73,14.02-.09.57-.59.97-1.14.97h.01Z"/>
  <path class="st0" d="M96.42,43.61c-.59,0-1.09-.44-1.15-1.04l-2.23-21.04c-.07-.63.4-1.21,1.03-1.28.64-.08,1.21.4,1.28,1.03l2.23,21.04c.07.63-.4,1.21-1.03,1.28h-.12Z"/>
  <path class="st0" d="M124.06,45.92c-.11,0-.24-.02-.35-.06-.61-.19-.95-.85-.76-1.46l4.04-12.82c.19-.61.84-.95,1.46-.76.61.19.95.85.76,1.46l-4.04,12.82c-.16.5-.61.81-1.11.81Z"/>
  <path class="st0" d="M148.37,59.07c-.27,0-.53-.09-.76-.28-.49-.42-.54-1.15-.12-1.63l13.81-16.11c.42-.49,1.15-.54,1.63-.12.49.42.54,1.15.12,1.63l-13.81,16.11c-.23.27-.55.41-.88.41h.01Z"/>
  <path class="st0" d="M165.79,80.4c-.42,0-.83-.23-1.03-.63-.29-.57-.07-1.27.5-1.56l12.49-6.43c.58-.29,1.27-.07,1.56.5.29.57.07,1.27-.5,1.56l-12.49,6.43c-.17.09-.35.12-.53.12h0Z"/>
  <path class="st0" d="M174.66,106.22c-.6,0-1.12-.46-1.15-1.09-.05-.63.44-1.19,1.07-1.23l21.37-1.45c.67-.06,1.19.44,1.23,1.07s-.44,1.19-1.07,1.23l-21.37,1.45h-.08,0Z"/>
  <circle class="st0" cx="93.12" cy="12.65" r="3.27"/>
  <circle class="st0" cx="130.27" cy="23.63" r="3.27"/>
  <circle class="st0" cx="167.91" cy="34.59" r="3.6"/>
  <circle class="st0" cx="186.72" cy="68.13" r="3.6"/>
  <circle class="st0" cx="204.07" cy="102.82" r="3.93"/>
</svg>