<?xml version="1.0" encoding="UTF-8"?>
<svg id="Ebene_1" xmlns="http://www.w3.org/2000/svg" version="1.1" viewBox="0 0 200 200">
  <!-- Generator: Adobe Illustrator 30.0.0, SVG Export Plug-In . SVG Version: 2.1.1 Build 123)  -->
  <defs>
    <style>
      .st0 {
        fill: #6e9de7;
      }
    </style>
  </defs>
  <path class="st0" d="M90.73,144.41c-1.88,0-3.76-.72-5.19-2.15-2.87-2.87-2.87-7.53,0-10.4l58.33-58.33c11.74-11.65,30.51-11.56,41.99.02l11.99,11.98c2.87,2.87,2.87,7.52,0,10.39-2.87,2.87-7.53,2.87-10.4,0l-12.01-12.01c-5.8-5.85-15.26-5.88-21.08-.11l-58.44,58.44c-1.44,1.44-3.31,2.15-5.19,2.15Z"/>
  <path class="st0" d="M118.53,200H25.88c-14.27,0-25.88-11.61-25.88-25.88v-92.65c0-14.27,11.61-25.88,25.88-25.88,4.06,0,7.35,3.29,7.35,7.35s-3.29,7.35-7.35,7.35c-6.17,0-11.18,5.02-11.18,11.18v92.65c0,6.17,5.02,11.18,11.18,11.18h92.65c6.17,0,11.18-5.02,11.18-11.18,0-4.06,3.29-7.35,7.35-7.35s7.35,3.29,7.35,7.35c0,14.27-11.61,25.88-25.88,25.88Z"/>
  <path class="st0" d="M109.26,70.29c-9.16,0-16.61-7.45-16.61-16.61s7.45-16.61,16.61-16.61,16.62,7.45,16.62,16.61-7.46,16.61-16.62,16.61ZM109.26,51.75c-1.06,0-1.92.86-1.92,1.92s.85,1.92,1.92,1.92,1.92-.86,1.92-1.92-.85-1.92-1.92-1.92Z"/>
  <path class="st0" d="M174.12,144.41h-92.65c-14.27,0-25.88-11.61-25.88-25.88V25.88c0-14.27,11.61-25.88,25.88-25.88h92.65c14.27,0,25.88,11.61,25.88,25.88v92.65c0,14.26-11.61,25.88-25.88,25.88ZM81.47,14.7c-6.17,0-11.18,5.02-11.18,11.18v92.65c0,6.17,5.02,11.18,11.18,11.18h92.65c6.17,0,11.18-5.01,11.18-11.18V25.88c0-6.17-5.02-11.18-11.18-11.18h-92.65Z"/>
</svg>