<?xml version="1.0" encoding="UTF-8"?>
<svg id="Ebene_1" xmlns="http://www.w3.org/2000/svg" version="1.1" viewBox="0 0 200 200">
  <!-- Generator: Adobe Illustrator 30.0.0, SVG Export Plug-In . SVG Version: 2.1.1 Build 123)  -->
  <defs>
    <style>
      .st0 {
        fill: #ffb800;
      }
    </style>
  </defs>
  <path class="st0" d="M99.93,200c-14.31,0-28.57-3.11-41.93-9.31-1.73-.61-3.59-.78-5.39-.46l-31.12,9.1c-2.7.72-5.37.81-7.92.28-9.15-1.88-15.05-10.84-13.18-19.98.06-.28.13-.55.22-.82l9.7-29.95c.36-1.93.2-3.9-.49-5.75-12.95-27.08-13.09-58.19-.39-85.4C20.72,33.52,40.76,15.18,65.86,6.06c25.1-9.12,52.23-7.92,76.42,3.38,24.19,11.3,42.53,31.34,51.65,56.43,9.12,25.09,7.92,52.23-3.38,76.42s-31.34,42.53-56.43,51.65c-11.14,4.05-22.68,6.06-34.19,6.06ZM54.41,174.7c3.15,0,6.29.57,9.27,1.7.18.07.35.14.53.22,20.46,9.56,43.43,10.58,64.66,2.86,21.23-7.71,38.18-23.23,47.74-43.7,9.56-20.47,10.58-43.43,2.86-64.66-7.71-21.23-23.23-38.19-43.7-47.75-20.47-9.56-43.43-10.57-64.66-2.86-21.23,7.71-38.18,23.23-47.74,43.7-10.79,23.1-10.63,49.53.44,72.5.08.17.15.34.22.51,1.93,4.87,2.36,10.14,1.23,15.25-.05.24-.12.48-.2.72l-9.64,29.78c-.02.4.12.71.26.91.16.24.46.55.97.66.24.06.48.04.71-.02l31.29-9.15c.22-.07.44-.12.66-.16,1.69-.34,3.39-.51,5.1-.51Z"/>
  <path class="st0" d="M99.98,107.69c-4.25,0-7.69-3.44-7.69-7.69v-36.9c0-4.25,3.44-7.69,7.69-7.69s7.69,3.44,7.69,7.69v36.9c0,4.25-3.44,7.69-7.69,7.69Z"/>
  <path class="st0" d="M100.07,144.59c-4.25,0-7.73-3.44-7.73-7.69s3.4-7.69,7.64-7.69h.09c4.25,0,7.69,3.44,7.69,7.69s-3.44,7.69-7.69,7.69Z"/>
</svg>