<?xml version="1.0" encoding="UTF-8"?>
<svg id="Ebene_1" xmlns="http://www.w3.org/2000/svg" version="1.1" viewBox="0 0 200 200">
  <!-- Generator: Adobe Illustrator 30.0.0, SVG Export Plug-In . SVG Version: 2.1.1 Build 123)  -->
  <defs>
    <style>
      .st0 {
        fill: #f9b50f;
      }
    </style>
  </defs>
  <path class="st0" d="M166.31,38.97c-1.35,0-2.7-.52-3.73-1.55-2.06-2.06-2.06-5.4,0-7.46L191,1.55c2.06-2.06,5.4-2.06,7.46,0,2.06,2.06,2.06,5.4,0,7.46l-28.42,28.42c-1.03,1.03-2.38,1.55-3.73,1.55Z"/>
  <path class="st0" d="M5.27,200c-1.35,0-2.7-.52-3.73-1.55-2.06-2.06-2.06-5.4,0-7.46l28.42-28.42c2.06-2.06,5.4-2.06,7.46,0,2.06,2.06,2.06,5.4,0,7.46l-28.42,28.42c-1.03,1.03-2.38,1.55-3.73,1.55Z"/>
  <path class="st0" d="M62.09,190.56c-7.18,0-14.36-2.74-19.81-8.21l-24.63-24.63c-5.34-5.36-8.24-12.4-8.23-19.88.01-7.48,2.94-14.51,8.24-19.79l21.78-21.78c1.98-1.98,5.48-1.98,7.46,0l56.84,56.84c.99.99,1.55,2.33,1.55,3.73s-.56,2.74-1.55,3.73l-21.73,21.73s-.04.04-.06.06c-5.5,5.48-12.68,8.21-19.86,8.21ZM43.16,107.46l-18.06,18.06c-3.31,3.3-5.13,7.68-5.14,12.34,0,4.66,1.8,9.05,5.09,12.35l24.68,24.68s0,0,0,0c6.78,6.8,17.81,6.84,24.64.1.03-.04.07-.07.1-.11l18.06-18.06-49.38-49.38Z"/>
  <path class="st0" d="M57.37,119.48c-1.35,0-2.7-.52-3.73-1.55-2.06-2.06-2.06-5.4,0-7.46l23.68-23.68c2.06-2.06,5.4-2.06,7.46,0s2.06,5.4,0,7.46l-23.68,23.68c-1.03,1.03-2.38,1.55-3.73,1.55Z"/>
  <path class="st0" d="M85.79,147.9c-1.35,0-2.7-.52-3.73-1.55-2.06-2.06-2.06-5.4,0-7.46l23.68-23.68c2.06-2.06,5.4-2.06,7.46,0,2.06,2.06,2.06,5.4,0,7.46l-23.68,23.68c-1.03,1.03-2.38,1.55-3.73,1.55Z"/>
  <path class="st0" d="M156.84,105.27c-1.4,0-2.74-.56-3.73-1.55l-56.84-56.84c-.99-.99-1.55-2.33-1.55-3.73s.56-2.74,1.55-3.73l21.79-21.79c11.01-10.97,28.78-10.93,39.67,0l24.62,24.62c10.97,11,10.93,28.77,0,39.67l-21.78,21.78c-.99.99-2.33,1.55-3.73,1.55ZM107.46,43.16l49.38,49.38,18.06-18.06c6.83-6.8,6.84-17.88.05-24.7l-24.68-24.68c-6.81-6.83-17.88-6.85-24.7-.05l-18.11,18.11Z"/>
</svg>