<?xml version="1.0" encoding="UTF-8"?>
<svg id="Ebene_1" xmlns="http://www.w3.org/2000/svg" version="1.1" viewBox="0 0 200 200">
  <!-- Generator: Adobe Illustrator 30.0.0, SVG Export Plug-In . SVG Version: 2.1.1 Build 123)  -->
  <defs>
    <style>
      .st0 {
        fill: #f9b50f;
      }
    </style>
  </defs>
  <path class="st0" d="M100,200C44.86,200,0,155.14,0,100S44.86,0,100,0c1.68,0,3.27.8,4.27,2.15,1,1.35,1.3,3.1.8,4.71-1.93,6.27-1.93,12.9,0,19.17,5.29,17.17,23.56,26.83,40.72,21.55,1.88-.58,3.92-.07,5.31,1.32,1.39,1.39,1.9,3.43,1.32,5.31-1.93,6.27-1.93,12.9,0,19.17,5.29,17.17,23.55,26.83,40.72,21.55,1.61-.49,3.36-.2,4.71.8,1.35,1,2.15,2.58,2.15,4.27,0,55.14-44.86,100-100,100ZM93.38,10.85C47.17,14.25,10.61,52.94,10.61,100s40.1,89.39,89.39,89.39,85.75-36.56,89.15-82.77c-20.5,2.68-40.59-9.72-46.87-30.11-1.72-5.58-2.28-11.37-1.7-17.09-20.05,2.06-39.5-10.26-45.65-30.26-1.84-5.98-2.36-12.2-1.55-18.31Z"/>
  <path class="st0" d="M66.86,72.25c-2.93,0-5.3-2.37-5.3-5.3s2.37-5.35,5.3-5.35,5.3,2.33,5.3,5.26v.09c0,2.93-2.37,5.3-5.3,5.3Z"/>
  <path class="st0" d="M137.88,138.54c-2.93,0-5.3-2.37-5.3-5.3s2.37-5.35,5.3-5.35,5.3,2.33,5.3,5.26v.1c0,2.93-2.37,5.3-5.3,5.3Z"/>
  <path class="st0" d="M100,105.4c-2.93,0-5.3-2.37-5.3-5.3s2.37-5.35,5.3-5.35,5.3,2.33,5.3,5.26v.09c0,2.93-2.37,5.3-5.3,5.3Z"/>
  <path class="st0" d="M90.53,152.75c-2.93,0-5.3-2.37-5.3-5.3s2.37-5.35,5.3-5.35,5.3,2.33,5.3,5.26v.1c0,2.93-2.37,5.3-5.3,5.3Z"/>
  <path class="st0" d="M52.65,124.34c-2.93,0-5.3-2.37-5.3-5.3s2.37-5.35,5.3-5.35,5.3,2.33,5.3,5.26v.09c0,2.93-2.37,5.3-5.3,5.3Z"/>
</svg>