<?xml version="1.0" encoding="UTF-8"?>
<svg id="Ebene_1" xmlns="http://www.w3.org/2000/svg" version="1.1" viewBox="0 0 200 200">
  <!-- Generator: Adobe Illustrator 30.0.0, SVG Export Plug-In . SVG Version: 2.1.1 Build 123)  -->
  <defs>
    <style>
      .st0 {
        fill: #7199d0;
      }
    </style>
  </defs>
  <path class="st0" d="M175.13,171.82H24.87c-13.71,0-24.87-11.16-24.87-24.87V53.04c0-13.71,11.16-24.87,24.87-24.87h150.27c13.71,0,24.87,11.16,24.87,24.87v93.92c0,13.71-11.16,24.87-24.87,24.87ZM24.87,40.34c-7,0-12.7,5.7-12.7,12.7v93.92c0,7,5.7,12.7,12.7,12.7h150.27c7,0,12.7-5.7,12.7-12.7V53.04c0-7-5.7-12.7-12.7-12.7H24.87Z"/>
  <path class="st0" d="M193.92,87.3H6.08c-3.36,0-6.08-2.72-6.08-6.08s2.72-6.08,6.08-6.08h187.83c3.36,0,6.08,2.72,6.08,6.08s-2.72,6.08-6.08,6.08Z"/>
</svg>