<?xml version="1.0" encoding="UTF-8"?>
<svg id="Ebene_1" xmlns="http://www.w3.org/2000/svg" version="1.1" viewBox="0 0 160 160">
  <!-- Generator: Adobe Illustrator 30.0.0, SVG Export Plug-In . SVG Version: 2.1.1 Build 123)  -->
  <defs>
    <style>
      .st0 {
        fill: #7199d0;
      }

      .st1 {
        fill: #1f3c85;
      }
    </style>
  </defs>
  <path class="st1" d="M33.56,18.97c-3.59,0-6.34,1.13-8.23,3.39s-2.85,5.36-2.85,9.31c0,2.82.15,5.53.46,8.12s.63,5.11.96,7.54.66,4.83.96,7.19.46,4.75.46,7.16c0,1.9-.27,3.72-.81,5.46s-1.32,3.33-2.35,4.77-2.27,2.69-3.73,3.77-3.12,1.87-4.96,2.39c1.85.56,3.5,1.37,4.96,2.43s2.71,2.3,3.73,3.73,1.81,3.03,2.35,4.77.81,3.57.81,5.46c0,2.41-.15,4.8-.46,7.16s-.63,4.76-.96,7.2-.65,4.95-.96,7.54-.46,5.3-.46,8.12c0,3.9.95,6.98,2.85,9.24s4.64,3.39,8.23,3.39h.69c.36,0,.77.08,1.23.23s.91.38,1.35.69.8.72,1.08,1.23.42,1.1.42,1.77v8.39h-4.08c-4.82,0-9.02-.63-12.58-1.89s-6.52-3.03-8.85-5.31-4.07-5.03-5.19-8.23c-1.13-3.2-1.69-6.76-1.69-10.66,0-2.51.17-4.99.5-7.43s.72-4.86,1.15-7.27.82-4.82,1.15-7.23.5-4.82.5-7.23c0-3.13-.73-5.68-2.19-7.66s-3.81-2.96-7.04-2.96v-11.01c3.23,0,5.58-.99,7.04-2.96s2.19-4.53,2.19-7.66c0-2.41-.17-4.81-.5-7.19s-.72-4.79-1.15-7.2-.82-4.83-1.15-7.27-.5-4.91-.5-7.43c0-3.9.56-7.45,1.69-10.66s2.86-5.97,5.19-8.27,5.28-4.09,8.85-5.35,7.76-1.89,12.58-1.89h4.08v8.47c0,.67-.14,1.25-.42,1.73s-.64.88-1.08,1.19-.88.54-1.35.69-.87.23-1.23.23h-.69Z"/>
  <path class="st0" d="M68.19,66.15c0-1.59.29-3.1.88-4.54s1.4-2.67,2.43-3.69,2.26-1.85,3.69-2.46,2.98-.92,4.62-.92,3.17.31,4.58.92,2.64,1.44,3.69,2.46,1.89,2.26,2.5,3.69.92,2.95.92,4.54-.31,3.17-.92,4.58-1.45,2.63-2.5,3.65-2.28,1.84-3.69,2.43-2.94.88-4.58.88-3.18-.29-4.62-.88-2.67-1.4-3.69-2.43-1.84-2.24-2.43-3.65-.88-2.94-.88-4.58ZM71.19,150.34c-.92-.77-1.39-1.72-1.39-2.85,0-.41.14-.87.42-1.39s.63-.97,1.04-1.39c.56-.62,1.26-1.37,2.08-2.27s1.64-1.92,2.46-3.08,1.58-2.41,2.27-3.77,1.22-2.81,1.58-4.35c-1.64,0-3.13-.29-4.46-.88s-2.48-1.4-3.43-2.43-1.69-2.23-2.23-3.62-.81-2.9-.81-4.54c0-1.44.27-2.78.81-4.04s1.3-2.36,2.27-3.31,2.15-1.69,3.54-2.23,2.9-.81,4.54-.81c1.95,0,3.65.35,5.12,1.04s2.67,1.64,3.62,2.85,1.67,2.59,2.15,4.16.73,3.22.73,4.96c0,2.46-.37,5.05-1.12,7.77s-1.83,5.44-3.27,8.16-3.22,5.36-5.35,7.93-4.55,4.93-7.27,7.08l-3.31-3Z"/>
  <path class="st1" d="M160,83.54c-3.23,0-5.58.99-7.04,2.96s-2.19,4.53-2.19,7.66c0,2.41.17,4.82.5,7.23s.72,4.82,1.15,7.23.82,4.84,1.15,7.27.5,4.91.5,7.43c0,3.9-.56,7.45-1.69,10.66-1.13,3.21-2.86,5.95-5.2,8.23s-5.28,4.05-8.85,5.31-7.76,1.89-12.58,1.89h-4.08v-8.39c0-.67.14-1.26.42-1.77s.64-.92,1.08-1.23.89-.54,1.35-.69.87-.23,1.23-.23h.69c3.59,0,6.32-1.13,8.2-3.39s2.81-5.34,2.81-9.24c0-2.82-.14-5.53-.42-8.12s-.6-5.11-.96-7.54-.68-4.84-.96-7.2-.42-4.75-.42-7.16c0-1.9.27-3.72.81-5.46s1.32-3.33,2.35-4.77,2.27-2.68,3.73-3.73,3.12-1.86,4.96-2.43c-1.85-.51-3.5-1.31-4.96-2.39s-2.71-2.33-3.73-3.77-1.81-3.03-2.35-4.77-.81-3.57-.81-5.46c0-2.41.14-4.8.42-7.16s.6-4.76.96-7.19.68-4.95.96-7.54.42-5.3.42-8.12c0-3.95-.94-7.05-2.81-9.31s-4.6-3.39-8.2-3.39h-.69c-.36,0-.77-.08-1.23-.23s-.91-.38-1.35-.69-.8-.7-1.08-1.19-.42-1.07-.42-1.73V6.66h4.08c4.82,0,9.02.63,12.58,1.89s6.52,3.04,8.85,5.35,4.07,5.07,5.2,8.27,1.69,6.76,1.69,10.66c0,2.51-.17,4.99-.5,7.43s-.72,4.86-1.15,7.27-.82,4.81-1.15,7.2-.5,4.78-.5,7.19c0,3.13.73,5.68,2.19,7.66s3.81,2.96,7.04,2.96v11.01Z"/>
</svg>