<?xml version="1.0" encoding="UTF-8"?>
<svg id="Ebene_1" xmlns="http://www.w3.org/2000/svg" version="1.1" viewBox="0 0 200 200">
  <!-- Generator: Adobe Illustrator 30.0.0, SVG Export Plug-In . SVG Version: 2.1.1 Build 123)  -->
  <defs>
    <style>
      .st0 {
        fill: #f9b50f;
      }
    </style>
  </defs>
  <path class="st0" d="M100,158.99c-4.26,0-7.72-3.46-7.72-7.72V7.72c0-4.26,3.46-7.72,7.72-7.72s7.72,3.45,7.72,7.72v143.55c0,4.26-3.46,7.72-7.72,7.72Z"/>
  <path class="st0" d="M100,158.99c-2.05,0-4.01-.81-5.46-2.26l-61.52-61.52c-3.01-3.02-3.01-7.9,0-10.91,3.02-3.01,7.9-3.01,10.91,0l56.07,56.07,56.06-56.07c3.02-3.01,7.9-3.01,10.91,0,3.01,3.02,3.01,7.9,0,10.91l-61.52,61.52c-1.45,1.45-3.41,2.26-5.46,2.26Z"/>
  <path class="st0" d="M171.78,200H28.22c-4.26,0-7.72-3.46-7.72-7.72s3.46-7.72,7.72-7.72h143.55c4.26,0,7.72,3.46,7.72,7.72s-3.46,7.72-7.72,7.72Z"/>
</svg>