<?xml version="1.0" encoding="UTF-8"?>
<svg id="Ebene_1" xmlns="http://www.w3.org/2000/svg" version="1.1" viewBox="0 0 200 200">
  <!-- Generator: Adobe Illustrator 30.0.0, SVG Export Plug-In . SVG Version: 2.1.1 Build 123)  -->
  <defs>
    <style>
      .st0 {
        fill: #6e9de7;
      }
    </style>
  </defs>
  <path class="st0" d="M100.16,200c-1.94,0-3.88-.34-5.71-1.02-51-17.61-75.86-46.97-75.86-89.69V44.29c0-9.05,7.36-16.4,16.4-16.4,15.77,0,37.17-9.44,53.26-23.5,6.83-5.83,16.66-5.84,23.42-.05,16.14,14.11,37.54,23.55,53.32,23.55,9.04,0,16.41,7.36,16.41,16.4v65c0,42.64-24.83,72.03-75.91,89.83-1.73.59-3.54.88-5.33.88ZM100.02,14.25c-.87,0-1.74.3-2.46.91-18.72,16.36-43.3,26.96-62.56,26.96-1.19,0-2.17.97-2.17,2.17v65c0,36.39,21.11,60.64,66.43,76.29.62.22,1.14.24,1.6.08,45.23-15.76,66.31-40.03,66.31-76.37V44.29c0-1.19-.97-2.17-2.16-2.17-19.28,0-43.86-10.6-62.63-27.02-.67-.57-1.5-.86-2.35-.86Z"/>
  <path class="st0" d="M100,107.12c-3.93,0-7.12-3.19-7.12-7.12v-37.14c0-3.93,3.19-7.12,7.12-7.12s7.12,3.19,7.12,7.12v37.14c0,3.93-3.19,7.12-7.12,7.12Z"/>
  <path class="st0" d="M100.09,144.27c-3.93,0-7.17-3.19-7.17-7.12s3.14-7.12,7.07-7.12h.09c3.93,0,7.12,3.19,7.12,7.12s-3.19,7.12-7.12,7.12Z"/>
</svg>