<?xml version="1.0" encoding="UTF-8"?>
<svg id="Ebene_1" xmlns="http://www.w3.org/2000/svg" version="1.1" viewBox="0 0 200 200">
  <!-- Generator: Adobe Illustrator 30.0.0, SVG Export Plug-In . SVG Version: 2.1.1 Build 123)  -->
  <defs>
    <style>
      .st0 {
        fill: #6e9de7;
      }

      .st1 {
        fill: none;
        stroke: #000;
        stroke-linecap: round;
        stroke-linejoin: round;
        stroke-width: 1px;
      }

      .st2 {
        fill: #1c2761;
      }
    </style>
  </defs>
  <g>
    <path class="st2" d="M120.41,47.03c-.09,0-.19-.02-.28-.05-.39-.15-.57-.59-.42-.98l10.64-26.6c.15-.38.59-.57.98-.42.39.15.57.59.42.98l-10.64,26.6c-.12.29-.4.47-.7.47Z"/>
    <path class="st2" d="M120.41,47.03c-.21,0-.42-.09-.56-.25-.28-.31-.25-.79.07-1.06l6.17-5.45c.31-.28.79-.24,1.06.06.28.31.25.79-.07,1.06l-6.17,5.45c-.14.13-.32.19-.5.19Z"/>
    <path class="st2" d="M120.41,47.03c-.38,0-.71-.29-.75-.68l-.82-8.19c-.04-.41.26-.78.67-.82.41-.04.78.26.82.67l.82,8.19c.04.41-.26.78-.67.82-.02,0-.05,0-.08,0Z"/>
  </g>
  <g>
    <path class="st0" d="M99.83,43.52h0c-.42,0-.75-.34-.75-.76l.31-42.21c0-.42.35-.74.76-.75.42,0,.75.34.75.76l-.31,42.21c0,.41-.34.75-.75.75Z"/>
    <path class="st0" d="M99.83,43.52c-.12,0-.23-.03-.35-.08-.37-.19-.51-.64-.32-1.01l3.78-7.31c.19-.37.65-.51,1.01-.32.37.19.51.64.32,1.01l-3.78,7.31c-.13.26-.4.41-.67.41Z"/>
    <path class="st0" d="M99.83,43.52c-.27,0-.54-.15-.67-.41l-3.72-7.34c-.19-.37-.04-.82.33-1.01.37-.19.82-.04,1.01.33l3.72,7.34c.19.37.04.82-.33,1.01-.11.05-.22.08-.34.08Z"/>
  </g>
  <g>
    <path class="st2" d="M140.54,58.49c-.19,0-.38-.07-.53-.22-.3-.29-.3-.77,0-1.06l31.61-32.2c.29-.3.77-.3,1.06,0,.3.29.3.77,0,1.06l-31.61,32.2c-.15.15-.34.23-.54.23Z"/>
    <path class="st2" d="M140.54,58.49c-.31,0-.6-.2-.71-.51-.13-.39.07-.82.47-.95l7.79-2.66c.39-.14.82.07.95.47.13.39-.07.82-.47.95l-7.79,2.66c-.08.03-.16.04-.24.04Z"/>
    <path class="st2" d="M140.54,58.49c-.07,0-.15-.01-.22-.03-.4-.12-.62-.54-.5-.94l2.39-7.88c.12-.4.54-.62.94-.5.4.12.62.54.5.94l-2.39,7.88c-.1.33-.4.53-.72.53Z"/>
  </g>
  <g>
    <path class="st2" d="M150.68,77.09c-.29,0-.57-.17-.69-.45-.17-.38,0-.82.39-.99l27.67-12.01c.38-.17.82,0,.99.39.17.38,0,.82-.39.99l-27.67,12.01c-.1.04-.2.06-.3.06Z"/>
    <path class="st2" d="M158.9,77.56s-.03,0-.04,0l-8.22-.47c-.41-.02-.73-.38-.71-.79.02-.41.38-.73.79-.71l8.22.47c.41.02.73.38.71.79-.02.4-.35.71-.75.71Z"/>
    <path class="st2" d="M150.68,77.09c-.17,0-.33-.05-.47-.17-.32-.26-.37-.74-.11-1.06l5.19-6.39c.26-.32.73-.37,1.06-.11.32.26.37.74.11,1.06l-5.19,6.39c-.15.18-.37.28-.58.28Z"/>
  </g>
  <g>
    <path class="st2" d="M199.25,100.55h0l-46.49-.07c-.42,0-.75-.34-.75-.75s.34-.75.75-.75h0l46.49.07c.42,0,.75.34.75.75s-.34.75-.75.75Z"/>
    <path class="st2" d="M160.1,104.19c-.11,0-.23-.03-.34-.08l-7.35-3.71c-.37-.19-.52-.64-.33-1.01s.64-.52,1.01-.33l7.35,3.71c.37.19.52.64.33,1.01-.13.26-.4.41-.67.41Z"/>
    <path class="st2" d="M152.76,100.48c-.27,0-.53-.15-.67-.41-.19-.37-.05-.82.32-1.01l7.31-3.79c.37-.19.82-.05,1.01.32s.05.82-.32,1.01l-7.31,3.79c-.11.06-.23.08-.35.08Z"/>
  </g>
  <g>
    <path class="st0" d="M174.37,130.62c-.1,0-.2-.02-.3-.06l-23.77-10.17c-.38-.16-.56-.61-.4-.99.16-.38.6-.56.99-.4l23.77,10.17c.38.16.56.61.4.99-.12.28-.4.46-.69.46Z"/>
    <path class="st0" d="M155.94,126.71c-.21,0-.42-.09-.57-.26l-5.35-6.26c-.27-.32-.23-.79.08-1.06.32-.27.79-.23,1.06.08l5.35,6.26c.27.32.23.79-.08,1.06-.14.12-.32.18-.49.18Z"/>
    <path class="st0" d="M150.6,120.45c-.39,0-.72-.3-.75-.69-.03-.41.27-.78.69-.81l8.2-.68c.41-.04.78.27.81.69.03.41-.27.78-.69.81l-8.2.68s-.04,0-.06,0Z"/>
  </g>
  <g>
    <path class="st0" d="M173.49,175.04c-.2,0-.39-.08-.54-.23l-31.85-33.15c-.29-.3-.28-.78.02-1.06.3-.29.77-.28,1.06.02l31.85,33.15c.29.3.28.78-.02,1.06-.15.14-.33.21-.52.21Z"/>
    <path class="st0" d="M144.17,149.72c-.32,0-.61-.2-.72-.52l-2.53-7.83c-.13-.4.09-.82.49-.95.39-.13.82.09.95.48l2.53,7.83c.13.4-.09.82-.49.95-.08.02-.15.04-.23.04Z"/>
    <path class="st0" d="M149.47,144.42c-.08,0-.15-.01-.23-.04l-7.83-2.53c-.4-.13-.61-.55-.48-.95.13-.39.55-.61.95-.48l7.83,2.53c.4.13.61.55.48.95-.1.32-.4.52-.72.52Z"/>
  </g>
  <g>
    <path class="st2" d="M126.3,188.75c-.33,0-.63-.22-.72-.55l-11.15-40.38c-.11-.4.12-.81.52-.92.4-.11.82.12.93.52l11.15,40.38c.11.4-.12.81-.52.92-.07.02-.13.03-.2.03Z"/>
    <path class="st2" d="M113.62,156.45s-.09,0-.14-.01c-.41-.08-.68-.47-.6-.88l1.53-8.09c.08-.41.47-.67.88-.6.41.08.68.47.6.88l-1.53,8.09c-.07.36-.38.61-.74.61Z"/>
    <path class="st2" d="M120.82,154.33c-.2,0-.4-.08-.55-.23l-5.67-5.97c-.29-.3-.27-.78.03-1.06.3-.29.78-.27,1.06.03l5.67,5.97c.29.3.27.78-.03,1.06-.15.14-.33.21-.52.21Z"/>
  </g>
  <g>
    <path class="st0" d="M99.88,200.19h0c-.42,0-.75-.34-.75-.75l.08-41.89c0-.42.34-.75.75-.75h0c.42,0,.75.34.75.75l-.08,41.89c0,.42-.34.75-.75.75Z"/>
    <path class="st0" d="M96.32,165.68c-.11,0-.23-.02-.33-.08-.37-.18-.53-.63-.34-1.01l3.64-7.38c.18-.37.64-.53,1.01-.34.37.18.53.63.34,1.01l-3.64,7.38c-.13.27-.4.42-.68.42Z"/>
    <path class="st0" d="M103.82,165.56c-.27,0-.53-.14-.66-.4l-3.86-7.27c-.19-.37-.06-.82.31-1.02.37-.19.82-.05,1.02.31l3.86,7.27c.19.37.06.82-.31,1.02-.11.06-.23.09-.35.09Z"/>
  </g>
  <g>
    <path class="st0" d="M26.39,175.04c-.19,0-.37-.07-.52-.21-.3-.29-.31-.76-.02-1.06l26.66-27.86c.29-.3.76-.31,1.06-.02.3.29.31.76.02,1.06l-26.66,27.86c-.15.15-.35.23-.54.23Z"/>
    <path class="st0" d="M45.32,150.01c-.31,0-.59-.19-.71-.49-.14-.39.06-.82.45-.96l7.73-2.83c.39-.14.82.06.96.45.14.39-.06.82-.45.96l-7.73,2.83c-.09.03-.17.05-.26.05Z"/>
    <path class="st0" d="M50.82,155.11c-.07,0-.14,0-.2-.03-.4-.11-.63-.53-.52-.93l2.23-7.92c.11-.4.53-.63.93-.52.4.11.63.53.52.93l-2.23,7.92c-.09.33-.4.55-.72.55Z"/>
  </g>
  <g>
    <path class="st2" d="M67.39,182.17c-.1,0-.19-.02-.29-.06-.38-.16-.56-.6-.41-.98l9.41-22.63c.16-.38.6-.56.98-.41s.56.6.41.98l-9.41,22.63c-.12.29-.4.46-.69.46Z"/>
    <path class="st2" d="M70.61,164.97c-.21,0-.42-.09-.57-.26-.27-.31-.24-.79.07-1.06l6.19-5.43c.31-.27.79-.24,1.06.07.27.31.24.79-.07,1.06l-6.19,5.43c-.14.12-.32.19-.49.19Z"/>
    <path class="st2" d="M77.58,167.74c-.38,0-.71-.29-.75-.68l-.78-8.19c-.04-.41.26-.78.68-.82.42-.04.78.26.82.68l.78,8.19c.04.41-.26.78-.68.82-.02,0-.05,0-.07,0Z"/>
  </g>
  <g>
    <path class="st0" d="M31.15,139.01c-.26,0-.51-.14-.65-.38-.21-.36-.08-.82.28-1.03l18.13-10.46c.36-.21.82-.08,1.03.28.21.36.08.82-.28,1.03l-18.13,10.46c-.12.07-.25.1-.38.1Z"/>
    <path class="st0" d="M41.06,129.07c-.39,0-.73-.31-.75-.7-.03-.42.29-.77.7-.8l8.22-.51c.43-.02.77.29.8.7.03.42-.29.77-.7.8l-8.22.51s-.03,0-.05,0Z"/>
    <path class="st0" d="M44.89,135.52c-.14,0-.28-.04-.4-.12-.35-.22-.46-.69-.24-1.04l4.39-6.96c.22-.35.69-.46,1.04-.24.35.22.46.69.24,1.04l-4.39,6.96c-.14.23-.39.35-.64.35Z"/>
  </g>
  <g>
    <path class="st2" d="M.75,100.56c-.41,0-.75-.33-.75-.75,0-.42.33-.75.75-.75l48.08-.2h0c.41,0,.75.33.75.75,0,.42-.33.75-.75.75l-48.08.2h0Z"/>
    <path class="st2" d="M48.83,100.36c-.11,0-.22-.02-.33-.08l-7.38-3.64c-.37-.18-.53-.63-.34-1.01.18-.37.64-.53,1.01-.34l7.38,3.64c.37.18.53.63.34,1.01-.13.27-.4.42-.68.42Z"/>
    <path class="st2" d="M41.56,104.22c-.27,0-.53-.14-.66-.4-.19-.37-.06-.82.31-1.02l7.27-3.86c.37-.2.82-.06,1.02.31.19.37.06.82-.31,1.02l-7.27,3.86c-.11.06-.23.09-.35.09Z"/>
  </g>
  <g>
    <path class="st0" d="M52.35,79.95c-.09,0-.19-.02-.28-.06l-27.72-11.34c-.38-.16-.57-.6-.41-.98.16-.38.59-.57.98-.41l27.72,11.34c.38.16.57.6.41.98-.12.29-.4.47-.7.47Z"/>
    <path class="st0" d="M52.35,79.95c-.21,0-.42-.09-.57-.26l-5.43-6.19c-.27-.31-.24-.79.07-1.06.31-.27.79-.24,1.06.07l5.43,6.19c.27.31.24.79-.07,1.06-.14.13-.32.19-.5.19Z"/>
    <path class="st0" d="M44.15,80.74c-.38,0-.71-.29-.75-.68-.04-.41.26-.78.68-.82l8.19-.79c.42-.05.78.26.82.68.04.41-.26.78-.68.82l-8.19.79s-.05,0-.07,0Z"/>
  </g>
  <g>
    <path class="st2" d="M60.88,60.08c-.19,0-.39-.07-.53-.22L26.85,26.07c-.29-.3-.29-.77,0-1.06.29-.29.77-.29,1.06,0l33.49,33.79c.29.3.29.77,0,1.06-.15.15-.34.22-.53.22Z"/>
    <path class="st2" d="M60.88,60.08c-.32,0-.61-.2-.71-.52l-2.58-7.82c-.13-.39.08-.82.48-.95.39-.14.82.08.95.48l2.58,7.82c.13.39-.08.82-.48.95-.08.03-.16.04-.24.04Z"/>
    <path class="st2" d="M60.88,60.08c-.07,0-.15-.01-.23-.04l-7.85-2.48c-.4-.12-.62-.55-.49-.94.13-.4.55-.62.94-.49l7.85,2.48c.4.12.62.55.49.94-.1.32-.4.53-.72.53Z"/>
  </g>
  <g>
    <path class="st2" d="M79.59,47.48c-.29,0-.57-.17-.69-.46l-11.1-26.17c-.16-.38.02-.82.4-.99.38-.16.82.02.99.4l11.1,26.17c.16.38-.02.82-.4.99-.1.04-.2.06-.29.06Z"/>
    <path class="st2" d="M79.6,47.48s-.03,0-.05,0c-.41-.03-.73-.39-.7-.8l.55-8.21c.03-.42.4-.72.8-.7.41.03.73.39.7.8l-.55,8.21c-.03.4-.36.7-.75.7Z"/>
    <path class="st2" d="M79.59,47.48c-.17,0-.34-.06-.48-.17l-6.34-5.25c-.32-.27-.36-.74-.1-1.06.26-.32.74-.36,1.06-.1l6.34,5.25c.32.27.36.74.1,1.06-.15.18-.36.27-.58.27Z"/>
  </g>
  <path class="st2" d="M107.93,36.18c-.28,0-.55-.16-.68-.42-.18-.38-.02-.82.35-1l2.22-1.07c.76-.37,1.65-.93,1.59-1.55-.05-.46-.62-.86-1.18-1.25-1.37-.96-2.52-2.49-1.85-4.02.33-.76,1.07-1.32,2.15-1.63.22-.06.44-.12.66-.17.45-.11.87-.21,1.22-.4.35-.19.67-.58.6-.89-.05-.22-.32-.48-.53-.69l-1.7-1.65c-.36-.35-.85-.82-1.02-1.5-.31-1.22.56-2.33,1.51-2.85.47-.26.95-.41,1.41-.56.34-.11.66-.22.96-.35.49-.23,1.01-.69.99-1.15-.02-.46-.47-.8-1.21-1.31-.72-.5-1.54-1.06-1.85-2.01-.36-1.08.13-2.4,1.18-3.19.85-.65,1.87-.9,2.77-1.12.4-.1.81.15.91.55.1.4-.15.81-.55.91-.8.19-1.62.39-2.22.85-.46.35-.84.99-.66,1.53.16.47.7.85,1.28,1.25.8.55,1.8,1.24,1.86,2.48.05,1.24-.92,2.15-1.85,2.58-.38.18-.76.3-1.13.42-.42.13-.81.26-1.15.45-.46.26-.88.76-.78,1.17.07.27.37.56.61.79l1.7,1.65c.34.33.8.77.95,1.42.26,1.11-.51,2.11-1.35,2.56-.52.28-1.06.41-1.59.54-.2.05-.4.09-.59.15-.36.1-.99.35-1.19.79-.33.75.64,1.69,1.27,2.13.82.58,1.75,1.23,1.88,2.37.13,1.19-.69,2.22-2.43,3.06l-2.22,1.07c-.11.05-.22.07-.33.07Z"/>
  <path class="st2" d="M114.65,44.24c-.06,0-.13,0-.2-.03-.4-.11-.64-.52-.53-.92l10.45-38.88c.11-.4.52-.64.92-.53.4.11.64.52.53.92l-10.45,38.88c-.09.34-.39.56-.73.56Z"/>
  <path class="st0" d="M129.12,48.57s-.02,0-.04,0c-.41-.02-.73-.37-.71-.79.11-2.3.39-4.89,2.32-6.37.69-.53,1.49-.83,2.26-1.11.86-.32,1.67-.61,2.17-1.2.8-.93.71-2.42.62-3.86l-.02-.4c-.15-2.59.63-4.39,2.18-5.08.38-.17.82,0,.99.38.17.38,0,.82-.38.99-1.32.58-1.34,2.72-1.29,3.62l.02.4c.1,1.66.22,3.54-.98,4.93-.76.89-1.79,1.27-2.79,1.63-.7.26-1.35.5-1.86.89-1.42,1.09-1.64,3.28-1.73,5.25-.02.4-.35.72-.75.72Z"/>
  <path class="st0" d="M156.72,86.83c-.16,0-.33-.02-.5-.06-.98-.22-1.58-1.04-1.99-1.72-.21-.36-.1-.82.26-1.03.36-.21.82-.1,1.03.26.24.39.6.93,1.04,1.03.52.12,1.1-.4,1.38-.97.21-.42.33-.91.45-1.42.1-.4.2-.81.34-1.2.49-1.36,1.44-2.24,2.56-2.35,1.72-.17,2.86,1.48,3.42,2.27.77,1.1,1.45,1.6,2.02,1.49.59-.12.95-.87,1.08-1.47.07-.34.11-.68.15-1.03.07-.59.14-1.21.36-1.82.42-1.16,1.59-2.25,2.94-1.98.79.16,1.33.73,1.73,1.15l1.54,1.63c.46.49.95.95,1.39.89.27-.03.56-.29.75-.66.17-.33.26-.72.36-1.13l.1-.42c.31-1.19.99-2.8,2.45-3.7.35-.22.82-.11,1.03.25.22.35.11.82-.25,1.03-1.03.64-1.54,1.87-1.78,2.8l-.1.39c-.12.48-.23.97-.48,1.46-.42.83-1.14,1.39-1.92,1.48-1.24.15-2.2-.86-2.65-1.35l-1.54-1.63c-.33-.35-.63-.65-.94-.71-.47-.1-1.02.45-1.22,1.01-.16.44-.22.95-.28,1.48-.04.39-.09.79-.17,1.18-.24,1.1-.95,2.36-2.25,2.63-1.84.36-3.13-1.49-3.55-2.11-.59-.85-1.28-1.7-2.03-1.63-.61.06-1.08.77-1.29,1.36-.12.34-.21.69-.29,1.05-.14.57-.28,1.15-.56,1.72-.46.94-1.42,1.83-2.57,1.83Z"/>
  <path class="st0" d="M182.38,150.42c-.98,0-1.93-.59-2.37-1.47-.36-.72-.33-1.48-.32-2.15.01-.43.02-.84-.06-1.19-.11-.45-.44-.86-.9-1.12-.47-.26-.99-.32-1.43-.18-.33.11-.66.31-1.03.53-.76.46-1.7,1.03-2.78.68-1.15-.38-1.65-1.58-1.73-2.58-.03-.4-.02-.78,0-1.15.02-.43.03-.83-.03-1.21-.08-.5-.4-1.03-.8-1.07-.22-.02-.53.11-.81.22l-2.43,1.02c-.44.19-1.11.47-1.83.28-.82-.21-1.43-.96-1.65-2.01-.13-.64-.13-1.27-.12-1.88,0-.52,0-1.01-.07-1.47-.09-.51-.4-1.03-.76-1.28-.19-.13-.38-.18-.57-.15-.2.04-.43.17-.68.31-.41.24-.92.51-1.55.51-.61-.02-1.1-.34-1.46-.57l-6.13-3.93c-.35-.22-.45-.69-.23-1.04.22-.35.69-.45,1.04-.23l6.13,3.93c.22.14.5.32.7.33.22.02.45-.14.75-.31.33-.19.71-.41,1.16-.49.59-.1,1.17.03,1.69.39.69.48,1.22,1.34,1.38,2.25.11.6.1,1.18.1,1.75,0,.55-.01,1.08.09,1.56.08.38.28.79.55.86.23.05.6-.1.87-.21l2.43-1.02c.39-.16.93-.39,1.52-.33,1.23.11,1.98,1.28,2.15,2.33.08.52.07,1.02.05,1.5-.01.33-.02.65,0,.97.05.54.28,1.14.7,1.28.4.13.84-.11,1.53-.53.42-.25.85-.51,1.33-.67.84-.28,1.8-.17,2.63.29.83.46,1.43,1.22,1.64,2.08.13.54.12,1.07.1,1.58-.02.57-.03,1.06.16,1.44.19.37.6.63,1.02.63h0c.42,0,.84-.27,1.02-.65.18-.38.63-.54,1-.36.38.18.53.63.36,1-.43.89-1.38,1.5-2.37,1.51h-.02Z"/>
  <path class="st0" d="M53.4,187.23c-.3,0-.58-.18-.7-.47-.37-.9-.69-1.84-.96-2.78-.42-1.46.03-2.17.48-2.52.41-.31.9-.37,1.28-.38.36,0,.72,0,1.07.02.49.02.96.04,1.4-.02.56-.07,1.24-.33,1.47-.86.23-.52-.02-1.22-.27-1.72-.09-.18-.19-.37-.29-.55-.31-.57-.64-1.16-.78-1.87-.21-1.08.19-2.48,1.37-2.92.4-.15.8-.16,1.18-.15h.33c.7.04,1.37.06,1.94-.13.5-.17,1-.62.97-1.09-.01-.23-.14-.5-.28-.79l-.06-.12c-.53-1.13-.89-2.33-1.04-3.56-.05-.4-.07-.84.14-1.26.52-1.07,1.74-.97,2.55-.91.13,0,.26.02.39.03.76.03,1.54-.34,1.99-.95.25-.33.72-.4,1.05-.16.33.25.41.72.16,1.05-.75,1.02-2,1.64-3.26,1.56-.14,0-.29-.02-.44-.03-.33-.03-1.01-.08-1.08.07-.03.05-.02.19,0,.41.14,1.08.45,2.13.91,3.11l.05.11c.19.39.4.83.43,1.35.07,1.31-.98,2.26-2,2.6-.83.28-1.67.25-2.47.22h-.32c-.24-.02-.46-.02-.61.04-.37.14-.52.74-.42,1.22.09.48.35.94.62,1.44.11.2.22.4.32.6.57,1.14.67,2.15.31,2.99-.41.94-1.4,1.59-2.65,1.75-.57.07-1.12.05-1.65.03-.32-.01-.64-.03-.96-.02-.29,0-.38.05-.41.07-.07.05-.12.35.05.91.25.89.56,1.78.91,2.63.16.38-.03.82-.41.98-.09.04-.19.06-.28.06Z"/>
  <path class="st2" d="M43.77,88.21c-.29,0-.57-.06-.84-.17-.44-.19-.83-.54-1.15-1.03-.45-.7-.66-1.46-.87-2.2-.09-.34-.19-.68-.31-1.02-.26-.72-.83-1.57-1.57-1.59-.62.03-1.17.55-1.46.89-.17.2-.33.42-.49.63-.34.45-.69.93-1.16,1.33-.79.67-2.06,1.09-3.11.49-.88-.5-1.19-1.48-1.4-2.13l-.64-1.99c-.21-.66-.48-1.37-.96-1.57-.46-.19-1.1.14-1.53.55-.25.24-.47.52-.71.81-.31.39-.63.79-1.04,1.14-.85.73-2.18,1.17-3.26.51-.47-.29-.83-.76-1.08-1.41-.21-.54-.31-1.09-.41-1.62-.07-.39-.14-.75-.24-1.09-.18-.57-.59-1.27-1.18-1.34-.41-.05-.7-.43-.65-.84.05-.41.43-.7.84-.65,1.3.16,2.1,1.34,2.43,2.39.13.43.21.85.29,1.27.09.48.17.94.33,1.35.13.33.29.56.47.67.4.25,1.06,0,1.48-.37.3-.26.57-.59.85-.94.26-.32.52-.65.84-.95.75-.73,1.98-1.33,3.14-.86,1.17.48,1.6,1.8,1.82,2.51l.64,1.99c.18.56.37,1.08.72,1.28.39.22.99,0,1.38-.33.34-.29.62-.67.92-1.08.18-.24.35-.48.54-.7.8-.95,1.7-1.45,2.64-1.42,1.5.03,2.51,1.35,2.95,2.57.13.37.24.75.35,1.13.18.66.35,1.28.68,1.78.16.24.32.4.48.47.26.11.67.01.99-.25.39-.31.68-.81.96-1.28.21-.36.67-.48,1.03-.27.36.21.48.67.27,1.03-.33.57-.71,1.21-1.31,1.69-.51.41-1.11.63-1.69.63Z"/>
  <path class="st0" d="M66.67,51.93s-.05,0-.08,0c-.41-.05-.71-.42-.67-.83.06-.59-.28-1.27-.88-1.72-.67-.52-1.56-.74-2.26-.88l-.31-.06c-1.03-.2-2.2-.43-3.02-1.31-1.01-1.08-.97-2.56-.93-3.86.03-1.09.06-2.12-.49-2.77-.53-.65-1.53-.83-2.58-1.03-1.3-.24-2.77-.52-3.58-1.8-.7-1.1-.51-2.36-.35-3.47.07-.5.14-.98.14-1.43-.02-1.39-.92-2.74-2.2-3.28-.38-.16-.56-.61-.4-.99.16-.38.6-.56.99-.4,1.83.79,3.08,2.65,3.11,4.65,0,.57-.07,1.13-.16,1.67-.14.97-.27,1.81.13,2.44.46.73,1.45.91,2.59,1.13,1.21.23,2.58.49,3.46,1.55.9,1.09.86,2.52.83,3.77-.03,1.11-.06,2.16.53,2.79.49.52,1.32.69,2.2.86l.32.06c.86.17,1.96.46,2.88,1.17,1.02.79,1.58,1.97,1.45,3.08-.04.38-.37.67-.75.67Z"/>
  <path class="st0" d="M73.3,50.17c-.26,0-.52-.14-.66-.39L52.57,13.56c-.2-.36-.07-.82.29-1.02.36-.2.82-.07,1.02.29l20.07,36.22c.2.36.07.82-.29,1.02-.12.06-.24.09-.36.09Z"/>
  <path class="st0" d="M92.25,43.26c-.37,0-.69-.27-.74-.65l-3.83-27.72c-.06-.41.23-.79.64-.85.41-.06.79.23.85.64l3.83,27.72c.06.41-.23.79-.64.85-.03,0-.07,0-.1,0Z"/>
  <path class="st2" d="M56.5,66.78c-.16,0-.32-.05-.45-.15l-21.19-16.05c-.33-.25-.4-.72-.14-1.05.25-.33.72-.39,1.05-.14l21.19,16.05c.33.25.4.72.14,1.05-.15.19-.37.3-.6.3Z"/>
  <path class="st0" d="M53.79,73.5c-.13,0-.26-.03-.37-.1L13.56,50.63c-.36-.21-.49-.67-.28-1.03.21-.36.67-.48,1.03-.28l39.86,22.78c.36.21.49.67.28,1.03-.14.24-.39.38-.65.38Z"/>
  <path class="st1" d="M52.39,79.19"/>
  <path class="st1" d="M24.62,67.86"/>
  <path class="st0" d="M16.92,79.2c-.06,0-.13,0-.19-.02l-13.44-3.55c-.4-.11-.64-.52-.54-.92.11-.4.52-.64.92-.54l13.44,3.55c.4.11.64.52.54.92-.09.34-.39.56-.73.56Z"/>
  <path class="st0" d="M49.22,93.91s-.06,0-.09,0l-26.1-3.24c-.41-.05-.7-.43-.65-.84.05-.41.43-.7.84-.65l26.1,3.24c.41.05.7.43.65.84-.05.38-.37.66-.75.66Z"/>
  <path class="st0" d="M14.9,112.38c-.37,0-.69-.27-.74-.64-.06-.41.22-.79.63-.85l29.73-4.42c.42-.05.79.22.85.63.06.41-.22.79-.63.85l-29.73,4.42s-.07,0-.11,0Z"/>
  <path class="st0" d="M25.29,131.28c-.29,0-.57-.17-.69-.45-.16-.38.01-.82.39-.99l18.68-8.07c.38-.17.82.01.99.39.16.38-.01.82-.39.99l-18.68,8.07c-.1.04-.2.06-.3.06Z"/>
  <path class="st0" d="M2.41,127.24c-.32,0-.62-.21-.72-.54-.12-.4.11-.82.51-.93l24.98-7.35c.4-.12.82.11.93.51.12.4-.11.82-.51.93l-24.98,7.35c-.07.02-.14.03-.21.03Z"/>
  <path class="st2" d="M33.13,151.61c-.22,0-.44-.1-.59-.28-.26-.32-.21-.8.12-1.06l16.91-13.59c.32-.26.8-.21,1.06.12.26.32.21.8-.12,1.06l-16.91,13.59c-.14.11-.31.17-.47.17Z"/>
  <path class="st0" d="M51.59,166.42c-.15,0-.3-.05-.44-.14-.34-.24-.42-.71-.17-1.05l5.86-8.18c.24-.34.71-.41,1.05-.17.34.24.42.71.17,1.05l-5.86,8.18c-.15.21-.38.31-.61.31Z"/>
  <path class="st2" d="M72.37,196.59c-.07,0-.15-.01-.22-.03-.4-.12-.62-.54-.5-.94l8.18-26.74c.12-.4.54-.62.94-.5.4.12.62.54.5.94l-8.18,26.74c-.1.32-.4.53-.72.53Z"/>
  <path class="st2" d="M112.7,183.22c-.37,0-.69-.28-.74-.65l-6.3-47.74c-.05-.41.24-.79.65-.84.41-.06.79.23.84.65l6.3,47.74c.05.41-.24.79-.65.84-.03,0-.07,0-.1,0Z"/>
  <path class="st2" d="M146.52,187.64c-.27,0-.54-.15-.67-.41l-8.84-17.35c-.19-.37-.04-.82.33-1.01.37-.19.82-.04,1.01.33l8.84,17.35c.19.37.04.82-.33,1.01-.11.06-.23.08-.34.08Z"/>
  <path class="st0" d="M150.83,169.74c-.24,0-.47-.11-.62-.32l-13.15-18.99c-.24-.34-.15-.81.19-1.05.34-.24.81-.15,1.05.19l13.15,18.99c.24.34.15.81-.19,1.05-.13.09-.28.13-.43.13Z"/>
  <path class="st2" d="M167.08,152.06c-.17,0-.33-.05-.47-.17l-25.64-20.78c-.32-.26-.37-.74-.11-1.06.26-.32.73-.37,1.06-.11l25.64,20.78c.32.26.37.74.11,1.06-.15.18-.37.28-.58.28Z"/>
  <path class="st0" d="M196.48,126.53c-.07,0-.14,0-.21-.03l-44.1-12.6c-.4-.11-.63-.53-.52-.93s.53-.64.93-.52l44.1,12.6c.4.11.63.53.52.93-.09.33-.4.55-.72.55Z"/>
  <path class="st0" d="M179.01,111.5s-.08,0-.11,0l-26.74-4.09c-.41-.06-.69-.45-.63-.86.06-.41.45-.69.86-.63l26.74,4.09c.41.06.69.45.63.86-.06.37-.38.64-.74.64Z"/>
  <path class="st2" d="M183.77,78.23c-.33,0-.63-.22-.72-.55-.11-.4.12-.81.52-.93l14.15-3.98c.4-.12.82.12.93.52.11.4-.12.81-.52.93l-14.15,3.98c-.07.02-.14.03-.2.03Z"/>
  <path class="st0" d="M154.81,93.04c-.37,0-.7-.28-.75-.66-.05-.41.24-.79.65-.84l30.17-3.87c.41-.05.79.24.84.65.05.41-.24.79-.65.84l-30.17,3.87s-.06,0-.1,0Z"/>
  <path class="st0" d="M145.31,65.41c-.22,0-.45-.1-.59-.29-.26-.33-.2-.8.13-1.06l20.89-16.25c.33-.26.8-.2,1.06.13.26.33.2.8-.13,1.06l-20.89,16.25c-.14.11-.3.16-.46.16Z"/>
  <path class="st2" d="M135.14,52.37c-.15,0-.31-.05-.45-.15-.33-.25-.41-.72-.16-1.05l14.7-20c.25-.34.72-.41,1.05-.16.33.25.41.72.16,1.05l-14.7,20c-.15.2-.38.31-.61.31Z"/>
  <path class="st0" d="M15.36,148.96c-.4,0-.73-.31-.75-.71-.04-.69-.09-1.46.14-2.23.28-.96.97-1.7,1.8-1.93,1.15-.32,2.09.3,2.91.85.46.31.9.6,1.33.71.67.17,1.44-.21,1.73-.83.24-.5.21-1.15.18-1.83-.01-.25-.02-.5-.02-.74,0-1.24.48-2.72,1.81-3.13,1.13-.36,2.09.28,2.86.8.44.29.85.57,1.25.67.5.13,1.1-.05,1.45-.43.35-.39.47-1,.29-1.49-.14-.39.06-.82.45-.97.39-.15.82.05.97.44.38,1.02.15,2.21-.58,3.02-.73.81-1.89,1.15-2.94.88-.64-.17-1.21-.54-1.7-.87-.7-.47-1.16-.75-1.58-.62-.52.16-.76.99-.76,1.7,0,.22.01.45.02.67.04.8.08,1.7-.32,2.54-.59,1.25-2.11,1.98-3.45,1.65-.68-.17-1.28-.57-1.81-.92-.73-.49-1.22-.79-1.67-.65-.33.09-.62.44-.76.9-.15.52-.12,1.14-.08,1.73.02.42-.29.77-.71.8-.01,0-.03,0-.04,0Z"/>
  <path class="st0" d="M77.43,16.98c-1.96,0-3.55-1.59-3.55-3.55s1.59-3.55,3.55-3.55,3.55,1.59,3.55,3.55-1.59,3.55-3.55,3.55ZM77.43,11.38c-1.13,0-2.05.92-2.05,2.05s.92,2.05,2.05,2.05,2.05-.92,2.05-2.05-.92-2.05-2.05-2.05Z"/>
  <path class="st0" d="M185.6,65.09c-1.96,0-3.55-1.59-3.55-3.55s1.59-3.55,3.55-3.55,3.55,1.59,3.55,3.55-1.59,3.55-3.55,3.55ZM185.6,59.49c-1.13,0-2.05.92-2.05,2.05s.92,2.05,2.05,2.05,2.05-.92,2.05-2.05-.92-2.05-2.05-2.05Z"/>
  <path class="st2" d="M34.7,120.65c-1.96,0-3.55-1.59-3.55-3.55s1.59-3.55,3.55-3.55,3.55,1.59,3.55,3.55-1.59,3.55-3.55,3.55ZM34.7,115.05c-1.13,0-2.05.92-2.05,2.05s.92,2.05,2.05,2.05,2.05-.92,2.05-2.05-.92-2.05-2.05-2.05Z"/>
  <path class="st0" d="M89.55,178.72c-1.96,0-3.55-1.59-3.55-3.55s1.59-3.55,3.55-3.55,3.55,1.59,3.55,3.55-1.59,3.55-3.55,3.55ZM89.55,173.12c-1.13,0-2.05.92-2.05,2.05s.92,2.05,2.05,2.05,2.05-.92,2.05-2.05-.92-2.05-2.05-2.05Z"/>
  <path class="st2" d="M82.33,30.92c-.17,0-.35-.06-.48-.18l-5.16-4.35c-.21-.17-.3-.44-.26-.71.05-.26.23-.48.48-.57l6.35-2.3c.25-.09.53-.04.74.13.21.17.3.44.26.71l-1.19,6.65c-.05.26-.23.48-.48.57-.08.03-.17.05-.26.05ZM78.65,26.08l3.17,2.67.73-4.08-3.9,1.41Z"/>
  <path class="st0" d="M90.54,64.13c-.17,0-.35-.06-.48-.18l-5.16-4.35c-.21-.17-.3-.44-.26-.71.05-.26.23-.48.48-.57l6.35-2.3c.25-.09.53-.04.74.13.21.17.3.44.26.71l-1.19,6.65c-.05.26-.23.48-.48.57-.08.03-.17.05-.26.05ZM86.86,59.29l3.17,2.67.73-4.08-3.9,1.41Z"/>
  <path class="st0" d="M114.23,194.85c-.27,0-.52-.14-.65-.38l-3.38-5.85c-.13-.23-.13-.52,0-.75.13-.23.38-.38.65-.38h6.75c.27,0,.52.14.65.38.13.23.13.52,0,.75l-3.38,5.85c-.13.23-.38.38-.65.38ZM112.16,189l2.07,3.59,2.07-3.59h-4.15Z"/>
  <path class="st2" d="M185.69,135.43h-6.75c-.27,0-.52-.14-.65-.38-.13-.23-.13-.52,0-.75l3.38-5.85c.27-.47,1.03-.47,1.3,0l3.38,5.85c.13.23.13.52,0,.75-.13.23-.38.38-.65.38ZM180.24,133.93h4.15l-2.07-3.59-2.07,3.59Z"/>
  <path class="st0" d="M87.39,191.91s-.07,0-.1,0c-.41-.05-.7-.43-.65-.84l1.1-8.27c.05-.41.43-.7.85-.65.41.05.7.43.65.84l-1.1,8.27c-.05.38-.37.65-.74.65Z"/>
  <path class="st0" d="M177.3,161.91h-5.52c-.42,0-.75-.34-.75-.75v-5.42c0-.42.34-.75.75-.75h5.52c.42,0,.75.34.75.75v5.42c0,.42-.34.75-.75.75ZM172.52,160.4h4.02v-3.91h-4.02v3.91Z"/>
  <path class="st0" d="M69.06,73.75c-.33,0-.63-.24-.69-.58-.11-.65-.24-1.39-.1-2.16.18-.96.8-1.72,1.61-1.97.5-.16,1.01-.1,1.45-.06.47.05.77.07.93-.06.28-.23.09-1.04.02-1.34-.38-1.67.17-2.41.71-2.74.91-.56,1.91-.05,2.57.28.51.26.9.27.97.17.06-.07.08-.28.1-.46.01-.11.03-.23.05-.33.23-1.29,1.39-2.34,2.69-2.44.38-.01.72.26.75.65.03.39-.26.72-.64.75-.68.05-1.3.62-1.42,1.28-.01.08-.02.17-.03.25-.04.35-.09.78-.39,1.16-.55.7-1.59.78-2.71.21-.36-.18-.96-.48-1.2-.34-.19.12-.22.6-.08,1.23.13.58.45,1.95-.49,2.73-.62.52-1.38.44-1.98.38-.34-.04-.66-.07-.88,0-.35.11-.58.53-.65.89-.1.51,0,1.09.1,1.65.07.38-.19.75-.57.81-.04,0-.08.01-.12.01Z"/>
  <path class="st0" d="M107.69,75.44c-.21,0-.41-.09-.55-.26-.19-.23-.21-.56-.05-.82l3.2-5.02c.28-.44.35-.83.31-.93-.04,0-.19-.02-.28-.02l-3.05-.19c-.35-.02-.99-.06-1.43-.55-.3-.35-.42-.83-.34-1.42.09-.75.38-1.43.65-2.08.27-.65.53-1.26.56-1.88.02-.3-.04-.56-.16-.67-.18-.17-.63-.18-.78-.19-.93-.03-1.86.12-2.75.44-.37.13-.77-.06-.9-.43-.13-.37.06-.77.43-.9,1.05-.37,2.15-.54,3.25-.52.53.01,1.21.09,1.72.58.42.41.62,1.01.58,1.75-.05.86-.36,1.62-.67,2.35-.25.59-.48,1.14-.55,1.71-.03.26.01.33.01.33.03.02.13.05.45.07l3.05.19c.25.01.59.04.92.23.33.19.55.5.64.87.19.8-.28,1.67-.5,2l-2.13,3.33c1.56-.48,3.17-.85,4.78-1.1.38-.06.74.2.8.58.06.38-.2.74-.58.8-2.19.34-4.35.91-6.42,1.68-.08.03-.16.05-.25.05Z"/>
  <path class="st0" d="M108.14,117.27s-.1,0-.14-.01c-.67-.13-1.35-.16-2.02-.1-.36.04-.69-.19-.79-.54-.23-.79-.38-1.61-.45-2.43-2.13.02-4.25.25-6.33.68-.35.07-.69-.11-.84-.43s-.05-.7.24-.91l5.56-4.14-5.98.28c-.34.04-.66-.21-.76-.54s.05-.69.35-.86l4.92-2.78c.36-.2.82-.08,1.02.28.2.36.08.82-.28,1.03l-2.17,1.22,5.28-.25c.34-.02.63.19.74.5.11.31,0,.66-.26.86l-5.08,3.78c1.43-.16,2.86-.23,4.3-.22.4,0,.73.33.74.73.02.75.12,1.49.29,2.21.6,0,1.21.04,1.8.16.41.08.67.47.6.88-.07.36-.38.61-.74.61Z"/>
  <path class="st0" d="M116.43,134.99c-.87,0-1.75-.2-2.53-.62-1.61-.85-2.75-2.52-2.97-4.36-.28-2.34.9-4.55,1.82-6.01.24-.38.49-.76.74-1.13.85-1.28,1.65-2.49,2.07-3.85.52-1.64.43-3.49-.23-5.08-.1-.23-.2-.46-.31-.69-.18-.38-.36-.77-.5-1.18-.85-2.5.16-5.49,2.35-6.96.32-.21.76-.13.97.19.22.32.13.76-.19.97-1.68,1.13-2.45,3.43-1.8,5.35.12.34.28.68.45,1.04.12.25.23.5.34.75.78,1.89.88,4.09.27,6.04-.49,1.55-1.38,2.9-2.24,4.21-.24.37-.49.73-.72,1.1-.8,1.27-1.84,3.19-1.61,5.09.17,1.39,1.02,2.65,2.23,3.29,1.22.64,2.76.61,3.91-.1,1.19-.73,1.9-2.19,1.67-3.48-.23-1.31-1.51-2.41-2.75-2.38-.33.03-.61-.21-.69-.53-.08-.31.06-.64.35-.79l7.76-4.15-4.88-1.56c-.37-.12-.57-.51-.46-.88s.51-.57.88-.46l6.46,2.06c.27.09.46.32.49.61s-.12.55-.37.68l-7.65,4.09c1.13.61,2,1.73,2.23,3.06.33,1.87-.63,3.89-2.32,4.93-.82.5-1.79.75-2.76.75Z"/>
  <path class="st0" d="M121.1,114.49c-.28,0-.55-.17-.66-.45-1.01-2.67-.39-5.79,1.55-7.76.14-.14.33-.23.53-.21.2,0,.38.1.51.26l3.02,3.7c.24.3.2.74-.1.99-.3.25-.74.2-.99-.1l-2.49-3.05c-1.13,1.57-1.44,3.79-.73,5.67.14.36-.04.77-.41.9-.08.03-.17.05-.25.05Z"/>
  <path class="st0" d="M111.58,104.93c-.07,0-.14-.01-.21-.03-.29-.09-.48-.35-.49-.66-.05-2.72.02-5.46.22-8.16.03-.39.37-.68.75-.65.39.03.68.37.65.75-.14,1.97-.22,3.96-.23,5.94,1.6-2.14,3.27-4.25,4.96-6.3.15-.18.39-.27.62-.25.24.03.44.17.55.38.86,1.72,1.48,3.59,1.81,5.5,1.68-2.44,3.19-5.01,4.48-7.66.14-.28.44-.43.74-.39.3.05.54.29.59.6.37,2.61.99,5.2,1.86,7.69.13.37-.07.77-.43.89-.37.13-.77-.07-.89-.43-.66-1.9-1.19-3.86-1.57-5.84-1.38,2.58-2.94,5.07-4.68,7.42-.17.24-.47.34-.76.26-.28-.08-.48-.33-.51-.62-.16-1.98-.66-3.96-1.44-5.79-1.88,2.3-3.71,4.67-5.46,7.07-.13.19-.35.29-.57.29Z"/>
  <path class="st0" d="M120.35,86.55s-.03,0-.05,0c-.39-.03-.68-.36-.65-.75.04-.57-.28-1.16-.77-1.45-.34-.19-.45-.62-.26-.96.19-.34.62-.45.96-.26.96.55,1.55,1.66,1.47,2.77-.03.37-.33.65-.7.65Z"/>
  <path class="st0" d="M138.79,83.03c-.33,0-.63-.24-.69-.58-.35-1.93-1.1-3.82-2.17-5.47-.21-.33-.12-.76.21-.97s.76-.12.97.21c1.16,1.8,1.98,3.87,2.37,5.98.07.38-.18.75-.56.82-.04,0-.08.01-.13.01Z"/>
  <path class="st0" d="M107.41,87.52c-.23,0-.46-.12-.6-.33-1.88-3-4.84-5.14-8.22-7.43-2.89-1.96-5.75-3.3-8.51-3.99-.38-.09-.6-.48-.51-.85.09-.38.47-.61.85-.51,2.91.74,5.93,2.15,8.95,4.19,3.52,2.38,6.6,4.62,8.63,7.85.21.33.11.76-.22.97-.12.07-.24.11-.37.11Z"/>
  <path class="st0" d="M132.56,91.5c-.06,0-.12,0-.17-.02-2.66-.67-4.85-3.05-5.72-6.21-.62-2.26-.9-4.35-1.2-6.55l-.16-1.19c-.07-.47-.11-.98-.16-1.5-.06-.64-.12-1.3-.22-1.91-1.55,1.48-3.27,3.07-5.13,4.42l-.68.49c-1.9,1.37-3.87,2.78-5.24,4.83-1.32,1.97-2.17,3.86-2.04,6.73.02.39-.28.71-.67.73-.39.04-.71-.28-.73-.67-.12-2.78.54-4.97,2.28-7.57,1.51-2.25,3.58-3.74,5.59-5.18l.68-.49c2.1-1.52,4.05-3.4,5.77-5.05l.1-.1c.17-.17.42-.23.66-.18.23.06.42.23.5.46.34,1.03.44,2.21.54,3.36.04.5.09.99.15,1.43l.16,1.2c.29,2.16.56,4.19,1.16,6.36.72,2.63,2.57,4.68,4.71,5.22.38.09.6.48.51.85-.08.32-.37.53-.68.53Z"/>
  <path class="st0" d="M71.78,95.66c-.64,0-1.28-.06-1.92-.19-4.11-.88-7.13-5.14-6.74-9.49.36-4.05,3.63-7.79,7.78-8.87.86-.23,1.74-.35,2.59-.47,1.41-.19,2.74-.38,3.89-.99,1.78-.94,3.1-2.84,4.17-5.99.64-1.89,1.13-3.85,1.45-5.82.06-.38.43-.64.81-.58.38.06.64.42.58.8-.33,2.05-.84,4.09-1.51,6.05-.75,2.21-2.06,5.31-4.84,6.78-1.38.73-2.89.94-4.36,1.14-.85.12-1.65.23-2.43.43-3.59.94-6.42,4.15-6.73,7.64-.32,3.61,2.26,7.27,5.64,7.99,1.88.4,3.91-.02,5.47-.44.99-.26,2.04-.58,2.97-1.13,2.67-1.58,3.72-4.66,4.11-6.35.47-2.06.54-4.26.61-6.38.02-.6.04-1.21.07-1.81.12-2.66.44-5.73,1.89-8.38.35-.64.93-1.54,1.91-1.92.99-.38,2.21-.14,3.34.67.37.27.71.56,1.04.85.15.13.29.26.44.38,1.33-3.81,2.89-7.99,5.69-11.28.85-1,1.69-1.75,2.54-2.29,2.46-1.55,6.08-1.73,8.62-.43,2.72,1.4,4.52,3.92,4.69,6.59.02.39-.27.72-.66.74-.38.01-.72-.27-.74-.66-.14-2.18-1.64-4.26-3.92-5.43-2.09-1.07-5.2-.91-7.23.37-.74.46-1.46,1.12-2.22,2.01-2.85,3.35-4.32,7.61-5.75,11.73-.07.2-.23.36-.43.43-.2.07-.42.05-.61-.07-.5-.31-.93-.69-1.34-1.05-.3-.26-.6-.53-.92-.76-.73-.52-1.48-.7-2.02-.5-.42.16-.79.57-1.18,1.28-1.31,2.4-1.6,5.28-1.72,7.77-.03.59-.05,1.19-.07,1.79-.07,2.19-.14,4.45-.65,6.64-.76,3.31-2.45,5.88-4.76,7.25-1.07.64-2.28,1-3.32,1.28-1.21.32-2.68.65-4.2.65Z"/>
  <path class="st0" d="M77.57,94.13c-.88,0-1.7-.3-2.42-.6-1.2-.49-2.74-1.2-4.02-2.34-1.34-1.2-2.17-2.71-2.32-4.25-.04-.39.24-.73.63-.77.38-.05.73.24.77.63.12,1.19.78,2.37,1.86,3.34,1.12,1,2.52,1.64,3.61,2.09.68.28,1.46.56,2.17.47.39-.05.74.22.78.61s-.23.74-.61.78c-.15.02-.31.03-.46.03Z"/>
  <path class="st0" d="M104.28,122.7c-.67,0-1.26-.06-1.67-.11-.41-.06-.7-.44-.64-.85s.44-.7.85-.64c.76.11,2.24.22,3.57-.16.66-.19,4.03-1.32,5.21-4.82,1.18-3.5-.82-6.45-1.06-6.77l-13.91-15.63-9.25,20.68,6.75-2.95c.24-.11.52-.08.74.08.21.15.33.41.31.67l-.58,7.7c-.03.41-.4.71-.81.69-.41-.03-.72-.39-.69-.81l.49-6.45-7.38,3.23c-.28.12-.62.06-.84-.16-.22-.22-.28-.55-.15-.84l10.51-23.51c.1-.23.32-.4.57-.44.26-.04.51.05.68.24l14.74,16.56c.33.45,2.73,3.98,1.31,8.19-1.42,4.2-5.43,5.55-6.22,5.78-.85.25-1.74.33-2.51.33Z"/>
  <path class="st0" d="M85.56,104.64c-.07,0-.15-.01-.22-.04-1.24-.41-4.26-1.69-5.48-4.71-.31-.78-1.27-3.14.1-4.84.92-1.14,2.61-1.63,3.94-1.13.93.35,1.99,1.2,1.94,2.42-.04,1.12-.98,2.1-2.23,2.32-.38.06-.75-.19-.81-.57-.07-.38.19-.75.57-.81.68-.12,1.06-.6,1.08-.99.03-.64-1.03-1.05-1.04-1.05-.86-.32-1.87.1-2.35.7-.85,1.06-.13,2.85.1,3.44,1,2.48,3.56,3.55,4.62,3.9.37.12.57.52.45.89-.1.3-.37.48-.67.48Z"/>
  <path class="st0" d="M97.48,81.13c-.2,0-.4-.09-.54-.25-.25-.3-.21-.74.09-.99l3.97-3.3-3.97-1.2c-.27-.08-.46-.31-.49-.59-.03-.28.1-.55.35-.69l5.38-3.09-4.7-.57c-.24-.03-.45-.18-.55-.4-.1-.22-.09-.47.04-.68l2.15-3.39c.21-.33.64-.42.97-.22.33.21.42.64.22.97l-1.56,2.46,5.69.69c.3.04.54.26.6.56.06.3-.08.6-.34.75l-5.79,3.33,3.66,1.1c.25.07.43.28.49.53s-.04.51-.24.68l-4.97,4.14c-.13.11-.29.16-.45.16Z"/>
  <path class="st0" d="M134.88,100.03c-.37,0-.75-.04-1.13-.13-2.49-.58-4.92-3.2-4.42-6.02.37-2.09,2.44-4.23,4.67-3.97,1.41.17,3.3,1.38,3.18,3.22-.09,1.5-1.51,2.77-3.22,2.89-.4.01-.72-.26-.75-.65s.26-.72.65-.75c1.13-.08,1.87-.88,1.91-1.58.06-.91-1.12-1.64-1.95-1.74-1.42-.17-2.87,1.4-3.12,2.82-.34,1.96,1.53,3.98,3.36,4.41,2.49.59,5.15-1.71,5.87-4.15.95-3.23-1.83-6.4-3.93-7.74-3.32-2.12-7.26-1.31-9.63.02-3.17,1.78-4.36,4.82-4.72,6.05-.11.37-.5.58-.87.47-.37-.11-.58-.5-.47-.87.41-1.39,1.76-4.83,5.38-6.87,2.7-1.52,7.23-2.43,11.07.02,2.94,1.88,5.61,5.6,4.52,9.32-.8,2.7-3.5,5.25-6.41,5.25Z"/>
  <path class="st0" d="M126.32,118.05c-1.49,0-2.98-.54-4.2-1.58-.29-.25-.33-.69-.08-.99.25-.29.69-.33.99-.08,1.55,1.32,3.66,1.61,5.37.75,2.17-1.09,2.5-3.53,2.51-3.56.08-.65.14-2.3-1.09-3.59-1.12-1.18-2.6-1.3-3.03-1.31-.35,0-.63-.26-.68-.61-.05-.34.16-.67.49-.77l12.34-3.73c.37-.11.76.1.87.47s-.1.76-.47.87l-9.95,3.01c.49.25.99.61,1.45,1.09,1.64,1.73,1.57,3.89,1.46,4.73-.02.13-.42,3.2-3.27,4.63-.85.43-1.78.64-2.7.64Z"/>
  <path class="st0" d="M118.57,63.55c-1.44,0-2.61-1.17-2.61-2.61s1.17-2.61,2.61-2.61,2.61,1.17,2.61,2.61-1.17,2.61-2.61,2.61ZM118.57,59.83c-.61,0-1.11.5-1.11,1.11s.5,1.11,1.11,1.11,1.11-.5,1.11-1.11-.5-1.11-1.11-1.11Z"/>
  <path class="st0" d="M100.36,124.63c-1.73,0-3.13-1.41-3.13-3.13s1.41-3.13,3.13-3.13,3.13,1.41,3.13,3.13-1.41,3.13-3.13,3.13ZM100.36,119.87c-.9,0-1.63.73-1.63,1.63s.73,1.63,1.63,1.63,1.63-.73,1.63-1.63-.73-1.63-1.63-1.63Z"/>
  <path class="st0" d="M115.4,67.18c-.13,0-.26-.03-.38-.1-.36-.21-.48-.67-.27-1.03l2.27-3.87c.21-.36.67-.48,1.03-.27.36.21.48.67.27,1.03l-2.27,3.87c-.14.24-.39.37-.65.37Z"/>
  <path class="st0" d="M135.06,110.52s-.05,0-.08,0c-.39-.04-.66-.39-.62-.77.18-1.72.18-3.46,0-5.17-.19-1.74-.56-3.47-1.12-5.14-.12-.37.08-.76.44-.89.37-.12.76.08.89.44.59,1.76.99,3.59,1.18,5.43.19,1.81.19,3.66,0,5.47-.04.36-.34.63-.7.63Z"/>
  <path class="st0" d="M96.22,104.77c-1.83,0-4.82-.42-6.9-2.81-1.21-1.39-1.92-3.07-2-4.71-.05-1.1.19-1.94.38-2.62.22-.77.33-1.2.1-1.68-.26-.56-.86-.92-2.48-1.49-2.36-.83-3.81-1.03-4.97-1.2-1.02-.15-1.89-.27-3-.73-2.85-1.17-5.26-3.74-6.28-6.7-1.04-3.01-.89-5.71.46-8.01,1.27-2.16,4.1-4.59,7.94-4.33,4.37.29,6.59,3.92,6.83,4.33l5.38,11.67.26-6.11c.01-.29.21-.55.48-.64.28-.09.59,0,.77.23l7.15,9.05.27-2.3c.17-3.01,1.88-5.69,4.46-6.94,2.89-1.4,5.7-.48,6.77-.01,3.08,1.33,4.32,4.01,4.71,5.11,1.35,3.76-.31,7.14-1.43,8.82-2.31,3.49-5.86,4.51-7.28,4.78-.38.07-.75-.18-.82-.56-.07-.38.17-.75.55-.82,1.25-.24,4.36-1.14,6.38-4.18.97-1.46,2.42-4.39,1.28-7.58-.33-.92-1.38-3.18-3.95-4.29-.9-.39-3.24-1.16-5.6-.01-2.12,1.03-3.53,3.26-3.68,5.8l-.47,4.03c-.03.28-.23.52-.51.59-.27.08-.57-.02-.74-.24l-7.03-8.89-.3,7.13c-.01.32-.25.6-.56.66-.31.06-.64-.1-.77-.39l-6.57-14.25c-.17-.29-2.04-3.33-5.68-3.58-3.2-.23-5.57,1.83-6.64,3.64-1.13,1.93-1.25,4.23-.34,6.84.89,2.59,3,4.83,5.49,5.86.95.39,1.71.5,2.67.64,1.22.18,2.74.39,5.24,1.26,1.79.62,2.79,1.14,3.29,2.22.45.97.21,1.83-.03,2.65-.18.64-.37,1.3-.33,2.17.08,1.8,1.07,3.19,1.66,3.86,2.56,2.95,7.01,2.27,7.2,2.24,3.9-.62,5.89-3.83,6.25-4.46.88-1.56,1.1-3.09,1.14-4.1.05-1.34-.22-2.7-.76-3.94-.16-.36,0-.77.36-.92.36-.16.77,0,.92.36.63,1.43.93,3,.88,4.55-.04,1.17-.3,2.93-1.32,4.74-.58,1.03-2.82,4.46-7.25,5.16-.17.03-.76.11-1.58.11Z"/>
  <g>
    <path class="st2" d="M145.37,18.75c-.36,0-.65-.29-.65-.65v-2.3c0-.36.29-.65.65-.65s.65.29.65.65v2.3c0,.36-.29.65-.65.65Z"/>
    <path class="st2" d="M145.37,26.79c-.36,0-.65-.29-.65-.65v-2.3c0-.36.29-.65.65-.65s.65.29.65.65v2.3c0,.36-.29.65-.65.65Z"/>
    <path class="st2" d="M150.54,21.74h-2.3c-.36,0-.65-.29-.65-.65s.29-.65.65-.65h2.3c.36,0,.65.29.65.65s-.29.65-.65.65Z"/>
    <path class="st2" d="M142.5,21.74h-2.3c-.36,0-.65-.29-.65-.65s.29-.65.65-.65h2.3c.36,0,.65.29.65.65s-.29.65-.65.65Z"/>
    <path class="st2" d="M149.06,25.35c-.16,0-.33-.06-.45-.19l-1.64-1.61c-.26-.25-.26-.66,0-.92.25-.25.66-.26.92,0l1.64,1.61c.26.25.26.66,0,.92-.13.13-.3.19-.46.19Z"/>
    <path class="st2" d="M143.32,19.73c-.16,0-.33-.06-.45-.19l-1.64-1.61c-.26-.25-.26-.66,0-.92.25-.25.66-.26.92,0l1.64,1.61c.26.25.26.66,0,.92-.13.13-.3.19-.46.19Z"/>
    <path class="st2" d="M147.37,19.68c-.16,0-.33-.06-.45-.19-.26-.25-.26-.66,0-.92l1.61-1.64c.25-.26.66-.26.92,0,.26.25.26.66,0,.92l-1.61,1.64c-.13.13-.3.19-.46.19Z"/>
    <path class="st2" d="M141.75,25.43c-.16,0-.33-.06-.45-.19-.26-.25-.26-.66,0-.92l1.61-1.64c.25-.26.66-.26.92,0,.26.25.26.66,0,.92l-1.61,1.64c-.13.13-.3.19-.46.19Z"/>
  </g>
  <g>
    <path class="st2" d="M189.1,109.55c-.36,0-.65-.29-.65-.65v-2.3c0-.36.29-.65.65-.65s.65.29.65.65v2.3c0,.36-.29.65-.65.65Z"/>
    <path class="st2" d="M189.1,117.59c-.36,0-.65-.29-.65-.65v-2.3c0-.36.29-.65.65-.65s.65.29.65.65v2.3c0,.36-.29.65-.65.65Z"/>
    <path class="st2" d="M194.27,112.54h-2.3c-.36,0-.65-.29-.65-.65s.29-.65.65-.65h2.3c.36,0,.65.29.65.65s-.29.65-.65.65Z"/>
    <path class="st2" d="M186.23,112.54h-2.3c-.36,0-.65-.29-.65-.65s.29-.65.65-.65h2.3c.36,0,.65.29.65.65s-.29.65-.65.65Z"/>
    <path class="st2" d="M192.8,116.15c-.16,0-.33-.06-.45-.19l-1.64-1.61c-.26-.25-.26-.66,0-.92.25-.25.66-.26.92,0l1.64,1.61c.26.25.26.66,0,.92-.13.13-.3.19-.46.19Z"/>
    <path class="st2" d="M187.05,110.53c-.16,0-.33-.06-.45-.19l-1.64-1.61c-.26-.25-.26-.66,0-.92.25-.25.66-.26.92,0l1.64,1.61c.26.25.26.66,0,.92-.13.13-.3.19-.46.19Z"/>
    <path class="st2" d="M191.11,110.49c-.16,0-.33-.06-.45-.19-.26-.25-.26-.66,0-.92l1.61-1.64c.25-.25.66-.26.92,0s.26.66,0,.92l-1.61,1.64c-.13.13-.3.19-.46.19Z"/>
    <path class="st2" d="M185.48,116.23c-.16,0-.33-.06-.45-.19-.26-.25-.26-.66,0-.92l1.61-1.64c.25-.26.66-.26.92,0,.26.25.26.66,0,.92l-1.61,1.64c-.13.13-.3.19-.46.19Z"/>
  </g>
  <g>
    <path class="st2" d="M16.19,130.77c-.36,0-.65-.29-.65-.65v-2.3c0-.36.29-.65.65-.65s.65.29.65.65v2.3c0,.36-.29.65-.65.65Z"/>
    <path class="st2" d="M16.19,138.81c-.36,0-.65-.29-.65-.65v-2.3c0-.36.29-.65.65-.65s.65.29.65.65v2.3c0,.36-.29.65-.65.65Z"/>
    <path class="st2" d="M21.36,133.75h-2.3c-.36,0-.65-.29-.65-.65s.29-.65.65-.65h2.3c.36,0,.65.29.65.65s-.29.65-.65.65Z"/>
    <path class="st2" d="M13.32,133.75h-2.3c-.36,0-.65-.29-.65-.65s.29-.65.65-.65h2.3c.36,0,.65.29.65.65s-.29.65-.65.65Z"/>
    <path class="st2" d="M19.88,137.37c-.16,0-.33-.06-.45-.19l-1.64-1.61c-.26-.25-.26-.66,0-.92.25-.26.66-.26.92,0l1.64,1.61c.26.25.26.66,0,.92-.13.13-.3.19-.46.19Z"/>
    <path class="st2" d="M14.14,131.75c-.16,0-.33-.06-.45-.19l-1.64-1.61c-.26-.25-.26-.66,0-.92.25-.25.66-.26.92,0l1.64,1.61c.26.25.26.66,0,.92-.13.13-.3.19-.46.19Z"/>
    <path class="st2" d="M18.2,131.7c-.16,0-.33-.06-.45-.19-.26-.25-.26-.66,0-.92l1.61-1.64c.25-.25.66-.26.92,0s.26.66,0,.92l-1.61,1.64c-.13.13-.3.19-.46.19Z"/>
    <path class="st2" d="M12.57,137.45c-.16,0-.33-.06-.45-.19-.26-.25-.26-.66,0-.92l1.61-1.64c.25-.26.66-.26.92,0,.26.25.26.66,0,.92l-1.61,1.64c-.13.13-.3.19-.46.19Z"/>
  </g>
  <g>
    <path class="st0" d="M14.48,62.73c-.36,0-.65-.29-.65-.65v-2.3c0-.36.29-.65.65-.65s.65.29.65.65v2.3c0,.36-.29.65-.65.65Z"/>
    <path class="st0" d="M14.48,70.77c-.36,0-.65-.29-.65-.65v-2.3c0-.36.29-.65.65-.65s.65.29.65.65v2.3c0,.36-.29.65-.65.65Z"/>
    <path class="st0" d="M19.65,65.71h-2.3c-.36,0-.65-.29-.65-.65s.29-.65.65-.65h2.3c.36,0,.65.29.65.65s-.29.65-.65.65Z"/>
    <path class="st0" d="M11.61,65.71h-2.3c-.36,0-.65-.29-.65-.65s.29-.65.65-.65h2.3c.36,0,.65.29.65.65s-.29.65-.65.65Z"/>
    <path class="st0" d="M18.18,69.33c-.16,0-.33-.06-.45-.19l-1.64-1.61c-.26-.25-.26-.66,0-.92.25-.26.66-.26.92,0l1.64,1.61c.26.25.26.66,0,.92-.13.13-.3.19-.46.19Z"/>
    <path class="st0" d="M12.43,63.7c-.16,0-.33-.06-.45-.19l-1.64-1.61c-.26-.25-.26-.66,0-.92.25-.25.66-.26.92,0l1.64,1.61c.26.25.26.66,0,.92-.13.13-.3.19-.46.19Z"/>
    <path class="st0" d="M16.49,63.66c-.16,0-.33-.06-.45-.19-.26-.25-.26-.66-.01-.92l1.61-1.64c.25-.25.66-.26.92,0,.26.25.26.66.01.92l-1.61,1.64c-.13.13-.3.19-.46.19Z"/>
    <path class="st0" d="M10.86,69.41c-.16,0-.33-.06-.45-.19-.26-.25-.26-.66,0-.92l1.61-1.64c.25-.26.66-.26.92,0,.26.25.26.66,0,.92l-1.61,1.64c-.13.13-.3.19-.46.19Z"/>
  </g>
  <circle class="st2" cx="8.83" cy="112.52" r="1.61"/>
  <circle class="st0" cx="15.17" cy="88.98" r="1.61"/>
  <circle class="st0" cx="27.76" cy="154.57" r="1.61"/>
  <circle class="st2" cx="155.19" cy="174.63" r="1.61"/>
  <circle class="st2" cx="146.02" cy="125.31" r="1.61"/>
  <circle class="st2" cx="190.88" cy="87.95" r="1.61"/>
  <circle class="st0" cx="160.43" cy="62.85" r="1.61"/>
  <circle class="st0" cx="158.57" cy="27.09" r="1.61"/>
  <path class="st0" d="M133.39,175.62l.69,2.12c.11.35.44.59.81.59h2.23c.15,0,.22.2.09.29l-1.81,1.31c-.3.22-.42.6-.31.95l.69,2.12c.05.15-.12.27-.25.18l-1.81-1.31c-.3-.22-.7-.22-1,0l-1.81,1.31c-.13.09-.29-.03-.25-.18l.69-2.12c.11-.35-.01-.74-.31-.95l-1.81-1.31c-.13-.09-.06-.29.09-.29h2.23c.37,0,.7-.24.81-.59l.69-2.12c.05-.15.26-.15.3,0Z"/>
  <path class="st0" d="M82.02,82.18c-.09-.41-.48-.67-.89-.58l-1.56.33-.32-1.85c-.07-.41-.47-.67-.87-.61-.41.07-.68.46-.61.87l.33,1.91-1.78.38c-.41.09-.67.48-.58.89.07.35.39.6.73.6.05,0,.1,0,.16-.02l1.73-.37.25,1.42c.06.37.38.62.74.62.04,0,.09,0,.13-.01.41-.07.68-.46.61-.87l-.26-1.48,1.61-.34c.41-.09.67-.48.58-.89Z"/>
  <path class="st0" d="M73.39,102.71l-2.01-1.94,1.86-2c.28-.3.26-.78-.04-1.06-.31-.28-.78-.26-1.06.04l-1.84,1.98-1.99-1.92c-.3-.29-.77-.28-1.06.02-.29.3-.28.78.02,1.06l2.01,1.94-1.86,2c-.28.3-.26.78.04,1.06.14.13.33.2.51.2.2,0,.4-.08.55-.24l1.84-1.98,1.99,1.92c.15.14.33.21.52.21s.39-.08.54-.23c.29-.3.28-.78-.02-1.06Z"/>
  <g>
    <path class="st0" d="M77.33,105.51c.21-.04.43-.06.65-.06,1.09,0,2.13.53,2.77,1.41.03.04.07.05.11.05.02,0,.04,0,.06-.01l1.35-.63s.06-.05.07-.08c.01-.04,0-.08-.02-.11-.96-1.49-2.59-2.37-4.34-2.37-.44,0-.87.05-1.26.16-.04,0-.07.03-.08.07-.02.03-.02.07,0,.11l.55,1.37c.02.06.08.09.15.08Z"/>
    <path class="st0" d="M74.63,109.69c-.06-.24-.09-.51-.09-.8,0-1.12.56-2.18,1.49-2.83.05-.04.07-.1.05-.16l-.56-1.38s-.04-.06-.08-.08c-.04-.01-.08,0-.11.01-1.56.93-2.52,2.63-2.52,4.43,0,.5.07,1.01.22,1.5.01.04.04.07.07.08.02,0,.04.01.05.01s.04,0,.06-.01l1.35-.63c.06-.03.09-.09.07-.15Z"/>
    <path class="st0" d="M78.54,112.29c-.2.03-.39.05-.56.05-1.07,0-2.07-.5-2.74-1.36-.04-.05-.1-.07-.16-.04l-1.36.63s-.06.05-.07.08,0,.08.02.11c.97,1.45,2.58,2.31,4.31,2.31.39,0,.77-.05,1.16-.14.04,0,.07-.03.09-.07s.02-.07,0-.11l-.55-1.38c-.02-.06-.09-.09-.14-.08Z"/>
    <path class="st0" d="M82.95,107.47s-.04-.07-.07-.08c-.04-.02-.07-.02-.11,0l-1.35.62c-.06.02-.09.09-.08.15.05.25.08.5.08.74,0,1.16-.59,2.24-1.57,2.89-.05.04-.07.1-.05.16l.56,1.38s.04.06.08.08c.01,0,.03,0,.04,0,.02,0,.05,0,.07-.02,1.61-.92,2.6-2.64,2.6-4.49,0-.48-.07-.96-.2-1.42Z"/>
  </g>
  <g>
    <path class="st0" d="M126.82,66.81c.87.25,1.69.69,2.37,1.27.05.04.11.06.16.06.07,0,.14-.03.18-.08l.82-.89s.07-.12.07-.18c0-.07-.04-.13-.09-.18-.95-.81-2.1-1.41-3.32-1.73-.07-.02-.15,0-.21.04-.06.05-.1.11-.1.19l-.07,1.24c0,.12.07.22.18.25Z"/>
    <path class="st0" d="M133.19,73.36s-.12-.07-.19-.07l-1.22.05c-.13,0-.23.11-.24.24-.05.92-.31,1.85-.76,2.69-.05.1-.03.23.06.31l.92.8s.1.06.16.06c.01,0,.03,0,.04,0,.07-.01.14-.06.18-.12.67-1.14,1.06-2.44,1.13-3.76,0-.07-.02-.14-.07-.19Z"/>
    <path class="st0" d="M120.67,67.83c.05.06.12.09.2.09.05,0,.11-.02.15-.05,1.11-.85,2.45-1.31,3.88-1.33.13,0,.24-.11.25-.24l.06-1.2c0-.07-.02-.14-.07-.19-.05-.05-.11-.08-.18-.08-1.82,0-3.55.58-4.99,1.69-.05.04-.09.1-.1.17s.01.13.05.19l.75.95Z"/>
    <path class="st0" d="M131.49,72.21c.01.13.12.22.25.22h0l1.22-.05c.07,0,.14-.04.18-.09.05-.05.07-.12.06-.19-.16-1.28-.63-2.52-1.34-3.59-.04-.06-.11-.1-.19-.11-.09-.01-.15.02-.2.08l-.84.91c-.08.08-.09.21-.03.3.49.79.79,1.64.89,2.51Z"/>
    <path class="st0" d="M127.05,79.46c-.06-.04-.14-.05-.2-.02-.6.19-1.23.28-1.87.28-3.63,0-6.59-2.96-6.59-6.59,0-1.6.58-3.14,1.63-4.32.08-.09.08-.23,0-.32l-.77-.96c-.05-.06-.11-.09-.19-.09-.05,0-.14.03-.19.08-1.41,1.54-2.19,3.54-2.19,5.62,0,4.57,3.72,8.29,8.29,8.29.75,0,1.52-.1,2.26-.31.13-.04.21-.16.18-.29l-.25-1.19c-.01-.07-.06-.13-.12-.16Z"/>
    <path class="st0" d="M130.34,77.36c-.05-.05-.12-.07-.18-.06-.07,0-.13.04-.17.09-.53.63-1.16,1.14-1.86,1.53-.1.05-.15.16-.13.27l.25,1.22c.02.08.07.14.14.18.03.02.07.03.11.03s.07,0,.11-.03c1.02-.5,1.95-1.21,2.68-2.08.09-.1.08-.26-.03-.35l-.91-.79Z"/>
  </g>
  <path class="st2" d="M148.09,85.62c-1.54-10.75-6.58-18.14-8.68-20.82-5.5-7.02-11.67-10.31-14.3-11.71-3.2-1.7-11.85-5.63-23.58-5.63-.13,0-.27,0-.41,0-11.1.09-19.52,3.69-23.55,5.84-2.44,1.3-6.14,3.26-9.8,7.06-4.76,4.94-6.72,10.02-8.62,14.94-1.54,3.97-2.68,8.14-3.41,12.4-.25,1.46-.19,2.98.17,4.41l1.07,4.22c.28,1.12.15,2.27-.39,3.25-1.2,2.17-2.53,4.23-3.94,6.41-1.31,2.02-2.67,4.11-4.12,6.59-.32.54-1.16,1.99-.8,3.68.36,1.69,1.68,2.66,2.31,3.13,1.29.96,2.45,1.24,3.38,1.46.94.23,1.41.36,1.85.91.33.42.52.85.55,1.28.05.74-.33,1.52-.52,1.9-.11.22-.21.39-.3.53-.21.35-.45.75-.55,1.4-.07.46-.09,1.17.19,1.94.45,1.21,1.4,1.83,1.91,2.17.12.08.24.15.36.22-.14.14-.27.29-.39.45-.69.92-.99,1.93-.86,2.92.19,1.42,1.17,2.06,1.95,2.57.49.32.92.6,1.2,1.06.42.68.25,1.33-.15,2.62-.42,1.38-.95,3.1-.43,5.36.17.73.9,3.26,3.15,5.04,1.16.92,3.14,1.96,8.05,1.81,3.62-.11,6.59-.8,10.5-1.95,1.27.33,2.3.89,3.04,1.7.75.83.98,1.63,1.81,4.88l.13.51c.29,1.13.8,3.12,1.5,5.72.12.45.53.75.97.75.09,0,.17-.01.26-.03.54-.14.85-.69.71-1.23-.69-2.6-1.21-4.59-1.49-5.71l-.13-.51c-.84-3.27-1.15-4.5-2.27-5.73-.44-.49-.96-.89-1.53-1.24,6.27-1.89,10.02-3.27,12.88-6.23,1.58-1.64,2.87-3.57,3.83-5.74.26-.58,0-1.26-.59-1.52-.58-.26-1.26,0-1.52.59-.85,1.93-1.99,3.63-3.38,5.07-2.74,2.84-6.53,4.04-14.84,6.5-3.83,1.13-6.55,1.76-9.94,1.87-4.18.13-5.7-.63-6.55-1.31-1.71-1.36-2.25-3.37-2.34-3.76-.38-1.65,0-2.93.39-4.16.42-1.36.89-2.91-.09-4.5-.55-.9-1.3-1.39-1.9-1.78-.7-.46-.88-.62-.93-.95-.05-.36.1-.8.41-1.22.37-.48.96-.79,1.64-.87.43.05.83.06,1.17.05.59,0,1.08-.47,1.13-1.06.05-.59-.35-1.12-.94-1.23-.45-.08-.9-.11-1.34-.09-.7-.1-1.49-.33-2.21-.8-.47-.3-.84-.57-1.01-1.03-.12-.33-.1-.65-.08-.8.03-.19.07-.26.24-.54.12-.19.25-.41.39-.7.26-.52.85-1.72.75-3.09-.07-.9-.42-1.75-1.04-2.54-.95-1.2-2.1-1.48-3.12-1.72-.84-.2-1.63-.39-2.55-1.08-.6-.45-1.26-.99-1.43-1.76-.18-.81.3-1.63.54-2.03,1.42-2.43,2.77-4.5,4.06-6.5,1.44-2.21,2.79-4.31,4.03-6.55.82-1.49,1.03-3.24.61-4.92l-1.07-4.22c-.28-1.12-.33-2.31-.14-3.45.7-4.1,1.81-8.12,3.29-11.95,1.82-4.7,3.7-9.56,8.13-14.17,3.41-3.54,6.77-5.32,9.22-6.63,3.84-2.04,11.87-5.48,22.48-5.57,11.43-.12,19.81,3.71,22.89,5.35,2.51,1.33,8.37,4.46,13.57,11.1,1.98,2.53,6.76,9.53,8.21,19.72.61,4.27,1.11,12.71-2.36,21.28-1.14,2.8-3.44,7.44-6.49,12.05-.55.84-1.07,1.58-1.57,2.3-1.55,2.22-2.88,4.14-4.28,7.3-.67,1.52-1.93,4.34-2.59,8.12-.99,5.63-.11,10.11.74,14.45.79,4.02,2.01,8.01,3.63,11.85.19.44.61.7,1.06.7.15,0,.3-.03.45-.09.59-.25.86-.92.61-1.51-1.56-3.69-2.73-7.53-3.49-11.4-.85-4.32-1.65-8.41-.73-13.61.62-3.5,1.75-6.06,2.43-7.59,1.31-2.95,2.59-4.79,4.07-6.91.51-.73,1.04-1.49,1.6-2.34,3.96-5.97,6.13-11.04,6.7-12.45,3.68-9.07,3.15-17.97,2.51-22.47Z"/>
  <path class="st2" d="M28.33,44.33l-.53,1.86-.53-1.86c-.28-.98-1.04-1.74-2.02-2.02l-1.86-.53,1.86-.53c.98-.28,1.74-1.04,2.02-2.02l.53-1.86.53,1.86c.28.98,1.04,1.74,2.02,2.02l1.86.53-1.86.53c-.98.28-1.74,1.04-2.02,2.02h0Z"/>
  <path class="st2" d="M175.94,52.05l-.53,1.86-.53-1.86c-.28-.98-1.04-1.74-2.02-2.02l-1.86-.53,1.86-.53c.98-.28,1.74-1.04,2.02-2.02l.53-1.86.53,1.86c.28.98,1.04,1.74,2.02,2.02l1.86.53-1.86.53c-.98.28-1.74,1.04-2.02,2.02h0Z"/>
  <path class="st0" d="M43.51,172.51l-.53,1.86-.53-1.86c-.28-.98-1.04-1.74-2.02-2.02l-1.86-.53,1.86-.53c.98-.28,1.74-1.04,2.02-2.02l.53-1.86.53,1.86c.28.98,1.04,1.74,2.02,2.02l1.86.53-1.86.53c-.98.28-1.74,1.04-2.02,2.02h0Z"/>
</svg>