<?xml version="1.0" encoding="UTF-8"?>
<svg id="Ebene_1" xmlns="http://www.w3.org/2000/svg" version="1.1" viewBox="0 0 160 160">
  <!-- Generator: Adobe Illustrator 30.0.0, SVG Export Plug-In . SVG Version: 2.1.1 Build 123)  -->
  <defs>
    <style>
      .st0 {
        fill: #6e9de7;
      }

      .st1 {
        fill: #2b2b2b;
      }

      .st2 {
        fill: #ffb800;
      }

      .st3 {
        fill: #1c2760;
      }
    </style>
  </defs>
  <path class="st2" d="M106.86,126.2h-20.94c-5.56,0-10.08-4.52-10.08-10.08v-12.65c0-.31.26-.57.57-.57s.57.26.57.57v12.65c0,4.93,4.01,8.94,8.94,8.94h20.94c.31,0,.57.26.57.57s-.26.57-.57.57Z"/>
  <g>
    <path class="st1" d="M11.18,78.51s-.04.06-.07.08c-.02.02-.06.03-.1.03-.04,0-.09-.02-.14-.06-.05-.04-.12-.08-.2-.13-.08-.05-.18-.09-.29-.13s-.25-.06-.4-.06-.28.02-.39.06c-.11.04-.21.09-.28.16s-.13.15-.17.24c-.04.09-.06.19-.06.3,0,.14.03.25.1.34s.16.17.27.23c.11.06.24.12.38.17s.29.1.44.15c.15.05.3.11.44.17.14.06.27.15.38.25s.2.22.27.36c.07.14.1.32.1.53,0,.22-.04.43-.11.62-.08.19-.19.36-.33.5-.14.14-.32.26-.53.34-.21.08-.45.12-.72.12-.16,0-.32-.02-.47-.05-.15-.03-.29-.08-.43-.13-.13-.06-.26-.13-.38-.21-.12-.08-.22-.17-.32-.27l.21-.34s.04-.05.07-.07.06-.03.1-.03c.05,0,.11.03.17.08.06.05.14.11.24.17.09.06.21.12.34.17.13.05.29.08.48.08.16,0,.3-.02.42-.06.12-.04.23-.1.31-.18.09-.08.15-.17.19-.28.04-.11.07-.23.07-.36,0-.15-.03-.27-.1-.37s-.16-.17-.27-.24c-.11-.06-.24-.12-.38-.16s-.29-.09-.44-.14c-.15-.05-.3-.1-.44-.17-.14-.06-.27-.15-.38-.25-.11-.1-.2-.23-.27-.38-.07-.15-.1-.34-.1-.56,0-.18.03-.35.1-.52.07-.17.17-.32.3-.44.13-.13.3-.23.49-.31.19-.08.42-.12.67-.12.28,0,.54.04.78.13s.44.22.61.39l-.18.35Z"/>
    <path class="st1" d="M16.17,77.7v.61h-1.61v4.42h-.72v-4.42h-1.61v-.61h3.94Z"/>
    <path class="st1" d="M20.88,82.72h-.56c-.06,0-.11-.02-.15-.05-.04-.03-.07-.07-.09-.12l-.45-1.18h-2.23l-.45,1.18s-.04.08-.09.12c-.04.03-.1.05-.16.05h-.56l2-5.02h.73l2.01,5.02ZM17.59,80.85h1.83l-.76-1.98c-.03-.06-.05-.14-.08-.22-.03-.08-.05-.17-.08-.27-.03.1-.05.19-.08.27-.03.08-.05.16-.08.22l-.76,1.97Z"/>
    <path class="st1" d="M22.59,80.65v2.07h-.72v-5.02h1.44c.32,0,.6.03.83.1s.43.16.58.28c.15.12.27.27.34.44.07.17.11.37.11.58,0,.18-.03.34-.08.5-.05.15-.13.29-.24.41-.1.12-.23.23-.38.32-.15.09-.32.16-.51.2.09.05.17.13.23.23l1.43,1.97h-.64c-.13,0-.23-.05-.29-.15l-1.26-1.76c-.04-.06-.08-.1-.13-.12s-.12-.04-.21-.04h-.5ZM22.59,80.12h.69c.19,0,.36-.02.51-.07s.27-.11.37-.2c.1-.09.17-.19.22-.31.05-.12.08-.25.08-.39,0-.29-.1-.51-.29-.66-.19-.15-.48-.22-.86-.22h-.72v1.85Z"/>
    <path class="st1" d="M29.88,77.7v.61h-1.61v4.42h-.72v-4.42h-1.61v-.61h3.94Z"/>
  </g>
  <g>
    <path class="st1" d="M69.43,75.65c0,.38-.06.72-.18,1.03-.12.31-.29.57-.51.79-.22.22-.48.39-.79.51-.31.12-.64.18-1.02.18h-1.88v-5.02h1.88c.37,0,.71.06,1.02.18.31.12.57.29.79.51.22.22.39.48.51.79.12.31.18.65.18,1.02ZM68.7,75.65c0-.3-.04-.57-.12-.81-.08-.24-.2-.44-.35-.61-.15-.16-.34-.29-.55-.38s-.46-.13-.72-.13h-1.16v3.85h1.16c.27,0,.51-.04.72-.13s.4-.21.55-.38c.15-.17.27-.37.35-.61.08-.24.12-.51.12-.81Z"/>
    <path class="st1" d="M73.85,73.14v.59h-2.38v1.62h1.92v.57h-1.92v1.66h2.39v.59h-3.11v-5.02h3.11Z"/>
    <path class="st1" d="M78.53,77.1s.07.02.1.05l.29.31c-.21.24-.46.43-.75.56s-.65.2-1.06.2c-.36,0-.69-.06-.99-.19-.3-.13-.55-.3-.76-.53-.21-.23-.37-.5-.48-.81s-.17-.66-.17-1.04.06-.72.18-1.04c.12-.32.29-.59.5-.81.22-.23.48-.4.78-.53.3-.13.64-.19,1-.19s.67.06.95.17.52.27.72.47l-.24.34s-.04.04-.06.06c-.02.02-.05.02-.09.02-.04,0-.1-.02-.16-.07-.06-.04-.14-.09-.24-.15-.1-.05-.22-.1-.36-.15-.15-.04-.32-.07-.54-.07-.25,0-.48.04-.69.13-.21.09-.39.22-.54.38-.15.17-.27.37-.35.61-.08.24-.13.51-.13.82s.04.58.13.82c.09.24.21.44.36.61s.33.29.54.38c.21.09.43.13.67.13.15,0,.28,0,.4-.03s.22-.04.32-.08c.1-.04.19-.08.28-.14.09-.06.17-.12.26-.2.02-.02.04-.03.06-.04.02-.01.04-.02.06-.02Z"/>
    <path class="st1" d="M80.76,78.17h-.72v-5.02h.72v5.02Z"/>
    <path class="st1" d="M84.96,73.95s-.04.06-.07.08c-.02.02-.06.03-.1.03-.04,0-.09-.02-.14-.06-.05-.04-.12-.08-.2-.13-.08-.05-.18-.09-.29-.13-.11-.04-.25-.06-.4-.06s-.28.02-.39.06-.21.09-.28.16c-.08.07-.13.15-.17.24-.04.09-.06.19-.06.3,0,.14.03.25.1.34s.16.17.27.23.24.12.38.17c.14.05.29.1.44.15.15.05.3.11.44.17s.27.15.38.25c.11.1.2.22.27.36.07.14.1.32.1.53,0,.22-.04.43-.11.62-.08.19-.19.36-.33.5-.14.14-.32.26-.53.34-.21.08-.45.12-.72.12-.16,0-.32-.02-.47-.05-.15-.03-.29-.08-.43-.13-.13-.06-.26-.13-.38-.21-.12-.08-.22-.17-.32-.27l.21-.34s.04-.05.07-.07c.03-.02.06-.03.1-.03.05,0,.11.03.17.08s.14.11.24.17c.09.06.21.12.34.17s.29.08.48.08c.16,0,.3-.02.42-.06.12-.04.23-.1.31-.18.09-.08.15-.17.19-.28.04-.11.07-.23.07-.36,0-.15-.03-.27-.1-.37s-.16-.17-.27-.24c-.11-.06-.24-.12-.38-.16-.14-.04-.29-.09-.44-.14-.15-.05-.3-.1-.44-.17-.14-.06-.27-.15-.38-.25-.11-.1-.2-.23-.27-.38-.07-.15-.1-.34-.1-.56,0-.18.04-.35.11-.52.07-.17.17-.32.3-.44.13-.13.3-.23.49-.31.19-.08.42-.12.67-.12.28,0,.54.04.77.13s.44.22.61.39l-.18.35Z"/>
    <path class="st1" d="M87.25,78.17h-.72v-5.02h.72v5.02Z"/>
    <path class="st1" d="M93.52,75.65c0,.38-.06.72-.18,1.04s-.29.59-.51.81c-.22.23-.48.4-.78.53-.31.13-.64.19-1.02.19s-.71-.06-1.01-.19c-.3-.13-.57-.3-.79-.53-.22-.23-.39-.5-.51-.81s-.18-.66-.18-1.04.06-.72.18-1.03.29-.59.51-.81c.22-.23.48-.4.79-.53.3-.13.64-.19,1.01-.19s.71.06,1.02.19c.31.13.57.3.78.53.22.23.39.5.51.81s.18.66.18,1.03ZM92.78,75.65c0-.3-.04-.57-.12-.81-.08-.24-.2-.44-.35-.61-.15-.17-.34-.29-.55-.38-.21-.09-.45-.13-.72-.13s-.51.04-.72.13c-.22.09-.4.22-.55.38-.15.17-.27.37-.35.61-.08.24-.12.51-.12.81s.04.58.12.82c.08.24.2.44.35.61.15.17.34.29.55.38.22.09.46.13.72.13s.51-.04.72-.13c.22-.09.4-.22.55-.38.15-.17.27-.37.35-.61.08-.24.12-.51.12-.82Z"/>
    <path class="st1" d="M95.33,73.17s.07.05.11.1l2.86,3.71c0-.06,0-.13-.01-.19,0-.06,0-.12,0-.18v-3.47h.63v5.02h-.36c-.06,0-.1,0-.14-.03s-.08-.05-.11-.1l-2.86-3.71c0,.06,0,.12.01.18,0,.06,0,.11,0,.17v3.49h-.63v-5.02h.37c.06,0,.11,0,.14.02Z"/>
    <path class="st1" d="M71.98,84.99v1.86h-.72v-5.02h1.51c.32,0,.6.04.84.11.24.07.43.18.59.32.16.14.27.3.35.49.08.19.12.41.12.64s-.04.45-.12.65-.2.36-.36.51-.36.25-.59.33c-.23.08-.51.12-.81.12h-.79ZM71.98,84.41h.79c.19,0,.36-.03.5-.08.15-.05.27-.12.37-.21s.17-.2.22-.32c.05-.13.08-.26.08-.42s-.02-.3-.07-.42c-.05-.12-.12-.23-.22-.31-.1-.09-.22-.15-.36-.2-.15-.05-.32-.07-.51-.07h-.79v2.02Z"/>
    <path class="st1" d="M80.5,84.33c0,.38-.06.72-.18,1.04s-.29.59-.51.81c-.22.23-.48.4-.78.53-.31.13-.64.19-1.02.19s-.71-.06-1.01-.19c-.3-.13-.57-.3-.79-.53-.22-.23-.39-.5-.51-.81s-.18-.66-.18-1.04.06-.72.18-1.03.29-.59.51-.81c.22-.23.48-.4.79-.53.3-.13.64-.19,1.01-.19s.71.06,1.02.19c.31.13.57.3.78.53.22.23.39.5.51.81s.18.66.18,1.03ZM79.76,84.33c0-.3-.04-.57-.12-.81-.08-.24-.2-.44-.35-.61-.15-.17-.34-.29-.55-.38-.21-.09-.45-.13-.72-.13s-.51.04-.72.13c-.22.09-.4.22-.55.38-.15.17-.27.37-.35.61-.08.24-.12.51-.12.81s.04.58.12.82c.08.24.2.44.35.61.15.17.34.29.55.38.22.09.46.13.72.13s.51-.04.72-.13c.22-.09.4-.22.55-.38.15-.17.27-.37.35-.61.08-.24.12-.51.12-.82Z"/>
    <path class="st1" d="M82.52,86.85h-.72v-5.02h.72v5.02Z"/>
    <path class="st1" d="M84.64,81.85s.07.05.11.1l2.86,3.71c0-.06,0-.13-.01-.19,0-.06,0-.12,0-.18v-3.47h.63v5.02h-.36c-.06,0-.1,0-.14-.03s-.08-.05-.11-.1l-2.86-3.71c0,.06,0,.12.01.18,0,.06,0,.11,0,.17v3.49h-.63v-5.02h.37c.06,0,.11,0,.14.02Z"/>
    <path class="st1" d="M93.25,81.82v.61h-1.61v4.42h-.72v-4.42h-1.61v-.61h3.94Z"/>
  </g>
  <g>
    <path class="st1" d="M131.98,116.34c0,.38-.06.72-.18,1.04-.12.32-.29.59-.51.81-.22.23-.48.4-.78.53-.31.13-.64.19-1.02.19s-.71-.06-1.01-.19c-.3-.13-.57-.3-.79-.53-.22-.23-.39-.5-.51-.81-.12-.32-.18-.66-.18-1.04s.06-.72.18-1.03c.12-.32.29-.59.51-.81.22-.23.48-.4.79-.53.3-.13.64-.19,1.01-.19s.71.06,1.02.19c.31.13.57.3.78.53.22.23.39.5.51.81.12.32.18.66.18,1.03ZM131.24,116.34c0-.3-.04-.57-.12-.81-.08-.24-.2-.44-.35-.61-.15-.17-.34-.29-.55-.38-.21-.09-.46-.13-.72-.13s-.51.04-.72.13c-.22.09-.4.22-.55.38-.15.17-.27.37-.35.61-.08.24-.12.51-.12.81s.04.58.12.82c.08.24.2.44.35.61.15.17.34.29.55.38.22.09.46.13.72.13s.51-.04.72-.13.4-.22.55-.38c.15-.17.27-.37.35-.61.08-.24.12-.51.12-.82Z"/>
    <path class="st1" d="M134,116.99v1.86h-.72v-5.02h1.51c.32,0,.6.04.83.11s.43.18.59.32c.15.14.27.3.35.49.08.19.12.41.12.64s-.04.45-.12.65c-.08.19-.2.36-.36.51s-.36.25-.59.33c-.23.08-.51.12-.81.12h-.79ZM134,116.42h.79c.19,0,.36-.03.5-.08.15-.05.27-.12.37-.21.1-.09.17-.2.22-.32.05-.13.08-.26.08-.42s-.02-.3-.07-.42c-.05-.12-.12-.23-.22-.31s-.22-.15-.36-.2-.32-.07-.51-.07h-.79v2.02Z"/>
    <path class="st1" d="M141.27,113.83v.61h-1.61v4.42h-.72v-4.42h-1.61v-.61h3.94Z"/>
    <path class="st1" d="M143.07,118.85h-.72v-5.02h.72v5.02Z"/>
    <path class="st1" d="M149.34,116.34c0,.38-.06.72-.18,1.04-.12.32-.29.59-.51.81-.22.23-.48.4-.78.53-.31.13-.64.19-1.02.19s-.71-.06-1.01-.19c-.3-.13-.57-.3-.79-.53-.22-.23-.39-.5-.51-.81-.12-.32-.18-.66-.18-1.04s.06-.72.18-1.03c.12-.32.29-.59.51-.81.22-.23.48-.4.79-.53.3-.13.64-.19,1.01-.19s.71.06,1.02.19c.31.13.57.3.78.53.22.23.39.5.51.81.12.32.18.66.18,1.03ZM148.6,116.34c0-.3-.04-.57-.12-.81-.08-.24-.2-.44-.35-.61-.15-.17-.34-.29-.55-.38-.21-.09-.46-.13-.72-.13s-.51.04-.72.13c-.22.09-.4.22-.55.38-.15.17-.27.37-.35.61-.08.24-.12.51-.12.81s.04.58.12.82c.08.24.2.44.35.61.15.17.34.29.55.38.22.09.46.13.72.13s.51-.04.72-.13.4-.22.55-.38c.15-.17.27-.37.35-.61.08-.24.12-.51.12-.82Z"/>
    <path class="st1" d="M151.15,113.85s.07.05.11.1l2.86,3.71c0-.06,0-.13-.01-.19,0-.06,0-.12,0-.18v-3.47h.63v5.02h-.36c-.06,0-.1,0-.14-.03s-.08-.05-.11-.1l-2.86-3.71c0,.06,0,.12.01.18,0,.06,0,.11,0,.17v3.49h-.63v-5.02h.37c.06,0,.11,0,.14.02Z"/>
    <path class="st1" d="M139.38,127.53v-5.02h1.62c.31,0,.58.03.81.09s.41.15.55.26.25.25.32.41.1.35.1.55c0,.12-.02.24-.06.35-.04.11-.1.22-.17.32-.08.1-.17.18-.29.26-.12.08-.25.14-.41.19.36.07.64.2.82.4.19.19.28.44.28.75,0,.21-.04.41-.12.59-.08.18-.19.33-.35.45-.15.13-.34.22-.56.29-.22.07-.47.11-.75.11h-1.8ZM140.1,124.74h.87c.19,0,.35-.02.49-.06.14-.04.25-.1.34-.17.09-.07.16-.16.2-.26.04-.1.07-.22.07-.34,0-.29-.09-.5-.26-.64-.17-.13-.44-.2-.8-.2h-.9v1.67ZM140.1,125.25v1.7h1.06c.19,0,.35-.02.49-.07s.25-.11.33-.18c.09-.08.15-.17.19-.28.04-.11.06-.23.06-.35,0-.25-.09-.45-.27-.6-.18-.15-.45-.22-.81-.22h-1.06Z"/>
  </g>
  <g>
    <path class="st1" d="M131.98,38.64c0,.38-.06.72-.18,1.04-.12.32-.29.59-.51.81-.22.23-.48.4-.78.53-.31.13-.64.19-1.02.19s-.71-.06-1.01-.19c-.3-.13-.57-.3-.79-.53-.22-.23-.39-.5-.51-.81-.12-.32-.18-.66-.18-1.04s.06-.72.18-1.03c.12-.32.29-.59.51-.81.22-.23.48-.4.79-.53.3-.13.64-.19,1.01-.19s.71.06,1.02.19c.31.13.57.3.78.53.22.23.39.5.51.81.12.32.18.66.18,1.03ZM131.24,38.64c0-.3-.04-.57-.12-.81-.08-.24-.2-.44-.35-.61-.15-.17-.34-.29-.55-.38-.21-.09-.46-.13-.72-.13s-.51.04-.72.13c-.22.09-.4.22-.55.38-.15.17-.27.37-.35.61-.08.24-.12.51-.12.81s.04.58.12.82c.08.24.2.44.35.61.15.17.34.29.55.38.22.09.46.13.72.13s.51-.04.72-.13.4-.22.55-.38c.15-.17.27-.37.35-.61.08-.24.12-.51.12-.82Z"/>
    <path class="st1" d="M134,39.29v1.86h-.72v-5.02h1.51c.32,0,.6.04.83.11s.43.18.59.32c.15.14.27.3.35.49.08.19.12.41.12.64s-.04.45-.12.65c-.08.19-.2.36-.36.51s-.36.25-.59.33c-.23.08-.51.12-.81.12h-.79ZM134,38.72h.79c.19,0,.36-.03.5-.08.15-.05.27-.12.37-.21.1-.09.17-.2.22-.32.05-.13.08-.26.08-.42s-.02-.3-.07-.42c-.05-.12-.12-.23-.22-.31s-.22-.15-.36-.2-.32-.07-.51-.07h-.79v2.02Z"/>
    <path class="st1" d="M141.27,36.13v.61h-1.61v4.42h-.72v-4.42h-1.61v-.61h3.94Z"/>
    <path class="st1" d="M143.07,41.15h-.72v-5.02h.72v5.02Z"/>
    <path class="st1" d="M149.34,38.64c0,.38-.06.72-.18,1.04-.12.32-.29.59-.51.81-.22.23-.48.4-.78.53-.31.13-.64.19-1.02.19s-.71-.06-1.01-.19c-.3-.13-.57-.3-.79-.53-.22-.23-.39-.5-.51-.81-.12-.32-.18-.66-.18-1.04s.06-.72.18-1.03c.12-.32.29-.59.51-.81.22-.23.48-.4.79-.53.3-.13.64-.19,1.01-.19s.71.06,1.02.19c.31.13.57.3.78.53.22.23.39.5.51.81.12.32.18.66.18,1.03ZM148.6,38.64c0-.3-.04-.57-.12-.81-.08-.24-.2-.44-.35-.61-.15-.17-.34-.29-.55-.38-.21-.09-.46-.13-.72-.13s-.51.04-.72.13c-.22.09-.4.22-.55.38-.15.17-.27.37-.35.61-.08.24-.12.51-.12.81s.04.58.12.82c.08.24.2.44.35.61.15.17.34.29.55.38.22.09.46.13.72.13s.51-.04.72-.13.4-.22.55-.38c.15-.17.27-.37.35-.61.08-.24.12-.51.12-.82Z"/>
    <path class="st1" d="M151.15,36.15s.07.05.11.1l2.86,3.71c0-.06,0-.13-.01-.19,0-.06,0-.12,0-.18v-3.47h.63v5.02h-.36c-.06,0-.1,0-.14-.03s-.08-.05-.11-.1l-2.86-3.71c0,.06,0,.12.01.18,0,.06,0,.11,0,.17v3.49h-.63v-5.02h.37c.06,0,.11,0,.14.02Z"/>
    <path class="st1" d="M143.4,49.83h-.56c-.06,0-.11-.02-.15-.05-.04-.03-.07-.07-.09-.12l-.45-1.18h-2.23l-.45,1.18s-.04.08-.09.12c-.04.03-.1.05-.16.05h-.56l2-5.02h.73l2.01,5.02ZM140.11,47.96h1.83l-.76-1.98c-.03-.06-.05-.14-.08-.22-.03-.08-.05-.17-.08-.27-.03.1-.05.19-.08.27-.03.08-.05.16-.08.22l-.76,1.97Z"/>
  </g>
  <path class="st3" d="M18.97,99.2c-10.46,0-18.97-8.51-18.97-18.97s8.51-18.97,18.97-18.97,18.97,8.51,18.97,18.97-8.51,18.97-18.97,18.97ZM18.97,62.42c-9.82,0-17.81,7.99-17.81,17.81s7.99,17.81,17.81,17.81,17.81-7.99,17.81-17.81-7.99-17.81-17.81-17.81Z"/>
  <path class="st3" d="M141.03,60.12c-10.46,0-18.97-8.51-18.97-18.97s8.51-18.97,18.97-18.97,18.97,8.51,18.97,18.97-8.51,18.97-18.97,18.97ZM141.03,23.34c-9.82,0-17.81,7.99-17.81,17.81s7.99,17.81,17.81,17.81,17.81-7.99,17.81-17.81-7.99-17.81-17.81-17.81Z"/>
  <path class="st3" d="M141.03,137.82c-10.46,0-18.97-8.51-18.97-18.97s8.51-18.97,18.97-18.97,18.97,8.51,18.97,18.97-8.51,18.97-18.97,18.97ZM141.03,101.04c-9.82,0-17.81,7.99-17.81,17.81s7.99,17.81,17.81,17.81,17.81-7.99,17.81-17.81-7.99-17.81-17.81-17.81Z"/>
  <path class="st3" d="M103.48,104.1h-42.98c-1.31,0-2.38-1.07-2.38-2.37v-42.98c0-1.31,1.07-2.37,2.38-2.37h42.98c1.31,0,2.38,1.07,2.38,2.37v42.98c0,1.31-1.07,2.37-2.38,2.37ZM60.5,57.64c-.61,0-1.1.49-1.1,1.1v42.98c0,.61.49,1.1,1.1,1.1h42.98c.61,0,1.1-.49,1.1-1.1v-42.98c0-.61-.49-1.1-1.1-1.1h-42.98Z"/>
  <path class="st3" d="M81.99,57.63c-.35,0-.63-.28-.63-.63v-11.07c0-2.98,2.43-5.41,5.42-5.41h32.24c.35,0,.63.28.63.63s-.28.63-.63.63h-32.24c-2.29,0-4.16,1.86-4.16,4.14v11.07c0,.35-.28.63-.63.63Z"/>
  <path class="st3" d="M118.93,119.48h-32.15c-2.99,0-5.42-2.43-5.42-5.41v-10.61c0-.35.28-.63.63-.63s.63.28.63.63v10.61c0,2.29,1.87,4.14,4.16,4.14h32.15c.35,0,.63.28.63.63s-.28.63-.63.63Z"/>
  <path class="st3" d="M113.69,46.94c-.17,0-.33-.06-.45-.19-.24-.25-.24-.65.01-.89l4.85-4.7-4.84-4.53c-.25-.24-.27-.64-.03-.89.24-.26.64-.27.89-.03l5.33,4.98c.13.12.2.28.2.46s-.07.34-.19.46l-5.33,5.16c-.12.12-.28.18-.44.18Z"/>
  <path class="st3" d="M113.69,124.55c-.17,0-.33-.06-.45-.19-.24-.25-.24-.65.01-.89l4.85-4.7-4.84-4.53c-.25-.24-.27-.64-.03-.89.24-.26.64-.27.89-.03l5.33,4.98c.13.12.2.28.2.46,0,.17-.07.34-.19.46l-5.33,5.16c-.12.12-.28.18-.44.18Z"/>
  <path class="st3" d="M50.08,85.94c-.17,0-.33-.06-.45-.19-.24-.25-.24-.65.01-.89l4.85-4.7-4.84-4.53c-.25-.24-.27-.64-.03-.89.24-.26.64-.27.89-.03l5.33,4.98c.13.12.2.28.2.46,0,.17-.07.34-.19.46l-5.33,5.16c-.12.12-.28.18-.44.18Z"/>
  <path class="st3" d="M55.41,80.86h-18.04c-.35,0-.63-.28-.63-.63s.28-.63.63-.63h18.04c.35,0,.63.28.63.63s-.28.63-.63.63Z"/>
  <g>
    <path class="st0" d="M82.16,70.14c-.32,0-.58-.26-.58-.58v-8.43c0-.32.26-.58.58-.58s.58.26.58.58v8.43c0,.32-.26.58-.58.58Z"/>
    <path class="st0" d="M86.1,66.74c-.17,0-.34-.08-.46-.22l-3.49-4.47-3.82,4.49c-.21.24-.57.27-.82.07-.24-.21-.27-.58-.07-.82l4.27-5.03s.03-.04.05-.05c.05-.05.1-.08.16-.11.08-.04.17-.05.25-.05.08,0,.17.02.25.06.06.03.11.07.16.12.02.02.03.04.05.06l3.93,5.03c.2.25.15.62-.1.82-.11.08-.23.12-.36.12Z"/>
  </g>
  <g>
    <path class="st0" d="M81.82,99.91c-.32,0-.58-.26-.58-.58v-8.43c0-.32.26-.58.58-.58s.58.26.58.58v8.43c0,.32-.26.58-.58.58Z"/>
    <path class="st0" d="M81.82,99.91h-.01c-.09,0-.17-.02-.25-.06-.06-.03-.11-.07-.16-.12-.02-.02-.03-.04-.05-.06l-3.93-5.03c-.2-.25-.15-.62.1-.82.25-.2.62-.15.82.1l3.49,4.47,3.82-4.49c.21-.24.57-.27.82-.07.24.21.27.58.07.82l-4.27,5.03s-.03.04-.05.05c-.05.05-.1.08-.16.11-.08.03-.16.05-.24.05Z"/>
  </g>
  <circle class="st2" cx="106.86" cy="125.63" r="2.24"/>
</svg>