<?xml version="1.0" encoding="UTF-8"?>
<svg id="Ebene_1" xmlns="http://www.w3.org/2000/svg" version="1.1" viewBox="0 0 160 160">
  <!-- Generator: Adobe Illustrator 30.0.0, SVG Export Plug-In . SVG Version: 2.1.1 Build 123)  -->
  <defs>
    <style>
      .st0 {
        fill: #6e9de7;
      }

      .st1 {
        fill: #ffb800;
      }

      .st2 {
        fill: #1c2761;
      }
    </style>
  </defs>
  <path class="st0" d="M80.1,107.17c-21.49,0-41.43-9.73-54.7-26.69l-.37-.48.37-.48c13.28-16.96,33.21-26.69,54.7-26.69s41.43,9.73,54.7,26.69l.37.48-.37.48c-13.28,16.96-33.21,26.69-54.7,26.69ZM27,80c12.98,16.29,32.3,25.62,53.11,25.62s40.13-9.33,53.11-25.62c-12.98-16.29-32.3-25.62-53.11-25.62s-40.13,9.33-53.11,25.62Z"/>
  <path class="st2" d="M80.1,46.76c-.43,0-.77-.35-.77-.77V3.08l-5.97,9.7c-.22.36-.7.48-1.06.25-.36-.22-.48-.7-.25-1.06L79.44-.04c.03-.06.07-.11.12-.15.05-.05.11-.09.17-.13.05-.03.11-.05.17-.07t0,0h0c.07-.02.14-.03.21-.03h0c.07,0,.14,0,.21.03.06.02.12.04.17.07.06.03.12.08.17.13.05.05.09.1.12.15l7.39,12.01c.22.36.11.84-.25,1.06-.36.22-.84.11-1.06-.25l-5.97-9.7v42.9c0,.43-.35.77-.77.77Z"/>
  <path class="st2" d="M147.21,88.17c-.26,0-.51-.13-.66-.37-.22-.36-.11-.84.25-1.06l9.7-5.97h-15.96c-.43,0-.77-.35-.77-.77s.35-.77.77-.77h15.96l-9.7-5.97c-.36-.22-.48-.7-.25-1.06.22-.36.7-.48,1.06-.25l12.01,7.39c.06.03.11.07.16.12.05.05.09.11.13.17.03.05.05.11.07.16.02.07.03.14.03.21s0,.14-.03.21c-.02.06-.04.11-.07.17-.03.06-.08.12-.13.17-.05.05-.1.09-.15.12l-12.01,7.39c-.13.08-.27.11-.4.11Z"/>
  <path class="st2" d="M12.8,88.17c-.14,0-.28-.04-.4-.11L.38,80.67c-.06-.03-.11-.07-.15-.12-.05-.05-.09-.11-.13-.17-.03-.05-.05-.11-.07-.17-.02-.07-.03-.14-.03-.21s0-.14.03-.21c.02-.06.04-.11.07-.16.03-.06.08-.12.13-.17.05-.05.1-.09.16-.12l12.01-7.39c.36-.22.84-.11,1.06.25.22.36.11.84-.25,1.06l-9.7,5.97h15.96c.43,0,.77.35.77.77s-.35.77-.77.77H3.5l9.7,5.97c.36.22.48.7.25,1.06-.15.24-.4.37-.66.37Z"/>
  <path class="st2" d="M107.27,52.72c-.2,0-.4-.08-.55-.23-.3-.3-.3-.79,0-1.09l26.13-25.99-11.08,2.61c-.41.1-.83-.16-.93-.58-.1-.42.16-.83.58-.93l13.73-3.23c.06-.02.16-.02.19-.02.07,0,.14.01.21.03.06.02.12.04.17.07.06.03.11.08.16.12.05.05.1.11.14.18.03.05.05.11.07.16.02.07.03.14.03.21,0,.07,0,.13-.03.19l-3.3,13.71c-.1.42-.52.67-.93.57-.41-.1-.67-.52-.57-.93l2.66-11.07-26.13,25.99c-.15.15-.35.22-.55.22Z"/>
  <path class="st2" d="M52.52,52.72c-.2,0-.39-.07-.55-.22l-26.13-25.99,2.66,11.07c.1.41-.16.83-.57.93-.41.1-.83-.16-.93-.57l-3.3-13.71c-.02-.06-.03-.13-.03-.19,0-.07,0-.14.03-.21.02-.06.04-.12.07-.17.03-.06.07-.11.12-.16.05-.05.11-.1.17-.13.05-.03.11-.05.17-.07.07-.02.14-.03.21-.03h0c.07,0,.13,0,.19.02l13.73,3.23c.42.1.67.51.58.93-.1.42-.51.67-.93.58l-11.08-2.61,26.13,25.99c.3.3.3.79,0,1.09-.15.15-.35.23-.55.23Z"/>
  <path class="st2" d="M135.34,136.74c-.07,0-.13,0-.19-.02l-13.73-3.23c-.42-.1-.67-.51-.58-.93.1-.42.51-.67.93-.58l11.08,2.61-26.13-25.99c-.3-.3-.3-.79,0-1.09.3-.3.79-.3,1.09,0l26.13,25.99-2.66-11.07c-.1-.42.16-.83.57-.93s.83.15.93.57l3.3,13.71c.02.06.03.13.03.19,0,.07,0,.14-.03.21-.02.06-.04.12-.07.17-.03.06-.07.11-.12.16-.05.05-.11.1-.18.13-.05.03-.11.05-.16.07-.07.02-.14.03-.21.03h0Z"/>
  <path class="st2" d="M24.46,136.74c-.1-.01-.14,0-.21-.03-.06-.02-.11-.04-.17-.07-.06-.04-.12-.08-.17-.13-.05-.05-.09-.11-.13-.17-.03-.05-.05-.11-.07-.17-.02-.07-.03-.14-.03-.21,0-.07,0-.13.03-.2l3.3-13.71c.1-.41.52-.67.93-.57.42.1.67.52.57.93l-2.66,11.07,26.13-25.99c.3-.3.79-.3,1.09,0,.3.3.3.79,0,1.09l-26.13,25.99,11.08-2.61c.42-.09.83.16.93.58s-.16.83-.58.93l-13.73,3.23c-.06.02-.13.02-.19.02Z"/>
  <path class="st2" d="M80.1,160.42c-.07,0-.14,0-.21-.03-.06-.02-.11-.04-.16-.07-.06-.04-.12-.08-.18-.13-.05-.05-.08-.1-.12-.15l-7.39-12.01c-.22-.36-.11-.84.25-1.06.36-.22.84-.11,1.06.25l5.97,9.7v-42.9c0-.43.35-.77.77-.77s.77.35.77.77v42.9l5.97-9.7c.22-.36.7-.48,1.06-.25.36.22.48.7.25,1.06l-7.39,12.01c-.03.06-.07.11-.12.16-.05.05-.11.09-.16.13-.06.03-.12.06-.18.07h0c-.07.02-.13.03-.2.03h0Z"/>
  <g>
    <path class="st2" d="M103.74,22.52c-.1,0-.2-.02-.3-.06-.39-.17-.58-.62-.41-1.01l1.76-4.15c.17-.39.62-.58,1.01-.41.39.17.58.62.41,1.01l-1.76,4.15c-.13.29-.41.47-.71.47Z"/>
    <path class="st2" d="M93.01,47.91c-.1,0-.2-.02-.3-.06-.39-.17-.58-.62-.41-1.01l9.26-21.92c.17-.39.62-.58,1.01-.41.39.17.58.62.41,1.01l-9.26,21.92c-.12.29-.41.47-.71.47Z"/>
  </g>
  <g>
    <path class="st2" d="M55.85,22.52c-.3,0-.59-.18-.71-.47l-1.76-4.15c-.17-.39.02-.85.41-1.01.39-.17.85.02,1.01.41l1.76,4.15c.17.39-.02.85-.41,1.01-.1.04-.2.06-.3.06Z"/>
    <path class="st2" d="M66.57,47.91c-.3,0-.59-.18-.71-.47l-9.26-21.92c-.17-.39.02-.85.41-1.01.39-.17.85.02,1.01.41l9.26,21.92c.17.39-.02.85-.41,1.01-.1.04-.2.06-.3.06Z"/>
  </g>
  <g>
    <path class="st2" d="M105.5,143.18c-.3,0-.59-.18-.71-.47l-1.76-4.15c-.17-.39.02-.85.41-1.01.39-.16.85.02,1.01.41l1.76,4.15c.17.39-.02.85-.41,1.01-.1.04-.2.06-.3.06Z"/>
    <path class="st2" d="M102.27,135.55c-.3,0-.59-.18-.71-.47l-9.26-21.92c-.17-.39.02-.85.41-1.01.39-.17.85.02,1.01.41l9.26,21.92c.17.39-.02.85-.41,1.01-.1.04-.2.06-.3.06Z"/>
  </g>
  <g>
    <path class="st2" d="M54.09,143.18c-.1,0-.2-.02-.3-.06-.39-.17-.58-.62-.41-1.01l1.76-4.15c.17-.39.62-.58,1.01-.41.39.17.58.62.41,1.01l-1.76,4.15c-.13.29-.41.47-.71.47Z"/>
    <path class="st2" d="M57.31,135.55c-.1,0-.2-.02-.3-.06-.39-.17-.58-.62-.41-1.01l9.26-21.92c.17-.39.62-.58,1.01-.41.39.17.58.62.41,1.01l-9.26,21.92c-.12.29-.41.47-.71.47Z"/>
  </g>
  <path class="st2" d="M35.57,61.86c-.09,0-.19-.02-.28-.05l-19.37-7.48c-.4-.15-.6-.6-.44-1,.15-.4.6-.6,1-.44l19.37,7.48c.4.15.6.6.44,1-.12.31-.41.49-.72.49Z"/>
  <path class="st2" d="M124.01,61.86c-.31,0-.6-.19-.72-.49-.15-.4.04-.85.44-1l19.37-7.48c.4-.15.85.04,1,.44.15.4-.04.85-.44,1l-19.37,7.48c-.09.04-.19.05-.28.05Z"/>
  <path class="st2" d="M16.2,107.17c-.31,0-.6-.19-.72-.49-.15-.4.04-.85.44-1l19.37-7.48c.4-.15.84.04,1,.44.15.4-.04.85-.44,1l-19.37,7.48c-.09.04-.19.05-.28.05Z"/>
  <path class="st2" d="M143.37,107.17c-.09,0-.19-.02-.28-.05l-19.37-7.48c-.4-.15-.6-.6-.44-1,.15-.4.6-.59,1-.44l19.37,7.48c.4.15.6.6.44,1-.12.31-.41.49-.72.49Z"/>
  <path class="st0" d="M80.1,107.25c-15.02,0-27.24-12.22-27.24-27.24s12.22-27.25,27.24-27.25,27.25,12.22,27.25,27.25-12.22,27.24-27.25,27.24ZM80.1,54.5c-14.06,0-25.5,11.44-25.5,25.5s11.44,25.5,25.5,25.5,25.5-11.44,25.5-25.5-11.44-25.5-25.5-25.5Z"/>
  <path class="st1" d="M92.02,74.39c-.75,2.16-2.81,3.73-5.23,3.73-3.05,0-5.53-2.48-5.53-5.53,0-2.23,1.31-4.15,3.21-5.02-1.36-.49-2.83-.75-4.36-.75-7.27,0-13.18,5.89-13.18,13.17s5.91,13.18,13.18,13.18,13.17-5.91,13.17-13.18c0-2.01-.45-3.91-1.26-5.6Z"/>
</svg>