<?xml version="1.0" encoding="UTF-8"?>
<svg id="Ebene_1" xmlns="http://www.w3.org/2000/svg" version="1.1" viewBox="0 0 160 160">
  <!-- Generator: Adobe Illustrator 30.0.0, SVG Export Plug-In . SVG Version: 2.1.1 Build 123)  -->
  <defs>
    <style>
      .st0 {
        fill: #6e9de7;
      }

      .st1 {
        fill: #2b2b2b;
      }

      .st2 {
        fill: #ffb800;
      }

      .st3 {
        fill: #1e3a8a;
      }

      .st4 {
        fill: #1c2761;
      }

      .st5 {
        fill: #1c2760;
      }
    </style>
  </defs>
  <path class="st4" d="M156.24,135.67H3.76c-2.07,0-3.76-1.69-3.76-3.76V28.1c0-2.07,1.69-3.76,3.76-3.76h152.48c2.07,0,3.76,1.69,3.76,3.76v103.81c0,2.07-1.69,3.76-3.76,3.76ZM3.76,26.56c-.85,0-1.54.69-1.54,1.54v103.81c0,.85.69,1.54,1.54,1.54h152.48c.85,0,1.54-.69,1.54-1.54V28.1c0-.85-.69-1.54-1.54-1.54H3.76Z"/>
  <circle class="st3" cx="29.5" cy="60.92" r="13.8"/>
  <circle class="st0" cx="129.6" cy="60.92" r="13.8"/>
  <circle class="st5" cx="29.5" cy="98.89" r="13.8"/>
  <circle class="st2" cx="129.6" cy="98.89" r="13.8"/>
  <path class="st1" d="M114.95,48.11c-.12,0-.24-.04-.35-.12-5.82-4.65-18.16-12.42-35.42-12.22-15.15.18-26.34,6.49-32.3,10.85l6.47.17c.31,0,.55.26.54.57,0,.31-.26.53-.57.54l-8.05-.21h0l-.75-.02.24-.71s0-.01,0-.02l2.61-7.73c.1-.29.41-.45.7-.35.29.1.45.41.35.7l-2.04,6.04c6.11-4.44,17.47-10.77,32.78-10.95,17.6-.23,30.19,7.72,36.13,12.46.24.19.28.54.09.78-.11.14-.27.21-.43.21Z"/>
  <path class="st1" d="M80.37,125.1c-17.25,0-29.58-7.78-35.43-12.47-.24-.19-.28-.54-.09-.78.19-.24.54-.28.78-.09,5.82,4.65,18.17,12.39,35.42,12.22,15.14-.18,26.34-6.49,32.3-10.85l-6.47-.17c-.31,0-.55-.26-.54-.57,0-.31.26-.54.57-.54l8.05.21h0l.75.02-.24.71s0,.01,0,.02l-2.61,7.73c-.1.29-.41.45-.7.35-.29-.1-.45-.41-.35-.7l2.04-6.04c-6.11,4.44-17.47,10.77-32.78,10.95-.23,0-.46,0-.69,0Z"/>
  <path class="st1" d="M49.83,98.27c-.46,0-.86-.02-1.21-.05-.31-.03-.53-.3-.5-.61.03-.31.29-.53.61-.5,4.53.45,19.93-1.8,30.81-17.42,11-15.8,22.4-17.16,29.95-18.06l.63-.08c.3-.03.58.18.62.48.04.3-.18.58-.49.62l-.63.08c-7.35.88-18.45,2.2-29.17,17.59-10.36,14.89-24.82,17.95-30.62,17.95Z"/>
  <path class="st1" d="M48.68,98.22c-.13,0-.26-.04-.37-.14-.23-.2-.26-.55-.05-.78l4.65-5.33c.2-.23.55-.26.78-.05.23.2.26.55.05.78l-4.65,5.33c-.11.13-.26.19-.42.19Z"/>
  <path class="st1" d="M54.27,102.22c-.11,0-.23-.03-.32-.1l-5.59-4c-.25-.18-.31-.53-.13-.78.18-.25.53-.31.78-.13l5.59,4c.25.18.31.53.13.78-.11.15-.28.23-.45.23Z"/>
</svg>