<?xml version="1.0" encoding="UTF-8"?>
<svg id="Ebene_1" xmlns="http://www.w3.org/2000/svg" version="1.1" viewBox="0 0 200 200">
  <!-- Generator: Adobe Illustrator 30.0.0, SVG Export Plug-In . SVG Version: 2.1.1 Build 123)  -->
  <defs>
    <style>
      .st0 {
        fill: #6e9de7;
      }
    </style>
  </defs>
  <path class="st0" d="M102.33,200h-2.33C44.86,200,0,155.14,0,100S44.86,0,100,0s100,40.67,100,90.67c0,29.42-23.94,53.36-53.35,53.36h-20.99c-5.31,0-9.62,4.31-9.62,9.62,0,2.07.68,4.11,1.92,5.77l2.8,3.74c7.62,10.16,5.55,24.62-4.6,32.25-3.96,2.97-8.87,4.61-13.82,4.61ZM100,13.41C52.25,13.41,13.41,52.25,13.41,100s38.84,86.59,86.59,86.59h2.33c2.07,0,4.12-.68,5.77-1.92,4.24-3.18,5.11-9.23,1.92-13.48l-2.8-3.73c-2.97-3.96-4.61-8.87-4.61-13.81,0-12.7,10.33-23.03,23.04-23.03h20.99c22.03,0,39.94-17.91,39.94-39.94,0-42.6-38.84-77.26-86.59-77.26Z"/>
  <path class="st0" d="M113.99,60.06c-6.27,0-11.37-5.1-11.37-11.37s5.1-11.37,11.37-11.37,11.37,5.1,11.37,11.37-5.1,11.37-11.37,11.37ZM113.99,46.65c-1.13,0-2.04.92-2.04,2.04s.92,2.04,2.04,2.04,2.04-.91,2.04-2.04-.92-2.04-2.04-2.04Z"/>
  <path class="st0" d="M151.31,97.37c-6.27,0-11.37-5.1-11.37-11.37s5.1-11.37,11.37-11.37,11.37,5.1,11.37,11.37-5.1,11.37-11.37,11.37ZM151.31,83.96c-1.13,0-2.04.92-2.04,2.04s.92,2.04,2.04,2.04,2.04-.91,2.04-2.04-.92-2.04-2.04-2.04Z"/>
  <path class="st0" d="M48.69,116.03c-6.27,0-11.37-5.1-11.37-11.37s5.1-11.37,11.37-11.37,11.37,5.1,11.37,11.37-5.1,11.37-11.37,11.37ZM48.69,102.62c-1.12,0-2.04.92-2.04,2.04s.92,2.04,2.04,2.04,2.04-.92,2.04-2.04-.91-2.04-2.04-2.04Z"/>
  <path class="st0" d="M67.35,69.39c-6.27,0-11.37-5.1-11.37-11.37s5.1-11.37,11.37-11.37,11.37,5.1,11.37,11.37-5.1,11.37-11.37,11.37ZM67.35,55.98c-1.12,0-2.04.91-2.04,2.04s.91,2.04,2.04,2.04,2.04-.92,2.04-2.04-.92-2.04-2.04-2.04Z"/>
</svg>