<?xml version="1.0" encoding="UTF-8"?>
<svg id="Ebene_1" xmlns="http://www.w3.org/2000/svg" version="1.1" viewBox="0 0 200 200">
  <!-- Generator: Adobe Illustrator 30.0.0, SVG Export Plug-In . SVG Version: 2.1.1 Build 123)  -->
  <defs>
    <style>
      .st0 {
        fill: #c1272d;
      }
    </style>
  </defs>
  <path class="st0" d="M100,200c-41.41,0-75.11-33.69-75.11-75.11,0-11.87,3.92-23.63,11.04-33.12,1.4-1.86,3.83-2.62,6.04-1.89,2.21.74,3.7,2.8,3.7,5.13,0,10.74,8.74,19.48,19.48,19.48s19.48-8.74,19.48-19.48c0-8.68-3.35-15.38-6.9-22.47-3.95-7.9-8.04-16.08-8.04-27.31,0-14.94,9.06-29.76,26.92-44.05,1.44-1.15,3.36-1.49,5.11-.9,1.75.59,3.07,2.03,3.52,3.81,6.32,25.29,19.12,46.11,38.04,61.88,21.11,17.59,31.82,37.42,31.82,58.92,0,41.41-33.69,75.11-75.11,75.11ZM38.5,109.44c-1.83,4.93-2.79,10.18-2.79,15.46,0,35.45,28.84,64.29,64.29,64.29s64.29-28.84,64.29-64.29c0-18.4-9.13-34.95-27.93-50.61-18.59-15.5-31.78-35.4-39.27-59.24-11.01,10.28-16.58,20.42-16.58,30.19,0,8.68,3.35,15.38,6.9,22.47,3.95,7.9,8.04,16.08,8.04,27.31,0,16.71-13.59,30.3-30.3,30.3-11.49,0-21.51-6.43-26.65-15.89Z"/>
</svg>