<?xml version="1.0" encoding="UTF-8"?>
<svg id="Ebene_1" xmlns="http://www.w3.org/2000/svg" version="1.1" viewBox="0 0 200 200">
  <!-- Generator: Adobe Illustrator 30.0.0, SVG Export Plug-In . SVG Version: 2.1.1 Build 123)  -->
  <defs>
    <style>
      .st0 {
        fill: #f9b50f;
      }
    </style>
  </defs>
  <path class="st0" d="M24.91,200c-3.39,0-6.14-2.75-6.14-6.14V24.91c0-4.86,2.32-9.5,6.21-12.42C35.72,4.44,49.03,0,62.46,0c16.23,0,29.52,5.72,41.24,10.77,9.98,4.3,18.59,8,27.59,8,11.1,0,19.55-2.11,25.1-6.28,3.32-2.49,7.4-3.53,11.51-2.95,4.1.59,7.74,2.74,10.22,6.05,2,2.67,3.1,5.98,3.1,9.31v93.86c0,4.86-2.32,9.5-6.2,12.41-10.75,8.06-24.05,12.49-37.48,12.49-15.26,0-27.75-4.99-39.82-9.83-11.5-4.6-22.37-8.94-35.26-8.94-11.46,0-22.52,3.9-31.41,11.04v57.91c0,3.39-2.75,6.14-6.14,6.14ZM62.46,112.64c15.26,0,27.75,4.99,39.82,9.82,11.5,4.6,22.37,8.95,35.27,8.95,10.79,0,21.48-3.57,30.11-10.04.81-.61,1.3-1.58,1.3-2.6V24.91c0-.7-.23-1.39-.65-1.95-.52-.69-1.28-1.14-2.14-1.26-.85-.13-1.72.1-2.41.62-7.73,5.79-18.65,8.73-32.47,8.73-11.53,0-21.68-4.37-32.44-9-11.16-4.8-22.69-9.77-36.39-9.77-10.79,0-21.48,3.57-30.11,10.04-.81.61-1.3,1.58-1.3,2.6v96.19c9.47-5.51,20.28-8.47,31.41-8.47Z"/>
</svg>