<?xml version="1.0" encoding="UTF-8"?>
<svg id="Ebene_1" xmlns="http://www.w3.org/2000/svg" version="1.1" viewBox="0 0 1044.64 286.36">
  <!-- Generator: Adobe Illustrator 30.0.0, SVG Export Plug-In . SVG Version: 2.1.1 Build 123)  -->
  <defs>
    <style>
      .st0 {
        fill: #6e9de7;
      }

      .st1 {
        fill: #1c2761;
      }
    </style>
  </defs>
  <g>
    <path class="st1" d="M126.99,57.01c0,34.53-25.03,55.38-66.27,55.38H17.15v51.21H0V1.39h60.72c41.24,0,66.27,20.85,66.27,55.62ZM109.84,57.01c0-25.95-17.15-40.79-49.59-40.79H17.15v81.11h43.1c32.44,0,49.59-14.83,49.59-40.32Z"/>
    <path class="st1" d="M187,94.31V1.39h17.15v92.23c0,38.47,18.08,56.08,49.59,56.08s49.82-17.61,49.82-56.08V1.39h16.69v92.92c0,46.58-25.03,70.68-66.51,70.68s-66.73-24.1-66.73-70.68Z"/>
    <path class="st1" d="M395.1,1.39h17.15v147.38h90.83v14.83h-107.98V1.39Z"/>
    <path class="st1" d="M537.37,143.9l6.72-13.21c11.59,11.35,32.21,19.69,53.53,19.69,30.36,0,43.57-12.74,43.57-28.73,0-44.49-99.88-17.15-99.88-77.17,0-23.87,18.54-44.49,59.79-44.49,18.31,0,37.31,5.33,50.28,14.37l-5.79,13.67c-13.91-9.04-30.13-13.44-44.5-13.44-29.66,0-42.87,13.21-42.87,29.43,0,44.49,99.88,17.61,99.88,76.7,0,23.87-19.01,44.26-60.48,44.26-24.33,0-48.2-8.57-60.25-21.09Z"/>
    <path class="st1" d="M820.31,120.27h-90.37l-19.47,43.33h-17.84L766.78,1.39h16.92l74.16,162.21h-18.08l-19.47-43.33ZM814.06,106.36l-38.93-87.13-38.93,87.13h77.86Z"/>
    <path class="st1" d="M1018.67,163.6l-37.07-52.14c-4.18.46-8.35.7-12.98.7h-43.56v51.44h-17.15V1.39h60.71c41.25,0,66.28,20.85,66.28,55.62,0,25.49-13.44,43.33-37.08,50.98l39.62,55.61h-18.77ZM1017.75,57.01c0-25.95-17.15-40.79-49.59-40.79h-43.1v81.34h43.1c32.44,0,49.59-15.06,49.59-40.55Z"/>
  </g>
  <g>
    <path class="st0" d="M29.11,285.69v-19.63H4.5v19.63H0v-42.89h4.5v19.36h24.6v-19.36h4.5v42.89h-4.5Z"/>
    <path class="st0" d="M49.54,285.69v-42.89h4.5v42.89h-4.5Z"/>
    <path class="st0" d="M81.2,285.69h-11.23v-42.89h11.23c12.98,0,23.8,7.8,23.8,21.45s-10.82,21.45-23.8,21.45ZM80.53,246.69h-5.98v35.16h5.98c11.36,0,19.83-6.12,19.83-17.55s-8.47-17.61-19.83-17.61Z"/>
    <path class="st0" d="M129.66,285.69h-11.23v-42.89h11.23c12.98,0,23.8,7.8,23.8,21.45s-10.82,21.45-23.8,21.45ZM128.99,246.69h-5.98v35.16h5.98c11.36,0,19.83-6.12,19.83-17.55s-8.47-17.61-19.83-17.61Z"/>
    <path class="st0" d="M166.9,285.69v-42.89h22.38v3.9h-17.88v15.46h14.65v3.9h-14.65v15.73h20.23v3.9h-24.74Z"/>
    <path class="st0" d="M238.63,286.36l-20.97-23.86c-3.5-3.97-7.46-8.74-10.42-12.37l-.13.07c.13,3.96.13,7.93.13,11.83v23.66h-4.5v-42.89h3.16l19.9,22.72c2.89,3.29,6.86,7.93,9.68,11.49l.14-.07c-.14-3.83-.14-7.67-.14-11.29v-22.86h4.5v43.56h-1.34Z"/>
    <path class="st0" d="M277.88,285.69v-42.89h4.5v42.89h-4.5Z"/>
    <path class="st0" d="M334.21,286.36l-20.98-23.86c-3.49-3.97-7.46-8.74-10.42-12.37l-.14.07c.14,3.96.14,7.93.14,11.83v23.66h-4.5v-42.89h3.16l19.9,22.72c2.89,3.29,6.86,7.93,9.68,11.49l.14-.07c-.14-3.83-.14-7.67-.14-11.29v-22.86h4.5v43.56h-1.34Z"/>
    <path class="st0" d="M355.31,246.69v15.46h15.6v3.9h-15.6v19.63h-4.5v-42.89h22.79v3.9h-18.28Z"/>
    <path class="st0" d="M384.68,285.69v-42.89h4.5v38.99h19.97v3.9h-24.47Z"/>
    <path class="st0" d="M436.98,286.42c-9.95,0-16.74-5.85-16.74-15.59v-28.04h4.5v27.63c0,7.46,4.57,11.96,12.3,11.96s12.31-4.5,12.31-11.96v-27.63h4.37v28.04c0,9.75-6.79,15.59-16.74,15.59Z"/>
    <path class="st0" d="M468.98,285.69v-42.89h22.38v3.9h-17.88v15.46h14.65v3.9h-14.65v15.73h20.23v3.9h-24.74Z"/>
    <path class="st0" d="M540.7,286.36l-20.97-23.86c-3.5-3.97-7.46-8.74-10.42-12.37l-.13.07c.13,3.96.13,7.93.13,11.83v23.66h-4.5v-42.89h3.16l19.9,22.72c2.89,3.29,6.86,7.93,9.68,11.49l.14-.07c-.14-3.83-.14-7.67-.14-11.29v-22.86h4.5v43.56h-1.34Z"/>
    <path class="st0" d="M589.5,249.25c-2.29-1.41-6.66-2.82-11.16-2.82-9.54,0-18.28,6.72-18.28,17.88s8.6,17.88,18.28,17.88c4.91,0,8.6-1,11.43-2.69l-.47,4.24c-2.56,1.48-6.12,2.35-11.36,2.35-11.43,0-22.45-8.27-22.45-21.85s11.09-21.85,22.45-21.85c5.38,0,9.75,1.28,12.5,2.83l-.94,4.03Z"/>
    <path class="st0" d="M603.89,285.69v-42.89h22.38v3.9h-17.88v15.46h14.65v3.9h-14.65v15.73h20.23v3.9h-24.74Z"/>
    <path class="st0" d="M691.47,285.69l-4.84-4.84c-3.77,3.56-8.4,5.58-13.85,5.58-7.86,0-12.91-5.24-12.91-11.23s3.3-9.34,8.68-12.44c-3.97-4.03-5.85-7.12-5.85-10.62,0-6.19,5.04-10.08,10.42-10.08,5.65,0,10.89,3.76,10.89,10.01,0,4.37-2.69,7.93-8.88,11.5l11.36,11.43c2.09-2.76,3.7-6.19,4.84-9.95l2.89,2.96c-1.21,3.76-2.89,7.12-4.91,9.81l7.87,7.87h-5.72ZM671.37,265.58c-4.17,2.29-7.2,5.04-7.2,9.41s3.7,7.67,8.81,7.67c4.03,0,7.73-1.75,10.83-4.64l-12.44-12.44ZM673.12,245.69c-3.7,0-6.32,2.89-6.32,6.25,0,2.89,1.88,5.18,5.51,8.81,5.44-3.02,7.59-5.65,7.59-8.6,0-3.49-2.69-6.45-6.79-6.45Z"/>
    <path class="st0" d="M762.45,249.25c-2.28-1.41-6.65-2.82-11.15-2.82-9.55,0-18.28,6.72-18.28,17.88s8.6,17.88,18.28,17.88c4.9,0,8.6-1,11.43-2.69l-.47,4.24c-2.56,1.48-6.12,2.35-11.36,2.35-11.43,0-22.46-8.27-22.46-21.85s11.09-21.85,22.46-21.85c5.38,0,9.75,1.28,12.5,2.83l-.94,4.03Z"/>
    <path class="st0" d="M795.8,286.42c-11.83,0-22.46-8.94-22.46-22.25s10.62-22.12,22.46-22.12,22.45,8.87,22.45,22.12-10.62,22.25-22.45,22.25ZM795.8,246.09c-9.41,0-17.88,7.19-17.88,18.21s8.47,18.22,17.88,18.22,17.88-7.19,17.88-18.22-8.54-18.21-17.88-18.21Z"/>
    <path class="st0" d="M867.59,286.36l-20.98-23.86c-3.49-3.97-7.46-8.74-10.42-12.37l-.14.07c.14,3.96.14,7.93.14,11.83v23.66h-4.5v-42.89h3.16l19.9,22.72c2.89,3.29,6.86,7.93,9.68,11.49l.14-.07c-.14-3.83-.14-7.67-.14-11.29v-22.86h4.5v43.56h-1.34Z"/>
    <path class="st0" d="M899.24,246.69v38.99h-4.5v-38.99h-14.72v-3.9h34.01v3.9h-14.79Z"/>
    <path class="st0" d="M950.6,285.69l-14.25-19.63h-6.72v19.63h-4.5v-42.89h11.83c6.52,0,12.57,4.3,12.57,11.63,0,5.58-3.56,9.61-8.4,10.96l15.06,20.3h-5.58ZM936.21,246.76h-6.58v15.46h6.72c4.64,0,8.6-2.82,8.6-7.73s-4.03-7.73-8.74-7.73Z"/>
    <path class="st0" d="M984.28,286.42c-11.83,0-22.46-8.94-22.46-22.25s10.62-22.12,22.46-22.12,22.45,8.87,22.45,22.12-10.62,22.25-22.45,22.25ZM984.28,246.09c-9.41,0-17.88,7.19-17.88,18.21s8.47,18.22,17.88,18.22,17.88-7.19,17.88-18.22-8.54-18.21-17.88-18.21Z"/>
    <path class="st0" d="M1020.17,285.69v-42.89h4.5v38.99h19.97v3.9h-24.47Z"/>
  </g>
</svg>