<?xml version="1.0" encoding="UTF-8"?>
<svg id="Ebene_1" xmlns="http://www.w3.org/2000/svg" version="1.1" viewBox="0 0 200 200">
  <!-- Generator: Adobe Illustrator 30.0.0, SVG Export Plug-In . SVG Version: 2.1.1 Build 123)  -->
  <defs>
    <style>
      .st0 {
        fill: #6e9de7;
      }
    </style>
  </defs>
  <path class="st0" d="M48.53,200c-26.76,0-48.53-21.77-48.53-48.53V27.94C0,12.53,12.53,0,27.94,0h41.18c15.4,0,27.94,12.53,27.94,27.94v123.54c0,26.76-21.77,48.53-48.53,48.53ZM27.94,14.7c-7.3,0-13.24,5.94-13.24,13.24v123.54c0,18.65,15.18,33.83,33.83,33.83s33.83-15.18,33.83-33.83V27.94c0-7.3-5.94-13.24-13.24-13.24H27.94Z"/>
  <path class="st0" d="M172.06,200H48.53c-4.06,0-7.35-3.29-7.35-7.35s3.29-7.35,7.35-7.35h123.53c7.3,0,13.24-5.94,13.24-13.24v-41.18c0-7.3-5.94-13.23-13.24-13.23h-23.67c-4.06,0-7.35-3.29-7.35-7.35s3.29-7.35,7.35-7.35h23.67c15.41,0,27.94,12.53,27.94,27.93v41.18c0,15.41-12.54,27.94-27.94,27.94Z"/>
  <path class="st0" d="M48.63,158.82c-4.06,0-7.4-3.29-7.4-7.35s3.24-7.35,7.3-7.35h.1c4.06,0,7.35,3.29,7.35,7.35s-3.29,7.35-7.35,7.35Z"/>
  <path class="st0" d="M78.38,187.64c-1.88,0-3.75-.72-5.19-2.14-2.87-2.86-2.89-7.52-.02-10.4l89.82-90.24c3.54-3.67,5.26-8.06,5.17-12.7s-1.98-8.96-5.32-12.17l-19.62-19.62c-3.37-3.36-7.72-5.15-12.35-5.15h-.03c-4.64,0-8.99,1.82-12.26,5.1l-23.69,23.69c-2.87,2.87-7.53,2.87-10.39,0-2.87-2.87-2.87-7.52,0-10.39l23.68-23.68c6.03-6.06,14.08-9.41,22.64-9.42h.06c8.54,0,16.57,3.32,22.62,9.35l19.64,19.63c6.07,5.83,9.55,13.82,9.72,22.38.16,8.56-3.01,16.67-8.95,22.84-.07.07-.56.56-.63.63l-89.7,90.11c-1.44,1.44-3.32,2.17-5.21,2.17Z"/>
</svg>