<?xml version="1.0" encoding="UTF-8"?>
<svg id="Ebene_1" xmlns="http://www.w3.org/2000/svg" version="1.1" viewBox="0 0 200 200">
  <!-- Generator: Adobe Illustrator 30.0.0, SVG Export Plug-In . SVG Version: 2.1.1 Build 123)  -->
  <defs>
    <style>
      .st0 {
        fill: #f9b50f;
      }
    </style>
  </defs>
  <path class="st0" d="M100.05,200c-.89,0-1.79-.04-2.69-.13-13.27-1.26-23.82-11.81-25.08-25.08-.39-4.39-2.44-8.32-5.79-11.13-3.35-2.8-7.59-4.16-11.93-3.75-1.91.17-3.74.66-5.47,1.47-14.04,6.37-30.57.16-36.92-13.82-5.48-12.07-1.63-26.43,9.14-34.15,3.62-2.54,6-6.29,6.76-10.59.75-4.3-.21-8.64-2.72-12.21-1.09-1.56-2.44-2.9-3.99-3.99-6.09-4.37-10.08-10.8-11.29-18.14s.52-14.71,4.85-20.75c7.71-10.74,22.05-14.58,34.1-9.13,8.22,3.83,17.97.28,21.77-7.89.8-1.73,1.3-3.57,1.46-5.46.02-.19.04-.37.08-.56.82-7.2,4.33-13.69,9.93-18.31C87.99,1.64,95.22-.58,102.63.13c13.27,1.26,23.82,11.81,25.08,25.08.39,4.39,2.44,8.33,5.79,11.13,3.35,2.8,7.57,4.11,11.94,3.75,1.9-.17,3.74-.66,5.46-1.46,6.82-3.1,14.39-3.35,21.35-.74,6.96,2.61,12.49,7.78,15.56,14.56,5.48,12.07,1.64,26.42-9.14,34.14-7.42,5.21-9.21,15.42-4.03,22.8,1.09,1.55,2.44,2.9,3.99,3.99,6.09,4.36,10.09,10.79,11.3,18.12,1.21,7.34-.51,14.71-4.84,20.76-7.72,10.77-22.07,14.62-34.14,9.14-4.02-1.87-8.45-2.06-12.55-.57-4.1,1.49-7.38,4.5-9.22,8.45-.81,1.73-1.3,3.56-1.47,5.47-.71,7.44-4.25,14.12-9.99,18.86-5.03,4.16-11.23,6.38-17.68,6.38ZM56.04,148.34c6.52,0,12.77,2.26,17.83,6.5,5.7,4.78,9.2,11.49,9.85,18.9.74,7.75,6.93,13.95,14.72,14.69,4.34.4,8.59-.89,11.96-3.67,3.36-2.78,5.45-6.7,5.86-11.05.28-3.2,1.12-6.33,2.49-9.27,3.14-6.74,8.72-11.85,15.7-14.4,6.98-2.55,14.55-2.22,21.29.92,7.03,3.19,15.46.93,19.99-5.39,2.54-3.55,3.55-7.88,2.84-12.18-.71-4.31-3.06-8.08-6.61-10.62-2.61-1.83-4.89-4.12-6.75-6.77-8.82-12.57-5.77-29.96,6.8-38.78,6.28-4.5,8.53-12.93,5.32-20.01-1.8-3.98-5.05-7.01-9.14-8.55-4.09-1.54-8.53-1.38-12.5.42-2.89,1.35-6.02,2.19-9.25,2.47-7.42.66-14.63-1.61-20.33-6.39-5.7-4.77-9.2-11.48-9.86-18.89-.74-7.75-6.93-13.95-14.72-14.69-4.36-.42-8.6.89-11.96,3.67-3.36,2.78-5.45,6.71-5.86,11.05-.01.16-.04.32-.07.48-.33,3.05-1.15,6-2.44,8.79-6.49,13.92-23.08,19.96-36.99,13.48-7.01-3.17-15.43-.92-19.96,5.39-2.55,3.55-3.56,7.87-2.85,12.18.71,4.31,3.05,8.08,6.6,10.63,2.6,1.83,4.89,4.11,6.75,6.77,4.27,6.09,5.92,13.47,4.63,20.8-1.28,7.32-5.34,13.71-11.43,17.98-6.28,4.5-8.53,12.93-5.32,20.01,3.73,8.21,13.44,11.85,21.64,8.12,2.88-1.35,6.02-2.19,9.26-2.48.84-.07,1.67-.11,2.5-.11Z"/>
  <path class="st0" d="M99.99,134.08c-18.79,0-34.07-15.29-34.07-34.07s15.29-34.07,34.07-34.07,34.07,15.29,34.07,34.07-15.29,34.07-34.07,34.07ZM99.99,77.43c-12.45,0-22.58,10.13-22.58,22.58s10.13,22.58,22.58,22.58,22.58-10.13,22.58-22.58-10.13-22.58-22.58-22.58Z"/>
</svg>