<?xml version="1.0" encoding="UTF-8"?>
<svg id="Ebene_1" xmlns="http://www.w3.org/2000/svg" version="1.1" viewBox="0 0 200 200">
  <!-- Generator: Adobe Illustrator 30.0.0, SVG Export Plug-In . SVG Version: 2.1.1 Build 123)  -->
  <defs>
    <style>
      .st0 {
        fill: #6e9de7;
      }

      .st1 {
        fill: #2b2b2b;
      }

      .st2 {
        opacity: .65;
      }

      .st3 {
        fill: none;
        stroke: #6e9de7;
        stroke-linecap: round;
        stroke-miterlimit: 10;
        stroke-width: 3.38px;
      }
    </style>
  </defs>
  <g class="st2">
    <path class="st0" d="M135.98,53.65c-14.47-14.46-32.82-14.39-36.16-14.32-3.34-.07-21.68-.13-36.16,14.32-13.99,13.97-14.31,31.46-14.32,36.27-.04,16.62,7.74,28.32,10.67,32.3l12.35,17.34c2.27,3.19,3.49,7.01,3.49,10.93v9.22h47.93v-9.22c0-3.92,1.22-7.74,3.49-10.93l12.35-17.34c2.92-3.99,10.71-15.68,10.67-32.3-.01-4.81-.34-22.3-14.32-36.27Z"/>
  </g>
  <path class="st1" d="M123.18,160.5h-47.93c-.89,0-1.62-.73-1.62-1.62v-9.21c0-3.6-1.1-7.06-3.19-9.99l-12.35-17.34c-4.1-5.59-11-17.37-10.97-33.25.03-14.83,5.15-27.77,14.8-37.41,14.15-14.13,32.1-14.92,37.3-14.8,5.21-.11,23.15.66,37.3,14.8,9.65,9.63,14.76,22.57,14.8,37.41.04,15.88-6.87,27.66-10.98,33.27l-12.34,17.32c-2.09,2.94-3.19,6.39-3.19,9.99v9.21c0,.89-.73,1.62-1.62,1.62ZM99.22,157.27h22.35v-7.6c0-4.28,1.31-8.38,3.79-11.87l12.35-17.34c3.89-5.31,10.4-16.41,10.37-31.36-.03-13.96-4.82-26.11-13.85-35.12-13.26-13.25-30.07-13.94-34.97-13.85-.01,0-.03,0-.04,0h0s-.03,0-.04,0c-4.89-.11-21.7.6-34.97,13.85-9.03,9.02-13.82,21.16-13.85,35.12-.03,14.95,6.47,26.05,10.35,31.34l12.37,17.36c2.48,3.48,3.79,7.59,3.79,11.87v7.6h22.35Z"/>
  <path class="st1" d="M75.11,168.05c-.78,0-1.47-.57-1.6-1.37-.14-.88.46-1.71,1.35-1.85l48.08-7.54c.89-.15,1.71.46,1.85,1.35s-.46,1.71-1.35,1.85l-48.08,7.54c-.09.01-.17.02-.25.02Z"/>
  <path class="st1" d="M75.11,178.1c-.78,0-1.47-.57-1.6-1.37-.14-.88.46-1.71,1.35-1.85l48.08-7.54c.89-.14,1.71.46,1.85,1.35s-.46,1.71-1.35,1.85l-48.08,7.54c-.09.01-.17.02-.25.02Z"/>
  <path class="st1" d="M75.11,189.05c-.78,0-1.47-.57-1.6-1.37-.14-.88.46-1.71,1.35-1.85l48.08-7.54c.89-.15,1.71.46,1.85,1.35s-.46,1.71-1.35,1.85l-48.08,7.54c-.09.01-.17.02-.25.02Z"/>
  <path class="st1" d="M100.02,200c-.33,0-.65,0-.98-.03-7.43-.49-13.55-6.4-14.56-14.04-.12-.89.51-1.7,1.39-1.82.9-.12,1.7.51,1.82,1.39.81,6.12,5.68,10.85,11.57,11.24,5.06.32,9.93-2.66,12.18-7.45.38-.81,1.34-1.16,2.15-.78.81.38,1.16,1.34.78,2.15-2.66,5.68-8.34,9.34-14.35,9.34Z"/>
  <path class="st1" d="M107.11,160.5c-.89,0-1.61-.72-1.62-1.61l-.23-25.6c.14-11.96.2-19.94.23-24.94,0-.85,0-1.65.02-2.42-4.39.14-7.88.49-10.73.84v52.1c0,.89-.72,1.62-1.61,1.62s-1.62-.73-1.62-1.62v-51.67c-5.73.78-8.92,1.19-12.63-1.67-4.72-3.64-7.99-11.09-5.14-15.23.98-1.42,2.62-2.37,4.76-2.76,3.41-.63,7.55.29,10.53,2.35,6.49,4.49,5.75,12.8,5.72,13.15v.48c2.9-.35,6.42-.69,10.83-.82.22-4.12.91-7.09,3.25-9.79,3.48-4.02,11-7.42,15.36-3.85,1.53,1.26,2.48,3.3,2.68,5.75.25,3.03-.71,6.18-2.49,8.22-2.58,2.95-6.01,2.91-11.68,2.86-1.14-.01-2.4-.02-3.78-.02-.07,0-.13,0-.2,0,0,.74-.01,1.53-.02,2.36-.03,5.15-.09,13.13-.23,25.07l.23,25.57c0,.89-.71,1.63-1.61,1.63h-.01ZM80.75,90.59c-.56,0-1.11.05-1.63.14-1.25.23-2.21.73-2.67,1.42-1.58,2.3.75,7.97,4.45,10.83,2.66,2.06,4.9,1.75,10.33,1.01.11-.01.21-.03.32-.04v-1.06c.01-.22.58-6.93-4.33-10.33-1.81-1.25-4.25-1.97-6.47-1.97ZM109.87,102.64c1.03,0,2,0,2.89.02,5.41.06,7.67,0,9.21-1.75,1.21-1.38,1.88-3.67,1.7-5.83-.13-1.54-.68-2.82-1.51-3.51-2.42-1.99-8.09.28-10.85,3.47-1.7,1.95-2.26,4.26-2.45,7.61.35,0,.69,0,1.02,0Z"/>
  <g>
    <line class="st3" x1="168.37" y1="141.63" x2="152.65" y2="129.19"/>
    <line class="st3" x1="186.75" y1="96.57" x2="166.81" y2="94.47"/>
    <line class="st3" x1="178.18" y1="48.67" x2="160.21" y2="57.55"/>
    <line class="st3" x1="145.33" y1="12.77" x2="134.89" y2="29.89"/>
    <line class="st3" x1="98.37" x2="98.7" y2="20.05"/>
    <line class="st3" x1="51.86" y1="14.32" x2="62.86" y2="31.08"/>
    <line class="st3" x1="20.22" y1="51.29" x2="38.48" y2="59.57"/>
    <line class="st3" x1="13.25" y1="99.46" x2="33.11" y2="96.69"/>
    <line class="st3" x1="33.12" y1="143.88" x2="48.42" y2="130.92"/>
  </g>
</svg>