<?xml version="1.0" encoding="UTF-8"?>
<svg id="Ebene_1" xmlns="http://www.w3.org/2000/svg" version="1.1" viewBox="0 0 200 200">
  <!-- Generator: Adobe Illustrator 30.0.0, SVG Export Plug-In . SVG Version: 2.1.1 Build 123)  -->
  <defs>
    <style>
      .st0 {
        fill: #f9b50f;
      }
    </style>
  </defs>
  <path class="st0" d="M99.95,113.58c-2.21,0-4-1.79-4-4V4c0-1.39.72-2.67,1.9-3.4s2.65-.79,3.89-.18l76.78,38.39c1.35.68,2.21,2.06,2.21,3.58s-.86,2.9-2.21,3.58l-74.57,37.29v26.32c0,2.21-1.79,4-4,4ZM103.95,10.47v63.84l63.84-31.92s-63.84-31.92-63.84-31.92Z"/>
  <path class="st0" d="M99.85,200c-14.08,0-28.06-3.33-40.97-9.91-21.51-10.97-37.45-29.66-44.9-52.62C.24,95.11,19.97,48.29,59.88,28.56c1.98-.98,4.38-.17,5.36,1.81.98,1.98.17,4.38-1.81,5.36C27.05,53.72,9.06,96.39,21.59,135c6.79,20.93,21.33,37.96,40.93,47.96s41.92,11.76,62.86,4.97c43.21-14.02,66.96-60.58,52.94-103.79-.68-2.1.47-4.36,2.57-5.04,2.09-.68,4.36.47,5.04,2.57,7.45,22.96,5.51,47.45-5.46,68.96s-29.66,37.45-52.62,44.9c-9.18,2.98-18.61,4.46-27.99,4.46h-.01Z"/>
  <path class="st0" d="M99.83,161.58c-11.18,0-22.02-3.6-31.12-10.43-11.1-8.34-18.29-20.51-20.25-34.25-1.95-13.75,1.56-27.44,9.91-38.54,1.33-1.76,3.83-2.12,5.6-.79s2.12,3.83.79,5.6c-7.06,9.39-10.04,20.97-8.38,32.61,1.65,11.63,7.74,21.93,17.13,28.99s20.98,10.04,32.61,8.38c11.63-1.65,21.93-7.74,28.99-17.13,7.52-10.01,10.42-22.79,7.96-35.07-.43-2.17.97-4.27,3.14-4.71,2.17-.43,4.28.97,4.71,3.14,2.91,14.51-.52,29.62-9.41,41.45-8.34,11.11-20.51,18.3-34.25,20.25-2.48.35-4.96.53-7.42.53v-.03Z"/>
</svg>