<?xml version="1.0" encoding="UTF-8"?>
<svg id="Ebene_1" xmlns="http://www.w3.org/2000/svg" version="1.1" viewBox="0 0 200 200">
  <!-- Generator: Adobe Illustrator 30.0.0, SVG Export Plug-In . SVG Version: 2.1.1 Build 123)  -->
  <defs>
    <style>
      .st0 {
        fill: #f9b50f;
      }
    </style>
  </defs>
  <path class="st0" d="M99.96,185.87c-5.84,0-11.42-2.08-15.87-5.95-.72-.63-1.39-1.29-2.02-1.98l-52.05-50.38C15.47,112.99,0,95.52,0,71.66h0C0,40.03,25.74,14.29,57.38,14.29c16.26,0,31.81,6.93,42.67,19.03,10.06-11.41,24.07-18.19,39.34-19.08,15.22-.89,29.98,4.22,41.41,14.39,12.28,10.93,19.28,26.62,19.2,43.06,0,23.84-15.47,41.3-29.96,55.8l-51.93,50.24c-4.24,4.77-10.06,7.64-16.44,8.08-.57.04-1.14.06-1.71.06ZM10.55,71.66c0,19.83,13.28,34.77,26.87,48.37l52.11,50.45c.09.09.18.18.26.28.38.43.79.83,1.23,1.21,2.75,2.39,6.27,3.58,9.91,3.32,3.64-.25,6.97-1.91,9.37-4.66.1-.12.2-.23.31-.33l52.02-50.33c13.53-13.54,26.81-28.48,26.81-48.31.06-13.44-5.64-26.24-15.66-35.15-9.32-8.3-21.36-12.45-33.78-11.74-12.46.72-23.9,6.26-32.19,15.58-.2.22-.39.41-.58.59-4.27,4-10.98,3.77-14.96-.49-8.94-9.95-21.63-15.61-34.9-15.61-25.82,0-46.82,21.01-46.83,46.82h0Z"/>
</svg>