<?xml version="1.0" encoding="UTF-8"?>
<svg id="Ebene_1" xmlns="http://www.w3.org/2000/svg" version="1.1" viewBox="0 0 160 160">
  <!-- Generator: Adobe Illustrator 30.0.0, SVG Export Plug-In . SVG Version: 2.1.1 Build 123)  -->
  <defs>
    <style>
      .st0 {
        fill: #f9b50f;
      }

      .st1 {
        fill: #1f3c85;
      }
    </style>
  </defs>
  <path class="st1" d="M18.48,79.31c-1.5.73-3.14,1.31-4.92,1.72,1.78.41,3.42.99,4.92,1.72l17.34,8.93c.73.35,1.26.8,1.58,1.34s.48,1.13.48,1.77v8.41L0,83.41v-4.78l37.88-19.73v8.41c0,.64-.16,1.22-.48,1.74s-.84.98-1.58,1.36l-17.34,8.88Z"/>
  <path class="st0" d="M71.78,113.36c-.54,1.46-1.41,2.56-2.6,3.3s-2.41,1.1-3.65,1.1h-5.02l27.89-71.36c.51-1.34,1.29-2.36,2.34-3.08s2.28-1.08,3.68-1.08h5.06l-27.7,71.12Z"/>
  <path class="st1" d="M160,78.64v4.78l-37.88,19.77v-8.41c0-.64.16-1.23.48-1.77s.84-.99,1.58-1.34l17.34-8.93c1.5-.73,3.14-1.31,4.92-1.72-1.78-.41-3.42-.99-4.92-1.72l-17.34-8.88c-.73-.38-1.26-.84-1.58-1.36s-.48-1.11-.48-1.74v-8.41l37.88,19.73Z"/>
</svg>