<?xml version="1.0" encoding="UTF-8"?>
<svg id="Ebene_1" xmlns="http://www.w3.org/2000/svg" version="1.1" viewBox="0 0 200 200">
  <!-- Generator: Adobe Illustrator 30.0.0, SVG Export Plug-In . SVG Version: 2.1.1 Build 123)  -->
  <defs>
    <style>
      .st0 {
        fill: #f9b50f;
      }
    </style>
  </defs>
  <path class="st0" d="M173.25,200H26.75c-14.75,0-26.75-12-26.75-26.75v-20.93c0-14.75,12-26.75,26.75-26.75h146.49c14.75,0,26.75,12,26.75,26.75v20.93c0,14.75-12,26.75-26.75,26.75ZM26.75,137.22c-8.33,0-15.1,6.78-15.1,15.1v20.93c0,8.33,6.77,15.1,15.1,15.1h146.49c8.33,0,15.1-6.78,15.1-15.1v-20.93c0-8.33-6.78-15.1-15.1-15.1H26.75Z"/>
  <path class="st0" d="M37.22,137.22c-3.22,0-5.83-2.61-5.83-5.83v-20.93c0-3.22,2.61-5.83,5.83-5.83s5.83,2.61,5.83,5.83v20.93c0,3.22-2.61,5.83-5.83,5.83Z"/>
  <path class="st0" d="M100,137.22c-3.22,0-5.83-2.61-5.83-5.83v-62.78c0-3.22,2.61-5.83,5.83-5.83s5.83,2.61,5.83,5.83v62.78c0,3.22-2.61,5.83-5.83,5.83Z"/>
  <path class="st0" d="M100,74.43c-20.52,0-37.22-16.7-37.22-37.22S79.48,0,100,0s37.22,16.7,37.22,37.22-16.7,37.22-37.22,37.22ZM100,11.65c-14.1,0-25.57,11.47-25.57,25.57s11.47,25.56,25.57,25.56,25.56-11.47,25.56-25.56-11.47-25.57-25.56-25.57Z"/>
</svg>