<?xml version="1.0" encoding="UTF-8"?>
<svg id="Ebene_1" xmlns="http://www.w3.org/2000/svg" version="1.1" viewBox="0 0 160 160">
  <!-- Generator: Adobe Illustrator 30.0.0, SVG Export Plug-In . SVG Version: 2.1.1 Build 123)  -->
  <defs>
    <style>
      .st0 {
        fill: #7199d0;
      }

      .st1 {
        fill: #1f3c85;
      }
    </style>
  </defs>
  <path class="st1" d="M18.14,44.25c0,1.22-.25,2.37-.75,3.44s-1.16,2.01-1.98,2.81-1.79,1.45-2.9,1.92-2.3.72-3.56.72-2.38-.24-3.47-.72-2.04-1.12-2.84-1.92-1.45-1.74-1.92-2.81-.72-2.22-.72-3.44.24-2.45.72-3.56,1.12-2.07,1.92-2.87,1.75-1.44,2.84-1.92,2.25-.72,3.47-.72,2.45.24,3.56.72,2.07,1.12,2.9,1.92,1.48,1.76,1.98,2.87.75,2.3.75,3.56ZM16.18,61.41v58.88H1.95v-58.88h14.23Z"/>
  <path class="st1" d="M46.26,120.29v-48.21l-5.11-.8c-1.11-.23-2-.62-2.67-1.18s-1-1.35-1-2.38v-5.8h8.78v-4.36c0-3.37.51-6.39,1.52-9.07s2.47-4.95,4.36-6.83,4.2-3.31,6.92-4.3,5.78-1.49,9.18-1.49c2.72,0,5.24.36,7.58,1.09l-.29,7.12c-.04.54-.19.97-.46,1.29s-.62.57-1.06.75-.95.29-1.52.34-1.19.09-1.84.09c-1.68,0-3.19.18-4.51.55s-2.44.99-3.36,1.89-1.62,2.09-2.1,3.56-.72,3.3-.72,5.48v3.9h15.32v10.1h-14.86v48.26h-14.18Z"/>
  <path class="st0" d="M104.62,80c0,7.88.96,15.63,2.87,23.24s4.65,14.77,8.21,21.46c.38.77.6,1.44.66,2.04s.01,1.11-.14,1.55-.39.82-.72,1.15-.68.6-1.06.83l-6.31,3.85c-2.83-4.36-5.24-8.74-7.23-13.14s-3.62-8.84-4.88-13.31c-1.26-4.48-2.19-9.01-2.78-13.6s-.89-9.28-.89-14.06.3-9.48.89-14.09,1.52-9.15,2.78-13.63c1.26-4.48,2.89-8.9,4.88-13.29s4.4-8.75,7.23-13.11l6.31,3.79c.38.23.74.51,1.06.83s.57.71.72,1.15.2.96.14,1.55-.28,1.29-.66,2.09c-3.56,6.66-6.29,13.8-8.21,21.44s-2.87,15.39-2.87,23.27Z"/>
  <path class="st0" d="M147.72,80c0-7.88-.95-15.64-2.84-23.27s-4.62-14.78-8.18-21.44c-.42-.8-.66-1.5-.72-2.09s0-1.11.14-1.55.39-.82.72-1.15.7-.6,1.12-.83l6.31-3.79c2.83,4.36,5.24,8.73,7.23,13.11,1.99,4.38,3.62,8.81,4.88,13.29s2.18,9.02,2.75,13.63.86,9.31.86,14.09-.29,9.47-.86,14.06-1.49,9.12-2.75,13.6-2.89,8.91-4.88,13.31c-1.99,4.4-4.4,8.78-7.23,13.14l-6.31-3.85c-.42-.23-.79-.51-1.12-.83s-.56-.71-.72-1.15-.2-.96-.14-1.55.3-1.27.72-2.04c3.56-6.7,6.28-13.85,8.18-21.46s2.84-15.36,2.84-23.24Z"/>
</svg>