<?xml version="1.0" encoding="UTF-8"?>
<svg id="Ebene_1" data-name="Ebene 1" xmlns="http://www.w3.org/2000/svg" viewBox="0 0 130 130">
  <defs>
    <style>
      .cls-1 {
        fill: #f9b50f;
      }

      .cls-2 {
        fill: #f9fafb;
      }
    </style>
  </defs>
  <rect class="cls-2" width="130" height="130" rx="28.59" ry="28.59"/>
  <path class="cls-1" d="M76.67,36.72c3.11,2.52,4.66,6.02,4.66,10.52,0,2.66-.62,5.37-1.86,8.12-1.24,2.75-2.81,5.43-4.71,8.04-1.9,2.61-4.68,6.16-8.35,10.65-5.09,6.27-9.23,11.66-12.43,16.16h19.89c1.95,0,3.45-.61,4.48-1.82,1.03-1.21,1.73-3.36,2.09-6.44h2.04c-.18,1.3-.27,2.99-.27,5.06,0,3.14.21,6.48.62,10.03h-19.09l-11.99-.09c-2.07,0-3.61.03-4.62.09v-1.78c4.5-5.03,8.51-9.86,12.03-14.47,3.52-4.62,6.66-9.78,9.41-15.49,2.75-5.71,4.13-11.26,4.13-16.65,0-4.44-.98-7.84-2.93-10.21-1.95-2.37-4.56-3.55-7.81-3.55-2.19,0-4.25.53-6.17,1.6-1.92,1.07-3.24,2.55-3.95,4.44,1.54.24,2.78.74,3.73,1.51.95.77,1.42,1.84,1.42,3.2s-.46,2.47-1.38,3.33c-.92.86-2.09,1.29-3.51,1.29s-2.63-.47-3.46-1.42c-.83-.95-1.24-2.1-1.24-3.46,0-1.01.27-2.1.8-3.29.53-1.18,1.3-2.34,2.31-3.46,1.78-1.95,3.89-3.39,6.35-4.31,2.46-.92,5.07-1.38,7.86-1.38,4.85,0,8.83,1.26,11.94,3.77Z"/>
</svg>