<?xml version="1.0" encoding="UTF-8"?>
<svg id="Ebene_1" data-name="Ebene 1" xmlns="http://www.w3.org/2000/svg" viewBox="0 0 130 130">
  <defs>
    <style>
      .cls-1 {
        fill: #f9b50f;
      }

      .cls-2 {
        fill: #f9fafb;
      }
    </style>
  </defs>
  <rect class="cls-2" width="130" height="130" rx="28.59" ry="28.59"/>
  <path class="cls-1" d="M76.81,35.97c2.9,2.43,4.35,5.65,4.35,9.68s-1.66,7.76-4.97,10.83c-3.32,3.08-7.13,5.21-11.45,6.39,5.5.24,10.18,1.76,14.03,4.57,3.85,2.81,5.77,6.79,5.77,11.94,0,3.73-1.02,6.99-3.06,9.77-2.04,2.78-4.83,4.9-8.35,6.35-3.52,1.45-7.44,2.18-11.76,2.18-4.68,0-8.58-1.04-11.72-3.11-2.78-1.89-4.17-4.02-4.17-6.39,0-1.36.44-2.49,1.33-3.37.89-.89,2.04-1.33,3.46-1.33s2.5.43,3.42,1.29c.92.86,1.38,2.03,1.38,3.51,0,1.24-.34,2.25-1.02,3.02-.68.77-1.58,1.27-2.71,1.51.53.89,1.76,1.67,3.68,2.35,1.92.68,4.01,1.02,6.26,1.02,4.73,0,8.39-1.52,10.96-4.57,2.57-3.05,3.86-6.94,3.86-11.67s-1.21-8.69-3.64-11.5c-2.43-2.81-5.74-4.39-9.94-4.75-.41.18-1.01.41-1.78.71-.77.3-1.39.44-1.86.44-.59,0-1.05-.15-1.38-.44-.33-.3-.49-.62-.49-.98s.18-.68.53-.98c.36-.3.86-.44,1.51-.44.41,0,.95.08,1.6.22.65.15,1.21.25,1.69.31,3.43-.71,5.99-2.43,7.68-5.15,1.69-2.72,2.53-6.01,2.53-9.85,0-4.14-.86-7.37-2.57-9.68-1.72-2.31-4.2-3.46-7.46-3.46-2.31,0-4.48.52-6.53,1.55-2.04,1.04-3.48,2.5-4.31,4.39,1.54.24,2.78.74,3.73,1.51.95.77,1.42,1.84,1.42,3.2s-.46,2.47-1.38,3.33c-.92.86-2.09,1.29-3.51,1.29s-2.63-.47-3.46-1.42c-.83-.95-1.24-2.07-1.24-3.37,0-1.01.27-2.13.8-3.37s1.3-2.4,2.31-3.46c1.72-1.89,3.92-3.31,6.61-4.26,2.69-.95,5.52-1.42,8.48-1.42,4.68,0,8.46,1.21,11.36,3.64Z"/>
</svg>