<?xml version="1.0" encoding="UTF-8"?>
<svg id="Ebene_1" data-name="Ebene 1" xmlns="http://www.w3.org/2000/svg" viewBox="0 0 130 130">
  <defs>
    <style>
      .cls-1 {
        fill: #f9b50f;
      }

      .cls-2 {
        fill: #f9fafb;
      }
    </style>
  </defs>
  <rect class="cls-2" width="130" height="130" rx="28.59" ry="28.59"/>
  <path class="cls-1" d="M70.55,87.46c0,2.25.18,3.88.53,4.88.36,1.01,1.02,1.69,2,2.04.98.36,2.53.59,4.66.71v1.78c-2.49-.18-6.27-.27-11.36-.27-5.39,0-9.65.09-12.79.27v-1.78c2.66-.12,4.59-.36,5.77-.71,1.18-.36,2.01-1.03,2.49-2.04.47-1.01.71-2.63.71-4.88v-40.13c0-2.07-.3-3.58-.89-4.53-.59-.95-1.6-1.58-3.02-1.91-1.42-.32-3.55-.49-6.39-.49v-1.86c4.32-.65,7.89-1.43,10.7-2.35,2.81-.92,5.34-1.94,7.59-3.06v54.33Z"/>
</svg>