<?xml version="1.0" encoding="UTF-8"?>
<svg id="Ebene_1" xmlns="http://www.w3.org/2000/svg" version="1.1" viewBox="0 0 200 200">
  <!-- Generator: Adobe Illustrator 30.0.0, SVG Export Plug-In . SVG Version: 2.1.1 Build 123)  -->
  <defs>
    <style>
      .st0 {
        fill: #6e9de7;
      }

      .st1 {
        fill: #1c2761;
      }
    </style>
  </defs>
  <path class="st1" d="M119.43,99.95s.03-.08.04-.12v-.12s.02-.05.02-.08-.01-.05-.02-.08v-.12s-.03-.08-.04-.12c-.02-.05-.04-.1-.06-.15-.02-.03-.03-.07-.06-.1,0-.01,0-.03-.02-.04-.02-.02-.04-.03-.06-.05l-.12-.12s-.03-.04-.05-.06l-7.5-5.43c-.46-.34-1.1-.23-1.44.23-.33.46-.23,1.1.23,1.44l4.92,3.57h-7.67c-.57,0-1.03.46-1.03,1.03s.46,1.03,1.03,1.03h7.67l-4.92,3.57c-.46.33-.56.98-.23,1.44.2.28.52.43.84.43.21,0,.42-.06.6-.2l7.5-5.43s.03-.04.05-.06c.05-.04.09-.08.13-.13.01-.02.04-.02.05-.04,0-.01,0-.03.02-.04.02-.03.04-.07.06-.1.02-.05.04-.1.06-.15Z"/>
  <rect class="st1" x="84.97" y="98.48" width="2.99" height="2.3" rx=".84" ry=".84"/>
  <rect class="st1" x="90.27" y="98.48" width="2.99" height="2.3" rx=".84" ry=".84"/>
  <rect class="st1" x="95.58" y="98.48" width="2.99" height="2.3" rx=".84" ry=".84"/>
  <rect class="st1" x="100.88" y="98.48" width="2.99" height="2.3" rx=".84" ry=".84"/>
  <rect class="st1" x="69.07" y="98.48" width="2.99" height="2.3" rx=".84" ry=".84"/>
  <rect class="st1" x="74.37" y="98.48" width="2.99" height="2.3" rx=".84" ry=".84"/>
  <rect class="st1" x="79.67" y="98.48" width="2.99" height="2.3" rx=".84" ry=".84"/>
  <path class="st1" d="M140.06,75.89c-5.87,0-11.48-2.73-15.13-7.4-4.15,2.96-9.55,3.46-14.03,1.21-5.38-2.7-6.86-8.13-7.24-10.14-7.69-1.79-13.09-9.05-12.14-16.51.76-5.97,5.49-10.97,11.64-12.5-.68-4.33.81-8.63,4.02-11.42,3.91-3.41,9.72-3.91,14.4-1.34,1.9-2.19,7.35-7.46,15.92-7.64h.45c8.41,0,13.93,4.98,15.87,7.07,2.28-1.32,8.82-4.46,15.53-1.55,4.4,1.91,6.51,4.92,7.51,7.11,1.4,3.08,1.34,6.03,1.05,7.95,3.64.82,6.78,2.93,8.93,6.01,2.19,3.14,3.04,6.98,2.32,10.53-1.28,6.34-7.19,10.99-13.95,11.11-.47,1.86-1.91,5.74-5.98,7.83-3.81,1.96-8.43,1.59-12.1-.88-2.99,5.93-8.79,9.91-15.44,10.49-.55.05-1.1.07-1.65.07h.02ZM125.14,66h.14c.29.04.54.2.71.43,3.51,5.05,9.47,7.85,15.55,7.32,6.31-.55,11.78-4.55,14.27-10.43.13-.3.39-.52.71-.6.32-.08.65,0,.9.21,3.16,2.64,7.44,3.2,10.89,1.43,4.14-2.13,4.99-6.69,5.08-7.2.08-.51.55-.93,1.06-.86,6.11.26,11.58-3.82,12.72-9.45.61-3-.12-6.26-1.99-8.94-2.03-2.91-5.08-4.81-8.6-5.35-.28-.04-.54-.2-.7-.44-.16-.24-.21-.53-.15-.81.35-1.51.73-4.51-.71-7.68-1.23-2.71-3.41-4.75-6.46-6.07-6.83-2.97-13.59,1.35-14.34,1.85-.44.3-1.03.21-1.37-.2-.99-1.2-6.43-7.17-15.28-7-8.81.18-13.97,6.32-14.91,7.55-.33.42-.92.53-1.37.24-4.04-2.6-9.28-2.32-12.73.69-2.89,2.51-4.1,6.51-3.17,10.43.07.28.01.57-.14.8-.16.24-.4.4-.68.45-5.78,1.04-10.3,5.54-10.99,10.95-.85,6.63,4.17,13.07,11.19,14.37.45.08.79.46.84.91.03.26.69,6.48,6.23,9.26,4.06,2.04,9.03,1.4,12.65-1.62.19-.16.42-.24.66-.24h0Z"/>
  <path class="st1" d="M11.69,148.16c-.43,0-.82-.27-.97-.68-.15-.42-.01-.89.34-1.16,2.74-2.12,4.99-4.88,6.49-7.97,1.22-2.52,1.96-5.21,2.18-8.01-3.87-1.73-9.11-4.96-13.33-10.71-1.78-2.43-7.5-11.29-6.21-23.22,1.51-13.86,11.46-21.9,14.73-24.54,12.57-10.15,30.63-12.8,46.02-6.75,15.99,6.28,23.49,19.69,25.97,25.16.24.52,0,1.13-.51,1.36-.52.23-1.13,0-1.36-.51-2.38-5.24-9.56-18.09-24.85-24.1-14.71-5.78-31.97-3.26-43.97,6.44-3.11,2.51-12.56,10.14-13.97,23.16-1.22,11.19,4.15,19.5,5.82,21.78,4.19,5.72,9.46,8.77,13.15,10.33.4.17.65.57.63,1-.16,3.33-.98,6.53-2.43,9.52-1.19,2.44-2.79,4.69-4.72,6.62,3.82-.49,7.53-1.68,10.87-3.52,3.38-1.86,6.35-4.32,8.82-7.32.24-.29.62-.43,1-.36,5.94,1.2,15.13,1.8,25.22-2.08,4.73-1.82,11.63-5.44,17.63-12.32,2.96-3.39,5.38-7.22,7.2-11.37.23-.52.83-.76,1.36-.53.52.23.76.84.53,1.36-1.91,4.35-4.44,8.35-7.54,11.9-6.27,7.2-13.49,10.98-18.44,12.89-10.22,3.94-19.55,3.47-25.77,2.3-2.56,2.99-5.59,5.45-9.02,7.34-4.5,2.47-9.62,3.86-14.82,4.01h-.03l-.02-.02Z"/>
  <path class="st1" d="M193.87,101.56c-8.05-11.97-20.92-15.42-26.08-16.34-6.11-1.09-21.62-2.41-33.85,8.99-9.43,8.78-11.44,19.94-11.8,25.81-.06,1.06.03,2.06.28,2.98.28,1.02.39,2.06.34,3.07-.13,2.35-1.15,3.96-2.85,6.64-.56.88-1.18,1.87-1.86,3.01-.41.69-.79,1.24-1.18,1.81-.57.84-1.16,1.7-1.88,3.02-.36.67-.98,1.8-.65,3.15.35,1.48,1.63,2.3,2.05,2.57.69.44,1.19.55,1.77.68.31.07.68.15,1.2.31.87.27,2.3.71,2.6,1.04-.08.36-.32,1.22-.62,2.27l-.23.77c-.36,1.21-.56,1.88-.24,2.77.37,1.04,1.23,1.66,2.03,2.05-.63.99-.9,1.96-.77,2.91.15,1.12.79,1.72,1.3,2.21.32.3.62.59.86,1.01.5.89.32,1.63-.03,2.86-.33,1.18-.75,2.64-.21,4.45,1.16,3.87,5.52,5.37,5.7,5.43,1.03.35,1.98.45,2.8.45s1.44-.1,1.9-.17c4.05-.6,7.43-1.37,9.77-1.97.85,1.44,1.52,2.97,1.98,4.57,1.23,4.3.73,8.17.09,10.66-.14.55.19,1.11.74,1.25.09.02.17.03.26.03.46,0,.88-.31,1-.77,1.01-3.93.97-7.99-.1-11.74-.45-1.58-1.1-3.11-1.9-4.56.75-.22,1.23-.37,1.38-.42,10.29-3.4,12.1-4.84,13.41-6.37,1.32-1.55,2.32-3.38,2.96-5.45.17-.54-.13-1.12-.68-1.29-.54-.17-1.12.13-1.29.68-.56,1.8-1.43,3.39-2.57,4.73-1.01,1.19-2.73,2.53-12.48,5.75h0c-.22.07-5.49,1.77-12.87,2.87-.82.12-2.19.32-3.74-.2-.03,0-3.52-1.21-4.38-4.07-.37-1.23-.09-2.23.22-3.29.37-1.29.78-2.76-.16-4.43-.39-.7-.86-1.14-1.23-1.5-.45-.42-.63-.61-.68-1-.08-.56.2-1.22.77-1.95,1.18.24,2.44.2,3.68-.15.55-.16.86-.73.7-1.28s-.73-.86-1.28-.7c-.76.22-1.93.4-3.19,0-.58-.18-1.78-.56-2.05-1.31-.08-.23-.03-.45.28-1.48l.26-.9c.63-2.22.74-2.62.67-3.04-.27-1.53-2.1-2.09-4.06-2.7-.59-.18-1.01-.27-1.36-.35-.51-.11-.72-.16-1.09-.4-.3-.19-1-.64-1.16-1.32-.13-.54.13-1.09.46-1.69.66-1.23,1.23-2.05,1.77-2.84.41-.6.82-1.2,1.25-1.93.66-1.12,1.28-2.09,1.82-2.96,1.81-2.86,3.01-4.75,3.17-7.63.07-1.24-.07-2.49-.41-3.73-.19-.7-.26-1.48-.21-2.31.34-5.56,2.25-16.13,11.15-24.43,11.55-10.76,26.28-9.51,32.09-8.47,4.9.88,17.12,4.14,24.73,15.46.08.12,8.11,12.35,5.08,29.3-.91,5.08-2.57,8.91-2.64,9.07h0c-.91,2.05-1.67,3.2-2.55,4.52-.92,1.39-1.97,2.97-3.44,5.9-2,3.97-3.2,7.27-3.59,9.81-.44,2.86-.26,5.27,0,7.45.73,6.19,2.44,13.06,5.1,20.4.15.42.55.68.97.68.12,0,.23-.02.35-.06.54-.19.81-.78.62-1.32-2.6-7.2-4.28-13.91-4.99-19.94-.28-2.35-.38-4.42,0-6.9.44-2.9,2.09-6.6,3.39-9.19,1.42-2.83,2.43-4.35,3.32-5.69.93-1.4,1.73-2.62,2.72-4.83.19-.43,1.85-4.31,2.78-9.54,3.18-17.81-5.05-30.29-5.4-30.82l-.02.04Z"/>
  <path class="st1" d="M164.58,100.01c-2.71,0-4.91-2.2-4.91-4.91s2.2-4.91,4.91-4.91,4.91,2.2,4.91,4.91-2.2,4.91-4.91,4.91ZM164.58,92.25c-1.57,0-2.85,1.28-2.85,2.85s1.28,2.85,2.85,2.85,2.85-1.28,2.85-2.85-1.28-2.85-2.85-2.85Z"/>
  <path class="st1" d="M171.89,82.76c-3.85,0-6.98-3.13-6.98-6.98s3.13-6.98,6.98-6.98,6.98,3.13,6.98,6.98-3.13,6.98-6.98,6.98ZM171.89,70.87c-2.71,0-4.92,2.21-4.92,4.92s2.21,4.92,4.92,4.92,4.92-2.21,4.92-4.92-2.21-4.92-4.92-4.92Z"/>
  <g>
    <path class="st0" d="M140.55,60.55c-9.77,0-17.72-7.95-17.72-17.72s7.95-17.72,17.72-17.72,17.72,7.95,17.72,17.72-7.95,17.72-17.72,17.72ZM140.55,27.17c-8.64,0-15.66,7.03-15.66,15.66s7.03,15.66,15.66,15.66,15.66-7.03,15.66-15.66-7.03-15.66-15.66-15.66Z"/>
    <path class="st0" d="M146.55,53.88h-11.99c-2.79,0-5.06-2.27-5.06-5.06v-11.99c0-2.79,2.27-5.06,5.06-5.06h11.99c2.79,0,5.06,2.27,5.06,5.06v11.99c0,2.79-2.27,5.06-5.06,5.06ZM134.56,33.84c-1.65,0-3,1.34-3,3v11.99c0,1.65,1.34,3,3,3h11.99c1.65,0,3-1.34,3-3v-11.99c0-1.65-1.34-3-3-3,0,0-11.99,0-11.99,0Z"/>
    <rect class="st0" x="134.73" y="37.13" width="11.41" height="11.41" rx="1.18" ry="1.18"/>
  </g>
  <g>
    <path class="st0" d="M49.71,91.79h-11.99c-1.65,0-3,1.34-3,3v11.99c0,1.65,1.34,3,3,3h11.99c1.65,0,3-1.34,3-3v-11.99c0-1.65-1.34-3-3-3ZM49.42,105.31c0,.65-.53,1.18-1.18,1.18h-9.05c-.65,0-1.18-.53-1.18-1.18v-9.05c0-.65.53-1.18,1.18-1.18h9.05c.65,0,1.18.53,1.18,1.18v9.05ZM49.71,91.79h-11.99c-1.65,0-3,1.34-3,3v11.99c0,1.65,1.34,3,3,3h11.99c1.65,0,3-1.34,3-3v-11.99c0-1.65-1.34-3-3-3ZM49.42,105.31c0,.65-.53,1.18-1.18,1.18h-9.05c-.65,0-1.18-.53-1.18-1.18v-9.05c0-.65.53-1.18,1.18-1.18h9.05c.65,0,1.18.53,1.18,1.18v9.05ZM43.71,82.23c-10.24,0-18.55,8.31-18.55,18.55s8.31,18.55,18.55,18.55,18.55-8.3,18.55-18.55-8.31-18.55-18.55-18.55ZM54.77,106.77c0,2.79-2.27,5.06-5.06,5.06h-11.99c-2.79,0-5.06-2.27-5.06-5.06v-11.99c0-2.79,2.27-5.06,5.06-5.06h11.99c2.79,0,5.06,2.27,5.06,5.06v11.99ZM49.71,91.79h-11.99c-1.65,0-3,1.34-3,3v11.99c0,1.65,1.34,3,3,3h11.99c1.65,0,3-1.34,3-3v-11.99c0-1.65-1.34-3-3-3ZM49.42,105.31c0,.65-.53,1.18-1.18,1.18h-9.05c-.65,0-1.18-.53-1.18-1.18v-9.05c0-.65.53-1.18,1.18-1.18h9.05c.65,0,1.18.53,1.18,1.18v9.05ZM49.71,91.79h-11.99c-1.65,0-3,1.34-3,3v11.99c0,1.65,1.34,3,3,3h11.99c1.65,0,3-1.34,3-3v-11.99c0-1.65-1.34-3-3-3ZM49.42,105.31c0,.65-.53,1.18-1.18,1.18h-9.05c-.65,0-1.18-.53-1.18-1.18v-9.05c0-.65.53-1.18,1.18-1.18h9.05c.65,0,1.18.53,1.18,1.18v9.05ZM49.71,91.79h-11.99c-1.65,0-3,1.34-3,3v11.99c0,1.65,1.34,3,3,3h11.99c1.65,0,3-1.34,3-3v-11.99c0-1.65-1.34-3-3-3ZM49.42,105.31c0,.65-.53,1.18-1.18,1.18h-9.05c-.65,0-1.18-.53-1.18-1.18v-9.05c0-.65.53-1.18,1.18-1.18h9.05c.65,0,1.18.53,1.18,1.18v9.05Z"/>
    <path class="st0" d="M49.71,91.79h-11.99c-1.65,0-3,1.34-3,3v11.99c0,1.65,1.34,3,3,3h11.99c1.65,0,3-1.34,3-3v-11.99c0-1.65-1.34-3-3-3ZM49.42,105.31c0,.65-.53,1.18-1.18,1.18h-9.05c-.65,0-1.18-.53-1.18-1.18v-9.05c0-.65.53-1.18,1.18-1.18h9.05c.65,0,1.18.53,1.18,1.18v9.05Z"/>
  </g>
</svg>