<?xml version="1.0" encoding="UTF-8"?>
<svg id="Ebene_1" xmlns="http://www.w3.org/2000/svg" version="1.1" viewBox="0 0 200 200">
  <!-- Generator: Adobe Illustrator 30.0.0, SVG Export Plug-In . SVG Version: 2.1.1 Build 123)  -->
  <defs>
    <style>
      .st0 {
        fill: #6e9de7;
      }
    </style>
  </defs>
  <path class="st0" d="M69.04,107.12H17.44c-9.62,0-17.44-7.82-17.44-17.44V17.44C0,7.82,7.82,0,17.44,0h51.6c9.62,0,17.44,7.82,17.44,17.44v72.24c0,9.62-7.82,17.44-17.44,17.44ZM17.44,14.24c-1.76,0-3.2,1.44-3.2,3.2v72.24c0,1.76,1.44,3.2,3.2,3.2h51.6c1.76,0,3.2-1.44,3.2-3.2V17.44c0-1.76-1.44-3.2-3.2-3.2H17.44Z"/>
  <path class="st0" d="M182.56,65.84h-51.6c-9.62,0-17.44-7.82-17.44-17.44v-30.96c0-9.62,7.82-17.44,17.44-17.44h51.6c9.62,0,17.44,7.82,17.44,17.44v30.96c0,9.62-7.82,17.44-17.44,17.44ZM130.96,14.24c-1.77,0-3.2,1.44-3.2,3.2v30.96c0,1.77,1.43,3.2,3.2,3.2h51.6c1.77,0,3.2-1.44,3.2-3.2v-30.96c0-1.76-1.43-3.2-3.2-3.2h-51.6Z"/>
  <path class="st0" d="M182.56,200h-51.6c-9.62,0-17.44-7.82-17.44-17.44v-72.23c0-9.62,7.82-17.44,17.44-17.44h51.6c9.62,0,17.44,7.82,17.44,17.44v72.23c0,9.62-7.82,17.44-17.44,17.44ZM130.96,107.12c-1.77,0-3.2,1.43-3.2,3.2v72.23c0,1.77,1.43,3.2,3.2,3.2h51.6c1.77,0,3.2-1.43,3.2-3.2v-72.23c0-1.77-1.43-3.2-3.2-3.2h-51.6Z"/>
  <path class="st0" d="M69.04,200H17.44c-9.62,0-17.44-7.82-17.44-17.44v-30.96c0-9.61,7.82-17.44,17.44-17.44h51.6c9.62,0,17.44,7.82,17.44,17.44v30.96c0,9.62-7.82,17.44-17.44,17.44ZM17.44,148.4c-1.76,0-3.2,1.43-3.2,3.19v30.96c0,1.77,1.44,3.2,3.2,3.2h51.6c1.76,0,3.2-1.43,3.2-3.2v-30.96c0-1.76-1.44-3.19-3.2-3.19H17.44Z"/>
</svg>