<?xml version="1.0" encoding="UTF-8"?>
<svg id="Ebene_1" xmlns="http://www.w3.org/2000/svg" version="1.1" viewBox="0 0 200 200">
  <!-- Generator: Adobe Illustrator 30.0.0, SVG Export Plug-In . SVG Version: 2.1.1 Build 123)  -->
  <defs>
    <style>
      .st0 {
        fill: #39b54a;
      }
    </style>
  </defs>
  <path class="st0" d="M179.6,3.41c-.94-1.88-2.77-3.15-4.85-3.37-2.11-.22-4.15.63-5.46,2.26-18.75,23.25-32.3,27.71-87.11,38.29-36.4,6.22-62.74,37.53-62.62,74.46.03,9.33,1.76,18.39,5.01,26.84C8.95,153.8,0,172.01,0,193.83c0,3.41,2.76,6.16,6.16,6.16s6.16-2.76,6.16-6.16c0-16.95,6.35-30.96,17.74-40.58,3.21,5.4,7.12,10.43,11.69,14.97,14.21,14.13,33.05,21.89,53.08,21.89h.23c26.48,0,53.09-11.22,73.03-30.78,20.57-20.18,31.9-46.52,31.9-74.16,0-37.83-9.65-60.27-20.4-81.78ZM95.06,177.79c-.06,0-.14,0-.22,0-16.75,0-32.51-6.5-44.39-18.31-3.96-3.94-7.32-8.32-10.06-13.01,5.12-2.6,10.83-4.6,17.15-5.85,26.08-5.17,51.74-21.43,61.63-31.32,2.41-2.41,2.41-6.31,0-8.72-2.41-2.41-6.31-2.41-8.72,0-8.54,8.54-32.03,23.33-55.31,27.95-7.24,1.43-13.89,3.71-19.89,6.7-2.19-6.43-3.36-13.23-3.38-20.22-.09-30.88,21.93-57.07,52.5-62.29,51.07-9.86,69.7-15.4,88.26-35.43,8.54,18.19,15.03,37.4,15.03,67.9,0,49.33-43.28,92.61-92.61,92.61Z"/>
</svg>