<?xml version="1.0" encoding="UTF-8"?>
<svg id="Ebene_1" xmlns="http://www.w3.org/2000/svg" version="1.1" viewBox="0 0 200 200">
  <!-- Generator: Adobe Illustrator 30.0.0, SVG Export Plug-In . SVG Version: 2.1.1 Build 123)  -->
  <defs>
    <style>
      .st0 {
        fill: #ffb800;
      }
    </style>
  </defs>
  <path class="st0" d="M70.05,200c-1.92,0-3.86-.12-5.8-.38-11.79-1.52-22.28-7.54-29.53-16.95-6.25-8.12-9.46-17.91-9.25-28.01-3.19-2.29-6.05-4.99-8.54-8.07-7.5-9.22-10.95-20.81-9.73-32.63,1.02-9.85,5.19-18.87,11.88-25.94-.57-1.51-1.06-3.06-1.46-4.63-2.96-11.51-1.26-23.49,4.79-33.72,5.07-8.59,12.7-15.08,21.82-18.7C46.34,13.53,61.23,0,79.2,0h.1c19.43.06,35.19,15.92,35.14,35.35v120.2c0,1.9-.13,3.8-.37,5.66-1.52,11.79-7.54,22.28-16.95,29.54-7.86,6.06-17.3,9.26-27.07,9.26ZM79.2,15c-11.14,0-20.21,9.04-20.24,20.18l.02.97c.16,3.54-2.19,6.71-5.62,7.6-7.63,1.96-14.04,6.78-18.04,13.56-4.01,6.78-5.14,14.72-3.17,22.35.6,2.31,1.47,4.55,2.59,6.63,1.71,3.17.92,7.11-1.87,9.38-6.11,4.97-9.93,12.02-10.74,19.85s1.48,15.51,6.45,21.63c2.34,2.88,5.16,5.26,8.39,7.08,2.66,1.5,4.15,4.47,3.75,7.5-1.01,7.81,1.08,15.55,5.89,21.79s11.76,10.23,19.57,11.24c7.82,1.02,15.55-1.08,21.79-5.89,6.24-4.81,10.23-11.76,11.24-19.57.16-1.25.24-2.5.24-3.77V35.3c.03-11.16-9.02-20.27-20.19-20.3h-.06Z"/>
  <path class="st0" d="M79.2,116.81c-3.1,0-5.99-1.93-7.08-5.01-1.37-3.91.68-8.19,4.58-9.57,13.06-4.59,21.99-16.5,22.74-30.32.23-4.13,3.64-7.41,7.9-7.08,4.14.22,7.3,3.76,7.08,7.9-1.09,19.9-13.94,37.04-32.74,43.65-.83.29-1.67.43-2.49.43Z"/>
  <path class="st0" d="M55.17,56.7c-2.59,0-5.11-1.35-6.5-3.76-2.83-4.91-4.45-10.5-4.68-16.16-.17-4.14,3.05-7.63,7.19-7.8,4.1-.13,7.63,3.05,7.8,7.19.13,3.24,1.06,6.45,2.69,9.27,2.07,3.59.83,8.17-2.75,10.24-1.18.68-2.47,1.01-3.74,1.01Z"/>
  <path class="st0" d="M28.13,97.35c-2.18,0-4.34-.94-5.82-2.76-2.62-3.21-2.13-7.93,1.08-10.55,2.02-1.65,4.21-3.13,6.51-4.41,3.61-2,8.18-.71,10.2,2.92,2.01,3.62.7,8.19-2.92,10.2-1.52.84-2.97,1.83-4.31,2.92-1.39,1.14-3.07,1.69-4.73,1.69Z"/>
  <path class="st0" d="M51.43,163.04c-7.63,0-15.19-1.98-21.84-5.74-3.61-2.03-4.89-6.61-2.85-10.22s6.63-4.88,10.21-2.85c4.41,2.49,9.42,3.8,14.48,3.8h.03c4.14,0,7.5,3.35,7.5,7.5s-3.35,7.5-7.5,7.5h-.03Z"/>
  <path class="st0" d="M143.93,116.81h-36.99c-4.14,0-7.5-3.36-7.5-7.5s3.36-7.5,7.5-7.5h36.99c4.14,0,7.5,3.36,7.5,7.5s-3.36,7.5-7.5,7.5Z"/>
  <path class="st0" d="M180.92,190.79c-4.14,0-7.5-3.36-7.5-7.5v-9.25c0-6.06-4.93-11-11-11h-55.48c-4.14,0-7.5-3.36-7.5-7.5s3.36-7.5,7.5-7.5h55.48c14.34,0,26,11.66,26,26v9.25c0,4.14-3.36,7.5-7.5,7.5Z"/>
  <path class="st0" d="M180.92,70.57h-73.98c-4.14,0-7.5-3.36-7.5-7.5s3.36-7.5,7.5-7.5h73.98c4.14,0,7.5,3.36,7.5,7.5s-3.36,7.5-7.5,7.5Z"/>
  <path class="st0" d="M143.93,70.57c-4.14,0-7.5-3.36-7.5-7.5v-27.74c0-14.33,11.66-25.99,26-25.99,4.14,0,7.5,3.36,7.5,7.5s-3.36,7.5-7.5,7.5c-6.06,0-11,4.93-11,10.99v27.74c0,4.14-3.36,7.5-7.5,7.5Z"/>
  <path class="st0" d="M143.93,121.43c-6.68,0-12.12-5.44-12.12-12.12s5.44-12.12,12.12-12.12,12.12,5.44,12.12,12.12-5.44,12.12-12.12,12.12ZM143.93,106.43c-1.59,0-2.88,1.29-2.88,2.88s1.29,2.88,2.88,2.88,2.88-1.29,2.88-2.88-1.29-2.88-2.88-2.88Z"/>
  <path class="st0" d="M162.43,28.95c-6.68,0-12.12-5.44-12.12-12.12s5.44-12.12,12.12-12.12,12.12,5.44,12.12,12.12-5.44,12.12-12.12,12.12ZM162.43,13.95c-1.59,0-2.88,1.29-2.88,2.88s1.29,2.88,2.88,2.88,2.88-1.29,2.88-2.88-1.29-2.88-2.88-2.88Z"/>
  <path class="st0" d="M180.92,195.41c-6.68,0-12.12-5.44-12.12-12.12s5.44-12.12,12.12-12.12,12.12,5.44,12.12,12.12-5.44,12.12-12.12,12.12ZM180.92,180.41c-1.59,0-2.88,1.29-2.88,2.88s1.29,2.88,2.88,2.88,2.88-1.29,2.88-2.88-1.29-2.88-2.88-2.88Z"/>
  <path class="st0" d="M180.92,75.19c-6.68,0-12.12-5.44-12.12-12.12s5.44-12.12,12.12-12.12,12.12,5.44,12.12,12.12-5.44,12.12-12.12,12.12ZM180.92,60.19c-1.59,0-2.88,1.29-2.88,2.88s1.29,2.88,2.88,2.88,2.88-1.29,2.88-2.88-1.29-2.88-2.88-2.88Z"/>
</svg>