<?xml version="1.0" encoding="UTF-8"?>
<svg id="Ebene_1" xmlns="http://www.w3.org/2000/svg" version="1.1" viewBox="0 0 200 200">
  <!-- Generator: Adobe Illustrator 30.0.0, SVG Export Plug-In . SVG Version: 2.1.1 Build 123)  -->
  <defs>
    <style>
      .st0 {
        fill: #6e9de7;
      }
    </style>
  </defs>
  <path class="st0" d="M130.96,86.48c-3.93,0-7.12-3.19-7.12-7.12v-10.32c0-3.93,3.19-7.12,7.12-7.12s7.12,3.19,7.12,7.12v10.32c0,3.93-3.19,7.12-7.12,7.12Z"/>
  <path class="st0" d="M130.96,138.08c-3.93,0-7.12-3.19-7.12-7.12v-10.32c0-3.93,3.19-7.12,7.12-7.12s7.12,3.19,7.12,7.12v10.32c0,3.93-3.19,7.12-7.12,7.12Z"/>
  <path class="st0" d="M130.96,200c-3.93,0-7.12-3.19-7.12-7.12v-20.64c0-3.93,3.19-7.12,7.12-7.12s7.12,3.19,7.12,7.12v20.64c0,3.93-3.19,7.12-7.12,7.12Z"/>
  <path class="st0" d="M130.96,34.88c-3.93,0-7.12-3.19-7.12-7.12V7.12c0-3.93,3.19-7.12,7.12-7.12s7.12,3.19,7.12,7.12v20.64c0,3.93-3.19,7.12-7.12,7.12Z"/>
  <path class="st0" d="M69.04,86.48c-3.93,0-7.12-3.19-7.12-7.12v-10.32c0-3.93,3.19-7.12,7.12-7.12s7.12,3.19,7.12,7.12v10.32c0,3.93-3.19,7.12-7.12,7.12Z"/>
  <path class="st0" d="M69.04,138.08c-3.93,0-7.12-3.19-7.12-7.12v-10.32c0-3.93,3.19-7.12,7.12-7.12s7.12,3.19,7.12,7.12v10.32c0,3.93-3.19,7.12-7.12,7.12Z"/>
  <path class="st0" d="M69.04,200c-3.93,0-7.12-3.19-7.12-7.12v-20.64c0-3.93,3.19-7.12,7.12-7.12s7.12,3.19,7.12,7.12v20.64c0,3.93-3.19,7.12-7.12,7.12Z"/>
  <path class="st0" d="M69.04,34.88c-3.93,0-7.12-3.19-7.12-7.12V7.12c0-3.93,3.19-7.12,7.12-7.12s7.12,3.19,7.12,7.12v20.64c0,3.93-3.19,7.12-7.12,7.12Z"/>
  <path class="st0" d="M172.24,200H27.76c-15.31,0-27.76-12.46-27.76-27.76V27.76C0,12.45,12.45,0,27.76,0h144.48c15.3,0,27.76,12.45,27.76,27.76v144.48c0,15.3-12.46,27.76-27.76,27.76ZM27.76,14.24c-7.46,0-13.52,6.06-13.52,13.52v144.48c0,7.46,6.06,13.51,13.52,13.51h144.48c7.46,0,13.51-6.06,13.51-13.51V27.76c0-7.46-6.06-13.52-13.51-13.52H27.76Z"/>
</svg>