<?xml version="1.0" encoding="UTF-8"?>
<svg id="Ebene_1" xmlns="http://www.w3.org/2000/svg" version="1.1" viewBox="0 0 200 200">
  <!-- Generator: Adobe Illustrator 30.0.0, SVG Export Plug-In . SVG Version: 2.1.1 Build 123)  -->
  <defs>
    <style>
      .st0 {
        fill: #6e9de7;
      }

      .st1 {
        fill: #1c2761;
      }
    </style>
  </defs>
  <path class="st1" d="M200,103.78c0-6.55-5.33-11.88-11.88-11.88s-11.88,5.33-11.88,11.88c0,5.6,3.9,10.29,9.12,11.54-7.62,41.17-43.24,70.89-85.35,70.89-33.54,0-63.8-19.17-78.24-49.17l20.58,8.44c.21.09.42.13.63.13.66,0,1.28-.39,1.55-1.04.35-.85-.06-1.83-.91-2.18l-24.46-10.03s0,0-.01,0h0s0,0,0,0c-.15-.06-.3-.07-.46-.09-.06,0-.11-.03-.17-.03,0,0,0,0,0,0-.22,0-.44.04-.64.13,0,0,0,0,0,0h0s-.02.02-.03.02c-.1.05-.18.12-.27.18-.07.05-.16.09-.22.15,0,0,0,0-.01.01-.07.07-.12.17-.17.26-.06.09-.14.17-.18.28,0,0,0,0,0,0h0c-.08.2-.13.42-.13.64h0s0,.01,0,.01v27.89c0,.92.75,1.67,1.67,1.67s1.67-.75,1.67-1.67v-20.49c15.49,29.53,46.06,48.24,79.84,48.24,43.84,0,80.9-31.01,88.69-73.93,6.27-.31,11.29-5.5,11.29-11.85ZM188.12,112.31c-4.7,0-8.53-3.83-8.53-8.53s3.83-8.53,8.53-8.53,8.53,3.83,8.53,8.53-3.83,8.53-8.53,8.53Z"/>
  <path class="st0" d="M0,96.22c0,6.55,5.33,11.88,11.88,11.88s11.88-5.33,11.88-11.88c0-5.6-3.9-10.29-9.12-11.54C22.25,43.51,57.87,13.79,99.98,13.79c33.54,0,63.8,19.17,78.24,49.17l-20.58-8.44c-.21-.09-.42-.13-.63-.13-.66,0-1.28.39-1.55,1.04-.35.85.06,1.83.91,2.18l24.46,10.03s0,0,.01,0h0s0,0,0,0c.15.06.3.07.46.09.06,0,.11.03.17.03,0,0,0,0,0,0,.22,0,.44-.04.64-.13,0,0,0,0,0,0h0s.02-.02.03-.02c.1-.05.18-.12.27-.18.07-.05.16-.09.22-.15,0,0,0,0,.01-.01.07-.07.12-.17.17-.26.06-.09.14-.17.18-.28,0,0,0,0,0,0h0c.08-.2.13-.42.13-.64h0s0-.01,0-.01v-27.89c0-.92-.75-1.67-1.67-1.67s-1.67.75-1.67,1.67v20.49c-15.49-29.53-46.06-48.24-79.84-48.24-43.84,0-80.9,31.01-88.69,73.93-6.27.31-11.29,5.5-11.29,11.85ZM11.88,87.69c4.7,0,8.53,3.83,8.53,8.53s-3.83,8.53-8.53,8.53-8.53-3.83-8.53-8.53,3.83-8.53,8.53-8.53Z"/>
</svg>