<?xml version="1.0" encoding="UTF-8"?>
<svg id="Ebene_1" xmlns="http://www.w3.org/2000/svg" version="1.1" viewBox="0 0 160 160">
  <!-- Generator: Adobe Illustrator 30.0.0, SVG Export Plug-In . SVG Version: 2.1.1 Build 123)  -->
  <defs>
    <style>
      .st0 {
        fill: #6e9de7;
      }

      .st1 {
        fill: #ffb800;
      }

      .st2 {
        fill: #fff;
      }

      .st3 {
        fill: #1c2761;
      }
    </style>
  </defs>
  <path class="st3" d="M80.23,160c-.58,0-1.05-.47-1.05-1.05V1.05c0-.58.47-1.05,1.05-1.05s1.05.47,1.05,1.05v157.9c0,.58-.47,1.05-1.05,1.05Z"/>
  <path class="st3" d="M137.41,160c-.58,0-1.05-.47-1.05-1.05V1.05c0-.58.47-1.05,1.05-1.05s1.05.47,1.05,1.05v157.9c0,.58-.47,1.05-1.05,1.05Z"/>
  <path class="st3" d="M157.23,30.39H2.76c-.58,0-1.05-.47-1.05-1.05s.47-1.05,1.05-1.05h154.47c.58,0,1.05.47,1.05,1.05s-.47,1.05-1.05,1.05Z"/>
  <path class="st3" d="M157.23,76.31H2.76c-.58,0-1.05-.47-1.05-1.05s.47-1.05,1.05-1.05h154.47c.58,0,1.05.47,1.05,1.05s-.47,1.05-1.05,1.05Z"/>
  <path class="st3" d="M157.23,132.89H2.76c-.58,0-1.05-.47-1.05-1.05s.47-1.05,1.05-1.05h154.47c.58,0,1.05.47,1.05,1.05s-.47,1.05-1.05,1.05Z"/>
  <path class="st3" d="M34.21,160c-.58,0-1.05-.47-1.05-1.05V1.05c0-.58.47-1.05,1.05-1.05s1.05.47,1.05,1.05v157.9c0,.58-.47,1.05-1.05,1.05Z"/>
  <rect class="st2" x="62.4" y="57.47" width="35.78" height="35.78" rx="8.36" ry="8.36"/>
  <path class="st1" d="M90.88,94.3h-21.19c-4.6,0-8.35-3.74-8.35-8.34v-21.19c0-4.6,3.74-8.34,8.35-8.34h21.19c4.6,0,8.35,3.74,8.35,8.34v21.19c0,4.6-3.74,8.34-8.35,8.34ZM69.69,58.52c-3.44,0-6.25,2.8-6.25,6.25v21.19c0,3.44,2.8,6.25,6.25,6.25h21.19c3.44,0,6.25-2.8,6.25-6.25v-21.19c0-3.44-2.8-6.25-6.25-6.25h-21.19Z"/>
  <rect class="st1" x="68.54" y="63.61" width="23.5" height="23.5" rx="3.63" ry="3.63"/>
  <g>
    <path class="st0" d="M103.43,99.29c-.27,0-.53-.1-.74-.3l-3.14-3.09c-.41-.41-.42-1.07-.01-1.48.41-.41,1.07-.42,1.48-.01l3.14,3.09c.41.41.42,1.07.01,1.48-.21.21-.48.31-.75.31Z"/>
    <path class="st0" d="M113.44,109.14c-.27,0-.53-.1-.74-.3l-5.39-5.3c-.41-.41-.42-1.07-.01-1.48.41-.41,1.07-.42,1.48-.01l5.39,5.3c.41.41.42,1.07.01,1.48-.21.21-.48.31-.75.31Z"/>
    <path class="st0" d="M123.44,118.99c-.27,0-.53-.1-.74-.3l-5.39-5.3c-.41-.41-.42-1.07-.01-1.48.41-.41,1.07-.42,1.48-.01l5.39,5.3c.41.41.42,1.07.01,1.48-.21.21-.48.31-.75.31Z"/>
    <path class="st0" d="M131.78,127.21c-.27,0-.53-.1-.74-.3l-3.72-3.66c-.41-.41-.42-1.07-.01-1.48.41-.41,1.07-.42,1.48-.01l3.72,3.66c.41.41.42,1.07.01,1.48-.21.21-.48.31-.75.31Z"/>
  </g>
  <path class="st0" d="M129.04,37.27c-.32,0-.64-.15-.85-.43-.34-.47-.24-1.13.23-1.47l3.56-2.58c.47-.34,1.13-.23,1.47.23.34.47.24,1.13-.23,1.47l-3.56,2.58c-.19.13-.4.2-.62.2Z"/>
  <path class="st0" d="M118.68,44.77c-.32,0-.65-.15-.85-.43-.34-.47-.24-1.13.23-1.47l6.13-4.44c.47-.34,1.13-.23,1.46.23.34.47.24,1.13-.23,1.47l-6.13,4.44c-.19.13-.4.2-.61.2Z"/>
  <path class="st0" d="M107.99,52.52c-.32,0-.65-.15-.85-.43-.34-.47-.24-1.13.23-1.47l6.46-4.68c.47-.34,1.13-.23,1.46.23.34.47.24,1.13-.23,1.47l-6.46,4.68c-.19.13-.4.2-.61.2Z"/>
  <path class="st0" d="M100.11,58.23c-.32,0-.65-.15-.85-.43-.34-.47-.24-1.13.23-1.47l3.65-2.65c.47-.34,1.13-.23,1.46.23.34.47.24,1.13-.23,1.47l-3.65,2.65c-.19.13-.4.2-.61.2Z"/>
  <path class="st0" d="M38.14,126.95c-.23,0-.47-.08-.66-.23-.45-.36-.52-1.02-.16-1.48l3.11-3.84c.36-.45,1.02-.52,1.48-.16.45.36.52,1.02.16,1.48l-3.11,3.84c-.21.26-.51.39-.82.39Z"/>
  <path class="st0" d="M44.43,119.19c-.23,0-.47-.08-.66-.23-.45-.36-.52-1.02-.16-1.48l4.57-5.65c.36-.45,1.02-.52,1.48-.16.45.36.52,1.02.16,1.48l-4.57,5.65c-.21.26-.51.39-.82.39Z"/>
  <path class="st0" d="M52.18,109.61c-.23,0-.47-.08-.66-.23-.45-.36-.52-1.03-.16-1.48l4.61-5.7c.36-.45,1.02-.52,1.48-.16.45.36.52,1.03.16,1.48l-4.61,5.7c-.21.26-.51.39-.82.39Z"/>
  <path class="st0" d="M59.97,99.99c-.23,0-.47-.08-.66-.23-.45-.36-.52-1.03-.16-1.48l2.39-2.95c.36-.45,1.02-.52,1.48-.16.45.36.52,1.03.16,1.48l-2.39,2.95c-.21.26-.51.39-.82.39Z"/>
</svg>