<?xml version="1.0" encoding="UTF-8"?>
<svg id="Ebene_1" xmlns="http://www.w3.org/2000/svg" version="1.1" viewBox="0 0 160 160">
  <!-- Generator: Adobe Illustrator 30.0.0, SVG Export Plug-In . SVG Version: 2.1.1 Build 123)  -->
  <defs>
    <style>
      .st0 {
        fill: #6e9de7;
      }

      .st1 {
        fill: #2b2b2b;
      }

      .st2 {
        fill: #ffb800;
      }

      .st3 {
        fill: #1c2761;
      }
    </style>
  </defs>
  <path class="st1" d="M23.43,110.38c-.08,0-.16-.02-.23-.06-9.16-4.84-15.14-14.26-15.62-24.59-.01-.27.2-.5.47-.51.28-.01.5.2.51.47.47,9.99,6.25,19.09,15.1,23.77.24.13.33.42.2.66-.09.17-.26.26-.43.26Z"/>
  <path class="st0" d="M36.95,113.74c-3.67,0-7.24-.67-10.62-1.98-.25-.1-.38-.38-.28-.63.1-.25.38-.38.63-.28,3.26,1.27,6.71,1.91,10.26,1.91,2.72,0,5.37-.38,7.9-1.12,1.8-.51,3.54-1.21,5.18-2.07.24-.12.54-.03.66.2.13.24.04.54-.2.66-1.7.9-3.51,1.62-5.37,2.15-2.61.77-5.36,1.16-8.17,1.16Z"/>
  <path class="st0" d="M8.11,82.82s-.02,0-.03,0c-.27-.02-.47-.25-.45-.52.8-11.78,8.54-21.88,19.7-25.74,3.07-1.07,6.3-1.61,9.62-1.61.55,0,1.11.01,1.65.04.27.02.48.25.46.52-.02.27-.24.48-.52.46-.52-.03-1.06-.04-1.59-.04-3.21,0-6.33.53-9.3,1.56-10.79,3.73-18.27,13.5-19.05,24.88-.02.26-.23.46-.49.46Z"/>
  <path class="st0" d="M65.81,83.23c-.26,0-.47-.2-.49-.46-.16-2.9-.76-5.75-1.78-8.45-2.19-5.83-6.31-10.84-11.6-14.11-.23-.14-.3-.44-.16-.67.14-.23.44-.3.67-.16,5.47,3.39,9.73,8.57,12,14.6,1.06,2.8,1.68,5.74,1.85,8.75.01.27-.19.5-.46.52,0,0-.02,0-.03,0Z"/>
  <path class="st1" d="M49.26,118.7c-.18,0-.35-.11-.41-.29-.08-.23.04-.48.26-.56.33-.12.66-.24.99-.38.22-.09.48,0,.57.23s-.01.48-.23.57c-.34.15-.69.28-1.03.4-.05.02-.1.03-.15.03Z"/>
  <path class="st1" d="M72.77,80.29c-.24,0-.44-.19-.44-.43h0c0-.25.19-.45.44-.45s.44.19.44.44-.19.44-.44.44Z"/>
  <path class="st1" d="M1.49,93.48c-.19,0-.37-.13-.42-.33C.48,90.81.12,88.39,0,85.96c-.01-.24.17-.44.41-.46.22-.02.44.17.46.41.12,2.38.47,4.74,1.04,7.03.06.23-.08.47-.32.53-.04,0-.07.01-.11.01Z"/>
  <path class="st1" d="M11.18,110.44c-.11,0-.22-.04-.31-.13-3.78-3.73-6.64-8.13-8.52-13.07-.02-.05-.03-.1-.03-.16,0-.24.19-.44.44-.44.21,0,.38.14.43.33,1.83,4.8,4.62,9.08,8.3,12.72.17.17.17.44,0,.62-.08.09-.2.13-.31.13Z"/>
  <path class="st1" d="M36.71,120.93c-8.29,0-16.12-2.7-22.63-7.8-.19-.15-.22-.42-.07-.61.15-.19.42-.22.61-.07,6.36,4.98,14,7.62,22.1,7.62,3.09,0,6.16-.39,9.12-1.17.24-.06.47.08.53.31.06.23-.08.47-.31.53-3.04.8-6.18,1.2-9.34,1.2Z"/>
  <path class="st0" d="M80.06,108.57c-17.62,0-31.98-13.78-32.69-31.37-.01-.25.18-.46.43-.47.21-.01.46.18.47.43.69,17.1,14.65,30.5,31.79,30.5.09,0,.18,0,.27,0,.25-.01.47.16.49.41.02.25-.16.47-.41.49-.12.01-.24.01-.36.01Z"/>
  <path class="st0" d="M25.87,39.17c-.09,0-.19-.03-.27-.09-.2-.15-.24-.43-.09-.63,1.71-2.27,3.63-4.47,5.71-6.55.18-.18.46-.18.64,0s.18.46,0,.64c-2.05,2.05-3.94,4.22-5.62,6.45-.09.12-.22.18-.36.18Z"/>
  <path class="st0" d="M13.88,67.38s-.05,0-.07,0c-.25-.04-.42-.27-.38-.52.93-6.01,2.72-11.83,5.31-17.28.11-.22.38-.32.6-.21.23.11.32.38.21.6-2.56,5.38-4.32,11.11-5.23,17.03-.03.22-.23.38-.45.38Z"/>
  <path class="st0" d="M20.91,46.77c-.07,0-.15-.02-.22-.06-.22-.12-.3-.4-.17-.61.92-1.64,1.81-3.1,2.73-4.47.14-.21.42-.26.63-.12.21.14.26.42.12.63-.91,1.34-1.78,2.78-2.69,4.4-.08.15-.24.23-.4.23Z"/>
  <path class="st0" d="M34.37,30c-.12,0-.25-.05-.34-.15-.17-.19-.15-.47.04-.64,1.49-1.32,3.08-2.59,4.72-3.78.2-.15.48-.1.63.1.15.2.1.48-.1.63-1.62,1.18-3.19,2.43-4.65,3.72-.09.08-.19.11-.3.11Z"/>
  <path class="st0" d="M17.88,92.55c-.18,0-.34-.11-.41-.28-1-2.5-1.5-5.13-1.5-7.82,0-6.87,3.37-13.31,9.01-17.23,3.52-2.46,7.67-3.77,11.99-3.77,4.92,0,9.7,1.74,13.47,4.89.19.16.21.44.06.63-.16.19-.44.21-.63.06-3.61-3.02-8.2-4.68-12.9-4.68-4.14,0-8.1,1.25-11.48,3.61-5.4,3.75-8.63,9.92-8.63,16.5,0,2.58.48,5.1,1.44,7.49.09.23-.02.49-.25.58-.05.02-.11.03-.16.03Z"/>
  <path class="st0" d="M36.96,105.44c-7.41,0-14.35-3.97-18.11-10.36-.12-.21-.05-.48.16-.61.21-.12.48-.05.61.16,3.6,6.12,10.24,9.92,17.34,9.92.76,0,1.51-.04,2.24-.13,6.11-.68,11.5-4.07,14.79-9.3.13-.21.41-.27.61-.14.21.13.27.41.14.61-3.43,5.46-9.06,9-15.44,9.71-.76.09-1.55.13-2.34.13Z"/>
  <path class="st0" d="M105.11,44.54c-.12,0-.24-.04-.34-.12-.68-.54-1.3-.99-1.9-1.4-.25-.17-.31-.5-.15-.75.17-.25.5-.31.75-.15.63.42,1.27.9,1.97,1.45.23.19.27.53.09.76-.11.13-.27.2-.42.2Z"/>
  <path class="st0" d="M89.03,116.9c-.25,0-.47-.17-.53-.42-.07-.29.12-.58.41-.65,2.11-.47,4.21-1.14,6.24-1.97.27-.11.59.02.71.3.11.28-.02.59-.3.71-2.09.86-4.25,1.54-6.42,2.03-.04,0-.08.01-.12.01Z"/>
  <path class="st0" d="M51.9,106.88c-.13,0-.26-.05-.37-.14-.88-.82-1.73-1.68-2.52-2.56-.2-.22-.18-.57.04-.77.22-.2.57-.18.77.04.78.87,1.59,1.68,2.46,2.49.22.2.23.55.03.77-.11.12-.25.17-.4.17Z"/>
  <path class="st0" d="M44.59,97.82c-.18,0-.37-.09-.47-.27-3.8-6.38-5.81-13.71-5.81-21.2,0-4.21.62-8.34,1.84-12.28.53-1.7,1.18-3.38,1.92-5,.12-.27.44-.39.72-.27.27.12.39.45.27.72-.72,1.58-1.35,3.22-1.87,4.87-1.19,3.84-1.79,7.86-1.79,11.96,0,7.29,1.96,14.43,5.65,20.64.15.26.07.59-.19.74-.09.05-.18.08-.28.08Z"/>
  <path class="st1" d="M79.89,117.92c-9.49,0-18.43-3.11-25.83-9-.23-.19-.27-.53-.09-.76.19-.23.53-.27.76-.09,7.21,5.73,15.91,8.77,25.16,8.77,1.33,0,2.68-.07,4.12-.2l.06.54v.54c-1.44.14-2.82.21-4.19.21Z"/>
  <path class="st0" d="M98.61,113.41c-.2,0-.39-.11-.48-.3-.14-.27-.03-.59.24-.73,2.46-1.25,4.81-2.79,6.99-4.56.23-.19.57-.15.76.08.19.23.15.57-.08.76-2.24,1.82-4.66,3.39-7.18,4.68-.08.04-.16.06-.25.06Z"/>
  <path class="st0" d="M114.79,55.32c-.18,0-.36-.09-.46-.26-1.63-2.65-3.61-5.15-5.89-7.41-.21-.21-.21-.55,0-.77.21-.21.56-.21.77,0,2.34,2.33,4.37,4.89,6.05,7.61.16.25.08.59-.18.75-.09.05-.19.08-.28.08Z"/>
  <path class="st0" d="M88.11,37.5s-.06,0-.08,0c-2.74-.43-5.55-.56-8.35-.41-.29.03-.55-.21-.57-.51-.02-.3.21-.55.51-.57,2.87-.16,5.75-.02,8.57.42.3.05.5.32.45.62-.04.27-.27.46-.54.46Z"/>
  <path class="st1" d="M101.33,41.97c-.09,0-.18-.02-.26-.07-3.91-2.12-8.11-3.58-12.49-4.32-.23-.04-.38-.06-.54-.08-.3-.04-.51-.3-.47-.6.03-.3.3-.51.6-.47.17.02.34.05.52.08,4.57.78,8.88,2.27,12.89,4.45.26.14.36.47.22.74-.1.18-.28.28-.48.28Z"/>
  <path class="st1" d="M66.75,91.94c-.16,0-.31-.07-.42-.2-1.88-2.31-4.13-4.2-6.7-5.61-1.2-.66-2.43-1.19-3.66-1.59-.29-.09-.44-.4-.35-.68.09-.28.4-.44.68-.35,1.29.42,2.59.98,3.84,1.67,2.69,1.48,5.06,3.45,7.02,5.87.19.23.15.57-.08.76-.1.08-.22.12-.34.12Z"/>
  <path class="st1" d="M71.55,101.14c-.24,0-.45-.16-.52-.39-.27-.97-.92-2.95-2.18-5.25-.14-.26-.05-.59.22-.74.26-.14.59-.05.74.22,1.31,2.39,1.99,4.46,2.27,5.47.08.29-.09.59-.37.67-.05.01-.1.02-.15.02Z"/>
  <path class="st1" d="M34.82,87.22c-.18,0-.36-.09-.46-.26-.16-.26-.07-.59.18-.74.33-.2,8.21-4.89,17.57-3.66.3.04.51.31.47.61-.04.3-.31.51-.61.47-8.99-1.18-16.55,3.32-16.87,3.51-.09.05-.18.08-.28.08Z"/>
  <path class="st0" d="M103.08,55.03c-.14,0-.28-.06-.39-.17-1.43-1.49-3.04-2.84-4.79-4.02-.25-.17-.31-.5-.15-.75.17-.25.51-.31.75-.15,1.81,1.23,3.49,2.63,4.97,4.17.21.22.2.56-.01.77-.11.1-.24.15-.38.15Z"/>
  <path class="st0" d="M94.41,48.76c-.08,0-.16-.02-.23-.05-.56-.27-1.13-.52-1.74-.77-4.99-2.01-9.53-2.26-12.46-2.11-.3,0-.55-.22-.57-.51-.01-.3.22-.55.51-.57,3.03-.15,7.75.1,12.92,2.19.63.25,1.23.52,1.8.8.27.13.38.45.25.72-.09.19-.29.31-.49.31Z"/>
  <path class="st0" d="M141.38,70.99c-.2,0-.39-.1-.49-.28-3.66-6.36-10.49-10.32-17.83-10.32-1.31,0-2.59.12-3.8.36-.3.06-.6-.14-.66-.45-.06-.31.14-.6.45-.66,1.28-.25,2.64-.38,4.02-.38,7.74,0,14.95,4.17,18.81,10.89.16.27.06.62-.21.77-.09.05-.19.08-.28.08Z"/>
  <path class="st0" d="M123.06,102.68c-3.31,0-6.49-.73-9.46-2.17-.28-.14-.4-.47-.26-.76.14-.28.47-.4.76-.26,2.81,1.36,5.83,2.05,8.96,2.05,11.35,0,20.58-9.23,20.58-20.58,0-2.37-.4-4.69-1.2-6.91-.11-.29.05-.62.34-.72.3-.1.62.05.72.34.84,2.34,1.26,4.79,1.26,7.29,0,11.97-9.74,21.71-21.71,21.71Z"/>
  <path class="st1" d="M152.06,80.62c-.26,0-.47-.2-.48-.46-.32-9.75-5.54-18.52-13.95-23.46-.23-.13-.3-.43-.17-.65.13-.23.43-.3.66-.17,8.7,5.11,14.09,14.17,14.42,24.25,0,.26-.2.49-.46.49h-.02Z"/>
  <path class="st0" d="M134.35,54.99c-.06,0-.12-.01-.18-.04-3.45-1.44-7.12-2.17-10.9-2.17-1.58,0-3.14.13-4.64.38-.25.04-.51-.13-.55-.39-.04-.26.13-.51.39-.55,1.55-.26,3.17-.4,4.8-.4,3.91,0,7.69.75,11.26,2.24.24.1.36.38.26.63-.08.18-.25.29-.44.29Z"/>
  <path class="st1" d="M146.68,52.92c-.11,0-.22-.04-.31-.11-4.77-3.86-10.5-6.37-16.55-7.23-.27-.04-.46-.29-.42-.56.04-.27.3-.46.56-.42,6.23.89,12.12,3.47,17.03,7.44.21.17.24.48.07.69-.1.12-.24.18-.38.18Z"/>
  <path class="st0" d="M113.84,47.06c-.21,0-.4-.13-.47-.34-.09-.26.05-.54.31-.63,5.19-1.76,10.84-2.27,16.28-1.5.27.04.46.29.42.56-.04.27-.3.46-.56.42-5.28-.76-10.78-.26-15.82,1.46-.05.02-.11.03-.16.03Z"/>
  <path class="st1" d="M159.48,80.88s-.01,0-.02,0c-.27,0-.49-.24-.48-.51.01-.35.02-.72.02-1.07,0-2.1-.2-4.22-.59-6.3-.05-.27.13-.53.39-.58.27-.05.53.13.58.39.4,2.14.61,4.32.61,6.48,0,.36-.01.74-.02,1.1,0,.27-.23.48-.49.48Z"/>
  <path class="st1" d="M157.7,68.74c-.21,0-.4-.13-.47-.34-1.61-4.77-4.32-9.21-7.85-12.84-.19-.2-.18-.51.01-.7.19-.19.51-.19.7.01,3.63,3.74,6.42,8.31,8.07,13.21.09.26-.05.54-.31.63-.05.02-.11.03-.16.03Z"/>
  <path class="st0" d="M138.12,115.59c-.08,0-.17-.02-.25-.07-.23-.14-.3-.43-.16-.66,3.12-5.12,5.12-9.82,6.28-13-5.32,5.31-12.66,8.55-20.72,8.55-3.8,0-7.48-.71-10.92-2.11-.24-.1-.36-.38-.26-.62.1-.24.38-.36.62-.26,3.33,1.35,6.88,2.04,10.56,2.04,8.56,0,16.28-3.77,21.49-9.82.04-.11.11-.19.21-.24,3.53-4.19,5.86-9.43,6.48-15.25.03-.26.27-.45.53-.43.26.03.45.26.43.53-.64,6.07-3.09,11.53-6.79,15.87-.97,2.98-3.14,8.79-7.08,15.25-.09.15-.25.23-.41.23Z"/>
  <path class="st0" d="M127.71,128.88c-.13,0-.27-.05-.37-.15-.2-.2-.2-.54,0-.74,1.07-1.06,2.02-2.07,2.91-3.09.19-.22.52-.24.74-.04s.24.52.04.74c-.91,1.03-1.88,2.05-2.96,3.13-.1.1-.24.15-.37.15Z"/>
  <path class="st0" d="M105.97,142.9c-.21,0-.41-.13-.49-.33-.11-.27.03-.57.29-.68l1.4-.55c1.08-.44,2.17-.92,3.24-1.42.26-.12.57-.01.7.25.12.26.01.57-.25.7-1.09.51-2.2,1-3.3,1.45l-1.41.56c-.06.03-.13.04-.19.04Z"/>
  <path class="st0" d="M88.72,146.67c-.27,0-.5-.21-.52-.48-.02-.29.19-.54.48-.56,1.52-.11,2.91-.27,4.26-.47.29,0,.57.23.57.52s-.19.52-.48.52h-.01c-1.3.2-2.71.36-4.26.48-.01,0-.03,0-.04,0Z"/>
  <path class="st0" d="M47.25,136.13c-.1,0-.19-.03-.28-.08-4.34-2.73-8.42-5.93-12.11-9.5-.21-.2-.21-.53-.01-.74.2-.21.53-.21.74-.01,3.64,3.52,7.66,6.68,11.94,9.37.24.15.32.48.16.72-.1.16-.27.24-.44.24Z"/>
  <path class="st0" d="M83.82,146.85c-9.1,0-18.08-1.86-26.7-5.52-.27-.11-.39-.42-.28-.69.11-.27.42-.39.69-.28,8.68,3.7,17.74,5.54,26.91,5.44h0c.29,0,.52.23.52.52,0,.29-.23.53-.52.53-.21,0-.42,0-.63,0Z"/>
  <path class="st0" d="M97.57,145.38c-.24,0-.46-.17-.51-.41-.06-.28.11-.56.4-.62,1.55-.34,2.96-.71,4.31-1.12.28-.08.57.07.65.35.08.28-.07.57-.35.65-1.38.42-2.81.79-4.39,1.14-.04,0-.08.01-.11.01Z"/>
  <path class="st0" d="M120.06,135.36c-.16,0-.32-.08-.43-.22-.17-.24-.11-.56.12-.73,1.47-1.05,2.88-2.16,4.19-3.29.22-.19.55-.16.74.06.19.22.16.55-.06.74-1.34,1.15-2.77,2.28-4.27,3.34-.09.07-.2.1-.3.1Z"/>
  <path class="st0" d="M133.54,122.28c-.11,0-.22-.04-.32-.11-.23-.18-.27-.5-.1-.73.92-1.2,1.79-2.4,2.58-3.55.16-.24.49-.3.73-.14.24.16.3.49.14.73-.8,1.17-1.68,2.38-2.62,3.6-.1.13-.26.2-.42.2Z"/>
  <path class="st3" d="M51.57,157.06s-.03,0-.04,0c-.6-.02-1.07-.53-1.05-1.13.17-4.72.48-14.18.61-24.52.02-1.4.06-4-.78-7.3-.47-1.82-1.15-3.62-2.03-5.35-.5-.97-1.05-1.91-1.7-2.88,0,0,0-.01-.01-.02l-18.58-23.47c-2.23-2.73-3.86-5.99-4.7-9.42-.85-3.44-.92-6.98-.22-10.51l6.35-29.69c.72-2.83,2.12-5.15,4.06-6.75,2.83-2.33,6.15-2.59,7.57-2.7.86-.07,1.93-.13,3.23-.19-.1-.61-.15-1.23-.15-1.85v-11.6c0-6.4,5.2-11.6,11.6-11.6h.52c3.94,0,7.42,1.97,9.52,4.98.73-5.7,5.61-10.11,11.51-10.11,3.1,0,6.01,1.21,8.19,3.4,2.19,2.19,3.4,5.1,3.4,8.21v1.65c2.11-2.93,5.55-4.85,9.43-4.85,3.1,0,6.02,1.21,8.21,3.4,2.19,2.19,3.4,5.1,3.4,8.21v3.69c2.11-2.93,5.55-4.84,9.43-4.84,3.1,0,6.02,1.21,8.21,3.4,2.19,2.19,3.4,5.1,3.4,8.19v23.64c.55,9.34.55,18.76,0,28-.71,11.83-1.97,17.15-3.21,21.14-1.91,6.11-4.53,11.39-7.58,15.27-1.38,2.05-2.4,4.19-3.06,6.41-.99,3.34-.96,6.03-.93,7.63.08,5.61.04,12.85,0,20.5,0,.6-.49,1.08-1.09,1.08h0c-.6,0-1.09-.49-1.08-1.09.04-7.65.08-14.87,0-20.44-.02-1.64-.06-4.65,1.02-8.31.09-.32.2-.63.3-.94-3.47,2.79-6.43,3.93-7.73,4.34-2.48.79-5.06,1.14-7.73,1.07-.6-.02-1.07-.52-1.05-1.12.02-.6.53-1.04,1.12-1.05,2.4.08,4.76-.25,7.01-.97,1.18-.37,5.35-1.91,9.78-6.47.46-.48,1.03-1.1,1.72-1.96,0,0,0,0,.01-.01,2.01-2.55,4.9-7.17,7.22-14.58,1.2-3.85,2.42-9.02,3.12-20.62.42-7.1.52-14.3.29-21.5-2.07,3.17-5.65,5.27-9.71,5.27-4.65,0-8.66-2.75-10.51-6.7-1.85,3.95-5.87,6.7-10.51,6.7s-8.66-2.74-10.51-6.7c-1.85,3.95-5.86,6.7-10.5,6.7-6.4,0-11.6-5.2-11.6-11.6v-.6c-2.27.78-4.24,1.12-5.78,1.33-1.62.22-3.76.52-6.19.29l-2.47,10.66c2.97.58,5.89,1.42,8.7,2.52,3.15,1.22,8.43,3.26,13.55,7.78.03.03.06.06.09.09.56.49,1.13,1.03,1.68,1.59,1.93,1.97,6.68,7.46,9.27,15.99,1.71,5.64,4.31,14.17-.09,22.13-1.37,2.51-5.4,8.51-13.03,9.96-8.6,1.64-14.97-3.68-16.16-4.77-1.29-1.21-2.57-2.42-3.86-3.62.4,1.04.74,2.09,1.01,3.15.91,3.58.87,6.47.85,7.86-.12,10.37-.44,19.85-.61,24.58-.02.59-.5,1.05-1.09,1.05ZM48.27,114.51c.92.85,1.82,1.71,2.74,2.57l.14.13c1.87,1.74,3.73,3.48,5.59,5.23.63.57,6.52,5.69,14.27,4.22,6.72-1.28,10.3-6.63,11.52-8.87,3.95-7.16,1.62-14.84-.09-20.45-2.45-8.08-6.93-13.25-8.74-15.1-.54-.55-1.1-1.08-1.65-1.56-.04-.03-.07-.06-.1-.1-4.79-4.2-9.8-6.14-12.8-7.3-3.04-1.18-6.2-2.06-9.41-2.61-.3-.05-.56-.22-.72-.47-.17-.25-.22-.56-.15-.85l2.69-11.62c-.9-.2-1.78-.48-2.65-.84-2.29-.93-4.34-2.33-6.1-4.14-.42-.43-.41-1.12.02-1.54.43-.42,1.12-.41,1.54.02,1.55,1.6,3.36,2.82,5.36,3.64,1.08.44,2.19.75,3.3.92,0,0,.01,0,.02,0,2.53.38,4.86.06,6.56-.18,1.12-.15,3.72-.51,6.72-1.75.02,0,.03-.01.05-.02,2.44-1,4.65-2.38,6.57-4.11,1.9-1.71,4.5-4.06,5.4-8.02.39-1.74.4-3.57.03-5.44-.1-.48-.55-.85-1.08-.86-3.68-.11-7.16-.19-10.43-.25-.07,0-.15,0-.22,0-8.18-.14-15.58-.12-20.87.06-.07,0-.15.01-.22,0-1.83.07-3.25.14-4.33.23-1.32.1-4.05.32-6.36,2.21-1.58,1.31-2.73,3.23-3.32,5.57l-6.34,29.63c-.64,3.2-.57,6.42.2,9.55.77,3.12,2.25,6.08,4.29,8.58l18.58,23.49ZM67.86,55.6v1.46c0,5.2,4.23,9.43,9.43,9.43s9.42-4.23,9.42-9.43V14.55c0-2.52-.98-4.89-2.76-6.67-1.78-1.78-4.14-2.76-6.66-2.76-5.2,0-9.43,4.23-9.43,9.43v18.48c3,.05,6.17.13,9.5.23,1.54.05,2.84,1.12,3.14,2.61.43,2.18.42,4.31-.04,6.35-1.05,4.64-4.07,7.36-6.06,9.16-1.93,1.74-4.13,3.16-6.54,4.23ZM119.33,23.97c-5.2,0-9.43,4.22-9.43,9.42v23.67c0,5.2,4.23,9.43,9.43,9.43s9.42-4.22,9.43-9.42v-23.68c0-2.51-.98-4.88-2.76-6.66s-4.15-2.76-6.67-2.76ZM98.3,13.52c-5.2,0-9.43,4.23-9.43,9.43v34.11c0,5.2,4.23,9.43,9.43,9.43s9.43-4.23,9.43-9.43V22.95c0-2.52-.98-4.89-2.76-6.67s-4.15-2.76-6.67-2.76ZM55.74,10.25c-5.2,0-9.43,4.23-9.43,9.43v11.6c0,.59.06,1.18.17,1.77,5.04-.15,11.78-.17,19.21-.05v-13.31c0-5.2-4.23-9.43-9.43-9.43h-.52Z"/>
  <circle class="st2" cx="19.62" cy="128.34" r="1.51"/>
  <circle class="st2" cx="24.88" cy="128.34" r="1.51"/>
  <circle class="st2" cx="30.14" cy="128.34" r="1.51"/>
  <circle class="st2" cx="78.12" cy="137.96" r="1.51"/>
  <circle class="st2" cx="84.5" cy="137.96" r="1.51"/>
  <circle class="st2" cx="90.88" cy="137.96" r="1.51"/>
  <circle class="st2" cx="24.88" cy="133.73" r="1.51"/>
  <circle class="st2" cx="30.14" cy="133.73" r="1.51"/>
  <circle class="st2" cx="149.47" cy="130.67" r="1.51"/>
  <circle class="st2" cx="144.21" cy="130.67" r="1.51"/>
  <circle class="st2" cx="138.95" cy="130.67" r="1.51"/>
  <circle class="st2" cx="150.95" cy="38.05" r="1.51"/>
  <circle class="st2" cx="156.21" cy="38.05" r="1.51"/>
  <circle class="st2" cx="145.69" cy="38.05" r="1.51"/>
  <circle class="st2" cx="150.95" cy="43.23" r="1.51"/>
  <circle class="st2" cx="145.69" cy="43.23" r="1.51"/>
  <circle class="st2" cx="140.43" cy="38.05" r="1.51"/>
  <circle class="st2" cx="144.21" cy="125.27" r="1.51"/>
  <circle class="st2" cx="138.95" cy="125.27" r="1.51"/>
</svg>