<?xml version="1.0" encoding="UTF-8"?>
<svg id="Ebene_1" xmlns="http://www.w3.org/2000/svg" version="1.1" viewBox="0 0 200 200">
  <!-- Generator: Adobe Illustrator 30.0.0, SVG Export Plug-In . SVG Version: 2.1.1 Build 123)  -->
  <defs>
    <style>
      .st0 {
        fill: #f9b50f;
      }

      .st1 {
        fill: #1c2761;
      }
    </style>
  </defs>
  <path class="st0" d="M131.46,145.38v7.89c0,4.75-3.86,8.62-8.61,8.62h-2.49l-9.22-5.32c-.31-.18-.7-.18-1.01,0-.31.18-.51.52-.51.88v4.45h-25.65v2.25h25.65v4.66c0,.36.19.7.51.88.16.09.33.14.51.14s.35-.05.51-.14l9.58-5.53h2.13c5.99,0,10.86-4.88,10.86-10.87v-7.89h-2.25ZM111.64,159.19l6.61,3.82v.21l-6.61,3.82v-7.85Z"/>
  <circle class="st0" cx="145.01" cy="136.87" r="9.74"/>
  <path class="st1" d="M138.55,199.67s-.09,0-.13,0c-.62-.07-1.06-.63-.99-1.25l4.77-40.51c.07-.56.54-.98,1.1-.99h.02c.56,0,1.03.41,1.11.96l6.01,40.41c.09.62-.33,1.19-.95,1.28-.62.09-1.19-.33-1.28-.95l-4.77-32.05-3.78,32.12c-.07.57-.55.99-1.12.99Z"/>
  <path class="st1" d="M61.31,199.67c-.56,0-1.05-.42-1.12-.99l-3.78-32.12-4.77,32.05c-.09.61-.66,1.04-1.28.95-.61-.09-1.04-.66-.95-1.28l6.01-40.41c.08-.55.56-.96,1.11-.96h.02c.56,0,1.03.43,1.1.99l4.77,40.51c.07.62-.37,1.18-.99,1.25-.05,0-.09,0-.13,0Z"/>
  <path class="st1" d="M170.14,133.26c-.35-3.46-1.07-10.66-3.27-14.87-1.46-2.81-4.3-5.3-5.52-6.36l-.35-.31c-2.08-1.89-9.94-5.92-17.82-8.65l-2-.86c-6.24-2.69-12.48-5.39-18.7-8.08-.34-.15-.63-.32-.88-.51-.75-.6-1.41-1.3-1.96-2.09-.02-.03-.03-.05-.05-.08-1.1-1.59-1.67-3.55-1.66-5.67l.05-11.91c1.3,0,2.78.03,4.03.05,1.09.02,2.04.03,2.63.03h.02c3.29,0,6.02-2.67,6.09-5.96l.31-14.13c.51-.09,1.05-.16,1.61-.23,1.03-.13,2.1-.27,3.11-.55.74-.21,1.33-.7,1.65-1.39.36-.77.34-1.72-.06-2.6l-6.29-13.75c-.14-.96-.14-2.21-.13-3.65.02-3.64.04-8.63-2.39-14.04-4.02-8.94-11.3-12.75-13.77-14.04-2.8-1.47-10.37-4.72-20.08-3.21-2.5.39-10.11,1.56-16.57,7.68-4.33,4.09-9.43,11.66-9.17,24.43.17,8.31,3.45,15.65,4.69,18.42,1.16,2.58,2.99,5.89,4.46,8.55.97,1.75,1.8,3.26,2.14,4,.98,2.18,1.59,4.55,1.81,6.94.02,1.29.09,8.12,0,15.62,0,.23-.1,5.71-4.24,8.11-3.38,1.96-13.09,5.79-18.89,8.08-1.27.5-2.38.94-3.25,1.29-5.94,2.39-12.46,5.07-14.54,6.63-5.11,3.84-8.74,8.61-9.94,13.08-.81,3-1.63,11.03-2.43,18.8-.5,4.91-.98,9.56-1.44,12.94l-4.16,43.8c-.06.62.39,1.17,1.01,1.23.04,0,.07,0,.11,0,.57,0,1.06-.44,1.12-1.02l4.15-43.75c.47-3.38.94-8.04,1.45-12.97.79-7.68,1.6-15.63,2.36-18.45,1.06-3.93,4.47-8.37,9.12-11.87,2.02-1.52,9.83-4.66,14.03-6.34.86-.35,1.97-.78,3.23-1.28,6.24-2.46,15.67-6.19,19.19-8.23,5.15-2.98,5.36-9.32,5.37-10.03.09-7.53.02-14.38,0-15.76-.25-2.73-.92-5.33-2-7.75-.37-.83-1.19-2.31-2.22-4.18-1.45-2.62-3.26-5.88-4.37-8.38-1.19-2.65-4.34-9.69-4.49-17.54-.24-11.95,4.47-18.97,8.47-22.75,5.95-5.64,13.04-6.73,15.37-7.09,9.04-1.4,16.08,1.62,18.76,3.02,2.22,1.16,8.99,4.7,12.69,12.93,2.23,4.96,2.21,9.48,2.19,13.11,0,1.61-.01,3,.19,4.17.02.1.05.19.09.28l6.35,13.88c.12.27.15.54.07.71-.04.09-.11.15-.22.18-.85.24-1.8.36-2.79.49-.89.11-1.81.23-2.69.44-.5.12-.85.56-.86,1.07l-.33,15.03c-.05,2.08-1.77,3.76-3.84,3.76h-.02c-.58,0-1.52-.02-2.6-.03-2.65-.04-5.96-.09-7.09-.02-2.18.14-4.66.29-7.42,1.61-.92.44-2.73,1.45-4.47,3.25-.94.97-1.75,2.06-2.42,3.24-1.28,2.25-1.95,4.94-1.95,7.79v9.28l-2.59-3.02c-.41-.47-1.12-.52-1.59-.12-.47.4-.53,1.12-.12,1.59l4.57,5.32s.02.01.03.02c.02.02.04.04.06.06.01,0,.01.02.03.03.05.05.12.07.18.1,0,0,.01,0,.02.01.03.02.05.04.09.06.01,0,.03,0,.04.01.13.05.27.08.41.08s.28-.03.41-.08c.01,0,.03,0,.04-.01.03-.01.06-.04.09-.06,0,0,.01,0,.02-.01.06-.03.12-.06.18-.1.01,0,.02-.02.03-.03.02-.02.04-.04.06-.06,0-.01.02-.01.03-.02l4.57-5.32c.4-.47.35-1.18-.12-1.59-.47-.4-1.18-.35-1.59.12l-2.59,3.02v-9.28c0-2.46.57-4.77,1.66-6.68.58-1.02,1.28-1.95,2.08-2.78,1.5-1.55,3.04-2.41,3.83-2.78,2.37-1.13,4.51-1.26,6.59-1.39.16,0,.38-.02.63-.02l-.05,11.89c-.01,2.57.69,4.96,2.04,6.93,0,0,0,0,0,0,.02.03.04.06.06.09.68.97,1.49,1.84,2.44,2.6.4.31.85.58,1.37.81,6.23,2.69,12.47,5.39,18.72,8.08l2.08.89c7.98,2.77,15.47,6.72,17.12,8.22l.38.34c1.12.98,3.74,3.27,5,5.71,2,3.83,2.72,11,3.03,14.06l6.59,65.09c.06.58.55,1.01,1.12,1.01.04,0,.08,0,.11,0,.62-.06,1.07-.61,1.01-1.23l-6.59-65.09Z"/>
  <path class="st1" d="M159.27,100.62c-.6-.15-1.21.21-1.36.82-1.17,4.67-4.34,8.91-8.49,11.34-4.15,2.43-9.4,3.13-14.04,1.87-1.25-.34-2.45-.8-3.72-1.3-1-.39-2.04-.79-3.11-1.12-4.32-1.35-8.86-1.51-13.25-1.3l2.86-2.74c.45-.43.46-1.14.03-1.59-.43-.45-1.14-.46-1.59-.03l-5.06,4.86s-.03.04-.04.06c-.01.01-.03.02-.04.03,0,.01-.02.02-.03.03-.03.04-.04.09-.06.13-.03.06-.07.11-.09.17,0,.02-.02.04-.02.06-.02.06-.02.11-.03.17,0,.06-.02.12-.02.18,0,.02,0,.04,0,.06,0,0,0,.02,0,.03,0,.05.03.1.04.15.02.06.03.12.05.18.01.03.02.06.04.09.02.03.04.05.06.08.01.02.03.04.05.06.02.03.03.07.06.1.01.01.02.01.03.02.03.03.05.06.09.08,0,0,0,0,0,0l5.57,4.27c.2.16.45.23.68.23.34,0,.67-.15.89-.44.38-.49.28-1.2-.21-1.58l-3.16-2.42c4.18-.19,8.46-.05,12.47,1.2.99.31,1.99.7,2.97,1.08,1.27.49,2.58,1,3.94,1.37,1.75.48,3.55.71,5.35.71,3.63,0,7.25-.96,10.42-2.81,4.73-2.77,8.21-7.41,9.53-12.73.15-.6-.22-1.21-.82-1.36Z"/>
  <path class="st1" d="M89.72,112.39c.02-.06.03-.12.04-.17.01-.06.03-.11.03-.17,0-.01,0-.03,0-.04s0-.03,0-.04c0-.06-.02-.11-.03-.17-.01-.06-.02-.12-.04-.17-.01-.03-.02-.05-.03-.08-.02-.05-.06-.1-.1-.14-.03-.04-.04-.08-.07-.12,0-.01-.02-.02-.03-.03-.02-.02-.04-.04-.06-.06-.01,0-.01-.02-.03-.03l-5.32-4.57c-.47-.4-1.18-.35-1.59.12-.4.47-.35,1.18.12,1.59l3.02,2.59h-17.05c-9.85,0-17.87-8.02-17.87-17.87v-5.36c0-.62-.5-1.13-1.13-1.13s-1.13.5-1.13,1.13v5.36c0,11.1,9.03,20.12,20.12,20.12h17.05l-3.02,2.59c-.47.4-.53,1.12-.12,1.59.22.26.54.39.85.39.26,0,.52-.09.73-.27l5.32-4.57s.02-.02.03-.03c.02-.02.04-.04.06-.06,0-.01.02-.01.03-.02.03-.04.04-.08.07-.12.03-.05.07-.09.1-.14.01-.03.02-.05.03-.08Z"/>
  <path class="st1" d="M120.54,137.26c.02-.06.03-.12.04-.18.01-.06.03-.11.03-.17,0-.01,0-.03,0-.04s0-.03,0-.04c0-.06-.02-.11-.03-.17-.01-.06-.02-.12-.04-.18-.01-.03-.02-.05-.03-.08-.02-.05-.06-.09-.09-.14-.03-.04-.04-.09-.07-.12,0-.01-.02-.02-.03-.03-.02-.02-.04-.04-.06-.06-.01,0-.01-.02-.03-.03l-5.32-4.57c-.47-.4-1.18-.35-1.59.12-.4.47-.35,1.18.12,1.59l3.02,2.59h-3.64c-6.56,0-11.89-5.33-11.89-11.89v-4.65c0-.62-.5-1.13-1.13-1.13s-1.13.5-1.13,1.13v32.11c0,5.84-4.75,10.59-10.59,10.59h-3.51c-.62,0-1.13.5-1.13,1.13s.5,1.13,1.13,1.13h3.51c4.39,0,8.27-2.22,10.59-5.59v20.71c0,4.32-3.5,7.83-7.81,7.86l3.01-2.59c.47-.4.53-1.12.12-1.59-.4-.47-1.12-.53-1.59-.12l-5.32,4.57s-.02.02-.03.03c-.02.02-.04.04-.06.06,0,.01-.02.01-.03.03-.03.04-.04.08-.07.12-.03.05-.07.09-.1.14-.01.03-.02.05-.03.08-.02.06-.03.12-.04.18-.01.06-.03.11-.03.17,0,.01,0,.03,0,.04s0,.03,0,.04c0,.06.02.11.03.17.01.06.02.12.04.18.01.03.02.05.03.08.02.05.06.1.1.14.03.04.04.08.07.12,0,.01.02.01.03.02.02.02.04.04.06.06.01,0,.01.02.03.03l5.32,4.57c.21.18.47.27.73.27.32,0,.63-.13.85-.39.4-.47.35-1.18-.12-1.59l-3.02-2.59c5.55-.03,10.07-4.55,10.07-10.11v-47.8c2.52,3.91,6.9,6.51,11.89,6.51h3.64l-3.02,2.59c-.47.4-.53,1.12-.12,1.59.22.26.54.39.85.39.26,0,.52-.09.73-.27l5.32-4.57s.01-.02.02-.03c.02-.02.04-.04.07-.07,0-.01.02-.01.03-.02.03-.04.04-.08.07-.12.03-.05.07-.09.09-.14.01-.03.02-.05.03-.08Z"/>
  <path class="st1" d="M83.12,24.3c.02-.06.03-.12.04-.17.01-.06.03-.11.03-.17,0-.01,0-.03,0-.04s0-.03,0-.04c0-.06-.02-.11-.03-.17-.01-.06-.02-.12-.04-.17-.01-.03-.02-.05-.03-.08-.02-.05-.06-.1-.1-.14-.03-.04-.04-.08-.07-.12,0-.01-.02-.02-.03-.03-.02-.02-.04-.04-.06-.06-.01,0-.01-.02-.03-.03l-5.32-4.57c-.47-.4-1.18-.35-1.59.12-.4.47-.35,1.18.12,1.59l3.02,2.59h-21.79c-4.84,0-8.78,3.94-8.78,8.78v27.93c0,.62.5,1.13,1.13,1.13s1.13-.5,1.13-1.13v-27.93c0-3.6,2.93-6.53,6.53-6.53h21.79l-3.02,2.59c-.47.4-.53,1.12-.12,1.59.22.26.54.39.85.39.26,0,.52-.09.73-.27l5.32-4.57s.02-.02.03-.03c.02-.02.04-.04.06-.06,0-.01.02-.01.03-.02.03-.04.04-.08.07-.12.03-.05.07-.09.1-.14.01-.03.02-.05.03-.08Z"/>
  <path class="st1" d="M164.59,47.28c-.47-.4-1.18-.35-1.59.12l-2.59,3.02v-9.62c0-2.9-.56-5.67-1.68-8.24-.17-.39-.36-.8-.56-1.21-.91-1.85-3.69-7.47-9.89-10.87-4.73-2.59-9.1-2.65-11.72-2.68-5.32-.05-10.31,1.2-14.96,3.77-.54.3-.74.99-.44,1.53.3.55.99.74,1.53.44,4.19-2.32,8.72-3.49,13.47-3.49.12,0,.24,0,.36,0,2.4.03,6.43.08,10.66,2.4,5.58,3.06,8.03,8.02,8.96,9.89.18.37.35.74.51,1.1.99,2.28,1.49,4.76,1.49,7.35v9.62l-2.59-3.02c-.41-.47-1.12-.52-1.59-.12-.47.4-.53,1.12-.12,1.59l4.57,5.32s.02.01.03.02c.02.02.04.04.06.06.01,0,.01.02.03.03.05.05.12.07.18.1,0,0,.01,0,.02.01.03.02.05.04.09.06.01,0,.03,0,.04.01.13.05.27.08.41.08s.28-.03.41-.08c.01,0,.03,0,.04-.01.03-.01.06-.04.09-.06,0,0,.01,0,.02-.01.06-.03.12-.06.18-.1.01,0,.02-.02.03-.03.02-.02.04-.04.06-.06,0-.01.02-.01.03-.02l4.57-5.32c.4-.47.35-1.18-.12-1.59Z"/>
  <path class="st0" d="M107.09,57.5h-13.94c-.4,0-.77-.21-.97-.56s-.2-.78,0-1.13l6.97-12.07c.4-.7,1.55-.7,1.95,0l6.97,12.07c.2.35.2.78,0,1.13s-.57.56-.97.56ZM95.11,55.25h10.04l-5.02-8.69-5.02,8.69Z"/>
  <path class="st0" d="M63.45,91.79l-11.95-20.7c-.22-.39-.86-.39-1.09,0l-11.95,20.7c-.11.19-.11.43,0,.63s.32.31.54.31h23.9c.22,0,.43-.12.54-.31s.11-.43,0-.63Z"/>
  <circle class="st0" cx="60.33" cy="65.86" r="7.08"/>
  <path class="st1" d="M29.19,96.52c-3.56,0-6.45-2.89-6.45-6.45s2.89-6.45,6.45-6.45,6.45,2.89,6.45,6.45-2.89,6.45-6.45,6.45ZM29.19,85.42c-2.56,0-4.65,2.09-4.65,4.65s2.09,4.65,4.65,4.65,4.65-2.09,4.65-4.65-2.09-4.65-4.65-4.65Z"/>
  <path class="st1" d="M89.47,49.41c-2.5,0-4.53-2.03-4.53-4.53s2.03-4.53,4.53-4.53,4.53,2.03,4.53,4.53-2.03,4.53-4.53,4.53ZM89.47,42.02c-1.57,0-2.85,1.28-2.85,2.85s1.28,2.85,2.85,2.85,2.85-1.28,2.85-2.85-1.28-2.85-2.85-2.85Z"/>
  <path class="st0" d="M114.09,33.15c-4.96,0-8.99-4.03-8.99-8.99s4.03-8.99,8.99-8.99,8.99,4.03,8.99,8.99-4.03,8.99-8.99,8.99ZM114.09,17.35c-3.76,0-6.81,3.06-6.81,6.81s3.06,6.81,6.81,6.81,6.82-3.06,6.82-6.81-3.06-6.81-6.82-6.81Z"/>
  <path class="st0" d="M99.95,120.25c-4.5,0-8.16-3.66-8.16-8.16s3.66-8.16,8.16-8.16,8.16,3.66,8.16,8.16-3.66,8.16-8.16,8.16ZM99.95,106.18c-3.26,0-5.91,2.65-5.91,5.91s2.65,5.91,5.91,5.91,5.91-2.65,5.91-5.91-2.65-5.91-5.91-5.91Z"/>
  <path class="st1" d="M132.78,146.86c-5.46,0-9.9-4.44-9.9-9.9s4.44-9.9,9.9-9.9,9.9,4.44,9.9,9.9-4.44,9.9-9.9,9.9ZM132.78,129.31c-4.22,0-7.66,3.44-7.66,7.66s3.43,7.66,7.66,7.66,7.66-3.44,7.66-7.66-3.44-7.66-7.66-7.66Z"/>
  <path class="st1" d="M148.05,95.63c-4.07,0-7.39-3.31-7.39-7.39s3.31-7.39,7.39-7.39,7.39,3.31,7.39,7.39-3.31,7.39-7.39,7.39ZM148.05,82.77c-3.02,0-5.47,2.46-5.47,5.47s2.46,5.47,5.47,5.47,5.47-2.46,5.47-5.47-2.46-5.47-5.47-5.47Z"/>
  <path class="st1" d="M52.69,79.79h-21.56c-.4,0-.77-.21-.97-.56s-.2-.78,0-1.13l10.78-18.67c.2-.35.57-.56.97-.56h0c.4,0,.77.21.97.56l10.78,18.67c.2.35.2.78,0,1.13s-.57.56-.97.56ZM33.08,77.54h17.66l-8.83-15.3-8.83,15.3Z"/>
  <g>
    <circle class="st1" cx="167.3" cy="94.15" r="1.78"/>
    <circle class="st1" cx="173.77" cy="94.15" r="1.78"/>
    <path class="st1" d="M174.53,91.29h-8.36c-.38,0-.72-.26-.82-.63l-1.93-7.22v-.04s-.49-1.79-.49-1.79h-1.46c-.47,0-.84-.38-.84-.84s.38-.84.84-.84h2.1c.38,0,.72.26.82.63l.48,1.81h11.54c.26,0,.51.12.67.33.16.21.21.48.15.73l-1.89,7.24c-.1.37-.43.63-.82.63ZM166.81,89.61h7.06l1.45-5.55h-10l1.48,5.55Z"/>
  </g>
  <rect class="st1" x="165.2" y="73.5" width="2.25" height="10.12" transform="translate(-16.95 94.22) rotate(-30.17)"/>
  <rect class="st1" x="147.56" y="77.11" width="9.55" height="2.25" transform="translate(12.79 177.5) rotate(-62.61)"/>
  <path class="st0" d="M159.25,76.8h-.03c-.07,0-.14-.01-.2-.03h0s0,0,0,0h0s-.1-.03-.14-.05l-8.64-3.76c-.35-.15-.57-.5-.57-.88v-10.84c0-.32.16-.62.43-.8.05-.03.1-.06.16-.08l4.28-1.93h0l4.29-1.95s0,0,.01,0h0c.13-.05.24-.09.38-.08.13,0,.25.03.38.08,0,0,0,0,.01,0l8.67,3.89c.37.17.58.54.56.92v10.79c0,.38-.23.73-.57.88l-8.64,3.76s-.06.02-.09.03h0s0,0,0,0h0s0,0,0,0c-.09.03-.19.04-.29.04ZM160.21,65.63v8.75l6.73-2.93v-8.75l-2.97,1.29c-.06.03-.11.06-.17.08l-3.59,1.56ZM151.57,71.46l6.73,2.93v-8.75l-6.73-2.93v8.75ZM152.97,61.23l6.28,2.73,1.88-.82-6.21-2.79-1.95.88ZM157.25,59.3l6.26,2.81,2.02-.88-6.31-2.83-1.98.89Z"/>
  <path class="st0" d="M89.3,129.42h-26.52l-15.54-8.97c-.31-.18-.7-.18-1.01,0-.31.18-.51.52-.51.88v18.21c0,.36.19.7.51.88.16.09.33.14.51.14s.35-.05.51-.14l15.54-8.97h26.52c.56,0,1.01-.45,1.01-1.01s-.45-1.01-1.01-1.01ZM47.75,137.78v-14.71l12.74,7.35-12.74,7.35Z"/>
  <path class="st1" d="M94.38,130.82c.02-.06.03-.12.04-.17.01-.06.03-.11.03-.17,0-.01,0-.03,0-.04s0-.03,0-.04c0-.06-.02-.11-.03-.17-.01-.06-.02-.12-.04-.17-.01-.03-.02-.05-.03-.08-.02-.05-.06-.1-.1-.14-.03-.04-.04-.08-.07-.12,0-.01-.02-.02-.03-.03-.02-.02-.04-.04-.06-.06-.01,0-.01-.02-.03-.03l-5.32-4.57c-.47-.4-1.18-.35-1.59.12-.4.47-.35,1.18.12,1.59l3.02,2.59h-3.96c-5.35,0-9.7,4.35-9.7,9.7v3.85l-2.59-3.02c-.4-.47-1.12-.53-1.59-.12s-.53,1.12-.12,1.59l4.57,5.32s.02.01.03.02c.02.02.04.04.06.06.01,0,.01.02.03.03.05.05.12.07.18.1,0,0,.01,0,.02.01.03.02.06.05.09.06.01,0,.03,0,.04.01.13.05.27.08.41.08s.28-.03.41-.08c.01,0,.03,0,.04-.01.03-.01.06-.04.09-.06,0,0,.01,0,.02-.01.06-.03.12-.06.18-.1.01,0,.02-.02.03-.03.02-.02.04-.04.06-.06,0-.01.02-.01.03-.02l4.57-5.32c.4-.47.35-1.18-.12-1.59-.47-.4-1.18-.35-1.59.12l-2.59,3.02v-3.85c0-4.11,3.34-7.45,7.45-7.45h3.96l-3.02,2.59c-.47.4-.53,1.12-.12,1.59.22.26.54.39.85.39.26,0,.52-.09.73-.27l5.32-4.57s.02-.02.03-.03c.02-.02.04-.04.06-.06,0-.01.02-.01.03-.02.03-.04.04-.08.07-.12.03-.05.07-.09.1-.14.01-.03.02-.05.03-.08Z"/>
  <path class="st0" d="M88.48,197.49l-9.34-17.26v-9.8h-2.25v9.8l-9.34,17.26c-.19.35-.18.77.02,1.11.2.34.57.55.97.55h18.96c.4,0,.76-.21.97-.55.2-.34.21-.76.02-1.11ZM70.43,196.9l7.59-14.02,7.59,14.02h-15.18Z"/>
  <path class="st1" d="M88.4,171.37h-20.77c-.36,0-.69-.19-.87-.5-.18-.31-.19-.69-.02-1l10.39-18.88c.18-.32.52-.53.89-.53h0c.37,0,.71.2.89.53l10.39,18.88c.17.31.17.7-.02,1-.18.31-.51.5-.87.5ZM69.34,169.34h17.35l-8.67-15.77-8.67,15.77Z"/>
  <path class="st1" d="M111.66,34.92l-14.72-25.5c-.22-.39-.65-.62-1.13-.62s-.91.24-1.13.62l-14.72,25.5c-.23.4-.23.9,0,1.3.23.4.66.65,1.13.65h29.44c.46,0,.9-.25,1.13-.65.23-.4.23-.9,0-1.3ZM83.35,34.27l12.46-21.59,12.46,21.59h-24.93Z"/>
</svg>