<?xml version="1.0" encoding="UTF-8"?>
<svg id="Ebene_1" xmlns="http://www.w3.org/2000/svg" version="1.1" viewBox="0 0 160 160">
  <!-- Generator: Adobe Illustrator 30.0.0, SVG Export Plug-In . SVG Version: 2.1.1 Build 123)  -->
  <defs>
    <style>
      .st0 {
        fill: #6e9de7;
      }

      .st1 {
        fill: #2b2b2b;
      }
    </style>
  </defs>
  <path class="st1" d="M18.08,151.55c-.51,0-.93-.39-.97-.91-.01-.18-.27-4.4,1.02-11.91,1.12-6.57,4.38-9.86,7.25-12.13-8.81-2.22-21.48-6.89-23.89-17.51-.12-.52.21-1.04.73-1.16.52-.12,1.04.21,1.16.73,2.34,10.33,16,14.6,24.37,16.52.04,0,.09.02.13.03,1.46.33,2.75.59,3.78.8l1.27.26c5.64,1.2,10.63.81,13.37-1.04,2.49-1.68,2.08-6.06,1.81-8.96-.09-.94-.16-1.75-.14-2.37.09-2.07,1.12-3.06,2.04-3.94.71-.68,1.38-1.33,1.74-2.56.13-.44-.22-1.23-2.56-2.52-5.18,0-9.18-1.2-9.37-1.26-.51-.16-.79-.71-.63-1.22s.71-.79,1.22-.63c.05.01,3.96,1.23,8.93,1.16.05,0,.09,0,.14,0,.62-.01,1.26-.05,1.91-.11.66-.06,1.5-.23,1.76-.69.43-.74-.34-2.47-.95-3.85-.43-.95-.83-1.85-.99-2.66-.58-2.92,2.76-4.35,5.71-5.61.72-.31,1.43-.61,2.06-.92,1.15-.58,1.74-1.19,1.91-1.98.35-1.64-1-4.34-4.01-8.04-7.23-8.87-7.15-16.68-6.78-19.62.07-.57.2-1.19.34-1.87.93-4.43,2.49-11.83-9.49-29.21C27.49,8.81,1.3,10.42,1.04,10.44c-.51.05-1-.36-1.03-.9-.04-.53.36-1,.9-1.03.27-.02,27.55-1.72,41.66,18.76,12.45,18.06,10.79,25.98,9.79,30.71-.13.63-.25,1.19-.32,1.72-.34,2.7-.39,9.87,6.36,18.16,3.5,4.29,4.9,7.37,4.4,9.67-.3,1.38-1.26,2.46-2.94,3.3-.66.33-1.41.65-2.17.97-2.27.97-4.85,2.07-4.57,3.44.12.59.48,1.4.86,2.25.84,1.88,1.79,4.02.86,5.62-.46.79-1.28,1.3-2.49,1.53.96.85,1.67,1.95,1.28,3.29-.51,1.73-1.48,2.67-2.26,3.42-.83.8-1.38,1.33-1.44,2.62-.02.49.05,1.24.13,2.11.31,3.35.78,8.42-2.66,10.74-3.22,2.17-8.63,2.66-14.86,1.33l-1.25-.26c-.96-.2-2.14-.43-3.46-.73-2.98,2.23-6.61,5.06-7.77,11.88-1.24,7.26-.99,11.41-.99,11.46.03.53-.37,1-.91,1.03-.02,0-.04,0-.06,0ZM42.03,74.85c-.18,0-.37-.05-.53-.16-1.07-.71-2.52-1.39-4.1-2.02-.03,0-.05-.02-.08-.03-4.81-1.9-10.76-3.27-10.84-3.29l-1.93-.44,1.53-1.25c6.71-5.49,16.15-6.82,16.55-6.87.54-.07,1.02.3,1.09.83.07.53-.3,1.02-.83,1.09-.03,0-1.12.16-2.8.56.58.97,1.14,2.42.99,4.22-.15,1.77-.92,3.08-1.64,3.94,1.18.52,2.25,1.07,3.12,1.64.45.3.57.9.28,1.34-.19.28-.5.44-.81.44ZM28.93,67.95c2.1.54,5.49,1.49,8.6,2.69.57-.55,1.48-1.67,1.62-3.32.14-1.63-.56-2.88-1.03-3.52-2.71.79-6.15,2.1-9.19,4.16ZM20.5,61.07c-.23,0-.47-.08-.65-.25-.39-.36-.42-.98-.06-1.37,1.92-2.1,6.11-5.75,12.62-6.69,6.17-.89,11.04,1.17,13.39,2.49.47.26.64.85.37,1.32s-.85.63-1.32.37c-2.14-1.19-6.56-3.07-12.16-2.26-6.14.89-10.07,4.55-11.47,6.08-.19.21-.45.32-.72.32Z"/>
  <path class="st1" d="M141.92,151.55s-.04,0-.06,0c-.53-.03-.94-.5-.91-1.03,0-.04.25-4.2-.99-11.46-1.16-6.82-4.79-9.65-7.77-11.88-1.32.3-2.5.53-3.46.73l-1.25.26c-6.23,1.33-11.65.84-14.86-1.33-3.44-2.32-2.97-7.39-2.66-10.74.08-.87.15-1.62.13-2.11-.05-1.29-.61-1.82-1.44-2.62-.78-.75-1.76-1.69-2.26-3.42-.39-1.34.32-2.45,1.28-3.29-1.21-.23-2.02-.74-2.49-1.53-.94-1.6.02-3.74.86-5.62.38-.85.74-1.65.86-2.25.28-1.38-2.3-2.48-4.57-3.45-.76-.32-1.5-.64-2.16-.97-1.68-.84-2.64-1.92-2.94-3.3-.5-2.31.9-5.38,4.4-9.68,6.75-8.29,6.7-15.46,6.36-18.16-.07-.52-.19-1.09-.32-1.72-.99-4.73-2.66-12.65,9.79-30.71,14.11-20.48,41.39-18.78,41.66-18.76.53.04.94.5.9,1.03-.04.53-.49.94-1.04.9-.27-.01-26.45-1.62-39.93,17.93-11.98,17.38-10.42,24.79-9.49,29.21.14.68.27,1.3.34,1.87.37,2.95.45,10.76-6.78,19.62-3.01,3.7-4.36,6.4-4.01,8.04.17.79.76,1.4,1.91,1.98.63.31,1.34.62,2.06.92,2.95,1.26,6.3,2.69,5.71,5.61-.16.81-.56,1.7-.99,2.66-.62,1.38-1.39,3.11-.95,3.85.27.46,1.11.62,1.76.69.65.06,1.29.09,1.91.11.04,0,.09,0,.14,0,4.94.09,8.89-1.15,8.93-1.16.51-.16,1.05.12,1.22.63s-.12,1.05-.63,1.22c-.19.06-4.27,1.27-9.37,1.26-2.34,1.29-2.69,2.08-2.56,2.52.36,1.24,1.03,1.88,1.74,2.56.91.87,1.95,1.87,2.04,3.94.03.62-.05,1.43-.14,2.37-.27,2.9-.67,7.28,1.81,8.96,2.74,1.85,7.74,2.24,13.37,1.04l1.27-.26c1.04-.21,2.33-.47,3.78-.8.04-.01.09-.02.13-.03,8.37-1.92,22.03-6.18,24.37-16.52.12-.52.63-.85,1.16-.73.52.12.85.64.73,1.16-2.41,10.62-15.08,15.3-23.89,17.51,2.87,2.27,6.13,5.56,7.25,12.13,1.28,7.51,1.03,11.73,1.02,11.91-.03.51-.46.91-.97.91ZM117.96,74.85c-.31,0-.62-.15-.81-.44-.3-.45-.17-1.05.27-1.34.87-.57,1.95-1.13,3.12-1.64-.72-.86-1.49-2.18-1.64-3.94-.15-1.8.41-3.25.99-4.22-1.67-.4-2.77-.56-2.8-.56-.53-.07-.9-.56-.83-1.09.07-.53.57-.9,1.09-.83.4.05,9.84,1.38,16.55,6.87l1.53,1.25-1.93.44c-.08.02-6.03,1.39-10.84,3.29-.02.01-.05.02-.08.03-1.58.63-3.03,1.31-4.1,2.02-.16.11-.35.16-.53.16ZM121.88,63.79c-.47.64-1.17,1.89-1.03,3.53.14,1.65,1.03,2.76,1.62,3.32,3.11-1.19,6.51-2.14,8.6-2.69-3.04-2.06-6.48-3.37-9.19-4.16ZM139.5,61.07c-.26,0-.52-.11-.72-.32-1.4-1.53-5.33-5.19-11.47-6.08-5.62-.81-10.03,1.07-12.16,2.26-.47.26-1.06.1-1.32-.37-.26-.47-.09-1.06.37-1.32,2.35-1.31,7.21-3.39,13.39-2.49,6.52.94,10.71,4.6,12.62,6.69.36.39.33,1.01-.06,1.37-.19.17-.42.25-.66.25Z"/>
  <circle class="st0" cx="26.75" cy="30.67" r=".84"/>
  <circle class="st0" cx="32.59" cy="37.24" r=".84"/>
  <circle class="st0" cx="29.85" cy="27.79" r=".84"/>
  <circle class="st0" cx="35.6" cy="34.98" r=".84"/>
  <circle class="st0" cx="42.4" cy="19.44" r=".84"/>
  <circle class="st0" cx="46.92" cy="28.62" r=".84"/>
  <circle class="st0" cx="33.37" cy="25.24" r=".84"/>
  <circle class="st0" cx="39.32" cy="32.63" r=".84"/>
  <circle class="st0" cx="46.1" cy="17.57" r=".84"/>
  <circle class="st0" cx="50.82" cy="27.02" r=".84"/>
  <circle class="st0" cx="50.11" cy="15.7" r=".84"/>
  <circle class="st0" cx="54.83" cy="25.56" r=".84"/>
  <circle class="st0" cx="54.17" cy="14.22" r=".84"/>
  <circle class="st0" cx="59.1" cy="24.28" r=".84"/>
  <circle class="st0" cx="58.28" cy="12.85" r=".84"/>
  <circle class="st0" cx="63.21" cy="23.32" r=".84"/>
  <circle class="st0" cx="62.57" cy="11.62" r=".84"/>
  <circle class="st0" cx="67.73" cy="22.46" r=".84"/>
  <circle class="st0" cx="76.28" cy="21.77" r=".84"/>
  <circle class="st0" cx="66.86" cy="10.66" r=".84"/>
  <circle class="st0" cx="71.97" cy="22.04" r=".84"/>
  <circle class="st0" cx="71.15" cy="9.93" r=".84"/>
  <circle class="st0" cx="75.48" cy="9.43" r=".84"/>
  <circle class="st0" cx="80.8" cy="21.84" r=".84"/>
  <circle class="st0" cx="85.25" cy="22.18" r=".84"/>
  <circle class="st0" cx="93.94" cy="23.48" r=".84"/>
  <circle class="st0" cx="106.33" cy="27.11" r=".84"/>
  <circle class="st0" cx="120.36" cy="32.93" r=".84"/>
  <circle class="st0" cx="103.93" cy="38.74" r=".84"/>
  <circle class="st0" cx="95.38" cy="40.87" r=".84"/>
  <circle class="st0" cx="86.48" cy="41.76" r=".84"/>
  <circle class="st0" cx="77.85" cy="41.55" r=".84"/>
  <circle class="st0" cx="69.16" cy="39.98" r=".84"/>
  <circle class="st0" cx="60.74" cy="37.51" r=".84"/>
  <circle class="st0" cx="56.64" cy="36.08" r=".84"/>
  <circle class="st0" cx="91" cy="41.35" r=".84"/>
  <circle class="st0" cx="82.3" cy="41.76" r=".84"/>
  <circle class="st0" cx="73.68" cy="40.93" r=".84"/>
  <circle class="st0" cx="64.92" cy="38.88" r=".84"/>
  <circle class="st0" cx="107.9" cy="37.58" r=".84"/>
  <circle class="st0" cx="99.69" cy="39.91" r=".84"/>
  <circle class="st0" cx="121.23" cy="42.1" r=".84"/>
  <circle class="st0" cx="113.24" cy="45.93" r=".84"/>
  <circle class="st0" cx="101.13" cy="50.24" r=".84"/>
  <circle class="st0" cx="92.5" cy="52.37" r=".84"/>
  <circle class="st0" cx="83.95" cy="53.46" r=".84"/>
  <circle class="st0" cx="75.12" cy="53.67" r=".84"/>
  <circle class="st0" cx="66.42" cy="52.71" r=".84"/>
  <circle class="st0" cx="88.26" cy="53.05" r=".84"/>
  <circle class="st0" cx="79.5" cy="53.67" r=".84"/>
  <circle class="st0" cx="70.81" cy="53.25" r=".84"/>
  <circle class="st0" cx="62.16" cy="52.09" r=".84"/>
  <circle class="st0" cx="105.16" cy="48.94" r=".84"/>
  <circle class="st0" cx="96.88" cy="51.41" r=".84"/>
  <circle class="st0" cx="117.26" cy="44.15" r=".84"/>
  <circle class="st0" cx="124.24" cy="30.94" r=".84"/>
  <circle class="st0" cx="124.85" cy="39.84" r=".84"/>
  <circle class="st0" cx="128.02" cy="29.03" r=".84"/>
  <circle class="st0" cx="128.64" cy="37.58" r=".84"/>
  <circle class="st0" cx="131.38" cy="26.7" r=".84"/>
  <circle class="st0" cx="132.34" cy="35.39" r=".84"/>
  <circle class="st0" cx="135.07" cy="33.34" r=".84"/>
  <circle class="st0" cx="102.43" cy="25.74" r=".84"/>
  <circle class="st0" cx="89.49" cy="22.8" r=".84"/>
  <circle class="st0" cx="98.18" cy="24.44" r=".84"/>
  <circle class="st0" cx="79.82" cy="9.34" r=".84"/>
  <circle class="st0" cx="84.2" cy="9.29" r=".84"/>
  <circle class="st0" cx="88.58" cy="9.57" r=".84"/>
  <circle class="st0" cx="93" cy="10.02" r=".84"/>
  <circle class="st0" cx="97.34" cy="10.75" r=".84"/>
  <circle class="st0" cx="101.63" cy="11.8" r=".84"/>
  <circle class="st0" cx="105.92" cy="13.03" r=".84"/>
  <circle class="st0" cx="110.07" cy="14.45" r=".84"/>
  <circle class="st0" cx="114.08" cy="16.09" r=".84"/>
  <path class="st0" d="M55.52,40.7c-.27,0-.53-.15-.66-.41l-2.94-6.16c-.09-.2-.09-.43,0-.63.1-.2.28-.34.49-.39l6.09-1.44c.39-.09.78.15.87.54.09.39-.15.78-.54.87l-5.21,1.23,2.55,5.35c.17.36.02.8-.34.97-.1.05-.21.07-.31.07Z"/>
  <path class="st0" d="M104.34,31.5c-.34,0-.64-.24-.71-.58-.08-.39.17-.78.57-.86l5.25-1.06-2.38-5.42c-.16-.37,0-.8.37-.96.37-.16.79,0,.96.37l2.74,6.25c.09.2.08.43-.02.63-.1.2-.29.33-.5.38l-6.13,1.24s-.1.01-.14.01Z"/>
  <path class="st0" d="M113.92,20.62c-.34,0-.64-.24-.71-.58-.08-.39.17-.78.57-.86l5.25-1.06-2.38-5.42c-.16-.37,0-.8.37-.96.36-.16.8,0,.96.37l2.74,6.25c.09.2.08.43-.02.63-.1.2-.29.33-.5.38l-6.13,1.24s-.1.01-.14.01Z"/>
  <path class="st0" d="M60.7,56.54c-.23,0-.45-.11-.59-.3l-3.97-5.55c-.13-.18-.17-.41-.11-.62.06-.21.21-.39.41-.47l5.75-2.48c.37-.16.8.01.96.38.16.37-.01.8-.38.96l-4.92,2.12,3.44,4.82c.23.33.16.78-.17,1.02-.13.09-.28.14-.42.14Z"/>
</svg>