<?xml version="1.0" encoding="UTF-8"?>
<svg id="Ebene_1" xmlns="http://www.w3.org/2000/svg" version="1.1" viewBox="0 0 200 200">
  <!-- Generator: Adobe Illustrator 30.0.0, SVG Export Plug-In . SVG Version: 2.1.1 Build 123)  -->
  <defs>
    <style>
      .st0 {
        fill: #ff21c2;
      }

      .st1 {
        fill: #ed1c24;
      }

      .st2 {
        fill: #c1272d;
      }
    </style>
  </defs>
  <g>
    <circle class="st0" cx="100" cy="100" r="100"/>
    <circle class="st1" cx="100" cy="100" r="47.22"/>
  </g>
  <path class="st2" d="M111.31,100l66.43-66.43c3.12-3.12,3.12-8.19,0-11.31-3.12-3.12-8.19-3.12-11.31,0l-66.43,66.43L33.57,22.26c-3.12-3.12-8.19-3.12-11.31,0-3.12,3.12-3.12,8.19,0,11.31l66.43,66.43L22.26,166.43c-3.12,3.12-3.12,8.19,0,11.31,1.56,1.56,3.61,2.34,5.66,2.34s4.09-.78,5.66-2.34l66.43-66.43,66.43,66.43c1.56,1.56,3.61,2.34,5.66,2.34s4.09-.78,5.66-2.34c3.12-3.12,3.12-8.19,0-11.31l-66.43-66.43Z"/>
</svg>