<?xml version="1.0" encoding="UTF-8"?>
<svg id="Ebene_1" xmlns="http://www.w3.org/2000/svg" version="1.1" viewBox="0 0 522.32 266.21">
  <!-- Generator: Adobe Illustrator 30.0.0, SVG Export Plug-In . SVG Version: 2.1.1 Build 123)  -->
  <defs>
    <style>
      .st0 {
        fill: #ff7881;
      }

      .st1 {
        fill: #14a188;
      }
    </style>
  </defs>
  <path class="st1" d="M490.98,115.89c-9.66-12.99-19.85-21-30.6-23.95,8.55-.92,16.36-3.22,23.34-6.88,7.03-3.66,12.55-8.64,16.61-14.96,4.04-6.3,6.07-14.03,6.07-23.24,0-10.44-2.57-19.03-7.72-25.79-5.12-6.78-12.01-11.84-20.66-15.19-8.64-3.37-18.32-5.02-29.07-5.02h-38.74l4.41,4.41h34.32c9.81,0,18.68,1.53,26.63,4.56,7.95,3.05,14.24,7.59,18.93,13.66,4.66,6.09,6.99,13.87,6.99,23.36s-2.32,17.09-6.99,23.24c-4.68,6.17-10.98,10.75-18.93,13.78-7.95,3.03-16.82,4.54-26.63,4.54h-24.65c0-.27.02-.54.02-.81,0-4.92-.38-9.73-1.15-14.41-.96-5.84-2.51-11.48-4.66-16.96-1.65-4.25-3.64-8.39-6-12.42-7.86-13.47-18.53-24.16-32-32.02-13.47-7.86-28.09-11.8-43.82-11.8s-30.31,3.93-43.69,11.8c-13.41,7.86-23.99,18.55-31.77,32.02-3.39,5.84-6.02,11.9-7.93,18.16-.13-.89-.27-1.79-.44-2.68-3.43-18.09-13.97-34.66-28.93-45.46-25.94-18.74-61.76-18.18-87.1,1.36-.07.06-.14.11-.21.17-1.82-1.25-3.7-2.44-5.64-3.57C117.49,3.93,102.89,0,87.14,0s-30.31,3.93-43.69,11.8c-13.39,7.86-23.97,18.55-31.77,32.02C3.89,57.29,0,71.89,0,87.62c0,16.57,3.89,31.46,11.67,44.68,7.8,13.24,18.34,23.61,31.65,31.16,13.32,7.55,27.92,11.32,43.82,11.32s30.35-3.89,43.82-11.69c13.47-7.78,24.14-18.36,32.02-31.75,7.86-13.41,11.8-27.96,11.8-43.71s-3.93-30.33-11.8-43.8c-5.93-10.14-13.46-18.71-22.57-25.68C164.13.43,197.22.11,221.27,17.49c14.03,10.14,23.92,25.68,27.14,42.65,1.32,6.97,1.17,14.34,1.03,21.47-.04,2.04.07,6.11.07,6.11,0,7.37.8,14.41,2.34,21.11,1.92,8.32,5.04,16.15,9.35,23.47,7.78,13.24,18.34,23.61,31.65,31.16,13.3,7.55,27.9,11.32,43.82,11.32s30.35-3.89,43.82-11.69c13.47-7.78,24.14-18.36,32-31.75,5.42-9.22,8.97-18.97,10.67-29.3.5-3,.81-6.05.99-9.15h18.03c10.44,0,19.66,2.72,27.67,8.18,8.03,5.46,15.73,14.12,23.13,26.02,7.4,11.92,15.23,27.53,23.47,46.83h5.15c-10.75-25.68-20.96-45.03-30.6-58.02ZM86.4,170.15c-14.6,0-28.15-3.68-40.64-11.09-12.51-7.38-22.44-17.4-29.83-30.06-7.38-12.65-11.09-26.38-11.09-41.14s3.62-28.32,10.83-41.14c7.24-12.82,17.13-23.03,29.7-30.66,12.59-7.63,26.5-11.44,41.75-11.44s28.53,3.76,41.27,11.32c1.47.87,2.88,1.78,4.27,2.71-15.61,13.98-24.18,33.86-24.25,56.56-.07,21.22-.05,42.8-.02,63.67.01,9.48.02,18.96.02,28.45-7.04,1.88-14.38,2.82-22.01,2.82ZM158.71,46.37c7.47,12.74,11.19,26.5,11.19,41.25s-3.72,28.74-11.19,41.39c-7.47,12.65-17.61,22.67-30.43,30.06-4.95,2.86-10.08,5.17-15.36,6.93,0-9.04,0-18.08-.02-27.12-.02-20.86-.05-42.44.02-63.65.07-21.77,8.39-40.76,23.53-53.92,9.03,6.79,16.45,15.13,22.26,25.06ZM408.24,129.01c-7.49,12.65-17.61,22.67-30.43,30.06-12.82,7.4-26.79,11.09-41.87,11.09s-28.15-3.68-40.66-11.09c-12.49-7.38-22.44-17.4-29.83-30.06-7.38-12.65-11.06-26.38-11.06-41.14s3.6-28.32,10.83-41.14c7.22-12.82,17.11-23.03,29.7-30.66,12.57-7.63,26.48-11.44,41.75-11.44s28.51,3.76,41.25,11.32c12.76,7.55,22.84,17.69,30.33,30.43,7.45,12.74,11.19,26.5,11.19,41.25,0,.26-.01.52-.01.78,0,0,0,0,0,0v.54c-.22,14.43-3.94,27.79-11.17,40.07Z"/>
  <g>
    <path class="st0" d="M53.75,248.04h-16.33l-6.25,16.33c-.33.79-.66,1.25-1.51,1.25-.79,0-1.12-.33-1.12-.86,0-.2.07-.53.26-.99l15.54-40.35c.26-.72.72-1.25,1.51-1.25s1.25.53,1.51,1.25l15.01,40.35c.13.33.26.72.26.99,0,.46-.33.86-1.25.86-.79,0-1.25-.33-1.58-1.25l-6.06-16.33ZM38.28,245.8h14.61l-7.18-19.35-7.44,19.35Z"/>
    <path class="st0" d="M92.85,262.91c.39,0,.79,0,1.12.2.33.2.46.53.46.92,0,.46-.13.79-.46.99-.33.2-.72.2-1.12.2h-17.58c-.99,0-1.32-.46-1.32-1.32v-40.22c0-.4,0-.79.2-1.05.2-.33.66-.46,1.12-.46s.92.13,1.12.46c.2.26.2.66.2,1.05v39.23h16.26Z"/>
    <path class="st0" d="M124.38,262.91c.39,0,.79,0,1.12.2.33.2.46.53.46.92,0,.46-.13.79-.46.99-.33.2-.72.2-1.12.2h-17.58c-.99,0-1.32-.46-1.32-1.32v-40.22c0-.4,0-.79.2-1.05.2-.33.66-.46,1.12-.46s.92.13,1.12.46c.2.26.2.66.2,1.05v39.23h16.26Z"/>
    <path class="st0" d="M159.4,240.8h12.64c.4,0,.79,0,1.12.2s.46.53.46.92c0,.46-.13.79-.46.99s-.72.2-1.12.2h-12.64v19.81h17.25c.39,0,.79,0,1.12.2.33.2.46.53.46.92,0,.46-.13.79-.46.99-.33.2-.72.2-1.12.2h-18.56c-.99,0-1.32-.46-1.32-1.32v-39.96c0-.86.33-1.32,1.32-1.32h16.33c.39,0,.79,0,1.12.2.33.2.46.53.46.92,0,.46-.13.79-.46.99-.33.2-.72.2-1.12.2h-15.01v15.86Z"/>
    <path class="st0" d="M215.61,223.48c.46-.72.99-1.32,1.97-1.32.66,0,1.05.26,1.05.79,0,.33-.2.72-.53,1.25l-14.94,24.09v15.8c0,.39,0,.79-.2,1.05-.2.33-.66.46-1.12.46s-.92-.13-1.12-.46c-.2-.26-.2-.66-.2-1.05v-15.8l-14.55-24.09c-.33-.59-.53-.92-.53-1.25,0-.53.46-.79,1.25-.79.99,0,1.45.39,1.97,1.32l13.3,22.25,13.63-22.25Z"/>
    <path class="st0" d="M232.46,240.8h12.64c.4,0,.79,0,1.12.2s.46.53.46.92c0,.46-.13.79-.46.99s-.72.2-1.12.2h-12.64v19.81h17.25c.39,0,.79,0,1.12.2.33.2.46.53.46.92,0,.46-.13.79-.46.99-.33.2-.72.2-1.12.2h-18.56c-.99,0-1.32-.46-1.32-1.32v-39.96c0-.86.33-1.32,1.32-1.32h16.33c.39,0,.79,0,1.12.2.33.2.46.53.46.92,0,.46-.13.79-.46.99-.33.2-.72.2-1.12.2h-15.01v15.86Z"/>
    <path class="st0" d="M276.1,242.97c4.28,2.5,7.7,6.06,7.7,11.65,0,7.44-6.12,11.39-12.77,11.39-3.09,0-6.12-.86-8.56-2.44-1.45-.92-2.5-2.04-2.5-2.76,0-.66.66-1.25,1.25-1.25,1.51,0,3.49,4.08,9.74,4.08,5.73,0,10.2-3.36,10.2-8.95,0-4.41-2.83-7.31-6.06-9.28-4.87-3.03-13.82-5.86-13.82-13.82,0-5.66,4.54-9.87,11.65-9.87,5.6,0,9.87,2.63,9.87,4.01,0,.46-.39,1.19-1.12,1.19-1.38,0-3.42-2.83-8.62-2.83s-9.15,3.03-9.15,7.44c0,6.19,7.57,8.76,12.18,11.45Z"/>
    <path class="st0" d="M334.16,221.44c13.3,0,21.39,9.02,21.39,22.45s-8.23,22.32-21.59,22.32-21.39-8.89-21.39-22.32,8.23-22.45,21.59-22.45ZM334.16,263.84c11.13,0,18.56-7.24,18.56-19.95s-7.57-20.08-18.76-20.08-18.56,7.37-18.56,20.08,7.57,19.95,18.76,19.95Z"/>
    <path class="st0" d="M370.82,264.1c0,.39,0,.79-.2,1.05-.2.33-.59.46-1.05.46s-.86-.13-1.05-.46c-.2-.26-.2-.66-.2-1.05v-40.62c0-.86.33-1.32,1.25-1.32.79,0,1.32.33,1.91,1.12l28.5,37.65v-37.26c0-.4,0-.79.2-1.05.2-.33.59-.46,1.05-.46s.86.13,1.05.46c.2.26.2.66.2,1.05v40.62c0,.86-.33,1.32-1.25,1.32-.79,0-1.32-.33-1.91-1.12l-28.5-37.65v37.26Z"/>
    <path class="st0" d="M467.52,259.23c3.03-3.69,3.03-8.43,3.03-11.85v-23.7c0-.4,0-.79.2-1.05.2-.33.66-.46,1.12-.46s.92.13,1.12.46c.2.26.2.66.2,1.05v23.76c0,3.62,0,9.48-4.01,13.82-3.09,3.36-7.77,4.87-13.36,4.87-6.32,0-10.4-1.91-13.23-4.94-4.02-4.34-4.02-9.08-4.02-13.82v-23.7c0-.4,0-.79.2-1.05.2-.33.66-.46,1.12-.46s.92.13,1.12.46c.2.26.2.66.2,1.05v23.7c0,3.42,0,8.16,3.03,11.85,2.5,3.03,6.52,4.54,11.65,4.54s9.15-1.51,11.65-4.54Z"/>
    <path class="st0" d="M501.55,242.97c4.28,2.5,7.7,6.06,7.7,11.65,0,7.44-6.12,11.39-12.77,11.39-3.09,0-6.12-.86-8.56-2.44-1.45-.92-2.5-2.04-2.5-2.76,0-.66.66-1.25,1.25-1.25,1.51,0,3.49,4.08,9.74,4.08,5.73,0,10.2-3.36,10.2-8.95,0-4.41-2.83-7.31-6.06-9.28-4.87-3.03-13.82-5.86-13.82-13.82,0-5.66,4.54-9.87,11.65-9.87,5.6,0,9.87,2.63,9.87,4.01,0,.46-.39,1.19-1.12,1.19-1.38,0-3.42-2.83-8.62-2.83s-9.15,3.03-9.15,7.44c0,6.19,7.57,8.76,12.18,11.45Z"/>
  </g>
</svg>