<?xml version="1.0" encoding="UTF-8"?>
<svg id="Ebene_1" xmlns="http://www.w3.org/2000/svg" version="1.1" viewBox="0 0 200 200">
  <!-- Generator: Adobe Illustrator 30.0.0, SVG Export Plug-In . SVG Version: 2.1.1 Build 123)  -->
  <defs>
    <style>
      .st0 {
        fill: #6e9de7;
      }

      .st1 {
        fill: #1c2761;
      }

      .st2 {
        fill: #fff;
        stroke: #6e9de7;
        stroke-miterlimit: 10;
        stroke-width: 2.62px;
      }
    </style>
  </defs>
  <path class="st1" d="M100.29,200c-.72,0-1.31-.59-1.31-1.31V1.31c0-.72.59-1.31,1.31-1.31s1.31.59,1.31,1.31v197.38c0,.72-.59,1.31-1.31,1.31Z"/>
  <path class="st1" d="M171.76,200c-.72,0-1.31-.59-1.31-1.31V1.31c0-.72.59-1.31,1.31-1.31s1.31.59,1.31,1.31v197.38c0,.72-.59,1.31-1.31,1.31Z"/>
  <path class="st1" d="M196.54,37.99H3.46c-.72,0-1.31-.59-1.31-1.31s.59-1.31,1.31-1.31h193.09c.72,0,1.31.59,1.31,1.31s-.59,1.31-1.31,1.31Z"/>
  <path class="st1" d="M196.54,95.39H3.46c-.72,0-1.31-.59-1.31-1.31s.59-1.31,1.31-1.31h193.09c.72,0,1.31.59,1.31,1.31s-.59,1.31-1.31,1.31Z"/>
  <path class="st1" d="M196.54,166.12H3.46c-.72,0-1.31-.59-1.31-1.31s.59-1.31,1.31-1.31h193.09c.72,0,1.31.59,1.31,1.31s-.59,1.31-1.31,1.31Z"/>
  <path class="st1" d="M42.77,200c-.72,0-1.31-.59-1.31-1.31V1.31c0-.72.59-1.31,1.31-1.31s1.31.59,1.31,1.31v197.38c0,.72-.59,1.31-1.31,1.31Z"/>
  <g>
    <path class="st0" d="M129.29,124.12c-.33,0-.67-.13-.92-.38l-3.92-3.86c-.52-.51-.52-1.34-.02-1.85.51-.52,1.34-.52,1.85-.02l3.92,3.86c.52.51.52,1.34.02,1.85-.26.26-.6.39-.93.39Z"/>
    <path class="st0" d="M141.8,136.43c-.33,0-.66-.13-.92-.38l-6.73-6.63c-.52-.51-.52-1.34-.02-1.85.51-.52,1.34-.52,1.85-.02l6.73,6.63c.52.51.52,1.34.02,1.85-.26.26-.6.39-.93.39Z"/>
    <path class="st0" d="M154.3,148.74c-.33,0-.67-.13-.92-.38l-6.73-6.63c-.52-.51-.52-1.34-.02-1.85.51-.52,1.34-.52,1.85-.02l6.73,6.63c.52.51.52,1.34.02,1.85-.26.26-.6.39-.93.39Z"/>
    <path class="st0" d="M164.73,159.01c-.33,0-.66-.13-.92-.38l-4.65-4.58c-.52-.51-.52-1.34-.02-1.85.51-.52,1.34-.52,1.85-.02l4.65,4.58c.52.51.52,1.34.02,1.85-.26.26-.6.39-.93.39Z"/>
  </g>
  <path class="st0" d="M161.3,46.59c-.4,0-.8-.19-1.06-.54-.43-.58-.29-1.41.29-1.83l4.45-3.23c.58-.42,1.4-.3,1.83.29.43.58.29,1.41-.29,1.83l-4.45,3.23c-.23.17-.5.25-.77.25Z"/>
  <path class="st0" d="M148.35,55.97c-.4,0-.8-.19-1.06-.54-.43-.59-.29-1.41.29-1.83l7.66-5.55c.58-.42,1.4-.3,1.83.29.43.59.29,1.41-.29,1.83l-7.66,5.55c-.23.17-.5.25-.77.25Z"/>
  <path class="st0" d="M134.99,65.65c-.4,0-.81-.19-1.06-.54-.43-.59-.29-1.41.29-1.83l8.08-5.85c.58-.42,1.4-.3,1.83.29.43.59.29,1.41-.29,1.83l-8.08,5.85c-.23.17-.5.25-.77.25Z"/>
  <path class="st0" d="M125.13,72.78c-.4,0-.81-.19-1.06-.54-.43-.59-.29-1.41.29-1.83l4.57-3.31c.58-.42,1.41-.3,1.83.29.43.59.29,1.41-.29,1.83l-4.57,3.31c-.23.17-.5.25-.77.25Z"/>
  <path class="st0" d="M47.68,158.69c-.29,0-.58-.09-.82-.29-.56-.46-.65-1.28-.19-1.84l3.88-4.8c.46-.56,1.28-.65,1.84-.19s.65,1.28.19,1.84l-3.88,4.8c-.26.32-.64.49-1.02.49Z"/>
  <path class="st0" d="M55.53,148.98c-.29,0-.58-.09-.82-.29-.56-.46-.65-1.28-.19-1.84l5.72-7.06c.45-.56,1.28-.65,1.84-.19.56.46.65,1.28.19,1.84l-5.72,7.06c-.26.32-.64.49-1.02.49Z"/>
  <path class="st0" d="M65.22,137.02c-.29,0-.58-.09-.82-.29-.56-.46-.65-1.28-.19-1.84l5.77-7.13c.46-.56,1.28-.65,1.84-.19s.65,1.28.19,1.84l-5.77,7.13c-.26.32-.64.49-1.02.49Z"/>
  <path class="st0" d="M74.96,124.98c-.29,0-.58-.09-.82-.29-.56-.46-.65-1.28-.19-1.84l2.98-3.69c.45-.56,1.28-.65,1.84-.19.56.46.65,1.28.19,1.84l-2.98,3.69c-.26.32-.64.49-1.02.49Z"/>
  <rect class="st2" x="78" y="71.83" width="44.73" height="44.73" rx="9.12" ry="9.12"/>
  <rect class="st0" x="85.67" y="79.51" width="29.38" height="29.38" rx="3.96" ry="3.96"/>
</svg>