<?xml version="1.0" encoding="UTF-8"?>
<svg id="Ebene_1" xmlns="http://www.w3.org/2000/svg" version="1.1" viewBox="0 0 24 24">
  <!-- Generator: Adobe Illustrator 30.0.0, SVG Export Plug-In . SVG Version: 2.1.1 Build 123)  -->
  <defs>
    <style>
      .st0 {
        fill: #69f;
      }
    </style>
  </defs>
  <path class="st0" d="M15.61,4.65h-6.67l-2.3,14.6H1.82L4.86,0h8c3.75,0,6.37,2.29,6.47,5.51-.65-.48-2.1-.86-3.72-.86M22.18,10.2c0,3.41-3.01,6.85-6.96,6.85h-2.49l-1.13,6.95h-4.86l1.85-11.54h3.59c4.21,0,7.35-3.63,7.15-6.95,1.76.9,2.86,2.71,2.85,4.69M9.65,5.55h6.41c.91,0,1.94.22,2.36.54-.19,2.74-2.65,5.48-6.44,5.48h-3.27l.94-6.02Z"/>
</svg>