<?xml version="1.0" encoding="UTF-8"?>
<svg id="Ebene_1" xmlns="http://www.w3.org/2000/svg" version="1.1" viewBox="0 0 200 200">
  <!-- Generator: Adobe Illustrator 30.0.0, SVG Export Plug-In . SVG Version: 2.1.1 Build 123)  -->
  <defs>
    <style>
      .st0 {
        fill: #6e9de7;
      }

      .st1 {
        fill: #2b2b2b;
      }

      .st2 {
        opacity: .65;
      }
    </style>
  </defs>
  <g class="st2">
    <path class="st0" d="M90.01,154.65c.49-.36,1.03-.7,1.63-1.02l27.25-14.76c9.16-4.96,22.82-5.43,30.5-1.04l5.83,3.33c7.69,4.39,6.49,11.96-2.67,16.92l-27.25,14.76c-4.75,2.57-11.41,3.15-16.21,1.67l-56.74,24.85c-.83.36-2.58.04-3.93-.72l-5.56-3.17c-1.34-.76-1.91-1.77-1.24-2.22l46.31-30.95c-1.91-2.32-1.16-5.28,2.06-7.64Z"/>
    <path class="st0" d="M158.82,137.23l-3.77-2.15c-3.12-1.78-2.63-4.86,1.08-6.87l8.5-4.6c4.96-2.69,12.35-2.94,16.52-.56h0c4.16,2.37,3.51,6.48-1.45,9.16l-8.5,4.6c-3.72,2.01-9.26,2.2-12.38.42Z"/>
  </g>
  <g>
    <path class="st0" d="M17.84,110.35c-.14-.83-.22-1.68-.22-2.54v-39.46c0-13.27,10.75-24.02,24.02-24.02h10.07c13.27,0,24.02,10.75,24.02,24.02v39.46c0,6.87-4.69,12.59-11.02,14.22l-9.12,74.5c-.14,1.09-2.11,1.97-4.42,1.97h-9.59c-2.31,0-4.35-.88-4.49-1.97l-9.12-74.7c-5.2-1.6-9.17-6.01-10.12-11.47Z"/>
    <path class="st1" d="M51.16,200h-9.59c-2.77,0-5.71-1.13-5.98-3.29l-9-73.77c-5.28-1.99-9.25-6.74-10.22-12.33h0c-.16-.92-.24-1.86-.24-2.8v-39.46c0-14.07,11.45-25.52,25.52-25.52h10.07c14.07,0,25.52,11.45,25.52,25.52v39.46c0,7.03-4.54,13.22-11.16,15.38l-8.99,73.51c-.29,2.27-3.27,3.3-5.92,3.3ZM41.64,45.83c-12.41,0-22.51,10.1-22.51,22.51v39.46c0,.77.07,1.54.2,2.28h0c.84,4.82,4.4,8.86,9.08,10.3l.93.29,9.24,75.67c.12.07,1.24.65,3,.65h9.59c1.72,0,2.81-.57,2.98-.81l9.19-75.35.99-.25c5.82-1.51,9.89-6.75,9.89-12.76v-39.46c0-12.41-10.1-22.51-22.51-22.51h-10.07Z"/>
  </g>
  <g>
    <path class="st0" d="M34.16,1.49h22.39c1,0,1.81.81,1.81,1.81v31.89c0,.75-.61,1.36-1.36,1.36h-23.29c-.75,0-1.36-.61-1.36-1.36V3.3c0-1,.81-1.81,1.81-1.81Z"/>
    <path class="st1" d="M55.38,38.03h-20.06c-2.46,0-4.46-2-4.46-4.46V5.45c0-3.01,2.44-5.45,5.45-5.45h18.08c3.01,0,5.45,2.44,5.45,5.45v28.12c0,2.46-2,4.46-4.46,4.46ZM36.31,2.97c-1.37,0-2.48,1.11-2.48,2.48v28.12c0,.82.67,1.48,1.49,1.48h20.06c.82,0,1.49-.67,1.49-1.48V5.45c0-1.37-1.11-2.48-2.48-2.48h-18.08Z"/>
  </g>
</svg>