<?xml version="1.0" encoding="UTF-8"?>
<svg id="Ebene_1" xmlns="http://www.w3.org/2000/svg" version="1.1" viewBox="0 0 200 200">
  <!-- Generator: Adobe Illustrator 30.0.0, SVG Export Plug-In . SVG Version: 2.1.1 Build 123)  -->
  <defs>
    <style>
      .st0 {
        fill: #ffb800;
      }
    </style>
  </defs>
  <path class="st0" d="M197.88,106.96c.28-.42.49-.87.72-1.32.14-.28.32-.54.44-.83.22-.53.36-1.08.51-1.63.06-.24.16-.46.21-.7.33-1.63.33-3.31,0-4.94-.05-.25-.15-.48-.21-.73-.14-.54-.28-1.08-.5-1.61-.13-.32-.32-.6-.48-.91-.22-.42-.41-.84-.67-1.24-.35-.53-.77-1-1.2-1.47-.12-.14-.21-.29-.34-.42L108.84,3.66c-4.89-4.88-12.8-4.88-17.68,0s-4.88,12.79,0,17.68l66.16,66.16H12.5c-6.9,0-12.5,5.6-12.5,12.5s5.6,12.5,12.5,12.5h144.83l-66.17,66.16c-4.88,4.88-4.88,12.8,0,17.68,2.44,2.44,5.64,3.66,8.84,3.66s6.4-1.22,8.84-3.66l87.5-87.5c.26-.26.45-.56.68-.83.29-.35.61-.68.86-1.06Z"/>
</svg>