<?xml version="1.0" encoding="UTF-8"?>
<svg id="Ebene_1" xmlns="http://www.w3.org/2000/svg" version="1.1" viewBox="0 0 508.6 574.93">
  <!-- Generator: Adobe Illustrator 30.0.0, SVG Export Plug-In . SVG Version: 2.1.1 Build 123)  -->
  <defs>
    <style>
      .st0 {
        fill: #6e9de7;
      }

      .st1 {
        fill: none;
        stroke: #27357a;
        stroke-linecap: round;
        stroke-miterlimit: 10;
        stroke-width: 2.51px;
      }

      .st2 {
        fill: #27357a;
      }

      .st3 {
        fill: #ffb800;
      }

      .st4 {
        fill: #1c2761;
      }
    </style>
  </defs>
  <g>
    <path class="st0" d="M251.52,353.84c-.66,0-1.21-.51-1.25-1.17l-12.64-198.82c-.04-.69.48-1.29,1.17-1.33.66-.06,1.29.48,1.33,1.17l12.64,198.82c.04.69-.48,1.29-1.17,1.33-.03,0-.05,0-.08,0Z"/>
    <path class="st0" d="M186.92,321.76c-.54,0-1.02-.35-1.19-.87l-59.74-186.36c-.21-.66.15-1.36.81-1.58.66-.21,1.37.15,1.58.81l57.02,177.87-4.4-142.48c-.02-.69.52-1.27,1.21-1.29.66-.02,1.27.52,1.29,1.21l4.68,151.4c.02.63-.42,1.17-1.04,1.27-.07.01-.14.02-.21.02Z"/>
    <path class="st0" d="M121.33,279.67c-.69,0-1.25-.56-1.25-1.25v-138.76c0-.69.56-1.25,1.25-1.25s1.25.56,1.25,1.25v138.76c0,.69-.56,1.25-1.25,1.25Z"/>
    <path class="st0" d="M318.28,319.02c-.12,0-.25-.02-.37-.06-.66-.2-1.03-.91-.83-1.57l54.51-176-233.9,146.64c-.59.37-1.36.19-1.73-.4-.37-.59-.19-1.36.4-1.73l236.76-148.43c.45-.28,1.02-.25,1.43.07.42.32.59.86.43,1.36l-55.51,179.23c-.17.54-.66.88-1.2.88Z"/>
    <path class="st0" d="M383.15,274.8c-.69,0-1.25-.56-1.25-1.25v-132.22c0-.69.56-1.25,1.25-1.25s1.25.56,1.25,1.25v132.22c0,.69-.56,1.25-1.25,1.25Z"/>
    <path class="st0" d="M304.65,323.22c-.35,0-.69-.14-.94-.42l-121.93-137.45c-.46-.52-.41-1.31.11-1.77.52-.46,1.31-.41,1.77.11l121.93,137.45c.46.52.41,1.31-.11,1.77-.24.21-.54.32-.83.32Z"/>
    <path class="st0" d="M315.68,319.02c-.66,0-1.21-.52-1.25-1.19l-12.84-240.71c-.04-.69.49-1.28,1.18-1.32.74-.02,1.28.49,1.32,1.18l12.84,240.71c.04.69-.49,1.28-1.18,1.32-.02,0-.05,0-.07,0Z"/>
    <path class="st0" d="M219.12,121.47c-.32,0-.65-.12-.89-.37-.49-.49-.48-1.29.01-1.77,5.18-5.1,12.06-7.9,19.37-7.9,6.75,0,13.24,2.44,18.27,6.88.52.46.57,1.25.11,1.77-.46.52-1.25.57-1.77.11-4.58-4.03-10.48-6.25-16.62-6.25-6.65,0-12.91,2.55-17.62,7.18-.24.24-.56.36-.88.36Z"/>
    <path class="st0" d="M218.25,113.8c-.33,0-.65-.13-.9-.38-.48-.5-.47-1.29.02-1.77,5.44-5.3,12.63-8.23,20.25-8.23,6.49,0,12.63,2.1,17.76,6.08.55.42.65,1.21.22,1.76-.42.55-1.21.65-1.76.22-4.69-3.63-10.3-5.55-16.23-5.55-6.96,0-13.53,2.67-18.5,7.51-.24.24-.56.36-.88.36Z"/>
    <path class="st0" d="M125.44,137.49c-.11,0-.22-.01-.33-.04-.67-.18-1.06-.87-.88-1.54.47-1.74.71-3.57.71-5.46,0-9.72-6.53-18.26-15.89-20.77-.67-.18-1.06-.87-.88-1.54.18-.67.87-1.06,1.54-.88,10.45,2.81,17.74,12.34,17.74,23.19,0,2.11-.27,4.17-.8,6.12-.15.56-.66.93-1.21.93Z"/>
    <path class="st0" d="M134.26,127.91c-.62,0-1.16-.46-1.24-1.09-1.46-10.91-9.27-19.79-19.91-22.61-.67-.18-1.07-.86-.89-1.53.18-.67.87-1.06,1.53-.89,11.62,3.08,20.16,12.78,21.75,24.71.09.69-.39,1.32-1.08,1.41-.06,0-.11.01-.17.01Z"/>
    <path class="st0" d="M162.66,140.03c-.69,0-1.25-.55-1.25-1.24v-.53l.37-.39c4.98-4.9,11.58-7.6,18.57-7.6,6.51,0,12.77,2.37,17.62,6.68.52.46.56,1.25.11,1.77-.46.52-1.25.56-1.77.11-4.39-3.9-10.06-6.05-15.96-6.05-6.3,0-12.25,2.42-16.75,6.82-.23.27-.57.44-.94.44Z"/>
    <path class="st0" d="M162.61,131.7c-.35,0-.69-.14-.94-.43-.46-.52-.41-1.31.11-1.77,5.14-4.52,11.73-7,18.57-7,6.47,0,12.78,2.24,17.76,6.3.54.44.62,1.23.18,1.76-.44.53-1.22.62-1.76.18-4.54-3.7-10.28-5.73-16.18-5.73-6.23,0-12.24,2.27-16.92,6.38-.24.21-.53.31-.83.31Z"/>
    <path class="st0" d="M320.65,55.56c-.28,0-.56-.09-.8-.29-5.15-4.27-11.3-6.53-17.77-6.53s-12.21,2.11-17.21,6.09c-.55.43-1.33.34-1.76-.2-.43-.54-.34-1.33.2-1.76,5.46-4.34,11.95-6.64,18.78-6.64s13.77,2.46,19.37,7.11c.53.44.61,1.23.16,1.76-.25.3-.6.45-.97.45Z"/>
    <path class="st0" d="M283.81,48.45c-.35,0-.69-.14-.94-.42-.47-.52-.43-1.32.09-1.78,5.72-5.16,13.04-7.99,20.62-7.99,6.63,0,12.98,2.12,18.35,6.14.56.42.67,1.21.26,1.77-.41.56-1.21.68-1.77.26-4.94-3.69-10.76-5.64-16.84-5.64-6.95,0-13.67,2.61-18.93,7.34-.24.22-.54.33-.85.33Z"/>
    <path class="st0" d="M373.79,139.79c-.5,0-.98-.3-1.17-.8-1.42-3.67-2.14-7.54-2.14-11.5,0-12.03,6.63-22.96,17.29-28.51.61-.32,1.37-.08,1.69.53.32.61.08,1.37-.53,1.69-9.83,5.12-15.94,15.19-15.94,26.28,0,3.65.66,7.22,1.97,10.6.25.64-.07,1.37-.72,1.62-.15.06-.3.08-.45.08Z"/>
    <path class="st0" d="M364.36,135.99h-.98l-.21-.96c-.48-2.51-.72-5.04-.72-7.54,0-12.47,6-24.32,16.04-31.7.52-.39,1.26-.27,1.65.25.39.53.27,1.26-.25,1.65-9.45,6.94-15.08,18.08-15.08,29.8,0,2.3.22,4.63.65,6.94.04.12.06.25.06.38,0,.65-.52,1.18-1.17,1.18Z"/>
    <path class="st2" d="M162.73,122.1c-1.38,0-2.51-1.12-2.51-2.51v-33.11c0-3.76.87-7.54,2.5-10.93l12.83-26.52c.6-1.25,2.11-1.77,3.35-1.17,1.25.6,1.77,2.1,1.17,3.35l-12.83,26.51c-1.31,2.71-2,5.74-2,8.75v33.11c0,1.38-1.12,2.51-2.51,2.51Z"/>
    <path class="st2" d="M149.19,115.17c-.69,0-1.38-.29-1.88-.84-.92-1.03-.82-2.62.21-3.54l13.55-12.02c1.04-.92,2.62-.82,3.54.21.92,1.03.82,2.62-.21,3.54l-13.55,12.02c-.48.42-1.07.63-1.66.63Z"/>
    <path class="st2" d="M219.89,129.57c-1.26,0-2.34-.94-2.49-2.22l-6.41-56.27c-.69-6.04-.15-12.06,1.61-17.89l8.9-29.46c.4-1.32,1.8-2.07,3.12-1.68,1.33.4,2.08,1.8,1.68,3.12l-8.9,29.46c-1.56,5.17-2.04,10.51-1.43,15.88l6.41,56.27c.16,1.38-.83,2.62-2.21,2.77-.1.01-.19.02-.29.02Z"/>
    <path class="st2" d="M255.15,123.86c-1.33,0-2.43-1.04-2.5-2.38l-2.37-46.47c-.29-5.75.78-11.58,3.09-16.86l5.62-12.79c.56-1.27,2.04-1.84,3.3-1.29,1.27.56,1.84,2.04,1.29,3.3l-5.62,12.79c-2.01,4.56-2.93,9.61-2.68,14.58l2.37,46.47c.07,1.38-.99,2.56-2.38,2.63-.04,0-.09,0-.13,0Z"/>
    <path class="st1" d="M198.33,108.48"/>
    <path class="st1" d="M197.37,127.36"/>
    <path class="st2" d="M179.16,171.85c-11.05,0-16.31-8.8-17.55-13.46-2.04-7.88-1.43-36.96-1.42-37.28l-10.62-5.43c-.65.58-15.94,14.29-21.23,21-4.51,5.72-15.64,11.88-25.75,11.88-1.74,0-3.39-.19-4.91-.56-10.28-2.51-10.98-8.88-10.61-13.44.44-5.47,5.89-11.42,12.2-18.32,4.59-5.01,9.78-10.68,13.51-16.83,5.53-9.12,11.78-14.15,17.83-19.02,3.43-2.76,6.68-5.38,9.54-8.58,5.7-6.4,9.69-9.8,12.07-11.83,2.04-1.74,4.33-3.01,6.83-3.8l1.94-.6c6.95-2.15,12.86-4.15,14.78-6.89.71-1.01,1.41-2.22,2.16-3.5,2.81-4.82,6.3-10.82,13.18-12.3,2.87-.62,6.22-.85,9.78-1.1,7.15-.49,14.5-1,17.82-4.8,1.11-1.27,2.16-2.67,3.18-4.02,3.61-4.8,7.32-9.73,14.98-11.55,1.48-.35,2.86-.52,4.25-.52,3.87,0,7.1,1.37,10.22,2.7,2.94,1.25,5.69,2.42,9.12,2.78,10.52,1.07,16.9-5.08,23.66-11.63,3.06-2.97,8.59-4.74,14.78-4.74,4.76,0,9.56,1.06,13.51,2.98,6.13,2.98,10.27,9.2,10.79,16.23.29,3.92.5,7.71.6,11.45,1.44,4.17,9.61,21.54,11.45,25.26,4.3,8.7,7.41,14.99,12.33,20.44,6.57,7.28,25.05,15.77,32.71,18.1,6.42,1.95,39.39,14.69,41.04,28.07,1.11,8.96-.15,19.64-19.81,22.65-1.68.26-3.48.39-5.37.39-17.46,0-38.95-11.13-45.11-14.54-2.98-1.65-8.01-2.49-14.94-2.49-7.89,0-16.38,1.08-20.94,1.66l-.52.07c-1.17.15-2.04.26-2.51.29-5.42.35-26.26-1.79-32.8-3.54-1.29-.35-2.82-.83-4.48-1.36-4.55-1.45-10.09-3.2-14.05-3.2-1.3,0-2.34.18-3.17.55l-.39,12.57c-.1,3.23-.66,6.19-1.67,8.79-2.93,7.57-8.42,11.68-15.86,11.9h-.76c-5.15.01-9.52-1.46-13.04-4.36-3.46-2.85-5.78-7.12-6.54-12.02l-1.59-10.27-17.93.24-.39,17.63c-.11,4.87-1.14,9.3-3.06,13.18-3.17,6.38-7.8,10.06-13.77,10.94-1.17.17-2.33.26-3.44.26ZM148.8,109.65l16.48,8.43-.07,3.14c-.25,11.06-.12,30.59,1.25,35.9.1.37,2.79,9.72,12.7,9.72.87,0,1.78-.07,2.71-.21,4.31-.63,7.58-3.32,10.01-8.21,1.59-3.21,2.45-6.93,2.54-11.06l.5-22.47,27.12-.36,2.26,14.57c.57,3.68,2.27,6.86,4.78,8.93,2.6,2.14,5.89,3.23,9.81,3.23h.69c5.39-.17,9.1-3.02,11.3-8.72.8-2.07,1.25-4.47,1.34-7.13l.49-15.69,2.85-1.29c1.49-.67,3.2-1,5.23-1,4.73,0,10.69,1.89,15.47,3.41,1.68.53,3.14,1,4.36,1.33,5.48,1.47,23.64,3.41,30.09,3.41.41,0,.77,0,1.06-.03.4-.03,1.17-.13,2.22-.26l.47-.06c4.72-.6,13.41-1.7,21.62-1.7s13.59,1.02,17.37,3.11c5.9,3.26,26.42,13.91,42.69,13.91,1.63,0,3.18-.11,4.61-.33,16.03-2.45,16.5-9.78,15.6-17.08-.99-8.04-24.86-20.04-37.53-23.89-8.57-2.6-27.58-11.35-34.97-19.53-5.39-5.97-8.63-12.52-13.11-21.58-.68-1.38-3.99-8.31-6.97-14.83-.17,5.76-.58,11.64-1.22,17.96-1.15,10.1-9.59,17.95-19.63,18.29-10.46.32-19.49-7.26-20.97-17.72l-1.37-30.64c-.06-1.38,1.01-2.55,2.39-2.62,1.38-.07,2.55,1.01,2.62,2.39l1.35,30.4c1.08,7.55,8.05,13.48,15.81,13.18,7.58-.26,13.95-6.2,14.82-13.82,1.07-10.54,1.46-19.85,1.22-29.45,0-.09,0-.19,0-.28-.1-3.73-.3-7.51-.59-11.42-.4-5.26-3.46-9.9-7.99-12.1-3.28-1.59-7.3-2.47-11.32-2.47-4.77,0-9.21,1.31-11.29,3.33-6.89,6.69-14.76,14.36-27.66,13.02-4.19-.43-7.56-1.87-10.54-3.14-3.95-1.68-7.17-2.93-11.38-1.93-5.9,1.41-8.78,5.23-12.11,9.66-1.1,1.46-2.2,2.93-3.44,4.34-4.68,5.35-13.09,5.93-21.21,6.49-3.4.23-6.58.46-9.1,1-4.72,1.02-7.35,5.55-9.91,9.93-.76,1.31-1.55,2.67-2.38,3.85-2.84,4.05-9,6.2-17.41,8.8l-1.91.59c-1.85.58-3.55,1.53-5.05,2.8-2.31,1.98-6.14,5.24-11.61,11.38-3.13,3.51-6.53,6.25-10.13,9.15-5.71,4.6-11.61,9.35-16.68,17.71-3.99,6.57-9.36,12.44-14.09,17.61-5.22,5.7-10.61,11.58-10.91,15.34-.27,3.36.05,6.52,6.81,8.18,1.13.28,2.38.42,3.72.42,8.22,0,18.09-5.26,21.82-9.98,5.56-7.05,21.16-21.03,21.82-21.63l2.56-2.3Z"/>
    <path class="st2" d="M197.37,129.87s-.05,0-.08,0c-1.38-.04-2.47-1.2-2.43-2.58l.95-30.63c0-11.11,6.71-21.03,17.08-25.2,1.28-.52,2.74.11,3.26,1.39.52,1.28-.11,2.74-1.39,3.26-8.47,3.41-13.94,11.51-13.94,20.63l-.95,30.71c-.04,1.36-1.16,2.43-2.5,2.43Z"/>
    <path class="st3" d="M121.33,318.32c-11.69,0-21.2-9.51-21.2-21.2s9.51-21.2,21.2-21.2,21.2,9.51,21.2,21.2-9.51,21.2-21.2,21.2ZM121.33,280.93c-8.93,0-16.19,7.26-16.19,16.19s7.26,16.19,16.19,16.19,16.19-7.26,16.19-16.19-7.26-16.19-16.19-16.19Z"/>
    <path class="st3" d="M328.87,357.51h-22.1c-.71,0-1.36-.38-1.72-.99l-11.05-19.14c-.35-.61-.35-1.37,0-1.98l11.05-19.14c.35-.61,1.01-.99,1.72-.99h22.1c.71,0,1.36.38,1.72.99l11.05,19.14c.35.61.35,1.37,0,1.98l-11.05,19.14c-.35.61-1.01.99-1.72.99ZM309.34,352.5h16.96c.51,0,.98-.27,1.23-.71l8.48-14.69c.25-.44.25-.98,0-1.42l-8.48-14.69c-.25-.44-.72-.71-1.23-.71h-16.96c-.51,0-.98.27-1.23.71l-8.48,14.69c-.25.44-.25.98,0,1.42l8.48,14.69c.25.44.72.71,1.23.71Z"/>
    <path class="st3" d="M382.28,323.91l-25.65-25.65c-.48-.48-.48-1.25,0-1.73l25.65-25.65c.48-.48,1.25-.48,1.73,0l25.65,25.65c.48.48.48,1.25,0,1.73l-25.65,25.65c-.48.48-1.25.48-1.73,0ZM363.25,297.79l19.5,19.51c.22.22.57.22.79,0l19.51-19.51c.22-.22.22-.57,0-.79l-19.51-19.5c-.22-.22-.57-.22-.79,0l-19.5,19.5c-.22.22-.22.57,0,.79Z"/>
    <path class="st3" d="M251.54,390.34l-22.96-.16c-.73,0-1.18-.79-.82-1.42l11.33-19.93,11.61-19.81c.37-.63,1.27-.63,1.64,0l11.6,19.78,11.35,19.96c.36.63-.09,1.42-.82,1.42l-22.93.16ZM235.93,384.53c-.18.31.05.69.4.7l15.21.1,15.17-.1c.36,0,.58-.39.4-.7l-7.51-13.22-7.68-13.09c-.18-.31-.62-.31-.8,0l-7.69,13.12-7.5,13.19Z"/>
    <path class="st3" d="M205.27,358.07h-36.71c-.93,0-1.68-.75-1.68-1.68v-36.71c0-.93.75-1.68,1.68-1.68h36.71c.93,0,1.68.75,1.68,1.68v36.71c0,.93-.75,1.68-1.68,1.68ZM173.01,353.05h27.81c.62,0,1.11-.5,1.11-1.11v-27.81c0-.62-.5-1.11-1.11-1.11h-27.81c-.62,0-1.11.5-1.11,1.11v27.81c0,.62.5,1.11,1.11,1.11Z"/>
  </g>
  <g>
    <path class="st4" d="M61.55,463.73c0,16.73-12.13,26.84-32.12,26.84H8.31v24.82H0v-78.62h29.43c19.99,0,32.12,10.11,32.12,26.96ZM53.24,463.73c0-12.58-8.31-19.77-24.04-19.77H8.31v39.31h20.89c15.72,0,24.04-7.19,24.04-19.54Z"/>
    <path class="st4" d="M90.64,481.81v-45.04h8.31v44.7c0,18.64,8.76,27.18,24.04,27.18s24.15-8.54,24.15-27.18v-44.7h8.09v45.04c0,22.58-12.13,34.26-32.23,34.26s-32.35-11.68-32.35-34.26Z"/>
    <path class="st4" d="M191.51,436.77h8.31v71.43h44.03v7.19h-52.34v-78.62Z"/>
    <path class="st4" d="M260.47,505.85l3.26-6.4c5.62,5.5,15.61,9.55,25.94,9.55,14.71,0,21.11-6.18,21.11-13.93,0-21.56-48.41-8.31-48.41-37.4,0-11.57,8.98-21.56,28.98-21.56,8.87,0,18.08,2.58,24.37,6.96l-2.81,6.63c-6.74-4.38-14.6-6.51-21.56-6.51-14.38,0-20.78,6.4-20.78,14.26,0,21.57,48.41,8.54,48.41,37.18,0,11.57-9.21,21.45-29.31,21.45-11.79,0-23.36-4.16-29.2-10.22Z"/>
    <path class="st4" d="M397.61,494.39h-43.8l-9.43,21h-8.65l35.94-78.62h8.2l35.94,78.62h-8.76l-9.43-21ZM394.58,487.65l-18.87-42.23-18.87,42.23h37.74Z"/>
    <path class="st4" d="M493.76,515.39l-17.97-25.27c-2.02.22-4.04.34-6.29.34h-21.12v24.93h-8.31v-78.62h29.43c19.99,0,32.12,10.11,32.12,26.96,0,12.35-6.51,21-17.97,24.71l19.21,26.96h-9.1ZM493.31,463.73c0-12.58-8.31-19.77-24.04-19.77h-20.89v39.42h20.89c15.72,0,24.04-7.3,24.04-19.66Z"/>
  </g>
  <g>
    <path class="st0" d="M16.36,574.57v-9.51H4.44v9.51h-2.18v-20.79h2.18v9.38h11.93v-9.38h2.18v20.79h-2.18Z"/>
    <path class="st0" d="M26.27,574.57v-20.79h2.18v20.79h-2.18Z"/>
    <path class="st0" d="M41.61,574.57h-5.44v-20.79h5.44c6.29,0,11.54,3.78,11.54,10.39s-5.25,10.39-11.54,10.39ZM41.29,555.67h-2.9v17.04h2.9c5.51,0,9.61-2.97,9.61-8.5s-4.11-8.54-9.61-8.54Z"/>
    <path class="st0" d="M65.1,574.57h-5.44v-20.79h5.44c6.29,0,11.54,3.78,11.54,10.39s-5.25,10.39-11.54,10.39ZM64.78,555.67h-2.9v17.04h2.9c5.51,0,9.61-2.97,9.61-8.5s-4.11-8.54-9.61-8.54Z"/>
    <path class="st0" d="M83.15,574.57v-20.79h10.85v1.89h-8.67v7.49h7.1v1.89h-7.1v7.63h9.81v1.89h-11.99Z"/>
    <path class="st0" d="M117.92,574.9l-10.17-11.57c-1.69-1.92-3.62-4.24-5.05-6l-.06.03c.06,1.92.06,3.85.06,5.73v11.47h-2.18v-20.79h1.53l9.64,11.01c1.4,1.6,3.32,3.84,4.69,5.57l.07-.03c-.07-1.86-.07-3.72-.07-5.47v-11.08h2.18v21.11h-.65Z"/>
    <path class="st0" d="M136.94,574.57v-20.79h2.18v20.79h-2.18Z"/>
    <path class="st0" d="M164.25,574.9l-10.17-11.57c-1.69-1.92-3.62-4.24-5.05-6l-.06.03c.06,1.92.06,3.85.06,5.73v11.47h-2.18v-20.79h1.53l9.65,11.01c1.4,1.6,3.32,3.84,4.69,5.57l.06-.03c-.06-1.86-.06-3.72-.06-5.47v-11.08h2.18v21.11h-.65Z"/>
    <path class="st0" d="M174.48,555.67v7.49h7.56v1.89h-7.56v9.51h-2.18v-20.79h11.05v1.89h-8.86Z"/>
    <path class="st0" d="M188.71,574.57v-20.79h2.18v18.9h9.68v1.89h-11.86Z"/>
    <path class="st0" d="M214.06,574.93c-4.82,0-8.11-2.83-8.11-7.56v-13.59h2.18v13.39c0,3.62,2.22,5.8,5.96,5.8s5.96-2.18,5.96-5.8v-13.39h2.12v13.59c0,4.73-3.29,7.56-8.11,7.56Z"/>
    <path class="st0" d="M229.57,574.57v-20.79h10.85v1.89h-8.67v7.49h7.1v1.89h-7.1v7.63h9.81v1.89h-11.99Z"/>
    <path class="st0" d="M264.34,574.9l-10.17-11.57c-1.69-1.92-3.62-4.24-5.05-6l-.06.03c.06,1.92.06,3.85.06,5.73v11.47h-2.18v-20.79h1.53l9.64,11.01c1.4,1.6,3.32,3.84,4.69,5.57l.07-.03c-.07-1.86-.07-3.72-.07-5.47v-11.08h2.18v21.11h-.65Z"/>
    <path class="st0" d="M287.99,556.91c-1.11-.68-3.23-1.37-5.41-1.37-4.63,0-8.86,3.26-8.86,8.67s4.17,8.67,8.86,8.67c2.38,0,4.17-.49,5.54-1.3l-.23,2.05c-1.24.72-2.97,1.14-5.51,1.14-5.54,0-10.88-4.01-10.88-10.59s5.38-10.59,10.88-10.59c2.61,0,4.73.62,6.06,1.37l-.46,1.95Z"/>
    <path class="st0" d="M294.96,574.57v-20.79h10.85v1.89h-8.67v7.49h7.1v1.89h-7.1v7.63h9.81v1.89h-11.99Z"/>
    <path class="st0" d="M337.42,574.57l-2.35-2.35c-1.82,1.73-4.07,2.7-6.71,2.7-3.81,0-6.26-2.54-6.26-5.44s1.6-4.53,4.2-6.03c-1.92-1.96-2.84-3.45-2.84-5.15,0-3,2.44-4.89,5.05-4.89,2.74,0,5.28,1.82,5.28,4.85,0,2.12-1.3,3.85-4.3,5.57l5.51,5.54c1.01-1.34,1.79-3,2.35-4.82l1.4,1.43c-.59,1.82-1.4,3.45-2.38,4.76l3.81,3.81h-2.77ZM327.67,564.83c-2.02,1.11-3.49,2.44-3.49,4.56s1.79,3.71,4.27,3.71c1.96,0,3.75-.85,5.25-2.25l-6.03-6.03ZM328.52,555.18c-1.79,0-3.06,1.4-3.06,3.03,0,1.4.91,2.51,2.67,4.27,2.64-1.47,3.68-2.74,3.68-4.17,0-1.69-1.3-3.13-3.29-3.13Z"/>
    <path class="st0" d="M371.82,556.91c-1.11-.68-3.22-1.37-5.41-1.37-4.63,0-8.86,3.26-8.86,8.67s4.17,8.67,8.86,8.67c2.38,0,4.17-.49,5.54-1.3l-.23,2.05c-1.24.72-2.97,1.14-5.51,1.14-5.54,0-10.88-4.01-10.88-10.59s5.38-10.59,10.88-10.59c2.61,0,4.73.62,6.06,1.37l-.46,1.95Z"/>
    <path class="st0" d="M387.98,574.93c-5.73,0-10.88-4.33-10.88-10.79s5.15-10.72,10.88-10.72,10.88,4.3,10.88,10.72-5.15,10.79-10.88,10.79ZM387.98,555.38c-4.56,0-8.67,3.49-8.67,8.83s4.11,8.83,8.67,8.83,8.67-3.49,8.67-8.83-4.14-8.83-8.67-8.83Z"/>
    <path class="st0" d="M422.78,574.9l-10.17-11.57c-1.69-1.92-3.62-4.24-5.05-6l-.06.03c.06,1.92.06,3.85.06,5.73v11.47h-2.18v-20.79h1.53l9.65,11.01c1.4,1.6,3.32,3.84,4.69,5.57l.06-.03c-.06-1.86-.06-3.72-.06-5.47v-11.08h2.18v21.11h-.65Z"/>
    <path class="st0" d="M438.13,555.67v18.9h-2.18v-18.9h-7.14v-1.89h16.49v1.89h-7.17Z"/>
    <path class="st0" d="M463.02,574.57l-6.91-9.51h-3.26v9.51h-2.18v-20.79h5.73c3.16,0,6.09,2.09,6.09,5.64,0,2.7-1.73,4.66-4.07,5.31l7.3,9.84h-2.7ZM456.04,555.7h-3.19v7.49h3.26c2.25,0,4.17-1.37,4.17-3.75s-1.96-3.75-4.24-3.75Z"/>
    <path class="st0" d="M479.34,574.93c-5.73,0-10.88-4.33-10.88-10.79s5.15-10.72,10.88-10.72,10.88,4.3,10.88,10.72-5.15,10.79-10.88,10.79ZM479.34,555.38c-4.56,0-8.67,3.49-8.67,8.83s4.11,8.83,8.67,8.83,8.67-3.49,8.67-8.83-4.14-8.83-8.67-8.83Z"/>
    <path class="st0" d="M496.74,574.57v-20.79h2.18v18.9h9.68v1.89h-11.86Z"/>
  </g>
</svg>