<?xml version="1.0" encoding="UTF-8"?>
<svg id="Ebene_1" xmlns="http://www.w3.org/2000/svg" version="1.1" viewBox="0 0 200 200">
  <!-- Generator: Adobe Illustrator 30.0.0, SVG Export Plug-In . SVG Version: 2.1.1 Build 123)  -->
  <defs>
    <style>
      .st0 {
        fill: #6e9de7;
      }

      .st1 {
        fill: #7199d0;
      }

      .st2 {
        fill: #1c2761;
      }
    </style>
  </defs>
  <path class="st2" d="M172.92,200H27.08c-.9,0-1.63-.73-1.63-1.63V20.31c0-.9.73-1.63,1.63-1.63h145.85c.9,0,1.63.73,1.63,1.63v178.06c0,.9-.73,1.63-1.63,1.63ZM28.71,196.74h142.59V21.94H28.71v174.79Z"/>
  <path class="st2" d="M39.13,34.36c-.42,0-.85-.17-1.17-.49l-12.05-12.41c-.63-.65-.61-1.68.03-2.31s1.68-.61,2.31.03l12.05,12.41c.63.65.61,1.68-.03,2.31-.32.31-.73.46-1.14.46Z"/>
  <path class="st2" d="M27.08,200c-.41,0-.82-.15-1.14-.46-.65-.63-.66-1.66-.03-2.31l12.05-12.41c.63-.65,1.66-.66,2.31-.03.65.63.66,1.66.03,2.31l-12.05,12.41c-.32.33-.75.49-1.17.49Z"/>
  <path class="st2" d="M172.92,200c-.42,0-.85-.17-1.17-.49l-12.05-12.41c-.63-.65-.61-1.68.03-2.31.64-.63,1.67-.61,2.31.03l12.05,12.41c.63.65.61,1.68-.03,2.31-.32.31-.73.46-1.14.46Z"/>
  <path class="st2" d="M118.68,21.94c-.42,0-.83-.16-1.15-.48L100.01,3.94l-17.53,17.53c-.64.64-1.67.64-2.31,0s-.64-1.67,0-2.31L98.85.48c.64-.64,1.67-.64,2.31,0l18.68,18.68c.64.64.64,1.67,0,2.31-.32.32-.73.48-1.15.48Z"/>
  <rect class="st0" x="104.95" y="66.84" width="42.51" height="58.55" rx=".66" ry=".66"/>
  <rect class="st0" x="52.68" y="130.54" width="42.51" height="42.51" rx=".66" ry=".66"/>
  <circle class="st0" cx="69.21" cy="61.84" r="16.53"/>
  <path class="st1" d="M93.95,91.97h-40.03c-.72,0-1.3-.58-1.3-1.3s.58-1.3,1.3-1.3h40.03c.72,0,1.3.58,1.3,1.3s-.58,1.3-1.3,1.3Z"/>
  <path class="st1" d="M93.95,101.78h-40.03c-.72,0-1.3-.58-1.3-1.3s.58-1.3,1.3-1.3h40.03c.72,0,1.3.58,1.3,1.3s-.58,1.3-1.3,1.3Z"/>
  <path class="st1" d="M93.95,111.91h-40.03c-.72,0-1.3-.58-1.3-1.3s.58-1.3,1.3-1.3h40.03c.72,0,1.3.58,1.3,1.3s-.58,1.3-1.3,1.3Z"/>
  <path class="st1" d="M78.65,121.87h-24.73c-.72,0-1.3-.58-1.3-1.3s.58-1.3,1.3-1.3h24.73c.72,0,1.3.58,1.3,1.3s-.58,1.3-1.3,1.3Z"/>
  <path class="st1" d="M146.22,143.2h-40.02c-.72,0-1.3-.58-1.3-1.3s.58-1.3,1.3-1.3h40.02c.72,0,1.3.58,1.3,1.3s-.58,1.3-1.3,1.3Z"/>
  <path class="st1" d="M146.22,153h-40.02c-.72,0-1.3-.58-1.3-1.3s.58-1.3,1.3-1.3h40.02c.72,0,1.3.58,1.3,1.3s-.58,1.3-1.3,1.3Z"/>
  <path class="st1" d="M146.22,163.13h-40.02c-.72,0-1.3-.58-1.3-1.3s.58-1.3,1.3-1.3h40.02c.72,0,1.3.58,1.3,1.3s-.58,1.3-1.3,1.3Z"/>
  <path class="st1" d="M130.93,173.09h-24.73c-.72,0-1.3-.58-1.3-1.3s.58-1.3,1.3-1.3h24.73c.72,0,1.3.58,1.3,1.3s-.58,1.3-1.3,1.3Z"/>
  <path class="st2" d="M160.87,187.59H39.13c-.9,0-1.63-.73-1.63-1.63V32.73c0-.9.73-1.63,1.63-1.63h104.35c.45-.01.89.14,1.23.47,0,0,0,0,0,0l17.26,17.26c.14.13.25.28.34.45.14.26.2.55.18.84v135.83c0,.9-.73,1.63-1.63,1.63ZM40.76,184.33h118.48V51.67h-15.68c-.9,0-1.63-.73-1.63-1.63v-15.68H40.76v149.97ZM145.19,48.41h11.75l-11.75-11.75v11.75Z"/>
</svg>