<?xml version="1.0" encoding="UTF-8"?>
<svg id="Ebene_1" xmlns="http://www.w3.org/2000/svg" version="1.1" viewBox="0 0 200 200">
  <!-- Generator: Adobe Illustrator 30.0.0, SVG Export Plug-In . SVG Version: 2.1.1 Build 123)  -->
  <defs>
    <style>
      .st0 {
        fill: #f9b50f;
      }
    </style>
  </defs>
  <path class="st0" d="M137.52,200H24.96c-13.76,0-24.96-11.2-24.96-24.96V62.48c0-13.76,11.2-24.96,24.96-24.96h46.9c8.59,0,15.58,6.99,15.58,15.58v59.46h59.46c8.59,0,15.58,6.99,15.58,15.58v46.9c0,13.76-11.2,24.96-24.96,24.96ZM87.44,187.6h50.08c6.92,0,12.56-5.63,12.56-12.56v-46.9c0-1.75-1.42-3.18-3.18-3.18h-59.46v62.64ZM12.4,124.96v50.08c0,6.93,5.64,12.56,12.56,12.56h50.08v-62.64H12.4ZM12.4,112.56h62.63v-59.46c0-1.75-1.42-3.18-3.18-3.18H24.96c-6.92,0-12.56,5.63-12.56,12.56v50.08Z"/>
  <path class="st0" d="M184.42,87.44h-56.28c-8.59,0-15.58-6.99-15.58-15.58V15.58c0-8.59,6.99-15.58,15.58-15.58h56.28c8.59,0,15.58,6.99,15.58,15.58v56.28c0,8.59-6.99,15.58-15.58,15.58ZM128.14,12.4c-1.75,0-3.18,1.43-3.18,3.18v56.28c0,1.75,1.43,3.18,3.18,3.18h56.28c1.75,0,3.18-1.43,3.18-3.18V15.58c0-1.75-1.42-3.18-3.18-3.18h-56.28Z"/>
</svg>