<?xml version="1.0" encoding="UTF-8"?>
<svg id="Ebene_1" xmlns="http://www.w3.org/2000/svg" version="1.1" viewBox="0 0 200 200">
  <!-- Generator: Adobe Illustrator 30.0.0, SVG Export Plug-In . SVG Version: 2.1.1 Build 123)  -->
  <defs>
    <style>
      .st0 {
        fill: #6e9de7;
      }

      .st1 {
        fill: #1c2761;
      }

      .st2 {
        fill: #1a1a1a;
      }
    </style>
  </defs>
  <path class="st1" d="M180.33,101.07h-6.3c-.55,0-1.04-.35-1.21-.87-1.13-3.32-1.61-3.96-2.71-4.96-.54-.49-1.04-.86-1.67-1.32-.68-.5-1.52-1.11-2.67-2.09-1.14-.97-2.24-1.99-3.28-3.04-1.31.57-2.76.99-4.31,1.12-1.65.13-5.82.13-8.98-2.77-.32-.3-2.5-2.38-3.09-5.28-1.92.4-5.29.73-8.65-.74-.04-.02-.09-.04-.13-.06-.49-.22-.97-.48-1.45-.78-4.83-3.04-6.16-8.49-5.35-12.54.07-.35.22-.96.5-1.71.02-.09.05-.17.09-.24.69-1.75,2.09-4.14,4.81-5.84.37-.23.75-.44,1.12-.62.58-1.59,2.04-4.48,5.44-6.41,3.55-2.02,7.08-1.81,8.91-1.49.79-.64,1.64-1.22,2.54-1.72.47-.26,3.26-1.73,7.14-2.18.07-.01.13-.02.2-.02,2.34-.24,5.06-.11,7.9.89,1.75.62,5.46,2.22,7.93,5.3,1.89.07,5.46.59,8.61,3.23,3.18,2.66,4.14,5.95,4.44,7.8,3.14,1.68,4.22,6.56,3.96,9.75-.16,1.91-.95,6.45-4.85,8.4-.09,1.59-.6,4.24-2.67,6.65-2.37,2.74-5.46,3.7-7.4,4.04.21.82.47,1.63.8,2.42.28.67.46,1.16.6,1.55.25.71.34.94.76,1.47.31.38.37.91.15,1.35s-.66.72-1.15.72ZM174.94,98.52h3.27s-.03-.09-.05-.13c-.13-.36-.29-.81-.54-1.42-.58-1.38-1-2.83-1.24-4.31-.06-.36.04-.73.27-1.01.23-.28.57-.46.93-.47,1.03-.05,4.58-.44,7.06-3.32,1.25-1.45,1.76-3.01,1.96-4.2-.83.1-1.71.08-2.59-.06-.85-.11-1.55-.42-2.17-.8-1.06,1.55-3.25,3.96-7,4.64-3.49.63-6.3-.59-7.75-1.46-.65.52-1.39,1.07-2.23,1.58.82.81,1.68,1.59,2.56,2.34,1.08.91,1.85,1.48,2.53,1.98.66.48,1.24.9,1.88,1.49,1.44,1.31,2.13,2.41,3.11,5.17ZM148.52,80.31c-.06,2.65,2.29,4.84,2.4,4.94,2.42,2.22,5.73,2.21,7.05,2.11,3.45-.28,6.31-2.36,8.19-3.95,0,0,.01-.01.02-.02.37-.31.7-.6.99-.86.46-.41.83-.75,1.16-1.05.48-.44.88-.81,1.32-1.17-.8-.74-1.05-1.59-1.13-2.05-.12-.7.35-1.36,1.05-1.47.68-.12,1.36.35,1.47,1.05.01.09.09.39.38.64.16.13.33.21.49.25,1.6-.89,4.53-1.86,7.22-.75,1.25.51,2.15,1.22,2.94,1.83.81.64,1.46,1.14,2.24,1.24.75.12,1.39.12,1.94.06-.97-1.7-3.1-3.81-5.91-5.82-4.99-3.56-9.52-5.01-11.46-5.52-3.08,2.57-6.48,3.54-7.83,3.92-2.2.63-3.73.73-4.97.81-1.44.1-2.39.16-3.83.97-.89.5-2.95,1.66-3.55,3.75-.1.34-.15.67-.16,1,0,.03,0,.06,0,.09ZM169.16,84.17c1.2.57,3.06,1.13,5.21.73,2.93-.53,4.62-2.48,5.39-3.64-.49-.35-1.01-.69-1.62-.94-2.42-.99-5.14.7-5.28.79,0,0-.01,0-.02.01-1.26.82-1.8,1.32-2.79,2.23-.26.24-.56.51-.9.82ZM170.94,67.7c2.57.81,6.54,2.41,10.88,5.51,1.68,1.2,5.34,4.04,6.86,7.04,2.32-1.61,2.79-4.93,2.88-5.99.25-2.96-.91-6.73-2.97-7.44-.01,0-.03,0-.04-.01-.37-.12-.62-.09-1.2-.03-.72.09-1.7.2-3.25-.1-.76-.15-3.06-.6-4.83-2.1-1.69-1.44-1.97-3.06-2.25-4.63-.14-.79-.28-1.61-.62-2.46-.25-.64-.58-1.22-.97-1.76,0,0-.02-.02-.02-.03-2.11-2.93-5.83-4.44-7.08-4.88-2.18-.77-4.29-.94-6.16-.82-.31.71-.55,1.44-.71,2.19-.06.28-.11.56-.15.84,2.21-.37,4.5.15,6.21,1.5,2.66,2.11,2.68,5.2,2.65,5.8-.03.71-.67,1.29-1.33,1.23-.71-.03-1.25-.62-1.23-1.33.01-.38,0-2.36-1.69-3.69-1.47-1.17-3.63-1.4-5.51-.6-.39.17-.85.13-1.2-.1-.36-.23-.58-.63-.58-1.06-.01-1.05.1-2.1.32-3.13.09-.41.2-.81.32-1.22-2.25.53-3.78,1.34-4.1,1.52-.93.51-1.78,1.12-2.56,1.8-.01.01-.03.03-.05.04-1.64,1.45-2.93,3.24-3.79,5.23,2.37.83,4.16,2.05,5.49,2.96,3.28,2.25,5.95,5.17,7.92,8.68,1.56-.57,3.6-1.52,5.46-3.2.01-.01.03-.03.05-.04.1-.09.21-.19.31-.29,1.42-1.37,2.52-3.02,3.27-4.89.26-.66,1.01-.97,1.66-.71.66.26.97,1.01.71,1.66-.67,1.67-1.58,3.18-2.7,4.53ZM140.16,79.34c2.46.6,4.74.21,5.9-.09.04-.24.1-.48.16-.72.69-2.41,2.53-3.9,3.81-4.73.22-.38.47-.99.42-1.74-.04-.78-.39-1.38-.67-1.74-.43-.56-.33-1.36.23-1.79.56-.43,1.36-.33,1.79.23.5.64,1.11,1.71,1.2,3.15,0,.16.01.31,0,.46,1.02-.29,1.93-.36,2.87-.42,1.03-.07,2.19-.15,3.78-.54-1.75-2.95-4.06-5.42-6.86-7.34-1.25-.86-2.82-1.93-4.85-2.64-.28,1.2-.42,2.46-.39,3.73.01.71-.54,1.29-1.25,1.31h-.03c-.69,0-1.26-.55-1.28-1.25-.03-1.5.13-2.98.47-4.4-.25-.04-.5-.07-.76-.09-1.25-.12-3.64-.34-6.11.7-.03.01-.06.03-.09.04-.42.18-.84.4-1.26.66-1.52.95-2.51,2.17-3.16,3.29,1.61.42,3.76,1.32,5.46,3.32,1.59,1.86,2.34,3.9,2.23,6.08-.09,1.95-.86,3.48-1.65,4.55ZM133.13,67.79c-.05.18-.08.33-.1.44-.64,3.19.41,7.48,4.21,9.87.14.09.29.18.43.26.65-.73,1.51-2.01,1.59-3.7.07-1.5-.48-2.94-1.63-4.29-1.4-1.64-3.28-2.31-4.5-2.58ZM178.71,56.42s.03.07.04.11c.43,1.1.61,2.09.76,2.96.24,1.37.4,2.28,1.39,3.12.83.71,2.07,1.23,3.67,1.54,1.16.23,1.82.15,2.46.07.13-.01.26-.03.39-.04-.38-1.5-1.28-3.57-3.36-5.31-1.81-1.51-3.79-2.18-5.35-2.45ZM142.88,58.06c.86,0,1.57.07,2.08.11.45.04.89.1,1.31.18.67-1.65,1.59-3.2,2.73-4.57-1.48,0-3.38.29-5.26,1.35-1.59.91-2.64,2.07-3.33,3.13.9-.15,1.74-.2,2.47-.2Z"/>
  <path class="st0" d="M106.97,51.32c-.56,0-1.07-.36-1.23-.92-.2-.68.19-1.39.87-1.58,7.78-2.25,14-8.47,16.24-16.24.19-.68.9-1.07,1.58-.87.68.2,1.07.9.88,1.58-2.48,8.6-9.37,15.49-17.99,17.99-.12.03-.24.05-.35.05Z"/>
  <path class="st0" d="M93.03,51.32c-.12,0-.24-.02-.35-.05-8.62-2.49-15.51-9.39-17.99-17.99-.19-.68.2-1.39.88-1.58.67-.2,1.38.2,1.58.87,2.24,7.76,8.46,13.99,16.24,16.24.68.2,1.07.91.87,1.58-.16.56-.67.92-1.23.92Z"/>
  <path class="st1" d="M113.01,16.34c-.33,0-.65-.12-.9-.37-.5-.5-.5-1.31,0-1.81l4.94-4.94c-4.67-4.31-10.67-6.66-17.05-6.66s-12.37,2.34-17.01,6.63l4.94,4.94c.5.5.5,1.31,0,1.81s-1.31.5-1.81,0l-5.86-5.86c-.5-.5-.5-1.3,0-1.8,5.24-5.33,12.26-8.27,19.74-8.27s14.52,2.95,19.78,8.31c.49.5.49,1.3,0,1.8l-5.86,5.86c-.25.25-.58.37-.9.37Z"/>
  <path class="st1" d="M155.97,27.24h-49c-.71,0-1.28-.57-1.28-1.28s.57-1.28,1.28-1.28h49c.71,0,1.28.57,1.28,1.28s-.57,1.28-1.28,1.28Z"/>
  <path class="st1" d="M93.03,27.24h-49c-.71,0-1.28-.57-1.28-1.28s.57-1.28,1.28-1.28h49c.71,0,1.28.57,1.28,1.28s-.57,1.28-1.28,1.28Z"/>
  <g>
    <path class="st1" d="M130.08,159.23h-60.17c-.71,0-1.28-.57-1.28-1.28,0-5.61,4.57-10.18,10.18-10.18h42.36c5.61,0,10.18,4.57,10.18,10.18,0,.71-.57,1.28-1.28,1.28ZM71.3,156.67h57.4c-.61-3.6-3.75-6.35-7.52-6.35h-42.36c-3.77,0-6.91,2.75-7.52,6.35Z"/>
    <path class="st1" d="M110.2,129.07c-.71,0-1.28-.57-1.28-1.28,0-4.92-4-8.91-8.91-8.91s-8.93,4-8.93,8.91c0,.71-.57,1.28-1.28,1.28s-1.28-.57-1.28-1.28c0-6.32,5.15-11.47,11.49-11.47s11.47,5.15,11.47,11.47c0,.71-.57,1.28-1.28,1.28Z"/>
    <path class="st1" d="M121.18,150.33c-.13,0-.26-.02-.39-.06-2.13-.68-6.14-2.46-9.01-6.76-2.65-3.96-2.93-8-2.86-10.06v-5.65c0-.71.57-1.28,1.28-1.28s1.28.57,1.28,1.28v5.7c-.06,1.79.18,5.23,2.43,8.59,2.45,3.65,5.85,5.17,7.67,5.75.67.21,1.04.94.83,1.61-.17.54-.68.89-1.22.89Z"/>
    <path class="st1" d="M78.81,150.33c-.54,0-1.05-.35-1.22-.89-.21-.67.16-1.39.83-1.61,1.81-.58,5.22-2.09,7.67-5.75,2.25-3.37,2.49-6.8,2.43-8.55v-5.74c0-.71.57-1.28,1.28-1.28s1.28.57,1.28,1.28v5.7c.07,2.01-.21,6.05-2.86,10.01-2.88,4.3-6.88,6.08-9.02,6.76-.13.04-.26.06-.39.06Z"/>
  </g>
  <path class="st1" d="M100,133.43c-3.11,0-5.64-2.53-5.64-5.64s2.53-5.64,5.64-5.64,5.64,2.53,5.64,5.64-2.53,5.64-5.64,5.64ZM100,124.71c-1.7,0-3.08,1.38-3.08,3.08s1.38,3.08,3.08,3.08,3.08-1.38,3.08-3.08-1.38-3.08-3.08-3.08Z"/>
  <path class="st1" d="M100,118.88c-.71,0-1.28-.57-1.28-1.28V32.93c0-.71.57-1.28,1.28-1.28s1.28.57,1.28,1.28v84.67c0,.71-.57,1.28-1.28,1.28Z"/>
  <path class="st1" d="M89.81,126.24h-46.4c-.71,0-1.28-.57-1.28-1.28s.57-1.28,1.28-1.28h46.4c.71,0,1.28.57,1.28,1.28s-.57,1.28-1.28,1.28Z"/>
  <path class="st1" d="M89.8,133.43c-.06,0-.13,0-.2-.01l-46.39-7.19c-.7-.11-1.18-.76-1.07-1.46.11-.7.76-1.17,1.46-1.07l46.39,7.19c.7.11,1.18.76,1.07,1.46-.1.63-.64,1.08-1.26,1.08Z"/>
  <path class="st1" d="M156.6,126.24h-46.4c-.71,0-1.28-.57-1.28-1.28s.57-1.28,1.28-1.28h46.4c.71,0,1.28.57,1.28,1.28s-.57,1.28-1.28,1.28Z"/>
  <path class="st1" d="M110.21,133.43c-.62,0-1.16-.45-1.26-1.08-.11-.7.37-1.35,1.07-1.46l46.39-7.19c.7-.1,1.35.37,1.46,1.07.11.7-.37,1.35-1.07,1.46l-46.39,7.19c-.07,0-.13.01-.2.01Z"/>
  <path class="st1" d="M22.29,100.04c-.67,0-1.29-.07-1.88-.2-.26-.05-.57-.13-.89-.24-.3-.1-.6-.2-.9-.34-.31-.13-.68-.32-1.01-.54-.21-.13-.41-.26-.6-.4-.25-.19-.48-.37-.7-.56-.04-.04-.09-.09-.14-.15h0c-.26-.25-.42-.41-.56-.57-.02-.02-.04-.04-.06-.07h0c-.17-.19-.32-.38-.46-.59-.36-.47-.67-1-.9-1.52-.09-.2-.19-.44-.27-.66-.1-.26-.18-.51-.25-.79-.06-.15-.12-.45-.17-.74,0-.04,0-.08-.01-.12-.04-.22-.07-.44-.08-.66-.02-.26-.04-.51-.04-.77,0-.68.07-1.29.2-1.88.05-.27.13-.58.24-.88.1-.31.21-.62.36-.92.06-.17.19-.44.34-.7.06-.13.18-.31.31-.48.16-.28.4-.61.7-.92.08-.12.22-.28.38-.44.08-.09.17-.18.26-.25.05-.05.11-.1.16-.15.02-.02.13-.12.15-.14l.17-.14,32.68-28.56c1.62-1.39,4.05-1.22,5.42.39l6.67,7.64c.67.76,1.01,1.74.95,2.77-.07,1.03-.53,1.97-1.31,2.65l-17.55,15.34c-.53.47-1.34.41-1.8-.12-.46-.53-.41-1.34.12-1.8l17.55-15.34c.26-.23.42-.54.44-.89.02-.34-.09-.66-.31-.92l-6.69-7.66c-.46-.54-1.27-.59-1.82-.13l-32.93,28.76c-.06.08-.17.18-.27.26-.03.04-.07.07-.11.11-.09.08-.15.17-.22.26-.25.28-.38.46-.51.67-.11.17-.16.23-.2.3-.12.21-.2.36-.26.52-.14.3-.2.5-.27.69-.07.21-.12.41-.16.62-.1.43-.14.85-.14,1.33,0,.19.01.38.03.57,0,.13.02.27.05.41.02.1.04.2.04.3,0,.02.04.17.09.31.07.28.12.43.18.59.06.18.13.34.21.5.16.37.38.73.65,1.08.1.15.19.26.28.37.04.04.08.08.11.12.08.1.19.2.28.3l.14.13s.03.03.05.05c.03.02.05.05.07.06.1.09.27.21.44.34.14.1.29.2.44.29.25.17.46.28.67.37.26.12.47.19.68.26.22.07.42.13.62.17.44.1.87.15,1.34.15.71,0,1.28.57,1.28,1.28s-.57,1.28-1.28,1.28ZM17.7,86.68c-.05.04-.1.07-.15.09.05-.03.1-.06.15-.09Z"/>
  <path class="st1" d="M65.97,100.03H22.28c-4.92,0-8.92-4-8.92-8.92s4-8.92,8.92-8.92h43.68c2.12,0,3.84,1.72,3.84,3.84v10.16c0,2.12-1.72,3.84-3.84,3.84ZM22.28,84.75c-3.51,0-6.36,2.85-6.36,6.36s2.85,6.37,6.36,6.37h43.68c.71,0,1.28-.58,1.28-1.28v-10.16c0-.71-.58-1.28-1.28-1.28H22.28Z"/>
  <path class="st2" d="M18.04,98.76c-.31,0-.61-.11-.85-.33-.27-.23-.44-.58-.44-.96,0-.71.56-1.28,1.27-1.28h.02c.36,0,.7.15.95.42.48.52.44,1.34-.08,1.82-.25.22-.56.34-.87.34Z"/>
  <path class="st1" d="M14.66,92.8c-.71,0-1.28-.55-1.28-1.25,0-.07,0-.19.01-.25l.48-3.05s0-.07,0-.1l6.02-38.74c.15-1,.68-1.9,1.51-2.5.83-.61,1.85-.86,2.87-.69l10.03,1.55c2.11.34,3.55,2.31,3.22,4.4l-3.02,19.43c-.11.7-.76,1.18-1.46,1.07-.7-.11-1.18-.76-1.07-1.46l3.02-19.43c.11-.7-.38-1.36-1.09-1.47l-10.03-1.55c-.35-.06-.68.03-.96.23-.27.2-.45.49-.5.82l-6.01,38.68s0,.08,0,.11l-.49,3.09c-.09.63-.62,1.13-1.27,1.13Z"/>
  <path class="st1" d="M51.65,76.9c-.36,0-.71-.15-.96-.44l-10.06-11.51c-.46-.53-.41-1.34.12-1.8.53-.47,1.34-.41,1.8.12l10.06,11.51c.46.53.41,1.34-.12,1.8-.24.21-.54.32-.84.32Z"/>
  <path class="st1" d="M43.31,84.18c-.36,0-.71-.15-.96-.44l-10.06-11.51c-.46-.53-.41-1.34.12-1.8.53-.47,1.34-.41,1.8.12l10.06,11.51c.46.53.41,1.34-.12,1.8-.24.21-.54.32-.84.32Z"/>
  <path class="st1" d="M54.48,100.03c-.71,0-1.28-.57-1.28-1.28v-15.29c0-.71.57-1.28,1.28-1.28s1.28.57,1.28,1.28v15.29c0,.71-.57,1.28-1.28,1.28Z"/>
  <path class="st1" d="M42.66,100.03c-.71,0-1.28-.57-1.28-1.28v-15.28c0-.71.57-1.28,1.28-1.28s1.28.57,1.28,1.28v15.28c0,.71-.57,1.28-1.28,1.28Z"/>
  <path class="st1" d="M34.81,62.64c-.06,0-.13,0-.2-.01l-15.1-2.35c-.7-.11-1.18-.76-1.07-1.46.11-.7.76-1.17,1.46-1.07l15.1,2.35c.7.11,1.18.76,1.07,1.46-.1.63-.64,1.08-1.26,1.08Z"/>
  <path class="st1" d="M31.06,74.75c-.07,0-.13,0-.2-.01l-13.16-2.09c-.7-.11-1.17-.77-1.06-1.46.11-.7.78-1.16,1.46-1.06l13.16,2.09c.7.11,1.17.77,1.06,1.46-.1.63-.64,1.08-1.26,1.08Z"/>
  <path class="st1" d="M22.32,94.54c-1.89,0-3.43-1.54-3.43-3.43s1.54-3.43,3.43-3.43,3.43,1.54,3.43,3.43-1.54,3.43-3.43,3.43ZM22.32,90.23c-.48,0-.88.39-.88.88s.39.88.88.88.88-.39.88-.88-.39-.88-.88-.88Z"/>
  <path class="st0" d="M124.91,107.65c-.17,0-.35-.03-.52-.11-.64-.29-.94-1.04-.65-1.69l8.49-19.13c.29-.65,1.04-.93,1.69-.65.64.29.94,1.04.65,1.69l-8.49,19.13c-.21.48-.68.76-1.17.76Z"/>
  <path class="st0" d="M197.26,107.65c-.5,0-.97-.29-1.18-.78l-6.54-15.44c-.28-.65.03-1.4.68-1.68.65-.28,1.4.03,1.68.68l6.54,15.44c.28.65-.03,1.4-.68,1.68-.16.07-.33.1-.5.1Z"/>
  <path class="st0" d="M153.62,42.29c-.18,0-.37-.04-.54-.12-.64-.3-.91-1.06-.61-1.7l4.99-10.59c.3-.64,1.06-.91,1.7-.61.64.3.91,1.06.61,1.7l-4.99,10.59c-.22.46-.68.73-1.16.73Z"/>
  <path class="st0" d="M168.1,43.37c-.48,0-.94-.27-1.16-.74l-5.29-11.34c-.3-.64-.02-1.4.62-1.7.64-.3,1.4-.02,1.7.62l5.29,11.34c.3.64.02,1.4-.62,1.7-.17.08-.36.12-.54.12Z"/>
  <path class="st0" d="M31.87,43.29c-.17,0-.35-.03-.52-.11-.65-.29-.94-1.04-.65-1.69l5.06-11.36c.29-.65,1.05-.94,1.69-.65.65.29.94,1.04.65,1.69l-5.06,11.36c-.21.48-.68.76-1.17.76Z"/>
  <path class="st0" d="M50.03,53.48c-.5,0-.97-.29-1.18-.78l-9.12-21.54c-.28-.65.03-1.4.68-1.68.64-.28,1.4.03,1.67.68l9.12,21.54c.28.65-.03,1.4-.68,1.67-.16.07-.33.1-.5.1Z"/>
  <path class="st0" d="M75.09,107.65c-.48,0-.94-.27-1.16-.74l-3.57-7.72c-.3-.64-.02-1.4.62-1.7.63-.3,1.4-.02,1.7.62l3.57,7.72c.3.64.02,1.4-.62,1.7-.17.08-.36.12-.54.12Z"/>
  <path class="st0" d="M2.75,107.65c-.18,0-.36-.04-.53-.11-.64-.29-.93-1.05-.64-1.69l9.29-20.54c.29-.64,1.05-.92,1.69-.64.64.29.93,1.05.64,1.69l-9.29,20.54c-.21.47-.68.75-1.17.75Z"/>
  <path class="st0" d="M100,20.25c-.71,0-1.28-.57-1.28-1.28V7.21c0-.71.57-1.28,1.28-1.28s1.28.57,1.28,1.28v11.77c0,.71-.57,1.28-1.28,1.28Z"/>
  <path class="st1" d="M100,34.21c-4.55,0-8.26-3.7-8.26-8.26s3.7-8.26,8.26-8.26,8.26,3.7,8.26,8.26-3.7,8.26-8.26,8.26ZM100,20.25c-3.14,0-5.7,2.56-5.7,5.7s2.56,5.7,5.7,5.7,5.7-2.56,5.7-5.7-2.56-5.7-5.7-5.7Z"/>
  <path class="st1" d="M161.08,32.34c-3.52,0-6.39-2.87-6.39-6.39s2.87-6.39,6.39-6.39,6.39,2.87,6.39,6.39-2.87,6.39-6.39,6.39ZM161.08,22.11c-2.11,0-3.83,1.72-3.83,3.83s1.72,3.83,3.83,3.83,3.83-1.72,3.83-3.83-1.72-3.83-3.83-3.83Z"/>
  <path class="st1" d="M38.92,32.34c-3.52,0-6.39-2.87-6.39-6.39s2.87-6.39,6.39-6.39,6.39,2.87,6.39,6.39-2.87,6.39-6.39,6.39ZM38.92,22.11c-2.11,0-3.83,1.72-3.83,3.83s1.72,3.83,3.83,3.83,3.83-1.72,3.83-3.83-1.72-3.83-3.83-3.83Z"/>
  <g>
    <path class="st1" d="M63.87,118.88H13.97c-6.9,0-12.5-5.61-12.5-12.5,0-.71.57-1.28,1.28-1.28h72.35c.71,0,1.28.57,1.28,1.28,0,6.89-5.61,12.5-12.5,12.5ZM4.11,107.65c.63,4.88,4.82,8.67,9.87,8.67h49.89c5.05,0,9.24-3.78,9.86-8.67H4.11Z"/>
    <path class="st1" d="M38.92,131.38c-3.18,0-5.77-2.59-5.77-5.77v-8.01c0-.71.57-1.28,1.28-1.28h8.98c.71,0,1.28.57,1.28,1.28v8.01c0,3.18-2.59,5.77-5.77,5.77ZM35.71,118.88v6.73c0,1.77,1.44,3.21,3.21,3.21s3.21-1.44,3.21-3.21v-6.73h-6.43Z"/>
  </g>
  <g>
    <path class="st1" d="M186.03,118.88h-49.89c-6.89,0-12.5-5.61-12.5-12.5,0-.71.57-1.28,1.28-1.28h72.34c.71,0,1.28.57,1.28,1.28,0,6.89-5.61,12.5-12.5,12.5ZM126.27,107.65c.63,4.88,4.81,8.67,9.86,8.67h49.89c5.05,0,9.24-3.78,9.86-8.67h-69.62Z"/>
    <path class="st1" d="M161.08,131.38c-3.18,0-5.77-2.59-5.77-5.77v-8.01c0-.71.57-1.28,1.28-1.28h8.98c.71,0,1.28.57,1.28,1.28v8.01c0,3.18-2.59,5.77-5.77,5.77ZM157.87,118.88v6.73c0,1.77,1.44,3.21,3.21,3.21s3.21-1.44,3.21-3.21v-6.73h-6.43Z"/>
  </g>
  <path class="st1" d="M100,190.64c-.71,0-1.28-.57-1.28-1.28v-23.95c0-.71.57-1.28,1.28-1.28s1.28.57,1.28,1.28v23.95c0,.71-.57,1.28-1.28,1.28Z"/>
  <path class="st0" d="M115.67,188.78c-.57,0-1.1-.39-1.24-.97l-5.33-21.53c-.17-.69.25-1.38.93-1.55.68-.17,1.38.25,1.55.93l5.33,21.53c.17.69-.25,1.38-.93,1.55-.1.03-.21.04-.31.04Z"/>
  <path class="st1" d="M129.39,185.93c-.48,0-.94-.27-1.16-.73l-8.76-18.48c-.3-.64-.03-1.4.61-1.7.64-.3,1.4-.03,1.7.61l8.76,18.48c.3.64.03,1.4-.61,1.7-.18.08-.36.12-.55.12Z"/>
  <path class="st0" d="M84.62,188.78c-.1,0-.2-.01-.3-.03-.69-.16-1.11-.85-.95-1.54l5.14-21.53c.16-.69.85-1.11,1.54-.95.69.16,1.11.85.95,1.54l-5.14,21.53c-.14.59-.66.98-1.24.98Z"/>
  <path class="st1" d="M70.71,186.12c-.18,0-.37-.04-.55-.12-.64-.3-.91-1.07-.61-1.7l8.95-18.86c.3-.64,1.07-.91,1.7-.61.64.3.91,1.07.61,1.7l-8.95,18.86c-.22.46-.68.73-1.16.73Z"/>
  <path class="st0" d="M58.9,179.45c-.26,0-.52-.08-.75-.25-.57-.42-.69-1.22-.28-1.79l8.76-12c.41-.57,1.21-.7,1.79-.28.57.42.69,1.22.28,1.79l-8.76,12c-.25.34-.64.52-1.03.52Z"/>
  <path class="st0" d="M141.2,179.64c-.4,0-.8-.19-1.05-.54l-8.76-12.38c-.41-.58-.27-1.37.3-1.78.58-.41,1.37-.27,1.78.3l8.76,12.38c.41.58.27,1.37-.3,1.78-.22.16-.48.23-.74.23Z"/>
  <path class="st1" d="M162.15,182.12c-.33,0-.65-.12-.9-.37l-19.62-19.62c-.5-.5-.5-1.31,0-1.81s1.31-.5,1.81,0l19.62,19.62c.5.5.5,1.31,0,1.81-.25.25-.58.37-.9.37Z"/>
  <path class="st0" d="M161.58,163.07c-.25,0-.5-.07-.72-.22l-25.15-17.15c-.58-.4-.73-1.19-.34-1.78.4-.58,1.19-.73,1.78-.34l25.15,17.15c.58.4.73,1.19.34,1.78-.25.36-.65.56-1.06.56Z"/>
  <path class="st0" d="M171.68,152.97c-.17,0-.34-.03-.5-.1l-29.15-12.38c-.65-.28-.95-1.03-.68-1.68.28-.65,1.03-.95,1.68-.68l29.15,12.38c.65.28.95,1.03.68,1.68-.21.49-.68.78-1.18.78Z"/>
  <path class="st1" d="M37.75,181.73c-.33,0-.66-.13-.91-.38-.49-.5-.49-1.31.02-1.81l19.81-19.43c.51-.49,1.32-.49,1.81.02.49.5.49,1.31-.02,1.81l-19.81,19.43c-.25.24-.57.37-.9.37Z"/>
  <path class="st0" d="M38.14,163.25c-.41,0-.82-.2-1.06-.57-.39-.59-.24-1.38.35-1.77l25.53-17.15c.58-.39,1.38-.24,1.77.35.39.59.24,1.38-.35,1.77l-25.53,17.15c-.22.15-.47.22-.71.22Z"/>
  <path class="st0" d="M28.04,153.16c-.49,0-.97-.29-1.17-.77-.28-.65.02-1.4.67-1.68l29.15-12.57c.64-.28,1.4.02,1.68.67.28.65-.02,1.4-.67,1.68l-29.15,12.57c-.16.07-.34.1-.51.1Z"/>
  <circle class="st0" cx="20.52" cy="155.1" r="2.48"/>
  <circle class="st0" cx="67.44" cy="191.84" r="2.48"/>
  <circle class="st1" cx="100" cy="197.52" r="2.48"/>
  <circle class="st0" cx="132.56" cy="191.84" r="2.48"/>
  <circle class="st0" cx="179.48" cy="155.1" r="2.48"/>
</svg>