<?xml version="1.0" encoding="UTF-8"?>
<svg id="Ebene_1" xmlns="http://www.w3.org/2000/svg" version="1.1" viewBox="0 0 200 200">
  <!-- Generator: Adobe Illustrator 30.0.0, SVG Export Plug-In . SVG Version: 2.1.1 Build 123)  -->
  <defs>
    <style>
      .st0 {
        fill: #6e9de7;
      }

      .st1 {
        fill: none;
        stroke: #1c2761;
        stroke-linecap: round;
        stroke-linejoin: round;
        stroke-width: 2.79px;
      }

      .st2 {
        fill: #1c2761;
      }
    </style>
  </defs>
  <path class="st2" d="M79.63,106.85h-7.38c-.5,0-.96-.29-1.17-.74-.22-.45-.16-.99.15-1.38,1.2-1.5,2.17-3.15,2.9-4.88.42-1,.75-2.02,1-3.07-2.22-.35-5.94-1.43-8.76-4.7-2.41-2.8-3.01-5.82-3.1-7.79-4.52-2.15-5.47-7.49-5.67-9.71-.3-3.73.96-9.42,4.62-11.3.32-2.11,1.42-5.99,5.15-9.11,3.71-3.11,7.91-3.68,10.07-3.75,2.85-3.61,7.2-5.49,9.24-6.21.51-.18,1.02-.34,1.53-.47.7-.17,1.4.26,1.57.96.17.7-.26,1.4-.96,1.57-.42.1-.84.24-1.26.39-1.76.63-7.64,3.05-9.58,7.95-.41,1.02-.57,1.99-.74,2.93-.31,1.8-.64,3.66-2.56,5.29-2,1.71-4.67,2.24-5.55,2.42-1.81.35-2.95.21-3.77.12-.65-.08-1.01-.12-1.51.05-2.51.84-3.94,5.38-3.65,8.94.15,1.66.8,5.49,3.64,7.29,1.69-3.54,6.09-6.95,8.08-8.37,5.23-3.73,10-5.61,12.98-6.51-1.41-1.63-2.52-3.46-3.33-5.47-.27-.67.06-1.42.72-1.69.66-.27,1.42.06,1.69.72.88,2.21,2.19,4.16,3.88,5.79l.37.34c2.37,2.17,5.06,3.33,6.66,3.9,2.32-4.16,5.44-7.61,9.31-10.26,1.58-1.09,3.73-2.56,6.58-3.51-1.01-2.45-2.58-4.64-4.6-6.41-.79-.7-1.68-1.35-2.68-1.94-.62-.36-.82-1.16-.46-1.78.36-.62,1.16-.83,1.78-.46.94.55,1.8,1.15,2.58,1.8,2.09-.38,6.23-.66,10.39,1.71,3.98,2.26,5.66,5.66,6.31,7.48.46.22.91.47,1.37.75,3.16,1.97,4.77,4.75,5.57,6.77.04.07.07.15.09.23.33.87.5,1.59.58,2,.94,4.68-.6,10.98-6.18,14.49-4.6,2.9-9.5,2.38-12.07,1.8-.63,3.4-3.19,5.91-3.57,6.27-2.57,2.36-6.22,3.5-10.31,3.21-1.77-.14-3.49-.6-5.19-1.36-1.24,1.27-2.56,2.5-3.92,3.65-1.34,1.13-2.33,1.85-3.12,2.43-.74.54-1.33.97-1.98,1.56-2,1.82-3.52,4.23-4.52,7.19-.18.53-.67.88-1.23.88ZM74.76,104.25h3.95c1.14-2.98,2.79-5.47,4.92-7.39.75-.68,1.42-1.17,2.19-1.73.8-.58,1.7-1.25,2.98-2.32,1.1-.93,2.17-1.91,3.19-2.93-.96-.58-1.92-1.26-2.91-2.06-1.64,1-4.94,2.5-9.06,1.75-4.46-.81-7.01-3.72-8.18-5.5-.72.46-1.56.87-2.59,1.01-1.13.18-2.23.18-3.29.03.21,1.46.8,3.45,2.38,5.28,2.96,3.44,7.19,3.9,8.41,3.96.37.02.72.19.95.48.23.29.33.66.27,1.03-.28,1.72-.77,3.4-1.44,5-.49,1.17-1.08,2.3-1.76,3.39ZM90.07,85.26c1.61,1.37,3.11,2.39,4.61,3.13,1.69.86,3.38,1.37,5.05,1.5,3.38.23,6.37-.66,8.39-2.52.38-.35,3.72-3.62,2.68-7.27-.57-2.04-2.28-3.33-3.47-4.07-.04-.02-.08-.05-.12-.07-.24-.15-.46-.27-.63-.37-1.74-.98-2.88-1.05-4.59-1.17-1.44-.1-3.23-.22-5.78-.95-.17-.04-.4-.11-.65-.19l-.39-.11c-3.28-1.04-5.94-2.46-8.13-4.32-2.24.57-7.65,2.28-13.6,6.52-3.45,2.46-6.04,5.08-7.12,7.14.82.12,1.67.12,2.51-.01.98-.13,1.67-.63,2.62-1.37l.16-.12c.92-.72,1.97-1.54,3.43-2.15,3.51-1.44,7.09.22,8.35.91.22-.05.49-.16.73-.36.39-.32.49-.72.52-.87.12-.71.79-1.18,1.51-1.06.71.12,1.18.8,1.06,1.51-.09.54-.4,1.57-1.41,2.41,0,0-.02.01-.02.02.58.47,1.08.93,1.69,1.49.39.36.84.77,1.39,1.26.38.34.72.64,1.09.96.05.03.09.07.14.12ZM73.93,82.51c.87,1.35,2.92,3.84,6.55,4.5,2.75.5,5.07-.29,6.49-1-.53-.47-.93-.84-1.29-1.17-1.15-1.05-1.78-1.64-3.22-2.58-.04-.02-.07-.04-.11-.07-.43-.26-3.56-2.06-6.33-.92-.8.34-1.47.78-2.09,1.24ZM113.51,80.35c1.38.37,4.31.91,7.43.07-.96-1.24-1.95-3.08-2.06-5.46-.12-2.49.75-4.83,2.57-6.98,2.04-2.39,4.66-3.43,6.54-3.88-.76-1.4-1.98-2.96-3.89-4.15-.49-.31-.99-.56-1.48-.78-.05-.02-.1-.04-.15-.07-2.94-1.22-5.75-.96-7.23-.82-.38.04-.75.08-1.11.14.44,1.71.63,3.5.59,5.31-.02.72-.54,1.28-1.33,1.27-.72-.02-1.29-.61-1.27-1.33.04-1.58-.13-3.13-.51-4.62-2.5.84-4.41,2.15-5.93,3.19-3.38,2.32-6.14,5.3-8.23,8.88,2.02.53,3.45.62,4.71.71,1.22.08,2.32.16,3.58.56-.02-.25-.02-.52,0-.79.08-1.28.56-2.55,1.36-3.58.44-.56,1.26-.67,1.82-.23.57.44.67,1.26.23,1.82-.28.36-.76,1.12-.82,2.14-.06.96.27,1.72.55,2.19,1.49.95,3.64,2.68,4.42,5.46.09.32.16.63.21.95ZM128.99,66.53c-1.51.3-3.83,1.09-5.56,3.13-.52.61-2.08,2.45-1.95,5.17.1,2.14,1.23,3.72,2.02,4.57.22-.12.44-.25.66-.38,4.53-2.85,5.78-7.97,5.02-11.78-.04-.18-.09-.42-.18-.71ZM64.98,62.71c.23.02.46.04.68.07.77.09,1.56.18,2.95-.08.72-.14,2.89-.58,4.38-1.85,1.21-1.03,1.4-2.12,1.69-3.76.18-1.02.38-2.17.88-3.44.06-.16.13-.31.19-.46-1.9.29-4.42,1.06-6.72,2.98-2.58,2.16-3.63,4.75-4.06,6.55ZM109.82,50.15c1.49,1.71,2.67,3.67,3.49,5.77.54-.1,1.09-.18,1.67-.23,1.16-.11,3.27-.31,5.72.18-.81-1.36-2.12-2.92-4.21-4.11-2.42-1.38-4.9-1.66-6.68-1.61Z"/>
  <g>
    <path class="st2" d="M82.1,163.96c.56,3.62.33,6.67.02,9.42-.93,7.82-3.08,16.48-6.45,25.77-.19.52-.69.85-1.23.85-.15,0-.3-.04-.43-.07-.69-.26-1.04-1-.78-1.67,3.27-9.09,5.41-17.56,6.3-25.19.33-2.97.48-5.57,0-8.71-.56-3.66-2.64-8.32-4.29-11.61-1.78-3.57-3.07-5.48-4.18-7.19-1.17-1.76-2.19-3.31-3.44-6.09-.24-.54-2.34-5.46-3.51-12.06-.48-2.68-.76-5.24-.87-7.71v-.02l2.62-.78c.06,2.56.32,5.26.8,8.04,1.15,6.43,3.25,11.26,3.34,11.46,1.15,2.6,2.12,4.05,3.23,5.72,1.15,1.75,2.47,3.75,4.33,7.45,2.53,5.02,4.05,9.2,4.53,12.39Z"/>
    <path class="st2" d="M171.37,141.7c-.45,1.86-2.06,2.9-2.58,3.25-.87.56-1.5.69-2.25.85-.37.07-.85.19-1.5.39-1.1.33-2.92.89-3.27,1.3.09.45.39,1.54.78,2.88l.28.97c.46,1.52.71,2.38.3,3.49-.46,1.32-1.54,2.1-2.56,2.6.8,1.24,1.15,2.47.98,3.68-.2,1.41-1,2.17-1.65,2.79-.39.37-.78.74-1.08,1.28-.63,1.11-.41,2.04.04,3.6.43,1.49.95,3.34.26,5.63-1.47,4.89-6.97,6.78-7.21,6.86-1.28.43-2.49.58-3.53.58-.98,0-1.82-.13-2.4-.22-5.11-.76-9.38-1.73-12.35-2.49-1.06,1.82-1.91,3.75-2.49,5.78-1.56,5.43-.93,10.31-.11,13.45.17.71-.24,1.41-.95,1.6-.11.02-.2.04-.32.04-.58,0-1.11-.39-1.26-.98-1.28-4.96-1.23-10.09.13-14.83.58-2.01,1.39-3.92,2.4-5.76-.95-.28-1.54-.46-1.73-.52-13.01-4.29-15.29-6.11-16.94-8.04-1.67-1.97-2.92-4.29-3.73-6.89-.22-.69.17-1.41.85-1.63.67-.2,1.41.17,1.62.85.72,2.29,1.8,4.29,3.25,5.98,1.28,1.5,3.44,3.2,15.75,7.26h.02c.28.09,6.93,2.23,16.24,3.62,1.04.15,2.77.41,4.74-.26.04-.02,4.44-1.52,5.54-5.15.46-1.54.11-2.81-.28-4.16-.46-1.62-.98-3.47.2-5.59.48-.87,1.08-1.43,1.56-1.9.56-.52.78-.76.85-1.24.09-.72-.24-1.54-.98-2.47-1.49.32-3.07.26-4.64-.19-.69-.2-1.08-.93-.89-1.62.2-.69.93-1.1,1.62-.89.97.28,2.45.5,4.03.02.72-.24,2.25-.71,2.6-1.65.09-.3.04-.58-.35-1.88l-.33-1.13c-.8-2.81-.95-3.31-.85-3.85.35-1.91,2.66-2.64,5.13-3.4.74-.22,1.28-.35,1.73-.45.63-.13.89-.2,1.37-.5.37-.24,1.26-.82,1.47-1.67.17-.69-.17-1.38-.58-2.14-.84-1.54-1.56-2.58-2.23-3.59-.52-.76-1.04-1.5-1.58-2.43-.84-1.41-1.62-2.64-2.3-3.73-2.29-3.6-3.81-6-3.99-9.62-.09-1.56.07-3.16.5-4.72.24-.87.33-1.86.26-2.92-.28-4.57-1.39-11.85-5.28-19.28l2.55-.76c3.9,7.67,5.05,15.14,5.33,19.9.09,1.34-.04,2.6-.35,3.75-.35,1.3-.48,2.6-.43,3.88.17,2.95,1.47,5,3.6,8.38.71,1.11,1.5,2.36,2.34,3.81.52.87,1,1.56,1.49,2.29.72,1.06,1.47,2.16,2.38,3.83.46.84,1.23,2.27.82,3.98Z"/>
  </g>
  <circle class="st0" cx="95.99" cy="105.13" r="1.39"/>
  <circle class="st0" cx="101.37" cy="105.78" r="1.39"/>
  <circle class="st0" cx="106.74" cy="105.78" r="1.39"/>
  <circle class="st0" cx="112.12" cy="104.39" r="1.39"/>
  <circle class="st0" cx="116.86" cy="101.61" r="1.39"/>
  <circle class="st0" cx="120.79" cy="97.77" r="1.39"/>
  <circle class="st0" cx="124.2" cy="93.48" r="1.39"/>
  <path class="st2" d="M82.3,123.21c-6.37,0-10.97-3.08-13.08-4.85-8.18,6-19.31,6.42-27.47.92-6.97-4.7-10.79-12.87-10.15-21.51-11.85-5.25-18.94-17.9-16.94-30.48,1.82-11.47,10.66-20.65,22.18-23.2-.65-10.8,4.72-20.92,13.92-26.06,10.69-5.97,21.6-2.2,25.25-.61,5.41-9.62,15.63-15.29,26.41-14.51,12.86.91,20,10.63,22.19,14.18,8.75-4.69,19.57-4.01,27.34,1.83,6.93,5.21,10.65,13.83,9.83,22.67,11.67,7.14,17.55,20.92,14.02,33.13-2.04,7.02-7.2,13.15-14.17,16.81-7.22,3.79-15.44,4.63-23.31,2.43-.9,4.49-3.55,12.7-11.26,18.71-12.11,9.45-26.61,5.67-30.36,4.45-1.92,1.94-6.55,5.74-13.44,6.07-.32.01-.64.02-.95.02ZM69.29,115.15c.35,0,.7.13.97.39,1.26,1.22,5.95,5.18,12.87,4.85,6.77-.32,11-4.54,12.14-5.82.39-.44,1-.59,1.55-.38.65.25,16.04,6.02,28.54-3.73,7.95-6.2,9.99-15.01,10.49-18.51.06-.41.3-.77.65-.99.35-.21.78-.27,1.17-.14,7.61,2.53,15.66,1.9,22.68-1.78,6.3-3.31,10.97-8.82,12.79-15.12,3.26-11.26-2.42-24.04-13.52-30.4-.49-.28-.76-.83-.69-1.39,1.05-8.16-2.26-16.21-8.64-21-7.24-5.45-17.47-5.84-25.45-.97-.33.2-.73.26-1.1.15-.37-.11-.69-.36-.86-.71-.27-.53-6.76-12.95-20.63-13.93-10.11-.71-19.65,4.85-24.36,14.19-.17.34-.47.59-.82.7-.36.12-.74.08-1.08-.1-.5-.27-12.33-6.44-23.84-.01-8.59,4.79-13.46,14.45-12.41,24.61.07.73-.42,1.39-1.14,1.52-10.96,1.94-19.46,10.44-21.16,21.14-1.85,11.65,4.96,23.37,16.19,27.86.58.23.94.83.87,1.46-.93,7.99,2.46,15.62,8.84,19.93,7.47,5.04,17.79,4.42,25.1-1.5.26-.21.57-.31.88-.31Z"/>
  <path class="st1" d="M164.5,137"/>
  <path class="st2" d="M86.6,138.66c-3.52,0-6.38-2.86-6.38-6.38s2.86-6.38,6.38-6.38,6.38,2.86,6.38,6.38-2.86,6.38-6.38,6.38ZM86.6,128.69c-1.98,0-3.59,1.61-3.59,3.59s1.61,3.59,3.59,3.59,3.59-1.61,3.59-3.59-1.61-3.59-3.59-3.59Z"/>
  <path class="st2" d="M96.09,146.66c-2.36,0-4.28-1.92-4.28-4.28s1.92-4.28,4.28-4.28,4.28,1.92,4.28,4.28-1.92,4.28-4.28,4.28ZM96.09,140.89c-.82,0-1.49.67-1.49,1.49s.67,1.49,1.49,1.49,1.49-.67,1.49-1.49-.67-1.49-1.49-1.49Z"/>
  <g>
    <path class="st0" d="M148.17,68.86h0l-13.17-.07c-.51,0-.93-.42-.92-.93,0-.51.42-1.01.93-.92l13.17.07c.51,0,.93.42.92.93,0,.51-.42.92-.93.92Z"/>
    <g>
      <path class="st0" d="M134.99,68.8c-.26,0-.52-.11-.7-.32-.34-.39-.3-.97.09-1.31l4.07-3.54c.39-.34.97-.29,1.31.09.34.39.3.97-.09,1.31l-4.07,3.54c-.18.15-.39.23-.61.23Z"/>
      <path class="st0" d="M139.06,72.34c-.22,0-.43-.07-.61-.23l-4.07-3.54c-.39-.34-.43-.92-.09-1.31.34-.39.92-.43,1.31-.09l4.07,3.54c.39.34.43.92.09,1.31-.18.21-.44.32-.7.32Z"/>
    </g>
  </g>
  <g>
    <path class="st0" d="M56.79,97.43c-.24,0-.48-.09-.66-.28-.36-.36-.36-.95,0-1.31l5.88-5.82c.36-.36.95-.36,1.31,0,.36.36.36.95,0,1.31l-5.88,5.82c-.18.18-.42.27-.65.27Z"/>
    <g>
      <path class="st0" d="M62.26,96.93s-.04,0-.06,0c-.51-.03-.9-.48-.86-.99l.37-5.38c.03-.51.49-.9.99-.86.51.03.9.48.86.99l-.37,5.38c-.03.49-.44.87-.93.87Z"/>
      <path class="st0" d="M57.25,91.93c-.48,0-.89-.38-.93-.87-.03-.51.35-.96.86-.99l5.38-.37c.51-.04.96.35.99.86.03.51-.35.96-.86.99l-5.38.37s-.04,0-.06,0Z"/>
    </g>
  </g>
  <g>
    <path class="st0" d="M38.94,72.42c-.51,0-.93-.41-.93-.92,0-.51.41-.93.92-.93l15.95-.08c.59,0,.93.41.93.92,0,.51-.41.93-.92.93l-15.95.08h0Z"/>
    <g>
      <path class="st0" d="M54.89,72.34c-.22,0-.43-.07-.61-.23l-4.07-3.54c-.39-.34-.43-.92-.09-1.31.34-.39.93-.43,1.31-.09l4.07,3.54c.39.34.43.92.09,1.31-.18.21-.44.32-.7.32Z"/>
      <path class="st0" d="M50.82,75.88c-.26,0-.52-.11-.7-.32-.34-.39-.3-.97.09-1.31l4.07-3.54c.39-.34.97-.3,1.31.09.34.39.3.97-.09,1.31l-4.07,3.54c-.18.15-.39.23-.61.23Z"/>
    </g>
  </g>
  <g>
    <path class="st0" d="M48.23,97.43c-.32,0-.63-.16-.8-.46l-9.26-15.85c-.26-.44-.11-1.01.33-1.27.45-.26,1.01-.11,1.27.33l9.26,15.85c.26.44.11,1.01-.33,1.27-.15.09-.31.13-.47.13Z"/>
    <g>
      <path class="st0" d="M37.93,86.86c-.06,0-.12,0-.18-.02-.5-.1-.83-.59-.73-1.09l1.03-5.29c.1-.51.6-.83,1.09-.73.5.1.83.59.73,1.09l-1.03,5.29c-.09.44-.48.75-.91.75Z"/>
      <path class="st0" d="M44.06,83.32c-.1,0-.2-.01-.3-.05l-5.1-1.75c-.49-.17-.74-.7-.58-1.18s.69-.75,1.18-.58l5.1,1.75c.49.17.74.7.58,1.18-.13.39-.49.63-.88.63Z"/>
    </g>
  </g>
  <g>
    <path class="st0" d="M123.3,49.21c-.25,0-.5-.1-.68-.3-.35-.38-.32-.96.05-1.31l9.69-8.93c.38-.35.96-.32,1.31.05.35.38.32.96-.05,1.31l-9.69,8.93c-.18.16-.4.25-.63.25Z"/>
    <g>
      <path class="st0" d="M123.3,49.21s-.06,0-.1,0c-.51-.05-.88-.51-.83-1.02l.56-5.36c.05-.51.52-.88,1.02-.83.51.05.88.51.83,1.02l-.56,5.36c-.05.48-.45.83-.92.83Z"/>
      <path class="st0" d="M123.3,49.21c-.5,0-.91-.4-.93-.9-.02-.51.39-.94.9-.96l5.39-.18c.58-.02.94.38.96.9.02.51-.39.94-.9.96l-5.39.18h-.03Z"/>
    </g>
  </g>
  <g>
    <path class="st0" d="M63.44,35.13c-.4,0-.77-.26-.89-.67-.14-.49.14-1.01.63-1.15l19.15-5.55c.5-.14,1.01.14,1.15.63.14.49-.14,1.01-.63,1.15l-19.15,5.55c-.09.02-.17.04-.26.04Z"/>
    <g>
      <path class="st0" d="M79.69,34.12c-.17,0-.34-.05-.5-.15-.43-.28-.56-.85-.28-1.28l2.9-4.55c.28-.43.84-.56,1.28-.28.43.28.56.85.28,1.28l-2.9,4.55c-.18.28-.48.43-.79.43Z"/>
      <path class="st0" d="M82.59,29.58c-.13,0-.26-.03-.39-.08l-4.9-2.25c-.47-.21-.67-.77-.46-1.23.21-.47.76-.67,1.23-.46l4.9,2.25c.47.21.67.77.46,1.23-.16.34-.49.54-.84.54Z"/>
    </g>
  </g>
  <g>
    <path class="st0" d="M36.95,68.21c-.16,0-.33-.04-.48-.13-.44-.26-.58-.83-.32-1.27l13.13-21.96c.26-.44.83-.59,1.27-.32.44.26.58.83.32,1.27l-13.13,21.96c-.17.29-.48.45-.8.45Z"/>
    <g>
      <path class="st0" d="M51.06,51.55c-.44,0-.83-.31-.91-.76l-.98-5.3c-.09-.5.24-.99.75-1.08.5-.09.99.24,1.08.75l.98,5.3c.09.5-.24.99-.75,1.08-.06,0-.11.02-.17.02Z"/>
      <path class="st0" d="M44.97,47.94c-.39,0-.75-.25-.88-.64-.16-.49.1-1.01.59-1.17l5.12-1.7c.49-.16,1.01.1,1.17.59.16.49-.1,1.01-.59,1.17l-5.12,1.7c-.1.03-.2.05-.29.05Z"/>
    </g>
  </g>
  <g>
    <path class="st0" d="M152.24,57.72c-.32,0-.63-.16-.8-.45l-10.38-17.44c-.26-.44-.12-1.01.32-1.27.45-.26,1.01-.12,1.27.32l10.38,17.44c.26.44.12,1.01-.32,1.27-.15.09-.31.13-.47.13Z"/>
    <g>
      <path class="st0" d="M152.23,57.72c-.09,0-.19-.01-.29-.05l-5.13-1.66c-.49-.16-.76-.68-.6-1.17.16-.49.68-.76,1.17-.6l5.13,1.66c.49.16.76.68.6,1.17-.13.39-.49.64-.88.64Z"/>
      <path class="st0" d="M152.24,57.72c-.05,0-.11,0-.16-.01-.51-.09-.84-.57-.75-1.08l.94-5.31c.09-.51.58-.84,1.08-.75.51.09.84.57.75,1.08l-.94,5.31c-.08.45-.47.77-.91.77Z"/>
    </g>
  </g>
  <g>
    <g>
      <path class="st0" d="M95.85,58.88c-.26,0-.52-.11-.7-.32l-3.54-4.07c-.34-.39-.3-.97.09-1.31.39-.34.97-.3,1.31.09l3.54,4.07c.34.39.3.97-.09,1.31-.18.15-.39.23-.61.23Z"/>
      <path class="st0" d="M95.85,58.88c-.22,0-.43-.07-.61-.23-.39-.34-.43-.92-.09-1.31l3.54-4.07c.34-.39.92-.43,1.31-.09.39.34.43.92.09,1.31l-3.54,4.07c-.18.21-.44.32-.7.32Z"/>
    </g>
    <path class="st0" d="M95.85,58.88c-.51,0-.93-.42-.93-.93v-27.03c0-.51.42-.93.93-.93s.93.42.93.93v27.03c0,.51-.42.93-.93.93Z"/>
  </g>
  <g>
    <g>
      <path class="st0" d="M105.32,28.03c-.33,0-.66-.18-.82-.5-.24-.45-.06-1.02.39-1.25l4.78-2.5c.45-.24,1.02-.06,1.25.39.24.45.06,1.02-.39,1.25l-4.78,2.5c-.14.07-.28.11-.43.11Z"/>
      <path class="st0" d="M108.45,32.42c-.29,0-.57-.14-.76-.39l-3.13-4.39c-.3-.42-.2-1,.22-1.3.42-.3,1-.2,1.3.22l3.13,4.39c.3.42.2,1-.22,1.3-.16.12-.35.17-.54.17Z"/>
    </g>
    <path class="st0" d="M131.9,34.39c-.07,0-.14,0-.22-.03l-26.58-6.35c-.5-.12-.81-.62-.69-1.12.12-.5.62-.81,1.12-.69l26.58,6.35c.5.12.81.62.69,1.12-.1.43-.48.71-.9.71Z"/>
  </g>
  <g>
    <path class="st2" d="M50.57,113.09c-.1,0-.19,0-.29-.01-1.48-.14-2.66-1.32-2.8-2.8-.06-.69-.67-1.2-1.35-1.14-.15.01-.29.05-.42.11-1.57.72-3.42.02-4.12-1.54-.61-1.35-.18-2.95,1.02-3.81.57-.4.71-1.18.31-1.74-.08-.12-.18-.22-.3-.3-.68-.49-1.13-1.21-1.26-2.03-.13-.82.06-1.64.54-2.32.86-1.2,2.45-1.63,3.8-1.02.63.29,1.38.02,1.67-.6.06-.13.1-.27.11-.42,0-.02,0-.05,0-.07.09-.8.49-1.52,1.11-2.04.64-.53,1.46-.77,2.27-.7,1.48.14,2.66,1.32,2.8,2.8.03.34.19.64.44.85.26.21.57.32.91.29.14-.01.29-.05.42-.11.76-.35,1.6-.38,2.38-.08.78.29,1.39.87,1.74,1.62.61,1.35.18,2.95-1.02,3.81-.57.4-.71,1.18-.31,1.75.08.12.19.22.31.31.68.49,1.13,1.2,1.26,2.02.14.82-.05,1.64-.54,2.32-.86,1.2-2.46,1.63-3.81,1.02-.63-.3-1.38-.02-1.67.6-.06.13-.1.27-.11.42-.15,1.61-1.51,2.82-3.09,2.82ZM46.23,107.28c1.59,0,2.95,1.22,3.1,2.83.05.59.53,1.06,1.12,1.12.7.08,1.29-.44,1.36-1.12.03-.35.12-.7.28-1.03.35-.75.97-1.33,1.75-1.61.78-.28,1.62-.25,2.38.1.53.24,1.18.07,1.52-.41.19-.27.27-.6.22-.93s-.23-.62-.51-.81c-.29-.2-.54-.46-.75-.75-.48-.68-.66-1.5-.52-2.32s.6-1.53,1.28-2.01c.48-.34.65-.99.4-1.53-.14-.3-.39-.53-.7-.65-.31-.12-.65-.1-.95.03-.32.15-.67.24-1.03.27-.82.07-1.63-.18-2.27-.71-.64-.53-1.03-1.28-1.1-2.11-.06-.59-.53-1.06-1.12-1.12-.32-.04-.66.07-.91.28-.26.21-.42.51-.45.84,0,.02,0,.04,0,.06-.04.34-.13.66-.27.97-.72,1.55-2.57,2.23-4.13,1.51-.54-.24-1.18-.07-1.52.41-.2.27-.27.6-.22.93.05.33.23.62.51.81.29.2.55.46.75.76.98,1.4.64,3.34-.76,4.32-.48.34-.65.98-.4,1.53.14.3.39.53.7.65.31.11.65.11.96-.03.31-.15.66-.24,1.03-.28.09,0,.18-.01.27-.01Z"/>
    <path class="st2" d="M50.57,106.6c-2.05,0-3.72-1.67-3.72-3.72s1.67-3.72,3.72-3.72,3.72,1.67,3.72,3.72-1.67,3.72-3.72,3.72ZM50.57,101.01c-1.03,0-1.86.84-1.86,1.86s.84,1.86,1.86,1.86,1.86-.84,1.86-1.86-.84-1.86-1.86-1.86Z"/>
  </g>
  <path class="st2" d="M55.22,44.58c-5.04,0-9.14-4.1-9.14-9.14,0-2.33.77-4.63,2.18-6.49.36-.53.94-.91,1.61-1.04.68-.13,1.36.01,1.93.4.36.24.65.57.84.94,1.2-.82,2.66-1.31,4.22-1.31,4.13,0,7.5,3.36,7.5,7.5,0,5.04-4.1,9.14-9.14,9.14ZM50.36,29.72s-.09,0-.14.01c-.19.04-.35.14-.46.3-1.19,1.58-1.83,3.48-1.83,5.41,0,4.02,3.27,7.29,7.28,7.29s7.28-3.27,7.28-7.28c0-3.11-2.53-5.64-5.64-5.64s-5.64,2.53-5.64,5.64c0,2.21,1.79,4,4,4s4-1.79,4-4c0-1.3-1.06-2.36-2.36-2.36s-2.36,1.06-2.36,2.36c0,.39.32.71.71.71s.71-.32.71-.71c0-.51.42-.93.93-.93s.93.42.93.93c0,1.42-1.15,2.57-2.57,2.57s-2.57-1.15-2.57-2.57c0-2.32,1.89-4.21,4.21-4.21s4.21,1.89,4.21,4.21c0,3.23-2.63,5.86-5.86,5.86s-5.86-2.63-5.86-5.86c0-1.64.53-3.15,1.42-4.38.03-.05.06-.1.1-.14.17-.24.21-.43.17-.61-.04-.19-.14-.35-.3-.46-.12-.08-.26-.12-.4-.12Z"/>
  <g>
    <path class="st2" d="M156.56,76.62c-1.35,0-2.69-.29-3.95-.88-.07-.02-.21-.04-.35,0l-2.79.82c-.29.08-.57.09-.84.03-.95-.2-1.57-1.13-1.38-2.09l.92-2.87c0-.06,0-.2-.05-.33-1.2-2.53-1.22-5.43-.03-7.97,1.06-2.26,2.93-3.97,5.27-4.83,2.35-.85,4.88-.74,7.14.32s3.97,2.93,4.83,5.27c.85,2.34.74,4.88-.32,7.14-1.06,2.26-2.93,3.97-5.27,4.83-1.04.38-2.12.57-3.19.57ZM149.06,74.96h0ZM152.44,73.87c.32,0,.62.06.9.17,1.87.87,3.9.96,5.78.28,1.88-.68,3.38-2.06,4.22-3.87,1.75-3.74.12-8.2-3.61-9.94-1.81-.85-3.84-.93-5.72-.25s-3.38,2.06-4.22,3.87c-.96,2.04-.94,4.38.04,6.41,0,.02.02.04.03.06.19.49.23,1.02.12,1.52l-.84,2.61,2.69-.8c.21-.04.42-.06.61-.06Z"/>
    <path class="st2" d="M156.5,69.05c-.39,0-.75-.25-.88-.63-.16-.49.1-1.01.58-1.18.62-.21,1.89-.89,1.89-1.64,0-.68-.43-1.28-1.06-1.51-.4-.14-.83-.12-1.22.07-.38.18-.67.51-.81.91-.17.49-.71.74-1.18.57-.49-.17-.74-.7-.57-1.18.31-.87.93-1.57,1.76-1.97s1.77-.45,2.64-.14c1.38.49,2.31,1.8,2.31,3.26,0,2.28-2.84,3.3-3.16,3.4-.1.03-.2.05-.29.05Z"/>
    <path class="st2" d="M156.58,72.41c-.51,0-.93-.42-.93-.93s.41-.93.93-.93h0c.51,0,.93.42.93.93s-.42.93-.93.93Z"/>
  </g>
  <path class="st2" d="M145.16,39.74h-12.21c-.51,0-.93-.42-.93-.93v-12.21c0-.51.42-.93.93-.93h12.21c.51,0,.93.42.93.93v12.21c0,.51-.42.93-.93.93ZM133.88,37.88h10.36v-10.36h-10.36v10.36Z"/>
  <path class="st2" d="M41.71,77.23h-13.92c-.33,0-.64-.18-.8-.46s-.17-.64,0-.93l6.96-12.06c.33-.57,1.28-.57,1.61,0l6.96,12.06c.17.29.17.64,0,.93s-.47.46-.8.46ZM29.4,75.37h10.71l-5.35-9.27-5.35,9.27Z"/>
  <path class="st2" d="M93.61,33.96c-.32,0-.64-.11-.89-.33-.39-.34-.56-.89-.42-1.38l1.63-5.1-5.79.07h0c-.97,0-1.77-.79-1.77-1.76,0-.41.14-.81.4-1.12l8.39-8.65c.2-.23.53-.4.89-.42.37-.03.71.09.98.32.4.34.56.87.42,1.37l-1.63,5.11,5.8-.07h0c.47,0,.91.18,1.24.51.34.33.52.78.52,1.25,0,.41-.14.81-.4,1.12l-8.39,8.64c-.24.28-.6.43-.97.43ZM93.26,32.23s-.03.03-.04.04l.04-.04ZM94.03,25.36c.2,0,.41.04.61.11.92.34,1.38,1.36,1.04,2.28l-.94,2.95,6.65-6.85h-5.7c-.2,0-.41-.04-.61-.11-.91-.34-1.38-1.36-1.04-2.28l.94-2.95-6.65,6.85h5.7ZM88.14,25.56h0ZM101.59,23.65h0ZM96.51,16.94l-.04.04s.03-.03.04-.04Z"/>
  <path class="st0" d="M182.99,92.33c-3.18,0-5.77-2.59-5.77-5.77s2.59-5.77,5.77-5.77,5.77,2.59,5.77,5.77-2.59,5.77-5.77,5.77ZM182.99,82.64c-2.16,0-3.92,1.76-3.92,3.92s1.76,3.92,3.92,3.92,3.92-1.76,3.92-3.92-1.76-3.92-3.92-3.92Z"/>
  <path class="st0" d="M66.84,8.59c-2.37,0-4.29-1.93-4.29-4.3s1.93-4.3,4.29-4.3,4.3,1.93,4.3,4.3-1.93,4.3-4.3,4.3ZM66.84,1.86c-1.34,0-2.44,1.09-2.44,2.44s1.09,2.44,2.44,2.44,2.44-1.09,2.44-2.44-1.09-2.44-2.44-2.44Z"/>
  <path class="st0" d="M11.67,104.89c-2.56,0-4.64-2.08-4.64-4.64s2.08-4.64,4.64-4.64,4.64,2.08,4.64,4.64-2.08,4.64-4.64,4.64ZM11.67,97.47c-1.53,0-2.78,1.25-2.78,2.78s1.25,2.78,2.78,2.78,2.78-1.25,2.78-2.78-1.25-2.78-2.78-2.78Z"/>
  <path class="st0" d="M22.03,111.67c-1.8,0-3.26-1.46-3.26-3.26s1.46-3.26,3.26-3.26,3.26,1.46,3.26,3.26-1.46,3.26-3.26,3.26ZM22.03,107.01c-.77,0-1.4.63-1.4,1.4s.63,1.4,1.4,1.4,1.4-.63,1.4-1.4-.63-1.4-1.4-1.4Z"/>
  <path class="st0" d="M53.89,145.6c-2.58,0-4.68-2.1-4.68-4.68s2.1-4.68,4.68-4.68,4.68,2.1,4.68,4.68-2.1,4.68-4.68,4.68ZM53.89,138.09c-1.56,0-2.83,1.27-2.83,2.83s1.27,2.83,2.83,2.83,2.83-1.27,2.83-2.83-1.27-2.83-2.83-2.83Z"/>
  <path class="st0" d="M31.17,133.56c-1.37,0-2.35-1.02-3.13-1.84-.77-.81-1.24-1.28-1.85-1.25-.55.05-1.08.68-1.59,1.28l-.16.19c-1.16,1.38-2.5,1.9-3.67,1.44-.84-.33-1.28-1.05-1.64-1.63-.12-.19-.23-.38-.37-.55-.41-.52-1.07-.86-1.74-.89-.51-.02-.92-.45-.9-.96.02-.51.44-.9.96-.9,1.22.04,2.4.64,3.15,1.6.17.22.33.47.48.72.24.4.48.77.74.88.43.16,1.12-.38,1.57-.91l.16-.18c.68-.82,1.54-1.83,2.86-1.94,1.46-.14,2.52.96,3.34,1.82.64.67,1.24,1.34,1.85,1.26.55-.03,1.03-.6,1.59-1.25.71-.83,1.52-1.77,2.8-1.91,1.56-.17,2.6.91,3.53,1.85.85.86,1.41,1.36,2.01,1.3.56-.07,1.08-.71,1.58-1.34l.14-.17c1.11-1.38,2.37-1.95,3.54-1.61.49.14.78.66.64,1.15-.14.49-.66.78-1.15.64-.41-.11-.99.26-1.58,1l-.13.17c-.66.83-1.48,1.85-2.8,2.02-1.53.2-2.67-.93-3.56-1.84-.82-.83-1.37-1.37-2.01-1.31-.55.06-1.05.65-1.58,1.27-.73.85-1.55,1.82-2.89,1.9-.06,0-.12,0-.18,0Z"/>
  <path class="st0" d="M15.23,37.9c-.44,0-.86-.12-1.26-.4-.55-.38-.83-.94-1.05-1.39-.54-1.08-1.45-2.05-2.25-1.84-.5.14-1.01-.15-1.15-.64-.14-.49.15-1.01.64-1.15,1.95-.55,3.57,1.12,4.37,2.71.19.37.33.67.5.78.36.25,1.16-.28,1.64-.93l.21-.29c.7-.96,1.57-2.15,3.04-2.25,1.6-.13,2.57,1.1,3.38,2.07.76.9,1.26,1.46,1.84,1.41.58-.04,1.12-.75,1.63-1.48.42-.6,1.52-2.19,3.24-2.09.51.03.9.47.87.98-.03.51-.49.89-.99.87-.44-.03-.97.4-1.59,1.3-.56.81-1.5,2.16-3.02,2.27-1.52.09-2.58-1.1-3.39-2.07-.74-.88-1.25-1.42-1.84-1.41-.6.04-1.14.77-1.65,1.49l-.22.3c-.74.99-1.85,1.74-2.93,1.74Z"/>
  <path class="st0" d="M138.33,9.08h-.02c-1.73-.01-2.59-1.68-3.15-2.78-.37-.72-1.06-1.41-1.42-1.25-.47.21-1.02,0-1.22-.48s0-1.02.48-1.22c1.54-.68,3.04.56,3.82,2.1.36.7.91,1.77,1.51,1.77h0c.46,0,.83-.54,1.38-1.44.61-1,1.37-2.24,2.81-2.38,1.78-.19,2.9,1.5,3.5,2.41.5.75,1.22,1.44,1.69,1.26.18-.07.41-.29.61-.48l3.09-3.03c.19-.19.45-.27.71-.26,1.5.1,2.39,1.28,3.17,2.31.73.96,1.23,1.55,1.8,1.5.58-.04,1.11-.73,1.67-1.46.77-1.01,1.73-2.27,3.34-2.06.51.07.87.53.8,1.04-.07.51-.54.86-1.04.8-.53-.08-.95.47-1.62,1.35-.71.93-1.59,2.08-3.01,2.18-1.63.1-2.62-1.19-3.41-2.23-.49-.64-.95-1.26-1.46-1.49l-2.73,2.67c-.32.31-.71.7-1.27.9-1.31.48-2.73-.25-3.87-1.98-.57-.86-1.17-1.64-1.76-1.58-.49.05-.87.63-1.41,1.5-.63,1.04-1.43,2.33-2.96,2.33Z"/>
  <path class="st0" d="M188.7,38c-.16,0-.32-.02-.47-.05-.71-.16-1.21-.65-1.6-1.12l-.35-.43c-.37-.46-.72-.89-1.13-1.21-.48-.38-1.01-.54-1.42-.44-.51.14-.95.7-1.43,1.3-.69.87-1.56,1.94-2.96,1.92-1.39-.02-2.22-1.09-2.88-1.95-.47-.61-.92-1.19-1.43-1.3-.57-.13-1.33.37-1.98.85-.52.38-1.05.83-1.05,1.23,0,.51-.39.89-.94.91-.51,0-.92-.43-.91-.94.02-1.37,1.22-2.27,1.8-2.69.7-.52,2.02-1.5,3.49-1.18,1.17.26,1.87,1.17,2.49,1.97.59.76.98,1.22,1.45,1.23.48.04.87-.45,1.48-1.22.61-.77,1.3-1.64,2.4-1.94.99-.26,2.09.02,3.05.77.57.45,1,.98,1.42,1.49l.33.4c.12.14.39.46.58.5.15.03.38-.05.65-.22.52-.33.95-.8,1.24-1.36.23-.46.8-.64,1.25-.4.46.23.64.79.4,1.25-.44.85-1.09,1.56-1.89,2.07-.54.35-1.07.52-1.58.52Z"/>
  <path class="st0" d="M179.53,105.77s-.05,0-.07,0c-1.5-.11-2.51-1.25-3.33-2.16l-.13-.14c-.47-.53-1.39-1.38-2.12-1.18-.5.14-.96.76-1.41,1.36-.71.96-1.6,2.13-3.14,1.93-1.2-.17-1.92-1.19-2.34-1.79l-1.4-2c-.29-.42-.19-1,.23-1.29.42-.29,1-.19,1.29.23l1.4,2c.33.47.71.97,1.08,1.02.39.05.75-.34,1.39-1.2.6-.81,1.29-1.73,2.41-2.04,1.3-.36,2.64.23,3.99,1.73l.13.15c.58.65,1.19,1.33,1.84,1.51.46-.3.86-.78,1.28-1.28.23-.27.46-.54.7-.8.97-1.02,2.64-1.94,4.17-1.18.83.41,1.26,1.15,1.63,1.8.26.44.5.85.81,1.05.52.33,1.33.07,1.82-.37.65-.59,1.04-1.51,1.42-2.4.2-.47.75-.69,1.22-.49.47.2.69.75.49,1.22-.43,1.02-.93,2.18-1.88,3.05-1.02.92-2.75,1.41-4.08.56-.68-.44-1.06-1.1-1.4-1.68-.28-.49-.53-.91-.86-1.07-.57-.28-1.43.22-1.99.8-.21.22-.42.47-.62.71-.56.67-1.2,1.43-2.11,1.89-.13.06-.27.1-.41.1Z"/>
</svg>