<?xml version="1.0" encoding="UTF-8"?>
<svg id="Ebene_1" xmlns="http://www.w3.org/2000/svg" version="1.1" viewBox="0 0 200 200">
  <!-- Generator: Adobe Illustrator 30.0.0, SVG Export Plug-In . SVG Version: 2.1.1 Build 123)  -->
  <defs>
    <style>
      .st0 {
        fill: #6e9de7;
      }

      .st1 {
        fill: #1c2761;
      }

      .st2 {
        fill: #f9fafb;
      }
    </style>
  </defs>
  <g>
    <path class="st0" d="M112.02,80.81c-.11,0-.23-.02-.33-.07-.44-.18-.64-.69-.46-1.12l5.68-13.41-16.43,11.14c-.39.27-.93.16-1.19-.23-.27-.39-.16-.93.23-1.19l18.84-12.77c.31-.21.73-.19,1.03.05.29.24.39.65.25,1l-6.81,16.08c-.14.33-.46.52-.79.52Z"/>
    <path class="st0" d="M87.98,80.81c-.33,0-.65-.2-.79-.52l-6.81-16.08c-.15-.35-.05-.76.25-1,.29-.24.71-.26,1.03-.05l18.84,12.77c.39.27.49.8.23,1.19-.26.39-.8.49-1.19.23l-16.44-11.14,5.68,13.41c.18.44-.02.94-.46,1.12-.11.05-.22.07-.33.07Z"/>
  </g>
  <g>
    <path class="st0" d="M118.83,137.3c-.17,0-.34-.05-.48-.15l-18.84-12.77c-.39-.27-.49-.8-.23-1.19.27-.39.8-.5,1.19-.23l16.43,11.14-5.68-13.4c-.18-.44.02-.94.46-1.12.43-.19.94.02,1.12.46l6.81,16.08c.15.35.05.76-.25,1-.16.13-.35.19-.54.19Z"/>
    <path class="st0" d="M81.17,137.3c-.19,0-.39-.06-.54-.19-.29-.24-.39-.65-.25-1l6.81-16.08c.19-.44.69-.64,1.12-.46.44.18.64.69.46,1.12l-5.68,13.4,16.43-11.14c.39-.27.93-.16,1.19.23.27.39.16.93-.23,1.19l-18.84,12.77c-.15.1-.31.15-.48.15Z"/>
  </g>
  <g>
    <path class="st0" d="M123.5,101.02c-.17,0-.33-.05-.48-.15-.39-.27-.49-.8-.23-1.19l11.14-16.44-13.41,5.68c-.44.18-.94-.02-1.12-.46s.02-.94.46-1.12l16.08-6.81c.35-.15.76-.05,1,.25.24.29.26.71.05,1.03l-12.77,18.84c-.17.24-.44.38-.71.38Z"/>
    <path class="st0" d="M136.28,119.84c-.11,0-.23-.02-.33-.07l-16.08-6.81c-.44-.18-.64-.69-.46-1.12.19-.44.69-.64,1.12-.46l13.4,5.68-11.14-16.43c-.27-.39-.16-.93.23-1.19.39-.27.93-.16,1.19.23l12.77,18.84c.21.31.19.73-.05,1.03-.17.2-.41.31-.66.31Z"/>
  </g>
  <g>
    <path class="st0" d="M76.48,101.02c-.28,0-.55-.13-.71-.38l-12.77-18.84c-.21-.31-.19-.73.05-1.03.24-.29.65-.39,1-.25l16.08,6.81c.44.18.64.69.46,1.12s-.69.64-1.12.46l-13.4-5.68,11.14,16.43c.27.39.16.93-.23,1.19-.15.1-.31.15-.48.15Z"/>
    <path class="st0" d="M63.71,119.84c-.25,0-.5-.11-.66-.31-.24-.29-.26-.71-.05-1.03l12.77-18.84c.27-.39.8-.49,1.19-.23s.49.8.23,1.19l-11.14,16.43,13.4-5.68c.43-.18.94.02,1.12.46s-.02.94-.46,1.12l-16.08,6.81c-.11.05-.22.07-.33.07Z"/>
  </g>
  <circle class="st0" cx="99.96" cy="100.39" r="12.86"/>
  <g>
    <path class="st1" d="M99.99,142.22c-37.27,0-72.76-38.11-74.96-41.63-.21-.33-.21-.75,0-1.08,2.2-3.52,37.7-41.63,74.96-41.63s72.76,38.11,74.96,41.63c.21.33.21.75,0,1.08-2.19,3.52-37.66,41.63-74.96,41.63ZM27.16,100.05c4.41,5.7,37.82,40.13,72.84,40.13s68.4-34.5,72.83-40.13c-4.43-5.63-38.48-40.13-72.83-40.13S31.57,94.35,27.16,100.05Z"/>
    <path class="st1" d="M100.03,149.73c-43.35-.43-74.77-48.72-75.03-49.2-.16-.3-.16-.65,0-.95.26-.49,31.87-49.21,74.67-49.21h.33c.43,0,.86-.02,1.28-.02,41.93,0,73.44,48.72,73.7,49.22.16.3.16.65,0,.95-.25.48-29.57,47.76-74.96,49.2ZM27.12,100.05c3.33,5.01,32.95,47.24,72.89,47.63,41.82-1.33,69.71-42.67,72.88-47.63-3.28-4.98-32.93-47.66-71.62-47.66-.42,0-.83,0-1.25.01h-.31c-38.8,0-69.21,42.65-72.59,47.64Z"/>
  </g>
  <path class="st1" d="M99.99,142.06c-23.1,0-41.9-18.8-41.9-41.9s18.8-41.9,41.9-41.9,41.9,18.8,41.9,41.9-18.8,41.9-41.9,41.9ZM99.99,60.3c-21.98,0-39.86,17.88-39.86,39.86s17.88,39.86,39.86,39.86,39.86-17.88,39.86-39.86-17.88-39.86-39.86-39.86Z"/>
  <path class="st1" d="M99.99,113.87c-7.56,0-13.71-6.15-13.71-13.71s6.15-13.71,13.71-13.71,13.71,6.15,13.71,13.71-6.15,13.71-13.71,13.71ZM99.99,88.16c-6.62,0-12,5.38-12,12s5.38,12,12,12,12-5.38,12-12-5.38-12-12-12Z"/>
  <path class="st0" d="M99.99,118.96c-10.37,0-18.8-8.43-18.8-18.8s8.43-18.8,18.8-18.8,18.8,8.43,18.8,18.8-8.43,18.8-18.8,18.8ZM99.99,83.07c-9.42,0-17.09,7.66-17.09,17.08s7.66,17.09,17.09,17.09,17.09-7.66,17.09-17.09-7.66-17.08-17.09-17.08Z"/>
  <g>
    <path class="st1" d="M99.99,124.54c-13.44,0-24.37-10.93-24.37-24.37s10.93-24.37,24.37-24.37,24.37,10.93,24.37,24.37-10.93,24.37-24.37,24.37ZM99.99,77.51c-12.49,0-22.66,10.16-22.66,22.66s10.16,22.66,22.66,22.66,22.66-10.16,22.66-22.66-10.16-22.66-22.66-22.66Z"/>
    <path class="st1" d="M100,141.89c-.47,0-.86-.38-.86-.86v-17.35c0-.47.38-.86.86-.86s.86.38.86.86v17.35c0,.47-.38.86-.86.86Z"/>
    <path class="st1" d="M100,77.5c-.47,0-.86-.38-.86-.86v-17.37c0-.47.38-.86.86-.86s.86.38.86.86v17.37c0,.47-.38.86-.86.86Z"/>
    <path class="st1" d="M140.88,101.01h-17.37c-.47,0-.86-.38-.86-.86s.38-.86.86-.86h17.37c.47,0,.86.38.86.86s-.38.86-.86.86Z"/>
    <path class="st1" d="M76.47,101.01h-17.35c-.47,0-.86-.38-.86-.86s.38-.86.86-.86h17.35c.47,0,.86.38.86.86s-.38.86-.86.86Z"/>
    <g>
      <path class="st1" d="M112.85,81.33c-.29,0-.57-.15-.73-.41l-12.86-21.2c-.25-.41-.12-.93.29-1.18.41-.25.93-.11,1.18.29l12.86,21.2c.25.41.12.93-.29,1.18-.14.08-.29.12-.44.12Z"/>
      <path class="st1" d="M87.15,81.33c-.15,0-.3-.04-.44-.12-.41-.25-.53-.77-.29-1.18l12.86-21.2c.24-.4.77-.54,1.18-.29.41.25.53.77.29,1.18l-12.86,21.2c-.16.27-.44.41-.73.41Z"/>
    </g>
    <g>
      <path class="st1" d="M99.99,141.89c-.15,0-.3-.04-.44-.12-.41-.25-.53-.77-.29-1.18l12.86-21.2c.24-.4.77-.54,1.18-.29.41.25.53.77.29,1.18l-12.86,21.2c-.16.27-.44.41-.73.41Z"/>
      <path class="st1" d="M100.01,141.89c-.29,0-.57-.15-.73-.41l-12.86-21.2c-.25-.41-.12-.93.29-1.18.41-.25.93-.11,1.18.29l12.86,21.2c.25.41.12.93-.29,1.18-.14.08-.29.12-.44.12Z"/>
    </g>
    <g>
      <path class="st1" d="M119.68,113.87c-.29,0-.57-.15-.73-.41-.25-.41-.12-.93.29-1.18l21.2-12.86c.41-.25.93-.12,1.18.29.25.41.12.93-.29,1.18l-21.2,12.86c-.14.08-.29.12-.44.12Z"/>
      <path class="st1" d="M140.88,101.03c-.15,0-.3-.04-.44-.12l-21.2-12.86c-.41-.25-.53-.77-.29-1.18.24-.4.77-.54,1.18-.29l21.2,12.86c.41.25.53.77.29,1.18-.16.27-.44.41-.73.41Z"/>
    </g>
    <g>
      <path class="st1" d="M80.31,113.87c-.15,0-.3-.04-.44-.12l-21.2-12.86c-.41-.25-.53-.77-.29-1.18.25-.4.77-.54,1.18-.29l21.2,12.86c.41.25.53.77.29,1.18-.16.27-.44.41-.73.41Z"/>
      <path class="st1" d="M59.11,101.03c-.29,0-.57-.15-.73-.41-.25-.41-.12-.93.29-1.18l21.2-12.86c.41-.25.93-.11,1.18.29.25.41.12.93-.29,1.18l-21.2,12.86c-.14.08-.29.12-.44.12Z"/>
    </g>
  </g>
  <path class="st1" d="M100.01,197.38c-.47,0-.86-.38-.86-.86v-41.25c-.01-.47.37-.86.85-.86s.86.38.86.86v41.25c.01.47-.37.86-.85.86Z"/>
  <path class="st0" d="M109.99,177.96c-.42,0-.79-.31-.85-.74l-2.9-21.73c-.06-.47.27-.9.74-.96.46-.08.9.27.96.74l2.9,21.73c.06.47-.27.9-.74.96-.04,0-.08,0-.12,0Z"/>
  <path class="st0" d="M118.83,175.63c-.39,0-.74-.26-.83-.66l-4.97-20.81c-.11-.46.17-.92.64-1.03.47-.1.93.17,1.03.64l4.97,20.81c.11.46-.17.92-.64,1.03-.07.02-.13.02-.2.02Z"/>
  <path class="st1" d="M90.24,177.51s-.07,0-.11,0c-.47-.06-.8-.48-.75-.96l2.63-21.56c.06-.47.5-.81.96-.75.47.06.81.48.75.96l-2.63,21.56c-.05.43-.42.75-.85.75Z"/>
  <path class="st0" d="M80.86,175.82c-.07,0-.14,0-.21-.03-.46-.12-.73-.59-.62-1.04l5.44-21c.12-.46.58-.75,1.04-.62.46.12.73.59.62,1.04l-5.44,21c-.1.39-.45.64-.83.64Z"/>
  <path class="st0" d="M141.24,177.51c-.31,0-.61-.17-.76-.46l-14.06-27c-.22-.42-.06-.94.37-1.16.42-.22.94-.06,1.16.37l14.06,27c.22.42.06.94-.37,1.16-.13.07-.26.1-.4.1Z"/>
  <path class="st0" d="M145.74,162.51c-.27,0-.53-.12-.7-.36l-11.06-15.38c-.28-.39-.19-.92.19-1.2.38-.27.92-.19,1.2.19l11.06,15.38c.28.39.19.92-.19,1.2-.15.11-.33.16-.5.16Z"/>
  <path class="st0" d="M169.17,170.38c-.22,0-.44-.08-.61-.25l-27.19-27.56c-.33-.34-.33-.88,0-1.21.34-.33.88-.33,1.21,0l27.19,27.56c.33.34.33.88,0,1.21-.17.17-.39.25-.6.25Z"/>
  <path class="st0" d="M166.36,151.07c-.19,0-.37-.06-.53-.18l-17.06-13.5c-.37-.29-.43-.83-.14-1.21.3-.37.83-.43,1.21-.14l17.06,13.5c.37.29.43.83.14,1.21-.17.21-.42.33-.67.33Z"/>
  <path class="st1" d="M199.14,101.07h-18.41c-.47,0-.86-.38-.86-.86s.38-.86.86-.86h18.41c.47,0,.86.38.86.86s-.38.86-.86.86Z"/>
  <path class="st0" d="M179.97,114.3s-.09,0-.13,0l-6.33-.96c-.47-.07-.79-.51-.72-.98.07-.47.52-.78.98-.72l6.33.96c.47.07.79.51.72.98-.06.42-.43.73-.85.73Z"/>
  <path class="st0" d="M173.44,88.8c-.39,0-.75-.27-.84-.67-.1-.46.19-.92.65-1.02l6.14-1.34c.47-.1.92.19,1.02.65.1.46-.19.92-.65,1.02l-6.14,1.34c-.06.01-.12.02-.19.02Z"/>
  <path class="st0" d="M148.13,63.29c-.25,0-.49-.1-.66-.31-.3-.36-.26-.91.11-1.21l14-11.7c.36-.31.91-.26,1.21.11s.26.91-.11,1.21l-14,11.7c-.16.14-.36.2-.55.2Z"/>
  <path class="st0" d="M139.31,57.35c-.21,0-.43-.08-.6-.24-.34-.33-.35-.87-.02-1.21l25.5-26.27c.33-.34.87-.35,1.21-.02.34.33.35.87.02,1.21l-25.5,26.27c-.17.17-.39.26-.62.26Z"/>
  <path class="st0" d="M129.53,52.56c-.15,0-.31-.04-.45-.13-.4-.25-.53-.78-.28-1.18l9.97-16.11c.25-.4.78-.53,1.18-.28.4.25.53.78.28,1.18l-9.97,16.11c-.16.26-.44.41-.73.41Z"/>
  <path class="st0" d="M110.16,46.61s-.1,0-.15-.01c-.47-.08-.78-.53-.7-.99l3.64-20.9c.08-.47.54-.78.99-.7.47.08.78.53.7.99l-3.64,20.9c-.07.42-.44.71-.84.71Z"/>
  <path class="st1" d="M99.99,19.54h0c-.47,0-.86-.39-.85-.86l.07-15.2c0-.47.39-.85.86-.85h0c.47,0,.86.39.85.86l-.07,15.2c0,.47-.39.85-.86.85Z"/>
  <path class="st1" d="M100,46.04h0c-.47,0-.85-.39-.85-.86l.03-4.91c0-.47.39-.85.86-.85h0c.47,0,.85.39.85.86l-.03,4.91c0,.47-.39.85-.86.85Z"/>
  <path class="st0" d="M90.03,46.61c-.41,0-.77-.29-.84-.7l-3.84-21.09c-.09-.47.22-.91.69-1,.46-.09.91.22,1,.69l3.84,21.09c.09.47-.22.91-.69,1-.05,0-.1.01-.15.01Z"/>
  <path class="st0" d="M70.47,51.98c-.28,0-.56-.14-.72-.39l-10.35-16.11c-.26-.4-.14-.93.26-1.19.4-.26.93-.14,1.18.26l10.35,16.11c.26.4.14.93-.26,1.18-.14.09-.3.14-.46.14Z"/>
  <path class="st0" d="M60.88,57.16c-.22,0-.44-.08-.61-.25l-25.89-25.89c-.34-.34-.34-.88,0-1.21.33-.33.88-.33,1.21,0l25.89,25.89c.34.33.34.88,0,1.21-.17.17-.39.25-.61.25Z"/>
  <path class="st0" d="M52.06,63.29c-.19,0-.39-.06-.55-.19l-14.19-11.7c-.37-.3-.42-.84-.12-1.21.3-.37.85-.41,1.21-.12l14.19,11.7c.37.3.42.84.12,1.21-.17.21-.42.31-.66.31Z"/>
  <path class="st0" d="M26.36,88.42s-.09,0-.13,0l-6.14-.96c-.47-.07-.79-.51-.72-.98.08-.47.53-.77.98-.72l6.14.96c.47.07.79.51.72.98-.07.42-.43.73-.85.73Z"/>
  <path class="st1" d="M19.27,101.07h0l-18.41-.19c-.47,0-.85-.39-.85-.87s.35-.92.87-.85l18.41.19c.47,0,.85.39.85.87,0,.47-.39.85-.86.85Z"/>
  <path class="st0" d="M20.22,114.3c-.41,0-.77-.29-.84-.71-.08-.47.23-.91.7-.99l6.52-1.15c.46-.09.91.23.99.7.08.47-.23.91-.7.99l-6.52,1.15c-.05,0-.1.01-.15.01Z"/>
  <path class="st0" d="M33.84,151.12c-.25,0-.5-.11-.67-.33-.29-.37-.23-.91.14-1.2l17.26-13.62c.37-.29.91-.23,1.2.14.29.37.23.91-.14,1.2l-17.26,13.62c-.16.12-.34.18-.53.18Z"/>
  <path class="st0" d="M30.96,170.49c-.22,0-.43-.08-.6-.24-.34-.33-.35-.88-.01-1.21l27.04-27.61c.33-.34.87-.34,1.21-.01.34.33.35.88.01,1.21l-27.04,27.61c-.17.17-.39.26-.61.26Z"/>
  <path class="st0" d="M54.17,162.82c-.18,0-.36-.05-.51-.17-.38-.28-.46-.82-.18-1.2l11.5-15.53c.28-.38.82-.46,1.2-.18.38.28.46.82.18,1.2l-11.5,15.53c-.17.23-.43.35-.69.35Z"/>
  <path class="st0" d="M58.96,177.4c-.14,0-.27-.03-.4-.1-.42-.22-.58-.74-.35-1.16l14-26.27c.22-.42.74-.57,1.16-.35.42.22.58.74.35,1.16l-14,26.27c-.15.29-.45.45-.76.45Z"/>
  <path class="st0" d="M16.69,150.27c-.25,0-.5-.11-.67-.32-.3-.37-.24-.91.13-1.21.66-.53.96-1.48,1.28-2.49.41-1.28.87-2.73,2.21-3.5,1.31-.76,2.8-.48,4.11-.23,1.21.23,2.25.42,2.97-.1.64-.46.88-1.42,1.14-2.43.33-1.29.69-2.76,2.04-3.51,1.27-.71,2.62-.33,3.81,0,.85.23,1.64.45,2.32.29.79-.19,1.49-.92,2.16-2.23l.29-.58c.52-1.07,1.07-2.18,2.07-2.99.81-.65,1.94-.94,2.93-.75.79.14,1.44.58,1.82,1.22.24.41.11.93-.3,1.18-.4.24-.93.11-1.18-.3-.13-.21-.35-.35-.65-.41-.5-.09-1.13.07-1.55.41-.71.57-1.14,1.46-1.6,2.4l-.3.6c-.91,1.79-1.99,2.81-3.29,3.12-1.1.26-2.21-.04-3.18-.31-1-.28-1.87-.52-2.53-.15-.7.39-.94,1.33-1.21,2.43-.3,1.21-.65,2.58-1.8,3.41-1.32.96-2.9.66-4.29.4-1.12-.21-2.18-.41-2.94.03-.77.44-1.08,1.41-1.43,2.54-.37,1.15-.78,2.45-1.84,3.31-.16.13-.35.19-.54.19Z"/>
  <path class="st1" d="M8.47,135.97c-.07,0-.15,0-.22-.03-.46-.12-.73-.59-.61-1.05.35-1.3,1.42-5.27,4.6-5.57,1.11-.1,2.14.31,3.05.68.91.37,1.69.68,2.41.51,1.07-.27,1.75-1.63,2.29-2.73.39-.8,1.59-3.21,3.82-3.33,1.14-.02,2.02.48,2.84.94.66.38,1.29.74,1.88.72,1.01-.04,1.64-.99,2.55-2.57.9-1.55,1.92-3.31,3.91-3.45.44-.02.88.32.92.8.03.47-.32.88-.8.92-1.08.08-1.79,1.3-2.54,2.6-.91,1.57-1.94,3.35-3.97,3.43-1.07.04-1.99-.48-2.8-.95-.67-.38-1.29-.75-1.89-.71-.82.04-1.6.82-2.37,2.37-.66,1.34-1.57,3.18-3.42,3.64-1.26.31-2.44-.16-3.47-.58-.8-.32-1.53-.63-2.24-.56-1.34.13-2.36,1.54-3.1,4.31-.1.38-.45.64-.83.64Z"/>
  <path class="st1" d="M65.47,192.38c-.42,0-.79-.31-.85-.74-.06-.47.27-.9.73-.97,1.38-.19,2.51-1.62,2.38-3-.05-.55-.27-1.13-.49-1.74-.41-1.09-.87-2.33-.39-3.62.52-1.4,1.83-2.05,2.99-2.62.94-.46,1.82-.89,2.14-1.62.36-.81-.03-1.85-.44-2.94-.5-1.32-1.06-2.82-.37-4.29.59-1.25,1.81-1.83,2.9-2.34.92-.44,1.78-.85,2.08-1.56.33-.78-.06-1.71-.51-2.8-.51-1.22-1.08-2.6-.57-4.02.49-1.36,1.72-2.04,2.81-2.64.87-.48,1.69-.94,2.02-1.64.49-1.03-.13-2.38-.75-3.57-.22-.42-.06-.94.37-1.16.41-.22.94-.06,1.16.37.58,1.12,1.67,3.22.78,5.1-.57,1.2-1.72,1.84-2.74,2.4-.94.52-1.76.97-2.03,1.73-.29.79.12,1.76.54,2.78.52,1.26,1.12,2.68.5,4.13-.56,1.31-1.81,1.91-2.92,2.43-.9.43-1.76.84-2.08,1.53-.38.8.01,1.85.43,2.95.49,1.31,1.05,2.79.41,4.24-.58,1.3-1.84,1.92-2.95,2.47-1,.49-1.86.91-2.14,1.67-.26.69.04,1.5.39,2.43.25.69.52,1.4.59,2.17.22,2.28-1.58,4.56-3.86,4.86-.04,0-.08,0-.12,0Z"/>
  <path class="st1" d="M134.12,191.94c-.51,0-1.02-.15-1.49-.45-.87-.54-1.52-1.52-1.71-2.56-.22-1.19.02-2.33.25-3.42.06-.29.12-.58.17-.87.17-.99.23-2.32-.5-3.07-.37-.38-.95-.62-1.55-.86-.85-.35-1.82-.74-2.43-1.65-1.01-1.5-.39-3.19.16-4.68.44-1.2.86-2.34.39-3.14-.36-.61-1.18-.93-2.06-1.27-1.1-.42-2.34-.91-2.97-2.12-.77-1.49-.1-2.97.48-4.27.36-.8.7-1.55.72-2.27.06-1.54-1.44-2.86-2.96-3.47-.69-.27-1.36-.55-1.8-1.19-.79-1.16-.2-2.35.27-3.31.24-.48.49-.98.53-1.4.04-.47.47-.8.94-.77.47.05.82.47.77.94-.07.73-.4,1.4-.7,2-.42.85-.6,1.29-.39,1.59.14.21.52.36.88.5,0,0,.15.06.15.06,1.92.78,4.13,2.6,4.03,5.13-.04,1.04-.46,1.99-.87,2.9-.56,1.26-.88,2.08-.52,2.79.33.64,1.13.95,2.06,1.31,1.06.41,2.26.87,2.92,2.01.87,1.5.27,3.15-.27,4.59-.54,1.47-.83,2.41-.35,3.13.32.48.94.73,1.66,1.02.71.29,1.51.62,2.13,1.25.98,1,1.31,2.58.96,4.56-.06.31-.12.62-.18.92-.21.98-.4,1.9-.24,2.76.1.56.48,1.13.93,1.41.28.17.54.23.8.16.46-.13.93.14,1.06.6.13.46-.14.93-.6,1.06-.22.06-.45.09-.67.09Z"/>
  <path class="st0" d="M184.33,150s-.04,0-.06,0c-1.32-.09-2.43-1.17-3.04-2.96l-.17-.52c-.28-.87-.55-1.7-1.12-2.13-.75-.56-1.9-.37-3.12-.17-1.42.24-3.04.51-4.38-.44-1.19-.84-1.56-2.24-1.9-3.47-.3-1.12-.56-2.08-1.29-2.52-.72-.44-1.69-.21-2.8.04-1.18.27-2.52.58-3.78.04-1.39-.59-2.13-1.98-2.62-3.13l-.13-.3c-.39-.93-.76-1.82-1.43-2.34-.34-.27-.87-.39-1.28-.3-.24.05-.41.16-.5.33-.22.42-.74.58-1.16.37-.42-.22-.59-.73-.37-1.16.33-.63.91-1.06,1.66-1.22.92-.2,1.96.04,2.7.63,1.01.8,1.51,1.98,1.95,3.02l.12.3c.39.9.89,1.87,1.71,2.22.75.32,1.71.1,2.72-.14,1.29-.29,2.76-.63,4.07.16,1.32.79,1.71,2.25,2.06,3.54.28,1.04.55,2.03,1.23,2.51.76.54,1.91.35,3.11.15,1.45-.24,3.09-.51,4.43.49,1.01.76,1.4,1.94,1.73,2.98l.16.49c.14.41.66,1.74,1.53,1.8.47.03.83.44.8.92-.03.45-.41.8-.85.8Z"/>
  <path class="st1" d="M192.42,135.93c-.17,0-.34-.05-.49-.16-1-.71-1.62-1.75-2.21-2.77-.68-1.16-1.27-2.16-2.27-2.36-.72-.14-1.55.19-2.43.56-1.16.48-2.48,1.02-3.84.47-1.4-.56-1.98-1.92-2.5-3.11-.41-.95-.8-1.86-1.51-2.2-.79-.39-1.76-.02-2.87.41-.93.36-1.89.73-2.93.73h-.05c-1.43-.02-2.82-.83-3.54-2.06-.32-.54-.49-1.11-.65-1.66-.12-.4-.23-.78-.39-1.11-.24-.5-.83-.98-1.19-.82-.43.19-.94,0-1.13-.44s0-.94.44-1.13c1.35-.6,2.8.37,3.42,1.64.22.46.36.92.49,1.37.14.47.27.92.49,1.28.42.71,1.25,1.2,2.08,1.21.79.06,1.51-.29,2.34-.62,1.3-.5,2.78-1.07,4.25-.35,1.28.63,1.83,1.93,2.32,3.07.44,1.02.81,1.9,1.56,2.2.72.28,1.57-.06,2.55-.47,1.02-.42,2.18-.89,3.42-.65,1.75.35,2.63,1.85,3.41,3.18.53.9,1.02,1.74,1.72,2.23.39.27.48.81.21,1.2-.17.24-.43.36-.7.36Z"/>
  <path class="st0" d="M166.17,79.71c-.4,0-.79-.12-1.13-.35-.39-.26-.5-.8-.24-1.19.26-.39.79-.5,1.19-.24.07.05.16.09.34.03.43-.15.93-.74,1.11-1.31.08-.23.14-.48.21-.72.31-1.11.65-2.38,1.83-3.05,1.47-.84,2.93-.11,4.21.54.9.46,1.75.89,2.51.77,1.05-.16,1.74-1.35,2.47-2.77,1.47-2.85,3.11-3.32,4.24-3.22.85.08,1.54.52,2.14.91.41.26.8.51,1.19.62,1.47.38,2.89-1.18,3.75-2.77.83-1.53,1.8-2.16,2.88-1.87.46.12.73.6.6,1.05-.12.46-.59.73-1.05.6-.09-.02-.42.12-.92,1.03-1.52,2.8-3.64,4.16-5.7,3.61-.64-.17-1.19-.52-1.67-.83-.5-.32-.94-.6-1.38-.64-1.12-.14-2.08,1.39-2.55,2.29-.73,1.42-1.73,3.37-3.72,3.68-1.3.21-2.49-.4-3.55-.93-1.19-.6-1.96-.94-2.59-.58-.57.32-.79,1.14-1.03,2.01-.08.27-.15.54-.23.79-.3.92-1.09,2.03-2.18,2.41-.24.08-.49.13-.73.13Z"/>
  <path class="st1" d="M155.67,69.17c-.35,0-.69-.19-.87-.52-.32-.59-.07-1.44.51-1.79,1.14-.68,2.36-.31,3.43,0,.79.24,1.54.46,2.07.21.6-.28.8-1.04,1.05-2.27.26-1.25.56-2.66,1.8-3.42,1.34-.82,2.76-.31,4.02.14.57.2,1.1.4,1.6.47,1.34.18,2.77-.69,3.22-1.95.13-.35.19-.73.27-1.1.16-.85.35-1.82,1.07-2.57,1.37-1.41,3.31-.95,5.02-.53,1.68.4,2.74.6,3.34-.09.27-.32.4-.82.53-1.35.06-.25.12-.5.2-.74.37-1.16,1.37-2.34,2.7-2.16.47.06.8.49.74.96-.06.47-.5.81-.96.74-.27,0-.67.42-.85.98-.06.21-.12.42-.17.63-.17.67-.36,1.43-.9,2.06-1.33,1.52-3.29,1.04-5.03.63-1.63-.39-2.75-.6-3.38.06-.37.38-.48.99-.62,1.7-.09.44-.17.9-.33,1.35-.72,2.02-2.96,3.36-5.08,3.07-.68-.1-1.32-.33-1.94-.55-1.18-.42-1.94-.66-2.54-.29-.61.37-.81,1.31-1.02,2.31-.27,1.31-.59,2.8-2,3.47-1.12.53-2.27.18-3.29-.12-.71-.21-1.23-.35-1.64-.31.03.35-.15.69-.48.86-.15.08-.31.11-.47.11Z"/>
  <path class="st1" d="M120.18,49c-.32,0-.64-.19-.78-.5-.45-.98-1.21-2.63-.61-4.17.5-1.3,1.7-1.96,2.75-2.55.88-.49,1.72-.95,1.99-1.67.3-.8-.11-1.71-.59-2.77-.51-1.14-1.09-2.43-.76-3.8.41-1.7,1.95-2.62,3.31-3.43,1.46-.86,2.35-1.46,2.42-2.42.04-.61-.31-1.27-.68-1.96-.47-.87-1-1.86-.87-3.01.23-2.04,2.32-3.07,3.56-3.69,1.08-.54,2.35-1.39,2.28-2.4-.02-.37-.23-.75-.46-1.2-.15-.28-.29-.56-.41-.85-.84-2.13.1-4.79,2.09-5.92.41-.24.94-.09,1.17.33.23.41.09.94-.33,1.17-1.26.71-1.87,2.45-1.34,3.8.09.24.21.46.33.69.28.54.6,1.14.65,1.87.11,1.57-.98,2.94-3.23,4.06-1.26.63-2.5,1.32-2.62,2.35-.07.62.29,1.29.67,2,.45.84.96,1.79.88,2.89-.14,1.93-1.79,2.92-3.25,3.78-1.17.69-2.28,1.35-2.52,2.35-.19.8.22,1.72.66,2.7.55,1.23,1.18,2.62.63,4.08-.49,1.31-1.7,1.98-2.76,2.57-.88.49-1.71.95-1.99,1.67-.31.8.11,1.84.56,2.84.2.43,0,.94-.42,1.14-.12.05-.24.08-.36.08Z"/>
  <path class="st0" d="M35.45,79.59h0c-1.83,0-3.62-1.09-4.47-2.71-.18-.35-.33-.73-.47-1.1-.25-.65-.46-1.22-.87-1.52-.54-.4-1.46-.34-2.71.19l-.28.12c-1.15.49-2.46,1.06-3.85.67-1.67-.46-2.53-2.01-3.28-3.37-.81-1.45-1.36-2.35-2.31-2.46-.62-.08-1.33.25-2.07.59-1.06.49-2.26,1.04-3.55.53-1.12-.44-1.72-1.48-2.26-2.4-.55-.94-.91-1.52-1.46-1.54-.47-.02-.85-.41-.83-.89.02-.47.42-.83.89-.83,1.53.05,2.28,1.35,2.89,2.4.43.74.84,1.44,1.4,1.66.61.25,1.35-.1,2.2-.49.89-.41,1.89-.88,2.99-.74,1.88.23,2.8,1.88,3.61,3.33.65,1.17,1.26,2.28,2.24,2.55.81.22,1.74-.18,2.72-.6l.29-.12c1.86-.78,3.34-.78,4.4.01.81.6,1.15,1.5,1.45,2.29.12.31.23.62.38.91.56,1.07,1.75,1.79,2.95,1.79.47,0,.86.39.86.86,0,.47-.38.86-.86.86Z"/>
  <path class="st1" d="M44.9,69.33c-.31,0-.62-.17-.77-.47-.22-.43-1-.54-1.68-.46-.21.03-.42.06-.64.1-.8.13-1.7.27-2.61-.03-1.7-.57-2.38-2.32-2.93-3.72l-.16-.4c-.38-.94-1.33-2.33-2.28-2.04-.25.07-.5.26-.79.47-.2.15-.4.29-.6.42-.93.56-2.1.71-3.22.4-1.12-.3-2.07-1.02-2.58-1.97-.41-.74-.59-1.58-.76-2.39-.28-1.31-.49-2.12-1.19-2.38-.56-.2-1.24.08-2.03.42-.63.27-1.28.55-2,.63-1.38.16-2.86-.45-3.98-1.65-.94-1-1.53-2.25-2.05-3.34-.2-.43-.02-.94.41-1.14.42-.2.94-.02,1.14.41.49,1.03.99,2.1,1.75,2.9.75.8,1.69,1.21,2.53,1.12.48-.06.98-.27,1.52-.51.98-.42,2.1-.9,3.3-.45,1.61.6,1.96,2.21,2.27,3.62.15.69.31,1.41.59,1.93.29.54.85.96,1.53,1.14.67.18,1.36.11,1.89-.21.16-.1.31-.21.47-.33.37-.27.79-.58,1.33-.74,1.94-.57,3.58,1.12,4.35,3.05l.16.41c.46,1.18.94,2.41,1.88,2.72.5.17,1.12.07,1.78-.04.24-.04.47-.08.71-.1,1.6-.2,2.88.33,3.42,1.4.21.42.04.94-.38,1.15-.12.06-.25.09-.38.09Z"/>
  <path class="st1" d="M79.63,49.45c-.22,0-.45-.09-.62-.26-.33-.34-.32-.88.02-1.21.58-.56.87-1.45.78-2.38-.09-.93-.55-1.75-1.22-2.19-.3-.2-.63-.34-.96-.49-.69-.31-1.47-.67-2.03-1.38-1.17-1.49-.6-3.28-.09-4.86.4-1.26.78-2.45.3-3.31-.39-.68-1.28-1.05-2.23-1.46-1.28-.54-2.74-1.16-3.17-2.74-.4-1.47.4-2.7,1.11-3.79.53-.82,1.04-1.59.97-2.33-.1-1.17-1.57-1.91-2.94-2.52-3.18-1.41-3.69-3.14-3.57-4.35.1-.94.64-1.72,1.11-2.42.54-.8.87-1.31.7-1.77-.35-.97-1.12-1.82-2.28-2.51-.41-.24-.54-.77-.3-1.18s.77-.54,1.18-.3c1.52.9,2.53,2.04,3.02,3.4.47,1.31-.29,2.42-.9,3.32-.39.57-.76,1.12-.82,1.63-.13,1.22,1.55,2.15,2.56,2.6,1.31.58,3.75,1.66,3.95,3.93.12,1.32-.6,2.43-1.24,3.41-.58.9-1.09,1.67-.89,2.4.19.72.95,1.09,2.18,1.61,1.11.47,2.37,1.01,3.05,2.18.86,1.51.33,3.19-.15,4.68-.5,1.56-.76,2.56-.19,3.28.3.38.81.61,1.39.88.41.19.82.38,1.19.62,1.12.73,1.85,1.99,1.99,3.46.14,1.46-.33,2.84-1.29,3.78-.17.16-.38.24-.6.24Z"/>
  <path class="st1" d="M46.54,167.91c-.47,0-.86-.38-.86-.86v-3.04c0-.47.38-.86.86-.86s.86.38.86.86v3.04c0,.47-.38.86-.86.86Z"/>
  <path class="st1" d="M46.54,178.53c-.47,0-.86-.38-.86-.86v-3.04c0-.47.38-.86.86-.86s.86.38.86.86v3.04c0,.47-.38.86-.86.86Z"/>
  <path class="st1" d="M53.37,171.85h-3.04c-.47,0-.86-.38-.86-.86s.38-.86.86-.86h3.04c.47,0,.86.38.86.86s-.38.86-.86.86Z"/>
  <path class="st1" d="M42.75,171.85h-3.04c-.47,0-.86-.38-.86-.86s.38-.86.86-.86h3.04c.47,0,.86.38.86.86s-.38.86-.86.86Z"/>
  <path class="st1" d="M51.42,176.63c-.22,0-.43-.08-.6-.24l-2.17-2.13c-.34-.33-.35-.87-.01-1.21.33-.34.87-.34,1.21-.01l2.17,2.13c.34.33.35.87.01,1.21-.17.17-.39.26-.61.26Z"/>
  <path class="st1" d="M43.83,169.2c-.22,0-.43-.08-.6-.24l-2.17-2.13c-.34-.33-.35-.88-.01-1.21.33-.34.88-.34,1.21-.01l2.17,2.13c.34.33.35.88.01,1.21-.17.17-.39.26-.61.26Z"/>
  <path class="st1" d="M49.19,169.14c-.22,0-.43-.08-.6-.24-.34-.33-.35-.87-.01-1.21l2.13-2.17c.33-.34.87-.34,1.21-.01.34.33.35.87.01,1.21l-2.13,2.17c-.17.17-.39.26-.61.26Z"/>
  <path class="st1" d="M41.76,176.74c-.22,0-.43-.08-.6-.24-.34-.33-.35-.88-.01-1.21l2.13-2.17c.33-.34.88-.34,1.21-.01.34.33.35.88.01,1.21l-2.13,2.17c-.17.17-.39.26-.61.26Z"/>
  <path class="st0" d="M52.65,21.65c-.52,0-.94-.42-.94-.94v-3.32c0-.52.42-.94.94-.94s.94.42.94.94v3.32c0,.52-.42.94-.94.94Z"/>
  <path class="st0" d="M52.65,33.25c-.52,0-.94-.42-.94-.94v-3.32c0-.52.42-.94.94-.94s.94.42.94.94v3.32c0,.52-.42.94-.94.94Z"/>
  <path class="st0" d="M60.11,25.95h-3.32c-.52,0-.94-.42-.94-.94s.42-.94.94-.94h3.32c.52,0,.94.42.94.94s-.42.94-.94.94Z"/>
  <path class="st0" d="M48.51,25.95h-3.32c-.52,0-.94-.42-.94-.94s.42-.94.94-.94h3.32c.52,0,.94.42.94.94s-.42.94-.94.94Z"/>
  <path class="st0" d="M57.98,31.17c-.24,0-.47-.09-.66-.27l-2.37-2.32c-.37-.36-.38-.95-.01-1.32.36-.37.95-.38,1.32-.01l2.37,2.32c.37.36.38.95.01,1.32-.18.19-.43.28-.67.28Z"/>
  <path class="st0" d="M49.7,23.06c-.24,0-.47-.09-.66-.27l-2.37-2.32c-.37-.36-.38-.95-.01-1.32.36-.37.95-.38,1.32-.01l2.37,2.32c.37.36.38.95.01,1.32-.18.19-.43.28-.67.28Z"/>
  <path class="st0" d="M55.55,22.99c-.24,0-.47-.09-.66-.27-.37-.36-.38-.95-.01-1.32l2.32-2.37c.36-.37.95-.38,1.32-.01.37.36.38.95.01,1.32l-2.32,2.37c-.18.19-.43.28-.67.28Z"/>
  <path class="st0" d="M47.43,31.28c-.24,0-.47-.09-.66-.27-.37-.36-.38-.95-.01-1.32l2.32-2.37c.36-.37.95-.38,1.32-.01s.38.95.01,1.32l-2.32,2.37c-.18.19-.43.28-.67.28Z"/>
  <path class="st1" d="M148.13,21.8c-.49,0-.89-.4-.89-.89v-3.17c0-.49.4-.89.89-.89s.89.4.89.89v3.17c0,.49-.4.89-.89.89Z"/>
  <path class="st1" d="M148.13,32.85c-.49,0-.89-.4-.89-.89v-3.16c0-.49.4-.89.89-.89s.89.4.89.89v3.16c0,.49-.4.89-.89.89Z"/>
  <path class="st1" d="M155.24,25.9h-3.17c-.49,0-.89-.4-.89-.89s.4-.89.89-.89h3.17c.49,0,.89.4.89.89s-.4.89-.89.89Z"/>
  <path class="st1" d="M144.19,25.9h-3.16c-.49,0-.89-.4-.89-.89s.4-.89.89-.89h3.16c.49,0,.89.4.89.89s-.4.89-.89.89Z"/>
  <path class="st1" d="M153.21,30.88c-.23,0-.45-.09-.62-.25l-2.26-2.21c-.35-.35-.36-.91-.01-1.26s.91-.36,1.26-.01l2.26,2.21c.35.35.36.91.01,1.26-.17.18-.41.27-.64.27Z"/>
  <path class="st1" d="M145.31,23.14c-.23,0-.45-.09-.62-.26l-2.26-2.21c-.35-.35-.36-.91-.01-1.26.35-.35.91-.36,1.26-.01l2.26,2.21c.35.35.36.91.01,1.26-.17.18-.41.27-.64.27Z"/>
  <path class="st1" d="M150.89,23.08c-.23,0-.45-.09-.62-.26-.35-.34-.36-.91-.01-1.26l2.22-2.26c.35-.35.91-.36,1.26-.01.35.34.36.91.01,1.26l-2.22,2.26c-.17.18-.41.27-.64.27Z"/>
  <path class="st1" d="M143.16,30.98c-.23,0-.45-.09-.62-.26-.35-.34-.36-.91-.01-1.26l2.21-2.26c.35-.35.91-.36,1.26-.01.35.34.36.91.01,1.26l-2.21,2.26c-.17.18-.41.27-.64.27Z"/>
  <circle class="st0" cx="84.93" cy="17.74" r="2.5"/>
  <circle class="st1" cx="32.11" cy="45.99" r="2.5"/>
  <circle class="st0" cx="167.54" cy="46.22" r="2.5"/>
  <circle class="st1" cx="172.42" cy="155" r="2.5"/>
  <circle class="st1" cx="27.73" cy="155.09" r="2.5"/>
  <circle class="st1" cx="115.05" cy="17.74" r="2.5"/>
  <circle class="st0" cx="111.07" cy="185.18" r="2.5"/>
  <circle class="st1" cx="89.2" cy="185.18" r="2.5"/>
  <path class="st1" d="M153.85,178.23h0c-.32,0-.61-.21-.69-.52l-.78-2.74c-.35-1.21-1.27-2.13-2.48-2.48l-2.74-.78c-.31-.09-.52-.37-.52-.69s.21-.61.52-.69l2.74-.78c1.21-.35,2.13-1.27,2.48-2.48l.78-2.74c.17-.62,1.21-.62,1.39,0l.78,2.74c.35,1.21,1.27,2.13,2.48,2.48l2.74.78c.31.09.52.37.52.69s-.21.61-.52.69l-2.74.78c-1.21.35-2.13,1.27-2.48,2.48h0s-.78,2.74-.78,2.74c-.09.31-.37.52-.69.52ZM149.98,171.01l.31.09c1.69.48,2.99,1.78,3.47,3.47l.09.31.09-.31c.48-1.69,1.78-2.99,3.47-3.47l.31-.09-.31-.09c-1.69-.48-2.99-1.78-3.47-3.47l-.09-.31-.09.31c-.48,1.69-1.78,2.99-3.47,3.47l-.31.09ZM154.64,174.77h.02-.02Z"/>
  <path class="st1" d="M189.25,122.08c-.32,0-.61-.21-.69-.52l-.78-2.74c-.35-1.21-1.27-2.13-2.48-2.48l-2.74-.78c-.31-.09-.52-.37-.52-.69,0-.32.21-.61.52-.69l2.74-.78c1.21-.35,2.13-1.27,2.48-2.48l.78-2.74c.09-.31.37-.52.69-.52h0c.32,0,.61.21.69.52l.78,2.74c.35,1.21,1.27,2.13,2.48,2.48l2.74.78c.31.09.52.37.52.69,0,.32-.21.61-.52.69l-2.74.78c-1.21.35-2.13,1.27-2.48,2.48l-.69-.2.69.2-.78,2.74c-.09.31-.37.52-.69.52ZM185.37,114.86l.31.09c1.69.48,2.99,1.78,3.47,3.47l.09.31.09-.31h0c.48-1.69,1.78-2.99,3.47-3.47l.31-.09-.31-.09c-1.69-.48-2.99-1.78-3.47-3.47l-.09-.31-.09.31c-.48,1.69-1.78,2.99-3.47,3.47l-.31.09Z"/>
  <g>
    <path class="st1" d="M11.63,89.25l-.75,2.63-.75-2.63c-.4-1.38-1.48-2.46-2.86-2.86l-2.64-.75,2.63-.75c1.38-.4,2.46-1.48,2.86-2.86l.75-2.64.75,2.63c.4,1.38,1.48,2.46,2.86,2.86l2.64.75-2.63.75c-1.38.4-2.46,1.48-2.86,2.86h0Z"/>
    <path class="st1" d="M10.88,92.1h0c-.1,0-.18-.06-.21-.16l-.75-2.63c-.38-1.32-1.39-2.33-2.71-2.71l-2.63-.75c-.09-.03-.16-.11-.16-.21s.06-.18.16-.21l2.63-.75c1.32-.38,2.33-1.39,2.71-2.71l.75-2.64c.05-.18.36-.18.41,0l.75,2.63c.38,1.32,1.39,2.34,2.71,2.71l2.63.75c.09.03.16.11.16.21s-.06.18-.16.21l-2.63.75c-1.32.38-2.33,1.39-2.71,2.7,0,0,0,0,0,.01l-.75,2.63c-.03.09-.11.16-.21.16ZM5.41,85.64l1.91.55c1.47.42,2.59,1.54,3.01,3.01l.55,1.91.54-1.9s0,0,0-.01c.42-1.47,1.54-2.59,3.01-3.01l1.91-.55-1.91-.55c-1.47-.42-2.59-1.54-3.01-3.01l-.55-1.91-.55,1.91c-.42,1.46-1.54,2.59-3.01,3.01l-1.91.55ZM11.63,89.25h0,0Z"/>
  </g>
  <path class="st0" d="M99.96,36.53c-.23,0-.45-.09-.61-.25l-5.67-5.67c-.16-.16-.25-.38-.25-.61s.09-.45.25-.61l5.67-5.67c.16-.16.38-.25.61-.25h0c.23,0,.45.09.61.25l5.67,5.67c.33.34.33.88,0,1.21l-5.67,5.67c-.16.16-.38.25-.61.25ZM95.5,30l4.46,4.46,4.46-4.46-4.46-4.46-4.46,4.46Z"/>
  <path class="st0" d="M10.75,120.95c-.23,0-.45-.09-.61-.25l-5.33-5.33c-.16-.16-.25-.38-.25-.61s.09-.45.25-.61l5.33-5.32c.33-.33.88-.34,1.21,0l5.32,5.32c.34.33.34.88,0,1.21l-5.32,5.33c-.16.16-.38.25-.61.25ZM6.64,114.77l4.11,4.11,4.11-4.11-4.11-4.11-4.11,4.11Z"/>
  <path class="st0" d="M188.93,91.62c-.22,0-.44-.08-.61-.25l-5.29-5.29c-.34-.33-.34-.88,0-1.21l5.29-5.29c.33-.34.88-.34,1.21,0l5.29,5.29c.34.33.34.88,0,1.21l-5.29,5.29c-.17.17-.39.25-.61.25ZM184.85,85.47l4.08,4.08,4.08-4.08-4.08-4.08-4.08,4.08Z"/>
  <path class="st1" d="M81.31,80.54h-7.84c-.31,0-.59-.16-.74-.43s-.15-.59,0-.86l3.92-6.79c.31-.53,1.18-.53,1.49,0l3.92,6.79c.15.27.15.59,0,.86s-.44.43-.74.43ZM74.96,78.83h4.87l-2.43-4.22-2.43,4.22Z"/>
  <path class="st1" d="M122.72,128.62h0c-.31,0-.59-.16-.74-.43l-4.28-7.41c-.15-.27-.15-.59,0-.86s.44-.43.74-.43h8.56c.31,0,.59.16.74.43s.15.59,0,.86l-4.28,7.41c-.15.27-.44.43-.74.43ZM119.93,121.2l2.79,4.84,2.8-4.84h-5.59Z"/>
  <path class="st1" d="M126.5,81.96h-7.57c-.47,0-.86-.38-.86-.86v-7.57c0-.47.38-.86.86-.86h7.57c.47,0,.86.38.86.86v7.57c0,.47-.38.86-.86.86ZM119.78,80.24h5.85v-5.85h-5.85v5.85Z"/>
  <path class="st1" d="M81.22,127.48h-7.16c-.47,0-.86-.38-.86-.86v-7.16c0-.47.38-.86.86-.86h7.16c.47,0,.86.38.86.86v7.16c0,.47-.38.86-.86.86ZM74.92,125.76h5.44v-5.44h-5.44v5.44Z"/>
  <circle class="st2" cx="106.83" cy="92.21" r="5.25"/>
</svg>