<?xml version="1.0" encoding="UTF-8"?>
<svg id="Ebene_1" xmlns="http://www.w3.org/2000/svg" version="1.1" viewBox="0 0 200 200">
  <!-- Generator: Adobe Illustrator 30.0.0, SVG Export Plug-In . SVG Version: 2.1.1 Build 123)  -->
  <defs>
    <style>
      .st0 {
        fill: #6e9de7;
      }

      .st1 {
        fill: #2b2b2b;
      }

      .st2 {
        fill: #1e3a8a;
      }

      .st3 {
        fill: #1c2761;
      }
    </style>
  </defs>
  <path class="st0" d="M141.89,181.52H37.93c-.74,0-1.34-.6-1.34-1.34v-42.36c0-.74.6-1.34,1.34-1.34s1.34.6,1.34,1.34v41.02h102.63c.74,0,1.34.6,1.34,1.34s-.6,1.34-1.34,1.34Z"/>
  <path class="st1" d="M157.11,187.78c-.84,0-1.74-.23-2.47-.96-1.56-1.55-2.24-3.18-3.6-6.42-.55-1.3-1.22-2.9-2.12-4.91-1.7-3.8-2.8-4.36-3.52-4.73-.18-.09-.34-.18-.49-.27-.81-.5-1.45-.86-2.07-1.22-.82-.47-1.61-.92-2.68-1.61-1.73-1.1-3.05-2.8-3.95-5.05-1.5.48-3.19.98-5.09,1.49-8.25,2.22-18.16-1.89-21.65-5.8-2.42-2.71-3.8-5.63-4.27-9.21-2.95.3-9.87.85-13.63-.19-4.53-1.26-9.87-3.75-11.19-11.94-2.97-2.43-6.96-8-3.56-14.16-.2-2.29-.6-12.18,6.5-16.66.77-2.61,4.59-13.1,16.5-14.79.63-1.04,2.12-3.12,4.74-5,3.21-2.31,8.82-4.76,17.4-3.49,2.32-1.35,12.9-6.87,23.26-1.3.35-.16.72-.3,1.1-.44,7.36-2.52,13.74.84,16.49,3.86,3.21-.2,6.21.59,8.76,2.39,6.21,4.37,8.69,8.06,9.43,9.34,1.31.28,2.52.77,3.61,1.46,4.75,3.01,5.87,8.97,6.13,11.44,10.18,7.59,8.22,17.39,7.52,19.89,2.17,4.56,2.31,9.34.42,13.88-2.37,5.66-7.27,9.5-9.84,10.31-.25.08-.51.15-.78.21-1.27,10.64-10.53,18.82-21.56,18.82-1.39,0-2.75-.13-4.08-.38,2.35,5.26,3.74,9.44,2.12,11.82-.74,1.09-2.48,2.44-4.69,3.02-.06.02-.14.05-.24.08-.54.19-1.48.51-2.49.51ZM138.75,161.78c.68,1.65,1.63,2.87,2.84,3.64,1.03.66,1.78,1.09,2.57,1.54.64.37,1.3.75,2.14,1.26.09.06.2.11.3.16,1.35.69,2.83,1.72,4.76,6.02.91,2.03,1.59,3.65,2.14,4.96,1.3,3.1,1.84,4.38,3.02,5.56.43.43,1.71-.01,2.2-.18.18-.06.34-.12.44-.14,1.63-.42,2.8-1.41,3.15-1.93,1.11-1.63-1.68-7.81-3.26-11.22-5.73-2.05-10.42-6.43-12.73-12.18-1.13.2-2.57.72-4.53,1.43-.89.32-1.9.68-3.04,1.08ZM160.49,169.1c1.9.62,3.93.95,6.01.95,9.44,0,17.42-6.84,18.81-15.83-1.99.08-4.28-.07-6.65-.22-3.44-.22-6.99-.45-10.06-.05-2.37.31-8.65,1.93-13.69,3.23-2.26.58-4.34,1.12-5.93,1.51,2.14,4.97,6.34,8.71,11.42,10.39.03,0,.05.02.08.03ZM120.46,130.04c-1.73.71-11.95,7.1-12.58,13.01-.63,5.92.44,9.96,3.59,13.48,2.53,2.84,11.27,7.06,18.95,4.99,2.37-.64,4.41-1.27,6.16-1.85.02,0,.04-.02.07-.02,1.65-.55,3.05-1.05,4.23-1.48,2.19-.79,3.77-1.36,5.18-1.58.17-.03.39-.07.65-.12.01,0,.03-.01.04-.02.11-.04.22-.06.34-.07,1.58-.36,4.31-1.06,7.16-1.8,5.38-1.39,11.48-2.96,14.01-3.3,3.33-.43,7.02-.19,10.58.04,2.9.19,5.66.37,7.7.12.07-.02.14-.03.22-.03.47-.07.9-.16,1.28-.27,1.75-.55,6.08-3.8,8.17-8.79,1.68-4.01,1.48-8.09-.58-12.12-.17-.34-.19-.74-.06-1.09.16-.41,3.71-10.19-6.88-17.7-.33-.23-.54-.67-.57-1.07-.12-1.67-.85-7.33-4.94-9.93-2.66-1.68-6.31-1.76-10.88-.24.37,1.04.58,2.14.59,3.26,0,.74-.58,1.35-1.32,1.36h-.02c-.73,0-1.33-.59-1.34-1.32-.03-2.31-1.16-4.5-3.02-5.87l-.98-.72c-.6-.44-.73-1.28-.29-1.87.43-.6,1.27-.73,1.87-.29l.98.72c.89.65,1.66,1.44,2.28,2.33,2.35-.82,4.53-1.27,6.52-1.35-1.24-1.6-3.55-4.08-7.54-6.88-2.39-1.68-4.97-2.12-7.47-1.88-.12.03-.23.04-.35.04-4.99.61-9.55,3.86-11.29,5.23-4.56,3.61-3.63,13.82-3.62,13.92.07.74-.47,1.39-1.2,1.46-.73.05-1.39-.47-1.46-1.2-.05-.48-1.08-11.76,4.62-16.28,3.39-2.69,6.85-4.47,10.15-5.32-2.42-1.81-6.79-3.73-12.22-1.87-.45.15-.88.34-1.28.54-.07.04-.13.08-.21.11-5.12,2.79-5.64,9.35-5.66,9.65-.03.43-.27.82-.63,1.05-3.31,2.04-4.63,8.6-4.86,10.96-.07.74-.73,1.25-1.46,1.2-.74-.07-1.27-.73-1.2-1.46.04-.38.93-9.12,5.56-12.59.24-1.79,1.24-6.69,5.08-9.87-9.64-4.1-19.46,2.08-19.57,2.14-.28.18-.62.25-.94.2-15.03-2.45-19.96,7.19-20.16,7.6-.2.41-.6.69-1.06.75-12.19,1.34-14.91,12.88-15.02,13.37-.08.37-.32.69-.64.87-6.87,3.91-5.62,14.65-5.61,14.76.04.3-.03.6-.18.86-3.72,6.21,2.8,11.17,3.08,11.38.29.22.48.54.53.9.95,7.03,5.25,9.14,9.33,10.27,3.33.92,9.99.38,12.73.1-.01-1.15.05-2.37.19-3.66.37-3.51,3.03-6.83,5.97-9.48-.6-1.28-1.91-3.41-4.41-4.56-1.32-.61-2.82-.88-4.34-.76-.73.03-1.38-.5-1.44-1.24-.06-.74.5-1.38,1.24-1.44,1.97-.14,3.93.2,5.66,1,2.87,1.32,4.51,3.53,5.41,5.22,2.2-1.71,4.29-2.98,5.43-3.6.18-2.28-.12-4.59-.89-6.73-.8-2.24-2.12-4.31-3.8-5.99-.52-.52-.53-1.37,0-1.89.52-.53,1.37-.53,1.89,0,1.97,1.96,3.5,4.38,4.44,6.99.79,2.2,1.15,4.54,1.09,6.88,3.29-.36,9.11-.36,10.5-.36.24-.11,1.32-1.13,2.19-1.95.21-.19.42-.39.64-.6.23-.98.07-1.8-.09-2.6l-.03-.17c-.13-.17-1.12-.86-2.03-1.32-.66-.33-.93-1.14-.6-1.8.33-.66,1.13-.93,1.8-.6,1.17.59,3.18,1.78,3.46,3.19l.03.16c.05.25.1.52.15.81,1.61-1.26,3.46-2.41,5.48-2.97,1.06-1.02,1.08-3.9.91-5.21-.09-.73.42-1.4,1.16-1.5.72-.09,1.4.42,1.5,1.15.05.4.35,2.94-.36,5.17,3.03-.06,5.44.28,7.28.76,1.01-.36,2.34-1.04,3.5-2.34,1.55-1.73,2-3.67,2.13-4.67.09-.73.76-1.26,1.5-1.16.73.09,1.25.77,1.16,1.5-.17,1.31-.76,3.85-2.8,6.12-.68.76-1.41,1.36-2.12,1.83,1.09.58,1.61,1.07,1.66,1.12.53.52.54,1.36.03,1.89-.52.53-1.37.54-1.89.03-.02-.02-3.17-2.82-11.45-2.37-.38.02-.77.08-1.14.16-.09.04-.19.06-.29.07-2.54.67-4.9,2.64-6.82,4.41-.02.02-.05.04-.07.07-.3.28-.59.55-.87.81-1.77,1.67-2.84,2.67-4.03,2.67-.2-.05-.33,0-.5,0-4.67,0-10.04.2-10.95.54,0,0-.02,0-.03.01ZM130.28,155.53c-.39,0-.77-.17-1.04-.49-.47-.57-.38-1.42.19-1.88,1.97-1.61,4.13-2.78,6.44-3.48,2.26-.69,3.86-.67,5.26-.67,1.43.02,2.56.01,4.25-.67,1.45-.58,2.14-1.19,2.87-1.84.93-.82,1.88-1.67,3.96-2.14.65-.15,2.09-.08,6.96.16h.18c3.76.2,5.17.27,6.74-.46.79-.37,1.52-.89,2.17-1.54.52-.53,1.37-.53,1.89-.01.53.52.53,1.37.01,1.89-.87.88-1.86,1.58-2.94,2.09-2.17,1.02-4,.92-8.01.72h-.18c-3.1-.17-5.79-.3-6.26-.23-1.38.32-1.96.83-2.76,1.53-.79.7-1.78,1.57-3.65,2.32-2.18.87-3.73.86-5.26.86-1.32-.02-2.59-.01-4.46.55-1.97.6-3.83,1.6-5.52,2.99-.25.2-.55.3-.85.3ZM118.51,154.75c-.09,0-.18,0-.28-.03-.72-.15-1.19-.86-1.03-1.59.43-2.03,1.33-4.72,3.21-7.18-3.89-.75-6.21-2.82-6.33-2.92-.55-.5-.59-1.34-.09-1.89.49-.55,1.34-.59,1.89-.1.05.05,2.68,2.32,6.86,2.49,2.31-1.92,5.26-3.23,8.77-3.89,1.65-.31,2.89-.33,3.98-.35,1.49-.03,2.57-.04,4.24-.82.98-.46,2.81-1.32,3.2-2.76.04-.16.06-.3.07-.45,0-.04,0-.09,0-.13,0-.16-.03-.34-.06-.58-.07-.55-.16-1.23-.04-2.18.19-1.6.84-3.15,1.94-4.58.45-.59,1.29-.7,1.88-.25.59.45.7,1.29.25,1.88-.8,1.05-1.27,2.15-1.41,3.26-.07.6-.02,1.02.03,1.46,3.5.95,7.17,1.12,10.66.5,5.11-.91,9.77-3.45,13.49-7.35,1.64-1.73,4.12-4.33,5.06-8.49.5-2.2.49-4.48,0-6.78-.16-.72.3-1.44,1.03-1.59.71-.16,1.44.3,1.59,1.03.58,2.68.58,5.35,0,7.93-1.1,4.88-4,7.93-5.73,9.75-4.11,4.32-9.28,7.13-14.96,8.14-3.72.66-7.62.52-11.34-.42-.88,2.34-3.3,3.48-4.5,4.04-2.19,1.03-3.71,1.05-5.33,1.08-1.03.02-2.09.04-3.53.3-3.24.6-5.89,1.82-7.88,3.6,0,0,0,0,0,0-2.69,2.42-3.82,5.58-4.29,7.81-.13.63-.69,1.06-1.31,1.06ZM186.82,145.13c-.5,0-.99-.29-1.22-.77-.31-.67-.02-1.47.65-1.78.6-.28,1.7-.93,2.23-2.13.58-1.29.23-2.61-.07-3.77-.12-.44-.28-.9-.5-1.37-.34-.25-.53-.64-.54-1.04-.14-.24-.29-.48-.45-.73-1.06-1.6-2.42-3.03-4.04-4.25-.28.32-.57.68-.87,1.08-.72.95-1.01,1.48-1.39,2.16-.4.72-.86,1.54-1.87,3-1.24,1.78-2.6,3.47-4.03,5.04-.5.54-1.35.58-1.89.08-.55-.5-.58-1.35-.08-1.89,1.36-1.48,2.64-3.09,3.81-4.77.94-1.35,1.36-2.1,1.73-2.77.39-.71.77-1.37,1.6-2.47.6-.79,1.15-1.42,1.64-1.95,0-.01.02-.03.03-.04.11-.16.24-.29.39-.39.44-.45.84-.8,1.18-1.11.95-.86,1.42-1.29,1.79-2.39.66-2,.15-3.91-.02-4.53-.38-1.42-1.12-2.75-2.14-3.84-.5-.54-.48-1.39.06-1.89.54-.5,1.39-.48,1.89.06,1.32,1.41,2.28,3.13,2.77,4.98.22.82.88,3.3-.02,6.06-.58,1.78-1.49,2.6-2.54,3.55-.04.04-.09.08-.13.12,1.67,1.3,3.1,2.8,4.24,4.48,1.75-1.41,3.96-1.82,4.08-1.85.73-.13,1.42.36,1.56,1.08.13.73-.35,1.42-1.08,1.55-.64.12-2.24.61-3.2,1.59.27.59.47,1.17.63,1.75.36,1.35.89,3.4-.07,5.55-.66,1.48-1.92,2.71-3.55,3.46-.18.08-.37.12-.56.12ZM99.68,140.33c-.08,0-.16,0-.24-.02-.47-.08-4.65-.96-6.3-5.14-1.59-4.03.67-7.45.93-7.83.42-.61,1.26-.75,1.86-.33.61.42.76,1.26.33,1.87-.07.1-1.73,2.54-.64,5.32,1.14,2.88,4.16,3.46,4.29,3.49.73.13,1.21.83,1.08,1.56-.12.65-.68,1.1-1.32,1.1ZM89.87,136.11c-.18,0-.36-.04-.54-.11-1.15-.51-3.95-2.04-5.22-5.37-.92-2.42-.91-4.65.04-6.63,1.03-2.14,2.8-3.22,3.77-3.68.67-.32,1.47-.03,1.78.64.32.67.03,1.47-.64,1.78-.65.31-1.83,1.03-2.5,2.42-.94,1.95-.2,3.88.04,4.52.91,2.39,2.96,3.51,3.8,3.88.68.3.98,1.09.68,1.77-.22.5-.71.8-1.23.8ZM98.11,122.08c-.27,0-.55-.08-.78-.25-.6-.43-.73-1.27-.3-1.87,1.35-1.87,2.99-3.15,4.86-3.81,1.12-.39,1.93-.42,2.57-.45.55-.02.85-.03,1.27-.26.69-.37.88-.87,1.27-2.04.06-.19.13-.39.2-.6-4.88-1.64-6.14-7.9-6.19-8.18-.14-.72.33-1.42,1.06-1.57.73-.13,1.43.33,1.57,1.06.01.05,1.08,5.27,4.71,6.24.17-.26.35-.53.55-.81,1.03-1.37,3.86-4.54,8.03-4.56.87,0,2.17.16,3.54.79,0-1.53.23-2.91.71-4.13-3.6-1.04-5.49-4.15-5.58-4.31-.38-.64-.17-1.46.46-1.84.64-.38,1.46-.17,1.83.46.04.07,1.73,2.77,4.72,3.26.54-.64,1.11-1.13,1.62-1.57.84-.72,1.5-1.29,1.99-2.37.41-.91.58-1.95.51-3.1,0,0,0,0,0,.01-.27.69-1.04,1.03-1.74.76-2.37-.92-4.92-1.29-7.38-1.05-1.91.18-5.12.49-7.49,2.76-.8.77-1.15,1.43-1.53,2.13-.49.92-1.05,1.97-2.51,2.95-1.68,1.14-3.21,1.29-4.43,1.41-.59.06-1.1.11-1.58.26-2.67.83-4.69,5.11-5.84,12.37-.12.73-.81,1.23-1.53,1.11-.73-.12-1.23-.8-1.11-1.53,1.36-8.57,3.87-13.32,7.69-14.51.73-.23,1.43-.3,2.1-.37,1.11-.11,2.07-.21,3.2-.97.91-.61,1.2-1.16,1.65-1.99.41-.77.93-1.74,2.04-2.8,3.04-2.92,6.97-3.29,9.09-3.49,2.87-.27,5.86.15,8.61,1.22.26.1.48.28.62.5-.02-.66.45-1.24,1.11-1.36.74-.12,1.42.37,1.55,1.09.36,2.1.16,4.01-.59,5.68-.73,1.63-1.77,2.52-2.68,3.31-.6.52-1.17,1.01-1.65,1.7,0,.01-.01.02-.02.03-1.04,1.52-1.38,3.64-1.01,6.3,3.55,3.43,3.22,8.34,3.12,9.32-.08.74-.73,1.26-1.48,1.19-.74-.08-1.27-.74-1.19-1.48.05-.48.42-4.73-2.58-7.34,0,0-.01,0-.02-.01-1.64-1.42-3.19-1.72-4.2-1.72h-.01c-3.05,0-5.28,2.67-5.9,3.49-.85,1.13-1.18,2.13-1.5,3.09-.44,1.31-.89,2.67-2.55,3.56-.98.52-1.76.55-2.45.58-.54.02-1.04.04-1.78.3-1.35.47-2.55,1.43-3.58,2.85-.26.36-.67.55-1.09.55ZM169.28,115.59c-.07,0-.13,0-.2-.02-.73-.11-1.24-.79-1.12-1.52.16-1.03.21-2.61-.4-4.33-.37-1.03-1.22-3.42-3.67-4.46-2.22-.94-4.39-.18-5.38.3-1.2,4.01-6.49,5.86-7.12,6.06-.71.24-1.46-.15-1.69-.85-.23-.7.15-1.46.85-1.69.05-.02,4.95-1.66,5.47-4.64,0,0,0,0,0-.01.12-.73.05-1.9-.21-3.13-.21-1.04-.56-2.05-1.04-3-.33-.66-.07-1.47.59-1.8.67-.34,1.47-.07,1.8.59.59,1.16,1.02,2.4,1.28,3.67.09.45.21,1.12.27,1.85,1.58-.5,3.85-.82,6.21.18,3.54,1.5,4.75,4.91,5.15,6.03.63,1.78.81,3.72.52,5.63-.1.66-.67,1.14-1.32,1.14Z"/>
  <path class="st3" d="M77.01,145.67H18.51c-.74,0-1.34-.6-1.34-1.34V43.48c0-.74.6-1.34,1.34-1.34h123.38c.74,0,1.34.6,1.34,1.34v26.97c0,.74-.6,1.34-1.34,1.34s-1.34-.6-1.34-1.34v-25.63H19.85v98.18h57.16c.74,0,1.34.6,1.34,1.34s-.6,1.34-1.34,1.34Z"/>
  <path class="st3" d="M173.16,82.55c-.74,0-1.34-.6-1.34-1.34V14.9H25.91v28.58c0,.74-.6,1.34-1.34,1.34s-1.34-.6-1.34-1.34V13.56c0-.74.6-1.34,1.34-1.34h148.59c.74,0,1.34.6,1.34,1.34v67.65c0,.74-.6,1.34-1.34,1.34Z"/>
  <path class="st3" d="M84.41,154.75H24.57c-.74,0-1.34-.6-1.34-1.34v-9.08c0-.74.6-1.34,1.34-1.34s1.34.6,1.34,1.34v7.74h58.5c.74,0,1.34.6,1.34,1.34s-.6,1.34-1.34,1.34Z"/>
  <g>
    <path class="st3" d="M48.41,80.49h0c-.66,0-1.25-.42-1.49-1.04l-2.14-5.68h-11.05l-2.24,5.74c-.23.6-.81.99-1.45.99h0c-1.11,0-1.86-1.11-1.45-2.14l8.36-20.92c.38-.94,1.29-1.56,2.31-1.56h0c1.02,0,1.93.62,2.31,1.56l8.33,20.84c.42,1.06-.36,2.21-1.5,2.2ZM34.67,71.37h9.19l-3.87-10.02c-.13-.3-.25-.64-.37-1.03-.12-.39-.24-.81-.37-1.26-.11.45-.23.87-.35,1.26-.12.39-.24.74-.37,1.04l-3.87,10Z"/>
    <path class="st3" d="M77.42,68.05c0,1.85-.29,3.52-.88,5.04s-1.41,2.81-2.47,3.88c-1.06,1.08-2.34,1.91-3.84,2.5-1.49.59-3.15.88-4.96.88h-7.86c-.74,0-1.34-.6-1.34-1.34v-21.95c0-.74.6-1.34,1.34-1.34h7.86c1.81,0,3.46.29,4.96.88,1.5.59,2.78,1.43,3.84,2.51,1.07,1.08,1.89,2.38,2.47,3.89s.88,3.19.88,5.04ZM74,68.05c0-1.51-.21-2.86-.62-4.06s-1-2.2-1.75-3.02-1.67-1.45-2.75-1.89-2.28-.65-3.61-.65h-5.86v19.23h5.86c1.33,0,2.53-.22,3.61-.65,1.08-.44,1.99-1.06,2.75-1.88.76-.82,1.34-1.82,1.75-3.02.41-1.19.62-2.54.62-4.06Z"/>
  </g>
  <path class="st0" d="M83.06,98.81h-45.13c-.74,0-1.34-.6-1.34-1.34v-13.11c0-.74.6-1.34,1.34-1.34s1.34.6,1.34,1.34v11.77h43.79c.74,0,1.34.6,1.34,1.34s-.6,1.34-1.34,1.34Z"/>
  <g>
    <path class="st0" d="M83.06,98.81c-.28,0-.57-.09-.81-.27l-8.27-6.27c-.59-.45-.71-1.29-.26-1.88.45-.59,1.29-.7,1.88-.26l8.27,6.27c.59.45.71,1.29.26,1.88-.26.35-.66.53-1.07.53Z"/>
    <path class="st0" d="M74.8,105.08c-.4,0-.81-.18-1.07-.53-.45-.59-.33-1.43.26-1.88l8.27-6.27c.59-.45,1.43-.33,1.88.26s.33,1.43-.26,1.88l-8.27,6.27c-.24.18-.53.27-.81.27Z"/>
  </g>
  <g>
    <path class="st0" d="M117.5,30.24c-.28,0-.57-.09-.81-.27l-8.27-6.27c-.59-.45-.71-1.29-.26-1.88.45-.59,1.29-.71,1.88-.26l8.27,6.27c.59.45.71,1.29.26,1.88-.26.35-.66.53-1.07.53Z"/>
    <path class="st0" d="M109.23,36.51c-.41,0-.81-.18-1.07-.53-.45-.59-.33-1.43.26-1.88l8.27-6.27c.59-.45,1.43-.33,1.88.26.45.59.33,1.43-.26,1.88l-8.27,6.27c-.24.18-.53.27-.81.27Z"/>
  </g>
  <g>
    <path class="st0" d="M141.89,181.52c-.28,0-.57-.09-.81-.27l-8.27-6.27c-.59-.45-.71-1.29-.26-1.88.44-.59,1.29-.71,1.88-.26l8.27,6.27c.59.45.71,1.29.26,1.88-.26.35-.66.53-1.07.53Z"/>
    <path class="st0" d="M133.63,187.78c-.41,0-.81-.18-1.07-.53-.45-.59-.33-1.43.26-1.88l8.27-6.27c.59-.45,1.43-.33,1.88.26.45.59.33,1.43-.26,1.88l-8.27,6.27c-.24.18-.53.27-.81.27Z"/>
  </g>
  <path class="st0" d="M37.93,133.67c-6.52,0-11.82-5.3-11.82-11.82s5.3-11.82,11.82-11.82,11.82,5.3,11.82,11.82-5.3,11.82-11.82,11.82ZM37.93,112.7c-5.04,0-9.15,4.1-9.15,9.15s4.1,9.15,9.15,9.15,9.15-4.1,9.15-9.15-4.1-9.15-9.15-9.15Z"/>
  <path class="st2" d="M45.91,38.24c-5.15,0-9.34-4.19-9.34-9.34s4.19-9.34,9.34-9.34,9.34,4.19,9.34,9.34-4.19,9.34-9.34,9.34ZM45.91,22.24c-3.67,0-6.66,2.99-6.66,6.66s2.99,6.66,6.66,6.66,6.66-2.99,6.66-6.66-2.99-6.66-6.66-6.66Z"/>
  <path class="st0" d="M57.58,175.17c-4.19,0-7.59-3.41-7.59-7.59s3.41-7.59,7.59-7.59,7.59,3.41,7.59,7.59-3.41,7.59-7.59,7.59ZM57.58,162.67c-2.71,0-4.91,2.2-4.91,4.91s2.2,4.91,4.91,4.91,4.91-2.2,4.91-4.91-2.2-4.91-4.91-4.91Z"/>
  <path class="st0" d="M117.5,30.24h-53.96c-.74,0-1.34-.6-1.34-1.34s.6-1.34,1.34-1.34h53.96c.74,0,1.34.6,1.34,1.34s-.6,1.34-1.34,1.34Z"/>
  <circle class="st3" cx="136.12" cy="28.9" r="6.25"/>
  <circle class="st0" cx="155.46" cy="28.9" r="6.25"/>
  <path class="st3" d="M69.51,116.32h-14.12c-.74,0-1.34-.6-1.34-1.34s.6-1.34,1.34-1.34h14.12c.74,0,1.34.6,1.34,1.34s-.6,1.34-1.34,1.34Z"/>
  <path class="st3" d="M69.51,122.66h-14.12c-.74,0-1.34-.6-1.34-1.34s.6-1.34,1.34-1.34h14.12c.74,0,1.34.6,1.34,1.34s-.6,1.34-1.34,1.34Z"/>
  <path class="st3" d="M63.24,128.71h-7.85c-.74,0-1.34-.6-1.34-1.34s.6-1.34,1.34-1.34h7.85c.74,0,1.34.6,1.34,1.34s-.6,1.34-1.34,1.34Z"/>
  <circle class="st0" cx="71.59" cy="168.85" r="1.33"/>
  <circle class="st0" cx="76.76" cy="169.48" r="1.33"/>
  <circle class="st0" cx="81.93" cy="169.48" r="1.33"/>
  <circle class="st0" cx="87.1" cy="168.15" r="1.33"/>
  <circle class="st0" cx="91.65" cy="165.48" r="1.33"/>
  <circle class="st0" cx="9.68" cy="79.77" r="1.33"/>
  <circle class="st0" cx="9.68" cy="85.03" r="1.33"/>
  <circle class="st0" cx="9.68" cy="90.28" r="1.33"/>
  <circle class="st0" cx="9.68" cy="95.53" r="1.33"/>
  <circle class="st0" cx="9.68" cy="100.78" r="1.33"/>
  <circle class="st0" cx="9.68" cy="106.04" r="1.33"/>
  <circle class="st0" cx="1.33" cy="69.6" r="1.33"/>
  <circle class="st0" cx="1.33" cy="75.41" r="1.33"/>
  <circle class="st0" cx="1.33" cy="81.21" r="1.33"/>
  <circle class="st0" cx="1.33" cy="87.02" r="1.33"/>
  <circle class="st0" cx="1.33" cy="92.82" r="1.33"/>
  <circle class="st0" cx="1.33" cy="98.63" r="1.33"/>
  <circle class="st0" cx="1.33" cy="104.43" r="1.33"/>
  <circle class="st0" cx="1.33" cy="110.24" r="1.33"/>
  <circle class="st0" cx="1.33" cy="116.04" r="1.33"/>
  <circle class="st0" cx="12.35" cy="63.79" r="1.33"/>
  <circle class="st0" cx="7.01" cy="63.79" r="1.33"/>
  <circle class="st0" cx="1.33" cy="63.79" r="1.33"/>
  <circle class="st0" cx="12.35" cy="121.85" r="1.33"/>
  <circle class="st0" cx="7.01" cy="121.85" r="1.33"/>
  <circle class="st0" cx="1.33" cy="121.85" r="1.33"/>
  <circle class="st0" cx="95.44" cy="161.78" r="1.33"/>
  <circle class="st0" cx="98.71" cy="157.66" r="1.33"/>
  <circle class="st2" cx="113.59" cy="76.86" r="1.33"/>
  <circle class="st2" cx="110.39" cy="72.76" r="1.33"/>
  <circle class="st2" cx="106.73" cy="69.11" r="1.33"/>
  <circle class="st2" cx="102.13" cy="66.4" r="1.33"/>
  <circle class="st2" cx="97.02" cy="65.07" r="1.33"/>
  <circle class="st2" cx="91.73" cy="65.01" r="1.33"/>
  <circle class="st2" cx="86.5" cy="65.6" r="1.33"/>
</svg>