<?xml version="1.0" encoding="UTF-8"?>
<svg id="Ebene_1" xmlns="http://www.w3.org/2000/svg" version="1.1" viewBox="0 0 200 200">
  <!-- Generator: Adobe Illustrator 30.0.0, SVG Export Plug-In . SVG Version: 2.1.1 Build 123)  -->
  <defs>
    <style>
      .st0 {
        fill: #6e9de7;
      }

      .st1 {
        fill: #2b2b2b;
      }

      .st2 {
        fill: #7199d0;
      }

      .st3 {
        fill: #1c2761;
      }
    </style>
  </defs>
  <path class="st3" d="M172.27,200H28.31c-8.09,0-14.68-6.58-14.68-14.68V1.78c0-.98.8-1.78,1.78-1.78h121.94q23.54,0,24.07.8c.2.29.3.64.3.99v8.47h8.75c.98,0,1.78.8,1.78,1.78v8.46h12.34c.98,0,1.78.8,1.78,1.78v163.59c0,7.79-6.33,14.12-14.1,14.12ZM161.72,22.42v163.46c0,5.82,4.73,10.55,10.55,10.55s10.54-4.73,10.54-10.55V24.07h-10.55v161.84c0,.98-.8,1.78-1.78,1.78s-1.78-.8-1.78-1.78V13.83h-6.96v8.47s0,.09,0,.13ZM17.2,3.57v181.75c0,6.13,4.99,11.11,11.11,11.11h134.59c-2.91-2.59-4.75-6.36-4.75-10.55V22.29s0-.09,0-.13v-9.99s0-.09,0-.13,0-.09,0-.13V3.57c-15.34,0-125.53,0-140.96,0Z"/>
  <rect class="st0" x="29.24" y="16.16" width="116.23" height="25.4" rx=".81" ry=".81"/>
  <rect class="st0" x="29.24" y="65.04" width="54" height="54" rx=".81" ry=".81"/>
  <rect class="st0" x="91.47" y="129.61" width="54" height="54" rx=".81" ry=".81"/>
  <path class="st1" d="M143.75,54.71H31.01c-.98,0-1.78-.8-1.78-1.78s.8-1.78,1.78-1.78h112.74c.98,0,1.78.8,1.78,1.78s-.8,1.78-1.78,1.78Z"/>
  <path class="st1" d="M143.75,69.35h-49.91c-.98,0-1.78-.8-1.78-1.78s.8-1.78,1.78-1.78h49.91c.98,0,1.78.8,1.78,1.78s-.8,1.78-1.78,1.78Z"/>
  <path class="st2" d="M143.75,81.73h-49.91c-.98,0-1.78-.8-1.78-1.78s.8-1.78,1.78-1.78h49.91c.98,0,1.78.8,1.78,1.78s-.8,1.78-1.78,1.78Z"/>
  <path class="st2" d="M143.75,94.12h-49.91c-.98,0-1.78-.8-1.78-1.78s.8-1.78,1.78-1.78h49.91c.98,0,1.78.8,1.78,1.78s-.8,1.78-1.78,1.78Z"/>
  <path class="st2" d="M143.75,106.51h-49.91c-.98,0-1.78-.8-1.78-1.78s.8-1.78,1.78-1.78h49.91c.98,0,1.78.8,1.78,1.78s-.8,1.78-1.78,1.78Z"/>
  <path class="st1" d="M81.19,132.93H31.82c-.98,0-1.78-.8-1.78-1.78s.8-1.78,1.78-1.78h49.36c.98,0,1.78.8,1.78,1.78s-.8,1.78-1.78,1.78Z"/>
  <path class="st2" d="M81.19,145.58H31.82c-.98,0-1.78-.8-1.78-1.78s.8-1.78,1.78-1.78h49.36c.98,0,1.78.8,1.78,1.78s-.8,1.78-1.78,1.78Z"/>
  <path class="st2" d="M81.19,158.24H31.82c-.98,0-1.78-.8-1.78-1.78s.8-1.78,1.78-1.78h49.36c.98,0,1.78.8,1.78,1.78s-.8,1.78-1.78,1.78Z"/>
  <path class="st2" d="M81.19,170.89H31.82c-.98,0-1.78-.8-1.78-1.78s.8-1.78,1.78-1.78h49.36c.98,0,1.78.8,1.78,1.78s-.8,1.78-1.78,1.78Z"/>
  <path class="st2" d="M81.19,183.54H31.82c-.98,0-1.78-.8-1.78-1.78s.8-1.78,1.78-1.78h49.36c.98,0,1.78.8,1.78,1.78s-.8,1.78-1.78,1.78Z"/>
  <path class="st2" d="M126.43,118.89h-32.58c-.98,0-1.78-.8-1.78-1.78s.8-1.78,1.78-1.78h32.58c.98,0,1.78.8,1.78,1.78s-.8,1.78-1.78,1.78Z"/>
</svg>