<?xml version="1.0" encoding="UTF-8"?>
<svg id="Ebene_1" xmlns="http://www.w3.org/2000/svg" version="1.1" viewBox="0 0 160 63.53">
  <!-- Generator: Adobe Illustrator 30.0.0, SVG Export Plug-In . SVG Version: 2.1.1 Build 123)  -->
  <defs>
    <style>
      .st0 {
        fill: #1c2761;
      }
    </style>
  </defs>
  <path class="st0" d="M29.19,30.59c0,4.48-3.25,7.18-8.6,7.18h-5.65v6.64h-2.22v-21.04h7.88c5.35,0,8.6,2.7,8.6,7.21ZM26.97,30.59c0-3.37-2.22-5.29-6.43-5.29h-5.59v10.52h5.59c4.21,0,6.43-1.92,6.43-5.23Z"/>
  <path class="st0" d="M36.98,35.43v-12.05h2.22v11.96c0,4.99,2.34,7.27,6.43,7.27s6.46-2.28,6.46-7.27v-11.96h2.16v12.05c0,6.04-3.25,9.17-8.63,9.17s-8.66-3.13-8.66-9.17Z"/>
  <path class="st0" d="M63.97,23.37h2.22v19.12h11.78v1.92h-14.01v-21.04Z"/>
  <path class="st0" d="M82.42,41.86l.87-1.71c1.5,1.47,4.18,2.55,6.94,2.55,3.94,0,5.65-1.65,5.65-3.73,0-5.77-12.95-2.22-12.95-10.01,0-3.1,2.4-5.77,7.75-5.77,2.37,0,4.84.69,6.52,1.86l-.75,1.77c-1.8-1.17-3.91-1.74-5.77-1.74-3.85,0-5.56,1.71-5.56,3.82,0,5.77,12.95,2.28,12.95,9.95,0,3.1-2.47,5.74-7.84,5.74-3.16,0-6.25-1.11-7.81-2.74Z"/>
  <path class="st0" d="M119.12,38.79h-11.72l-2.52,5.62h-2.31l9.62-21.04h2.19l9.62,21.04h-2.34l-2.52-5.62ZM118.31,36.99l-5.05-11.3-5.05,11.3h10.1Z"/>
  <path class="st0" d="M144.85,44.41l-4.81-6.76c-.54.06-1.08.09-1.68.09h-5.65v6.67h-2.22v-21.04h7.87c5.35,0,8.6,2.7,8.6,7.21,0,3.31-1.74,5.62-4.81,6.61l5.14,7.21h-2.43ZM144.73,30.59c0-3.37-2.22-5.29-6.43-5.29h-5.59v10.55h5.59c4.21,0,6.43-1.95,6.43-5.26Z"/>
</svg>