<?xml version="1.0" encoding="UTF-8"?>
<svg id="Ebene_1" xmlns="http://www.w3.org/2000/svg" version="1.1" viewBox="0 0 1044.64 358.75">
  <!-- Generator: Adobe Illustrator 30.0.0, SVG Export Plug-In . SVG Version: 2.1.1 Build 123)  -->
  <defs>
    <style>
      .st0 {
        fill: #6e9de7;
      }

      .st1 {
        fill: #6f91cb;
      }

      .st2 {
        fill: #729bd1;
      }

      .st3 {
        fill: #ffb800;
      }

      .st4 {
        fill: #252d5d;
      }

      .st5 {
        fill: #69f;
      }

      .st6 {
        fill: #1c2761;
      }
    </style>
  </defs>
  <path class="st2" d="M604.61,193.47c-48.96,0-88.79-39.83-88.79-88.79s39.83-88.79,88.79-88.79,88.79,39.83,88.79,88.79-39.83,88.79-88.79,88.79ZM604.61,17.03c-48.33,0-87.65,39.32-87.65,87.65s39.32,87.65,87.65,87.65,87.65-39.32,87.65-87.65-39.32-87.65-87.65-87.65Z"/>
  <path class="st2" d="M604.61,342.32c-48.96,0-88.79-39.83-88.79-88.79s39.83-88.79,88.79-88.79,88.79,39.83,88.79,88.79-39.83,88.79-88.79,88.79ZM604.61,165.88c-48.33,0-87.65,39.32-87.65,87.65s39.32,87.65,87.65,87.65,87.65-39.32,87.65-87.65-39.32-87.65-87.65-87.65Z"/>
  <rect class="st2" x="118.97" y="11.07" width="1.14" height="289.05" transform="translate(-75.09 130.71) rotate(-45.18)"/>
  <rect class="st2" x="63.57" y="209.31" width="35.76" height="1.14" transform="translate(-122.41 114.34) rotate(-43.68)"/>
  <rect class="st2" x="57.63" y="216.69" width="64.29" height="1.14" transform="translate(-125.2 122.14) rotate(-43.68)"/>
  <rect class="st2" x="56.71" y="221.1" width="88.95" height="1.14" transform="translate(-125.08 131.24) rotate(-43.68)"/>
  <path class="st2" d="M371.31,258.78l-10.46-10.49c-7.93-32.56-33.56-58.27-66.09-66.29l-3.33-3.34c41.04-8.47,71.98-44.89,71.98-88.4,0-49.77-40.49-90.26-90.26-90.26s-90.26,40.49-90.26,90.26c0,44.45,32.3,81.5,74.66,88.91l-1.9,1.92c-36.1,7.12-64.53,35.83-71.25,72.07l-35.78,36.19.81.8,34.63-35.03c-.77,4.73-1.17,9.58-1.17,14.52,0,49.77,40.49,90.26,90.26,90.26s90.26-40.49,90.26-90.26c0-6.6-.72-13.04-2.07-19.24l9.17,9.2.81-.8v-.02h-.01ZM359.27,246.7l-62.93-63.12c30.62,8.26,54.76,32.47,62.93,63.12ZM292.66,181.5c-3.08-.68-6.21-1.2-9.4-1.56,2.3-.26,4.57-.6,6.82-1.03l2.58,2.59ZM273.15,179.37c-4.5,0-8.91-.34-13.23-.98l14.76-14.93,14.44,14.48c-5.18.94-10.51,1.43-15.96,1.43h-.01ZM290.46,177.68l-14.98-15.03,85.65-86.64c.75,4.64,1.14,9.4,1.14,14.24,0,43.22-30.93,79.35-71.81,87.43ZM273.15,1.13c43.81,0,80.34,31.78,87.75,73.49l-86.22,87.22-88.9-89.17C193.97,31.92,230.03,1.13,273.16,1.13h-.01ZM184.03,90.25c0-5.54.51-10.96,1.48-16.23l88.36,88.63-15.34,15.51c-42.21-7-74.5-43.75-74.5-87.91h0ZM258.93,179.39c1.36.22,2.73.4,4.11.55-1.82.2-3.63.46-5.42.77l1.31-1.33h0ZM254.2,182.54l-68.36,69.15c7.07-34.44,34.06-61.69,68.36-69.15h0ZM362.27,269.63c0,49.14-39.98,89.12-89.12,89.12s-89.12-39.98-89.12-89.12c0-5.44.49-10.76,1.43-15.93l70.76-71.57c5.49-1.06,11.15-1.62,16.94-1.62,7.24,0,14.29.88,21.03,2.51l65.64,65.84c1.6,6.67,2.45,13.62,2.45,20.77h-.01Z"/>
  <polygon class="st0" points=".51 166.17 .51 193.17 24.61 179.67 .51 166.17"/>
  <g>
    <polygon class="st5" points="288.04 309.21 261.05 309.21 274.54 333.31 288.04 309.21"/>
    <path class="st5" d="M274.54,333.81h0c-.18,0-.35-.1-.44-.26l-13.49-24.1c-.09-.15-.08-.34,0-.5.09-.15.25-.25.43-.25h26.99c.18,0,.34.09.43.25.09.15.09.34,0,.5l-13.5,24.1c-.09.16-.25.26-.44.26h.02ZM261.9,309.71l12.64,22.58,12.65-22.58h-25.29Z"/>
  </g>
  <polygon class="st0" points="443.74 142.66 443.74 169.66 467.84 156.16 443.74 142.66"/>
  <polygon class="st0" points="618.11 116.21 591.12 116.21 604.62 140.31 618.11 116.21"/>
  <polygon class="st0" points="591.12 242.76 618.11 242.76 604.61 218.66 591.12 242.76"/>
  <polygon class="st0" points="754.59 54.66 781.58 54.66 768.08 30.55 754.59 54.66"/>
  <polygon class="st0" points="754.59 320.99 781.58 320.99 768.08 296.89 754.59 320.99"/>
  <g>
    <polygon class="st5" points="288.04 42.53 261.05 42.53 274.54 66.63 288.04 42.53"/>
    <path class="st5" d="M274.54,67.13h0c-.18,0-.35-.1-.44-.26l-13.49-24.1c-.09-.15-.08-.34,0-.5.09-.15.25-.25.43-.25h26.99c.18,0,.34.09.43.25.09.15.09.34,0,.5l-13.5,24.1c-.09.16-.25.26-.44.26h.02ZM261.9,43.03l12.64,22.58,12.65-22.58h-25.29Z"/>
  </g>
  <path class="st1" d="M24.85,179.23L.75,165.73c-.15-.09-.34-.08-.5,0-.15.09-.25.25-.25.43v27c0,.18.09.34.25.43.08.05.17.07.25.07s.17-.02.24-.06l24.1-13.5c.16-.09.26-.25.26-.44s-.1-.35-.26-.44h.01Z"/>
  <path class="st1" d="M288.04,308.71h-26.99c-.18,0-.34.09-.43.25-.09.15-.09.34,0,.5l13.49,24.1c.09.16.26.26.44.26s.35-.1.44-.26l13.5-24.1c.09-.15.08-.34,0-.5-.09-.15-.25-.25-.43-.25h-.02Z"/>
  <path class="st1" d="M468.08,155.72l-24.1-13.5c-.15-.09-.34-.09-.5,0-.15.09-.25.25-.25.43v27c0,.18.09.34.25.43.08.05.17.07.25.07s.17-.02.24-.06l24.1-13.5c.16-.09.26-.25.26-.44s-.1-.35-.26-.44h.01Z"/>
  <path class="st1" d="M618.11,115.71h-26.99c-.18,0-.34.09-.43.25-.09.15-.09.34,0,.5l13.5,24.1c.09.16.26.26.44.26s.35-.1.44-.26l13.49-24.1c.09-.15.08-.34,0-.5-.09-.15-.25-.25-.43-.25h-.02Z"/>
  <path class="st1" d="M605.05,218.42c-.18-.32-.7-.32-.87,0l-13.49,24.1c-.09.15-.08.34,0,.5s.25.25.43.25h26.99c.18,0,.34-.09.43-.25s.09-.34,0-.5l-13.5-24.1h.01Z"/>
  <path class="st1" d="M754.59,55.16h26.99c.18,0,.34-.09.43-.25.09-.15.09-.34,0-.5l-13.5-24.11c-.18-.32-.7-.32-.87,0l-13.49,24.11c-.09.15-.08.34,0,.5.09.15.25.25.43.25h.01Z"/>
  <path class="st1" d="M768.52,296.65c-.18-.32-.7-.32-.87,0l-13.49,24.1c-.09.15-.08.34,0,.5s.25.25.43.25h26.99c.18,0,.34-.09.43-.25s.09-.34,0-.5l-13.5-24.1h.01Z"/>
  <path class="st1" d="M288.04,42.03h-26.99c-.18,0-.34.09-.43.25-.09.15-.09.34,0,.5l13.49,24.1c.09.16.26.26.44.26s.35-.1.44-.26l13.5-24.1c.09-.15.08-.34,0-.5-.09-.15-.25-.25-.43-.25h-.02Z"/>
  <rect class="st2" x="465.92" y="145.98" width="1.14" height="131.49" transform="translate(-12.67 392.96) rotate(-45.13)"/>
  <rect class="st2" x="458.42" y="153.55" width="1.14" height="131.49" transform="translate(-20.25 389.87) rotate(-45.13)"/>
  <rect class="st2" x="450.66" y="161.29" width="1.14" height="131.5" transform="translate(-28.02 386.66) rotate(-45.13)"/>
  <rect class="st2" x="445.95" y="178.44" width="1.14" height="118.19" transform="translate(-36.84 386.4) rotate(-45.13)"/>
  <rect class="st2" x="438.75" y="195.78" width="1.14" height="97.88" transform="translate(-44.06 383.42) rotate(-45.13)"/>
  <rect class="st2" x="430.68" y="212.45" width="1.14" height="78.3" transform="translate(-51.31 379.73) rotate(-45.13)"/>
  <rect class="st0" x="653.26" y="179.37" width="247.74" height="1.14"/>
  <polygon class="st2" points="768.08 241.78 767.67 241.37 687.75 160.71 688.56 159.91 768.08 240.16 846.81 159.91 847.63 160.71 768.08 241.78"/>
  <rect class="st2" x="604.71" y="181.59" width="365.59" height="1.14" transform="translate(85.29 582.47) rotate(-42.71)"/>
  <rect class="st0" x="910.67" y="93.39" width="29.32" height="1.14" transform="translate(191.23 665.07) rotate(-43.68)"/>
  <rect class="st2" x="900.1" y="130.22" width="94.66" height="1.14" transform="translate(181.5 703.57) rotate(-44.65)"/>
  <rect class="st2" x="892.52" y="122.64" width="94.66" height="1.14" transform="translate(184.64 696.06) rotate(-44.65)"/>
  <rect class="st2" x="885.56" y="115.68" width="94.66" height="1.14" transform="translate(187.52 689.16) rotate(-44.65)"/>
  <rect class="st2" x="887.11" y="109.02" width="75.73" height="1.14" transform="translate(189.91 681.68) rotate(-44.65)"/>
  <rect class="st2" x="899.62" y="143.54" width="100.12" height="1.14" transform="translate(172.79 709) rotate(-44.65)"/>
  <path class="st2" d="M990.45,233.21c-29.88,0-54.19-24.31-54.19-54.19s24.31-54.19,54.19-54.19,54.19,24.31,54.19,54.19-24.31,54.19-54.19,54.19ZM990.45,125.97c-29.25,0-53.05,23.8-53.05,53.05s23.8,53.05,53.05,53.05,53.05-23.8,53.05-53.05-23.8-53.05-53.05-53.05Z"/>
  <path class="st6" d="M71.46,200.03v51.3c0,7.22.76,12.44,2.28,15.67s4.18,5.42,7.98,6.56c3.8,1.14,9.97,1.9,18.52,2.28v5.7c-9.88-.57-23.84-.86-41.89-.86-16.34,0-28.5.29-36.48.86v-5.7c6.84-.38,11.83-1.14,14.96-2.28,3.13-1.14,5.27-3.32,6.41-6.56,1.14-3.23,1.71-8.45,1.71-15.67V109.98c0-7.22-.57-12.44-1.71-15.67s-3.28-5.42-6.41-6.55c-3.14-1.14-8.12-1.9-14.96-2.28v-5.7c7.98.57,19.57.86,34.77.86l30.78-.28c3.61-.19,7.69-.29,12.25-.29,22.23,0,39.23,5.09,51.01,15.25,11.78,10.17,17.67,23.79,17.67,40.89,0,10.45-2.33,20.47-6.98,30.07-4.66,9.59-12.54,17.62-23.65,24.08s-25.89,9.69-44.31,9.69h-21.94v-.02h-.01ZM79.3,87.47c-2.95,1.33-4.99,3.71-6.13,7.12-1.14,3.42-1.71,8.55-1.71,15.39v84.35h19.09c18.62,0,31.49-4.99,38.61-14.96,7.12-9.97,10.69-23.32,10.69-40.04,0-18.43-3.66-32.01-10.97-40.75-7.32-8.74-19.43-13.11-36.33-13.11-5.89,0-10.31.67-13.25,1.99h0Z"/>
  <path class="st3" d="M362.42,85.47c-6.65.38-11.59,1.38-14.82,2.99-3.23,1.62-5.41,4.27-6.55,7.98-1.14,3.71-1.71,9.17-1.71,16.39v85.78c0,13.68-.9,25.41-2.71,35.19-1.81,9.79-4.8,18.19-8.98,25.22-4.75,8.17-11.73,14.63-20.94,19.38-9.22,4.75-19.62,7.12-31.21,7.12-20.9,0-36.86-5.13-47.88-15.39-8.36-7.79-13.96-16.62-16.81-26.5-2.85-9.87-4.27-24.6-4.27-44.17v-89.48c0-7.22-.57-12.44-1.71-15.67-1.14-3.23-3.28-5.42-6.41-6.55-3.14-1.14-8.12-1.9-14.96-2.28v-5.7c7.98.57,20.14.86,36.48.86,15.39,0,27.45-.28,36.19-.86v5.7c-6.84.38-11.83,1.14-14.96,2.28-3.14,1.14-5.27,3.33-6.41,6.55-1.14,3.23-1.71,8.46-1.71,15.67v94.33c0,15.2,1.04,27.83,3.13,37.9s6.41,18.15,12.97,24.22c6.55,6.08,16.19,9.12,28.92,9.12,20.13,0,34.29-6.46,42.46-19.38,8.17-12.92,12.25-31.06,12.25-54.43v-88.91c0-10.26-1.85-17.29-5.56-21.09-3.7-3.8-10.5-5.89-20.37-6.27v-5.7c6.84.57,16.53.86,29.07.86,11.4,0,20.23-.28,26.5-.86v5.7h0Z"/>
  <path class="st6" d="M449.34,85.47c-6.84.38-11.83,1.14-14.96,2.28-3.14,1.14-5.27,3.33-6.41,6.55-1.14,3.23-1.71,8.46-1.71,15.67v141.35c0,7.22.57,12.44,1.71,15.67,1.14,3.23,3.28,5.37,6.41,6.41,3.13,1.05,8.12,1.57,14.96,1.57h20.8c11.78,0,20.75-1.66,26.93-4.99,6.17-3.32,10.69-8.69,13.54-16.1,2.85-7.41,4.94-18.14,6.27-32.2h6.55c-.57,5.89-.85,13.68-.85,23.37,0,10.83.66,22.99,2,36.48-12.92-.57-34.67-.86-65.26-.86-36.48,0-64.03.29-82.64.86v-5.7c6.84-.38,11.83-1.14,14.96-2.28,3.13-1.14,5.27-3.32,6.41-6.56,1.14-3.23,1.71-8.45,1.71-15.67V109.97c0-7.22-.57-12.44-1.71-15.67-1.14-3.23-3.28-5.42-6.41-6.55-3.14-1.14-8.12-1.9-14.96-2.28v-5.7c7.98.57,20.14.86,36.48.86,15.2,0,27.26-.28,36.19-.86v5.7h-.01Z"/>
  <path class="st4" d="M621.89,79.35c4.84,1.81,9.83,4.42,14.96,7.84,4.18,2.66,7.41,3.99,9.69,3.99,1.71,0,3.04-1,3.99-2.99.95-2,1.71-5.18,2.28-9.55h6.55c-.95,11.02-1.42,30.4-1.42,58.14h-6.55c-1.14-15.39-5.56-28.35-13.25-38.9-7.69-10.54-18.86-15.81-33.48-15.81-10.26,0-18.62,3.09-25.08,9.26-6.46,6.18-9.69,14.11-9.69,23.79,0,7.22,1.66,13.49,4.99,18.81,3.32,5.32,7.55,9.88,12.68,13.68s12.44,8.65,21.94,14.53l8.26,5.13c11.97,7.41,21.42,13.92,28.36,19.52,6.93,5.61,12.49,12.02,16.67,19.24s6.27,15.67,6.27,25.36c0,17.29-5.7,30.63-17.1,40.04-11.4,9.41-25.84,14.11-43.32,14.11-9.12,0-16.58-.95-22.37-2.85-5.8-1.9-11.35-4.46-16.67-7.69-4.18-2.66-7.41-3.99-9.69-3.99-1.71,0-3.04,1-3.99,2.99s-1.71,5.18-2.28,9.55h-6.55c.76-10.45,1.14-33.24,1.14-68.39h6.55c1.33,19.19,6.08,34.77,14.25,46.74s20.7,17.95,37.62,17.95c10.26,0,19-3.18,26.22-9.55,7.22-6.36,10.83-15.81,10.83-28.35,0-10.64-3.56-19.66-10.69-27.07s-18.38-15.77-33.77-25.08c-11.21-6.84-20.28-12.92-27.21-18.24-6.94-5.32-12.59-11.73-16.96-19.24-4.37-7.5-6.55-16.29-6.55-26.36,0-15.96,5.13-28.16,15.39-36.62,10.26-8.45,22.98-12.68,38.19-12.68,8.36,0,14.96.9,19.81,2.71l-.02-.02h0Z"/>
  <path class="st3" d="M859.7,275.83v5.7c-7.6-.57-17.77-.86-30.49-.86-16.34,0-28.5.29-36.48.86v-5.7c7.22-.38,12.4-1.28,15.53-2.71,3.13-1.42,4.7-4.03,4.7-7.84,0-3.23-1.14-7.69-3.42-13.39l-17.38-46.74h-68.96l-11.68,30.21c-3.8,10.26-5.7,18.05-5.7,23.37,0,5.89,2.04,10.16,6.13,12.82,4.08,2.66,10.3,4.09,18.67,4.27v5.7c-10.83-.57-21.76-.86-32.77-.86-8.55,0-15.67.29-21.37.86v-5.7c9.5-2.28,17-10.54,22.51-24.79l66.97-172.69h4.56l69.53,179.25c4.56,11.78,11.11,17.86,19.66,18.24h-.01ZM789.88,199.46l-31.92-85.2-32.49,85.2h64.41Z"/>
  <path class="st6" d="M1044.07,267.28c-4.37,6.46-8.74,11.11-13.11,13.96s-10.16,4.27-17.38,4.27c-7.79,0-14.2-2.28-19.24-6.84s-8.79-12.54-11.26-23.94l-6.27-28.5c-2.28-9.87-4.42-17.47-6.41-22.8-1.99-5.32-4.99-9.59-8.98-12.82s-9.6-4.84-16.81-4.84h-27.07v65.54c0,7.22.57,12.44,1.71,15.67s3.28,5.42,6.41,6.56c3.13,1.14,8.12,1.9,14.96,2.28v5.7c-8.74-.57-20.8-.86-36.19-.86-16.34,0-28.5.29-36.48.86v-5.7c6.84-.38,11.83-1.14,14.96-2.28,3.13-1.14,5.27-3.32,6.41-6.56,1.14-3.23,1.71-8.45,1.71-15.67V109.96c0-7.22-.57-12.44-1.71-15.67s-3.28-5.42-6.41-6.55c-3.14-1.14-8.12-1.9-14.96-2.28v-5.7c7.98.57,19.57.86,34.77.86l30.78-.28c3.61-.19,7.69-.29,12.25-.29,22.04,0,38.99,4.61,50.87,13.82,11.87,9.22,17.81,21.14,17.81,35.76,0,7.41-1.76,14.87-5.27,22.37-3.52,7.51-9.4,14.25-17.67,20.23-8.26,5.98-19.05,10.02-32.34,12.11l3.42.57c12.54,2.09,21.66,5.89,27.36,11.4s9.88,14.25,12.54,26.22l7.12,29.07c1.9,8.74,3.89,14.82,5.98,18.24,2.09,3.42,4.94,5.13,8.55,5.13,3.23,0,5.94-.86,8.12-2.57,2.18-1.71,4.7-4.46,7.55-8.27l4.27,3.13v.02h0ZM925.38,87.47c-2.95,1.33-4.99,3.71-6.13,7.12-1.14,3.42-1.71,8.55-1.71,15.39v70.1h19.09c18.81,0,31.73-4.18,38.76-12.54s10.54-19.95,10.54-34.77c0-15.57-3.7-27.36-11.11-35.34s-19.48-11.97-36.19-11.97c-5.89,0-10.31.67-13.25,1.99v.02h0Z"/>
</svg>