<?xml version="1.0" encoding="UTF-8"?>
<svg id="Ebene_1" xmlns="http://www.w3.org/2000/svg" version="1.1" viewBox="0 0 178.86 240.4">
  <!-- Generator: Adobe Illustrator 30.0.0, SVG Export Plug-In . SVG Version: 2.1.1 Build 123)  -->
  <defs>
    <style>
      .st0 {
        fill: #f9b50f;
      }

      .st1 {
        fill: #7199d0;
      }

      .st2 {
        fill: #252d5d;
      }
    </style>
  </defs>
  <path class="st2" d="M19.4,102.49c-2.49,0-4.85-1.51-5.8-3.97-.6-1.55-.55-3.23.12-4.75.67-1.52,1.9-2.68,3.44-3.28l108.29-41.74c1.55-.6,3.24-.56,4.75.12,1.52.67,2.68,1.89,3.28,3.44,1.23,3.19-.37,6.79-3.56,8.02L21.63,102.08c-.73.28-1.49.42-2.23.42ZM127.69,51.34c-.39,0-.78.07-1.16.22L18.24,93.3c-.8.31-1.43.91-1.78,1.69-.35.78-.37,1.65-.06,2.45.64,1.65,2.5,2.47,4.15,1.84l108.29-41.74c1.65-.64,2.48-2.5,1.84-4.14-.31-.8-.91-1.43-1.69-1.78-.42-.18-.86-.28-1.3-.28Z"/>
  <rect class="st1" x="40.61" y="68.97" width="1.18" height="93.97" transform="translate(-22.8 10.85) rotate(-11.78)"/>
  <rect class="st1" x="54.36" y="166.86" width="1.18" height="32.76" transform="translate(-33.74 13.74) rotate(-10.93)"/>
  <path class="st2" d="M98.89,102.21c-.2,0-.39,0-.59-.03-2.24-.22-4.04-1.16-5.34-2.79-2.14-2.69-2.81-7.24-1.99-13.53.35-2.85,2.51-7.13,5.09-12.01.5-.97,1.02-1.95,1.52-2.92l.6-1.15c.38-.73,1.29-1.02,2.03-.63.73.38,1.02,1.29.63,2.02l-.61,1.16c-.5.96-1.02,1.94-1.52,2.91-1.78,3.38-4.46,8.46-4.77,11.01-.7,5.39-.23,9.29,1.36,11.29.79.99,1.86,1.53,3.29,1.67,3.15.32,6.4-5.38,9.5-10.9,2.09-3.73,4.26-7.58,6.76-10.35,3.4-3.76,9.43-7.85,15.26-11.8,4.96-3.36,10.09-6.84,11.46-8.89,1.39-2.09,3.23-5.49,5-8.78,2.27-4.21,4.24-7.85,5.54-9.34,3.08-3.53,13.41-7.52,14.58-7.96.77-.29,1.64.1,1.94.87s-.1,1.64-.87,1.94c-2.98,1.13-11.19,4.61-13.38,7.13-1.08,1.24-3.15,5.08-5.16,8.8-1.81,3.35-3.68,6.82-5.15,9.02-1.69,2.53-6.59,5.86-12.27,9.71-5.42,3.67-11.56,7.84-14.72,11.33-2.28,2.51-4.36,6.22-6.37,9.8-3.59,6.39-6.98,12.45-11.82,12.45Z"/>
  <path class="st2" d="M21.28,60.42l-5.57-1.91c-1.63-.55-2.95-1.72-3.7-3.27-.75-1.55-.86-3.3-.29-4.92.88-2.6,3.34-4.35,6.11-4.35.78,0,1.47.11,2.11.35l10.61,3.65-.98,2.84-10.63-3.66c-.34-.12-.69-.18-1.11-.18-1.48,0-2.8.94-3.27,2.33-.31.87-.25,1.8.15,2.62.4.83,1.1,1.45,1.97,1.74l5.57,1.91-.97,2.84Z"/>
  <path class="st2" d="M136.38,99.62c-.78,0-1.47-.11-2.11-.35l-25.39-8.74.98-2.84,25.42,8.75c.33.12.69.18,1.11.18,1.5,0,2.81-.93,3.27-2.32.31-.89.26-1.82-.14-2.65-.4-.82-1.1-1.44-1.97-1.73l-23.32-8.02.98-2.84,23.31,8.02c1.63.55,2.95,1.71,3.7,3.26.76,1.55.86,3.3.29,4.93-.85,2.59-3.31,4.35-6.11,4.35Z"/>
  <rect class="st2" x="49.9" y="55.07" width="3" height="28.22" transform="translate(-30.73 95.31) rotate(-71.04)"/>
  <rect class="st2" x="84.35" y="73.34" width="3" height="15.39" transform="translate(-18.75 135.77) rotate(-70.97)"/>
  <rect class="st2" x="61.4" y="45.58" width="3" height="34.2" transform="translate(-16.83 101.79) rotate(-71.03)"/>
  <rect class="st2" x="93.66" y="71.42" width="3" height="4.71" transform="translate(-5.55 139.78) rotate(-71.03)"/>
  <path class="st2" d="M79.63,67.94l-3-.05.13-5.55c.37-1.55,1.8-3.03,2.85-4.11l.36-.37,7.07-7.42,2.17,2.07-7.44,7.81c-.67.7-1.78,1.84-2.04,2.59l-.09,5.04Z"/>
  <rect class="st2" x="61.7" y="55.24" width="18.4" height="3" transform="translate(-19.47 65.66) rotate(-44.31)"/>
  <path class="st2" d="M68.92,94.56c-.59,0-1.16-.18-1.65-.51-.67-.47-1.12-1.2-1.23-2.02l-1.15-8.59,2.97-.4,1.14,8.5c1.37-.36,3.36-1.21,5.28-3.26,3.05-3.27,1.77-8.92,1.75-8.97l2.92-.7c.07.29,1.68,7.25-2.48,11.72-2.48,2.65-5.11,3.73-6.88,4.16-.22.05-.45.08-.67.08Z"/>
  <path class="st2" d="M49.01,101.6c-.14,0-.27,0-.41,0-1.86-.08-3.37-1.61-3.46-3.48l-.31-7.1,3-.13.31,7.1c.01.32.28.6.58.61,2.86.1,5.09-1.08,6.64-3.49,2.81-4.44,2.78-9.21,2.78-9.25l3-.05c0,.23.06,5.68-3.25,10.91-2.03,3.16-5.17,4.88-8.88,4.88Z"/>
  <path class="st2" d="M44.45,81.05l-.26-7.99c-.05-1.21.03-2.5.26-3.91l.33-1.97,2.96.5-.33,1.96c-.19,1.2-.26,2.29-.22,3.32l.26,8-3,.1Z"/>
  <rect class="st2" x="59.64" y="72.4" width="2.75" height="3" transform="translate(-18.88 126.83) rotate(-83.99)"/>
  <circle class="st0" cx="70.89" cy="138.35" r="9.76"/>
  <path class="st1" d="M95.16,223.69c-.05,0-.1,0-.15-.02-.32-.09-.5-.41-.42-.72l35.52-132.51c.08-.32.41-.5.72-.42.32.08.5.41.42.72l-35.52,132.51c-.07.26-.31.44-.57.44Z"/>
  <path class="st1" d="M107.38,133.34s-.08,0-.12-.01c-.32-.06-.53-.37-.47-.69l14.87-75.62c.06-.32.37-.53.69-.47.32.06.53.37.47.69l-14.87,75.63c-.06.28-.3.48-.58.48Z"/>
  <path class="st2" d="M20.35,75.96c-4.41,0-7.28-1.8-8.99-3.46-.77-.74-1.23-1.78-1.23-2.86s.43-2.09,1.22-2.84c4.21-4.03,25.46-24.3,30.24-26.89,3.34-1.82,6.95-3.25,10.44-4.64,2.88-1.15,5.6-2.23,7.85-3.41,1.84-.96,3.51-1.99,5.13-2.98,3.25-2,6.33-3.89,10.03-4.76,2.04-.48,4.63-.83,7.91-1.28,6.84-.94,16.21-2.23,27.38-5.66,20.16-6.22,29.28-12.89,34.73-16.87.67-.49,1.61-.34,2.1.33.49.67.34,1.61-.33,2.1-5.6,4.09-14.98,10.94-35.62,17.32-11.41,3.51-20.91,4.82-27.86,5.77-3.2.44-5.73.79-7.63,1.23-3.23.75-5.97,2.44-9.14,4.39-1.66,1.02-3.38,2.08-5.31,3.09-2.39,1.25-5.18,2.36-8.13,3.54-3.41,1.36-6.94,2.76-10.12,4.49-3.69,2-20.34,17.55-29.6,26.43-.25.24-.29.52-.29.67,0,.27.11.51.3.7,1.56,1.51,4.4,3.16,9.12,2.46,5.5-.82,11.59-6.56,16.49-11.17,2.56-2.41,4.78-4.5,6.6-5.6,5.45-3.33,16.46-7.18,21.82-7.64,4.13-.34,13.74.77,20.76,1.59,2.31.27,4.32.5,5.7.63,4.56.43,8.81,3.85,10.11,8.13.24.79-.21,1.63-1,1.87-.79.24-1.63-.2-1.87-1-.95-3.11-4.18-5.7-7.52-6.02-1.39-.13-3.42-.37-5.76-.64-6.5-.76-16.33-1.9-20.16-1.58-4.91.41-15.46,4.12-20.51,7.21-1.56.95-3.66,2.93-6.1,5.23-5.21,4.9-11.68,11-18.11,11.95-.94.14-1.82.2-2.65.2Z"/>
  <path class="st1" d="M35.48,155.09c-.28,0-.53-.2-.58-.49l-10.87-60.14c-.06-.32.16-.63.48-.69.33-.05.63.16.69.48l10.87,60.14c.06.32-.16.63-.48.69-.04,0-.07,0-.11,0Z"/>
  <path class="st0" d="M36.59,151.84l12.35,6.82c.97.54,2.12.7,3.2.44l20.5-4.82,21.98-5.47c1.72-.43,3.11-1.7,3.69-3.38l4.95-14.34c1.11-1.87,3.34-2.67,5.22-2,1.54.56,2.63,2.04,2.77,3.78l-5.83,18.59c-.45,1.44-1.49,2.62-2.86,3.25l-16.04,7.33,4.99,25.48c.15.76.17,1.53.06,2.3l-2.97,21.36c-.27,1.93.26,3.88,1.45,5.41l12.99,16.58c1.29,1.89,1.1,4.37-.33,5.88-1.67,1.76-4.7,1.86-6.66,0l-17.59-19.29c-1.23-1.35-1.86-3.16-1.73-4.99l1.24-17.55-15.16,9c-.91.54-1.47,1.53-1.46,2.58l.21,22.03c-.41,2.13-2.16,3.71-4.21,3.89-2.29.19-4.46-1.41-4.99-3.78l-1.88-26.32c-.14-1.97.79-3.86,2.43-4.95l15.42-10.23c1-.67,1.49-1.88,1.23-3.05l-4.45-20.13-12.21,1.97c-1,.16-2.04,0-2.95-.45l-18.9-9.4c-1.37-1.48-1.71-3.57-.88-5.11,1.07-2,4.01-2.87,6.44-1.44h0Z"/>
</svg>