<?xml version="1.0" encoding="UTF-8"?>
<svg id="Ebene_1" data-name="Ebene 1" xmlns="http://www.w3.org/2000/svg" viewBox="0 0 237.86 29.24">
  <defs>
    <style>
      .cls-1 {
        fill: #6e9de7;
      }

      .cls-2 {
        fill: #2b2b2b;
      }

      .cls-3 {
        fill: #f9b50f;
      }
    </style>
  </defs>
  <g>
    <path class="cls-1" d="M37.89.82v.22c-.4.09-.69.41-.85.94l-2.04,6.53h-.17l-1.88-5.55-1.71,5.55h-.17l-2.29-6.78c-.15-.45-.4-.68-.74-.69v-.22c.29.02.68.03,1.15.03.52,0,.91-.01,1.16-.03v.22c-.19.01-.33.05-.41.11-.08.06-.12.15-.12.27,0,.12.04.29.12.53l1.57,4.81,1.32-4.17-.29-.85c-.14-.45-.36-.68-.64-.69v-.22c.26.02.61.03,1.05.03.62,0,1.08-.01,1.38-.03v.22c-.27.01-.46.05-.57.09-.11.05-.16.15-.16.3,0,.13.04.3.11.52l1.55,4.8,1.33-4.17c.11-.35.17-.64.17-.87s-.07-.4-.22-.5c-.14-.1-.38-.15-.7-.16v-.22c.41.02.82.03,1.24.03.32,0,.59-.01.81-.03Z"/>
    <path class="cls-1" d="M42.44,7.16c-.13.4-.37.74-.73,1.02-.36.28-.79.43-1.29.43s-.95-.12-1.33-.35c-.37-.23-.66-.56-.86-.98-.2-.42-.3-.91-.3-1.46,0-.63.1-1.17.3-1.63.2-.46.49-.81.85-1.06s.79-.37,1.28-.37c.65,0,1.14.2,1.49.59.35.39.52.99.52,1.78h-3.37c-.02.2-.03.43-.03.69,0,.47.08.89.23,1.24.15.35.36.62.61.81.26.19.52.29.8.29.35,0,.65-.08.92-.25.27-.17.49-.44.67-.83l.22.09ZM39.47,3.45c-.24.33-.4.82-.45,1.47h2.35c.01-.56-.07-1.03-.24-1.4-.18-.37-.44-.56-.78-.56s-.63.17-.87.5Z"/>
    <path class="cls-1" d="M47.6,3c.18.17.27.37.27.6,0,.19-.06.35-.17.48-.11.13-.26.2-.45.2-.16,0-.29-.05-.4-.15-.11-.1-.17-.24-.17-.41,0-.24.12-.43.37-.58-.05-.07-.13-.11-.23-.11-.28,0-.54.11-.77.33s-.41.49-.54.8c-.13.32-.19.61-.19.89v2.29c0,.33.1.56.29.69.19.13.48.19.86.19v.23h-.26c-.73-.03-1.2-.04-1.4-.04-.19,0-.61.01-1.27.04v-.23c.3,0,.51-.06.64-.17.12-.11.18-.31.18-.61v-3.37c0-.33-.06-.57-.18-.72-.12-.15-.33-.23-.64-.23v-.23c.23.02.45.03.67.03.45,0,.83-.05,1.12-.15v1.35c.13-.36.34-.68.62-.96.28-.28.6-.42.94-.42.29,0,.52.08.71.25Z"/>
    <path class="cls-1" d="M53.13,3.5c.38.5.57,1.23.57,2.18,0,.63-.11,1.16-.32,1.6-.22.44-.51.77-.87.99-.36.22-.77.33-1.21.33-.27,0-.52-.05-.77-.16s-.47-.26-.65-.46l-.77.65-.18-.08c.05-.18.08-.39.08-.63V1.3c0-.33-.06-.57-.18-.72-.12-.15-.33-.23-.64-.23v-.23c.23.02.45.03.67.03.45,0,.83-.05,1.12-.15v3.89c.16-.37.39-.65.68-.85.3-.2.63-.3,1-.3.61,0,1.11.25,1.48.75ZM52.29,7.7c.24-.43.36-1.11.36-2.02s-.11-1.53-.32-1.96c-.22-.43-.55-.65-.99-.65-.3,0-.58.12-.83.35-.25.23-.43.56-.54.99v3.42c.17.17.36.3.57.39.22.09.44.13.67.13.48,0,.84-.22,1.08-.65Z"/>
    <path class="cls-1" d="M59.74,7.29c0,.33.06.57.18.72.12.15.33.23.64.23v.23c-.22-.02-.45-.03-.67-.03-.45,0-.83.05-1.12.15v-1.27c-.17.45-.42.77-.73.98s-.66.31-1.03.31c-.49,0-.86-.14-1.12-.41-.13-.14-.22-.33-.27-.55-.05-.22-.08-.51-.08-.86v-2.71c0-.33-.06-.57-.18-.72-.12-.15-.33-.23-.64-.23v-.23c.22.02.45.03.67.03.45,0,.83-.05,1.12-.15v4.24c0,.27.02.49.05.66.03.17.11.31.23.42.12.11.3.16.54.16.27,0,.52-.09.74-.26.22-.17.4-.41.52-.71.13-.3.19-.63.19-.99v-2.23c0-.33-.06-.57-.18-.72-.12-.15-.33-.23-.64-.23v-.23c.22.02.45.03.67.03.45,0,.83-.05,1.12-.15v4.51Z"/>
    <path class="cls-1" d="M66.2,3.16c.14.14.23.32.29.54.06.22.09.51.09.87v2.88c0,.29.06.5.18.61.12.11.33.17.64.17v.23c-.66-.03-1.09-.04-1.29-.04s-.6.01-1.21.04v-.23c.27,0,.45-.06.56-.17.1-.11.16-.31.16-.61v-3.12c0-.4-.06-.71-.17-.92-.12-.21-.35-.32-.7-.32-.29,0-.56.09-.79.26-.23.17-.41.41-.53.71-.13.3-.19.63-.19,1v2.39c0,.29.05.5.16.61.1.11.29.17.56.17v.23c-.6-.03-1.01-.04-1.21-.04s-.63.01-1.29.04v-.23c.3,0,.51-.06.64-.17.12-.11.18-.31.18-.61v-3.37c0-.33-.06-.57-.18-.72-.12-.15-.33-.23-.64-.23v-.23c.23.02.45.03.67.03.45,0,.83-.05,1.12-.15v1.27c.18-.46.43-.79.75-1,.32-.2.68-.31,1.08-.31.5,0,.88.14,1.14.41Z"/>
    <path class="cls-1" d="M72.52,3.74c-.09-.09-.13-.21-.13-.38,0-.14.04-.31.11-.5-.19.08-.33.17-.44.26-.11.1-.2.22-.29.36.17.25.25.57.25.96,0,.57-.17.99-.52,1.28-.34.28-.8.43-1.37.43h-.01c-.24.14-.42.26-.54.38-.12.11-.18.24-.18.39,0,.23.17.35.52.35h1.35c.49,0,.89.11,1.21.32.32.21.48.53.48.95,0,.35-.11.66-.33.96-.22.29-.55.53-.98.71-.43.18-.95.27-1.56.27s-1.15-.1-1.57-.29c-.42-.19-.63-.47-.63-.85,0-.24.1-.46.3-.64.2-.18.47-.32.82-.42l.06.17c-.16.05-.28.15-.38.3-.09.15-.14.32-.14.51,0,.33.15.58.45.76.3.18.7.26,1.2.26.55,0,1.03-.11,1.42-.32.4-.21.59-.54.59-.99,0-.26-.09-.46-.27-.6-.18-.14-.51-.22-.98-.22h-.8c-.42,0-.76-.05-1.02-.16-.26-.11-.38-.32-.38-.65,0-.22.08-.43.24-.64.16-.2.43-.4.8-.59-.47-.05-.85-.22-1.14-.5-.28-.28-.43-.68-.43-1.19,0-.57.17-.99.52-1.28.35-.28.8-.43,1.37-.43.68,0,1.18.19,1.5.56.14-.19.31-.35.52-.48.21-.13.42-.19.63-.19.19,0,.34.05.45.16.11.11.17.26.17.46s-.06.35-.17.45c-.11.1-.24.15-.37.15-.13,0-.24-.04-.33-.13ZM70.77,5.62c.15-.23.22-.62.22-1.17s-.07-.94-.22-1.17c-.15-.23-.37-.34-.65-.34s-.51.11-.65.34c-.15.23-.22.62-.22,1.17s.07.94.22,1.17c.15.23.36.34.65.34s.51-.11.65-.34Z"/>
    <path class="cls-1" d="M75.63,7.43c.14.14.2.3.2.49s-.07.35-.2.49c-.14.14-.3.2-.49.2s-.35-.07-.49-.2c-.14-.14-.2-.3-.2-.49s.07-.35.2-.49c.14-.14.3-.2.49-.2s.35.07.49.2Z"/>
    <path class="cls-2" d="M89.26.82v.22c-.4.09-.69.41-.85.94l-2.04,6.53h-.17l-1.88-5.55-1.71,5.55h-.17l-2.29-6.78c-.15-.45-.4-.68-.74-.69v-.22c.29.02.68.03,1.15.03.52,0,.91-.01,1.16-.03v.22c-.19.01-.33.05-.41.11-.08.06-.12.15-.12.27,0,.12.04.29.12.53l1.57,4.81,1.32-4.17-.29-.85c-.14-.45-.36-.68-.64-.69v-.22c.26.02.61.03,1.05.03.62,0,1.08-.01,1.38-.03v.22c-.27.01-.46.05-.57.09-.11.05-.16.15-.16.3,0,.13.04.3.11.52l1.55,4.8,1.33-4.17c.11-.35.17-.64.17-.87s-.07-.4-.22-.5c-.14-.1-.38-.15-.7-.16v-.22c.41.02.82.03,1.24.03.32,0,.59-.01.81-.03Z"/>
    <path class="cls-2" d="M91.41,7.45c0,.29.06.5.18.61.12.11.33.17.64.17v.23c-.66-.03-1.1-.04-1.3-.04s-.64.01-1.3.04v-.23c.3,0,.51-.06.64-.17.12-.11.18-.31.18-.61v-3.37c0-.33-.06-.57-.18-.72-.12-.15-.33-.23-.64-.23v-.23c.23.02.45.03.67.03.45,0,.83-.05,1.12-.15v4.67ZM91.33.41c.14.14.2.3.2.49s-.07.35-.2.49-.3.2-.49.2-.35-.07-.49-.2c-.14-.14-.2-.3-.2-.49s.07-.35.2-.49c.14-.14.3-.2.49-.2s.35.07.49.2Z"/>
    <path class="cls-2" d="M97.16,3c.18.17.27.37.27.6,0,.19-.06.35-.17.48-.11.13-.26.2-.45.2-.16,0-.29-.05-.4-.15-.11-.1-.17-.24-.17-.41,0-.24.12-.43.37-.58-.05-.07-.13-.11-.23-.11-.28,0-.54.11-.77.33-.23.22-.41.49-.54.8-.13.32-.19.61-.19.89v2.29c0,.33.1.56.29.69.19.13.48.19.86.19v.23h-.26c-.73-.03-1.2-.04-1.4-.04-.19,0-.61.01-1.27.04v-.23c.3,0,.51-.06.64-.17.12-.11.18-.31.18-.61v-3.37c0-.33-.06-.57-.18-.72-.12-.15-.33-.23-.64-.23v-.23c.23.02.45.03.67.03.45,0,.83-.05,1.12-.15v1.35c.13-.36.34-.68.62-.96.28-.28.6-.42.94-.42.29,0,.52.08.71.25Z"/>
    <path class="cls-2" d="M105.83,8.07c.11.09.24.14.39.16v.23c-.43-.03-.72-.04-.87-.04-.19,0-.59.01-1.2.04v-.23c.1,0,.18-.02.24-.06.06-.04.09-.09.09-.15s-.02-.11-.06-.16l-1.24-1.81c-.12-.18-.24-.3-.35-.36-.11-.06-.26-.1-.46-.11v1.88c0,.29.05.5.16.61.1.11.29.17.56.17v.23c-.6-.03-1-.04-1.2-.04-.21,0-.64.01-1.3.04v-.23c.3,0,.51-.06.64-.17.12-.11.18-.31.18-.61V1.29c0-.33-.06-.57-.18-.72-.12-.15-.33-.23-.64-.23V.12c.23.02.45.03.67.03.45,0,.83-.05,1.12-.15v5.35c.21-.03.38-.08.52-.15.14-.07.28-.17.4-.3l.8-.83c.23-.24.34-.43.34-.59,0-.12-.07-.21-.22-.28-.15-.06-.34-.09-.58-.09v-.22c.5.03.91.04,1.22.04.34,0,.65-.01.94-.04v.22c-.35.03-.68.2-.97.51l-1.32,1.38,1.95,2.66c.14.18.26.31.37.4Z"/>
    <path class="cls-2" d="M111.04,3.48c.45.49.67,1.22.67,2.2s-.22,1.72-.67,2.2c-.45.48-1.04.72-1.77.72s-1.32-.24-1.77-.72c-.45-.48-.67-1.21-.67-2.2s.22-1.72.67-2.2c.45-.49,1.04-.73,1.77-.73s1.32.24,1.77.73ZM108.61.63c.13.13.19.27.19.44s-.06.32-.19.44c-.13.12-.27.18-.44.18s-.32-.06-.44-.18c-.12-.12-.18-.27-.18-.44s.06-.31.18-.44c.12-.13.27-.19.44-.19s.31.06.44.19ZM108.25,3.63c-.25.44-.38,1.13-.38,2.05s.13,1.61.38,2.05c.25.44.59.66,1.02.66s.77-.22,1.02-.66c.25-.44.38-1.12.38-2.05s-.13-1.61-.38-2.05c-.25-.44-.59-.66-1.02-.66s-.77.22-1.02.66ZM110.89.63c.13.13.19.27.19.44s-.06.32-.19.44c-.13.12-.27.18-.44.18s-.32-.06-.44-.18c-.12-.12-.18-.27-.18-.44s.06-.31.18-.44c.12-.13.27-.19.44-.19s.31.06.44.19Z"/>
    <path class="cls-2" d="M117.63,3.16c.14.14.23.32.29.54.06.22.09.51.09.87v2.88c0,.29.06.5.18.61.12.11.33.17.64.17v.23c-.66-.03-1.09-.04-1.29-.04s-.6.01-1.21.04v-.23c.27,0,.45-.06.56-.17.1-.11.16-.31.16-.61v-3.12c0-.4-.06-.71-.17-.92-.12-.21-.35-.32-.7-.32-.29,0-.56.09-.79.26-.23.17-.41.41-.53.71-.13.3-.19.63-.19,1v2.39c0,.29.05.5.16.61.1.11.29.17.56.17v.23c-.6-.03-1.01-.04-1.21-.04s-.63.01-1.29.04v-.23c.3,0,.51-.06.64-.17.12-.11.18-.31.18-.61v-3.37c0-.33-.06-.57-.18-.72-.12-.15-.33-.23-.64-.23v-.23c.23.02.45.03.67.03.45,0,.83-.05,1.12-.15v1.27c.18-.46.43-.79.75-1,.32-.2.68-.31,1.08-.31.5,0,.88.14,1.14.41Z"/>
    <path class="cls-2" d="M124.39,3.16c.14.14.23.32.29.54.06.22.09.51.09.87v2.88c0,.29.06.5.18.61.12.11.33.17.64.17v.23c-.66-.03-1.09-.04-1.29-.04s-.6.01-1.21.04v-.23c.27,0,.45-.06.56-.17.1-.11.16-.31.16-.61v-3.12c0-.4-.06-.71-.17-.92-.12-.21-.35-.32-.7-.32-.29,0-.56.09-.79.26-.23.17-.41.41-.53.71-.13.3-.19.63-.19,1v2.39c0,.29.05.5.16.61.1.11.29.17.56.17v.23c-.6-.03-1.01-.04-1.21-.04s-.63.01-1.29.04v-.23c.3,0,.51-.06.64-.17.12-.11.18-.31.18-.61v-3.37c0-.33-.06-.57-.18-.72-.12-.15-.33-.23-.64-.23v-.23c.23.02.45.03.67.03.45,0,.83-.05,1.12-.15v1.27c.18-.46.43-.79.75-1,.32-.2.68-.31,1.08-.31.5,0,.88.14,1.14.41Z"/>
    <path class="cls-2" d="M131.06,7.16c-.13.4-.37.74-.73,1.02-.36.28-.79.43-1.29.43s-.95-.12-1.33-.35-.66-.56-.86-.98c-.2-.42-.3-.91-.3-1.46,0-.63.1-1.17.3-1.63.2-.46.49-.81.85-1.06.37-.25.79-.37,1.28-.37.65,0,1.14.2,1.49.59.35.39.52.99.52,1.78h-3.37c-.02.2-.03.43-.03.69,0,.47.08.89.23,1.24.15.35.36.62.61.81.26.19.52.29.8.29.35,0,.65-.08.92-.25.27-.17.49-.44.67-.83l.22.09ZM128.09,3.45c-.24.33-.4.82-.45,1.47h2.35c.01-.56-.07-1.03-.24-1.4-.18-.37-.44-.56-.78-.56s-.63.17-.87.5Z"/>
    <path class="cls-2" d="M136.93,3.16c.14.14.23.32.29.54.06.22.09.51.09.87v2.88c0,.29.06.5.18.61.12.11.33.17.64.17v.23c-.66-.03-1.09-.04-1.29-.04s-.6.01-1.21.04v-.23c.27,0,.45-.06.56-.17.1-.11.16-.31.16-.61v-3.12c0-.4-.06-.71-.17-.92-.12-.21-.35-.32-.7-.32-.29,0-.56.09-.79.26-.23.17-.41.41-.53.71-.13.3-.19.63-.19,1v2.39c0,.29.05.5.16.61.1.11.29.17.56.17v.23c-.6-.03-1.01-.04-1.21-.04s-.63.01-1.29.04v-.23c.3,0,.51-.06.64-.17.12-.11.18-.31.18-.61v-3.37c0-.33-.06-.57-.18-.72-.12-.15-.33-.23-.64-.23v-.23c.23.02.45.03.67.03.45,0,.83-.05,1.12-.15v1.27c.18-.46.43-.79.75-1,.32-.2.68-.31,1.08-.31.5,0,.88.14,1.14.41Z"/>
    <path class="cls-2" d="M146.69,3.16c.14.14.23.32.29.54.06.22.09.51.09.87v2.88c0,.29.06.5.18.61.12.11.33.17.64.17v.23c-.66-.03-1.09-.04-1.29-.04s-.6.01-1.21.04v-.23c.27,0,.45-.06.56-.17.1-.11.16-.31.16-.61v-3.12c0-.4-.06-.71-.17-.92-.12-.21-.35-.32-.7-.32-.29,0-.56.09-.79.26-.23.17-.41.41-.53.71-.13.3-.19.63-.19,1v2.39c0,.29.05.5.16.61.1.11.29.17.56.17v.23c-.6-.03-1.01-.04-1.21-.04s-.63.01-1.29.04v-.23c.3,0,.51-.06.64-.17.12-.11.18-.31.18-.61v-3.37c0-.33-.06-.57-.18-.72-.12-.15-.33-.23-.64-.23v-.23c.23.02.45.03.67.03.45,0,.83-.05,1.12-.15v1.27c.18-.46.43-.79.75-1,.32-.2.68-.31,1.08-.31.5,0,.88.14,1.14.41Z"/>
    <path class="cls-2" d="M150.48,7.45c0,.29.06.5.18.61.12.11.33.17.64.17v.23c-.66-.03-1.1-.04-1.3-.04s-.64.01-1.3.04v-.23c.3,0,.51-.06.64-.17.12-.11.18-.31.18-.61v-3.37c0-.33-.06-.57-.18-.72-.12-.15-.33-.23-.64-.23v-.23c.23.02.45.03.67.03.45,0,.83-.05,1.12-.15v4.67ZM150.4.41c.14.14.2.3.2.49s-.07.35-.2.49-.3.2-.49.2-.35-.07-.49-.2c-.14-.14-.2-.3-.2-.49s.07-.35.2-.49c.14-.14.3-.2.49-.2s.35.07.49.2Z"/>
    <path class="cls-2" d="M156.12,3.09c.34.22.51.5.51.83,0,.19-.05.33-.16.44s-.24.16-.41.16-.31-.05-.42-.15c-.11-.1-.17-.23-.17-.39,0-.15.04-.28.13-.38s.19-.17.32-.21c-.07-.13-.2-.24-.38-.32s-.38-.13-.59-.13c-.27,0-.51.08-.74.25-.23.17-.42.45-.57.84-.15.39-.23.91-.23,1.55,0,.89.14,1.54.43,1.95s.66.61,1.12.61c.31,0,.6-.09.88-.27.28-.18.51-.46.68-.84l.2.08c-.12.41-.35.76-.68,1.06-.33.29-.77.44-1.3.44-.45,0-.85-.12-1.21-.35-.36-.23-.65-.56-.86-1-.21-.43-.31-.94-.31-1.51s.11-1.1.32-1.55c.21-.45.51-.81.89-1.06.38-.26.82-.38,1.3-.38s.9.12,1.25.35Z"/>
    <path class="cls-2" d="M159.43,4.04c.18-.45.43-.78.75-.99.32-.2.68-.31,1.08-.31.5,0,.88.14,1.14.41.14.14.23.32.29.54s.09.51.09.87v2.88c0,.29.06.5.18.61.12.11.33.17.64.17v.23c-.66-.03-1.09-.04-1.29-.04s-.6.01-1.21.04v-.23c.27,0,.45-.06.56-.17.1-.11.16-.31.16-.61v-3.12c0-.4-.06-.71-.17-.92-.12-.21-.35-.32-.7-.32-.29,0-.56.08-.78.25-.23.17-.4.4-.53.7-.13.3-.19.63-.19,1.01v2.4c0,.29.05.5.16.61.1.11.29.17.56.17v.23c-.6-.03-1.01-.04-1.21-.04s-.63.01-1.29.04v-.23c.3,0,.51-.06.64-.17.12-.11.18-.31.18-.61V1.3c0-.33-.06-.57-.18-.72-.12-.15-.33-.23-.64-.23v-.23c.23.02.45.03.67.03.45,0,.83-.05,1.12-.15v4.03Z"/>
    <path class="cls-2" d="M166.13,2.91h1.6v.22h-1.6v4.17c0,.32.06.56.18.7.12.14.29.22.51.22s.41-.09.57-.27c.16-.18.29-.47.4-.88l.22.05c-.18.99-.65,1.49-1.4,1.49-.24,0-.45-.03-.6-.09s-.3-.15-.42-.27c-.16-.16-.27-.35-.33-.58-.06-.23-.09-.54-.09-.93v-3.61h-1.04v-.22h1.04v-1.65c.4-.01.73-.06.97-.15v1.8Z"/>
    <path class="cls-2" d="M176.05,3.5c.38.5.57,1.23.57,2.18,0,.63-.11,1.16-.32,1.6-.22.44-.51.77-.87.99-.36.22-.77.33-1.21.33-.27,0-.52-.05-.77-.16s-.47-.26-.65-.46l-.77.65-.18-.08c.05-.18.08-.39.08-.63V1.3c0-.33-.06-.57-.18-.72-.12-.15-.33-.23-.64-.23v-.23c.23.02.45.03.67.03.45,0,.83-.05,1.12-.15v3.89c.16-.37.39-.65.68-.85.3-.2.63-.3,1-.3.61,0,1.11.25,1.48.75ZM175.21,7.7c.24-.43.36-1.11.36-2.02s-.11-1.53-.32-1.96c-.22-.43-.55-.65-.99-.65-.3,0-.58.12-.83.35-.25.23-.43.56-.54.99v3.42c.17.17.36.3.57.39.22.09.44.13.67.13.48,0,.84-.22,1.08-.65Z"/>
    <path class="cls-2" d="M182.44,7.16c-.13.4-.37.74-.73,1.02-.36.28-.79.43-1.29.43s-.95-.12-1.33-.35-.66-.56-.86-.98c-.2-.42-.3-.91-.3-1.46,0-.63.1-1.17.3-1.63.2-.46.49-.81.85-1.06.37-.25.79-.37,1.28-.37.65,0,1.14.2,1.49.59.35.39.52.99.52,1.78h-3.37c-.02.2-.03.43-.03.69,0,.47.08.89.23,1.24.15.35.36.62.61.81.26.19.52.29.8.29.35,0,.65-.08.92-.25.27-.17.49-.44.67-.83l.22.09ZM179.46,3.45c-.24.33-.4.82-.45,1.47h2.35c.01-.56-.07-1.03-.24-1.4-.18-.37-.44-.56-.78-.56s-.63.17-.87.5Z"/>
    <path class="cls-2" d="M188.22,7.16c-.13.4-.37.74-.73,1.02-.36.28-.79.43-1.29.43s-.95-.12-1.33-.35-.66-.56-.86-.98c-.2-.42-.3-.91-.3-1.46,0-.63.1-1.17.3-1.63.2-.46.49-.81.85-1.06.37-.25.79-.37,1.28-.37.65,0,1.14.2,1.49.59.35.39.52.99.52,1.78h-3.37c-.02.2-.03.43-.03.69,0,.47.08.89.23,1.24.15.35.36.62.61.81.26.19.52.29.8.29.35,0,.65-.08.92-.25.27-.17.49-.44.67-.83l.22.09ZM185.24,3.45c-.24.33-.4.82-.45,1.47h2.35c.01-.56-.07-1.03-.24-1.4-.18-.37-.44-.56-.78-.56s-.63.17-.87.5Z"/>
    <path class="cls-2" d="M191.11,7.45c0,.29.06.5.18.61.12.11.33.17.64.17v.23c-.66-.03-1.1-.04-1.3-.04s-.64.01-1.3.04v-.23c.3,0,.51-.06.64-.17.12-.11.18-.31.18-.61v-3.37c0-.33-.06-.57-.18-.72-.12-.15-.33-.23-.64-.23v-.23c.23.02.45.03.67.03.45,0,.83-.05,1.12-.15v4.67ZM191.03.41c.14.14.2.3.2.49s-.07.35-.2.49-.3.2-.49.2-.35-.07-.49-.2c-.14-.14-.2-.3-.2-.49s.07-.35.2-.49c.14-.14.3-.2.49-.2s.35.07.49.2Z"/>
    <path class="cls-2" d="M197.56,3.16c.14.14.23.32.29.54.06.22.09.51.09.87v2.88c0,.29.06.5.18.61.12.11.33.17.64.17v.23c-.66-.03-1.09-.04-1.29-.04s-.6.01-1.21.04v-.23c.27,0,.45-.06.56-.17.1-.11.16-.31.16-.61v-3.12c0-.4-.06-.71-.17-.92-.12-.21-.35-.32-.7-.32-.29,0-.56.09-.79.26-.23.17-.41.41-.53.71-.13.3-.19.63-.19,1v2.39c0,.29.05.5.16.61.1.11.29.17.56.17v.23c-.6-.03-1.01-.04-1.21-.04s-.63.01-1.29.04v-.23c.3,0,.51-.06.64-.17.12-.11.18-.31.18-.61v-3.37c0-.33-.06-.57-.18-.72-.12-.15-.33-.23-.64-.23v-.23c.23.02.45.03.67.03.45,0,.83-.05,1.12-.15v1.27c.18-.46.43-.79.75-1,.32-.2.68-.31,1.08-.31.5,0,.88.14,1.14.41Z"/>
    <path class="cls-2" d="M204.89,7.45c0,.29.06.5.18.61.12.11.33.17.64.17v.23c-.66-.03-1.1-.04-1.3-.04s-.64.01-1.3.04v-.23c.3,0,.51-.06.64-.17.12-.11.18-.31.18-.61V1.44c0-.22-.02-.4-.07-.54-.05-.14-.12-.26-.22-.36-.13-.13-.29-.22-.48-.28s-.38-.09-.56-.09c-.36,0-.64.11-.85.33-.15.15-.25.34-.3.56s-.08.5-.08.82v1.01h1.37v.22h-1.37v4.32c0,.29.08.5.23.61.15.11.39.17.7.17v.23h-.24c-.63-.03-1.02-.04-1.18-.04-.21,0-.64.01-1.3.04v-.23c.3,0,.51-.06.64-.17.12-.11.18-.31.18-.61V3.13h-.86v-.22h.86c0-.61.04-1.1.13-1.47.09-.37.28-.68.56-.92.19-.17.42-.29.67-.37.25-.08.51-.12.79-.12.13,0,.34.02.63.06.3.04.55.06.75.06.35,0,.68-.05.97-.15v7.45Z"/>
    <path class="cls-2" d="M211.47,7.29c0,.33.06.57.18.72.12.15.33.23.64.23v.23c-.22-.02-.45-.03-.67-.03-.45,0-.83.05-1.12.15v-1.27c-.17.45-.42.77-.73.98s-.66.31-1.03.31c-.49,0-.86-.14-1.12-.41-.13-.14-.22-.33-.27-.55-.05-.22-.08-.51-.08-.86v-2.71c0-.33-.06-.57-.18-.72-.12-.15-.33-.23-.64-.23v-.23c.22.02.45.03.67.03.45,0,.83-.05,1.12-.15v4.24c0,.27.02.49.05.66.03.17.11.31.23.42.12.11.3.16.54.16.27,0,.52-.09.74-.26.22-.17.4-.41.52-.71.13-.3.19-.63.19-.99v-2.23c0-.33-.06-.57-.18-.72-.12-.15-.33-.23-.64-.23v-.23c.22.02.45.03.67.03.45,0,.83-.05,1.12-.15v4.51Z"/>
    <path class="cls-2" d="M215.79,2.87c.2.08.36.17.49.28.08.06.14.09.19.09.13,0,.21-.16.24-.47h.25c-.03.35-.04.96-.04,1.83h-.25c-.08-.47-.23-.87-.46-1.18-.23-.31-.56-.46-1.01-.46-.26,0-.47.07-.64.22-.17.15-.25.35-.25.61s.09.46.26.63c.17.17.45.37.83.61.06.04.16.1.29.18.33.22.6.41.8.57.2.17.36.36.49.57.13.22.19.46.19.74,0,.47-.18.84-.53,1.11-.36.27-.79.4-1.31.4-.32,0-.61-.05-.85-.15-.16-.08-.31-.18-.44-.29-.03-.03-.06-.04-.1-.04-.05,0-.1.04-.13.11-.04.07-.07.17-.09.3h-.25c.03-.41.04-1.13.04-2.16h.25c.08.68.22,1.18.43,1.51.21.33.56.5,1.07.5.25,0,.47-.08.67-.25s.29-.42.29-.78c0-.28-.1-.52-.29-.71-.19-.19-.5-.43-.93-.7-.35-.22-.62-.41-.81-.55-.19-.14-.35-.32-.48-.53-.13-.21-.19-.45-.19-.73,0-.45.15-.8.45-1.04s.68-.36,1.14-.36c.26,0,.49.04.69.12Z"/>
    <path class="cls-2" d="M220.93,2.87c.2.08.36.17.49.28.08.06.14.09.19.09.13,0,.21-.16.24-.47h.25c-.03.35-.04.96-.04,1.83h-.25c-.08-.47-.23-.87-.46-1.18-.23-.31-.56-.46-1.01-.46-.26,0-.47.07-.64.22-.17.15-.25.35-.25.61s.09.46.26.63c.17.17.45.37.83.61.06.04.16.1.29.18.33.22.6.41.8.57.2.17.36.36.49.57.13.22.19.46.19.74,0,.47-.18.84-.53,1.11-.36.27-.79.4-1.31.4-.32,0-.61-.05-.85-.15-.16-.08-.31-.18-.44-.29-.03-.03-.06-.04-.1-.04-.05,0-.1.04-.13.11-.04.07-.07.17-.09.3h-.25c.03-.41.04-1.13.04-2.16h.25c.08.68.22,1.18.43,1.51.21.33.56.5,1.07.5.25,0,.47-.08.67-.25s.29-.42.29-.78c0-.28-.1-.52-.29-.71-.19-.19-.5-.43-.93-.7-.35-.22-.62-.41-.81-.55-.19-.14-.35-.32-.48-.53-.13-.21-.19-.45-.19-.73,0-.45.15-.8.45-1.04s.68-.36,1.14-.36c.26,0,.49.04.69.12Z"/>
    <path class="cls-2" d="M228.13,7.16c-.13.4-.37.74-.73,1.02-.36.28-.79.43-1.29.43s-.95-.12-1.33-.35-.66-.56-.86-.98c-.2-.42-.3-.91-.3-1.46,0-.63.1-1.17.3-1.63.2-.46.49-.81.85-1.06.37-.25.79-.37,1.28-.37.65,0,1.14.2,1.49.59.35.39.52.99.52,1.78h-3.37c-.02.2-.03.43-.03.69,0,.47.08.89.23,1.24.15.35.36.62.61.81.26.19.52.29.8.29.35,0,.65-.08.92-.25.27-.17.49-.44.67-.83l.22.09ZM225.16,3.45c-.24.33-.4.82-.45,1.47h2.35c.01-.56-.07-1.03-.24-1.4-.18-.37-.44-.56-.78-.56s-.63.17-.87.5Z"/>
    <path class="cls-2" d="M234,3.16c.14.14.23.32.29.54.06.22.09.51.09.87v2.88c0,.29.06.5.18.61.12.11.33.17.64.17v.23c-.66-.03-1.09-.04-1.29-.04s-.6.01-1.21.04v-.23c.27,0,.45-.06.56-.17.1-.11.16-.31.16-.61v-3.12c0-.4-.06-.71-.17-.92-.12-.21-.35-.32-.7-.32-.29,0-.56.09-.79.26-.23.17-.41.41-.53.71-.13.3-.19.63-.19,1v2.39c0,.29.05.5.16.61.1.11.29.17.56.17v.23c-.6-.03-1.01-.04-1.21-.04s-.63.01-1.29.04v-.23c.3,0,.51-.06.64-.17.12-.11.18-.31.18-.61v-3.37c0-.33-.06-.57-.18-.72-.12-.15-.33-.23-.64-.23v-.23c.23.02.45.03.67.03.45,0,.83-.05,1.12-.15v1.27c.18-.46.43-.79.75-1,.32-.2.68-.31,1.08-.31.5,0,.88.14,1.14.41Z"/>
    <path class="cls-2" d="M237.67,7.57c.12.19.18.43.18.71,0,.36-.09.68-.28.97-.18.29-.46.52-.84.69l-.1-.19c.22-.09.41-.24.58-.44.16-.2.24-.41.24-.61,0-.09-.01-.16-.03-.23-.11.09-.25.14-.4.14-.19,0-.36-.06-.49-.19s-.2-.29-.2-.5c0-.19.07-.36.2-.49.13-.13.3-.2.49-.2.28,0,.49.12.64.35Z"/>
    <path class="cls-2" d="M36.38,17.12v.22c-.15.02-.28.09-.4.2-.12.11-.22.3-.3.56l-1.56,4.64h-.18l-1.7-4.33-1.54,4.33h-.18l-1.77-4.78c-.1-.25-.2-.42-.31-.49-.1-.08-.21-.11-.32-.11v-.23c.28.04.6.06.95.06s.83-.02,1.4-.06v.23c-.27,0-.46.02-.58.06s-.18.15-.18.33c0,.13.04.3.11.51l1.08,3.11,1.55-4.28h.25l1.65,4.36,1.01-3.08c.06-.19.1-.36.1-.49,0-.17-.06-.3-.18-.38-.12-.08-.33-.13-.61-.15v-.22c.38.02.68.03.91.03.32,0,.59-.01.82-.03Z"/>
    <path class="cls-2" d="M37.42,22.41c-.22-.23-.33-.54-.33-.94,0-.32.09-.59.26-.8.18-.21.38-.37.63-.5.24-.12.56-.25.95-.39.4-.14.7-.26.89-.38.19-.11.29-.27.29-.46v-.67c0-.42-.09-.7-.26-.86-.18-.15-.42-.23-.74-.23-.5,0-.86.13-1.07.39.14.04.26.11.36.23.1.12.15.26.15.43s-.06.32-.17.43c-.12.1-.26.16-.44.16-.2,0-.35-.06-.45-.19-.1-.13-.15-.28-.15-.46s.04-.32.12-.43c.08-.11.21-.23.37-.35.17-.12.39-.22.66-.3.27-.08.56-.12.87-.12.56,0,.98.13,1.27.4.18.17.3.37.36.6.06.23.09.54.09.92v3c0,.18.03.31.08.39.05.08.14.12.26.12.09,0,.17-.02.24-.06.08-.04.16-.1.24-.17l.12.18c-.19.14-.35.25-.48.31-.13.06-.3.09-.5.09-.35,0-.59-.09-.72-.26-.14-.17-.2-.41-.2-.7-.22.36-.46.61-.74.75-.28.14-.6.21-.95.21-.45,0-.79-.11-1.01-.34ZM40.13,21.5v-2.11c-.06.1-.15.18-.27.25-.12.06-.29.15-.53.26-.27.12-.49.22-.66.33-.17.1-.31.25-.44.43-.12.18-.18.41-.18.69,0,.32.08.57.24.73.16.17.37.25.63.25.47,0,.88-.27,1.22-.82Z"/>
    <path class="cls-2" d="M45.3,17.09c.2.08.36.17.49.28.08.06.14.09.19.09.13,0,.21-.16.24-.47h.25c-.03.35-.04.96-.04,1.83h-.25c-.08-.47-.23-.87-.46-1.18-.23-.31-.56-.46-1.01-.46-.26,0-.47.07-.64.22-.17.15-.25.35-.25.61s.09.46.26.63c.17.17.45.37.83.61.06.04.16.1.29.18.33.22.6.41.8.57.2.17.36.36.49.57.13.22.19.46.19.74,0,.47-.18.84-.53,1.11-.36.27-.79.4-1.31.4-.32,0-.61-.05-.85-.15-.16-.08-.31-.18-.44-.29-.03-.03-.06-.04-.1-.04-.05,0-.1.04-.13.11-.04.07-.07.17-.09.3h-.25c.03-.41.04-1.13.04-2.16h.25c.08.68.22,1.18.43,1.51.21.33.56.5,1.07.5.25,0,.47-.08.67-.25s.29-.42.29-.78c0-.28-.1-.52-.29-.71-.19-.19-.5-.43-.93-.7-.35-.22-.62-.41-.81-.55-.19-.14-.35-.32-.48-.53-.13-.21-.19-.45-.19-.73,0-.45.15-.8.45-1.04s.68-.36,1.14-.36c.26,0,.49.04.69.12Z"/>
    <path class="cls-2" d="M55.73,21.51c0,.33.06.57.18.72.12.15.33.23.64.23v.23c-.22-.02-.45-.03-.67-.03-.45,0-.83.05-1.12.15v-1.27c-.17.45-.42.77-.73.98s-.66.31-1.03.31c-.49,0-.86-.14-1.12-.41-.13-.14-.22-.33-.27-.55-.05-.22-.08-.51-.08-.86v-2.71c0-.33-.06-.57-.18-.72-.12-.15-.33-.23-.64-.23v-.23c.22.02.45.03.67.03.45,0,.83-.05,1.12-.15v4.24c0,.27.02.49.05.66.03.17.11.31.23.42.12.11.3.16.54.16.27,0,.52-.09.74-.26.22-.17.4-.41.52-.71.13-.3.19-.63.19-.99v-2.23c0-.33-.06-.57-.18-.72-.12-.15-.33-.23-.64-.23v-.23c.22.02.45.03.67.03.45,0,.83-.05,1.12-.15v4.51Z"/>
    <path class="cls-2" d="M62.19,17.38c.14.14.23.32.29.54.06.22.09.51.09.87v2.88c0,.29.06.5.18.61.12.11.33.17.64.17v.23c-.66-.03-1.09-.04-1.29-.04s-.6.01-1.21.04v-.23c.27,0,.45-.06.56-.17.1-.11.16-.31.16-.61v-3.12c0-.4-.06-.71-.17-.92-.12-.21-.35-.32-.7-.32-.29,0-.56.09-.79.26-.23.17-.41.41-.53.71-.13.3-.19.63-.19,1v2.39c0,.29.05.5.16.61.1.11.29.17.56.17v.23c-.6-.03-1.01-.04-1.21-.04s-.63.01-1.29.04v-.23c.3,0,.51-.06.64-.17.12-.11.18-.31.18-.61v-3.37c0-.33-.06-.57-.18-.72-.12-.15-.33-.23-.64-.23v-.23c.23.02.45.03.67.03.45,0,.83-.05,1.12-.15v1.27c.18-.46.43-.79.75-1,.32-.2.68-.31,1.08-.31.5,0,.88.14,1.14.41Z"/>
    <path class="cls-2" d="M66.8,17.09c.2.08.36.17.49.28.08.06.14.09.19.09.13,0,.21-.16.24-.47h.25c-.03.35-.04.96-.04,1.83h-.25c-.08-.47-.23-.87-.46-1.18-.23-.31-.56-.46-1.01-.46-.26,0-.47.07-.64.22-.17.15-.25.35-.25.61s.09.46.26.63c.17.17.45.37.83.61.06.04.16.1.29.18.33.22.6.41.8.57.2.17.36.36.49.57.13.22.19.46.19.74,0,.47-.18.84-.53,1.11-.36.27-.79.4-1.31.4-.32,0-.61-.05-.85-.15-.16-.08-.31-.18-.44-.29-.03-.03-.06-.04-.1-.04-.05,0-.1.04-.13.11-.04.07-.07.17-.09.3h-.25c.03-.41.04-1.13.04-2.16h.25c.08.68.22,1.18.43,1.51.21.33.56.5,1.07.5.25,0,.47-.08.67-.25s.29-.42.29-.78c0-.28-.1-.52-.29-.71-.19-.19-.5-.43-.93-.7-.35-.22-.62-.41-.81-.55-.19-.14-.35-.32-.48-.53-.13-.21-.19-.45-.19-.73,0-.45.15-.8.45-1.04s.68-.36,1.14-.36c.26,0,.49.04.69.12Z"/>
    <path class="cls-2" d="M77.02,17.72c.38.5.57,1.23.57,2.18,0,.63-.11,1.16-.32,1.6-.22.44-.51.77-.87.99-.36.22-.77.33-1.21.33-.27,0-.52-.05-.77-.16s-.47-.26-.65-.46l-.77.65-.18-.08c.05-.18.08-.39.08-.63v-6.62c0-.33-.06-.57-.18-.72-.12-.15-.33-.23-.64-.23v-.23c.23.02.45.03.67.03.45,0,.83-.05,1.12-.15v3.89c.16-.37.39-.65.68-.85.3-.2.63-.3,1-.3.61,0,1.11.25,1.48.75ZM76.17,21.92c.24-.43.36-1.11.36-2.02s-.11-1.53-.32-1.96c-.22-.43-.55-.65-.99-.65-.3,0-.58.12-.83.35-.25.23-.43.56-.54.99v3.42c.17.17.36.3.57.39.22.09.44.13.67.13.48,0,.84-.22,1.08-.65Z"/>
    <path class="cls-2" d="M83.4,21.38c-.13.4-.37.74-.73,1.02-.36.28-.79.43-1.29.43s-.95-.12-1.33-.35-.66-.56-.86-.98c-.2-.42-.3-.91-.3-1.46,0-.63.1-1.17.3-1.63.2-.46.49-.81.85-1.06.37-.25.79-.37,1.28-.37.65,0,1.14.2,1.49.59.35.39.52.99.52,1.78h-3.37c-.02.2-.03.43-.03.69,0,.47.08.89.23,1.24.15.35.36.62.61.81.26.19.52.29.8.29.35,0,.65-.08.92-.25.27-.17.49-.44.67-.83l.22.09ZM80.43,17.67c-.24.33-.4.82-.45,1.47h2.35c.01-.56-.07-1.03-.24-1.4-.18-.37-.44-.56-.78-.56s-.63.17-.87.5Z"/>
    <path class="cls-2" d="M89.18,21.38c-.13.4-.37.74-.73,1.02-.36.28-.79.43-1.29.43s-.95-.12-1.33-.35-.66-.56-.86-.98c-.2-.42-.3-.91-.3-1.46,0-.63.1-1.17.3-1.63.2-.46.49-.81.85-1.06.37-.25.79-.37,1.28-.37.65,0,1.14.2,1.49.59.35.39.52.99.52,1.78h-3.37c-.02.2-.03.43-.03.69,0,.47.08.89.23,1.24.15.35.36.62.61.81.26.19.52.29.8.29.35,0,.65-.08.92-.25.27-.17.49-.44.67-.83l.22.09ZM86.21,17.67c-.24.33-.4.82-.45,1.47h2.35c.01-.56-.07-1.03-.24-1.4-.18-.37-.44-.56-.78-.56s-.63.17-.87.5Z"/>
    <path class="cls-2" d="M92.07,21.67c0,.29.06.5.18.61.12.11.33.17.64.17v.23c-.66-.03-1.1-.04-1.3-.04s-.64.01-1.3.04v-.23c.3,0,.51-.06.64-.17.12-.11.18-.31.18-.61v-3.37c0-.33-.06-.57-.18-.72-.12-.15-.33-.23-.64-.23v-.23c.23.02.45.03.67.03.45,0,.83-.05,1.12-.15v4.67ZM92,14.63c.14.14.2.3.2.49s-.07.35-.2.49-.3.2-.49.2-.35-.07-.49-.2c-.14-.14-.2-.3-.2-.49s.07-.35.2-.49c.14-.14.3-.2.49-.2s.35.07.49.2Z"/>
    <path class="cls-2" d="M98.53,17.38c.14.14.23.32.29.54.06.22.09.51.09.87v2.88c0,.29.06.5.18.61.12.11.33.17.64.17v.23c-.66-.03-1.09-.04-1.29-.04s-.6.01-1.21.04v-.23c.27,0,.45-.06.56-.17.1-.11.16-.31.16-.61v-3.12c0-.4-.06-.71-.17-.92-.12-.21-.35-.32-.7-.32-.29,0-.56.09-.79.26-.23.17-.41.41-.53.71-.13.3-.19.63-.19,1v2.39c0,.29.05.5.16.61.1.11.29.17.56.17v.23c-.6-.03-1.01-.04-1.21-.04s-.63.01-1.29.04v-.23c.3,0,.51-.06.64-.17.12-.11.18-.31.18-.61v-3.37c0-.33-.06-.57-.18-.72-.12-.15-.33-.23-.64-.23v-.23c.23.02.45.03.67.03.45,0,.83-.05,1.12-.15v1.27c.18-.46.43-.79.75-1,.32-.2.68-.31,1.08-.31.5,0,.88.14,1.14.41Z"/>
    <path class="cls-2" d="M105.85,21.67c0,.29.06.5.18.61.12.11.33.17.64.17v.23c-.66-.03-1.1-.04-1.3-.04s-.64.01-1.3.04v-.23c.3,0,.51-.06.64-.17.12-.11.18-.31.18-.61v-6.01c0-.22-.02-.4-.07-.54-.05-.14-.12-.26-.22-.36-.13-.13-.29-.22-.48-.28s-.38-.09-.56-.09c-.36,0-.64.11-.85.33-.15.15-.25.34-.3.56s-.08.5-.08.82v1.01h1.37v.22h-1.37v4.32c0,.29.08.5.23.61.15.11.39.17.7.17v.23h-.24c-.63-.03-1.02-.04-1.18-.04-.21,0-.64.01-1.3.04v-.23c.3,0,.51-.06.64-.17.12-.11.18-.31.18-.61v-4.32h-.86v-.22h.86c0-.61.04-1.1.13-1.47.09-.37.28-.68.56-.92.19-.17.42-.29.67-.37.25-.08.51-.12.79-.12.13,0,.34.02.63.06.3.04.55.06.75.06.35,0,.68-.05.97-.15v7.45Z"/>
    <path class="cls-2" d="M112.44,21.51c0,.33.06.57.18.72.12.15.33.23.64.23v.23c-.22-.02-.45-.03-.67-.03-.45,0-.83.05-1.12.15v-1.27c-.17.45-.42.77-.73.98s-.66.31-1.03.31c-.49,0-.86-.14-1.12-.41-.13-.14-.22-.33-.27-.55-.05-.22-.08-.51-.08-.86v-2.71c0-.33-.06-.57-.18-.72-.12-.15-.33-.23-.64-.23v-.23c.22.02.45.03.67.03.45,0,.83-.05,1.12-.15v4.24c0,.27.02.49.05.66.03.17.11.31.23.42.12.11.3.16.54.16.27,0,.52-.09.74-.26.22-.17.4-.41.52-.71.13-.3.19-.63.19-.99v-2.23c0-.33-.06-.57-.18-.72-.12-.15-.33-.23-.64-.23v-.23c.22.02.45.03.67.03.45,0,.83-.05,1.12-.15v4.51Z"/>
    <path class="cls-2" d="M116.75,17.09c.2.08.36.17.49.28.08.06.14.09.19.09.13,0,.21-.16.24-.47h.25c-.03.35-.04.96-.04,1.83h-.25c-.08-.47-.23-.87-.46-1.18-.23-.31-.56-.46-1.01-.46-.26,0-.47.07-.64.22-.17.15-.25.35-.25.61s.09.46.26.63c.17.17.45.37.83.61.06.04.16.1.29.18.33.22.6.41.8.57.2.17.36.36.49.57.13.22.19.46.19.74,0,.47-.18.84-.53,1.11-.36.27-.79.4-1.31.4-.32,0-.61-.05-.85-.15-.16-.08-.31-.18-.44-.29-.03-.03-.06-.04-.1-.04-.05,0-.1.04-.13.11-.04.07-.07.17-.09.3h-.25c.03-.41.04-1.13.04-2.16h.25c.08.68.22,1.18.43,1.51.21.33.56.5,1.07.5.25,0,.47-.08.67-.25s.29-.42.29-.78c0-.28-.1-.52-.29-.71-.19-.19-.5-.43-.93-.7-.35-.22-.62-.41-.81-.55-.19-.14-.35-.32-.48-.53-.13-.21-.19-.45-.19-.73,0-.45.15-.8.45-1.04s.68-.36,1.14-.36c.26,0,.49.04.69.12Z"/>
    <path class="cls-2" d="M121.9,17.09c.2.08.36.17.49.28.08.06.14.09.19.09.13,0,.21-.16.24-.47h.25c-.03.35-.04.96-.04,1.83h-.25c-.08-.47-.23-.87-.46-1.18-.23-.31-.56-.46-1.01-.46-.26,0-.47.07-.64.22-.17.15-.25.35-.25.61s.09.46.26.63c.17.17.45.37.83.61.06.04.16.1.29.18.33.22.6.41.8.57.2.17.36.36.49.57.13.22.19.46.19.74,0,.47-.18.84-.53,1.11-.36.27-.79.4-1.31.4-.32,0-.61-.05-.85-.15-.16-.08-.31-.18-.44-.29-.03-.03-.06-.04-.1-.04-.05,0-.1.04-.13.11-.04.07-.07.17-.09.3h-.25c.03-.41.04-1.13.04-2.16h.25c.08.68.22,1.18.43,1.51.21.33.56.5,1.07.5.25,0,.47-.08.67-.25s.29-.42.29-.78c0-.28-.1-.52-.29-.71-.19-.19-.5-.43-.93-.7-.35-.22-.62-.41-.81-.55-.19-.14-.35-.32-.48-.53-.13-.21-.19-.45-.19-.73,0-.45.15-.8.45-1.04s.68-.36,1.14-.36c.26,0,.49.04.69.12Z"/>
    <path class="cls-2" d="M126.15,17.13h1.6v.22h-1.6v4.17c0,.32.06.56.18.7.12.14.29.22.51.22s.41-.09.57-.27c.16-.18.29-.47.4-.88l.22.05c-.18.99-.65,1.49-1.4,1.49-.24,0-.45-.03-.6-.09s-.3-.15-.42-.27c-.16-.16-.27-.35-.33-.58-.06-.23-.09-.54-.09-.93v-3.61h-1.04v-.22h1.04v-1.65c.4-.01.73-.06.97-.15v1.8Z"/>
    <path class="cls-2" d="M130.09,21.65c.14.14.2.3.2.49s-.07.35-.2.49c-.14.14-.3.2-.49.2s-.35-.07-.49-.2c-.14-.14-.2-.3-.2-.49s.07-.35.2-.49c.14-.14.3-.2.49-.2s.35.07.49.2Z"/>
  </g>
  <path class="cls-3" d="M8.75,13.59c.81,1.28,1.21,2.85,1.21,4.69,0,2.37-.6,4.5-1.81,6.4-1.21,1.9-3.05,3.41-5.51,4.55l-.64-1.28c1.47-.62,2.74-1.59,3.81-2.92,1.07-1.33,1.6-2.68,1.6-4.05,0-.57-.07-1.07-.21-1.49-.76.62-1.64.92-2.63.92-1.28,0-2.36-.42-3.24-1.24-.88-.83-1.32-1.93-1.32-3.31,0-1.28.44-2.36,1.32-3.24.88-.88,1.96-1.32,3.24-1.32,1.85,0,3.25.76,4.2,2.28ZM20.84,13.59c.81,1.28,1.21,2.85,1.21,4.69,0,2.37-.6,4.5-1.81,6.4-1.21,1.9-3.05,3.41-5.51,4.55l-.64-1.28c1.47-.62,2.74-1.59,3.81-2.92,1.07-1.33,1.6-2.68,1.6-4.05,0-.57-.07-1.07-.21-1.49-.76.62-1.64.92-2.63.92-1.28,0-2.36-.42-3.24-1.24-.88-.83-1.32-1.93-1.32-3.31,0-1.28.44-2.36,1.32-3.24.88-.88,1.96-1.32,3.24-1.32,1.85,0,3.25.76,4.2,2.28Z"/>
</svg>