<?xml version="1.0" encoding="UTF-8"?>
<svg id="Ebene_1" xmlns="http://www.w3.org/2000/svg" version="1.1" viewBox="0 0 200 200">
  <!-- Generator: Adobe Illustrator 30.0.0, SVG Export Plug-In . SVG Version: 2.1.1 Build 123)  -->
  <defs>
    <style>
      .st0 {
        fill: #729bd1;
      }

      .st1 {
        fill: #1c2761;
      }
    </style>
  </defs>
  <g>
    <path class="st1" d="M111.55,28.11c-.35,0-.63-.28-.63-.63v-2.22c0-.35.28-.63.63-.63s.63.28.63.63v2.22c0,.35-.28.63-.63.63Z"/>
    <path class="st1" d="M111.55,35.86c-.35,0-.63-.28-.63-.63v-2.22c0-.35.28-.63.63-.63s.63.28.63.63v2.22c0,.35-.28.63-.63.63Z"/>
    <path class="st1" d="M116.54,30.98h-2.22c-.35,0-.63-.28-.63-.63s.28-.63.63-.63h2.22c.35,0,.63.28.63.63s-.28.63-.63.63Z"/>
    <path class="st1" d="M108.78,30.98h-2.22c-.35,0-.63-.28-.63-.63s.28-.63.63-.63h2.22c.35,0,.63.28.63.63s-.28.63-.63.63Z"/>
    <path class="st1" d="M115.11,34.47c-.16,0-.32-.06-.44-.18l-1.58-1.55c-.25-.24-.25-.64,0-.89.24-.25.64-.25.89,0l1.58,1.55c.25.24.25.64,0,.89-.12.12-.29.19-.45.19Z"/>
    <path class="st1" d="M109.57,29.05c-.16,0-.32-.06-.44-.18l-1.59-1.55c-.25-.24-.25-.64-.01-.88s.64-.25.88-.01l1.59,1.55c.25.24.25.64.01.88-.12.13-.28.19-.45.19Z"/>
    <path class="st1" d="M113.49,29.01c-.16,0-.32-.06-.44-.18-.25-.24-.25-.64,0-.89l1.55-1.58c.24-.25.64-.25.89,0,.25.24.25.64,0,.89l-1.55,1.58c-.12.12-.29.19-.45.19Z"/>
    <path class="st1" d="M108.06,34.55c-.16,0-.32-.06-.44-.18-.25-.24-.25-.64,0-.89l1.55-1.58c.24-.25.64-.25.89,0,.25.24.25.64,0,.89l-1.55,1.58c-.12.12-.29.19-.45.19Z"/>
  </g>
  <g>
    <path class="st0" d="M26.98,83.18c-.35,0-.63-.28-.63-.63v-2.22c0-.35.28-.63.63-.63s.63.28.63.63v2.22c0,.35-.28.63-.63.63Z"/>
    <path class="st0" d="M26.98,90.93c-.35,0-.63-.28-.63-.63v-2.22c0-.35.28-.63.63-.63s.63.28.63.63v2.22c0,.35-.28.63-.63.63Z"/>
    <path class="st0" d="M31.96,86.06h-2.22c-.35,0-.63-.28-.63-.63s.28-.63.63-.63h2.22c.35,0,.63.28.63.63s-.28.63-.63.63Z"/>
    <path class="st0" d="M24.21,86.06h-2.22c-.35,0-.63-.28-.63-.63s.28-.63.63-.63h2.22c.35,0,.63.28.63.63s-.28.63-.63.63Z"/>
    <path class="st0" d="M30.54,89.55c-.16,0-.32-.06-.44-.18l-1.58-1.55c-.25-.24-.25-.64,0-.89.24-.25.64-.25.89,0l1.58,1.55c.25.24.25.64,0,.89-.12.12-.29.19-.45.19Z"/>
    <path class="st0" d="M25,84.12c-.16,0-.32-.06-.44-.18l-1.59-1.55c-.25-.24-.25-.64-.01-.88s.64-.25.88-.01l1.59,1.55c.25.24.25.64.01.88-.12.13-.28.19-.45.19Z"/>
    <path class="st0" d="M28.91,84.08c-.16,0-.32-.06-.44-.18-.25-.24-.25-.64,0-.89l1.55-1.58c.24-.25.64-.25.89,0,.25.24.25.64,0,.89l-1.55,1.58c-.12.12-.29.19-.45.19Z"/>
    <path class="st0" d="M23.49,89.62c-.16,0-.32-.06-.44-.18-.25-.24-.25-.64,0-.89l1.55-1.58c.24-.25.64-.25.89,0,.25.24.25.64,0,.89l-1.55,1.58c-.12.12-.29.19-.45.19Z"/>
  </g>
  <g>
    <path class="st0" d="M63.75,163.06c-.35,0-.63-.28-.63-.63v-2.22c0-.35.28-.63.63-.63s.63.28.63.63v2.22c0,.35-.28.63-.63.63Z"/>
    <path class="st0" d="M63.75,170.81c-.35,0-.63-.28-.63-.63v-2.22c0-.35.28-.63.63-.63s.63.28.63.63v2.22c0,.35-.28.63-.63.63Z"/>
    <path class="st0" d="M68.74,165.93h-2.22c-.35,0-.63-.28-.63-.63s.28-.63.63-.63h2.22c.35,0,.63.28.63.63s-.28.63-.63.63Z"/>
    <path class="st0" d="M60.98,165.93h-2.22c-.35,0-.63-.28-.63-.63s.28-.63.63-.63h2.22c.35,0,.63.28.63.63s-.28.63-.63.63Z"/>
    <path class="st0" d="M67.31,169.42c-.16,0-.32-.06-.44-.18l-1.58-1.55c-.25-.24-.25-.64,0-.89.24-.25.64-.25.89,0l1.58,1.55c.25.24.25.64,0,.89-.12.12-.29.19-.45.19Z"/>
    <path class="st0" d="M61.77,164c-.16,0-.32-.06-.44-.18l-1.59-1.55c-.25-.24-.25-.64-.01-.88s.64-.25.88-.01l1.59,1.55c.25.24.25.64.01.88-.12.13-.28.19-.45.19Z"/>
    <path class="st0" d="M65.69,163.96c-.16,0-.32-.06-.44-.18-.25-.24-.25-.64,0-.89l1.55-1.58c.24-.25.64-.25.89,0,.25.24.25.64,0,.89l-1.55,1.58c-.12.12-.29.19-.45.19Z"/>
    <path class="st0" d="M60.26,169.49c-.16,0-.32-.06-.44-.18-.25-.24-.25-.64,0-.89l1.55-1.58c.24-.25.64-.25.89,0,.25.24.25.64,0,.89l-1.55,1.58c-.12.12-.29.19-.45.19Z"/>
  </g>
  <g>
    <path class="st1" d="M135.89,161.98c-.36,0-.66-.29-.66-.66v-2.33c0-.36.29-.66.66-.66s.66.29.66.66v2.33c0,.36-.29.66-.66.66Z"/>
    <path class="st1" d="M135.89,170.12c-.36,0-.66-.29-.66-.66v-2.33c0-.36.29-.66.66-.66s.66.29.66.66v2.33c0,.36-.29.66-.66.66Z"/>
    <path class="st1" d="M141.13,165h-2.33c-.36,0-.66-.29-.66-.66s.29-.66.66-.66h2.33c.36,0,.66.29.66.66s-.29.66-.66.66Z"/>
    <path class="st1" d="M132.98,165h-2.33c-.36,0-.66-.29-.66-.66s.29-.66.66-.66h2.33c.36,0,.66.29.66.66s-.29.66-.66.66Z"/>
    <path class="st1" d="M139.63,168.67c-.17,0-.33-.06-.46-.19l-1.66-1.63c-.26-.25-.26-.67,0-.93.25-.26.67-.26.93,0l1.66,1.63c.26.25.26.67,0,.93-.13.13-.3.2-.47.2Z"/>
    <path class="st1" d="M133.81,162.97c-.17,0-.33-.06-.46-.19l-1.67-1.63c-.26-.25-.27-.67-.01-.93s.67-.26.93-.01l1.67,1.63c.26.25.27.67.01.93-.13.13-.3.2-.47.2Z"/>
    <path class="st1" d="M137.92,162.93c-.17,0-.33-.06-.46-.19-.26-.25-.26-.67,0-.93l1.63-1.66c.26-.26.67-.26.93,0,.26.25.26.67,0,.93l-1.63,1.66c-.13.13-.3.2-.47.2Z"/>
    <path class="st1" d="M132.23,168.74c-.17,0-.33-.06-.46-.19-.26-.25-.26-.67,0-.93l1.63-1.66c.25-.26.67-.26.93,0,.26.25.26.67,0,.93l-1.63,1.66c-.13.13-.3.2-.47.2Z"/>
  </g>
  <path class="st1" d="M85.56,60.3c-.31,0-.6-.2-.71-.51l-12.38-36.27c-.13-.39.08-.82.47-.95.39-.13.82.08.95.47l12.38,36.27c.13.39-.08.82-.47.95-.08.03-.16.04-.24.04Z"/>
  <path class="st1" d="M107.07,58.43s-.09,0-.13-.01c-.41-.07-.68-.46-.61-.87l3.05-17.25c.07-.41.47-.68.87-.61.41.07.68.46.61.87l-3.05,17.25c-.06.36-.38.62-.74.62Z"/>
  <path class="st1" d="M39.02,63.3c-.13,0-.27-.04-.39-.11l-9.47-5.86c-.35-.22-.46-.68-.24-1.03.22-.35.68-.46,1.03-.24l9.47,5.86c.35.22.46.68.24,1.03-.14.23-.39.36-.64.36Z"/>
  <path class="st1" d="M62.96,78.12c-.13,0-.27-.04-.39-.11l-19.26-11.92c-.35-.22-.46-.68-.24-1.03.22-.35.68-.46,1.03-.24l19.26,11.92c.35.22.46.68.24,1.03-.14.23-.39.36-.64.36Z"/>
  <path class="st1" d="M43.7,99.24h-16.08c-.41,0-.75-.34-.75-.75s.34-.75.75-.75h16.08c.41,0,.75.34.75.75s-.34.75-.75.75Z"/>
  <path class="st1" d="M22.58,99.24h-5.04c-.41,0-.75-.34-.75-.75s.34-.75.75-.75h5.04c.41,0,.75.34.75.75s-.34.75-.75.75Z"/>
  <path class="st1" d="M35.66,150.86c-.22,0-.43-.09-.58-.28-.26-.32-.21-.79.11-1.06l21.97-17.87c.32-.26.79-.21,1.06.11.26.32.21.79-.11,1.06l-21.97,17.87c-.14.11-.31.17-.47.17Z"/>
  <path class="st1" d="M73.36,177.29c-.08,0-.16-.01-.24-.04-.39-.13-.6-.56-.47-.95l8.65-25.22c.13-.39.56-.6.95-.47.39.13.6.56.47.95l-8.65,25.22c-.11.31-.4.51-.71.51Z"/>
  <path class="st1" d="M110.39,161.84c-.36,0-.67-.26-.74-.62l-3.26-18.8c-.07-.41.2-.8.61-.87.4-.06.8.2.87.61l3.26,18.8c.07.41-.2.8-.61.87-.04,0-.09.01-.13.01Z"/>
  <path class="st1" d="M151.14,163.98c-.22,0-.44-.1-.58-.28l-17.77-22.14c-.26-.32-.21-.79.12-1.05.32-.26.79-.21,1.05.12l17.77,22.14c.26.32.21.79-.12,1.05-.14.11-.3.17-.47.17Z"/>
  <path class="st1" d="M169.84,74.66c-.31,0-.59-.19-.71-.49-.14-.39.06-.82.45-.96l8.19-2.98c.39-.14.82.06.96.45.14.39-.06.82-.45.96l-8.19,2.98c-.08.03-.17.04-.26.04Z"/>
  <path class="st1" d="M149,42.59c-.23,0-.44-.16-.49-.4l-1.02-5.12c-.05-.27.12-.53.39-.59.26-.06.53.12.59.39l1.02,5.12c.05.27-.12.53-.39.59-.03,0-.07,0-.1,0Z"/>
  <path class="st1" d="M152.82,42.59s-.1,0-.14-.02c-.26-.08-.41-.36-.33-.62l1.49-4.93c.08-.26.36-.41.62-.33.26.08.41.36.33.62l-1.49,4.93c-.07.22-.26.36-.48.36Z"/>
  <path class="st1" d="M156.07,44.73c-.13,0-.26-.05-.36-.15-.19-.2-.19-.51,0-.71l3.91-3.81c.2-.19.51-.19.71,0,.19.2.19.51,0,.71l-3.91,3.81c-.1.09-.22.14-.35.14Z"/>
  <path class="st1" d="M157.79,47.92c-.23,0-.43-.15-.49-.38-.07-.27.1-.54.37-.6l5.3-1.3c.27-.07.54.1.6.37.07.27-.1.54-.37.6l-5.3,1.3s-.08.01-.12.01Z"/>
  <path class="st1" d="M163.14,53.32s-.09,0-.13-.02l-5.4-1.49c-.27-.07-.42-.35-.35-.61.07-.27.35-.42.62-.35l5.4,1.49c.27.07.42.35.35.61-.06.22-.26.37-.48.37Z"/>
  <path class="st0" d="M100.01,57.44c-.41,0-.75-.34-.75-.75v-27.4c0-.41.34-.75.75-.75s.75.34.75.75v27.4c0,.41-.34.75-.75.75Z"/>
  <path class="st0" d="M99.91,24.51h-.02c-.41,0-.74-.35-.73-.77l.1-4.58c0-.41.34-.73.75-.73h.02c.41,0,.74.35.73.77l-.1,4.58c0,.41-.34.73-.75.73Z"/>
  <path class="st0" d="M120.95,40.64c-.09,0-.17-.01-.26-.05-.39-.14-.59-.57-.45-.96l5.99-16.34c.14-.39.57-.59.96-.45.39.14.59.57.45.96l-5.99,16.34c-.11.3-.4.49-.7.49Z"/>
  <path class="st0" d="M116.48,52.83c-.09,0-.17-.01-.26-.05-.39-.14-.59-.57-.45-.96l3.27-8.92c.14-.39.58-.59.96-.45.39.14.59.57.45.96l-3.27,8.92c-.11.3-.4.49-.7.49Z"/>
  <path class="st0" d="M110.72,65.48c-.09,0-.17-.01-.26-.05-.39-.14-.59-.57-.45-.96l2.58-7.05c.14-.39.57-.59.96-.45.39.14.59.57.45.96l-2.58,7.05c-.11.3-.4.49-.7.49Z"/>
  <path class="st0" d="M92.58,58.43c-.36,0-.68-.26-.74-.63l-3.25-20.73c-.06-.41.22-.79.62-.86.41-.06.79.22.86.63l3.25,20.73c.06.41-.22.79-.62.86-.04,0-.08,0-.12,0Z"/>
  <path class="st0" d="M78.81,63.07c-.27,0-.53-.14-.66-.4l-9.34-17.5c-.2-.37-.06-.82.31-1.01.36-.2.82-.06,1.01.31l9.34,17.5c.2.37.06.82-.31,1.01-.11.06-.23.09-.35.09Z"/>
  <path class="st0" d="M72.71,67c-.22,0-.44-.1-.59-.29l-23.52-30.06c-.25-.33-.2-.8.13-1.05.33-.25.8-.2,1.05.13l23.52,30.06c.25.33.2.8-.13,1.05-.14.11-.3.16-.46.16Z"/>
  <path class="st0" d="M67.3,72.16c-.18,0-.36-.06-.5-.19l-16.52-14.71c-.31-.28-.34-.75-.06-1.06.27-.31.75-.34,1.06-.06l16.52,14.71c.31.28.34.75.06,1.06-.15.17-.35.25-.56.25Z"/>
  <path class="st0" d="M59.63,84.5c-.08,0-.16-.01-.24-.04l-37.66-12.98c-.39-.13-.6-.56-.46-.95.13-.39.56-.6.95-.46l37.66,12.98c.39.13.6.56.46.95-.11.31-.4.51-.71.51Z"/>
  <path class="st0" d="M57.77,91.68s-.08,0-.13-.01l-21.34-3.64c-.41-.07-.68-.46-.61-.87s.46-.68.87-.61l21.34,3.64c.41.07.68.46.61.87-.06.37-.38.62-.74.62Z"/>
  <path class="st0" d="M33.08,110.86c-.36,0-.68-.26-.74-.63-.07-.41.21-.79.62-.86l4.23-.69c.42-.07.79.21.86.62.07.41-.21.79-.62.86l-4.23.69s-.08,0-.12,0Z"/>
  <path class="st0" d="M21.97,126.5c-.31,0-.6-.19-.71-.5-.14-.39.07-.82.46-.96l17.31-6c.39-.14.82.07.95.46s-.07.82-.46.96l-17.31,6c-.08.03-.16.04-.25.04Z"/>
  <path class="st0" d="M41.05,131.81c-.26,0-.52-.14-.66-.39-.2-.36-.07-.82.29-1.02l7.08-3.93c.36-.2.82-.07,1.02.29.2.36.07.82-.29,1.02l-7.08,3.93c-.12.06-.24.09-.36.09Z"/>
  <path class="st0" d="M48.13,163.08c-.17,0-.33-.05-.47-.17-.32-.26-.37-.73-.11-1.05l14.26-17.6c.26-.32.73-.37,1.06-.11.32.26.37.73.11,1.05l-14.26,17.6c-.15.18-.37.28-.58.28Z"/>
  <path class="st0" d="M67.6,158.55c-.12,0-.24-.03-.35-.08-.37-.19-.51-.64-.32-1.01l2.46-4.72c.19-.37.64-.51,1.01-.32.37.19.51.64.32,1.01l-2.46,4.72c-.13.26-.4.4-.67.4Z"/>
  <path class="st0" d="M89.83,161.84s-.07,0-.11,0c-.41-.06-.69-.44-.63-.85l2.75-18.8c.06-.41.44-.69.85-.63.41.06.69.44.63.85l-2.75,18.8c-.05.37-.38.64-.74.64Z"/>
  <path class="st0" d="M100.01,171.24c-.41,0-.75-.34-.75-.75v-27.54c0-.41.34-.75.75-.75s.75.34.75.75v27.54c0,.41-.34.75-.75.75Z"/>
  <path class="st0" d="M99.95,181.57h0c-.41,0-.75-.34-.74-.76l.05-5.11c0-.41.34-.74.75-.74h0c.41,0,.75.34.74.76l-.05,5.11c0,.41-.34.74-.75.74Z"/>
  <path class="st0" d="M126.9,177.29c-.31,0-.6-.19-.71-.5l-12.69-35.45c-.14-.39.06-.82.45-.96.39-.14.82.06.96.45l12.69,35.45c.14.39-.06.82-.45.96-.08.03-.17.04-.25.04Z"/>
  <path class="st0" d="M131.33,156.88c-.26,0-.52-.14-.65-.38l-10.33-18.29c-.2-.36-.08-.82.28-1.02.36-.2.82-.08,1.02.28l10.33,18.29c.2.36.08.82-.28,1.02-.12.07-.24.1-.37.1Z"/>
  <path class="st0" d="M129.16,137.02c-.23,0-.45-.1-.6-.29l-2.56-3.34c-.25-.33-.19-.8.14-1.05.33-.25.8-.19,1.05.14l2.56,3.34c.25.33.19.8-.14,1.05-.14.1-.3.15-.45.15Z"/>
  <path class="st1" d="M164.27,151.47c-.17,0-.34-.06-.48-.17l-6.69-5.51c-.32-.26-.37-.74-.1-1.06.26-.32.74-.37,1.06-.1l6.69,5.51c.32.26.37.74.1,1.06-.15.18-.36.27-.58.27Z"/>
  <path class="st0" d="M178.13,126.59c-.08,0-.17-.01-.25-.04l-8.36-2.95c-.39-.14-.59-.57-.46-.96s.57-.6.96-.46l8.36,2.95c.39.14.59.57.46.96-.11.31-.4.5-.71.5Z"/>
  <path class="st0" d="M182.46,99.06h-8.52c-.41,0-.75-.34-.75-.75s.34-.75.75-.75h8.52c.41,0,.75.34.75.75s-.34.75-.75.75Z"/>
  <path class="st0" d="M163.98,61.49c-.25,0-.5-.13-.64-.36-.22-.35-.1-.82.25-1.03l6.79-4.13c.35-.21.81-.1,1.03.25.22.35.1.82-.25,1.03l-6.79,4.13c-.12.07-.26.11-.39.11Z"/>
  <path class="st1" d="M26.19,114.5c-1.82,0-3.3-1.48-3.3-3.3s1.48-3.3,3.3-3.3,3.3,1.48,3.3,3.3-1.48,3.3-3.3,3.3ZM26.19,109.41c-.99,0-1.8.81-1.8,1.8s.81,1.8,1.8,1.8,1.8-.81,1.8-1.8-.81-1.8-1.8-1.8Z"/>
  <path class="st1" d="M88.59,172.79c-1.82,0-3.3-1.48-3.3-3.3s1.48-3.3,3.3-3.3,3.3,1.48,3.3,3.3-1.48,3.3-3.3,3.3ZM88.59,167.7c-.99,0-1.8.81-1.8,1.8s.81,1.8,1.8,1.8,1.8-.81,1.8-1.8-.81-1.8-1.8-1.8Z"/>
  <path class="st0" d="M176.03,88.56c-1.82,0-3.3-1.48-3.3-3.3s1.48-3.3,3.3-3.3,3.3,1.48,3.3,3.3-1.48,3.3-3.3,3.3ZM176.03,83.46c-.99,0-1.8.81-1.8,1.8s.81,1.8,1.8,1.8,1.8-.81,1.8-1.8-.81-1.8-1.8-1.8Z"/>
  <path class="st1" d="M65.2,41.18c-1.82,0-3.3-1.48-3.3-3.3s1.48-3.3,3.3-3.3,3.3,1.48,3.3,3.3-1.48,3.3-3.3,3.3ZM65.2,36.08c-.99,0-1.8.81-1.8,1.8s.81,1.8,1.8,1.8,1.8-.81,1.8-1.8-.81-1.8-1.8-1.8Z"/>
  <path class="st0" d="M88.06,24.91c-.04-.08-.17-.08-.22,0l-3.62,6.27s-.02.09,0,.12.06.06.11.06h7.24s.09-.02.11-.06.02-.09,0-.12l-3.62-6.27Z"/>
  <path class="st1" d="M33.79,139.37c-.24,0-.47-.12-.61-.32l-4.51-6.33c-.16-.22-.18-.5-.07-.75.11-.24.34-.41.61-.44l7.74-.74c.27-.02.53.09.68.31.16.22.18.5.07.75l-3.23,7.07c-.11.24-.34.41-.61.44-.02,0-.05,0-.07,0ZM30.65,132.91l3,4.22,2.15-4.71-5.16.49Z"/>
  <path class="st0" d="M164.62,142.32c-.15,0-.29-.04-.42-.13-.22-.15-.35-.41-.33-.67l.53-7.76c.02-.27.18-.5.42-.62.24-.12.53-.1.75.05l6.46,4.33c.22.15.35.41.33.67-.02.27-.18.5-.42.62l-6.98,3.42c-.1.05-.22.08-.33.08ZM165.81,135.16l-.35,5.17,4.65-2.28-4.3-2.89Z"/>
  <path class="st1" d="M172.33,115.92c-.27,0-.52-.14-.65-.38s-.13-.52,0-.75l3.89-6.74c.27-.46,1.03-.46,1.3,0l3.89,6.73c.13.23.13.52,0,.75s-.38.38-.65.38h-7.78ZM176.22,109.94l-2.59,4.49h5.18s-2.59-4.49-2.59-4.49Z"/>
  <path class="st0" d="M162.58,99.3h-24.52c-.41,0-.75-.34-.75-.75s.34-.75.75-.75h24.52c.41,0,.75.34.75.75s-.34.75-.75.75Z"/>
  <path class="st0" d="M143.35,99.3h-3.47c-.41,0-.75-.34-.75-.75v-7.75c0-.41.34-.75.75-.75h3.47c.41,0,.75.34.75.75v7.75c0,.41-.34.75-.75.75ZM140.63,97.8h1.97v-6.25h-1.97v6.25Z"/>
  <path class="st0" d="M149.01,99.3h-3.37c-.41,0-.75-.34-.75-.75v-11.33c0-.41.34-.75.75-.75h3.37c.41,0,.75.34.75.75v11.33c0,.41-.34.75-.75.75ZM146.4,97.8h1.87v-9.83h-1.87v9.83Z"/>
  <path class="st0" d="M154.83,99.3h-3.37c-.41,0-.75-.34-.75-.75v-13.57c0-.41.34-.75.75-.75h3.37c.41,0,.75.34.75.75v13.57c0,.41-.34.75-.75.75ZM152.22,97.8h1.87v-12.07h-1.87v12.07Z"/>
  <path class="st0" d="M160.55,99.3h-3.37c-.41,0-.75-.34-.75-.75v-18.16c0-.41.34-.75.75-.75h3.37c.41,0,.75.34.75.75v18.16c0,.41-.34.75-.75.75ZM157.93,97.8h1.87v-16.66h-1.87v16.66Z"/>
  <path class="st0" d="M140.09,87.04c-.19,0-.38-.07-.52-.21-.3-.29-.3-.76-.01-1.06l7.58-7.77c.14-.14.33-.23.54-.23h0c.2,0,.4.08.54.23l2.82,2.91,8.54-9.01c.28-.3.76-.31,1.06-.03.3.28.31.76.03,1.06l-9.08,9.57c-.14.15-.31.27-.54.23-.2,0-.4-.08-.54-.23l-2.83-2.92-7.05,7.22c-.15.15-.34.23-.54.23Z"/>
  <path class="st0" d="M159.61,77.71s-.06,0-.08,0c-.41-.05-.71-.42-.66-.83l.4-3.6-3.68.45c-.42.05-.79-.24-.84-.65-.05-.41.24-.79.65-.84l4.62-.57c.23-.03.46.05.62.21s.24.39.22.62l-.51,4.54c-.04.38-.37.67-.74.67Z"/>
  <path class="st0" d="M128.01,65.48c-.19,0-.39-.07-.53-.22-.29-.29-.29-.77,0-1.06l13.52-13.4c.29-.29.77-.29,1.06,0,.29.29.29.77,0,1.06l-13.52,13.4c-.15.15-.34.22-.53.22Z"/>
  <path class="st0" d="M144.97,52.49s-.06,0-.09,0l-3.43-.41c-.41-.05-.7-.42-.65-.83.05-.41.43-.7.83-.65l3.43.41c.41.05.7.42.65.83-.04.38-.37.66-.74.66Z"/>
  <path class="st0" d="M140.86,56.58s-.06,0-.09,0l-3.43-.41c-.41-.05-.7-.42-.65-.83.05-.41.43-.7.83-.65l3.43.41c.41.05.7.42.65.83-.04.38-.37.66-.74.66Z"/>
  <path class="st0" d="M140.86,56.58c-.19,0-.38-.07-.53-.22-.29-.29-.29-.77,0-1.06l4.11-4.09c.29-.29.77-.29,1.06,0,.29.29.29.77,0,1.06l-4.11,4.09c-.15.15-.34.22-.53.22Z"/>
  <path class="st0" d="M141.53,52.07c-.37,0-.7-.28-.74-.66l-.41-3.43c-.05-.41.24-.78.65-.83.41-.04.78.24.83.65l.41,3.43c.05.41-.24.78-.65.83-.03,0-.06,0-.09,0Z"/>
  <path class="st0" d="M137.45,56.18c-.37,0-.7-.28-.74-.66l-.41-3.43c-.05-.41.24-.78.65-.83.4-.05.79.24.83.66l.41,3.43c.05.41-.24.78-.66.83-.03,0-.06,0-.09,0Z"/>
  <path class="st0" d="M137.04,52.75c-.19,0-.38-.07-.53-.22-.29-.29-.3-.77,0-1.06l4.09-4.11c.29-.29.77-.29,1.06,0,.29.29.3.77,0,1.06l-4.09,4.11c-.15.15-.34.22-.53.22Z"/>
  <path class="st0" d="M148.05,122.89c-.66-.73-1.46-1.28-2.33-1.65.8-.76,1.32-1.87,1.32-3.12,0-2.28-1.67-4.13-3.73-4.13s-3.73,1.85-3.73,4.13c0,1.25.52,2.37,1.32,3.12-.86.36-1.65.9-2.3,1.61-1.27,1.38-1.91,3.24-1.74,5.1.03.31.24.56.53.65,1.93.57,3.92.86,5.92.86.15,0,.3,0,.45,0,1.85-.04,3.68-.33,5.46-.85.29-.09.51-.34.53-.65.17-1.84-.45-3.69-1.71-5.07ZM143.31,115.55c1.19,0,2.16,1.15,2.16,2.56s-.97,2.56-2.16,2.56-2.16-1.15-2.16-2.56.97-2.56,2.16-2.56ZM143.73,127.96c-1.82.04-3.64-.18-5.4-.65.01-1.26.5-2.5,1.37-3.44.95-1.03,2.26-1.62,3.59-1.63,0,0,.01,0,.02,0,.01,0,.02,0,.03,0h0c1.34,0,2.66.61,3.6,1.65.86.94,1.33,2.17,1.34,3.42-1.49.4-3.02.62-4.56.65Z"/>
  <path class="st0" d="M137.44,116.87c.8-.75,1.32-1.87,1.32-3.12,0-2.28-1.67-4.13-3.73-4.13s-3.73,1.85-3.73,4.13c0,1.25.52,2.37,1.32,3.12-.86.36-1.65.91-2.3,1.62-1.28,1.38-1.91,3.24-1.74,5.1.03.31.24.56.53.65,1.93.57,3.92.86,5.92.86h.46c.15,0,.29-.01.44-.02.27-.47.45-.99.53-1.53-.33.02-.67.04-1.01.05-1.82.03-3.63-.18-5.4-.65.01-1.27.5-2.5,1.37-3.45.95-1.03,2.26-1.62,3.59-1.62h.06c1.22.01,2.41.51,3.33,1.38.13-.61.14-1.25,0-1.87-.31-.21-.63-.38-.97-.52ZM135.03,116.31c-1.19,0-2.16-1.15-2.16-2.56s.97-2.56,2.16-2.56,2.16,1.15,2.16,2.56-.97,2.56-2.16,2.56Z"/>
  <path class="st0" d="M149.37,116.87c-.8-.75-1.32-1.87-1.32-3.12,0-2.28,1.67-4.13,3.73-4.13s3.73,1.85,3.73,4.13c0,1.25-.52,2.37-1.32,3.12.86.36,1.65.91,2.3,1.62,1.28,1.38,1.91,3.24,1.74,5.1-.03.31-.24.56-.53.65-1.93.57-3.92.86-5.92.86h-.46c-.15,0-.29-.01-.44-.02-.27-.47-.45-.99-.53-1.53.33.02.67.04,1.01.05,1.82.03,3.63-.18,5.4-.65-.01-1.27-.5-2.5-1.37-3.45-.95-1.03-2.26-1.62-3.59-1.62h-.06c-1.22.01-2.41.51-3.33,1.38-.13-.61-.14-1.25,0-1.87.31-.21.63-.38.97-.52ZM151.78,116.31c1.19,0,2.16-1.15,2.16-2.56s-.97-2.56-2.16-2.56-2.16,1.15-2.16,2.56.97,2.56,2.16,2.56Z"/>
  <path class="st0" d="M128.34,69.33c-2.54,0-4.6-2.07-4.6-4.6s2.07-4.6,4.6-4.6,4.6,2.07,4.6,4.6-2.07,4.6-4.6,4.6ZM128.34,61.62c-1.71,0-3.1,1.39-3.1,3.1s1.39,3.1,3.1,3.1,3.1-1.39,3.1-3.1-1.39-3.1-3.1-3.1Z"/>
  <path class="st0" d="M128.34,72.94c-4.53,0-8.21-3.68-8.21-8.21s3.68-8.21,8.21-8.21c1.41,0,2.8.37,4.03,1.06.36.2.49.66.28,1.02-.2.36-.66.49-1.02.28-1-.56-2.14-.86-3.29-.86-3.7,0-6.71,3.01-6.71,6.71s3.01,6.71,6.71,6.71,6.71-3.01,6.71-6.71c0-1.28-.36-2.53-1.05-3.59-.22-.35-.12-.81.22-1.04.35-.22.81-.12,1.04.23.84,1.31,1.29,2.83,1.29,4.41,0,4.53-3.68,8.21-8.21,8.21Z"/>
  <path class="st0" d="M128.34,77.03c-6.78,0-12.3-5.52-12.3-12.3s5.52-12.31,12.3-12.31c2.17,0,4.31.57,6.18,1.66.36.21.48.67.27,1.03-.21.36-.67.48-1.03.27-1.64-.95-3.51-1.46-5.42-1.46-5.96,0-10.8,4.85-10.8,10.81s4.84,10.8,10.8,10.8,10.81-4.85,10.81-10.8c0-2.04-.58-4.02-1.66-5.74-.22-.35-.12-.81.23-1.04.35-.22.81-.12,1.04.23,1.24,1.96,1.9,4.22,1.9,6.54,0,6.78-5.52,12.3-12.31,12.3Z"/>
  <path class="st0" d="M148.49,148.72c-.19,0-.37-.07-.52-.21-.3-.29-.31-.76-.02-1.06,6.49-6.77,17.65-21.35,19.48-42.98.74-8.75.37-26.02-10.49-43.33-8.4-13.39-19.48-21.06-27.3-25.14-.37-.19-.51-.64-.32-1.01s.65-.51,1.01-.32c7.98,4.16,19.3,12,27.88,25.67,11.08,17.68,11.47,35.31,10.71,44.25-1.87,22.09-13.27,36.98-19.9,43.89-.15.15-.34.23-.54.23Z"/>
  <path class="st0" d="M151.78,75.24c-.28,0-.55-.16-.68-.43-2.52-5.43-5.85-10.44-9.89-14.91-.28-.31-.25-.78.05-1.06.31-.28.78-.25,1.06.05,4.15,4.58,7.56,9.72,10.14,15.29.17.38.01.82-.37,1-.1.05-.21.07-.32.07Z"/>
  <path class="st0" d="M141.47,141.42c-.18,0-.36-.07-.51-.2-.3-.28-.32-.76-.04-1.06,2.63-2.85,4.99-5.97,7.02-9.29.21-.35.67-.47,1.03-.25.35.22.46.68.25,1.03-2.08,3.4-4.5,6.61-7.2,9.53-.15.16-.35.24-.55.24Z"/>
  <path class="st0" d="M133.29,52.42c-.16,0-.31-.05-.45-.15-2.7-2.03-5.59-3.84-8.61-5.38-.37-.19-.51-.64-.33-1.01s.64-.52,1.01-.33c3.09,1.58,6.06,3.44,8.83,5.52.33.25.4.72.15,1.05-.15.2-.37.3-.6.3Z"/>
  <path class="st0" d="M156.62,110.25s-.08,0-.12,0c-.41-.07-.69-.45-.62-.86.42-2.6.66-5.26.73-7.91.01-.41.34-.73.75-.73,0,0,.01,0,.02,0,.41.01.74.35.73.77-.07,2.72-.32,5.45-.75,8.11-.06.37-.38.63-.74.63Z"/>
  <path class="st0" d="M131.87,132.73c-.18,0-.37-.07-.51-.2-.3-.28-.32-.76-.04-1.06,1.01-1.08,1.97-2.21,2.86-3.34.26-.33.73-.39,1.05-.13s.38.73.13,1.05c-.91,1.17-1.9,2.32-2.94,3.44-.15.16-.35.24-.55.24Z"/>
  <path class="st0" d="M143.09,112.54c-.06,0-.13,0-.2-.03-.4-.11-.64-.52-.53-.92.9-3.33,1.41-6.77,1.52-10.25.01-.41.35-.72.75-.72,0,0,.02,0,.03,0,.41.01.74.36.72.77-.12,3.59-.65,7.15-1.58,10.59-.09.33-.39.55-.72.55Z"/>
  <path class="st0" d="M140.97,81.96c-.29,0-.57-.17-.69-.46-.73-1.73-1.59-3.48-2.57-5.18-.21-.36-.08-.82.28-1.02.36-.21.82-.08,1.02.28,1.01,1.75,1.9,3.55,2.65,5.34.16.38-.02.82-.4.98-.1.04-.19.06-.29.06Z"/>
  <path class="st1" d="M57.8,125.23c-3.52,0-7.34-5.2-9.02-12.44-.84-3.61-1.01-7.17-.48-10.01.57-3.05,1.91-4.96,3.76-5.39.4-.09.81.16.9.56.09.4-.16.81-.56.9-1.22.28-2.17,1.82-2.62,4.21-.5,2.64-.33,5.97.46,9.39,1.7,7.32,5.55,11.79,7.94,11.25.38-.17.87,0,1.03.38.16.38.04.81-.34.97-.09.04-.18.07-.27.09-.26.06-.53.09-.8.09Z"/>
  <path class="st1" d="M74.91,120.97c-.15,0-.31-.05-.44-.14-2.8-2.04-5.42-7.1-6.84-13.19-1.26-5.42-1.29-10.78-.08-13.97.1-.3.38-.51.71-.51.41,0,.75.33.75.75h0c0,.1-.02.19-.05.28-1.12,2.93-1.07,7.96.13,13.12,1.32,5.67,3.78,10.5,6.26,12.31.33.24.41.71.16,1.05-.15.2-.38.31-.61.31Z"/>
  <path class="st1" d="M52.23,98.87c-.34,0-.64-.23-.73-.57-.1-.4.14-.81.55-.91l13.77-3.44c.69-.22,1.4-.47,2.08-.71.03-.02.07-.03.1-.05,1.62-.59,3.23-1.27,4.78-2.02,1.33-.63,2.64-1.31,3.89-2.04,5.42-3.16,9.29-6.65,11.58-9.02,2.68-2.76,5.15-5.83,6.79-8.4.22-.35.69-.45,1.04-.23.35.22.45.69.23,1.04-1.69,2.66-4.23,5.81-6.97,8.64-2.36,2.44-6.33,6.03-11.9,9.28-1.29.75-2.64,1.46-4,2.1-1.55.75-3.17,1.44-4.8,2.04-.03.02-.07.04-.11.05-.73.26-1.5.53-2.29.78l-13.82,3.45c-.06.02-.12.02-.18.02Z"/>
  <path class="st1" d="M108.76,126.63c-.12,0-.24-.03-.36-.09-2.83-1.53-6.06-2.85-9.61-3.92-4.57-1.39-9.58-2.17-14.5-2.27-1.57-.03-3.23.01-4.93.13-.74.05-1.51.12-2.31.22-.66.07-1.34.16-2.02.27-.84.13-1.71.28-2.61.45l-13.65,3.67c-.4.11-.81-.13-.92-.53-.11-.4.13-.81.53-.92l13.7-3.68c.97-.19,1.86-.35,2.72-.48.71-.11,1.41-.2,2.08-.28.82-.1,1.62-.17,2.38-.22,1.74-.12,3.45-.16,5.07-.13,5.05.1,10.21.91,14.9,2.33,3.64,1.1,6.97,2.46,9.89,4.04.36.2.5.65.3,1.02-.14.25-.39.39-.66.39Z"/>
  <path class="st1" d="M117.95,129.5c-2.81,0-5.7-4.49-7.69-8.42-2.87-5.66-5.6-13.45-7.68-21.92-3.84-15.63-5.09-32.94.15-34.23,2.99-.72,6.17,4.13,8.31,8.35,2.87,5.66,5.6,13.45,7.68,21.92,3.84,15.63,5.09,32.94-.15,34.23-.2.05-.41.07-.61.07ZM103.34,66.36c-.09,0-.17.01-.25.03-3.13.77-3.51,14.27.95,32.42,2.05,8.37,4.74,16.04,7.57,21.6,3.06,6.03,5.43,7.86,6.61,7.57,3.13-.77,3.51-14.27-.95-32.42h0c-2.05-8.37-4.74-16.04-7.57-21.6-2.85-5.62-5.1-7.6-6.36-7.6Z"/>
  <path class="st1" d="M113.24,130.31c-1.52,0-3.2-1.31-5.02-3.9-3.67-5.23-7.5-15.03-10.24-26.22-2.07-8.41-3.25-16.51-3.33-22.81-.06-4.69.5-10.44,3.48-11.17.41-.1.81.15.91.55.1.4-.15.81-.55.91-1.18.29-2.42,2.99-2.33,9.69.07,6.19,1.24,14.17,3.28,22.47,2.67,10.85,6.5,20.71,10.02,25.72,1.61,2.29,3.08,3.47,4.05,3.23.4-.09.81.15.91.55.1.4-.15.81-.55.91-.2.05-.4.07-.61.07Z"/>
  <path class="st1" d="M98.3,67.69c-.33,0-.63-.22-.72-.55-.11-.4.12-.81.52-.92l4.61-1.28c.4-.11.81.12.92.52s-.12.81-.52.92l-4.61,1.28c-.07.02-.13.03-.2.03Z"/>
  <path class="st1" d="M113.67,130.26c-.36,0-.68-.26-.74-.62-.07-.41.21-.8.61-.87l4.72-.81c.41-.07.79.21.87.61.07.41-.21.8-.61.87l-4.72.81s-.08.01-.13.01Z"/>
  <path class="st1" d="M73.14,149.19c-.12,0-.23,0-.35-.01-.51-.04-1.27-.16-1.97-.54-.98-.53-1.55-1.3-1.86-1.86l-9.5-22.55c-.16-.38.02-.82.4-.98.38-.16.82.02.98.4l9.46,22.48c.18.31.57.84,1.22,1.19.47.25,1.01.33,1.38.36.62.04,1.07-.03,3.64-1,2.15-.82,2.52-1.03,2.94-1.38.36-.3.81-.69,1.1-1.35.3-.69.38-1.36.21-1.9-.15-.48-.45-.69-1.09-1.12-.47-.31-1.05-.7-1.66-1.33-.75-.78-1.27-1.54-1.91-3.31-.47-1.29-1.25-3.35-2.26-6.02-.02-.03-.04-.07-.05-.11-.72-1.89-1.54-4.09-2.46-6.54l-.89-2.37c-.15-.39.05-.82.44-.97.39-.14.82.05.97.44l.89,2.37c.9,2.4,1.71,4.57,2.42,6.43.02.03.04.07.05.11,1.03,2.73,1.82,4.83,2.3,6.15.56,1.54.96,2.13,1.59,2.79.49.52.96.82,1.41,1.12.68.45,1.38.91,1.7,1.92.28.9.19,1.92-.27,2.95-.43.98-1.08,1.53-1.51,1.9-.65.54-1.21.81-3.37,1.63-2.27.86-3.1,1.11-3.93,1.11Z"/>
  <path class="st1" d="M75.33,130.66c-.27,0-.55,0-.84-.02-.41-.02-.73-.36-.73-.76,0-.41.34-.74.74-.74h.01c.61.02,1.4.05,1.84-.09.74-.24,1.37-.75,1.45-1.19.08-.46-.24-.97-.6-1.55-.14-.22-.27-.43-.39-.65-1.06-1.93-.88-4.14-.6-5.84.07-.41.45-.69.86-.62.41.07.69.45.62.86-.35,2.18-.22,3.68.44,4.88.1.19.22.38.34.57.46.74.98,1.57.81,2.6-.22,1.22-1.47,2.04-2.47,2.36-.44.14-.94.18-1.5.18Z"/>
  <path class="st1" d="M51.15,122.81c-1.55,0-3.07-.44-4.42-1.29-1.87-1.18-3.17-3.02-3.66-5.17l-.86-3.84c-1-4.45,1.8-8.89,6.26-9.9l.37-.08c.41-.08.8.19.87.6s-.19.8-.6.87l-.34.07c-3.62.82-5.92,4.45-5.1,8.1l.86,3.84c.4,1.76,1.46,3.26,3,4.23,1.54.97,3.35,1.29,5.11.89.21-.05.42-.11.62-.17.39-.13.82.09.94.49.13.39-.09.82-.49.94-.24.08-.5.15-.75.21-.6.14-1.21.2-1.82.2Z"/>
  <path class="st1" d="M71.9,98.32c-.31,0-.6-.19-.71-.5-.14-.39.06-.82.45-.96,3.36-1.21,6.58-2.81,9.57-4.76,2.87-1.88,5.54-4.08,7.92-6.55.29-.3.76-.31,1.06-.02s.31.76.02,1.06c-2.46,2.55-5.22,4.82-8.18,6.76-3.09,2.02-6.41,3.67-9.88,4.92-.08.03-.17.04-.25.04Z"/>
  <path class="st1" d="M53.5,103.51c-.33,0-.64-.22-.73-.56-.1-.4.13-.81.54-.92l9.12-2.39c.4-.1.81.13.92.54.1.4-.13.81-.54.92l-9.12,2.39c-.06.02-.13.02-.19.02Z"/>
  <path class="st1" d="M105.37,107.23c-.34,0-.64-.23-.73-.57-.1-.4.15-.81.55-.91l1.61-.39c3.09-.76,4.98-3.89,4.22-6.97l-.41-1.69c-.76-3.08-3.89-4.97-6.97-4.22l-1.65.41c-.4.1-.81-.14-.91-.55-.1-.4.14-.81.55-.91l1.65-.41c3.89-.95,7.83,1.44,8.79,5.32l.41,1.69c.96,3.88-1.43,7.82-5.32,8.79l-1.61.39c-.06.01-.12.02-.18.02Z"/>
  <path class="st0" d="M109.22,87.15c-.17,0-.35-.06-.49-.18-.31-.27-.35-.74-.08-1.06l8.9-10.38c.27-.31.74-.35,1.06-.08.31.27.35.74.08,1.06l-8.9,10.38c-.15.17-.36.26-.57.26Z"/>
  <path class="st0" d="M113.67,91.34c-.26,0-.51-.13-.65-.38-.21-.36-.08-.82.27-1.02l14.89-8.6c.36-.21.82-.08,1.02.27.21.36.08.82-.27,1.02l-14.89,8.6c-.12.07-.25.1-.37.1Z"/>
  <path class="st0" d="M115.89,97.16c-.34,0-.65-.23-.73-.58-.09-.4.16-.81.56-.9l18.37-4.27c.4-.09.81.16.9.56.09.4-.16.81-.56.9l-18.37,4.27c-.06.01-.11.02-.17.02Z"/>
  <path class="st0" d="M133.31,105.28s-.06,0-.09,0l-16.99-1.98c-.41-.05-.71-.42-.66-.83.05-.41.43-.7.83-.66l16.99,1.98c.41.05.71.42.66.83-.04.38-.37.66-.74.66Z"/>
  <path class="st0" d="M127.22,115.75c-.12,0-.23-.03-.34-.08l-13.25-6.84c-.37-.19-.51-.64-.32-1.01.19-.37.64-.52,1.01-.32l13.25,6.84c.37.19.51.64.32,1.01-.13.26-.39.41-.67.41Z"/>
</svg>