<?xml version="1.0" encoding="UTF-8"?>
<svg id="Ebene_1" xmlns="http://www.w3.org/2000/svg" version="1.1" viewBox="0 0 200 200">
  <!-- Generator: Adobe Illustrator 30.0.0, SVG Export Plug-In . SVG Version: 2.1.1 Build 123)  -->
  <defs>
    <style>
      .st0 {
        fill: #7199d0;
      }
    </style>
  </defs>
  <path class="st0" d="M160.14,200H39.86c-12.09,0-21.92-9.83-21.92-21.92V21.92C17.94,9.83,27.78,0,39.86,0h120.27c12.09,0,21.92,9.83,21.92,21.92v156.16c0,12.09-9.83,21.92-21.92,21.92ZM39.86,11.99c-5.47,0-9.93,4.45-9.93,9.93v156.16c0,5.48,4.45,9.93,9.93,9.93h120.27c5.47,0,9.93-4.45,9.93-9.93V21.92c0-5.47-4.45-9.93-9.93-9.93H39.86Z"/>
  <path class="st0" d="M137.56,57.18H62.44c-3.31,0-6-2.68-6-6s2.68-6,6-6h75.12c3.31,0,6,2.68,6,6s-2.69,6-6,6Z"/>
  <path class="st0" d="M137.56,102.66H62.44c-3.31,0-6-2.68-6-6s2.68-6,6-6h75.12c3.31,0,6,2.68,6,6s-2.69,6-6,6Z"/>
  <path class="st0" d="M137.56,154.81H62.44c-3.31,0-6-2.69-6-6s2.68-6,6-6h75.12c3.31,0,6,2.69,6,6s-2.69,6-6,6Z"/>
</svg>