<?xml version="1.0" encoding="UTF-8"?>
<svg id="Ebene_1" xmlns="http://www.w3.org/2000/svg" version="1.1" viewBox="0 0 200 200">
  <!-- Generator: Adobe Illustrator 30.0.0, SVG Export Plug-In . SVG Version: 2.1.1 Build 123)  -->
  <defs>
    <style>
      .st0 {
        fill: #6e9de7;
      }

      .st1 {
        fill: #1c2761;
      }
    </style>
  </defs>
  <path class="st0" d="M133.3,82.06c-7.57,0-13.73-6.16-13.73-13.73s6.16-13.73,13.73-13.73,13.73,6.16,13.73,13.73-6.16,13.73-13.73,13.73ZM133.3,56.82c-6.35,0-11.51,5.16-11.51,11.51s5.16,11.51,11.51,11.51,11.51-5.16,11.51-11.51-5.16-11.51-11.51-11.51Z"/>
  <path class="st0" d="M133.3,88.95c-11.36,0-20.61-9.25-20.61-20.61s9.25-20.61,20.61-20.61,20.61,9.25,20.61,20.61-9.25,20.61-20.61,20.61ZM133.3,49.94c-10.14,0-18.39,8.25-18.39,18.39s8.25,18.39,18.39,18.39,18.39-8.25,18.39-18.39-8.25-18.39-18.39-18.39Z"/>
  <path class="st0" d="M147.41,143.98c-6.62,0-12-5.39-12-12.01,0-.23,0-.46.05-.69.11-.6.7-1,1.29-.89.6.11,1,.69.89,1.29-.02.1-.01.19-.01.29,0,5.4,4.39,9.8,9.78,9.8s9.77-4.38,9.8-9.76c0-.61.5-1.1,1.11-1.1h0c.61,0,1.11.5,1.1,1.11-.03,6.6-5.42,11.96-12.01,11.96Z"/>
  <path class="st0" d="M147.41,157.56c-13.79,0-25.25-11.22-25.56-25-.01-.61.47-1.12,1.08-1.13h.02c.6,0,1.09.48,1.11,1.08.28,12.59,10.75,22.84,23.34,22.84s22.82-9.82,23.35-22.36c.02-.61.53-1.13,1.15-1.06.61.02,1.09.54,1.06,1.15-.57,13.73-11.8,24.48-25.56,24.48Z"/>
  <path class="st1" d="M76.54,148.72c-4.77,0-11-.86-16.91-4.75-8.2-5.4-15.85-16.91-13.27-29.42,2.46-11.92,12.74-17.61,16.12-19.48,10.74-5.95,21.57-4.56,26.56-3.4.9-2.1,2.19-3.9,3.83-5.36,2.97-2.64,6.25-3.29,9.14-3.87,3.95-.79,8.03-.82,12.16-.1l13.79-11.09c.48-.38,1.17-.31,1.56.17.38.48.31,1.17-.17,1.56l-14.18,11.4c-.25.2-.58.29-.9.22-4.01-.76-7.99-.77-11.81,0-2.87.58-5.58,1.12-8.1,3.36-1.6,1.42-2.81,3.23-3.59,5.39-.19.54-.77.84-1.32.69-4.19-1.1-15.1-3.01-25.88,2.96-3.16,1.75-12.77,7.07-15.03,17.99-2.37,11.5,4.72,22.12,12.32,27.12,8.35,5.5,17.58,4.45,21.51,4,6.48-.74,10.11-2.78,14.71-5.37,2.81-1.58,5.99-3.37,10.31-5.12,12.12-4.91,22.54-5.12,34.6-5.37,8.21-.16,14.76.49,20.03,1.01,9.24.92,15.34,1.53,22.24-2.79,1.82-1.14,5.32-3.7,8.3-8.03,8.21-11.95,4.78-26.44,2.92-32.12-3.38-10.34-10.13-17.06-15.19-20.88-.22-.16-.37-.4-.42-.67-1.35-6.95-5.36-20.02-17.12-29.38-2.51-2-10.16-8.09-21.37-8.94-4.96-.38-11.75-.89-16.36,3.84-4.2,4.31-4.15,10.51-3.93,12.98.05.61-.4,1.15-1.01,1.2-.61.06-1.15-.4-1.2-1.01-.25-2.77-.29-9.75,4.55-14.72,5.34-5.47,13.03-4.88,18.12-4.5,11.89.9,19.94,7.31,22.58,9.42,12.09,9.62,16.35,22.93,17.84,30.28,5.27,4.05,12.14,11.04,15.62,21.7,1.96,5.99,5.57,21.31-3.2,34.07-3.21,4.66-6.98,7.42-8.95,8.65-7.54,4.72-14.29,4.05-23.63,3.12-5.48-.55-11.69-1.17-19.76-1-12.33.25-22.07.45-33.82,5.2-4.19,1.7-7.31,3.45-10.05,5-4.63,2.6-8.62,4.86-15.54,5.64-1.44.16-3.56.41-6.08.41Z"/>
  <path class="st1" d="M79.77,118.4c-.35,0-.69-.16-.91-.47-.35-.5-.23-1.19.27-1.54,5.96-4.21,12.4-7.48,19.15-9.72,10.26-3.41,17.89-3.34,24.61-3.3,7.15.06,12.79.1,19.38-3.92,8.84-5.39,15.08-15.49,15.88-25.74.34-4.37.53-19.21-11.45-26.79-9.09-5.75-21.37-4.98-29.86,1.87-8.56,6.92-9.51,17.08-9.6,20.03-.02.6-.51,1.07-1.11,1.07h-.03c-.61-.02-1.09-.53-1.07-1.14.1-3.19,1.13-14.18,10.42-21.69,9.21-7.45,22.55-8.27,32.44-2.02,13.02,8.24,12.84,24.15,12.47,28.84-.87,11.1-7.36,21.62-16.94,27.46-7.13,4.35-13.35,4.3-20.55,4.25-6.56-.05-13.99-.11-23.89,3.19-6.54,2.18-12.79,5.35-18.57,9.43-.19.14-.42.2-.64.2Z"/>
  <path class="st1" d="M84.94,74.88c-.56,0-1.05-.43-1.1-1-.54-5.62-.46-16.66,6.06-27.36,2.64-4.34,6.04-8.15,10.1-11.35-.08-2.57.32-7.83,4.21-12.17,1.34-1.49,2.91-2.68,4.65-3.53,4.44-2.22,8.95-1.93,10.43-1.84,7.53.46,12.88,5.07,16.04,8.86.39.47.33,1.17-.14,1.56-.47.39-1.17.33-1.56-.14-2.88-3.45-7.74-7.66-14.48-8.07-1.34-.09-5.39-.34-9.3,1.61-1.5.73-2.84,1.75-3.99,3.03-3.66,4.08-3.75,9.15-3.62,11.14.02.37-.14.73-.43.95-4.05,3.11-7.41,6.84-10.01,11.1-6.19,10.16-6.25,20.65-5.74,26,.06.61-.39,1.15-1,1.21-.04,0-.07,0-.11,0Z"/>
  <path class="st1" d="M21.03,75.46c-.55,0-1.02-.4-1.1-.96-.4-2.92-1.01-10.65,1.83-19.49,1.69-5.24,4.34-10.02,7.88-14.19,12.44-14.7,29.83-15.26,34.16-15.15,4.84-3.53,14.65-9.21,27.85-9.44,6.2-.12,12.26.96,18.09,3.19.57.22.86.86.64,1.43-.22.57-.85.86-1.43.64-5.56-2.13-11.35-3.16-17.25-3.04-12.88.23-22.37,5.89-26.88,9.24-.2.15-.45.25-.7.22-3.34-.11-20.57-.05-32.77,14.35-3.35,3.95-5.86,8.48-7.46,13.44-2.7,8.4-2.12,15.74-1.74,18.51.08.61-.34,1.16-.95,1.25-.05,0-.1.01-.15.01Z"/>
  <path class="st1" d="M35.94,123.91c-8.82,0-17.42-3.11-23.99-8.96C2.89,106.88-1.5,94.46.46,82.52c1.8-10.79,8.4-17.53,10.88-20.07,3.17-3.25,6.86-5.97,10.97-8.09.55-.28,1.21-.06,1.49.48.28.54.07,1.21-.48,1.49-3.9,2.01-7.4,4.59-10.4,7.66-2.35,2.4-8.6,8.79-10.28,18.88-1.85,11.19,2.28,22.85,10.77,30.42,8.83,7.86,21.58,10.44,33.26,6.73.58-.19,1.2.14,1.39.72.18.58-.14,1.21-.72,1.39-3.75,1.19-7.6,1.77-11.41,1.77Z"/>
  <path class="st0" d="M34.87,114.46s-.03,0-.04,0c-2.84-.11-12.65-1.14-19.79-9.79-7.16-8.66-6.31-18.5-5.87-21.32.09-.6.66-1.01,1.26-.93.6.09,1.02.66.93,1.26-.4,2.58-1.18,11.61,5.39,19.57,6.56,7.94,15.57,8.89,18.17,8.99.61.02,1.09.54,1.06,1.15-.02.6-.51,1.06-1.11,1.06Z"/>
  <path class="st1" d="M48.01,107.51c-1.42,0-2.84-.05-4.25-.14-3.19-.21-9.12-.6-13.29-2.38-7.97-3.4-11.4-12.51-12.73-17.63-.15-.59.2-1.2.79-1.35.59-.15,1.2.2,1.35.79,1.23,4.74,4.36,13.13,11.46,16.15,3.83,1.63,9.52,2.01,12.57,2.21,2.36.16,4.75.18,7.1.06.62-.06,1.13.44,1.16,1.05.03.61-.44,1.13-1.05,1.16-1.03.05-2.07.08-3.11.08Z"/>
  <path class="st1" d="M90.79,111.97c-.4,0-.78-.21-.98-.59-.29-.54-.08-1.21.46-1.5,2.3-1.21,5.45-3.49,7.43-7.45.79-1.58,1.31-3.29,1.56-5.08.08-.6.64-1.03,1.25-.95.61.08,1.03.64.95,1.25-.28,2.03-.88,3.97-1.77,5.77-2.24,4.49-5.79,7.06-8.38,8.42-.16.09-.34.13-.52.13Z"/>
  <g>
    <rect class="st1" x="29.07" y="72.04" width="3.21" height="2.47" rx=".84" ry=".84" transform="translate(-47.86 85.23) rotate(-75.94)"/>
    <rect class="st1" x="30.88" y="66.32" width="3.21" height="2.47" rx=".84" ry=".84" transform="translate(-42.21 73.82) rotate(-69.11)"/>
    <rect class="st1" x="33.17" y="60.97" width="3.21" height="2.47" rx=".84" ry=".84" transform="translate(-36.46 64.52) rotate(-62.66)"/>
    <rect class="st1" x="36.44" y="55.59" width="3.21" height="2.47" rx=".84" ry=".84" transform="translate(-30.34 56.66) rotate(-56.06)"/>
    <rect class="st1" x="39.94" y="51.23" width="3.21" height="2.47" rx=".84" ry=".84" transform="translate(-25.32 49.75) rotate(-49.3)"/>
    <rect class="st1" x="44" y="47.11" width="3.21" height="2.47" rx=".84" ry=".84" transform="translate(-20.67 43.45) rotate(-42.44)"/>
    <rect class="st1" x="48.7" y="43.35" width="3.21" height="2.47" rx=".84" ry=".84" transform="translate(-16.53 37.37) rotate(-35.39)"/>
    <rect class="st1" x="53.81" y="40.33" width="3.21" height="2.47" rx=".84" ry=".84" transform="translate(-13.12 31.52) rotate(-28.53)"/>
    <rect class="st1" x="59.33" y="37.77" width="3.21" height="2.47" rx=".84" ry=".84" transform="translate(-10.09 25.24) rotate(-21.65)"/>
    <rect class="st1" x="64.7" y="35.95" width="3.21" height="2.47" rx=".84" ry=".84" transform="translate(-7.36 18.39) rotate(-14.97)"/>
    <rect class="st1" x="70.49" y="34.33" width="3.21" height="2.47" rx=".84" ry=".84" transform="translate(-4.39 10.82) rotate(-8.33)"/>
    <rect class="st1" x="76.07" y="33.76" width="3.21" height="2.47" rx=".84" ry=".84" transform="translate(-.96 2.23) rotate(-1.63)"/>
  </g>
  <g>
    <rect class="st1" x="93.75" y="63.99" width="3.21" height="2.47" rx=".84" ry=".84" transform="translate(32.87 162.4) rotate(-91.63)"/>
    <rect class="st1" x="95.05" y="58.1" width="3.21" height="2.47" rx=".84" ry=".84" transform="translate(28.13 149.72) rotate(-84.38)"/>
    <rect class="st1" x="96.62" y="52.36" width="3.21" height="2.47" rx=".84" ry=".84" transform="translate(17.49 131.08) rotate(-72.44)"/>
    <rect class="st1" x="99.33" y="47.23" width="3.21" height="2.47" rx=".84" ry=".84" transform="translate(.42 97.8) rotate(-51.79)"/>
    <rect class="st1" x="103.19" y="42.75" width="3.21" height="2.47" rx=".84" ry=".84" transform="translate(-7.9 58.67) rotate(-30.2)"/>
    <rect class="st1" x="107.7" y="38.34" width="3.21" height="2.47" rx=".84" ry=".84" transform="translate(8.71 97.83) rotate(-49.98)"/>
    <rect class="st1" x="110.79" y="33.25" width="3.21" height="2.47" rx=".84" ry=".84" transform="translate(62.55 140.97) rotate(-81.97)"/>
    <rect class="st1" x="114.66" y="28.32" width="3.21" height="2.47" rx=".84" ry=".84" transform="translate(-1.81 50.74) rotate(-24.43)"/>
  </g>
  <g>
    <rect class="st1" x="84.55" y="101.27" width="3.21" height="2.47" rx=".84" ry=".84" transform="translate(143.8 223.38) rotate(-165.45)"/>
    <rect class="st1" x="78.93" y="100.87" width="3.21" height="2.47" rx=".84" ry=".84" transform="translate(159.14 205.71) rotate(-178.93)"/>
    <rect class="st1" x="72.92" y="101.33" width="3.21" height="2.47" rx=".84" ry=".84" transform="translate(169.41 186.65) rotate(167.55)"/>
    <rect class="st1" x="67.43" y="103.3" width="3.21" height="2.47" rx=".84" ry=".84" transform="translate(178.76 164.99) rotate(152.3)"/>
    <rect class="st1" x="62.48" y="106.57" width="3.21" height="2.47" rx=".84" ry=".84" transform="translate(183.59 145.83) rotate(138.38)"/>
    <rect class="st1" x="58.98" y="111.08" width="3.21" height="2.47" rx=".84" ry=".84" transform="translate(187.42 126.37) rotate(124.67)"/>
    <rect class="st1" x="57.05" y="116.62" width="3.21" height="2.47" rx=".84" ry=".84" transform="translate(187.91 92.9) rotate(105.53)"/>
    <rect class="st1" x="57.15" y="122.42" width="3.21" height="2.47" rx=".84" ry=".84" transform="translate(173.32 48.69) rotate(82.21)"/>
    <rect class="st1" x="59.64" y="127.77" width="3.21" height="2.47" rx=".84" ry=".84" transform="translate(139.88 9.79) rotate(58.81)"/>
    <rect class="st1" x="63.45" y="131.99" width="3.21" height="2.47" rx=".84" ry=".84" transform="translate(99.62 -10.95) rotate(39.51)"/>
    <rect class="st1" x="69.24" y="134.79" width="3.21" height="2.47" rx=".84" ry=".84" transform="translate(65.17 -17.24) rotate(25.39)"/>
    <rect class="st1" x="74.79" y="135.9" width="3.21" height="2.47" rx=".84" ry=".84" transform="translate(16.64 -8.03) rotate(6.75)"/>
    <rect class="st1" x="80.75" y="135.06" width="3.21" height="2.47" rx=".84" ry=".84" transform="translate(-23.56 17.38) rotate(-10.55)"/>
    <rect class="st1" x="86.31" y="132.7" width="3.21" height="2.47" rx=".84" ry=".84" transform="translate(-48.68 50.21) rotate(-25.21)"/>
    <rect class="st1" x="90.83" y="128.85" width="3.21" height="2.47" rx=".84" ry=".84" transform="translate(-61.51 88.03) rotate(-39.32)"/>
  </g>
  <path class="st1" d="M164.61,113c-.18,0-.36-.04-.53-.14-.54-.29-.73-.97-.44-1.5,2.37-4.32,3.67-9.12,3.76-13.88.01-.67.03-1.41.01-2.22-.01-.61.48-1.12,1.09-1.13.64-.04,1.12.48,1.13,1.09.01.84,0,1.61-.01,2.3-.1,5.12-1.5,10.27-4.04,14.9-.2.37-.58.58-.97.58Z"/>
  <path class="st1" d="M166.97,88.17c-.44,0-.86-.26-1.03-.7-.27-.67-.62-1.39-1.03-2.11-1.6-2.8-3.88-5.12-6.77-6.9-.52-.32-.68-1-.36-1.53.32-.52,1.01-.68,1.53-.36,3.2,1.98,5.74,4.57,7.53,7.69.46.82.85,1.62,1.16,2.39.23.57-.05,1.21-.62,1.44-.13.05-.27.08-.41.08Z"/>
  <path class="st1" d="M76.31,125.63c-3.06,0-5.56-2.49-5.56-5.56s2.49-5.56,5.56-5.56,5.56,2.49,5.56,5.56-2.49,5.56-5.56,5.56ZM76.31,116.73c-1.84,0-3.34,1.5-3.34,3.34s1.5,3.34,3.34,3.34,3.34-1.5,3.34-3.34-1.5-3.34-3.34-3.34Z"/>
  <g>
    <path class="st1" d="M120.53,123.29c-3.06,0-5.56-2.49-5.56-5.56s2.49-5.56,5.56-5.56,5.56,2.49,5.56,5.56-2.49,5.56-5.56,5.56ZM120.53,114.39c-1.84,0-3.34,1.5-3.34,3.34s1.5,3.34,3.34,3.34,3.34-1.5,3.34-3.34-1.5-3.34-3.34-3.34Z"/>
    <path class="st1" d="M158.77,118.84h-33.79c-.61,0-1.11-.5-1.11-1.11s.5-1.11,1.11-1.11h33.79c.61,0,1.11.5,1.11,1.11s-.5,1.11-1.11,1.11Z"/>
    <g>
      <path class="st1" d="M158.76,118.84c-.23,0-.45-.07-.65-.21l-8.07-5.84c-.5-.36-.61-1.05-.25-1.55.36-.5,1.05-.61,1.55-.25l8.07,5.84c.5.36.61,1.05.25,1.55-.22.3-.56.46-.9.46Z"/>
      <path class="st1" d="M150.7,124.68c-.34,0-.68-.16-.9-.46-.36-.49-.25-1.19.25-1.55l8.07-5.84c.49-.36,1.19-.25,1.55.25.36.49.25,1.19-.25,1.55l-8.07,5.84c-.2.14-.42.21-.65.21Z"/>
    </g>
  </g>
  <g>
    <path class="st0" d="M172.15,78.24s-.08,0-.12,0c-.61-.06-1.05-.61-.99-1.22.4-3.89.93-17.47-9.14-28.62-7.44-8.24-16.64-10.77-21.46-11.54-.6-.1-1.02-.67-.92-1.27.1-.6.66-1.02,1.27-.92,5.11.82,14.87,3.5,22.76,12.24,10.68,11.84,10.12,26.21,9.7,30.34-.06.57-.54.99-1.1.99Z"/>
    <g>
      <path class="st0" d="M172.14,78.24c-.23,0-.45-.07-.65-.21-.5-.36-.61-1.05-.25-1.55l5.84-8.07c.36-.5,1.05-.61,1.55-.25.5.36.61,1.05.25,1.55l-5.84,8.07c-.22.3-.56.46-.9.46Z"/>
      <path class="st0" d="M172.15,78.24c-.34,0-.68-.16-.9-.46l-5.84-8.07c-.36-.49-.25-1.19.25-1.55.49-.36,1.19-.25,1.55.25l5.84,8.07c.36.49.25,1.19-.25,1.55-.2.14-.42.21-.65.21Z"/>
    </g>
  </g>
  <g>
    <path class="st1" d="M173.37,120.93c-.58,0-1.06-.45-1.1-1.03-.04-.61.42-1.14,1.03-1.18,2.01-.14,8.82-.97,11.85-5.94,1.5-2.46,1.6-5.09,1.71-8.43.14-3.71-.37-7.42-1.48-11.03-.18-.58.14-1.21.73-1.39.59-.18,1.21.15,1.39.73,1.19,3.85,1.73,7.8,1.58,11.77-.12,3.52-.23,6.55-2.04,9.51-3.49,5.72-10.67,6.8-13.59,6.99-.03,0-.05,0-.08,0Z"/>
    <g>
      <path class="st1" d="M182.23,103.13c-.16,0-.32-.03-.47-.1-.55-.26-.8-.92-.54-1.47l4.2-9.03c.26-.56.92-.8,1.47-.54.55.26.8.92.54,1.47l-4.2,9.03c-.19.4-.59.64-1,.64Z"/>
      <path class="st1" d="M193.7,100.9c-.27,0-.54-.1-.76-.3l-7.27-6.81c-.45-.42-.47-1.12-.05-1.57.42-.45,1.12-.47,1.57-.05l7.27,6.81c.45.42.47,1.12.05,1.57-.22.23-.51.35-.81.35Z"/>
    </g>
  </g>
  <g>
    <g>
      <path class="st1" d="M90.99,123.13c-.39,0-.77-.2-.97-.57-.3-.53-.11-1.21.43-1.51l8.7-4.85c.54-.3,1.21-.1,1.51.43.3.53.11,1.21-.43,1.51l-8.7,4.85c-.17.1-.36.14-.54.14Z"/>
      <path class="st1" d="M101.58,128.05c-.52,0-.98-.37-1.09-.9l-1.89-9.78c-.12-.6.28-1.18.88-1.3.59-.12,1.18.27,1.3.88l1.89,9.78c.12.6-.28,1.18-.88,1.3-.07.01-.14.02-.21.02Z"/>
    </g>
    <path class="st1" d="M96.16,126.47c-.15,0-.3-.03-.44-.09-.56-.24-.82-.89-.58-1.46l3.52-8.19c.24-.56.9-.82,1.46-.58.56.24.82.89.58,1.46l-3.52,8.19c-.18.42-.59.67-1.02.67Z"/>
  </g>
  <g>
    <g>
      <path class="st1" d="M91.84,35.46c-.21,0-.43-.06-.62-.19l-8.23-5.61c-.5-.34-.63-1.03-.29-1.54.34-.5,1.03-.64,1.54-.29l8.23,5.61c.5.34.63,1.03.29,1.54-.21.31-.56.48-.92.48Z"/>
      <path class="st1" d="M83.95,41.52c-.33,0-.66-.15-.88-.43-.37-.49-.28-1.18.2-1.55l7.9-6.06c.49-.37,1.18-.28,1.55.2.37.49.28,1.18-.2,1.55l-7.9,6.06c-.2.15-.44.23-.67.23Z"/>
    </g>
    <path class="st1" d="M82.94,35.96c-.58,0-1.07-.46-1.11-1.04-.03-.61.43-1.14,1.04-1.17l8.9-.51c.59-.04,1.13.43,1.17,1.04.03.61-.43,1.14-1.04,1.17l-8.9.51s-.04,0-.06,0Z"/>
  </g>
  <g>
    <g>
      <path class="st1" d="M34.03,91.1c-.48,0-.92-.31-1.06-.79l-2.83-9.55c-.17-.59.16-1.2.75-1.38.59-.18,1.2.16,1.38.75l2.83,9.55c.17.59-.16,1.2-.75,1.38-.11.03-.21.05-.31.05Z"/>
      <path class="st1" d="M41.16,81.84h-.03l-9.95-.29c-.61-.02-1.09-.53-1.08-1.14s.54-1.1,1.14-1.08l9.95.29c.61.02,1.09.53,1.08,1.14-.02.6-.51,1.08-1.11,1.08Z"/>
    </g>
    <path class="st1" d="M57.21,100.93c-.23,0-.46-.07-.66-.22l-26.01-19.38c-.49-.37-.59-1.06-.23-1.55.37-.49,1.06-.6,1.55-.23l26.01,19.38c.49.37.59,1.06.23,1.55-.22.29-.55.45-.89.45Z"/>
  </g>
  <path class="st1" d="M168.14,96.36c-2.92,0-5.3-2.38-5.3-5.3s2.38-5.3,5.3-5.3,5.3,2.38,5.3,5.3-2.38,5.3-5.3,5.3ZM168.14,87.98c-1.7,0-3.08,1.38-3.08,3.08s1.38,3.08,3.08,3.08,3.08-1.38,3.08-3.08-1.38-3.08-3.08-3.08Z"/>
  <path class="st1" d="M84.94,83.26c-2.92,0-5.3-2.37-5.3-5.3s2.38-5.3,5.3-5.3,5.3,2.38,5.3,5.3-2.37,5.3-5.3,5.3ZM84.94,74.88c-1.7,0-3.08,1.38-3.08,3.08s1.38,3.08,3.08,3.08,3.08-1.38,3.08-3.08-1.38-3.08-3.08-3.08Z"/>
  <path class="st1" d="M51.77,83.26c-2.92,0-5.3-2.37-5.3-5.3s2.38-5.3,5.3-5.3,5.3,2.38,5.3,5.3-2.37,5.3-5.3,5.3ZM51.77,74.88c-1.7,0-3.08,1.38-3.08,3.08s1.38,3.08,3.08,3.08,3.08-1.38,3.08-3.08-1.38-3.08-3.08-3.08Z"/>
  <path class="st1" d="M65.02,68.47c-3.66,0-6.64-2.98-6.64-6.64s2.98-6.64,6.64-6.64,6.64,2.98,6.64,6.64-2.98,6.64-6.64,6.64ZM65.02,57.41c-2.44,0-4.42,1.98-4.42,4.42s1.98,4.42,4.42,4.42,4.42-1.98,4.42-4.42-1.98-4.42-4.42-4.42Z"/>
  <path class="st1" d="M53.87,75.46c-.27,0-.53-.1-.75-.29-.45-.41-.48-1.11-.07-1.57l7.56-8.31c.41-.45,1.12-.48,1.57-.07.45.41.48,1.11.07,1.57l-7.56,8.31c-.22.24-.52.36-.82.36Z"/>
  <path class="st1" d="M81.88,76.22c-.24,0-.47-.08-.68-.23l-12.62-9.73c-.48-.37-.57-1.07-.2-1.55.37-.48,1.07-.58,1.55-.2l12.62,9.73c.48.37.57,1.07.2,1.55-.22.28-.55.43-.88.43Z"/>
  <path class="st1" d="M64.57,96.35c-.33,0-.66-.15-.87-.43l-10.7-13.67c-.38-.48-.29-1.18.19-1.56.48-.38,1.18-.29,1.56.19l10.7,13.67c.38.48.29,1.18-.19,1.56-.2.16-.44.24-.68.24Z"/>
  <path class="st1" d="M133.3,75.49c-3.95,0-7.16-3.21-7.16-7.16s3.21-7.16,7.16-7.16,7.16,3.21,7.16,7.16-3.21,7.16-7.16,7.16ZM133.3,63.39c-2.72,0-4.94,2.22-4.94,4.94s2.22,4.94,4.94,4.94,4.94-2.22,4.94-4.94-2.22-4.94-4.94-4.94Z"/>
  <path class="st1" d="M147.41,150.78c-10.36,0-18.79-8.44-18.79-18.81v-.16c0-.61.5-1.11,1.11-1.11s1.11.5,1.11,1.11v.16c0,9.15,7.44,16.59,16.58,16.59s16.24-7,16.56-15.94c.02-.61.53-1.06,1.15-1.07.61.02,1.09.54,1.07,1.15-.36,10.13-8.61,18.07-18.78,18.07Z"/>
  <path class="st1" d="M147.41,164.55c-17.19,0-31.46-13.42-32.49-30.56-.04-.61.43-1.14,1.04-1.17.59-.04,1.14.43,1.17,1.04.96,15.97,14.26,28.48,30.28,28.48s30.29-13.56,30.36-30.23c0-.61.52-1.18,1.11-1.1.61,0,1.11.5,1.1,1.11-.08,17.89-14.69,32.44-32.58,32.44Z"/>
  <path class="st1" d="M110.4,157.85c-2.32,0-5.22-.4-8.24-1.84-6.65-3.17-9.25-9.13-10.06-11.54-.19-.58.12-1.21.7-1.4.58-.19,1.21.12,1.4.7.56,1.67,2.86,7.36,8.91,10.25,4.26,2.03,8.29,1.73,10.31,1.36,4.37-.79,7.35-3.12,8.74-4.44.44-.42,1.14-.4,1.57.04.42.44.4,1.15-.04,1.57-1.57,1.49-4.93,4.12-9.87,5.01-.86.15-2.03.3-3.42.3Z"/>
  <path class="st1" d="M141.44,183.78h-14.88c-.5,0-.94-.33-1.07-.82-1.42-5.22-3.62-10.17-6.54-14.71-2.55-3.95-5.61-7.55-9.12-10.7-.46-.41-.49-1.11-.09-1.56.41-.46,1.11-.49,1.56-.09,3.66,3.28,6.86,7.03,9.51,11.15,2.89,4.49,5.1,9.37,6.58,14.51h12.64l-4.6-19.81c-.14-.6.23-1.19.83-1.33.6-.14,1.19.23,1.33.83l4.91,21.17c.08.33,0,.68-.21.94-.21.26-.53.42-.87.42Z"/>
  <g>
    <rect class="st1" x="107.89" y="94.21" width="3.21" height="2.47" rx=".84" ry=".84"/>
    <rect class="st1" x="113.72" y="94.21" width="3.21" height="2.47" rx=".84" ry=".84"/>
    <rect class="st1" x="119.55" y="94.21" width="3.21" height="2.47" rx=".84" ry=".84"/>
    <rect class="st1" x="125.38" y="94.21" width="3.21" height="2.47" rx=".84" ry=".84"/>
  </g>
</svg>