<?xml version="1.0" encoding="UTF-8"?>
<svg id="Ebene_1" xmlns="http://www.w3.org/2000/svg" version="1.1" viewBox="0 0 200 200">
  <!-- Generator: Adobe Illustrator 30.0.0, SVG Export Plug-In . SVG Version: 2.1.1 Build 123)  -->
  <defs>
    <style>
      .st0 {
        fill: #f9b50f;
      }
    </style>
  </defs>
  <path class="st0" d="M200,190.38V9.62c0-5.31-4.31-9.62-9.62-9.62s-9.62,4.31-9.62,9.62v157.53L16.42,2.82C12.67-.94,6.58-.94,2.82,2.82c-3.76,3.76-3.76,9.85,0,13.61l164.33,164.33H9.62c-5.31,0-9.62,4.31-9.62,9.62s4.31,9.62,9.62,9.62h180.76c1.24,0,2.42-.25,3.51-.68.05-.02.1-.03.15-.05,2.37-.98,4.26-2.87,5.24-5.24.02-.05.03-.1.05-.15.43-1.09.68-2.27.68-3.51Z"/>
</svg>