<?xml version="1.0" encoding="UTF-8"?>
<svg id="Ebene_1" xmlns="http://www.w3.org/2000/svg" version="1.1" viewBox="0 0 200 200">
  <!-- Generator: Adobe Illustrator 30.0.0, SVG Export Plug-In . SVG Version: 2.1.1 Build 123)  -->
  <defs>
    <style>
      .st0 {
        fill: #ffb800;
      }

      .st1 {
        fill: #f9fafb;
      }
    </style>
  </defs>
  <circle class="st1" cx="100" cy="100" r="100"/>
  <g>
    <path class="st0" d="M49.63,107.2h100.73c3.97,0,7.19-3.22,7.19-7.2s-3.22-7.2-7.19-7.2H49.63c-3.97,0-7.19,3.22-7.19,7.2s3.22,7.2,7.19,7.2Z"/>
    <path class="st0" d="M100,157.56c1.84,0,3.68-.7,5.09-2.11l50.37-50.37c2.81-2.81,2.81-7.37,0-10.18l-50.37-50.37c-2.81-2.81-7.36-2.81-10.17,0-2.81,2.81-2.81,7.37,0,10.18l45.28,45.28-45.28,45.28c-2.81,2.81-2.81,7.37,0,10.18,1.4,1.4,3.24,2.11,5.09,2.11Z"/>
  </g>
</svg>