<?xml version="1.0" encoding="UTF-8"?>
<svg id="Ebene_1" xmlns="http://www.w3.org/2000/svg" version="1.1" viewBox="0 0 200 200">
  <!-- Generator: Adobe Illustrator 30.0.0, SVG Export Plug-In . SVG Version: 2.1.1 Build 123)  -->
  <defs>
    <style>
      .st0 {
        fill: #f9b50f;
      }
    </style>
  </defs>
  <path class="st0" d="M199.68,182.35l-46.86-140.56c-.69-2.07-2.4-3.63-4.52-4.13-2.13-.51-4.35.13-5.89,1.67l-40.68,40.68L68.14,12.85c-1.14-2.28-3.57-3.68-6.07-3.46-2.54.18-4.72,1.87-5.52,4.28L.32,182.35c-.64,1.92-.32,4.03.86,5.67,1.18,1.64,3.08,2.61,5.1,2.61h187.42c2.02,0,3.92-.97,5.1-2.61,1.18-1.64,1.51-3.75.87-5.67ZM63.68,32.06l30.69,61.38c.91,1.81,2.62,3.07,4.62,3.4,1.99.33,4.03-.33,5.45-1.76l39.65-39.65,25.48,76.43c-22.13,12.91-43.74,11.53-65.95-4.19-22.64-15.99-45.6-19.37-68.41-10.2l28.46-85.39ZM15.02,178.05l14.6-43.81c22.39-13.4,44.23-12.2,66.74,3.7,14.41,10.2,28.94,15.3,43.47,15.3,11.28,0,22.55-3.12,33.79-9.25l11.36,34.06H15.02Z"/>
</svg>