<?xml version="1.0" encoding="UTF-8"?>
<svg id="Ebene_1" xmlns="http://www.w3.org/2000/svg" version="1.1" viewBox="0 0 200 200">
  <!-- Generator: Adobe Illustrator 30.0.0, SVG Export Plug-In . SVG Version: 2.1.1 Build 123)  -->
  <defs>
    <style>
      .st0 {
        fill: #f9b50f;
      }
    </style>
  </defs>
  <path class="st0" d="M95.28,200c-3.16,0-5.71-2.56-5.71-5.71v-94.3c0-3.16,2.56-5.71,5.71-5.71s5.71,2.56,5.71,5.71v94.3c0,3.16-2.56,5.71-5.71,5.71Z"/>
  <path class="st0" d="M151.87,171.71h0c-1.52,0-2.97-.6-4.04-1.67l-18.86-18.86c-2.23-2.23-2.23-5.85,0-8.08,2.23-2.23,5.85-2.23,8.08,0l14.82,14.82,33.68-33.68c2.23-2.23,5.85-2.23,8.08,0s2.23,5.85,0,8.08l-37.72,37.72c-1.07,1.07-2.52,1.67-4.04,1.67Z"/>
  <path class="st0" d="M95.3,199.97c-4.25,0-8.51-1.1-12.3-3.29l-65.99-37.71c-7.59-4.38-12.29-12.52-12.31-21.26V62.27c.02-8.75,4.72-16.9,12.29-21.26L83.02,3.27c7.56-4.36,16.98-4.36,24.55.01l65.99,37.71c7.59,4.38,12.3,12.53,12.31,21.27v29.49c0,3.16-2.56,5.71-5.71,5.71s-5.71-2.56-5.71-5.71v-29.49c0-4.67-2.52-9.03-6.57-11.37L101.88,13.19c-4.08-2.36-9.11-2.35-13.16-.01L22.68,50.91c-4.02,2.32-6.55,6.69-6.55,11.36v75.43c0,4.67,2.53,9.02,6.57,11.35l65.99,37.71c4.08,2.36,9.11,2.36,13.17.02l12.47-7.12c2.73-1.58,6.23-.61,7.79,2.13,1.57,2.74.61,6.23-2.13,7.8l-12.45,7.1c-3.77,2.17-8.01,3.26-12.24,3.26Z"/>
  <path class="st0" d="M95.28,105.7c-.98,0-1.96-.25-2.85-.76L10.31,57.79c-2.73-1.57-3.68-5.06-2.11-7.8,1.57-2.73,5.06-3.69,7.8-2.11l79.28,45.52,79.29-45.52c2.74-1.58,6.23-.63,7.8,2.11,1.57,2.74.63,6.23-2.11,7.8l-82.14,47.15c-.88.51-1.86.76-2.85.76Z"/>
  <path class="st0" d="M137.69,81.35c-.96,0-1.94-.24-2.83-.75L50.01,32.05c-2.73-1.57-3.69-5.06-2.12-7.8,1.57-2.74,5.05-3.68,7.8-2.12l84.84,48.55c2.73,1.57,3.69,5.06,2.12,7.8-1.05,1.84-2.99,2.88-4.97,2.88Z"/>
</svg>