<?xml version="1.0" encoding="UTF-8"?>
<svg id="Ebene_1" xmlns="http://www.w3.org/2000/svg" version="1.1" viewBox="0 0 200 200">
  <!-- Generator: Adobe Illustrator 30.0.0, SVG Export Plug-In . SVG Version: 2.1.1 Build 123)  -->
  <defs>
    <style>
      .st0 {
        fill: #f9b50f;
      }
    </style>
  </defs>
  <path class="st0" d="M137.52,125.18c-.93,0-1.87-.21-2.76-.65l-37.53-18.76c-2.09-1.05-3.42-3.19-3.42-5.53v-56.29c0-3.41,2.76-6.18,6.18-6.18s6.18,2.77,6.18,6.18v52.47l34.11,17.06c3.05,1.53,4.29,5.24,2.76,8.29-1.09,2.17-3.27,3.42-5.54,3.42Z"/>
  <path class="st0" d="M90.63,199.77c-.21,0-.42,0-.62-.03C38.69,194.58,0,151.8,0,100.24,0,45.09,44.86.23,100,.23s100,44.86,100,100c0,3.41-2.76,6.18-6.18,6.18s-6.18-2.77-6.18-6.18c0-48.32-39.32-87.64-87.64-87.64S12.36,51.91,12.36,100.24c0,45.19,33.91,82.68,78.87,87.2,3.4.34,5.87,3.37,5.54,6.77-.32,3.19-3.01,5.56-6.15,5.56Z"/>
  <path class="st0" d="M142.22,195.54h0c-1.64,0-3.21-.65-4.37-1.81l-23.45-23.45c-2.41-2.41-2.41-6.33,0-8.74,2.41-2.41,6.33-2.41,8.74,0l19.08,19.08,47.23-47.23c2.41-2.41,6.33-2.41,8.74,0s2.41,6.33,0,8.74l-51.6,51.6c-1.16,1.16-2.73,1.81-4.37,1.81Z"/>
</svg>