<?xml version="1.0" encoding="UTF-8"?>
<svg id="Ebene_1" xmlns="http://www.w3.org/2000/svg" version="1.1" viewBox="0 0 200 200">
  <!-- Generator: Adobe Illustrator 30.0.0, SVG Export Plug-In . SVG Version: 2.1.1 Build 123)  -->
  <defs>
    <style>
      .st0 {
        fill: #252d5d;
      }

      .st1 {
        fill: #69f;
      }
    </style>
  </defs>
  <path class="st1" d="M195.41,28.7h-108.42c-2.54,0-4.59-2.06-4.59-4.59s2.05-4.59,4.59-4.59h108.42c2.54,0,4.59,2.06,4.59,4.59s-2.05,4.59-4.59,4.59Z"/>
  <path class="st1" d="M195.41,104.59h-108.42c-2.54,0-4.59-2.06-4.59-4.59s2.05-4.59,4.59-4.59h108.42c2.54,0,4.59,2.06,4.59,4.59s-2.05,4.59-4.59,4.59Z"/>
  <path class="st1" d="M195.41,180.49h-108.42c-2.54,0-4.59-2.05-4.59-4.59s2.05-4.59,4.59-4.59h108.42c2.54,0,4.59,2.05,4.59,4.59s-2.05,4.59-4.59,4.59Z"/>
  <path class="st0" d="M21.94,72.07c-2.54,0-4.59-2.06-4.59-4.59V17.86h-6.25c-2.54,0-4.59-2.06-4.59-4.59s2.05-4.59,4.59-4.59h10.84c2.54,0,4.59,2.06,4.59,4.59v54.21c0,2.54-2.05,4.59-4.59,4.59Z"/>
  <path class="st0" d="M32.78,72.07H11.1c-2.54,0-4.59-2.06-4.59-4.59s2.05-4.59,4.59-4.59h21.69c2.54,0,4.59,2.06,4.59,4.59s-2.05,4.59-4.59,4.59Z"/>
  <path class="st0" d="M38.2,191.33H4.59C2.06,191.33,0,189.27,0,186.73c0-6.95,6.49-12.39,13.35-18.15,6.96-5.83,14.83-12.44,14.83-19.79,0-6.44-5.23-11.67-11.67-11.67-3.24,0-6.36,1.36-8.56,3.74-1.72,1.86-4.63,1.97-6.49.25-1.86-1.72-1.97-4.63-.25-6.49,3.93-4.24,9.5-6.68,15.3-6.68,11.5,0,20.85,9.35,20.85,20.86s-10.05,20.07-18.12,26.84c-2.45,2.06-5.24,4.39-7.25,6.52h26.19c2.54,0,4.59,2.05,4.59,4.59s-2.05,4.59-4.59,4.59Z"/>
</svg>