<?xml version="1.0" encoding="UTF-8"?>
<svg id="Ebene_1" data-name="Ebene 1" xmlns="http://www.w3.org/2000/svg" viewBox="0 0 139.81 23.58">
  <defs>
    <style>
      .cls-1 {
        fill: #1f3c85;
      }
    </style>
  </defs>
  <path class="cls-1" d="M37.26.79c-.05.1-.13.2-.2.32-.3.44-.77,1.08-1.38,1.85-2.29,2.9-6.35,7.9-8.98,12.72.69.02,1.35-.07,2-.29,1.04-.35,1.28-.69.91-1.08l.3-.3c.67.66.25,1.35-1.08,1.8-.77.27-1.57.34-2.38.29-.57,1.09-1.08,2.19-1.47,3.23l-.42-.17c.37-1.01.86-2.06,1.42-3.1-1.5-.19-3.03-.77-4.53-1.38-4.78,3.72-10.21,6.7-15.63,6.7-11.05,0-5.1-12.15,7.21-12.15,4.5,0,5.56,1.7,4.82,3.55,1.01.3,2.06.74,3.1,1.2.15.07.3.12.44.19,4.19-3.28,7.92-7.14,10.7-9.99.94-.94,2.26-2.31,3.33-3.22.3-.24.57-.45.81-.61.37-.25.67-.37.89-.37.4,0,.4.35.13.79ZM21,14.49c-.07-.02-.15-.05-.22-.08-1.06-.46-2.11-.89-3.12-1.2-1.15,2.14-4.5,4.36-7.65,4.36-3.57,0-.66-5.26,4.78-5.26.71,0,1.43.1,2.21.27l.44.1c.56-1.58-.49-3-4.41-3-11.89,0-17.45,11.27-7.21,11.27,5.24,0,10.5-2.86,15.18-6.47ZM16.91,13c-.72-.15-1.43-.25-2.11-.25-4.99,0-7.46,4.38-4.78,4.38,3.08,0,6.27-2.07,7.24-4.04-.12-.03-.24-.05-.35-.08ZM36.89.57s.03-.07.05-.08c-.12.03-.27.13-.46.25-.22.13-.47.32-.77.57-1.06.89-2.38,2.24-3.3,3.18-2.75,2.8-6.4,6.59-10.55,9.87,1.47.61,2.93,1.15,4.35,1.28,2.66-4.92,6.81-10.02,9.11-12.95.61-.77,1.08-1.4,1.36-1.82l.2-.3Z"/>
  <path class="cls-1" d="M34.16,17.59l-.25.15-.24-.37.25-.15.24.37Z"/>
  <path class="cls-1" d="M80.15,16.39c-4.65,2.09-6.47,2.71-7.08,2.29-.74-.52-.27-1.57,1.53-3.94.76-.99,1.16-1.67,1.16-1.68-.42-.32-3.52,1.89-6.4,4.58l-.08.1h-.02l-.15-.15-.17-.15c.89-.98,3.23-3.91,4.38-6.03.99-1.85,1.5-3.3,1.33-3.37-.59-.24-2.07.86-4.23,3.17-1.48,1.58-3.3,3.76-5.42,6.47l-.35-.25v-.02c.05-.05.08-.1.13-.17,1.38-1.94,3.4-5.51,4.89-8.66,1.57-3.35,2.17-5.61,1.68-5.9-.37-.22-1.42.69-4.31,4.01-1.01,1.15-2.04,2.44-3.12,3.82-1.99,2.54-4.18,5.31-6.67,7.65.61.27,1.23.59,1.85.91l-.2.4c-.69-.35-1.35-.69-2-.99-3.23,2.93-7.01,5.1-11.62,5.1-13.71,0-9.85-15.57,11.56-5.63,2.53-2.33,4.72-5.12,6.76-7.72,1.08-1.38,2.11-2.7,3.12-3.84,3.12-3.57,4.18-4.51,4.88-4.09.81.49.22,2.7-1.53,6.45-.86,1.84-1.9,3.82-2.91,5.54,1.11-1.33,2.09-2.46,2.96-3.4,2.34-2.49,3.86-3.61,4.7-3.27.69.27.03,1.89-1.11,3.98-.66,1.23-1.72,2.73-2.66,3.98,2.41-2.07,4.41-3.33,5-2.86.42.34-.17,1.08-1.08,2.29-1.62,2.12-2.04,3.01-1.63,3.3.37.27,2.29-.37,6.64-2.33l.19.4ZM56.48,18.28c-20.57-9.48-24.12,4.87-11.2,4.87,4.41,0,8.05-2.05,11.2-4.87Z"/>
  <path class="cls-1" d="M88.66,16.39c-2,1.01-5.14,2.27-7.08,1.87-1.25-.25-1.79-1.16-1.74-2.04v-.03c.08-.89.81-1.73,2.11-1.73.51,0,.89.34.89.79,0,1.23-1.55,1.97-2.41,1.72.2.4.61.74,1.23.86,1.8.37,4.8-.83,6.81-1.84l.19.4ZM80.29,16.22c.05.77,2.12.22,2.12-.98,0-.2-.19-.35-.46-.35-1.03,0-1.6.64-1.67,1.33Z"/>
  <path class="cls-1" d="M99.63,16.39c-1.74.84-4.55,1.63-6.6,1.63s-3.15-.49-3.15-1.52c0-.25.07-.51.2-.76-.39.19-.86.39-1.43.64l-.17-.4c1.43-.61,2.19-.99,2.48-1.23l.02-.02.29.34c-.69.59-.94.98-.94,1.43,0,.71.86,1.08,2.71,1.08,1.99,0,4.7-.76,6.4-1.6l.2.4ZM92.47,14.18l-.24-.37.88-.57.24.37-.88.57Z"/>
  <path class="cls-1" d="M101.87,19.73c1.68,0,2.44-.35,2.44-1.08,0-.62-.49-1.42-.94-2.19-.4-.66-.79-1.3-.79-1.77s.39-.72,1.08-.72c2.02,0,3.59-2.59,3.59-4.04,0-.49-.2-.74-.56-.74-.25,0-.57.12-.96.32-2.93,1.53-7.4,7.65-7.4,10.98,0,.66.17,1.16.52,1.5l-.3.3c-.44-.42-.66-1.03-.66-1.8,0-3.47,4.62-9.79,7.63-11.39.44-.22.83-.35,1.16-.35.62,0,.99.45.99,1.18,0,1.57-1.77,4.48-4.03,4.48-.47,0-.64.08-.64.29,0,.35.34.89.72,1.55.47.78,1.01,1.67,1.01,2.41,0,1.03-.98,1.52-2.88,1.52v-.44Z"/>
  <path class="cls-1" d="M120.35,16.39c-1.73.81-3.91,1.63-5.96,1.63-1.48,0-2.27-.39-2.27-1.21,0-.44.34-.98.61-1.4.2-.32.27-.46.29-.51-.15.03-.46.2-.99.52-1.35.79-2.9,2.34-2.9,2.34l-.3-.3.03-.03c.67-.67,1.7-2.54,1.55-2.71-.15-.15-.62,0-4.21,1.67l-.17-.4c3.69-1.72,4.3-1.99,4.68-1.57.25.27-.02.99-.42,1.72.47-.39,1.01-.79,1.52-1.1.39-.22.99-.59,1.3-.59.61,0,.46.49,0,1.2-.27.42-.54.86-.54,1.16,0,.51.59.78,1.84.78,1.99,0,4.06-.79,5.76-1.6l.2.4Z"/>
  <path class="cls-1" d="M128.84,16.39c-2,1.01-5.14,2.27-7.08,1.87-1.25-.25-1.79-1.16-1.74-2.04v-.03c.08-.89.81-1.73,2.11-1.73.51,0,.89.34.89.79,0,1.23-1.55,1.97-2.41,1.72.2.4.61.74,1.23.86,1.8.37,4.8-.83,6.81-1.84l.19.4ZM120.47,16.22c.05.77,2.12.22,2.12-.98,0-.2-.19-.35-.46-.35-1.03,0-1.6.64-1.67,1.33Z"/>
  <path class="cls-1" d="M139.81,16.39c-2.78,1.35-6.2.84-6.2-.93,0-.25.05-.47.13-.66-.74.34-1.52,1.26-2.07,1.99-.24.39-.47.71-.61.88l-.08.15h-.02l-.37-.24s.08-.13.2-.29c.1-.15.22-.34.37-.54.49-.71,1.09-1.68,1.09-2.12v-.02c-.15.02-.49.17-1.4.69-.57.34-1.28.74-2.04,1.08l-.17-.4c.72-.32,1.42-.72,1.99-1.06,1.01-.57,1.36-.74,1.63-.74s.42.19.42.45c0,.13-.03.29-.1.47.56-.5,1.16-.89,1.72-.89s.96.25.96.74h-.44c0-.19-.13-.29-.4-.3-.25.15-.39.42-.39.81,0,1.36,3.13,1.7,5.56.52l.2.4Z"/>
</svg>