<?xml version="1.0" encoding="UTF-8"?>
<svg id="Ebene_1" xmlns="http://www.w3.org/2000/svg" version="1.1" viewBox="0 0 200 200">
  <!-- Generator: Adobe Illustrator 30.0.0, SVG Export Plug-In . SVG Version: 2.1.1 Build 123)  -->
  <defs>
    <style>
      .st0 {
        fill: none;
      }

      .st1 {
        fill: #7199d0;
      }
    </style>
  </defs>
  <path class="st1" d="M199.92,62.72c2.34,61.13-46.51,109.85-107.64,107.33-42.22-1.74-77.91-28.8-92.28-66.4l8.36-3.19c1.46-.56,3.11.14,3.72,1.58,16.12,38.56,57.85,63.75,103.94,54.3,31.85-6.54,63.56-38.2,70.14-70.04,3.6-17.4,2.25-34.2-2.9-49.22-.58-1.68.28-3.52,1.95-4.16l8.01-3.06c3.92,10.27,6.26,21.33,6.7,32.87Z"/>
  <path class="st0" d="M188.18,66.75c0,50.58-41,91.57-91.57,91.57-39.06,0-72.41-24.46-85.57-58.89L182.18,34.07c3.88,10.15,6,21.17,6,32.68Z"/>
  <g>
    <path class="st1" d="M168.19,41.84c7.2-.39,8.36,6.01,9.21,11.72,1.41,9.49,1.57,27.82-2.25,36.63-2.37,5.48-6.34,4.77-11.43,3.49-9.84-2.47-18.57-8.29-27.74-12.33-7.45-3.28-15.72-5.24-23.1-8.6-1.02-.47-2.3-.92-2.86-1.9-.74-1.31-1.66-5.56-.42-6.63,1.6-1.36,7.42-3.43,9.64-4.32,9.3-3.72,18.92-7.05,28.37-10.39,3.19-1.13,19.54-7.61,20.58-7.67Z"/>
    <g>
      <path class="st1" d="M83.94,75.34c.72-.07,3.35-.23,3.62.55.32.95-.14,3.75-.38,4.82-1.29,5.59-5,12.83-7.5,18.12-5.78,12.26-12.03,24.39-18.3,36.39-4.52,6.85-11.76,1.95-16.64-1.56-7.1-5.12-20.48-19.29-22.69-27.74-2.27-8.68,6.39-8.65,11.49-12.01,1.95-1.28,2.69-1.29,4.77-2.12,2.3-.92,4.03-1.54,6.37-2.34,9.44-3.22,18.47-7.55,27.87-10.89,3.34-1.18,7.91-2.9,11.38-3.23Z"/>
      <path class="st1" d="M94.77,80.1c1.73-.26,2.91.22,3.73,1.76l20.12,55.26c4.49,14.02-18.16,14.42-26.69,14.04-5.47-.24-17.24-1.73-21.75-4.69-6.72-4.41,0-17.79,2.42-23.5,5.47-12.95,12.16-27.84,19.16-39.97.74-1.28,1.4-2.67,3.01-2.91Z"/>
      <path class="st1" d="M165.88,103.1c.71.78.96,3.27.87,4.3-.31,3.69-4.72,10.21-7.06,13.14-5.44,6.79-18.25,18.95-27.18,19.63-2.07.16-4.29-.28-5.91-1.64-1.05-.89-1.19-1.7-1.69-2.91-7.64-18.47-13.87-37.57-21.45-56.08-.38-1.49.93-3.36,2.45-3.57,2.27-.3,10.05,3.01,12.54,4.01,14.22,5.74,30.97,13.31,44.13,21.07.68.4,2.89,1.61,3.29,2.05Z"/>
    </g>
  </g>
</svg>