<?xml version="1.0" encoding="UTF-8"?>
<svg id="Ebene_1" xmlns="http://www.w3.org/2000/svg" version="1.1" viewBox="0 0 200 200">
  <!-- Generator: Adobe Illustrator 30.0.0, SVG Export Plug-In . SVG Version: 2.1.1 Build 123)  -->
  <defs>
    <style>
      .st0 {
        fill: #f9b50f;
      }
    </style>
  </defs>
  <path class="st0" d="M194.41,181.12H5.59c-3.09,0-5.59-2.5-5.59-5.59s2.5-5.59,5.59-5.59h188.81c3.09,0,5.59,2.5,5.59,5.59s-2.5,5.59-5.59,5.59Z"/>
  <path class="st0" d="M90.56,105.59c-1.43,0-2.86-.55-3.96-1.64l-18.88-18.88c-2.19-2.19-2.19-5.73,0-7.91s5.73-2.19,7.91,0l14.93,14.93,33.81-33.81c2.19-2.19,5.73-2.19,7.91,0s2.19,5.73,0,7.91l-37.76,37.76c-1.09,1.09-2.52,1.64-3.96,1.64Z"/>
  <path class="st0" d="M166.08,143.36H33.92c-13.49,0-24.48-10.98-24.48-24.48V43.36c0-13.49,10.98-24.48,24.48-24.48h132.17c13.49,0,24.48,10.98,24.48,24.48v75.52c0,13.49-10.98,24.48-24.48,24.48ZM33.92,30.07c-7.33,0-13.29,5.96-13.29,13.29v75.52c0,7.33,5.96,13.29,13.29,13.29h132.17c7.33,0,13.29-5.96,13.29-13.29V43.36c0-7.33-5.96-13.29-13.29-13.29H33.92Z"/>
</svg>