<?xml version="1.0" encoding="UTF-8"?>
<svg id="Ebene_1" xmlns="http://www.w3.org/2000/svg" version="1.1" viewBox="0 0 200 200">
  <!-- Generator: Adobe Illustrator 30.0.0, SVG Export Plug-In . SVG Version: 2.1.1 Build 123)  -->
  <defs>
    <style>
      .st0 {
        fill: #6e9de7;
      }
    </style>
  </defs>
  <path class="st0" d="M99.93,200c-14.42,0-28.78-3.16-42.23-9.44-1.57-.57-3.73-.77-5.84-.4l-31.51,9.21c-2.56.68-5.1.75-7.5.26-8.66-1.79-14.26-10.29-12.47-18.94.05-.24.11-.48.19-.71l9.82-30.34c.43-2.18.24-4.41-.54-6.48-12.97-27.1-13.12-58.23-.4-85.45C20.72,33.52,40.76,15.17,65.86,6.06c25.1-9.11,52.24-7.91,76.42,3.38,24.19,11.3,42.54,31.33,51.65,56.43,9.12,25.09,7.92,52.23-3.38,76.42-11.3,24.19-31.33,42.53-56.43,51.65-11.14,4.05-22.68,6.06-34.19,6.06ZM53.93,176.57c3.06,0,6.1.56,8.99,1.65,21.4,9.97,44.91,11.02,66.63,3.12,21.73-7.89,39.08-23.78,48.86-44.72,9.78-20.95,10.83-44.45,2.93-66.17-7.89-21.73-23.78-39.08-44.72-48.86-20.95-9.78-44.45-10.82-66.17-2.93-21.73,7.89-39.08,23.78-48.86,44.72-11.04,23.64-10.88,50.68.45,74.2.07.14.13.29.19.43,1.87,4.72,2.29,9.84,1.19,14.79-.05.21-.1.42-.17.63l-9.78,30.22c-.14,1.33.75,2.57,2.08,2.85.38.08.8.06,1.2-.04l31.66-9.26c.19-.06.38-.1.57-.14,1.64-.32,3.3-.49,4.95-.49Z"/>
  <path class="st0" d="M99.98,153.34c-4.13,0-8.03-1.56-11.04-4.42l-.57-.57-32.14-33.75c-6.39-6.69-9.8-15.47-9.59-24.73s4.01-17.88,10.71-24.28c11.64-11.13,29.42-12.57,42.63-4.15,6.08-3.92,13.17-5.84,20.57-5.42,9.25.5,17.75,4.57,23.93,11.46,5.7,6.35,8.85,14.54,8.87,23.07.03,9.01-3.39,17.56-9.62,24.07l-32.13,33.74c-2.95,3.1-6.93,4.87-11.21,4.97-.14,0-.28,0-.41,0ZM81.31,69.41c-5.31,0-10.62,1.96-14.7,5.86-4.11,3.93-6.44,9.22-6.57,14.9-.13,5.68,1.96,11.07,5.89,15.17,0,0,0,0,.01.01l32.14,33.76c.79.76,1.59.86,1.97.83.4-.01,1.18-.13,1.83-.81l32.15-33.76c3.83-4,5.93-9.25,5.91-14.78-.01-5.23-1.94-10.25-5.44-14.15-3.79-4.23-9-6.73-14.68-7.03-5.72-.34-11.13,1.62-15.35,5.41-2.55,2.29-6.41,2.29-8.96,0-4.02-3.61-9.11-5.4-14.2-5.4Z"/>
</svg>