<?xml version="1.0" encoding="UTF-8"?>
<svg id="Ebene_1" xmlns="http://www.w3.org/2000/svg" version="1.1" viewBox="0 0 139.81 23.58">
  <!-- Generator: Adobe Illustrator 30.0.0, SVG Export Plug-In . SVG Version: 2.1.1 Build 123)  -->
  <defs>
    <style>
      .st0 {
        fill: #1c2761;
      }
    </style>
  </defs>
  <path class="st0" d="M9.71,21.5C4.36,21.5,0,17.14,0,11.79S4.36,2.08,9.71,2.08s9.71,4.36,9.71,9.71-4.36,9.71-9.71,9.71ZM9.71,3.27C5.01,3.27,1.19,7.09,1.19,11.79s3.82,8.52,8.52,8.52,8.52-3.82,8.52-8.52S14.41,3.27,9.71,3.27Z"/>
  <path class="st0" d="M104.1,20.85h-10.46l-5.23-9.06,5.23-9.06h10.46l5.23,9.06-5.23,9.06ZM94.33,19.66h9.09l4.54-7.87-4.54-7.87h-9.09l-4.54,7.87,4.54,7.87Z"/>
  <path class="st0" d="M129.2,22.4l-10.61-10.61,10.61-10.61,10.61,10.61-10.61,10.61ZM120.28,11.79l8.93,8.93,8.93-8.93-8.93-8.93-8.93,8.93Z"/>
  <path class="st0" d="M67.83,21.5l-11.51-.08,5.68-10,5.82-9.93,5.82,9.92,5.69,10-11.5.08ZM58.35,20.25l9.47.06,9.46-.06-4.68-8.23-4.79-8.16-4.79,8.17-4.68,8.23Z"/>
  <path class="st0" d="M47.14,20.85h-18.12V2.73h18.12v18.12ZM30.21,19.66h15.74V3.92h-15.74v15.74Z"/>
</svg>