<?xml version="1.0" encoding="UTF-8"?>
<svg id="Ebene_1" xmlns="http://www.w3.org/2000/svg" version="1.1" viewBox="0 0 200 200">
  <!-- Generator: Adobe Illustrator 30.0.0, SVG Export Plug-In . SVG Version: 2.1.1 Build 123)  -->
  <defs>
    <style>
      .st0 {
        fill: #6e9de7;
      }
    </style>
  </defs>
  <path class="st0" d="M100,200c-4.83,0-8.74-3.92-8.74-8.75V8.74c0-4.83,3.91-8.74,8.74-8.74s8.75,3.91,8.75,8.74v182.51c0,4.83-3.92,8.75-8.75,8.75Z"/>
  <path class="st0" d="M191.25,51.71c-4.83,0-8.75-3.91-8.75-8.74v-22.81c0-1.47-1.19-2.66-2.66-2.66H20.15c-1.47,0-2.66,1.2-2.66,2.66v22.81c0,4.83-3.91,8.74-8.74,8.74S0,47.8,0,42.96v-22.81C0,9.04,9.04,0,20.15,0h159.69c11.11,0,20.15,9.04,20.15,20.15v22.81c0,4.83-3.92,8.74-8.75,8.74Z"/>
  <path class="st0" d="M134.22,200h-68.44c-4.83,0-8.74-3.92-8.74-8.75s3.91-8.75,8.74-8.75h68.44c4.83,0,8.75,3.92,8.75,8.75s-3.92,8.75-8.75,8.75Z"/>
</svg>