<?xml version="1.0" encoding="UTF-8"?>
<svg id="Ebene_1" xmlns="http://www.w3.org/2000/svg" version="1.1" viewBox="0 0 200 200">
  <!-- Generator: Adobe Illustrator 30.0.0, SVG Export Plug-In . SVG Version: 2.1.1 Build 123)  -->
  <defs>
    <style>
      .st0 {
        fill: #6e9de7;
      }
    </style>
  </defs>
  <path class="st0" d="M6.34,186.72c-.47,0-.96-.05-1.43-.17-3.41-.79-5.54-4.19-4.74-7.6l9.64-41.62c1.76-7.5,1.68-15.39-.24-22.83-.97-4.22-2.2-7.22-3.5-10.4C3.09,96.78,0,89.22,0,70.28.15,38.78,25.8,13.28,57.23,13.28h.27c15.29.07,29.63,6.09,40.39,16.95,10.76,10.86,16.65,25.26,16.58,40.55v53.38c-1.21,14.29-12.49,25.23-26.27,26-.34.01-.68,0-1.01-.03l-10.8-1.14v31.38c0,3.5-2.84,6.34-6.34,6.34s-6.34-2.84-6.34-6.34v-38.41c0-1.8.76-3.51,2.1-4.71,1.34-1.2,3.13-1.76,4.9-1.59l17.25,1.81c7.31-.64,13.22-6.51,13.85-13.86l-.02-52.87c.05-11.93-4.53-23.14-12.91-31.6-8.38-8.45-19.55-13.14-31.45-13.2-24.42-.09-44.65,19.79-44.76,44.36,0,16.42,2.49,22.53,5.13,28.99,1.43,3.5,2.91,7.13,4.07,12.19,2.38,9.26,2.49,19.24.27,28.71l-9.64,41.61c-.68,2.93-3.29,4.91-6.17,4.91Z"/>
  <path class="st0" d="M173.12,166.11c-1.62,0-3.25-.62-4.48-1.86-2.48-2.48-2.48-6.49,0-8.97,24.91-24.91,24.92-65.46.03-90.39-2.48-2.48-2.47-6.49,0-8.96,2.48-2.48,6.48-2.47,8.96,0,29.83,29.87,29.82,78.46-.03,108.31-1.24,1.24-2.86,1.86-4.48,1.86Z"/>
  <path class="st0" d="M146.89,139.87c-1.62,0-3.25-.62-4.48-1.86-2.48-2.48-2.48-6.49,0-8.97,10.32-10.32,10.32-27.1,0-37.42-2.46-2.46-2.59-6.56-.16-9.04,2.44-2.48,6.31-2.65,8.8-.23,15.57,15.57,15.57,40.4.32,55.66-1.24,1.24-2.86,1.86-4.48,1.86Z"/>
</svg>