<?xml version="1.0" encoding="UTF-8"?>
<svg id="Ebene_1" xmlns="http://www.w3.org/2000/svg" version="1.1" viewBox="0 0 200 200">
  <!-- Generator: Adobe Illustrator 30.0.0, SVG Export Plug-In . SVG Version: 2.1.1 Build 123)  -->
  <defs>
    <style>
      .st0 {
        fill: #8cc63f;
      }
    </style>
  </defs>
  <path class="st0" d="M199.97,6.89c0-3.79-3.07-6.85-6.85-6.85-18.58,0-33.18,4.46-43.61,13.13C128.04.89,103.13-2.98,78.77,2.31c-16.24,3.52-31.02,10.86-43.35,21.3C27.86,15.79,19.75,8.41,11.13,1.53,8.17-.83,3.86-.35,1.5,2.61-.86,5.57-.38,9.88,2.58,12.24c8.18,6.52,15.85,13.53,23.03,20.95-3.53,3.95-6.79,8.19-9.71,12.73C-13.93,92.29-.48,154.28,45.89,184.11c16.59,10.67,35.19,15.8,53.59,15.86.05,0,.1.02.16.02.12,0,.23,0,.35,0,.18,0,.35-.03.52-.05,32.67-.22,64.61-16.38,83.56-45.84,20.17-31.35,21.08-71.45,2.76-103.61,8.68-10.43,13.14-25.03,13.14-43.62ZM144.35,55.65c1.97-26.28,15.38-39.69,41.66-41.66-1.97,26.28-15.38,39.69-41.66,41.66ZM81.68,15.7c20.07-4.36,40.56-1.5,58.5,7.99-6.23,9.6-9.53,22.07-9.77,37.26-15.98,29.02-23.7,50.28-29.84,82.87-9.28-40.73-28.49-78.5-55.9-110.07,10.56-8.84,23.16-15.05,37.01-18.06ZM27.42,53.34c2.27-3.53,4.78-6.86,7.48-9.98,34.19,39.66,54.69,89.59,57.89,142.6-13.64-1.12-27.2-5.48-39.49-13.39C13.3,146.84,1.69,93.35,27.42,53.34ZM172.54,146.69c-14.91,23.18-39.14,36.8-64.67,39.18,7.67-56.45,13.51-79.7,33.46-116.33,14.16-.52,25.84-3.8,34.95-9.71,14.36,27.3,13.13,60.62-3.74,86.86Z"/>
</svg>