<?xml version="1.0" encoding="UTF-8"?>
<svg id="Ebene_1" xmlns="http://www.w3.org/2000/svg" version="1.1" viewBox="0 0 200 200">
  <!-- Generator: Adobe Illustrator 30.0.0, SVG Export Plug-In . SVG Version: 2.1.1 Build 123)  -->
  <defs>
    <style>
      .st0 {
        fill: #6e9de7;
      }
    </style>
  </defs>
  <path class="st0" d="M123.21,177.35c-6.88,0-13.75-2.62-18.99-7.85l-18.57-18.57c-2.8-2.8-2.8-7.34,0-10.14,2.8-2.8,7.34-2.8,10.13,0l18.57,18.57c4.89,4.89,12.83,4.88,17.72,0,2.36-2.37,3.66-5.51,3.66-8.86s-1.3-6.49-3.66-8.85c-2.8-2.8-2.81-7.33,0-10.13,2.79-2.79,7.33-2.81,10.13,0,5.07,5.07,7.87,11.82,7.87,18.99s-2.8,13.92-7.87,19c-5.24,5.23-12.11,7.85-19,7.85Z"/>
  <path class="st0" d="M155.7,154.15c-7.17,0-13.92-2.8-19-7.87l-23.21-23.21c-2.8-2.8-2.8-7.34,0-10.14,2.8-2.8,7.34-2.8,10.14,0l23.21,23.21c4.73,4.73,12.99,4.73,17.71,0,2.37-2.37,3.67-5.51,3.67-8.86s-1.3-6.49-3.67-8.86l-36.02-36.02c-8.06-8.05-21.17-8.04-29.23,0l-8.17,8.17c-10.47,10.47-27.51,10.47-37.98,0s-10.47-27.51,0-37.98l26.09-26.09c19.78-19.72,50.33-23.49,74.28-9.16l4.36,2.59c2.46,1.5,5.35,2.01,8.12,1.45l16.13-3.24c3.87-.78,7.66,1.73,8.43,5.61.78,3.88-1.73,7.65-5.61,8.44l-16.15,3.25c-6.31,1.25-12.81.11-18.3-3.22l-4.33-2.57c-18.33-10.97-41.69-8.08-56.81,6.99l-26.08,26.08c-4.88,4.89-4.88,12.83,0,17.72,4.89,4.88,12.83,4.88,17.72,0l8.17-8.17c13.63-13.64,35.84-13.64,49.49,0l36.02,36.02c5.07,5.07,7.87,11.82,7.87,19s-2.8,13.92-7.87,18.99c-5.06,5.07-11.81,7.87-18.98,7.87Z"/>
  <path class="st0" d="M192.83,125.18h-18.57c-3.96,0-7.17-3.21-7.17-7.17s3.21-7.17,7.17-7.17h10.72l-8.57-94.3c-.36-3.94,2.55-7.43,6.49-7.79,4.07-.36,7.43,2.55,7.79,6.49l9.29,102.11c.18,2.01-.49,4-1.84,5.48-1.36,1.48-3.28,2.34-5.29,2.34Z"/>
  <path class="st0" d="M81.43,191.29c-7.17,0-13.92-2.8-18.99-7.87L2.1,123.08c-1.51-1.5-2.26-3.6-2.07-5.72L9.31,15.25c.36-3.94,3.92-6.81,7.79-6.49,3.94.36,6.85,3.85,6.49,7.79l-8.98,98.77,57.97,57.97c4.73,4.73,12.99,4.73,17.72,0,4.89-4.88,4.89-12.83,0-17.71-2.8-2.8-2.8-7.34,0-10.14s7.33-2.8,10.13,0c10.47,10.47,10.47,27.52,0,37.99-5.07,5.07-11.81,7.87-18.99,7.87Z"/>
  <path class="st0" d="M90.72,32.34H16.45c-3.96,0-7.16-3.21-7.16-7.16s3.21-7.16,7.16-7.16h74.27c3.96,0,7.16,3.21,7.16,7.16s-3.21,7.16-7.16,7.16Z"/>
</svg>