<?xml version="1.0" encoding="UTF-8"?>
<svg id="Ebene_1" xmlns="http://www.w3.org/2000/svg" version="1.1" viewBox="0 0 200 200">
  <!-- Generator: Adobe Illustrator 30.0.0, SVG Export Plug-In . SVG Version: 2.1.1 Build 123)  -->
  <defs>
    <style>
      .st0 {
        fill: #6e9de7;
      }
    </style>
  </defs>
  <path class="st0" d="M100,200h-.51C44.36,199.72-.28,154.63,0,99.5c.13-26.71,10.66-51.77,29.64-70.56C48.62,10.14,73.95.11,100.5,0c3.18.02,6.38.19,9.5.5,3.68.37,6.37,3.66,6,7.34-.37,3.68-3.6,6.39-7.35,6-2.7-.27-5.47-.42-8.23-.43-23.17-.03-44.91,8.78-61.35,25.06-16.44,16.27-25.55,37.97-25.67,61.1-.24,47.74,38.41,86.78,86.15,87.02.15,0,.3,0,.44,0,22.96,0,44.58-8.89,60.91-25.06,16.43-16.27,25.55-37.97,25.66-61.1v-9.3c0-3.7,3.01-6.7,6.71-6.7s6.71,3,6.71,6.7v9.33c-.27,55-45.09,99.53-100,99.53Z"/>
  <path class="st0" d="M100,144.49c-26.37,0-42.03-20.47-42.68-21.34-2.22-2.97-1.62-7.17,1.34-9.39,2.96-2.22,7.15-1.62,9.37,1.32.17.22,12.46,15.99,31.97,15.99s31.84-15.84,31.97-15.99c2.23-2.94,6.43-3.54,9.38-1.29,2.94,2.23,3.54,6.41,1.33,9.36-.65.87-16.3,21.35-42.68,21.35Z"/>
  <path class="st0" d="M72.1,79.18c-3.7,0-6.75-3-6.75-6.7s2.96-6.7,6.66-6.7h.09c3.7,0,6.7,3,6.7,6.7s-3,6.7-6.7,6.7Z"/>
  <path class="st0" d="M128.08,79.18c-3.7,0-6.75-3-6.75-6.7s2.96-6.7,6.66-6.7h.09c3.7,0,6.71,3,6.71,6.7s-3.01,6.7-6.71,6.7Z"/>
  <path class="st0" d="M193.29,41.87h-55.98c-3.7,0-6.71-3-6.71-6.7s3.01-6.7,6.71-6.7h55.98c3.7,0,6.71,3,6.71,6.7s-3.01,6.7-6.71,6.7Z"/>
  <path class="st0" d="M165.3,69.85c-3.7,0-6.71-3-6.71-6.7V7.17c0-3.7,3.01-6.7,6.71-6.7s6.71,3,6.71,6.7v55.98c0,3.7-3.01,6.7-6.71,6.7Z"/>
</svg>