<?xml version="1.0" encoding="UTF-8"?>
<svg id="Ebene_1" xmlns="http://www.w3.org/2000/svg" version="1.1" viewBox="0 0 200 200">
  <!-- Generator: Adobe Illustrator 30.0.0, SVG Export Plug-In . SVG Version: 2.1.1 Build 123)  -->
  <defs>
    <style>
      .st0 {
        fill: #6e9de7;
      }

      .st1 {
        fill: #2b2b2b;
      }

      .st2 {
        opacity: .65;
      }
    </style>
  </defs>
  <g class="st2">
    <circle class="st0" cx="100.76" cy="101.37" r="46.38"/>
  </g>
  <path class="st1" d="M100.76,149.21c-38.47,0-74.49-17.15-98.84-47.05-.54-.66-.54-1.61,0-2.28,24.35-29.9,60.37-47.04,98.84-47.04s74.49,17.15,98.84,47.04c.54.66.54,1.61,0,2.28-24.35,29.9-60.37,47.05-98.84,47.05ZM5.65,101.03c23.64,28.35,58.22,44.58,95.11,44.58s71.46-16.23,95.11-44.58c-23.64-28.35-58.22-44.58-95.11-44.58S29.29,72.68,5.65,101.03Z"/>
  <path class="st1" d="M100.76,149.21c-26.57,0-48.18-21.62-48.18-48.18s21.62-48.18,48.18-48.18,48.18,21.62,48.18,48.18-21.62,48.18-48.18,48.18ZM100.76,56.45c-24.58,0-44.58,20-44.58,44.58s20,44.58,44.58,44.58,44.58-20,44.58-44.58-20-44.58-44.58-44.58Z"/>
  <g>
    <path class="st0" d="M100.75,76.94c-1.87,0-3.75.22-5.48.65,2.38,2.16,3.82,5.33,3.82,8.86,0,6.7-5.48,12.18-12.18,12.18-3.75,0-7.13-1.66-9.22-4.32-.65,2.09-1.01,4.4-1.01,6.7,0,13.33,10.81,24.07,24.07,24.07s24.07-10.74,24.07-24.07-10.74-24.07-24.07-24.07Z"/>
    <path class="st1" d="M100.75,126.88c-14.27,0-25.87-11.61-25.87-25.87,0-2.44.38-4.94,1.09-7.24.2-.64.74-1.12,1.39-1.24.67-.12,1.33.13,1.74.66,1.78,2.28,4.7,3.63,7.81,3.63,5.72,0,10.38-4.65,10.38-10.38,0-2.92-1.18-5.66-3.23-7.53-.49-.45-.7-1.13-.54-1.77.16-.64.66-1.15,1.31-1.31,1.83-.46,3.88-.71,5.92-.71,14.27,0,25.87,11.61,25.87,25.88s-11.61,25.87-25.87,25.87ZM78.73,97.79c-.16,1.07-.25,2.15-.25,3.22,0,12.28,9.99,22.27,22.27,22.27s22.27-9.99,22.27-22.27-9.99-22.27-22.27-22.27c-.7,0-1.39.03-2.08.1,1.43,2.21,2.22,4.86,2.22,7.62,0,7.71-6.27,13.98-13.98,13.98-3,0-5.88-.96-8.18-2.64Z"/>
  </g>
  <path class="st0" d="M100.75,197.44c-1,0-1.8-.81-1.8-1.8v-32.65c0-1,.81-1.8,1.8-1.8s1.8.81,1.8,1.8v32.65c0,1-.81,1.8-1.8,1.8Z"/>
  <path class="st0" d="M100.75,41.77c-1,0-1.8-.81-1.8-1.8V4.37c0-.99.81-1.8,1.8-1.8s1.8.81,1.8,1.8v35.6c0,.99-.81,1.8-1.8,1.8Z"/>
  <path class="st0" d="M136.06,186.63c-.7,0-1.36-.41-1.65-1.09l-10.74-24.79c-.39-.91.02-1.97.94-2.37.92-.39,1.97.02,2.37.94l10.74,24.79c.39.91-.02,1.97-.94,2.37-.23.1-.48.15-.72.15Z"/>
  <path class="st0" d="M74.37,44.36c-.7,0-1.36-.41-1.65-1.09l-11.53-26.67c-.39-.91.02-1.97.94-2.37.91-.39,1.97.02,2.37.94l11.53,26.67c.39.91-.02,1.97-.94,2.37-.23.1-.48.15-.71.15Z"/>
  <path class="st0" d="M62.84,186.63c-.24,0-.48-.05-.72-.15-.91-.4-1.33-1.46-.94-2.37l10.67-24.65c.4-.91,1.45-1.34,2.37-.94.91.4,1.33,1.46.94,2.37l-10.67,24.65c-.3.68-.96,1.09-1.65,1.09Z"/>
  <path class="st0" d="M124.46,44.51c-.24,0-.48-.05-.72-.15-.91-.4-1.33-1.46-.94-2.37l11.6-26.81c.4-.91,1.45-1.33,2.37-.94.91.4,1.33,1.46.94,2.37l-11.6,26.81c-.3.68-.96,1.09-1.65,1.09Z"/>
  <path class="st0" d="M167.92,166.59c-.44,0-.89-.16-1.23-.49l-15.57-14.63c-.72-.68-.76-1.82-.08-2.55.69-.72,1.82-.76,2.55-.08l15.57,14.63c.72.68.76,1.82.08,2.55-.36.38-.83.57-1.31.57Z"/>
  <path class="st0" d="M47.85,53.59c-.44,0-.89-.16-1.23-.49l-17.95-16.86c-.72-.68-.76-1.82-.08-2.55.68-.73,1.82-.76,2.55-.08l17.95,16.86c.72.68.76,1.82.08,2.55-.36.38-.83.57-1.31.57Z"/>
  <path class="st0" d="M197.18,142.23c-.23,0-.47-.05-.69-.14l-19.31-8.07c-.92-.38-1.35-1.44-.97-2.36.39-.92,1.45-1.35,2.36-.97l19.31,8.07c.92.38,1.35,1.44.97,2.36-.29.69-.96,1.11-1.66,1.11Z"/>
  <path class="st0" d="M23.57,69.59c-.23,0-.47-.05-.7-.14L2.62,60.94c-.92-.39-1.35-1.44-.96-2.36s1.44-1.35,2.36-.96l20.25,8.5c.92.39,1.35,1.44.96,2.36-.29.69-.96,1.1-1.66,1.1Z"/>
  <path class="st0" d="M29.91,166.59c-.48,0-.96-.19-1.32-.57-.68-.73-.64-1.87.09-2.55l15.78-14.7c.73-.68,1.87-.64,2.55.09s.64,1.87-.09,2.55l-15.78,14.7c-.35.32-.79.48-1.23.48Z"/>
  <path class="st0" d="M150.91,53.88c-.48,0-.96-.19-1.32-.57-.68-.73-.64-1.87.09-2.55l18.38-17.15c.73-.68,1.87-.64,2.55.09.68.73.64,1.87-.09,2.55l-18.38,17.15c-.35.32-.79.48-1.23.48Z"/>
  <path class="st0" d="M175.34,70.16c-.71,0-1.38-.42-1.66-1.11-.38-.92.05-1.97.97-2.35l21.84-9.08c.91-.38,1.97.05,2.35.97.38.92-.05,1.97-.97,2.35l-21.84,9.08c-.23.09-.46.14-.69.14Z"/>
  <path class="st0" d="M1.8,142.23c-.71,0-1.38-.42-1.66-1.11-.38-.92.06-1.97.98-2.35l18.81-7.78c.92-.38,1.97.06,2.35.98.38.92-.06,1.97-.98,2.35l-18.81,7.78c-.23.09-.46.14-.69.14Z"/>
</svg>