<?xml version="1.0" encoding="UTF-8"?>
<svg id="Ebene_1" xmlns="http://www.w3.org/2000/svg" version="1.1" viewBox="0 0 200 200">
  <!-- Generator: Adobe Illustrator 30.0.0, SVG Export Plug-In . SVG Version: 2.1.1 Build 123)  -->
  <defs>
    <style>
      .st0 {
        fill: #29abe2;
      }
    </style>
  </defs>
  <path class="st0" d="M100,200c-41.42,0-75.12-33.7-75.12-75.12,0-21.9,11.03-42.3,31.9-58.99,19.06-15.25,33.22-38.24,37.87-61.51.51-2.55,2.75-4.38,5.34-4.38s4.83,1.83,5.34,4.38c4.65,23.26,18.81,46.26,37.87,61.51,20.87,16.7,31.9,37.1,31.9,58.99,0,41.42-33.7,75.12-75.12,75.12ZM100,24.6c-7.49,19.15-20.38,36.97-36.41,49.79-18.2,14.56-27.81,32.01-27.81,50.49,0,35.41,28.81,64.22,64.22,64.22s64.22-28.81,64.22-64.22c0-18.47-9.62-35.93-27.81-50.49-16.03-12.83-28.92-30.64-36.41-49.79Z"/>
</svg>