<?xml version="1.0" encoding="UTF-8"?>
<svg id="Ebene_1" xmlns="http://www.w3.org/2000/svg" version="1.1" viewBox="0 0 200 200">
  <!-- Generator: Adobe Illustrator 30.0.0, SVG Export Plug-In . SVG Version: 2.1.1 Build 123)  -->
  <defs>
    <style>
      .st0 {
        fill: #6e9de7;
      }

      .st1 {
        fill: #7199d0;
      }

      .st2 {
        fill: #1c2761;
      }
    </style>
  </defs>
  <path class="st0" d="M12.42,25.67v32.17h175.16V25.67H12.42ZM153.32,45.54c0,1.62-1.31,2.93-2.93,2.93H29.43c-1.62,0-2.93-1.31-2.93-2.93v-7.56c0-1.62,1.31-2.93,2.93-2.93h120.96c1.62,0,2.93,1.31,2.93,2.93v7.56ZM173.04,48.17c-.14.14-.33.21-.52.21s-.38-.07-.52-.21l-3.76-3.76c-.86.64-1.92,1.04-3.08,1.04-2.84,0-5.15-2.31-5.15-5.15s2.31-5.15,5.15-5.15,5.15,2.31,5.15,5.15c0,1.15-.4,2.21-1.04,3.07l3.76,3.76h0c.29.29.29.75,0,1.04ZM165.16,36.61c-2.04,0-3.69,1.66-3.69,3.69s1.65,3.69,3.69,3.69,3.69-1.66,3.69-3.69-1.65-3.69-3.69-3.69Z"/>
  <path class="st2" d="M181.25,164.23H18.75c-10.34,0-18.75-8.41-18.75-18.75V30.05C0,19.71,8.41,11.3,18.75,11.3h162.5c10.34,0,18.75,8.41,18.75,18.75v115.42c0,10.34-8.41,18.75-18.75,18.75h0ZM18.75,14.73c-8.45,0-15.32,6.87-15.32,15.32v115.42c0,8.45,6.87,15.32,15.32,15.32h162.5c8.45,0,15.32-6.87,15.32-15.32V30.05c0-8.45-6.87-15.32-15.32-15.32H18.75Z"/>
  <path class="st2" d="M198.28,139.84H1.72c-.95,0-1.72-.77-1.72-1.72s.77-1.72,1.72-1.72h196.57c.95,0,1.72.77,1.72,1.72s-.77,1.72-1.72,1.72h-.01Z"/>
  <path class="st2" d="M187.58,139.84H12.42c-.95,0-1.72-.77-1.72-1.72V24.92c0-.95.77-1.72,1.72-1.72h175.16c.95,0,1.72.77,1.72,1.72v113.2c0,.95-.77,1.72-1.72,1.72ZM14.13,136.41h171.73V26.64H14.13v109.77Z"/>
  <path class="st2" d="M138.94,188.7H61.06c-.95,0-1.72-.77-1.72-1.72s.77-1.72,1.72-1.72h77.88c.95,0,1.72.77,1.72,1.72s-.77,1.72-1.72,1.72Z"/>
  <path class="st2" d="M130.4,188.7h-60.81l7.25-26.64c.25-.91,1.18-1.45,2.11-1.2.91.25,1.45,1.19,1.2,2.11l-6.07,22.31h51.83l-6.06-22.31c-.25-.91.29-1.86,1.21-2.1s1.86.29,2.1,1.21l7.23,26.64v-.02Z"/>
  <rect class="st0" x="26.5" y="64.55" width="147.01" height="28.99" rx="2.53" ry="2.53"/>
  <rect class="st1" x="26.5" y="100.16" width="43.48" height="27.75" rx="2.53" ry="2.53"/>
  <rect class="st1" x="78.26" y="100.16" width="43.48" height="27.75" rx="2.53" ry="2.53"/>
  <rect class="st1" x="130.02" y="100.16" width="43.48" height="27.75" rx="2.53" ry="2.53"/>
</svg>