<?xml version="1.0" encoding="UTF-8"?>
<svg id="Ebene_1" xmlns="http://www.w3.org/2000/svg" version="1.1" viewBox="0 0 200 23.1">
  <!-- Generator: Adobe Illustrator 30.0.0, SVG Export Plug-In . SVG Version: 2.1.1 Build 123)  -->
  <defs>
    <style>
      .st0 {
        fill: #1f3c85;
      }
    </style>
  </defs>
  <path class="st0" d="M0,0h3.97v1.06H1.23v20.98h2.74v1.06H0V0Z"/>
  <path class="st0" d="M6.05,1.06h.96v4.54h-.96V1.06Z"/>
  <path class="st0" d="M21.47,5.43l-5.83,12.88h-1.26l-5.8-12.88h1.31l5.13,11.53,5.18-11.53h1.26Z"/>
  <path class="st0" d="M33.26,8.52c-.21-1.57-1.33-3.09-3.73-3.09s-3.56,1.57-3.56,3.19.95,2.4,1.78,2.67v.04c-1.35.41-2.36,1.45-2.36,3.3,0,2.15,1.35,3.98,4.17,3.98,2.59,0,3.88-1.68,4.12-3.38h-1c-.31,1.29-1.33,2.45-3.19,2.45-2.18,0-3.03-1.47-3.03-3.01,0-2.03,1.33-2.84,3.21-2.84h.75v-.89h-.6c-1.93,0-2.8-.81-2.8-2.32,0-1.33.93-2.26,2.55-2.26s2.42.89,2.73,2.16h.97Z"/>
  <path class="st0" d="M43.7,5.33v1.21c-.1,0-.2-.02-.3-.02-2.86,0-4.57,1.9-4.57,5.08v6.71h-1.23V5.43h1.18v2.81c.79-1.88,2.49-2.91,4.91-2.91Z"/>
  <path class="st0" d="M59.94,11.87c0,3.85-2.74,6.54-6.37,6.54-2.32,0-4.27-1.16-5.28-3.13v3.04h-1.18V0h1.23v8.37c1.04-1.93,2.96-3.04,5.23-3.04,3.63,0,6.37,2.67,6.37,6.54ZM58.71,11.87c0-3.23-2.25-5.43-5.21-5.43s-5.18,2.2-5.18,5.43,2.22,5.43,5.18,5.43,5.21-2.2,5.21-5.43Z"/>
  <path class="st0" d="M74.67,11.87c0,3.83-2.64,6.54-6.17,6.54s-6.15-2.67-6.15-6.49c0-.1.02-.22.02-.35h11.08c-.12-3.06-2.37-5.13-5.45-5.13-1.63,0-3.13.59-4.12,1.8l-.72-.81c1.14-1.38,2.91-2.1,4.86-2.1,3.9,0,6.64,2.72,6.64,6.54ZM73.44,12.54h-9.87c.17,2.79,2.2,4.79,4.94,4.79s4.74-1.97,4.94-4.79Z"/>
  <path class="st0" d="M91.33,11.87c0,3.88-2.74,6.54-6.37,6.54-2.27,0-4.2-1.11-5.23-3.04v7.73h-1.23V5.43h1.18v3.04c1.01-1.97,2.96-3.13,5.28-3.13,3.63,0,6.37,2.69,6.37,6.54ZM90.1,11.87c0-3.23-2.25-5.43-5.21-5.43s-5.18,2.2-5.18,5.43,2.22,5.43,5.18,5.43,5.21-2.2,5.21-5.43Z"/>
  <path class="st0" d="M93.25,16.76l.57-.99c.99.84,2.74,1.56,4.64,1.56,2.72,0,3.8-.96,3.8-2.42,0-3.75-8.54-.99-8.54-6.05,0-1.95,1.63-3.53,4.89-3.53,1.63,0,3.41.49,4.42,1.26l-.57.99c-1.09-.79-2.49-1.16-3.88-1.16-2.52,0-3.63,1.04-3.63,2.42,0,3.88,8.54,1.14,8.54,6.05,0,2.1-1.8,3.53-5.08,3.53-2.12,0-4.15-.72-5.16-1.65Z"/>
  <path class="st0" d="M117.04,5.43l-6.61,14.64c-1.04,2.37-2.32,3.13-4.02,3.13-1.16,0-2.25-.39-2.99-1.16l.62-.94c.67.69,1.43,1.01,2.39,1.01,1.18,0,2.05-.54,2.84-2.3l.69-1.56-5.8-12.84h1.31l5.16,11.53,5.16-11.53h1.26Z"/>
  <path class="st0" d="M128.44,15.38l.91.67c-1.06,1.56-2.84,2.37-4.89,2.37h-.12l-.32,1.23c1.31.1,2.1.86,2.1,1.97,0,1.26-1.09,2.05-2.59,2.05-.74,0-1.38-.17-1.95-.62l.35-.69c.44.35,1.01.52,1.6.52.99,0,1.63-.47,1.63-1.31,0-.74-.57-1.26-1.63-1.26h-.49l.52-1.95c-3.31-.42-5.6-2.99-5.6-6.49,0-3.85,2.74-6.54,6.52-6.54,2.05,0,3.83.79,4.89,2.37l-.91.67c-.94-1.31-2.37-1.93-3.97-1.93-3.04,0-5.26,2.17-5.26,5.43s2.22,5.43,5.26,5.43c1.6,0,3.04-.62,3.97-1.93Z"/>
  <path class="st0" d="M131.43,11.87c0-3.83,2.74-6.54,6.44-6.54s6.44,2.72,6.44,6.54-2.74,6.54-6.44,6.54-6.44-2.72-6.44-6.54ZM143.05,11.87c0-3.23-2.22-5.43-5.18-5.43s-5.18,2.2-5.18,5.43,2.22,5.43,5.18,5.43,5.18-2.2,5.18-5.43Z"/>
  <path class="st0" d="M148.13,0h1.23v18.31h-1.23V0Z"/>
  <path class="st0" d="M153.16,11.87c0-3.83,2.74-6.54,6.44-6.54s6.44,2.72,6.44,6.54-2.74,6.54-6.44,6.54-6.44-2.72-6.44-6.54ZM164.79,11.87c0-3.23-2.22-5.43-5.18-5.43s-5.18,2.2-5.18,5.43,2.22,5.43,5.18,5.43,5.18-2.2,5.18-5.43Z"/>
  <path class="st0" d="M181.47,5.43v11.5c0,4.32-2.1,6.27-6.24,6.27-2.34,0-4.59-.74-5.9-2.05l.67-.94c1.28,1.18,3.13,1.88,5.21,1.88,3.43,0,5.04-1.58,5.04-5.01v-2.17c-1.06,1.88-3.04,2.94-5.36,2.94-3.65,0-6.42-2.59-6.42-6.27s2.76-6.24,6.42-6.24c2.37,0,4.37,1.09,5.41,3.01v-2.91h1.18ZM180.26,11.58c0-3.04-2.22-5.13-5.28-5.13s-5.26,2.1-5.26,5.13,2.22,5.16,5.26,5.16,5.28-2.12,5.28-5.16Z"/>
  <path class="st0" d="M186.3,1.31c0-.54.44-1.01,1.01-1.01s1.01.44,1.01.99-.44,1.01-1.01,1.01-1.01-.44-1.01-.99ZM186.7,5.43h1.23v12.88h-1.23V5.43Z"/>
  <path class="st0" d="M191.96,6.37c0-.59.47-1.04,1.04-1.04s1.04.44,1.04,1.04-.47,1.06-1.04,1.06-1.04-.47-1.04-1.06ZM191.96,17.35c0-.59.47-1.04,1.04-1.04s1.04.44,1.04,1.04-.47,1.06-1.04,1.06-1.04-.47-1.04-1.06Z"/>
  <path class="st0" d="M196.03,23.1v-1.06h2.74V1.06h-2.74V0h3.97v23.1h-3.97Z"/>
</svg>