<?xml version="1.0" encoding="UTF-8"?>
<svg id="Ebene_1" xmlns="http://www.w3.org/2000/svg" version="1.1" viewBox="0 0 200 200">
  <!-- Generator: Adobe Illustrator 30.0.0, SVG Export Plug-In . SVG Version: 2.1.1 Build 123)  -->
  <defs>
    <style>
      .st0 {
        fill: #f9b50f;
      }
    </style>
  </defs>
  <path class="st0" d="M43.8,200c-6.7,0-12.99-2.61-17.73-7.34-4.74-4.74-7.35-11.04-7.35-17.74,0-4.2,1.07-8.37,3.08-12.05l51.59-94.39c1-1.81,1.52-3.86,1.52-5.94V6.36c0-3.51,2.85-6.36,6.36-6.36s6.36,2.85,6.36,6.36v56.19c0,4.2-1.07,8.37-3.08,12.04l-51.59,94.39c-1,1.81-1.52,3.87-1.52,5.94,0,3.3,1.29,6.41,3.63,8.75,2.33,2.33,5.44,3.62,8.74,3.62h112.38c2.07,0,4.13-.53,5.94-1.52,5.99-3.27,8.19-10.81,4.92-16.79l-51.6-94.39c-2.01-3.67-3.07-7.84-3.07-12.04V6.36c0-3.51,2.85-6.36,6.36-6.36s6.36,2.85,6.36,6.36v56.19c0,2.07.52,4.13,1.51,5.93l51.6,94.4c3.21,5.88,3.95,12.66,2.06,19.09-1.88,6.43-6.16,11.74-12.04,14.96-3.68,2.02-7.84,3.08-12.04,3.08H43.8Z"/>
  <path class="st0" d="M151.94,134.45H48.05c-3.51,0-6.36-2.85-6.36-6.36s2.85-6.36,6.36-6.36h103.89c3.51,0,6.36,2.85,6.36,6.36s-2.85,6.36-6.36,6.36Z"/>
  <path class="st0" d="M132.77,12.72h-65.55c-3.51,0-6.36-2.85-6.36-6.36s2.85-6.36,6.36-6.36h65.55c3.51,0,6.36,2.85,6.36,6.36s-2.85,6.36-6.36,6.36Z"/>
</svg>